<svg width="526" height="2756" viewBox="0 0 526 2756" fill="none" xmlns="http://www.w3.org/2000/svg">
<g clip-path="url(#clip0_70_92)">
<rect width="526" height="2756" fill="#00468C"/>
<path d="M268.236 206.963C268.236 206.963 269.542 203.226 270.516 202.575C282.677 196.863 291.894 211.03 288.35 212.173C285.642 213.059 263.333 229.991 263.333 229.991C261.17 219.304 268.236 206.963 268.236 206.963ZM515.426 480.35C503.532 481.097 499.828 481.097 476.813 483.307C453.807 485.528 420.397 485.528 416.682 483.307C412.989 481.097 398.88 463.332 389.224 450.018C379.579 436.694 327.627 370.822 314.257 347.879C300.897 324.946 274.916 263.515 274.916 263.515C274.916 263.515 296.454 244.276 334.296 222.817C372.149 201.347 375.125 190.254 376.613 182.856C378.101 175.457 378.829 166.574 362.515 173.973C346.179 181.372 309.075 180.635 306.089 180.635C303.123 180.635 296.454 179.14 289.763 184.329C283.083 189.507 273.331 186.603 273.331 186.603C273.331 186.603 268.236 183.592 268.236 176.183C268.236 168.784 254.137 154.734 254.137 154.734C269.724 160.649 309.814 135.485 323.902 121.425C338.011 107.353 366.957 82.1893 377.352 70.3493C387.747 58.5307 399.619 63.7087 409.274 40.7654C415.462 26.0535 412.058 37.5092 417.068 21.8257C422.067 6.14231 417.068 4.72237 408.493 1.14582C399.908 -2.42005 386.323 3.28104 372.727 5.42697C359.143 7.56222 341.983 11.1174 334.125 12.5694C326.246 13.9787 330.55 13.9787 312.661 24.6656C294.784 35.3739 268.332 43.2102 244.01 53.9079C219.71 64.6055 207.549 66.7408 200.398 66.7408C193.247 66.7408 187.53 64.6055 179.662 77.4384C174.513 85.8299 180.979 93.2392 187.049 98.7588C194.456 105.506 197.657 110.876 203.438 118.905C208.212 125.535 216.969 126.923 221.133 134.471C221.133 134.471 213.993 133.756 203.267 134.471C192.529 135.176 195.388 150.154 195.388 158.717C195.388 167.258 196.105 193.649 193.953 202.201C191.823 210.753 192.529 222.87 192.529 234.283C192.529 245.685 186.588 276.839 186.588 276.839C176.194 287.942 81.9357 344.921 65.5998 354.541C49.2639 364.16 15.8749 345.669 15.8642 345.669C4.20641 365.601 22.587 404.014 36.4821 419.121C44.7678 428.132 56.5862 436.94 67.8265 441.872C86.389 450.018 116.759 438.968 137.591 415.224C158.38 391.534 184.362 348.615 184.362 348.615C187.327 383.399 184.362 406.342 153.927 481.097C123.493 555.841 83.413 555.841 61.1465 561.756C38.8801 567.671 3.25367 564.713 0.277665 575.817C-4.57172 593.934 55.2052 610.6 93.069 603.201C117.616 598.397 138.897 574.728 154.998 557.293C177.286 533.176 200.355 507.884 210.364 475.919C218.661 449.442 224.034 421.769 229.226 394.566C231.721 381.498 234.183 368.409 236.324 355.277C241.516 323.451 250.422 282.764 250.422 282.764C250.422 282.764 274.915 392.292 290.502 441.872C306.089 491.453 346.179 550.653 371.421 557.315C396.643 563.977 430.064 535.119 438.221 532.162C446.378 529.194 488.695 512.902 510.951 504.777C533.228 496.631 527.298 479.602 515.426 480.35Z" fill="white"/>
<path d="M467.877 1117.32C467.098 1112.05 462.347 1106.74 457.996 1103.84C451.634 1099.6 441.679 1102.34 434.432 1101.37C415.271 1098.8 397.647 1092.32 379.719 1085.55C372.756 1082.93 358.43 1081.2 353.173 1075.65C351.161 1077.1 353.173 1075.65 353.173 1079.52C353.71 1081.52 357.703 1086.41 366.235 1099.76C376.78 1116.26 388.578 1130.31 383.416 1133.36C369.406 1141.62 353.173 1145.24 338.942 1153.24C334.043 1156 330.483 1157.95 326.027 1160.71C321.561 1163.47 319.78 1165.06 314.05 1164.98C308.32 1164.88 301.325 1161.14 297.48 1154.62C293.635 1148.09 293.266 1144.85 299.934 1141.33C306.634 1137.78 322.193 1126.76 321.476 1117.86C320.76 1108.97 317.484 1109.93 312.712 1104.99C307.961 1100.1 296.606 1121.53 297.606 1088.86C297.659 1087.33 297.048 1083.74 297.722 1083.09C298.365 1081.11 313.997 1077.89 315.778 1077.2C317.2 1076.39 319.148 1075.35 322.087 1073.84C329.419 1070.04 346.389 1062.01 352.32 1054.86C354.047 1052.76 355.206 1041.41 355.301 1039.47C355.427 1037.01 357.418 1031.87 347.327 1029.55C337.246 1027.23 340.985 1032.03 330.493 1036.69C319.991 1041.34 294.962 1048.3 294.962 1048.3C294.962 1048.3 294.425 1039.99 293.235 1032.29C292.95 1030.4 292.592 1028.07 292.687 1026.11L292.729 1025.29C292.729 1025.29 293.804 1016.65 306.834 1001.12C320.054 985.317 375.379 959.995 394.224 952.455C413.069 944.926 445.134 932.718 451.55 930.572C457.965 928.406 456.753 919.794 450.349 911.182C444.176 902.885 437.982 908.816 431.093 911.802C422.802 915.419 413.417 914.862 404.842 917.502C396.109 920.194 387.746 924.431 379.392 928.049C367.763 933.075 344.893 944.558 337.298 947.071C329.682 949.595 319.254 956.767 314.05 959.269C308.836 961.793 308.836 959.648 312.839 949.942C316.852 940.257 332.095 936.314 338.099 934.884C344.103 933.433 352.91 926.619 362.548 919.079C377.075 907.69 387.261 892.275 398.659 878.015C404.547 870.655 411.352 863.62 416.872 856.038C421.233 850.044 425.52 843.146 426.869 835.753C428.343 827.646 424.309 824.165 419.484 818.213C411.036 807.782 391.485 816.026 381.078 818.35C378.233 818.981 374.241 819.286 371.808 821.01C365.656 825.385 357.376 840.98 347.306 837.604C344.103 836.521 344.504 819.296 343.703 809.244C342.902 799.201 331.294 793.092 319.254 784.479C307.235 775.867 290.791 759 273.557 759C256.313 759 251.9 792.734 250.699 804.585C249.877 812.63 250.214 820.748 249.372 828.781C248.592 836.248 245.916 843.219 244.631 850.57C242.398 863.357 249.645 888.983 233.465 895.387C229.852 896.828 229.852 902.569 227.061 907.238C224.248 911.897 213.019 919.794 216.232 925.546C219.445 931.277 231.053 920.151 233.465 919.794C235.867 919.436 239.48 925.882 240.281 927.323C243.673 933.391 240.776 945.347 240.955 952.056C241.281 963.77 243.873 976.431 242.198 988.082C241.26 994.581 206.098 999.544 195.438 1002.87C183.102 1007.44 195.122 1019.54 198.872 1026.02C200.304 1027.31 195.438 1028.02 234.392 1031.52C235.477 1031.62 235.762 1039.45 236.383 1042.87C237.521 1049.67 239.48 1056.73 239.269 1063.65C239.269 1063.65 221.035 1071.42 221.362 1077.49C221.688 1083.55 220.719 1088.78 228.63 1090.11C236.531 1091.45 241.766 1094.36 241.766 1094.36C241.766 1094.36 244.252 1100.88 244.958 1112.19C245.337 1118.04 243.641 1118.03 243.694 1119.42C243.82 1121.41 230.663 1125.44 228.704 1127.26C222.057 1133.5 224.332 1144.71 235.92 1152.98C240.239 1156.05 244.494 1151.45 246.928 1155.36C250.309 1160.76 244.737 1170.66 243.81 1172.75C240.597 1179.96 234.203 1191.56 223.089 1196.65C211.976 1201.72 201.221 1209.05 167.744 1209.91C162.877 1210.02 159.475 1215.37 158 1221.07C159.117 1224.57 159.928 1228.29 158.727 1233.41L159.801 1234.41C165.458 1237.73 173.327 1241.5 178.531 1246.83C183.682 1252.16 180.722 1256.16 194.195 1256.37C213.577 1256.68 214.746 1242.15 230.6 1242.81C246.454 1243.46 234.719 1257.41 234.603 1263.86C234.466 1270.64 227.292 1278.06 224.606 1284.05C217.664 1299.55 226.45 1319.19 235.941 1331.61C243.167 1341.04 260.79 1368.48 275.601 1357.41C281.416 1353.06 299.587 1324.67 305.054 1314.25C310.553 1303.83 312.881 1297.02 313.028 1288.92C313.186 1280.85 302.536 1214.46 307.477 1209.69C315.862 1201.59 333.569 1199.78 344.198 1195.79C363.128 1188.68 382.257 1180.37 400.555 1171.78C407.107 1168.71 413.49 1165.27 419.916 1161.96C427.911 1157.81 434.632 1151.62 442.543 1147.27C449.095 1143.65 458.586 1139.97 462.284 1132.96C465.507 1126.97 468.667 1122.57 467.877 1117.32ZM341.196 873.052C345.736 863.094 364.697 856.448 364.697 856.448C367.994 866.038 354.395 876.743 352.752 878.594C351.108 880.445 351.108 883.389 350.276 886.344C349.444 889.309 342.839 892.243 342.839 892.243C342.839 892.243 336.656 883.021 341.196 873.052Z" fill="white"/>
<path d="M193.426 1004.92L192.709 1004.24L191.054 1002.42C189.051 999.206 174.599 997.404 173.903 993.748C171.826 983.158 161.485 979.28 155.381 979.153C149.277 978.995 138.367 974.138 134.814 972.146C131.251 970.144 119.044 967.309 113.109 963.137C107.195 958.953 110.189 944.296 109.461 939.681C108.576 933.917 114.447 925.044 116.819 920.144C123.134 907.141 137.112 894.001 151.755 891.283C162.296 889.312 171.531 889.123 176.949 878.238C189.863 852.295 160.525 833.686 139.98 827.29C129.67 824.097 124.568 820.082 118.97 818.554C113.372 817.016 95.7148 812.548 88.1352 809.724C80.5452 806.9 66.3665 801.884 60.1364 807.659C53.8851 813.433 61.9601 819.387 76.455 832.348C83.2755 838.438 87.7663 844.982 89.1894 854.023C90.5177 862.379 91.1186 867.458 97.1695 873.822C104.496 881.515 110.832 887.257 110.6 898.669C110.347 910.692 101.808 937.257 99.3833 942.051C96.9798 946.783 91.9197 949.47 89.1789 954.032C78.0573 972.578 81.7153 988.268 92.3625 1005.6C100.849 1019.44 106.773 1046.28 108.333 1058.66C109.893 1071.03 104.38 1101.21 102.24 1110.08C100.09 1118.93 95.2088 1137.35 90.1276 1168.11C85.0571 1198.88 82.8327 1204.88 79.7229 1205.37C76.6342 1205.84 71.7217 1219.54 70.0878 1224.85C68.1481 1231.21 74.2412 1241.46 75.2321 1247.94C77.2245 1261.11 74.3993 1290.56 96.7268 1285.4C118.105 1280.43 115.755 1274.25 122.185 1249.9C127.203 1230.9 135.046 1219.5 138.577 1199.09C142.088 1178.67 145.925 1178.38 146.336 1172.01C146.747 1165.64 144.428 1157.48 144.502 1139.79C144.576 1122.12 144.787 1094.01 144.628 1083.95C144.481 1073.87 146.031 1065.75 147.549 1052.89C149.077 1040.03 158.828 1032.52 167.03 1028.73C169.802 1027.45 193.563 1023.77 196.547 1023.3C197.833 1023.09 195.882 1020.31 196.757 1019.34L193.858 1017.51C193.468 1014.19 195.081 1010.51 194.997 1010.34L194.523 1008.28C194.27 1006.93 194.196 1005.84 193.426 1004.92ZM133.855 1079.53C134.066 1084.51 118.633 1140.01 115.438 1144.5C112.213 1149 111.675 1149.09 110.99 1144.69C110.305 1140.29 113.625 1129.26 117.515 1107.61C121.447 1085.97 134.751 1067.36 134.751 1067.36C135.731 1073.73 133.633 1074.55 133.855 1079.53Z" fill="white"/>
<path d="M305.488 1738.85L305.776 1738.67C314.761 1732.36 330.108 1725.57 345.573 1717.85L343.686 1714.09L345.679 1717.8C368.935 1705.01 398.66 1687.39 408.657 1670.14L408.998 1669.53L409.136 1668.85L409.296 1666.78C408.678 1657.16 399.736 1651.9 389.878 1646.37C379.806 1641.03 367.624 1636.39 358.33 1632.75C357.392 1632.45 337.014 1627.14 329.596 1625.27L329.096 1625.14H328.573C327.305 1625.01 325.28 1625.95 324.534 1627.32C323.713 1628.61 323.713 1629.6 323.703 1630.36C323.916 1634.49 326.079 1638.79 328.136 1644.53C330.204 1649.94 332.101 1655.95 332.037 1658.74L331.888 1659.98C329.255 1667.63 306.32 1682.51 293.701 1689.19C299.648 1641.24 327.561 1603.77 333.455 1555.02L333.636 1553.47L332.783 1552.19C321.528 1536.14 280.4 1507.74 255.545 1506.09L253.67 1506L252.337 1507.34C250.909 1508.89 250.685 1510.21 250.408 1510.91L250.248 1511.38L249.758 1511.86L249.438 1512.86C247.541 1518.86 246.923 1525.17 246.923 1531.58C246.944 1545.19 249.577 1559.49 249.545 1573.04C249.545 1577.96 249.204 1582.74 248.341 1587.39C239.772 1635.05 234.048 1682.46 222.89 1727.74C194.646 1745.6 163.717 1762.36 130.134 1774.51C117.142 1779.89 99.9827 1778.11 82.6423 1783.97C81.3313 1784.15 80.6173 1784.65 80.2016 1784.81L80.1483 1784.85H75.7359L76.514 1789.73C80.532 1812.3 88.5361 1846.05 114.243 1847.24C115.863 1847.24 117.483 1847.06 119.124 1846.79C134.759 1843.82 149.339 1836.18 163.834 1825.38C177.476 1815.17 191.31 1806.07 206.508 1797.4C202.171 1842.36 182.592 1865.59 154.306 1881.74C124.624 1898.58 84.9444 1906.57 44.8067 1919.62L43.0908 1920.16L42.3128 1921.77C41.8438 1922.96 40.0639 1924.8 40 1928.45V1930.84L42.0783 1932.07C55.3047 1939.63 74.7341 1939.29 88.7599 1941.27C93.961 1941.77 98.9382 1942 103.851 1942C177.508 1941.9 232.247 1888.44 252.551 1835.75C261.151 1808.14 269.614 1780.77 278.098 1754.36C287.242 1748.89 296.28 1743.48 305.233 1738.99L305.488 1738.85ZM463.747 1862.83C455.786 1860.83 449.072 1859.88 441.654 1858.01L440.63 1862.11L441.419 1857.97C435.611 1856.85 429.898 1856.48 424.292 1856.48C412.334 1856.48 400.877 1858.1 389.739 1858.09C382.396 1858.09 375.17 1857.38 367.922 1855.19C361.037 1853.48 353.683 1849 346.191 1843.36C326.74 1829.45 309.634 1806.75 299.307 1788.86L298.113 1786.76H290.887H288.659L287.402 1788.6C283.927 1793.68 282.521 1799.62 282.521 1805.74C282.894 1837.82 318.779 1880.19 330.662 1897.24C334.201 1901.62 336.108 1906.43 340.393 1911.85C343.43 1915.92 347.939 1920.54 354.802 1922.82C359.63 1924.33 364.309 1925 368.85 1925H369.02C396.528 1924.82 418.036 1901.9 431.39 1893.52C434.673 1890.99 442.464 1887.51 449.7 1883.6C456.916 1879.49 464.195 1875.48 466.732 1868.14L468 1863.91L463.747 1862.83Z" fill="white"/>
<path d="M224.978 2279.12L227.65 2282.4L224.69 2279.37C223.717 2280.33 222.734 2281.3 221.89 2282.15C218.759 2273.83 215.115 2263.79 215.051 2256.43C215.03 2255.34 215.062 2254.3 215.201 2253.38C218.631 2254.05 221.281 2254.8 223.119 2255.84C228.366 2258.7 232.266 2261.64 236.776 2264.76C234.425 2269.29 229.263 2275.72 224.978 2279.12ZM314.291 2317.29L318.235 2317.22L326.399 2318.7C327.179 2320.4 328.098 2322.25 329.316 2324.33C328.023 2327.47 327.82 2330.15 327.179 2331.35C324.796 2333.58 321.857 2334.78 318.854 2334.86C315.488 2334.89 311.898 2333.57 308.478 2329.82C309.098 2324.14 310.69 2321.73 314.291 2317.29ZM322.498 2250.12L322.573 2249.64L322.509 2249.1V2248.94C322.434 2246.85 323.61 2243.97 326.142 2240.72L322.808 2238.14L326.356 2240.43C339.606 2218.89 394.671 2200.95 421.984 2191.21C424.998 2190.64 426.419 2189.55 428.845 2189.55C430.64 2189.59 432.318 2189.9 434.85 2192.59C437.693 2196.39 438.783 2199.96 438.857 2203.57C438.986 2209.18 436.154 2215.31 432.061 2221.56C425.308 2233.01 417.518 2244.45 410.657 2255.07L410.508 2255.31L410.337 2255.71C401.959 2276.98 388.227 2322.02 364.334 2321.18C363.041 2321.21 361.705 2321.13 360.305 2320.92C357.046 2312.53 354.599 2304.83 352.13 2296.99L351.735 2295.81L350.795 2295.05C346.755 2291.73 342.417 2289.92 339.767 2287.65C337.085 2284.68 332.532 2278.35 329.038 2271.23C324.817 2263.94 322.52 2256.9 322.445 2251.75L322.498 2250.12ZM195.923 2452.19L241.157 2424L314.281 2377.53C318.224 2376.06 325.127 2375.78 332.222 2375.68C336.144 2375.99 340.889 2376.29 345.655 2376.22C352.558 2376.08 359.568 2375.19 365.456 2371.7C404.694 2349.9 419.548 2301.4 441.497 2267.76C450.014 2254.31 480.265 2211.52 479.998 2179.42C479.881 2169.97 476.686 2160.91 468.917 2154.76C461.18 2148.62 449.693 2145.53 433.525 2145.8L432.724 2145.82L431.976 2146.13C413.446 2154.2 367.678 2197.73 335.054 2208.06C339.232 2196.81 350.923 2186.25 362.912 2175.06C376.419 2162.22 390.514 2148 390.268 2127.8L390.215 2126.16L390.236 2125.85C389.723 2120.52 386.154 2117.51 381.613 2113.5C367.614 2102.15 339.403 2088.34 319.367 2086.29L316.258 2086L315.061 2088.86C311.78 2097.52 313.982 2110.81 312.699 2119.47L311.086 2122.75L295.27 2158.23C290.045 2169.98 286.348 2185.61 280 2198.05C273.503 2210.56 265.531 2219.09 250.828 2219.45C244.961 2219.55 237.844 2218.25 229.263 2215C226.538 2213.91 225.491 2213.95 223.92 2213.24C206.524 2204.96 196.735 2189.26 178.804 2178.34C171.271 2172.35 162.316 2170.65 155.221 2166.42C148.04 2162.44 140.282 2154.08 127.587 2153.06L122.981 2152.73L123.024 2155.03L118.258 2155.12L121.592 2161.24C126.7 2170.53 131.936 2180.86 137.108 2190.31C147.901 2216.24 162.241 2248.74 162.84 2278.73V2279.05C162.925 2284.21 163.385 2289.47 163.47 2294.42C163.62 2303.74 162.391 2310.93 156.524 2315.23L156.343 2315.38H156.129C137.354 2302.62 127.939 2277.16 92.8895 2277.63C88.9143 2277.7 84.6293 2278.11 80.0129 2278.9L78.6986 2279.13L77.7689 2280.05C77.3735 2280.29 75.4821 2282.31 75.6103 2284.53L75.7279 2285.8L75.9416 2286.86L76.6576 2287.7C90.6241 2303.88 112.744 2339.56 114.945 2364.24C114.967 2369.47 114.069 2375.26 114.165 2381.41C114.219 2386.76 115.191 2392.53 118.589 2398.13L118.942 2398.75L119.54 2399.23C126.326 2404.79 133.101 2410.35 139.886 2415.92L141.617 2417.36L143.787 2416.7C149.418 2414.78 151.78 2409.82 153.767 2404.69C159.313 2389 162.337 2364.7 180.6 2357.56C189.725 2358.37 194.823 2364.7 204.515 2369.04L205.327 2369.37L206.235 2369.36C209.206 2369.04 210.307 2368.26 211.364 2368.32L213.993 2368.27L215.094 2365.89C217.883 2359.98 220.437 2353.31 223.023 2347.74L223.322 2347.09L223.386 2346.4C223.888 2341.59 225.203 2335.58 225.865 2329.24L233.281 2323.56L267.295 2297.78L269.849 2298.14C271.74 2300.92 274.315 2306.48 274.241 2310.29C274.251 2312 273.92 2313.25 273.257 2314.16L273.108 2314.39L272.969 2314.65L272.915 2314.59C271.793 2315.43 268.417 2316.8 266.354 2317.43L263.213 2318.45L263.501 2322.7L263.619 2324.49L265.051 2325.66C268.16 2327.98 271.954 2328.77 274.86 2329.46C276.164 2336.51 276.837 2342.78 279.391 2350.04L279.498 2350.37L279.701 2350.69C283.58 2356.77 291.659 2364.82 290.825 2366.01L290.718 2365.97L290.173 2366.39L289.821 2366.93C282.768 2377.7 255.732 2392.88 235.899 2402.46C232.48 2404.69 229.766 2406.39 227.49 2407.14L227.041 2407.28L226.688 2407.48C181.187 2433.83 135.868 2459.21 89.844 2485.61C71.8489 2497.64 27.6412 2503.86 27 2536.92C27.0107 2537.87 27.0641 2538.96 27.2244 2540.14L27.4167 2541.54L28.4426 2542.58C38.9255 2552.98 50.3595 2562.39 62.6804 2570.88C71.2077 2575.2 81.3807 2575.72 83.6568 2579.29L85.6658 2581.7L88.5724 2580.46C118.803 2567.67 120.128 2551.38 127.758 2544.8C161.429 2515.29 201.117 2491.08 244.512 2469.6C254.407 2465.69 264.377 2460.77 274.198 2456.91C291.584 2449.22 311.257 2437.33 331.806 2437.04C333.28 2437.01 334.702 2437.04 336.144 2437.14L336.422 2437.16C336.144 2440.88 334.969 2444.59 333.74 2447.22C329.241 2456.12 318.854 2461.83 311.278 2470.3C300.133 2484.49 285.867 2497.88 272.488 2509.37C266.632 2513.8 254.365 2518.17 249.203 2527.07C247.942 2530.32 247.739 2533.07 247.782 2535.6C247.836 2538.77 248.242 2541.69 248.284 2544.03C248.316 2545.91 248.103 2547.29 247.697 2548.25L247.344 2549.07V2549.18L246.917 2549.65C240.216 2554.55 216.772 2561.71 208.404 2565.8C195.56 2573.74 182.149 2581.46 168.76 2587.23C139.437 2598.93 101.449 2600.02 80.2373 2622.93L78.6665 2624.66L79.297 2626.93C81.8402 2634.67 91.9598 2644.5 104.548 2654.21C117.2 2663.58 131.69 2671.86 144.086 2671.81C145.443 2671.81 146.704 2671.65 147.954 2671.43C165.468 2666.83 178.751 2653.71 188.945 2645.17C202.442 2634.04 232.352 2616.54 255.22 2610.77C256.78 2610.21 258.628 2610 260.755 2609.57C262.775 2615.03 263.8 2622.82 266.162 2630.41C268.128 2637.32 269.101 2643.57 269.197 2649.06C269.357 2661.86 265.072 2670.47 257.41 2677.23C247.397 2686.87 229.445 2692.02 208.875 2695.13C206.524 2695.45 203.916 2695.62 201.181 2695.68C192.151 2695.86 181.722 2694.62 171.741 2694.79C167.723 2694.85 163.748 2695.18 159.933 2695.93C158.042 2695.99 156.001 2697.88 155.819 2698.59L155.466 2699.22L151.651 2703.33L156.631 2705.88C170.373 2712.67 187.503 2714.29 198.979 2721.09C220.148 2733.08 238.272 2742.8 259.184 2754.7L259.665 2754.96L260.156 2755.1C261.14 2755.33 262.55 2755.99 264.816 2756H264.89C266.044 2755.98 267.583 2755.59 268.791 2754.51C285.333 2741.74 308.232 2698.81 308.029 2666.13C307.965 2662.26 307.559 2658.54 306.726 2655.05C302.665 2637.65 295.847 2619.5 295.612 2603.09C295.57 2600.51 295.655 2598.03 295.965 2595.63C297.034 2594.37 304.236 2590.84 311.235 2588.92C318.715 2586.63 326.858 2585.02 328.664 2584.99L363.896 2584.38L364.569 2584.12C379.871 2577.97 384.06 2562.22 390.14 2553.7L390.333 2553.43L390.503 2553.09C391.39 2551.11 391.829 2549.15 391.797 2547.35C391.593 2540.74 385.77 2538.13 385.652 2537.79L385.321 2537.51L384.936 2537.31C377.167 2533.03 368.587 2531.83 360.23 2531.98C354.385 2532.07 348.593 2532.8 343.09 2533.73C337.074 2534.77 332.105 2535.8 327.2 2536.81L283.43 2537.57L283.324 2537.43C282.373 2536.61 281.101 2532.87 281.144 2530.13L281.336 2527.95L281.421 2527.67C293.294 2516.45 316.268 2512.11 333.056 2500.89C335.599 2499.21 339.574 2497.23 342.866 2495.11C360.017 2481.11 374.56 2466.62 390.097 2453.21C397.086 2446.7 416.428 2432.75 416.641 2414.56C416.588 2410.63 415.412 2406.6 412.987 2402.88C407.206 2391.73 395.216 2388.11 383.579 2388.4C367.593 2388.73 350.538 2395.35 340.75 2400.71C338.217 2402.45 335.3 2403.29 332.383 2405.77C303.755 2420.21 271.697 2432.05 239.661 2444.9C227.735 2450.75 214.656 2455.73 203.361 2462.79C195.923 2466.33 170.897 2481.18 163 2481.27L162.84 2481.14C164.838 2469.44 183.838 2460.65 195.923 2452.19Z" fill="white"/>
</g>
<defs>
<clipPath id="clip0_70_92">
<rect width="526" height="2756" fill="white"/>
</clipPath>
</defs>
</svg>
