<svg width="3391" height="823" viewBox="0 0 3391 823" fill="none" xmlns="http://www.w3.org/2000/svg">
<g clip-path="url(#clip0_70_180)">
<rect width="3391" height="823" fill="#00468C"/>
<path d="M823 411.5C823 184.231 638.764 2.61652e-06 411.5 2.61652e-06C184.228 2.61652e-06 0 184.231 0 411.5C0 638.769 184.228 823 411.5 823C638.764 823 823 638.769 823 411.5ZM786.366 328.049L805.858 349.988L793.741 374.799L810.386 398.937L795.308 422.048L808.825 448.082L791.066 469.14L801.283 496.621L781.027 515.381L787.857 543.915L765.457 560.034L768.702 589.166L744.452 602.392L744.101 631.759L718.452 641.897L714.469 670.97L687.779 677.914L680.251 706.232L652.921 709.828L642.002 737.057L614.416 737.261L600.216 762.942L572.82 759.751L555.568 783.428L528.772 776.9L508.739 798.342L482.944 788.56L460.412 807.357L436.016 794.485L411.401 810.392L388.745 794.619L362.376 807.327L341.825 788.906L314.06 798.29L295.953 777.477L267.238 783.353L251.824 760.506L222.613 762.846L210.137 738.228L180.826 736.934L171.493 710.978L142.592 706.091L136.504 679.186L108.392 670.818L105.644 643.363L78.7853 631.588L79.4358 603.991L54.207 588.977L58.2486 561.674L35.0697 543.729L42.4549 517.122L21.6697 496.413L32.2486 470.959L14.1529 447.874L27.7758 423.863L12.6217 398.732L29.0878 376.569L17.1713 349.787L36.2318 329.823L27.7064 301.743L49.0618 284.326L44.019 255.398L67.3768 240.722L65.9773 211.396L90.9211 199.717L93.11 170.451L119.304 161.863L125.088 133.14L152.177 127.848L161.397 100.017L188.935 98.12L201.491 71.643L229.037 73.1344L244.794 48.4054L271.937 53.2478L290.625 30.6574L316.965 38.7913L338.306 18.6332L363.388 30.0177L387.013 12.6193L410.612 26.994L436.188 12.6304L457.785 29.7945L484.899 18.6741L504.266 38.3487L532.569 30.7206L549.341 52.5821L578.393 48.4909L592.366 72.2492L621.681 71.7546L632.603 97.06L661.768 100.154L669.496 126.65L698.051 133.285L702.487 160.491L730.014 170.611L731.056 198.167L757.136 211.578L754.783 239.081L779.065 255.591L773.324 282.596L795.345 301.947L786.366 328.049ZM794.57 351.535L775.619 330.206L784.327 304.867L762.906 286.048L768.482 259.842L744.872 243.797L747.164 217.097L721.811 204.058L720.795 177.309L694.038 167.468L689.73 141.073L661.958 134.62L654.456 108.895L626.102 105.889L615.498 81.3278L587.006 81.8076L573.441 58.7485L545.187 62.7243L528.914 41.5063L501.394 48.9224L482.608 29.8429L456.243 40.6583L435.282 24L410.418 37.9582L387.514 24.0112L364.536 40.9298L340.184 29.8838L319.446 49.4654L293.885 41.5695L275.709 63.5389L249.369 58.8341L234.047 82.8898L207.323 81.4356L195.111 107.184L168.384 109.028L159.423 136.078L133.12 141.218L127.496 169.142L102.081 177.473L99.9507 205.943L75.7341 217.283L77.0934 245.795L54.4372 260.032L59.3375 288.156L38.6107 305.068L46.8949 332.359L28.4007 351.736L39.9847 377.774L24.0047 399.282L38.7386 423.718L25.5175 447.03L43.1127 469.482L32.8479 494.189L53.0559 514.314L45.8936 540.132L68.4256 557.575L64.5009 584.086L89.0318 598.684L88.3997 625.466L114.513 636.91L117.18 663.554L144.51 671.692L150.427 697.815L178.535 702.569L187.59 727.759L216.079 729.019L228.185 752.9L256.579 750.628L271.546 772.809L299.465 767.089L317.042 787.288L344.028 778.176L363.977 796.051L389.615 783.688L411.595 798.996L435.538 783.524L459.221 796.021L481.128 777.748L506.156 787.24L525.636 766.39L551.647 772.735L568.42 749.709L595.005 752.804L608.807 727.829L635.578 727.636L646.197 701.166L672.727 697.674L680.046 670.144L705.958 663.402L709.828 635.128L734.71 625.295L735.053 596.731L758.594 583.896L755.433 555.582L777.176 539.943L770.536 512.201L790.2 493.981L780.267 467.262L797.501 446.821L784.36 421.505L798.984 399.082L782.803 375.617L794.57 351.535ZM771.552 411.422C771.552 610.314 610.565 771.549 411.986 771.549C213.404 771.549 52.42 610.314 52.42 411.422C52.42 212.523 213.404 51.2878 411.986 51.2878C610.565 51.2878 771.552 212.523 771.552 411.422ZM669.215 582.531C679.403 588.958 688.338 591.067 694.521 591.524C695.975 589.241 697.4 586.938 698.807 584.625C692.043 583.632 683.434 580.765 674.053 574.851C663.697 568.324 656.948 560.908 653.334 554.838L653.169 555.106C651.85 557.311 650.505 559.506 649.135 561.678C652 567.253 657.887 575.316 669.215 582.531ZM679.44 553.298L701.38 580.281C703.327 576.934 705.22 573.553 707.058 570.139L707.698 568.871L698.27 560.019C695.387 557.397 693.099 555.217 690.49 552.952L690.56 552.833C694.13 553.544 696.958 554.091 700.945 554.708L713.698 556.973L714.93 554.541C716.439 551.346 717.893 548.125 719.307 544.874L684.223 542.542L665.082 532.891C663.387 536.428 661.611 539.924 659.78 543.375L679.44 553.298ZM710.756 534.204L722.128 538.18C723.02 536 723.882 533.81 724.723 531.612L731.315 512.737C732.064 510.375 732.792 507.998 733.486 505.618L722.132 501.65L718.43 512.257L678.866 498.433C677.649 502.189 676.352 505.912 674.978 509.598L714.531 523.418L710.756 534.204ZM683.057 484.27L735.73 497.276L738.569 485.806L685.86 472.792C685.009 476.646 684.07 480.469 683.057 484.27ZM738.492 473.622C740.491 470.959 742.212 467.452 742.972 462.222C744.576 451.24 739.095 444.523 729.707 443.095C721.832 441.893 716.157 445.981 711.929 452.865C709.163 457.466 707.387 459.176 704.785 458.778C702.103 458.366 700.726 456.179 701.31 452.173C701.942 447.844 704.234 443.768 706.269 441.373L694.85 437.389C692.913 439.599 690.435 444.441 689.671 449.674C687.819 462.394 694.842 469.479 703.989 470.873C711.396 472.004 717.042 469.233 721.65 461.94C724.971 456.833 726.411 454.68 729.093 455.085C731.454 455.442 732.755 457.622 732.232 461.177C731.593 465.57 729.623 468.571 728.322 470.289L738.492 473.622ZM742.793 430.059C744.85 427.924 746.674 426.176 746.718 421.594C746.765 417.678 746.835 417.343 746.857 415.212C746.901 411.4 746.871 407.599 746.784 403.812C746.667 402.775 746.531 401.83 746.378 400.986L692.346 400.078C692.5 403.965 692.573 407.863 692.573 411.779L712.554 412.114L712.525 414.007C712.459 417.663 711.045 419.273 704.416 420.341C698.339 421.404 694.305 422.341 692.332 422.977C692.167 427.095 691.912 431.186 691.575 435.255C693.804 434.44 701.723 433.149 707.321 431.885C712.076 430.851 715.613 429.345 717.213 426.429L717.542 426.436C719.033 429.921 723.861 434.12 730.716 434.232C736.099 434.321 740.052 432.822 742.793 430.059ZM736.406 416.499C736.252 420.415 733.932 422.531 729.769 422.457C725.691 422.394 722.954 419.798 723.035 415.357L723.086 412.285L736.146 412.508C736.296 413.096 736.442 414.278 736.406 416.499ZM734.483 389.702L746.097 388.385C745.855 384.863 745.559 381.363 745.212 377.882L744.101 368.145C743.758 365.404 743.363 362.671 742.947 359.948L688.919 366.1C690.483 375.725 691.561 385.514 692.124 395.44L703.843 394.109L701.844 376.525L711.9 375.383L713.684 391.082L725.527 389.739L723.747 374.036L732.58 373.025L734.483 389.702ZM686.226 351.818L741.755 352.759C741.028 348.679 740.232 344.618 739.366 340.59L716.998 341.148C710.983 341.274 704.493 341.579 697.652 342.107L697.616 341.984C704.27 339.281 709.858 336.707 715.467 333.858L735.393 324.221L735.167 323.307C734.122 319.483 733.014 315.686 731.845 311.911L682.845 337.934C684.084 342.52 685.21 347.147 686.226 351.818ZM678.818 324.4L730.106 306.511C728.874 302.758 727.581 299.035 726.218 295.346L674.908 313.239C676.286 316.928 677.594 320.644 678.818 324.4ZM673.132 308.597L722.322 285.322C720.977 281.997 719.57 278.691 718.112 275.418L706.346 280.967C698.884 284.493 692.058 288.011 685.776 291.705L685.688 291.53C690.68 287 696.235 281.559 700.148 277.036L712.503 263.435C710.446 259.277 708.312 255.156 706.097 251.095L656.908 274.366C658.662 277.501 660.35 280.673 661.998 283.887L673.6 278.39C681.643 274.585 689.116 270.91 695.716 267.492L695.807 267.671C690.644 272.42 685.232 278.163 680.985 282.92L668.199 296.856C669.924 300.724 671.579 304.636 673.132 308.597ZM676.41 257.157L700.408 241.086C698.431 237.724 696.377 234.406 694.283 231.126L694.21 231.015L668.265 248.316C660.997 253.162 656.129 253.661 653.52 249.748C650.94 245.891 653.619 241.361 660.544 236.742L686.47 219.448C684.216 216.216 681.895 213.028 679.52 209.878L655.914 225.689C641.176 235.519 637.833 245.363 644.534 255.416C651.386 265.681 662.283 266.578 676.41 257.157ZM648.876 194.101L658.355 187.879C657.712 185.287 655.431 181.188 651.211 177.001C641.063 166.922 626.621 165.345 613.115 178.868C607.535 184.487 604.63 190.133 604.1 196.508C603.596 202.674 605.869 208.729 612.037 214.843C616.115 218.894 621.739 221.943 625.032 223.256L645.631 202.845L633.389 190.698L625.335 198.817L629.512 202.949L622.843 209.677C622.298 209.484 621.019 208.554 619.901 207.446C614.752 202.336 615.198 194.384 622.437 187.083C630.316 179.143 637.917 180.009 643.073 185.116C646.639 188.66 648.035 191.427 648.876 194.101ZM591.818 195.887L623.822 151.881C621.041 149.601 618.228 147.366 615.37 145.183L607.798 155.593C602.949 162.261 598.644 168.617 594.895 174.884L594.745 174.765C596.949 168.398 599.211 160.956 600.472 155.113L604.751 137.369C600.961 134.687 597.113 132.091 593.211 129.57L561.203 173.571C564.254 175.494 567.255 177.473 570.222 179.504L577.837 169.03C583.07 161.837 587.861 155.024 592.016 148.865L592.169 148.976C589.933 155.619 587.93 163.258 586.483 169.465L581.915 187.965C585.281 190.531 588.577 193.172 591.818 195.887ZM559.347 171.909L572.937 117.467C568.307 114.92 563.611 112.472 558.85 110.144L522.45 152.714C526.243 154.343 529.985 156.043 533.69 157.828L541.339 148.207L551.421 153.443L548.223 165.371C551.984 167.472 555.696 169.648 559.347 171.909ZM560.856 122.656C559.935 125.854 558.616 130.228 557.768 133.285L555.017 142.988L547.767 139.221L553.96 131.403C555.97 128.948 558.66 125.192 560.739 122.596L560.856 122.656ZM523.166 129.715L547.869 105.012C543.889 103.238 539.873 101.542 535.817 99.9163L527.92 110.297C525.604 113.428 523.678 115.931 521.69 118.758L521.566 118.713C521.898 115.08 522.161 112.205 522.37 108.177L523.312 95.2562L521.873 94.7057C518.175 93.4189 514.458 92.1953 510.702 91.0349L511.984 126.059L504.332 146.124C508.038 147.414 511.71 148.787 515.339 150.237L523.166 129.715ZM491.086 141.854L505.421 89.4505C501.643 88.3496 497.842 87.3232 494.013 86.345L479.677 138.756C483.51 139.708 487.318 140.746 491.086 141.854ZM481.665 95.498L483.7 83.9126C481.121 83.3473 478.526 82.8118 475.924 82.306L464.271 80.253C461.362 79.7918 458.45 79.3715 455.523 78.9885L446.091 132.538C455.947 133.746 465.648 135.461 475.16 137.666L477.189 126.133L459.762 123.065L461.516 113.09L477.083 115.835L479.147 104.093L463.587 101.356L465.13 92.5933L481.665 95.498ZM441.889 108.084C444.801 105.146 446.577 100.337 446.884 94.7876C447.191 89.1716 445.441 84.1618 442.598 81.2236C439.692 78.1218 435.706 76.9168 429.38 76.5709C422.664 76.199 417.573 75.9945 414.339 76.4668L411.347 130.421H411.5C415.366 130.421 419.218 130.507 423.047 130.663L424.045 112.655C424.754 112.777 425.792 112.915 426.903 112.982C432.837 113.309 438.085 111.881 441.889 108.084ZM435.253 94.4752C434.997 99.1986 431.96 101.977 427.327 101.724C426.091 101.65 425.313 101.523 424.67 101.411L425.445 87.3901C426.04 87.2562 427.217 87.1632 428.978 87.2562C433.414 87.5054 435.483 90.3952 435.253 94.4752ZM407.82 130.351C404.356 124.125 401.213 114.734 400.702 102.497C400.23 91.3547 402.068 82.5365 404.561 76.1953C401.824 76.2511 399.105 76.3404 396.386 76.4557C393.744 82.0642 391.252 90.8899 391.701 102.873C392.264 116.281 396.368 125.482 399.788 130.667C400.778 130.63 401.78 130.589 402.781 130.559L407.82 130.351ZM362.91 112.272L371.186 78.4974C367.339 78.9623 363.505 79.4868 359.672 80.0819L358.28 80.3348L356.906 93.2032C356.548 97.0861 356.193 100.221 355.963 103.662L355.831 103.688C354.234 100.411 352.966 97.8188 351.055 94.2669L345.165 82.7336L342.482 83.2209C339.022 83.9461 335.572 84.7234 332.134 85.5565L351.443 114.942L355.294 136.037C359.142 135.253 362.997 134.553 366.864 133.94L362.91 112.272ZM330.752 142.2L317.904 102.315L328.783 98.8117L325.096 87.3529C322.819 87.9554 320.553 88.5914 318.291 89.2422L299.253 95.3715C296.925 96.2009 294.597 97.0601 292.273 97.9378L295.96 109.385L306.653 105.941L319.501 145.834C323.232 144.536 326.978 143.331 330.752 142.2ZM305.681 151.037L284.263 101.181L273.403 105.845L294.828 155.73C298.423 154.087 302.037 152.517 305.681 151.037ZM257.591 125.75C261.479 123.611 265.06 123.373 267.216 123.373L263.745 113.253C260.408 113.268 256.579 114.008 251.945 116.564C242.221 121.904 240.171 130.332 244.688 138.674C248.485 145.685 255.172 147.738 263.215 146.957C268.55 146.392 270.984 146.778 272.237 149.088C273.527 151.479 272.606 153.893 269.065 155.842C265.232 157.947 260.602 158.587 257.459 158.405L261.176 169.923C264.11 170.124 269.46 169.183 274.093 166.635C285.363 160.432 286.77 150.561 282.367 142.427C278.796 135.84 273.18 133.01 264.589 133.735C258.512 134.167 255.921 134.319 254.624 131.935C253.487 129.834 254.445 127.483 257.591 125.75ZM238.753 158.438C240.632 155.139 241.063 148.757 237.014 143.219C233.838 138.868 230.261 136.629 226.406 136.112C223.46 135.755 220.972 135.353 217.281 138.083C214.135 140.411 213.828 140.556 212.114 141.824C209.044 144.089 206.03 146.41 203.062 148.757C202.302 149.486 201.63 150.163 201.056 150.791L232.939 194.425C235.936 191.959 239.009 189.553 242.133 187.187L230.341 171.05L231.869 169.934C234.818 167.777 236.955 167.933 241.805 172.582C246.321 176.777 249.511 179.433 251.203 180.616C254.583 178.269 258 176 261.446 173.817C259.451 172.538 253.648 166.992 249.256 163.295C245.572 160.123 242.232 158.211 238.947 158.698L238.753 158.438ZM226.603 160.736L224.125 162.548L216.415 152.004C216.799 151.524 217.646 150.695 219.441 149.389C222.656 147.139 225.744 147.716 228.2 151.078C230.608 154.373 230.188 158.111 226.603 160.736ZM187.079 178.659L199.236 167.085L191.179 158.624C188.518 160.937 185.898 163.28 183.333 165.661L176.237 172.422C174.263 174.352 172.316 176.313 170.401 178.287L207.897 217.663C214.632 210.604 221.794 203.838 229.373 197.404L221.235 188.861L208.423 201.064L201.436 193.737L212.885 182.836L204.667 174.207L193.218 185.108L187.079 178.659ZM198.144 228.43L165.394 183.576C162.57 186.618 159.814 189.702 157.121 192.826L171.066 210.325C174.797 215.048 178.952 220.032 183.505 225.172L183.421 225.276C177.252 221.601 171.826 218.697 166.169 215.941L146.469 205.873L145.877 206.602C143.454 209.741 141.09 212.921 138.792 216.127L189.107 239.502C192.016 235.745 195.027 232.056 198.144 228.43ZM180.746 250.879L135.525 220.768C133.281 224.015 131.096 227.295 128.98 230.609L174.208 260.723C176.31 257.406 178.488 254.118 180.746 250.879ZM171.577 264.941L123.327 239.758C121.496 242.842 119.709 245.962 117.973 249.097L129.502 255.137C136.818 258.957 143.736 262.278 150.478 265.056L150.39 265.231C143.769 263.982 136.069 262.84 130.105 262.449L111.805 260.802C109.722 264.949 107.731 269.133 105.827 273.354L154.07 298.544C155.506 295.249 157.019 291.983 158.59 288.74L147.204 282.801C139.314 278.68 131.874 274.942 125.169 271.736L125.256 271.561C132.159 272.807 140.001 273.659 146.363 274.18L165.186 275.969C167.229 272.253 169.359 268.578 171.577 264.941ZM128.574 293.371L101.274 283.928C99.7972 287.532 98.3831 291.173 97.031 294.825L96.9871 294.948L126.437 305.201C134.684 308.069 138.028 311.651 136.482 316.095C134.955 320.476 129.733 321.075 121.869 318.338L92.4339 308.095C91.2244 311.851 90.0733 315.623 88.9953 319.416L115.847 328.707C132.579 334.524 142.449 331.251 146.422 319.84C150.474 308.181 144.613 298.95 128.574 293.371ZM137.059 350.527L83.2764 342.278C82.5383 345.782 81.8549 349.311 81.2301 352.863L94.0199 354.827C102.176 356.08 109.799 356.984 117.078 357.441L117.045 357.635C110.38 358.591 102.728 359.996 96.9579 361.555L79.1983 365.895C78.5771 370.477 78.0472 375.089 77.6123 379.727L131.403 387.987C131.699 384.387 132.06 380.809 132.495 377.25L119.705 375.286C110.91 373.936 102.658 372.802 95.2769 371.931L95.3062 371.738C102.242 370.689 109.934 368.967 116.124 367.401L134.6 362.994C135.327 358.806 136.146 354.652 137.059 350.527ZM130.953 394.176L76.6842 391.959C76.4576 395.879 76.3005 399.814 76.2128 403.764L130.482 405.988C130.559 402.031 130.712 398.096 130.953 394.176ZM109.181 412.634L76.1324 413.925C76.1616 417.878 76.2567 421.821 76.4211 425.741L109.623 424.443C117.053 424.156 119.227 426.555 119.366 430.341C119.439 432.235 119.106 434.072 118.679 435.53L130.314 436.381C131.11 434.131 131.395 430.914 131.3 428.5C130.906 417.93 124.843 412.021 109.181 412.634ZM131.691 438.338L78.0034 447.215C78.3798 450.801 78.8146 454.375 79.3079 457.923L92.0502 455.814C100.188 454.472 107.712 452.958 114.78 451.136L114.809 451.325C108.765 454.308 101.931 458.02 96.9323 461.296L81.3982 470.951L81.6283 472.35C82.3811 476.46 83.2106 480.543 84.1096 484.601L137.798 475.723C136.983 472.235 136.23 468.712 135.547 465.172L122.826 467.277C114.045 468.727 105.852 470.215 98.5658 471.688L98.5329 471.491C104.796 468.341 111.579 464.305 116.972 460.895L133.171 450.953C132.587 446.777 132.093 442.57 131.691 438.338ZM138.678 479.379L90.5264 509.04C92.0575 514.083 93.6983 519.074 95.4633 524.01L151.665 518.877C150.094 515.08 148.603 511.238 147.196 507.355L135.039 508.887L131.49 498.09L142.069 491.831C140.845 487.718 139.712 483.567 138.678 479.379ZM124.156 510.814L114.253 512.071C111.1 512.417 106.561 513.224 103.254 513.622L103.21 513.499C106.108 511.855 110.109 509.65 112.857 508.065L121.606 503.056L124.156 510.814ZM152.857 521.722L103.36 544.104C104.917 547.723 106.547 551.316 108.224 554.875L157.728 532.497C156.036 528.941 154.413 525.352 152.857 521.722ZM121.781 555.322L111.312 561.22C116.468 571.541 122.143 581.549 128.3 591.234L138.726 585.358L133.208 575.573L169.743 554.957C167.73 551.569 165.789 548.143 163.914 544.673L127.394 565.274L121.781 555.322ZM197.106 647C194.774 648.674 200.219 656.443 205.416 659.232C208.785 661.044 213.597 660.3 217.197 659.794C222.17 659.095 227.356 658.332 231.642 655.517C235.194 653.181 238.523 650.425 241.779 647.707C243.347 646.394 244.907 645.088 246.434 643.734C250.144 640.465 255.15 636.508 255.15 636.508C255.15 636.508 247.399 651.861 244.425 659.247C241.45 666.634 240.434 677.535 242.769 680.77C245.104 684.002 251.857 683.824 253.111 684.263C254.36 684.701 260.945 686.87 264.366 688.071C267.79 689.257 268.744 686.669 267.264 685.609C265.791 684.542 265.352 684.181 262.418 682.213C259.48 680.25 255.537 677.006 255.314 676.385C255.088 675.768 255.15 672.294 255.303 669.78C255.457 667.27 255.72 654.423 256.367 650.41C257.017 646.397 259.915 636.601 259.915 636.601C259.915 636.601 264.333 636.404 270.885 637.535C277.448 638.658 278.873 637.631 279.768 636.895C280.664 636.166 281.614 635.184 278.972 634.481C276.319 633.771 272.007 630.092 271.649 629.802C271.305 629.512 270.655 628.69 269.365 628.657C268.068 628.623 267.198 627.333 267.198 627.333C267.198 627.333 266.891 626.481 267.611 625.607C268.331 624.729 268.027 621.694 268.027 621.694C269.295 623.907 276.476 624.811 279.513 624.514C282.546 624.212 288.414 624.03 290.79 623.636C293.165 623.242 294.064 625.008 297.437 623.219C299.6 622.081 298.083 623.104 300.199 621.735C302.315 620.363 301.858 619.708 301.193 618.451C300.528 617.198 298.368 616.558 296.552 615.495C294.743 614.427 292.365 613.189 291.298 612.597C290.227 612.006 290.735 612.419 287.585 611.95C284.428 611.489 280.543 609.856 276.626 608.767C272.716 607.68 271.068 606.754 270.224 606.055C269.383 605.367 268.912 604.556 266.737 605.315C265.312 605.813 265.36 607.316 265.542 608.558C265.758 610.076 265.612 611.024 265.521 612.538C265.44 613.784 266.339 614.799 266.098 616.097C266.098 616.097 265.32 615.32 263.982 614.364C262.648 613.408 261.526 615.461 260.697 616.476C259.867 617.484 257.386 620.687 256.305 621.49C255.219 622.293 254.127 623.8 253.016 625.153C251.908 626.5 248.181 629.62 248.181 629.62C245.868 629.929 229.194 627.545 226.329 627.102C223.46 626.66 221.319 621.233 221.319 621.233C218.001 622.464 216.437 628.798 216.612 631.937C216.715 633.808 217.255 635.995 218.103 637.672C219.51 640.436 224.173 642.072 228.942 641.269C233.699 640.48 240.942 637.91 240.942 637.91C237.913 642.325 235.333 644.75 224.473 650.663C213.612 656.573 208.873 652.687 205.668 651.229C202.463 649.771 198.538 645.966 197.106 647ZM261.801 631.506C262.583 630.029 264.622 629.252 264.622 629.252L265.316 628.951C267.311 629.46 267.019 632.026 266.493 631.818C266.083 631.662 261.801 631.506 261.801 631.506ZM264.366 498.139C310.91 580.917 384.755 618.355 403.216 627.009L411.5 630.29L419.784 627.009C438.245 618.355 512.087 580.917 558.653 498.139C579.069 461.579 586.812 422.453 587.81 386.198L587.832 385.443H587.846L588.288 369.425C588.288 369.425 567.909 363.169 561.828 359.111C552.521 352.911 549.948 345.585 554.465 336.112C558.773 327.063 583.308 319.453 583.308 319.453L579.2 300.82C578.93 299.615 578.656 298.414 578.378 297.22H578.371C568.27 253.441 554.03 223.792 553.526 222.724L545.26 205.519L528.14 211.563C517.656 215.286 507.296 216.8 497.283 216.8C459.173 217.138 425.313 185.99 423.789 184.61L411.5 175.16L399.193 184.61H399.214C397.687 185.99 363.831 217.138 325.72 216.8C315.701 216.8 305.359 215.286 294.849 211.563L277.74 205.519L269.467 222.724C268.956 223.814 253.94 255.074 243.803 300.82L239.7 319.453C239.7 319.453 264.227 327.063 268.543 336.112C273.056 345.585 270.483 352.911 261.183 359.111C255.099 363.169 234.719 369.425 234.719 369.425L235.179 386.198C236.195 422.453 243.931 461.579 264.366 498.139ZM274.426 491.612C255.256 457.295 247.896 420.448 246.924 385.815L246.72 378.369L253.268 375.937C262.9 372.378 270.731 367.048 275.84 361.209C280.993 355.333 283.379 349.311 283.382 343.379C283.382 343.03 283.379 342.687 283.353 342.379C283.097 337.339 281.19 332.526 277.389 327.792C273.593 323.106 267.867 318.706 260.668 315.392L253.429 312.03L255.248 303.736C265.035 259.485 279.681 229.032 279.9 228.549L283.587 220.891L291.188 223.591C302.984 227.775 314.593 229.445 325.753 229.445H326.02C367.536 229.445 402.237 197.817 405.763 195.113L406.033 194.909L411.5 190.739L416.963 194.909L417.263 195.113C420.767 197.821 455.621 229.594 497.269 229.445C508.407 229.445 520.009 227.775 531.823 223.591L539.413 220.891L543.1 228.549C543.316 229.006 556.57 256.569 566.283 297.332C566.502 298.224 566.71 299.121 566.922 300.024C567.002 300.378 567.083 300.735 567.167 301.088C567.284 301.62 567.401 302.148 567.521 302.684C567.605 303.033 567.682 303.383 567.755 303.736L568.603 307.593L569.571 312.03L562.332 315.392C555.137 318.706 549.415 323.106 545.622 327.792C541.817 332.526 539.91 337.339 539.658 342.379C539.636 342.687 539.621 343.03 539.621 343.379C539.636 349.311 542.015 355.333 547.164 361.209C552.276 367.048 560.111 372.378 569.739 375.937L576.284 378.369L576.127 384.473L576.083 385.815C575.097 420.448 567.755 457.295 548.563 491.612C504.303 570.634 432.468 607.357 415.183 615.372L411.5 616.573L407.82 615.372C390.539 607.357 318.704 570.634 274.426 491.612ZM256.323 385.507C257.262 418.845 264.307 453.847 282.487 486.401C324.938 562.425 395.177 598.568 411.507 606.063C411.507 606.063 487.826 580.727 540.476 486.401C558.674 453.847 565.716 418.845 566.677 385.507C544.353 377.257 529.327 360.484 530.237 341.85C530.95 326.665 542.091 313.718 558.59 306.098C549.086 263.033 534.728 233.209 534.728 233.209C470.523 255.929 411.507 203.143 411.507 203.143C411.507 203.143 352.429 255.929 288.254 233.209C288.254 233.209 273.896 263.033 264.395 306.098C280.872 313.718 292.021 326.665 292.741 341.85C293.596 360.484 278.588 377.257 256.323 385.507ZM428.693 302.71C428.693 309.423 427.922 315.526 426.895 321.443C426.446 324.021 424.202 325.839 421.677 325.839L420.753 325.758C417.866 325.255 415.929 322.507 416.433 319.621C417.405 314.027 418.074 308.616 418.074 302.71C418.067 293.88 416.598 283.835 412.085 270.412C411.149 267.63 412.647 264.618 415.417 263.684C418.195 262.747 421.209 264.242 422.145 267.024C426.957 281.287 428.697 292.645 428.693 302.71ZM445.989 301.962C445.989 307.85 445.367 313.276 444.49 318.691C443.613 324.11 442.492 329.521 441.439 335.52C439.678 345.614 438.07 357.672 438.07 374.825C438.07 392.023 439.7 414.327 444.534 444.59C444.995 447.487 443.025 450.209 440.127 450.674L439.294 450.741C436.729 450.741 434.467 448.874 434.054 446.267C429.154 415.573 427.454 392.703 427.454 374.825C427.454 357.017 429.154 344.145 430.988 333.691C432.077 327.494 433.184 322.098 434.01 316.999C434.84 311.892 435.373 307.095 435.373 301.962C435.366 293.453 433.908 283.876 429.38 270.412C428.445 267.63 429.943 264.618 432.72 263.684C435.497 262.747 438.505 264.242 439.448 267.024C444.246 281.25 445.996 292.166 445.989 301.962ZM463.292 302.71C463.292 309.423 462.52 315.526 461.494 321.443C461.037 324.021 458.797 325.839 456.268 325.839L455.347 325.758C452.464 325.255 450.527 322.507 451.028 319.621C452.004 314.027 452.672 308.616 452.672 302.71C452.665 293.88 451.2 283.835 446.679 270.412C445.744 267.63 447.246 264.618 450.019 263.684C452.797 262.747 455.804 264.242 456.739 267.024C461.552 281.287 463.299 292.645 463.292 302.71ZM494.345 450.987C491.415 450.987 489.036 448.606 489.036 445.683V380.344H472.314C469.314 380.344 466.873 377.971 466.873 375.037C466.873 372.106 469.314 369.73 472.314 369.73H489.036V349.099H472.314C469.314 349.099 466.873 346.719 466.873 343.784C466.873 340.854 469.314 338.481 472.314 338.481H489.036V317.743H472.314C469.314 317.743 466.873 315.366 466.873 312.435C466.873 309.505 469.314 307.124 472.314 307.124H478.895C479.016 305.41 479.096 303.68 479.096 301.91C479.092 293.59 477.642 284.151 473.103 270.55C472.168 267.749 473.662 264.71 476.439 263.77C479.224 262.825 482.231 264.327 483.163 267.132C487.954 281.466 489.715 292.259 489.715 301.91C489.715 303.691 489.642 305.421 489.533 307.124H498.825C498.716 305.421 498.65 303.691 498.65 301.91C498.643 292.259 500.4 281.466 505.191 267.132C506.13 264.327 509.145 262.825 511.918 263.77C514.696 264.71 516.194 267.749 515.255 270.55C510.724 284.151 509.269 293.59 509.269 301.91C509.269 303.68 509.339 305.41 509.463 307.124H516.051C519.052 307.124 521.485 309.505 521.485 312.435C521.485 315.366 519.052 317.743 516.051 317.743H499.651V338.481H516.051C519.052 338.481 521.485 340.854 521.485 343.784C521.485 346.719 519.052 349.099 516.051 349.099H499.651V369.73H516.051C519.052 369.73 521.485 372.106 521.485 375.037C521.485 377.971 519.052 380.344 516.051 380.344H499.651V445.683C499.651 448.606 497.283 450.987 494.345 450.987ZM456.396 530.388C457.185 528.011 459.893 526.706 462.396 527.446C464.11 527.959 466.431 528.19 469.16 528.35C469.602 528.38 470.074 528.38 470.531 528.38C473.9 528.406 477.455 527.61 479.889 526.245C482.345 524.82 483.616 523.281 483.96 520.93C484.011 520.476 484.04 520.045 484.04 519.662C483.909 516.46 482.677 515.269 479.973 513.793C477.302 512.469 473.264 511.9 470.384 511.911C469.083 511.911 467.987 512.03 467.6 512.116V512.104C466.131 512.629 464.465 512.443 463.167 511.61C461.855 510.754 461.066 509.382 461.095 507.861L461.311 488.926C461.377 486.483 463.5 484.478 466.116 484.478H485.027C487.673 484.478 489.818 486.494 489.818 488.964C489.818 491.452 487.673 493.445 485.027 493.445H470.859L470.728 502.94C474.671 503.004 479.692 503.617 484.38 505.83C489.178 507.995 493.739 512.919 493.629 519.662C493.629 520.421 493.578 521.216 493.49 522.031C492.789 527.483 489.079 531.63 484.757 533.958C480.434 536.339 475.372 537.328 470.531 537.358C469.865 537.358 469.211 537.328 468.532 537.306C465.674 537.109 462.656 536.897 459.55 535.989C456.999 535.256 455.607 532.735 456.396 530.388ZM453.765 432.324C451.138 432.324 448.854 430.371 448.506 427.697C445.766 406.527 444.75 389.021 444.75 374.646C444.75 364.913 445.214 356.616 445.934 349.594H445.941C446.23 346.678 448.839 344.554 451.751 344.856C454.675 345.153 456.794 347.757 456.491 350.672C455.815 357.319 455.362 365.252 455.362 374.646C455.362 388.519 456.348 405.572 459.038 426.332C459.411 429.244 457.361 431.904 454.456 432.279L453.765 432.324ZM412.428 498.775C412.541 489.57 421.326 483.106 431.163 483.091C438.808 483.098 445.795 487.033 448.583 493.103L449.088 493.899C449.252 494.286 450.849 497.841 450.849 503.312C450.984 512.16 446.113 525.873 426.183 536.722C425.426 537.138 424.575 537.358 423.749 537.358C422.119 537.358 420.515 536.573 419.609 535.163C418.279 533.018 419.028 530.28 421.304 529.008C431.163 523.467 436.221 517.944 438.75 513.086C436.415 513.971 433.82 514.448 431.163 514.474C421.326 514.448 412.541 507.995 412.428 498.775ZM410.152 374.646C410.152 364.913 410.616 356.616 411.336 349.594C411.632 346.678 414.241 344.554 417.153 344.856C420.077 345.153 422.196 347.757 421.9 350.672C421.217 357.319 420.767 365.252 420.767 374.646C420.767 388.519 421.746 405.572 424.44 426.332C424.812 429.244 422.762 431.904 419.857 432.279L419.167 432.324C416.536 432.324 414.259 430.371 413.912 427.697C411.167 406.527 410.152 389.021 410.152 374.646ZM363.348 521.436C363.348 516.698 365.976 512.551 369.659 509.825L369.871 509.702C366.443 507.009 364.075 503.041 364.075 498.544C364.075 493.914 366.553 489.856 370.112 487.156C373.712 484.411 378.418 482.86 383.534 482.86C388.635 482.86 393.368 484.411 396.938 487.156C400.523 489.856 403.008 493.914 403.008 498.544C403.008 503.041 400.632 507.009 397.212 509.691L397.409 509.825C401.107 512.551 403.738 516.698 403.738 521.436C403.738 526.167 401.107 530.325 397.409 533.032C393.678 535.785 388.829 537.332 383.534 537.358C378.243 537.332 373.39 535.785 369.659 533.032C365.976 530.325 363.348 526.167 363.348 521.436ZM363.911 266.369L363.922 266.373C365.095 263.68 368.219 262.464 370.905 263.647C373.584 264.826 374.797 267.95 373.627 270.635L373.624 270.643L373.617 270.661L373.543 270.843C373.474 271.015 373.361 271.282 373.218 271.662C372.93 272.413 372.506 273.577 371.987 275.158C370.956 278.312 369.564 283.106 368.19 289.536C367.905 290.875 367.616 292.3 367.339 293.787C369.378 295.677 371.176 297.89 372.798 300.322C375.129 303.837 377.103 307.82 378.842 312.075C382.31 320.588 384.828 330.232 386.699 339.377C390.441 357.65 391.581 373.921 391.595 374.077C391.815 377.172 389.618 379.872 386.699 380.099L386.3 380.117C383.552 380.117 381.221 377.871 381.016 374.914L380.998 374.635C380.98 374.442 380.958 374.148 380.929 373.758C380.863 372.976 380.761 371.838 380.618 370.392C380.329 367.498 379.873 363.388 379.2 358.579C377.866 348.973 375.645 336.528 372.272 325.516C370.269 318.955 367.825 312.911 365.106 308.355C363.801 319.134 362.961 332.184 363.224 347.522C363.681 373.285 367.244 405.453 376.997 443.898C377.713 446.739 375.999 449.633 373.16 450.351C372.754 450.455 372.345 450.507 371.943 450.514C369.535 450.559 367.335 448.941 366.71 446.509C356.771 407.294 353.087 374.304 352.619 347.712C351.691 294.524 363.64 266.968 363.911 266.369ZM342.227 488.123C342.227 485.653 344.39 483.645 347.021 483.645C349.663 483.645 351.826 485.653 351.826 488.123V532.869C351.826 535.361 349.663 537.358 347.021 537.358C344.39 537.358 342.227 535.361 342.227 532.869V488.123ZM301.526 374.077C301.533 373.981 302.026 366.925 303.419 356.936C304.818 346.942 307.098 334.022 310.76 322.042C313.216 314.053 316.252 306.473 320.327 300.322C321.942 297.89 323.74 295.677 325.775 293.787C322.921 278.71 319.618 270.936 319.494 270.643C318.317 267.957 319.534 264.826 322.216 263.647C324.895 262.464 328.023 263.68 329.203 266.373C329.473 266.968 341.426 294.524 340.498 347.712C340.03 374.304 336.351 407.294 326.404 446.509C325.79 448.945 323.579 450.559 321.178 450.514C320.773 450.507 320.367 450.455 319.958 450.351C317.122 449.633 315.405 446.739 316.121 443.898C325.87 405.453 329.44 373.285 329.89 347.522C330.157 332.188 329.32 319.13 328.015 308.355C326.817 310.36 325.666 312.655 324.591 315.158C321.653 321.968 319.289 330.287 317.48 338.492C313.844 354.905 312.419 370.845 312.149 374.245C312.123 374.702 312.105 374.914 312.105 374.914C311.896 377.871 309.569 380.117 306.817 380.117L306.415 380.099C303.499 379.872 301.31 377.172 301.526 374.077ZM372.948 521.436C372.948 523.005 373.763 524.586 375.623 526.022C377.483 527.405 380.326 528.402 383.534 528.402C386.757 528.402 389.6 527.405 391.457 526.022C393.32 524.586 394.15 523.005 394.15 521.436C394.15 519.848 393.32 518.263 391.457 516.846C389.6 515.455 386.757 514.462 383.534 514.462H383.498C380.311 514.462 377.483 515.455 375.623 516.846C373.763 518.263 372.948 519.848 372.948 521.436ZM390.886 503.004C392.648 501.642 393.419 500.106 393.419 498.544C393.419 496.967 392.648 495.435 390.897 494.081C389.151 492.75 386.538 491.82 383.534 491.82H383.52C380.53 491.82 377.91 492.75 376.196 494.081C374.439 495.435 373.664 496.967 373.664 498.544C373.664 500.106 374.439 501.642 376.196 503.004C377.91 504.316 380.556 505.261 383.534 505.261C386.538 505.261 389.151 504.316 390.886 503.004ZM424.414 494.237C422.799 495.576 422.006 497.127 421.984 498.775C422.006 500.434 422.799 501.97 424.414 503.301C426.022 504.595 428.408 505.499 431.163 505.499C433.868 505.499 436.265 504.595 437.902 503.301C439.517 501.97 440.31 500.434 440.317 498.775C440.31 497.127 439.517 495.576 437.902 494.237C436.265 492.962 433.868 492.054 431.163 492.054H431.142C428.394 492.054 426.022 492.962 424.414 494.237ZM320.648 716.036C320.433 718.096 318.85 722.41 322.41 722.507C325.815 722.596 325.702 721.581 327.624 718.174C329.123 715.515 330.749 714.113 332.082 711.182C333.405 708.251 333.994 708.359 334.308 707.418C334.615 706.477 334.589 705.161 335.291 702.505C335.996 699.857 337.133 695.636 337.502 694.118C337.878 692.605 338.423 691.441 339.161 689.57C339.892 687.695 341.646 686.948 343.031 686.702C343.498 686.617 347.207 686.996 347.679 687.045L347.843 687.55C348.011 687.803 347.248 687.718 352.966 689.767C353.127 689.83 352.857 691.017 352.82 691.56C352.725 692.627 352.744 693.765 352.437 694.799C352.437 694.799 349.396 695.253 349.206 696.183C349.009 697.109 348.665 697.856 349.802 698.37C350.931 698.875 351.603 699.519 351.603 699.519C351.603 699.519 351.724 700.601 351.388 702.334C351.212 703.223 350.957 703.16 350.909 703.368C350.851 703.673 348.72 703.762 348.351 703.963C347.109 704.644 347.006 706.418 348.424 708.114C348.954 708.746 349.773 708.222 349.988 708.902C350.281 709.854 349.053 711.126 348.834 711.402C348.07 712.361 346.648 713.86 344.781 714.191C342.91 714.518 341.01 715.199 335.945 714.012C335.207 713.845 334.483 714.515 334.037 715.314C334.067 715.883 334.045 716.475 333.661 717.2L333.782 717.39C334.509 718.111 335.543 718.989 336.113 719.997C336.676 720.997 336.077 721.488 338.09 722.046C340.995 722.853 341.737 720.711 344.098 721.432C346.451 722.154 344.141 723.79 343.875 724.761C343.586 725.769 342.212 726.609 341.576 727.409C339.924 729.466 340.476 732.772 341.412 735.011C342.128 736.718 343.699 741.538 346.36 740.449C347.405 740.021 351.249 736.462 352.484 735.108C353.716 733.754 354.333 732.824 354.677 731.608C355.009 730.399 356.018 719.989 356.953 719.461C358.528 718.572 361.269 718.993 363.016 718.81C366.14 718.483 369.341 717.977 372.425 717.404C373.536 717.2 374.629 716.932 375.725 716.683C377.088 716.374 378.341 715.705 379.705 715.359C380.83 715.072 382.398 714.894 383.231 713.983C383.951 713.205 384.594 712.662 384.689 711.844C384.777 711.022 384.272 710.033 383.728 709.43C382.946 708.538 381.334 708.56 380.286 708.129C377.508 706.998 375.115 705.328 372.688 703.602C371.742 702.94 369.652 702.115 369.089 701.077C368.724 701.215 369.089 701.077 368.935 701.654C368.935 701.977 369.341 702.873 370.101 705.213C371.033 708.11 372.264 710.695 371.362 710.948C368.935 711.643 366.356 711.547 363.9 712.194C363.052 712.421 362.438 712.573 361.667 712.811C360.885 713.053 360.553 713.224 359.694 712.99C358.839 712.748 357.933 711.911 357.611 710.777C357.289 709.646 357.359 709.144 358.506 708.873C359.65 708.601 362.42 707.552 362.668 706.184C362.906 704.819 362.376 704.834 361.846 703.904C361.331 702.981 358.78 705.763 360.213 700.884L360.461 700.017L363.399 699.842C363.648 699.772 363.984 699.697 364.485 699.582C365.738 699.296 368.599 698.756 369.776 697.912C370.116 697.663 370.733 696 370.825 695.71C370.942 695.342 371.442 694.65 370.017 693.903C368.592 693.159 368.968 694.025 367.203 694.319C365.446 694.609 361.411 694.669 361.411 694.669C361.411 694.669 361.656 693.401 361.78 692.199L361.941 691.244L361.981 691.117C361.981 691.117 362.478 689.864 365.047 688.038C367.66 686.174 376.964 684.534 380.092 684.136C383.22 683.738 388.519 683.162 389.567 683.091C390.62 683.02 390.777 681.67 390.148 680.123C389.545 678.635 388.387 679.283 387.232 679.461C385.84 679.681 384.459 679.227 383.063 679.294C381.641 679.353 380.22 679.662 378.824 679.881C376.88 680.179 372.992 681.012 371.749 681.094C370.507 681.172 368.658 681.841 367.773 682.016C366.896 682.191 366.977 681.867 367.963 680.566C368.946 679.264 371.391 679.268 372.349 679.294C373.313 679.309 374.899 678.628 376.646 677.866C379.277 676.724 381.415 674.808 383.684 673.105C384.861 672.224 386.162 671.435 387.287 670.509C388.175 669.776 389.092 668.906 389.582 667.846C390.126 666.686 389.659 666.005 389.165 664.919C388.307 663.015 385.04 663.487 383.384 663.431C382.938 663.416 382.321 663.305 381.89 663.465C380.79 663.881 378.937 665.908 377.556 665.005C377.117 664.718 377.859 662.141 378.133 660.597C378.407 659.05 376.902 657.678 375.425 655.911C373.956 654.137 372.148 650.953 369.557 650.28C366.969 649.603 364.978 654.505 364.331 656.25C363.9 657.421 363.622 658.656 363.184 659.835C362.771 660.932 362.098 661.873 361.612 662.929C360.779 664.77 360.863 668.91 358.177 669.241C357.578 669.319 357.348 670.182 356.749 670.777C356.142 671.364 354.143 672.112 354.399 673.105C354.655 674.094 356.84 672.874 357.213 672.912C357.593 672.956 357.885 674.068 357.947 674.314C358.214 675.363 357.315 677.047 357.077 678.07C356.665 679.84 356.555 681.849 355.842 683.537C355.448 684.478 349.974 683.85 348.238 683.932L347.851 684.036L347.843 684.028L347.671 683.694C347.496 683.132 345.399 682.291 345.431 681.715C345.541 680.041 344.134 679.059 343.228 678.795C342.314 678.535 340.867 677.375 340.407 676.936C339.95 676.501 338.233 675.597 337.505 674.734C336.782 673.875 337.805 671.792 337.878 671.067C337.969 670.167 339.197 669.062 339.749 668.419C341.203 666.715 343.82 665.291 346.126 665.455C347.785 665.574 349.177 665.905 350.423 664.484C353.372 661.092 349.7 657.142 346.867 655.376C345.439 654.494 344.832 653.691 344.054 653.241C343.275 652.791 340.794 651.426 339.771 650.704C338.74 649.986 336.804 648.677 335.645 649.302C334.48 649.919 335.455 651.136 337.125 653.65C337.915 654.825 338.331 655.993 338.189 657.406C338.057 658.712 337.951 659.496 338.613 660.694C339.409 662.137 340.14 663.245 339.654 664.953C339.146 666.749 336.818 670.405 336.27 671.03C335.722 671.647 334.856 671.852 334.271 672.428C331.871 674.779 331.805 677.278 332.726 680.298C333.456 682.715 333.292 686.978 333.044 688.9C332.791 690.82 330.782 695.138 330.113 696.387C329.44 697.633 327.986 700.207 326.013 704.633C324.05 709.051 323.48 709.873 322.991 709.821C322.516 709.773 321.237 711.64 320.78 712.369C320.239 713.246 320.762 715.032 320.648 716.036ZM375.243 670.104C376.317 668.78 379.427 668.523 379.427 668.523C379.544 670.1 377.081 671.175 376.763 671.39C376.441 671.602 376.328 672.049 376.09 672.458C375.838 672.871 374.738 673.053 374.738 673.053C374.738 673.053 374.172 671.424 375.243 670.104ZM330.065 701.929C330.138 701.244 331.07 699.716 332.503 696.614C333.942 693.516 336.669 691.244 336.669 691.244C336.566 692.237 336.219 692.281 336.058 693.036C335.894 693.787 331.399 701.523 330.745 702.074C330.087 702.624 329.996 702.613 330.065 701.929ZM462.634 705.726C463.712 712.562 461.691 716.761 458.11 720.25C454.339 723.887 448.751 726.598 443.288 730.076L443.058 730.224L442.996 730.492C442.974 730.686 442.78 731.024 442.912 731.571L443.003 731.924L443.358 732.036C445.612 732.646 448.492 731.85 450.652 731.601C451.441 731.474 452.186 731.318 452.921 731.128C463.873 728.287 469.95 718.249 470.944 709.646C471.159 705.22 471.371 700.832 471.616 696.588C472.763 695.42 473.9 694.271 475.062 693.259L475.091 693.23L475.131 693.192C476.22 691.909 478.245 690.31 480.244 688.573L479.823 688.09L480.258 688.562C483.222 685.769 486.967 682.005 487.786 679.063L487.819 678.963L487.808 678.855L487.757 678.542C487.296 677.14 485.765 676.701 484.084 676.259C482.381 675.857 480.393 675.63 478.873 675.452C478.72 675.444 475.489 675.437 474.313 675.448H474.236L474.156 675.467L473.64 675.943L473.633 676.426C473.83 677.029 474.313 677.587 474.843 678.364C475.35 679.078 475.866 679.904 475.964 680.317L475.986 680.51C475.888 681.745 473.056 684.835 471.437 686.312C470.472 678.966 473.191 672.335 472.197 664.874L472.16 664.636L471.981 664.48C469.697 662.524 462.495 659.887 458.731 660.605L458.457 660.664L458.311 660.913L458.157 661.52L458.15 661.59L458.095 661.683L458.088 661.843C458.037 662.807 458.187 663.762 458.435 664.722C458.958 666.738 459.9 668.761 460.412 670.773C460.602 671.498 460.734 672.22 460.781 672.945C461.34 680.35 462.312 687.61 462.389 694.754C458.877 698.492 454.927 702.171 450.403 705.265C448.675 706.559 446.058 706.957 443.701 708.493L443.372 708.709L443.365 708.716L442.715 708.887L443.011 709.587C444.476 712.774 446.961 717.479 450.823 716.668L451.536 716.415C453.747 715.37 455.621 713.674 457.361 711.513C458.99 709.479 460.704 707.593 462.634 705.726ZM474.313 701.308C473.987 702.197 474.009 703.134 474.251 704.038C475.533 708.783 482.491 713.696 484.917 715.768C485.604 716.285 486.076 716.921 486.916 717.561C487.526 718.052 488.374 718.565 489.485 718.635C490.26 718.68 490.976 718.598 491.652 718.423L491.681 718.416C495.759 717.33 498.076 713.098 499.735 711.346C500.126 710.844 501.157 710.029 502.078 709.17C502.995 708.277 503.927 707.407 504.022 706.221L504.051 705.544L503.368 705.548C502.114 705.559 501.08 705.67 499.903 705.685L499.911 706.329L499.867 705.685C498.961 705.745 498.098 705.905 497.269 706.12C495.485 706.582 493.848 707.262 492.193 707.682C491.1 707.965 489.997 708.14 488.838 708.095C487.749 708.103 486.485 707.723 485.148 707.173C481.727 705.864 478.314 703.149 476.096 700.891L475.836 700.627L474.762 700.902L474.433 700.988L474.313 701.308ZM530.482 624.495L529.872 624.867L530.771 625.406C532.141 626.213 533.606 627.147 534.988 627.972C538.364 630.502 542.694 633.607 545.062 637.43L545.084 637.475C545.49 638.133 545.947 638.78 546.338 639.413C547.065 640.603 547.456 641.629 547.028 642.63L547.014 642.663L546.981 642.682C543.582 642.466 540.432 639.896 535.938 642.626C535.433 642.939 534.911 643.318 534.363 643.775L534.217 643.902L534.169 644.095L534.228 644.832L534.345 644.988L534.454 645.111L534.608 645.166C537.648 646.189 543.224 649.112 545.388 652.136C545.786 652.806 546.115 653.62 546.601 654.405C547.014 655.093 547.576 655.77 548.443 656.231L548.541 656.29L548.651 656.305C549.955 656.502 551.253 656.703 552.55 656.908L552.882 656.96L553.116 656.711C553.694 656.038 553.624 655.212 553.493 654.397C553.014 651.946 551.549 648.581 553.361 646.264C554.611 645.672 555.744 646.1 557.333 645.921L557.465 645.903L557.571 645.832C557.933 645.561 558.024 645.378 558.159 645.308L558.492 645.096L558.459 644.709C558.367 643.727 558.185 642.678 558.101 641.76L558.086 641.652L558.046 641.555C557.746 640.897 557.458 640.019 557.059 639.156L557.578 637.851L560.008 631.93L560.37 631.781C560.819 631.993 561.58 632.514 561.865 633.016L562.033 633.592V633.633V633.678L562.018 633.67L561.382 634.541L561.061 634.909L561.422 635.437L561.572 635.656L561.85 635.701C562.431 635.768 562.972 635.578 563.399 635.444C564.108 636.255 564.675 637.01 565.559 637.758L565.596 637.795L565.647 637.821C566.611 638.308 568.27 638.732 568.256 638.944L568.234 638.948L568.197 639.048L568.186 639.145C568.102 641.071 565.76 645.092 563.933 647.844C563.662 648.391 563.436 648.819 563.206 649.09L563.158 649.142L563.122 649.198C559.255 656.071 555.331 662.807 551.406 669.728C549.988 672.648 544.759 676.824 547.196 681.146L547.47 681.544L547.602 681.711L547.81 681.767C549.955 682.31 552.152 682.656 554.388 682.812C555.82 682.727 557.173 682.009 557.746 682.299L558.185 682.459L558.47 682.072C561.4 678.118 560.326 675.909 560.812 674.481C562.913 668.095 566.198 661.944 570.167 655.863C571.146 654.602 572.06 653.207 573.032 651.958C574.691 649.637 576.328 646.598 578.966 644.999L579.533 644.675L579.566 644.661C579.818 645.163 579.946 645.732 579.99 646.163C580.092 647.662 579.175 649.191 578.846 650.853C578.488 653.546 577.662 656.361 576.814 658.864C576.397 659.883 575.14 661.389 575.155 662.922C575.243 663.442 575.425 663.811 575.619 664.134C575.871 664.54 576.145 664.889 576.328 665.191L576.573 665.778L576.591 665.908L576.606 665.923L576.573 666.02C576.091 667.162 573.606 669.877 572.838 671.041C571.775 673.045 570.635 675.069 569.348 676.832C566.451 680.581 561.623 683.619 560.633 688.198L560.556 688.54L560.812 688.785C561.733 689.592 563.79 690.087 566.151 690.384C568.501 690.63 571.004 690.589 572.604 689.641L573.076 689.298C574.991 687.372 575.707 684.661 576.372 682.779C577.271 680.309 579.796 675.772 582.306 673.276L582.931 672.703C583.615 673.254 584.338 674.184 585.222 674.979C586.004 675.727 586.607 676.456 587.042 677.159C588.036 678.799 588.135 680.238 587.663 681.696C587.097 683.712 585.175 685.743 582.756 687.714C582.474 687.933 582.146 688.157 581.802 688.369C580.647 689.083 579.208 689.719 577.929 690.5C577.417 690.816 576.931 691.158 576.496 691.552L576.16 692.203L576.167 692.318L575.992 693.137L576.821 693.088C579.12 692.913 581.455 691.816 583.454 691.82C587.104 691.757 590.189 691.63 593.806 691.571H593.883L593.952 691.548L594.625 691.307L594.636 691.299L595.027 690.812C596.189 687.904 595.875 680.61 593.36 676.404C593.057 675.906 592.714 675.463 592.337 675.072C590.492 673.135 588.23 671.312 586.944 669.207L586.425 668.218C586.461 667.969 587.126 666.968 587.883 666.187C588.679 665.321 589.608 664.491 589.838 664.35L594.34 661.583L594.413 661.497C595.918 659.537 595.261 657.183 595.4 655.621V655.573V655.509L595.122 654.673C594.596 653.836 593.645 653.94 593.602 653.903L593.539 653.892L593.477 653.895C592.144 653.936 590.938 654.435 589.874 655.089C589.129 655.554 588.435 656.086 587.795 656.625C587.09 657.22 586.534 657.734 585.975 658.232L580.381 661.672L580.351 661.665C580.169 661.631 579.719 661.248 579.511 660.884L579.372 660.59L579.357 660.549C580.041 658.195 582.679 655.881 583.991 653.151C584.196 652.742 584.554 652.181 584.824 651.66C585.968 648.536 586.743 645.557 587.729 642.641C588.135 641.261 589.567 637.988 588.215 635.623C587.905 635.121 587.448 634.686 586.852 634.396C585.252 633.395 583.432 633.841 581.945 634.764C579.902 636.032 578.206 638.182 577.351 639.621C577.154 640.038 576.843 640.372 576.657 640.915C574.055 644.962 570.814 648.934 567.653 653.04C566.557 654.702 565.248 656.346 564.328 658.117C563.641 659.143 561.536 662.974 560.52 663.584H560.494C559.855 661.918 561.645 659.329 562.559 657.317L566.257 650.224L572.159 638.643C572.561 638.156 573.43 637.59 574.344 637.036C574.874 636.776 575.502 636.456 576.112 636.084C576.997 635.537 577.837 634.89 578.327 633.99C581.736 628.181 579.96 620.787 580.238 614.762C580.308 612.378 580.951 604.545 578.473 600.417C577.735 599.204 576.635 598.275 575.162 598.078C573.69 597.873 571.972 598.353 569.9 599.617L569.802 599.68L569.725 599.777C567.949 602.236 565.354 611.351 561.927 615.171C561.612 613.397 562.31 611.143 563.008 608.781C563.776 606.092 564.514 603.18 562.943 600.588L562.807 600.383L562.793 600.343C562.31 599.695 561.631 599.58 560.732 599.405C558.057 599.007 553.361 599.372 550.617 600.636L550.197 600.837L550.251 601.298C550.493 602.667 551.786 604.218 552.283 605.43L552.323 605.977L552.985 611.772C553.204 613.683 553.92 615.985 554.052 618.076C554.158 620.188 553.781 621.899 551.91 623.063C551.158 623.528 550.142 623.9 548.786 624.138C548.351 624.201 548.216 624.29 547.953 624.316C545.077 624.573 542.621 623.29 539.468 623.249C538.043 623.048 536.749 623.513 535.51 623.509C534.279 623.543 532.642 623.052 530.924 623.885L530.299 624.197L530.482 624.495ZM567.572 630.862L568.073 630.557L569.242 630.122L570.046 630.632C570.123 631.13 570.299 631.495 570.306 631.699C570.167 632.168 569.886 632.543 569.502 632.785C569.067 633.042 568.501 633.153 567.77 632.923C567.423 632.142 567.445 631.714 567.572 630.862ZM562.639 619.995L563.268 620.021C563.341 616.22 569.089 609.704 571.874 606.364C572.221 606.059 572.319 605.81 572.634 605.627C572.871 605.494 573.112 605.404 573.642 605.557C574.3 605.832 574.713 606.215 574.998 606.676C575.44 607.39 575.546 608.395 575.488 609.514C575.488 611.511 575.356 613.583 575.279 615.48V615.521L575.287 615.584C575.824 618.968 577.483 625.838 574.337 627.552L573.796 627.824C572.725 626.991 571.83 626.18 570.916 625.362L570.77 625.231L570.598 625.209C569.824 625.09 569.118 625.183 568.603 625.098C568.033 624.915 566.959 624.447 565.965 623.785C564.865 623.167 564.032 622.435 563.633 621.776L563.509 621.561L563.487 621.497L563.436 621.43L563.421 621.408C563.257 621.14 563.191 620.683 563.264 620.069L562.639 619.995ZM549.897 630.167C550.387 629.992 550.789 629.892 551.106 629.884C552.002 629.854 552.729 629.932 553.548 629.992C553.591 630.751 553.42 631.978 553.124 632.744L553.708 632.964L553.102 632.796L552.948 633.373C551.91 632.536 550.679 631.517 550.109 630.572L549.897 630.167Z" fill="white"/>
<path d="M1276.24 309.963C1276.24 309.963 1277.54 306.226 1278.52 305.575C1290.68 299.863 1299.89 314.03 1296.35 315.173C1293.64 316.059 1271.33 332.991 1271.33 332.991C1269.17 322.304 1276.24 309.963 1276.24 309.963ZM1523.43 583.35C1511.53 584.097 1507.83 584.097 1484.81 586.307C1461.81 588.528 1428.4 588.528 1424.68 586.307C1420.99 584.097 1406.88 566.332 1397.22 553.018C1387.58 539.694 1335.63 473.822 1322.26 450.879C1308.9 427.946 1282.92 366.515 1282.92 366.515C1282.92 366.515 1304.45 347.276 1342.3 325.817C1380.15 304.347 1383.13 293.254 1384.61 285.856C1386.1 278.457 1386.83 269.574 1370.51 276.973C1354.18 284.372 1317.08 283.635 1314.09 283.635C1311.12 283.635 1304.45 282.14 1297.76 287.329C1291.08 292.507 1281.33 289.603 1281.33 289.603C1281.33 289.603 1276.24 286.592 1276.24 279.183C1276.24 271.784 1262.14 257.734 1262.14 257.734C1277.72 263.649 1317.81 238.485 1331.9 224.425C1346.01 210.353 1374.96 185.189 1385.35 173.349C1395.75 161.531 1407.62 166.709 1417.27 143.765C1423.46 129.054 1420.06 140.509 1425.07 124.826C1430.07 109.142 1425.07 107.722 1416.49 104.146C1407.91 100.58 1394.32 106.281 1380.73 108.427C1367.14 110.562 1349.98 114.117 1342.13 115.569C1334.25 116.979 1338.55 116.979 1320.66 127.666C1302.78 138.374 1276.33 146.21 1252.01 156.908C1227.71 167.605 1215.55 169.741 1208.4 169.741C1201.25 169.741 1195.53 167.605 1187.66 180.438C1182.51 188.83 1188.98 196.239 1195.05 201.759C1202.46 208.506 1205.66 213.876 1211.44 221.905C1216.21 228.535 1224.97 229.923 1229.13 237.471C1229.13 237.471 1221.99 236.756 1211.27 237.471C1200.53 238.176 1203.39 253.154 1203.39 261.717C1203.39 270.258 1204.1 296.649 1201.95 305.201C1199.82 313.753 1200.53 325.87 1200.53 337.283C1200.53 348.685 1194.59 379.839 1194.59 379.839C1184.19 390.942 1089.94 447.921 1073.6 457.541C1057.26 467.16 1023.87 448.669 1023.86 448.669C1012.21 468.601 1030.59 507.014 1044.48 522.121C1052.77 531.132 1064.59 539.94 1075.83 544.872C1094.39 553.018 1124.76 541.968 1145.59 518.224C1166.38 494.534 1192.36 451.615 1192.36 451.615C1195.33 486.399 1192.36 509.342 1161.93 584.097C1131.49 658.841 1091.41 658.841 1069.15 664.756C1046.88 670.671 1011.25 667.713 1008.28 678.817C1003.43 696.934 1063.21 713.6 1101.07 706.201C1125.62 701.397 1146.9 677.728 1163 660.293C1185.29 636.176 1208.35 610.884 1218.36 578.919C1226.66 552.442 1232.03 524.769 1237.23 497.566C1239.72 484.498 1242.18 471.409 1244.32 458.277C1249.52 426.451 1258.42 385.764 1258.42 385.764C1258.42 385.764 1282.92 495.292 1298.5 544.872C1314.09 594.453 1354.18 653.653 1379.42 660.315C1404.64 666.977 1438.06 638.119 1446.22 635.162C1454.38 632.194 1496.7 615.902 1518.95 607.777C1541.23 599.631 1535.3 582.602 1523.43 583.35Z" fill="white"/>
<path d="M2603.49 436.851L2603.78 436.67C2612.76 430.362 2628.11 423.574 2643.57 415.847L2641.69 412.09L2643.68 415.804C2666.93 403.008 2696.66 385.386 2706.66 368.139L2707 367.531L2707.14 366.848L2707.3 364.777C2706.68 355.161 2697.74 349.899 2687.88 344.37C2677.81 339.034 2665.62 334.391 2656.33 330.752C2655.39 330.453 2635.01 325.138 2627.6 323.27L2627.1 323.142H2626.57C2625.31 323.014 2623.28 323.953 2622.53 325.319C2621.71 326.611 2621.71 327.603 2621.7 328.361C2621.92 332.491 2624.08 336.793 2626.14 342.535C2628.2 347.935 2630.1 353.955 2630.04 356.74L2629.89 357.978C2627.26 365.631 2604.32 380.509 2591.7 387.19C2597.65 339.237 2625.56 301.775 2631.45 253.021L2631.64 251.473L2630.78 250.192C2619.53 234.14 2578.4 205.74 2553.55 204.085L2551.67 204L2550.34 205.345C2548.91 206.892 2548.69 208.205 2548.41 208.91L2548.25 209.379L2547.76 209.859L2547.44 210.863C2545.54 216.861 2544.92 223.169 2544.92 229.583C2544.94 243.191 2547.58 257.493 2547.54 271.037C2547.54 275.957 2547.2 280.738 2546.34 285.392C2537.77 333.046 2532.05 380.456 2520.89 425.741C2492.65 443.597 2461.72 460.364 2428.13 472.51C2415.14 477.889 2397.98 476.106 2380.64 481.966C2379.33 482.147 2378.62 482.649 2378.2 482.809L2378.15 482.852H2373.74L2374.51 487.729C2378.53 510.303 2386.54 544.05 2412.24 545.235C2413.86 545.235 2415.48 545.064 2417.12 544.787C2432.76 541.82 2447.34 534.178 2461.83 523.377C2475.48 513.174 2489.31 504.07 2504.51 495.403C2500.17 540.357 2480.59 563.592 2452.31 579.741C2422.62 596.582 2382.94 604.566 2342.81 617.619L2341.09 618.163L2340.31 619.775C2339.84 620.959 2338.06 622.795 2338 626.445V628.836L2340.08 630.074C2353.3 637.631 2372.73 637.289 2386.76 639.274C2391.96 639.765 2396.94 640 2401.85 640C2475.51 639.904 2530.25 586.443 2550.55 533.751C2559.15 506.14 2567.61 478.775 2576.1 452.359C2585.24 446.895 2594.28 441.483 2603.23 436.99L2603.49 436.851ZM2761.75 560.828C2753.79 558.832 2747.07 557.882 2739.65 556.015L2738.63 560.113L2739.42 555.972C2733.61 554.851 2727.9 554.478 2722.29 554.478C2710.33 554.478 2698.88 556.1 2687.74 556.089C2680.4 556.089 2673.17 555.385 2665.92 553.186C2659.04 551.479 2651.68 546.996 2644.19 541.361C2624.74 527.454 2607.63 504.753 2597.31 486.865L2596.11 484.762H2588.89H2586.66L2585.4 486.598C2581.93 491.678 2580.52 497.623 2580.52 503.739C2580.89 535.821 2616.78 578.193 2628.66 595.238C2632.2 599.624 2634.11 604.427 2638.39 609.849C2641.43 613.915 2645.94 618.537 2652.8 620.821C2657.63 622.326 2662.31 622.998 2666.85 622.998H2667.02C2694.53 622.817 2716.04 599.902 2729.39 591.524C2732.67 588.994 2740.46 585.515 2747.7 581.598C2754.92 577.489 2762.2 573.476 2764.73 566.143L2766 561.906L2761.75 560.828Z" fill="white"/>
<path d="M3135.98 270.121L3138.65 273.402L3135.69 270.366C3134.72 271.329 3133.73 272.301 3132.89 273.146C3129.76 264.829 3126.12 254.792 3126.05 247.426C3126.03 246.336 3126.06 245.299 3126.2 244.38C3129.63 245.053 3132.28 245.801 3134.12 246.838C3139.37 249.703 3143.27 252.643 3147.78 255.764C3145.42 260.286 3140.26 266.721 3135.98 270.121ZM3225.29 308.294L3229.23 308.219L3237.4 309.705C3238.18 311.404 3239.1 313.254 3240.32 315.327C3239.02 318.47 3238.82 321.153 3238.18 322.351C3235.8 324.585 3232.86 325.782 3229.85 325.857C3226.49 325.889 3222.9 324.574 3219.48 320.822C3220.1 315.135 3221.69 312.73 3225.29 308.294ZM3233.5 241.119L3233.57 240.638L3233.51 240.104V239.944C3233.43 237.848 3234.61 234.973 3237.14 231.723L3233.81 229.136L3237.36 231.434C3250.61 209.895 3305.67 191.947 3332.98 182.208C3336 181.642 3337.42 180.551 3339.84 180.551C3341.64 180.594 3343.32 180.904 3345.85 183.587C3348.69 187.393 3349.78 190.963 3349.86 194.566C3349.99 200.178 3347.15 206.314 3343.06 212.556C3336.31 224.005 3328.52 235.454 3321.66 246.069L3321.51 246.315L3321.34 246.71C3312.96 267.983 3299.23 313.018 3275.33 312.185C3274.04 312.206 3272.7 312.131 3271.31 311.917C3268.05 303.526 3265.6 295.829 3263.13 287.994L3262.73 286.807L3261.79 286.048C3257.76 282.734 3253.42 280.917 3250.77 278.651C3248.08 275.679 3243.53 269.351 3240.04 262.232C3235.82 254.941 3233.52 247.897 3233.44 242.755L3233.5 241.119ZM3106.92 443.187L3152.16 414.998L3225.28 368.53C3229.22 367.055 3236.13 366.777 3243.22 366.681C3247.14 366.991 3251.89 367.29 3256.65 367.215C3263.56 367.076 3270.57 366.189 3276.46 362.704C3315.69 340.897 3330.55 292.398 3352.5 258.757C3361.01 245.31 3391.27 202.519 3391 170.418C3390.88 160.968 3387.69 151.914 3379.92 145.756C3372.18 139.62 3360.69 136.531 3344.53 136.798L3343.72 136.82L3342.98 137.13C3324.45 145.2 3278.68 188.729 3246.05 199.055C3250.23 187.81 3261.92 177.248 3273.91 166.056C3287.42 153.218 3301.51 139 3301.27 118.797L3301.22 117.161L3301.24 116.851C3300.72 111.517 3297.15 108.513 3292.61 104.505C3278.61 93.1522 3250.4 79.341 3230.37 77.2886L3227.26 77L3226.06 79.8648C3222.78 88.5235 3224.98 101.811 3223.7 110.47L3222.09 113.751L3206.27 149.23C3201.05 160.979 3197.35 176.607 3191 189.05C3184.5 201.557 3176.53 210.087 3161.83 210.451C3155.96 210.547 3148.84 209.253 3140.26 206.004C3137.54 204.913 3136.49 204.945 3134.92 204.24C3117.52 195.955 3107.74 180.263 3089.8 169.338C3082.27 163.352 3073.32 161.652 3066.22 157.419C3059.04 153.442 3051.28 145.083 3038.59 144.057L3033.98 143.725L3034.02 146.034L3029.26 146.12L3032.59 152.245C3037.7 161.534 3042.94 171.861 3048.11 181.31C3058.9 207.244 3073.24 239.74 3073.84 269.725V270.046C3073.93 275.209 3074.38 280.468 3074.47 285.418C3074.62 294.739 3073.39 301.933 3067.52 306.23L3067.34 306.38H3067.13C3048.35 293.617 3038.94 268.164 3003.89 268.635C2999.91 268.699 2995.63 269.105 2991.01 269.896L2989.7 270.131L2988.77 271.051C2988.37 271.286 2986.48 273.306 2986.61 275.53L2986.73 276.802L2986.94 277.86L2987.66 278.704C3001.62 294.878 3023.74 330.56 3025.95 355.243C3025.97 360.47 3025.07 366.264 3025.17 372.411C3025.22 377.755 3026.19 383.528 3029.59 389.129L3029.94 389.749L3030.54 390.23C3037.33 395.789 3044.1 401.348 3050.89 406.917L3052.62 408.36L3054.79 407.697C3060.42 405.784 3062.78 400.824 3064.77 395.693C3070.31 380 3073.34 355.703 3091.6 348.562C3100.73 349.374 3105.82 355.703 3115.51 360.043L3116.33 360.374L3117.24 360.363C3120.21 360.043 3121.31 359.262 3122.36 359.316L3124.99 359.273L3126.09 356.889C3128.88 350.978 3131.44 344.307 3134.02 338.738L3134.32 338.086L3134.39 337.402C3134.89 332.591 3136.2 326.584 3136.87 320.245L3144.28 314.558L3178.29 288.785L3180.85 289.138C3182.74 291.917 3185.32 297.476 3185.24 301.292C3185.25 303.002 3184.92 304.253 3184.26 305.162L3184.11 305.386L3183.97 305.653L3183.92 305.589C3182.79 306.434 3179.42 307.802 3177.35 308.433L3174.21 309.448L3174.5 313.703L3174.62 315.488L3176.05 316.664C3179.16 318.983 3182.95 319.774 3185.86 320.459C3187.16 327.514 3187.84 333.778 3190.39 341.036L3190.5 341.368L3190.7 341.688C3194.58 347.771 3202.66 355.82 3201.83 357.007L3201.72 356.975L3201.17 357.392L3200.82 357.926C3193.77 368.701 3166.73 383.881 3146.9 393.459C3143.48 395.693 3140.77 397.392 3138.49 398.141L3138.04 398.28L3137.69 398.483C3092.19 424.833 3046.87 450.21 3000.84 476.614C2982.85 488.64 2938.64 494.861 2938 527.925C2938.01 528.865 2938.06 529.956 2938.22 531.142L2938.42 532.543L2939.44 533.58C2949.93 543.981 2961.36 553.388 2973.68 561.875C2982.21 566.205 2992.38 566.718 2994.66 570.288L2996.67 572.704L2999.57 571.464C3029.8 558.668 3031.13 542.377 3038.76 535.803C3072.43 506.289 3112.12 482.077 3155.51 460.601C3165.41 456.688 3175.38 451.771 3185.2 447.912C3202.58 440.216 3222.26 428.329 3242.81 428.04C3244.28 428.008 3245.7 428.04 3247.14 428.136L3247.42 428.158C3247.14 431.878 3245.97 435.587 3244.74 438.217C3240.24 447.121 3229.85 452.829 3222.28 461.296C3211.13 475.492 3196.87 488.875 3183.49 500.367C3177.63 504.803 3165.36 509.175 3160.2 518.069C3158.94 521.318 3158.74 524.066 3158.78 526.599C3158.84 529.774 3159.24 532.692 3159.28 535.033C3159.32 536.915 3159.1 538.294 3158.7 539.245L3158.34 540.068V540.175L3157.92 540.646C3151.22 545.552 3127.77 552.714 3119.4 556.798C3106.56 564.74 3093.15 572.458 3079.76 578.231C3050.44 589.925 3012.45 591.015 2991.24 613.934L2989.67 615.655L2990.3 617.932C2992.84 625.672 3002.96 635.495 3015.55 645.212C3028.2 654.577 3042.69 662.861 3055.09 662.808C3056.44 662.808 3057.7 662.647 3058.95 662.434C3076.47 657.826 3089.75 644.71 3099.95 636.169C3113.44 625.041 3143.35 607.542 3166.22 601.769C3167.78 601.214 3169.63 601 3171.75 600.572C3173.77 606.035 3174.8 613.817 3177.16 621.406C3179.13 628.323 3180.1 634.565 3180.2 640.06C3180.36 652.856 3176.07 661.472 3168.41 668.227C3158.4 677.87 3140.45 683.022 3119.87 686.133C3117.52 686.453 3114.92 686.624 3112.18 686.678C3103.15 686.86 3092.72 685.62 3082.74 685.791C3078.72 685.855 3074.75 686.175 3070.93 686.934C3069.04 686.988 3067 688.88 3066.82 689.585L3066.47 690.216L3062.65 694.332L3067.63 696.876C3081.37 703.675 3098.5 705.289 3109.98 712.087C3131.15 724.081 3149.27 733.798 3170.18 745.696L3170.66 745.963L3171.16 746.102C3172.14 746.327 3173.55 746.989 3175.82 747H3175.89C3177.04 746.979 3178.58 746.594 3179.79 745.514C3196.33 732.74 3219.23 689.81 3219.03 657.131C3218.97 653.262 3218.56 649.542 3217.73 646.046C3213.67 628.654 3206.85 610.503 3206.61 594.094C3206.57 591.507 3206.66 589.027 3206.97 586.633C3208.03 585.371 3215.24 581.844 3222.24 579.92C3229.72 577.632 3237.86 576.018 3239.66 575.986L3274.9 575.376L3275.57 575.12C3290.87 568.973 3295.06 553.217 3301.14 544.697L3301.33 544.43L3301.5 544.088C3302.39 542.11 3302.83 540.154 3302.8 538.347C3302.59 531.741 3296.77 529.133 3296.65 528.791L3296.32 528.513L3295.94 528.31C3288.17 524.034 3279.59 522.826 3271.23 522.975C3265.39 523.072 3259.59 523.799 3254.09 524.729C3248.07 525.765 3243.1 526.802 3238.2 527.807L3194.43 528.566L3194.32 528.427C3193.37 527.615 3192.1 523.873 3192.14 521.126L3192.34 518.945L3192.42 518.667C3204.29 507.454 3227.27 503.114 3244.06 491.89C3246.6 490.211 3250.57 488.234 3253.87 486.107C3271.02 472.114 3285.56 457.618 3301.1 444.213C3308.09 437.703 3327.43 423.753 3327.64 405.559C3327.59 401.626 3326.41 397.596 3323.99 393.876C3318.21 382.726 3306.22 379.113 3294.58 379.402C3278.59 379.733 3261.54 386.35 3251.75 391.706C3249.22 393.448 3246.3 394.292 3243.38 396.772C3214.76 411.214 3182.7 423.048 3150.66 435.897C3138.74 441.755 3125.66 446.726 3114.36 453.791C3106.92 457.33 3081.9 472.178 3074 472.274L3073.84 472.135C3075.84 460.441 3094.84 451.654 3106.92 443.187Z" fill="white"/>
<path d="M2148.88 476.319C2148.1 471.05 2143.35 465.74 2139 462.838C2132.63 458.6 2122.68 461.345 2115.43 460.367C2096.27 457.801 2078.65 451.323 2060.72 444.551C2053.76 441.933 2039.43 440.198 2034.17 434.645C2032.16 436.097 2034.17 434.645 2034.17 438.515C2034.71 440.524 2038.7 445.413 2047.24 458.758C2057.78 475.257 2069.58 489.306 2064.42 492.355C2050.41 500.62 2034.17 504.238 2019.94 512.24C2015.04 514.995 2011.48 516.951 2007.03 519.706C2002.56 522.472 2000.78 524.06 1995.05 523.975C1989.32 523.881 1982.32 520.137 1978.48 513.618C1974.64 507.087 1974.27 503.849 1980.93 500.326C1987.63 496.782 2003.19 485.762 2002.48 476.855C2001.76 467.969 1998.48 468.926 1993.71 463.994C1988.96 459.105 1977.61 480.525 1978.61 447.864C1978.66 446.328 1978.05 442.742 1978.72 442.091C1979.36 440.114 1995 436.885 1996.78 436.202C1998.2 435.392 2000.15 434.351 2003.09 432.837C2010.42 429.041 2027.39 421.007 2033.32 413.856C2035.05 411.764 2036.21 400.407 2036.3 398.472C2036.43 396.011 2038.42 390.869 2028.33 388.545C2018.25 386.232 2021.99 391.027 2011.49 395.685C2000.99 400.344 1975.96 407.305 1975.96 407.305C1975.96 407.305 1975.43 398.987 1974.23 391.29C1973.95 389.397 1973.59 387.073 1973.69 385.107L1973.73 384.286C1973.73 384.286 1974.8 375.653 1987.83 360.121C2001.05 344.317 2056.38 318.995 2075.22 311.455C2094.07 303.926 2126.13 291.718 2132.55 289.572C2138.96 287.406 2137.75 278.794 2131.35 270.182C2125.18 261.885 2118.98 267.816 2112.09 270.802C2103.8 274.419 2094.42 273.862 2085.84 276.502C2077.11 279.194 2068.75 283.431 2060.39 287.049C2048.76 292.075 2025.89 303.558 2018.3 306.071C2010.68 308.595 2000.25 315.767 1995.05 318.269C1989.84 320.793 1989.84 318.648 1993.84 308.942C1997.85 299.257 2013.09 295.314 2019.1 293.884C2025.1 292.433 2033.91 285.619 2043.55 278.079C2058.07 266.69 2068.26 251.275 2079.66 237.015C2085.55 229.655 2092.35 222.62 2097.87 215.038C2102.23 209.044 2106.52 202.146 2107.87 194.753C2109.34 186.646 2105.31 183.165 2100.48 177.213C2092.04 166.782 2072.49 175.026 2062.08 177.35C2059.23 177.981 2055.24 178.286 2052.81 180.01C2046.66 184.385 2038.38 199.98 2028.31 196.604C2025.1 195.521 2025.5 178.296 2024.7 168.244C2023.9 158.201 2012.29 152.092 2000.25 143.479C1988.23 134.867 1971.79 118 1954.56 118C1937.31 118 1932.9 151.734 1931.7 163.585C1930.88 171.63 1931.21 179.748 1930.37 187.781C1929.59 195.248 1926.92 202.219 1925.63 209.57C1923.4 222.357 1930.65 247.983 1914.47 254.387C1910.85 255.828 1910.85 261.569 1908.06 266.238C1905.25 270.897 1894.02 278.794 1897.23 284.546C1900.44 290.277 1912.05 279.151 1914.47 278.794C1916.87 278.436 1920.48 284.882 1921.28 286.323C1924.67 292.391 1921.78 304.347 1921.95 311.056C1922.28 322.77 1924.87 335.431 1923.2 347.082C1922.26 353.581 1887.1 358.544 1876.44 361.867C1864.1 366.441 1876.12 378.545 1879.87 385.022C1881.3 386.305 1876.44 387.02 1915.39 390.522C1916.48 390.617 1916.76 398.451 1917.38 401.868C1918.52 408.672 1920.48 415.728 1920.27 422.647C1920.27 422.647 1902.04 430.418 1902.36 436.486C1902.69 442.553 1901.72 447.779 1909.63 449.115C1917.53 450.45 1922.77 453.363 1922.77 453.363C1922.77 453.363 1925.25 459.883 1925.96 471.187C1926.34 477.044 1924.64 477.034 1924.69 478.422C1924.82 480.409 1911.66 484.437 1909.7 486.256C1903.06 492.502 1905.33 503.712 1916.92 511.977C1921.24 515.048 1925.49 510.452 1927.93 514.364C1931.31 519.759 1925.74 529.664 1924.81 531.746C1921.6 538.96 1915.2 550.559 1904.09 555.648C1892.98 560.717 1882.22 568.046 1848.74 568.909C1843.88 569.024 1840.47 574.366 1839 580.066C1840.12 583.567 1840.93 587.29 1839.73 592.411L1840.8 593.41C1846.46 596.733 1854.33 600.497 1859.53 605.829C1864.68 611.16 1861.72 615.156 1875.19 615.366C1894.58 615.682 1895.75 601.149 1911.6 601.812C1927.45 602.464 1915.72 616.407 1915.6 622.864C1915.47 629.636 1908.29 637.06 1905.61 643.054C1898.66 658.554 1907.45 678.187 1916.94 690.605C1924.17 700.038 1941.79 727.484 1956.6 716.411C1962.42 712.057 1980.59 683.665 1986.05 673.255C1991.55 662.834 1993.88 656.02 1994.03 647.923C1994.19 639.847 1983.54 573.462 1988.48 568.688C1996.86 560.591 2014.57 558.782 2025.2 554.786C2044.13 547.678 2063.26 539.37 2081.55 530.779C2088.11 527.708 2094.49 524.27 2100.92 520.957C2108.91 516.814 2115.63 510.621 2123.54 506.267C2130.1 502.65 2139.59 498.969 2143.28 491.955C2146.51 485.972 2149.67 481.566 2148.88 476.319ZM2022.2 232.052C2026.74 222.094 2045.7 215.448 2045.7 215.448C2048.99 225.038 2035.4 235.743 2033.75 237.594C2032.11 239.445 2032.11 242.389 2031.28 245.344C2030.44 248.309 2023.84 251.243 2023.84 251.243C2023.84 251.243 2017.66 242.021 2022.2 232.052Z" fill="white"/>
<path d="M1874.43 363.917L1873.71 363.243L1872.05 361.42C1870.05 358.206 1855.6 356.404 1854.9 352.748C1852.83 342.158 1842.48 338.28 1836.38 338.153C1830.28 337.995 1819.37 333.138 1815.81 331.146C1812.25 329.144 1800.04 326.309 1794.11 322.137C1788.19 317.953 1791.19 303.296 1790.46 298.681C1789.58 292.917 1795.45 284.044 1797.82 279.144C1804.13 266.141 1818.11 253.001 1832.75 250.283C1843.3 248.312 1852.53 248.123 1857.95 237.238C1870.86 211.295 1841.53 192.686 1820.98 186.29C1810.67 183.097 1805.57 179.082 1799.97 177.554C1794.37 176.016 1776.71 171.548 1769.14 168.724C1761.55 165.9 1747.37 160.884 1741.14 166.659C1734.89 172.433 1742.96 178.387 1757.45 191.348C1764.28 197.438 1768.77 203.982 1770.19 213.023C1771.52 221.379 1772.12 226.458 1778.17 232.822C1785.5 240.515 1791.83 246.257 1791.6 257.669C1791.35 269.692 1782.81 296.257 1780.38 301.051C1777.98 305.783 1772.92 308.47 1770.18 313.032C1759.06 331.578 1762.72 347.268 1773.36 364.602C1781.85 378.438 1787.77 405.276 1789.33 417.657C1790.89 430.028 1785.38 460.207 1783.24 469.079C1781.09 477.931 1776.21 496.35 1771.13 527.108C1766.06 557.877 1763.83 563.884 1760.72 564.368C1757.63 564.843 1752.72 578.541 1751.09 583.852C1749.15 590.206 1755.24 600.459 1756.23 606.939C1758.22 620.111 1755.4 649.563 1777.73 644.399C1799.11 639.426 1796.75 633.251 1803.19 608.899C1808.2 589.9 1816.05 578.499 1819.58 558.088C1823.09 537.667 1826.93 537.382 1827.34 531.007C1827.75 524.643 1825.43 516.476 1825.5 498.795C1825.58 481.124 1825.79 453.01 1825.63 442.947C1825.48 432.873 1827.03 424.749 1828.55 411.893C1830.08 399.027 1839.83 391.525 1848.03 387.731C1850.8 386.446 1874.56 382.768 1877.55 382.305C1878.83 382.094 1876.88 379.312 1877.76 378.343L1874.86 376.509C1874.47 373.19 1876.08 369.512 1876 369.344L1875.52 367.278C1875.27 365.93 1875.2 364.844 1874.43 363.917ZM1814.85 438.532C1815.07 443.505 1799.63 499.005 1796.44 503.505C1793.21 508.004 1792.67 508.089 1791.99 503.695C1791.3 499.29 1794.63 488.257 1798.52 466.614C1802.45 444.97 1815.75 426.361 1815.75 426.361C1816.73 432.726 1814.63 433.548 1814.85 438.532Z" fill="white"/>
</g>
<defs>
<clipPath id="clip0_70_180">
<rect width="3391" height="823" fill="white"/>
</clipPath>
</defs>
</svg>
