<svg width="270" height="2386" viewBox="0 0 270 2386" fill="none" xmlns="http://www.w3.org/2000/svg">
<g clip-path="url(#clip0_70_80)">
<path d="M208.377 2386V2335.62L138.621 2316.65C130.189 2314.48 119.726 2311.99 111.885 2310.12V2308.87C119.443 2307.01 130.189 2303.9 138.33 2301.41L208.377 2278.71L208.377 2226.15L78.1637 2282.13C74.6759 2283.69 72.6362 2284 70.8968 2284C69.1573 2284 66.8262 2283.06 64.504 2281.51C57.5284 2277.17 41.6524 2264.1 38.2618 2245.78L0.00224955 2236.59C-0.156687 2259.57 8.11684 2280.88 21.4852 2297.06C35.7276 2314.16 58.1112 2328.78 114.79 2350.54L208.377 2386ZM124.379 2179.1H175.83V2213H208.377V2179.1H224.95V2132.76H208.377V2112.55H175.83V2132.76H117.695C97.6422 2132.76 83.9737 2137.12 75.5501 2145.83C68.2743 2153.6 63.3384 2166.34 63.3384 2181.59C63.3384 2194.65 64.2038 2201.78 66.2434 2207.7L101.501 2216.63C100.618 2212.28 99.3817 2204.29 99.3817 2197.77C99.3817 2183.76 107.24 2179.1 124.379 2179.1ZM247.908 2093.52C260.402 2093.2 270 2083.88 270 2068.65C270 2053.4 260.402 2043.45 247.908 2043.45C235.705 2043.45 225.816 2053.09 225.816 2068.01C225.816 2083.88 235.705 2093.52 247.908 2093.52ZM169.72 1953.7C176.695 1953.7 181.057 1960.23 181.057 1971.74C181.057 1984.47 176.404 1997.86 172.925 2004.69L203.432 2012.78C207.794 2003.46 211.865 1987.9 211.865 1970.18C211.865 1932.55 191.803 1908.29 165.075 1908.29C148.211 1907.98 132.22 1920.11 122.348 1951.83C116.821 1969.25 113.342 1973.91 105.774 1973.91C98.5164 1973.91 94.1545 1968 94.1545 1953.7C94.1545 1939.7 99.6731 1921.65 104.618 1912.96L73.2278 1904.56C67.4178 1916.07 63.0559 1933.79 63.0559 1953.7C63.0559 1997.23 82.5256 2019.31 109.271 2019.31C129.897 2019.01 143.849 2007.19 153.155 1978.27C159.257 1959.6 162.753 1953.7 169.72 1953.7ZM170.276 1884.21L210.249 1894.33C210.84 1890.91 211.865 1884.88 211.865 1880.52C211.865 1865.59 203.15 1847.26 182.223 1839.48V1838.23L208.377 1836.36V1795.93C196.165 1796.86 182.514 1797.17 161.588 1797.17H66.2434L66.2434 1844.44H138.33C141.818 1844.44 145.306 1844.76 148.211 1845.39C161.87 1848.48 170.594 1860.3 170.594 1877.73C170.594 1883.02 170.859 1880.46 170.276 1884.21ZM123.213 1769.29C126.41 1769.9 133.103 1770.83 140.661 1770.83C175.83 1770.83 211.582 1752.18 211.582 1703.04C211.582 1650.17 171.76 1626.23 135.716 1626.23C91.2494 1626.23 63.3384 1655.77 63.3384 1707.4C63.3384 1727.92 66.2434 1746.88 72.3448 1762.45L102.287 1756.21C98.2162 1743.47 96.1853 1730.4 96.1853 1714.24C96.1853 1692.16 104.909 1672.56 123.213 1671.32L123.213 1769.29ZM153.447 1726.99V1671.01C165.075 1672.24 182.223 1680.34 182.223 1700.23C182.223 1722.01 164.201 1726.99 153.447 1726.99ZM66.2434 1565.39L208.377 1621.99V1572.23L142.401 1552.65C130.189 1549.22 119.443 1546.73 107.805 1544.24V1543.31C119.152 1540.83 130.189 1538.34 142.401 1534.6L208.377 1514.08L208.377 1462.77L66.2434 1518.12V1565.39ZM247.908 1445.76C260.402 1445.44 270 1436.12 270 1420.89C270 1405.64 260.402 1395.69 247.908 1395.69C235.705 1395.69 225.816 1405.33 225.816 1420.25C225.816 1436.12 235.705 1445.76 247.908 1445.76ZM66.2434 1315.83L66.2434 1363.1H150.241C192.103 1363.1 211.582 1339.77 211.582 1308.66C211.582 1283.17 197.913 1267.93 188.616 1261.71V1260.78L208.377 1258.6V1217.56C195.591 1218.17 180.766 1218.78 163.036 1218.78H66.2434V1266.06H148.211C152.281 1266.06 156.352 1266.37 159.257 1267.62C167.398 1271.04 175.83 1278.82 175.83 1291.88C175.83 1308.98 163.327 1315.83 145.023 1315.83H66.2434ZM152.281 1183.78H262.159V1136.51H149.667C114.79 1136.51 98.5164 1122.82 98.5164 1097.95C98.5164 1074 115.655 1060 149.667 1060H262.159V1012.73H152.864C90.6579 1012.73 63.0559 1043.52 63.0559 1096.39C63.0559 1151.13 91.8234 1183.78 152.281 1183.78ZM66.2434 864.52L66.2434 911.772H150.241C192.103 911.772 211.582 888.453 211.582 857.364C211.582 831.858 197.913 816.625 188.616 810.409V809.479L208.377 807.292V766.237C195.591 766.86 180.766 767.493 163.036 767.493H66.2434L66.2434 814.764H148.211C152.281 814.764 156.352 815.062 159.257 816.318C167.398 819.733 175.83 827.503 175.83 840.568C175.83 857.68 163.327 864.52 145.023 864.52H66.2434ZM247.908 734.707C260.402 734.4 270 725.066 270 709.834C270 694.591 260.402 684.634 247.908 684.634C235.705 684.634 225.816 694.284 225.816 709.201C225.816 725.066 235.705 734.707 247.908 734.707ZM247.908 653.411C260.402 653.114 270 643.781 270 628.539C270 613.296 260.402 603.359 247.908 603.359C235.705 603.359 225.816 612.989 225.816 627.915C225.816 643.781 235.705 653.411 247.908 653.411ZM93.8631 604.903C73.0512 604.903 61.4665 603.541 54.1113 600.078C45.2108 595.119 40.3898 584.155 38.2618 572.653L0.00224955 563.464C-0.0860485 575.138 4.70854 611.598 21.2026 630.706C33.4849 644.951 52.2924 652.174 83.1084 652.174H208.377V604.903H93.8631ZM66.2434 520.375V567.637H150.241C192.103 567.637 211.582 544.327 211.582 513.219C211.582 487.723 197.913 472.49 188.616 466.265V465.325L208.377 463.157V422.102C195.591 422.725 180.766 423.349 163.036 423.349L66.2434 423.349L66.2434 470.62H148.211C152.281 470.62 156.352 470.927 159.257 472.174C167.398 475.588 175.83 483.368 175.83 496.423C175.83 513.536 163.327 520.375 145.023 520.375H66.2434ZM66.2434 349.708V392.308C74.0931 390.437 87.1789 389.814 100.547 389.814H150.241C183.962 389.814 211.865 373.958 211.865 323.272C211.865 295.588 204.606 274.763 199.079 264.183L170.594 272.883C176.404 282.84 181.349 299.329 181.349 314.869C181.349 338.188 170.594 342.552 162.753 342.552H161.005C161.005 288.749 143.566 253.296 106.649 253.296C83.9737 253.296 63.0559 271.646 63.0559 302.437C63.0559 320.461 69.1573 336.02 80.4947 345.977V346.907L66.2434 349.708ZM117.986 344.097C115.372 344.097 112.75 343.799 110.428 343.166C101.421 340.058 94.1545 330.111 94.1545 318.6C94.1545 308.029 99.6731 299.943 111.011 299.943C127.858 299.943 133.394 319.224 133.394 344.097H117.986ZM247.908 230.504C260.402 230.197 270 220.864 270 205.622C270 190.389 260.402 180.432 247.908 180.432C235.705 180.432 225.816 190.072 225.816 205.008C225.816 220.864 235.705 230.504 247.908 230.504ZM224.95 103.866V161.084L262.159 161.084L262.159 0L224.95 0V56.5949L66.2434 56.5949V103.866L224.95 103.866ZM208.377 228.941V181.67L66.2434 181.67L66.2434 228.941L208.377 228.941ZM208.377 733.153L208.377 685.882H66.2434V733.153H208.377ZM208.377 1444.2V1396.93H66.2434L66.2434 1444.2H208.377ZM208.377 2091.96L208.377 2044.69H66.2434L66.2434 2091.96H208.377Z" fill="#00468C"/>
</g>
<defs>
<clipPath id="clip0_70_80">
<rect width="2386" height="270" fill="white" transform="matrix(0 1 -1 0 270 0)"/>
</clipPath>
</defs>
</svg>
