<svg width="885" height="3372" viewBox="0 0 885 3372" fill="none" xmlns="http://www.w3.org/2000/svg">
<g clip-path="url(#clip0_70_154)">
<rect width="885" height="3372" fill="#00468C"/>
<path d="M885 411.5C885 184.231 700.764 2.61652e-06 473.5 2.61652e-06C246.228 2.61652e-06 62 184.231 62 411.5C62 638.769 246.228 823 473.5 823C700.764 823 885 638.769 885 411.5ZM848.366 328.049L867.858 349.988L855.741 374.799L872.386 398.937L857.308 422.048L870.825 448.082L853.066 469.14L863.283 496.621L843.027 515.381L849.857 543.915L827.457 560.034L830.702 589.166L806.452 602.392L806.101 631.759L780.452 641.897L776.469 670.97L749.779 677.914L742.251 706.232L714.921 709.828L704.002 737.057L676.416 737.261L662.216 762.942L634.82 759.751L617.568 783.428L590.772 776.9L570.739 798.342L544.944 788.56L522.412 807.357L498.016 794.485L473.401 810.392L450.745 794.619L424.376 807.327L403.825 788.906L376.06 798.29L357.953 777.477L329.238 783.353L313.824 760.506L284.613 762.846L272.137 738.228L242.826 736.934L233.493 710.978L204.592 706.091L198.504 679.186L170.392 670.818L167.644 643.363L140.785 631.588L141.436 603.991L116.207 588.977L120.249 561.674L97.0697 543.729L104.455 517.122L83.6697 496.413L94.2486 470.959L76.1529 447.874L89.7758 423.863L74.6217 398.732L91.0878 376.569L79.1713 349.787L98.2318 329.823L89.7064 301.743L111.062 284.326L106.019 255.398L129.377 240.722L127.977 211.396L152.921 199.717L155.11 170.451L181.304 161.863L187.088 133.14L214.177 127.848L223.397 100.017L250.935 98.12L263.491 71.643L291.037 73.1344L306.794 48.4054L333.937 53.2478L352.625 30.6574L378.965 38.7913L400.306 18.6332L425.388 30.0177L449.013 12.6193L472.612 26.994L498.188 12.6304L519.785 29.7945L546.899 18.6741L566.266 38.3487L594.569 30.7206L611.341 52.5821L640.393 48.4909L654.366 72.2492L683.681 71.7546L694.603 97.06L723.768 100.154L731.496 126.65L760.051 133.285L764.487 160.491L792.014 170.611L793.056 198.167L819.136 211.578L816.783 239.081L841.065 255.591L835.324 282.596L857.345 301.947L848.366 328.049ZM856.57 351.535L837.619 330.206L846.327 304.867L824.906 286.048L830.482 259.842L806.872 243.797L809.164 217.097L783.811 204.058L782.795 177.309L756.038 167.468L751.73 141.073L723.958 134.62L716.456 108.895L688.102 105.889L677.498 81.3278L649.006 81.8076L635.441 58.7485L607.187 62.7243L590.914 41.5063L563.394 48.9224L544.608 29.8429L518.243 40.6583L497.282 24L472.418 37.9582L449.514 24.0112L426.536 40.9298L402.184 29.8838L381.446 49.4654L355.885 41.5695L337.709 63.5389L311.369 58.8341L296.047 82.8898L269.323 81.4356L257.111 107.184L230.384 109.028L221.423 136.078L195.12 141.218L189.496 169.142L164.081 177.473L161.951 205.943L137.734 217.283L139.093 245.795L116.437 260.032L121.338 288.156L100.611 305.068L108.895 332.359L90.4007 351.736L101.985 377.774L86.0047 399.282L100.739 423.718L87.5175 447.03L105.113 469.482L94.8479 494.189L115.056 514.314L107.894 540.132L130.426 557.575L126.501 584.086L151.032 598.684L150.4 625.466L176.513 636.91L179.18 663.554L206.51 671.692L212.427 697.815L240.535 702.569L249.59 727.759L278.079 729.019L290.185 752.9L318.579 750.628L333.546 772.809L361.465 767.089L379.042 787.288L406.028 778.176L425.977 796.051L451.615 783.688L473.595 798.996L497.538 783.524L521.221 796.021L543.128 777.748L568.156 787.24L587.636 766.39L613.647 772.735L630.42 749.709L657.005 752.804L670.807 727.829L697.578 727.636L708.197 701.166L734.727 697.674L742.046 670.144L767.958 663.402L771.828 635.128L796.71 625.295L797.053 596.731L820.594 583.896L817.433 555.582L839.176 539.943L832.536 512.201L852.2 493.981L842.267 467.262L859.501 446.821L846.36 421.505L860.984 399.082L844.803 375.617L856.57 351.535ZM833.552 411.422C833.552 610.314 672.565 771.549 473.986 771.549C275.404 771.549 114.42 610.314 114.42 411.422C114.42 212.523 275.404 51.2878 473.986 51.2878C672.565 51.2878 833.552 212.523 833.552 411.422ZM731.215 582.531C741.403 588.958 750.338 591.067 756.521 591.524C757.975 589.241 759.4 586.938 760.807 584.625C754.043 583.632 745.434 580.765 736.053 574.851C725.697 568.324 718.948 560.908 715.334 554.838L715.169 555.106C713.85 557.311 712.505 559.506 711.135 561.678C714 567.253 719.887 575.316 731.215 582.531ZM741.44 553.298L763.38 580.281C765.327 576.934 767.22 573.553 769.058 570.139L769.698 568.871L760.27 560.019C757.387 557.397 755.099 555.217 752.49 552.952L752.56 552.833C756.13 553.544 758.958 554.091 762.945 554.708L775.698 556.973L776.93 554.541C778.439 551.346 779.893 548.125 781.307 544.874L746.223 542.542L727.082 532.891C725.387 536.428 723.611 539.924 721.78 543.375L741.44 553.298ZM772.756 534.204L784.128 538.18C785.02 536 785.882 533.81 786.723 531.612L793.315 512.737C794.064 510.375 794.792 507.998 795.486 505.618L784.132 501.65L780.43 512.257L740.866 498.433C739.649 502.189 738.352 505.912 736.978 509.598L776.531 523.418L772.756 534.204ZM745.057 484.27L797.73 497.276L800.569 485.806L747.86 472.792C747.009 476.646 746.07 480.469 745.057 484.27ZM800.492 473.622C802.491 470.959 804.212 467.452 804.972 462.222C806.576 451.24 801.095 444.523 791.707 443.095C783.832 441.893 778.157 445.981 773.929 452.865C771.163 457.466 769.387 459.176 766.785 458.778C764.103 458.366 762.726 456.179 763.31 452.173C763.942 447.844 766.234 443.768 768.269 441.373L756.85 437.389C754.913 439.599 752.435 444.441 751.671 449.674C749.819 462.394 756.842 469.479 765.989 470.873C773.396 472.004 779.042 469.233 783.65 461.94C786.971 456.833 788.411 454.68 791.093 455.085C793.454 455.442 794.755 457.622 794.232 461.177C793.593 465.57 791.623 468.571 790.322 470.289L800.492 473.622ZM804.793 430.059C806.85 427.924 808.674 426.176 808.718 421.594C808.765 417.678 808.835 417.343 808.857 415.212C808.901 411.4 808.871 407.599 808.784 403.812C808.667 402.775 808.531 401.83 808.378 400.986L754.346 400.078C754.5 403.965 754.573 407.863 754.573 411.779L774.554 412.114L774.525 414.007C774.459 417.663 773.045 419.273 766.416 420.341C760.339 421.404 756.305 422.341 754.332 422.977C754.167 427.095 753.912 431.186 753.575 435.255C755.804 434.44 763.723 433.149 769.321 431.885C774.076 430.851 777.613 429.345 779.213 426.429L779.542 426.436C781.033 429.921 785.861 434.12 792.716 434.232C798.099 434.321 802.052 432.822 804.793 430.059ZM798.406 416.499C798.252 420.415 795.932 422.531 791.769 422.457C787.691 422.394 784.954 419.798 785.035 415.357L785.086 412.285L798.146 412.508C798.296 413.096 798.442 414.278 798.406 416.499ZM796.483 389.702L808.097 388.385C807.855 384.863 807.559 381.363 807.212 377.882L806.101 368.145C805.758 365.404 805.363 362.671 804.947 359.948L750.919 366.1C752.483 375.725 753.561 385.514 754.124 395.44L765.843 394.109L763.844 376.525L773.9 375.383L775.684 391.082L787.527 389.739L785.747 374.036L794.58 373.025L796.483 389.702ZM748.226 351.818L803.755 352.759C803.028 348.679 802.232 344.618 801.366 340.59L778.998 341.148C772.983 341.274 766.493 341.579 759.652 342.107L759.616 341.984C766.27 339.281 771.858 336.707 777.467 333.858L797.393 324.221L797.167 323.307C796.122 319.483 795.014 315.686 793.845 311.911L744.845 337.934C746.084 342.52 747.21 347.147 748.226 351.818ZM740.818 324.4L792.106 306.511C790.874 302.758 789.581 299.035 788.218 295.346L736.908 313.239C738.286 316.928 739.594 320.644 740.818 324.4ZM735.132 308.597L784.322 285.322C782.977 281.997 781.57 278.691 780.112 275.418L768.346 280.967C760.884 284.493 754.058 288.011 747.776 291.705L747.688 291.53C752.68 287 758.235 281.559 762.148 277.036L774.503 263.435C772.446 259.277 770.312 255.156 768.097 251.095L718.908 274.366C720.662 277.501 722.35 280.673 723.998 283.887L735.6 278.39C743.643 274.585 751.116 270.91 757.716 267.492L757.807 267.671C752.644 272.42 747.232 278.163 742.985 282.92L730.199 296.856C731.924 300.724 733.579 304.636 735.132 308.597ZM738.41 257.157L762.408 241.086C760.431 237.724 758.377 234.406 756.283 231.126L756.21 231.015L730.265 248.316C722.997 253.162 718.129 253.661 715.52 249.748C712.94 245.891 715.619 241.361 722.544 236.742L748.47 219.448C746.216 216.216 743.895 213.028 741.52 209.878L717.914 225.689C703.176 235.519 699.833 245.363 706.534 255.416C713.386 265.681 724.283 266.578 738.41 257.157ZM710.876 194.101L720.355 187.879C719.712 185.287 717.431 181.188 713.211 177.001C703.063 166.922 688.621 165.345 675.115 178.868C669.535 184.487 666.63 190.133 666.1 196.508C665.596 202.674 667.869 208.729 674.037 214.843C678.115 218.894 683.739 221.943 687.032 223.256L707.631 202.845L695.389 190.698L687.335 198.817L691.512 202.949L684.843 209.677C684.298 209.484 683.019 208.554 681.901 207.446C676.752 202.336 677.198 194.384 684.437 187.083C692.316 179.143 699.917 180.009 705.073 185.116C708.639 188.66 710.035 191.427 710.876 194.101ZM653.818 195.887L685.822 151.881C683.041 149.601 680.228 147.366 677.37 145.183L669.798 155.593C664.949 162.261 660.644 168.617 656.895 174.884L656.745 174.765C658.949 168.398 661.211 160.956 662.472 155.113L666.751 137.369C662.961 134.687 659.113 132.091 655.211 129.57L623.203 173.571C626.254 175.494 629.255 177.473 632.222 179.504L639.837 169.03C645.07 161.837 649.861 155.024 654.016 148.865L654.169 148.976C651.933 155.619 649.93 163.258 648.483 169.465L643.915 187.965C647.281 190.531 650.577 193.172 653.818 195.887ZM621.347 171.909L634.937 117.467C630.307 114.92 625.611 112.472 620.85 110.144L584.45 152.714C588.243 154.343 591.985 156.043 595.69 157.828L603.339 148.207L613.421 153.443L610.223 165.371C613.984 167.472 617.696 169.648 621.347 171.909ZM622.856 122.656C621.935 125.854 620.616 130.228 619.768 133.285L617.017 142.988L609.767 139.221L615.96 131.403C617.97 128.948 620.66 125.192 622.739 122.596L622.856 122.656ZM585.166 129.715L609.869 105.012C605.889 103.238 601.873 101.542 597.817 99.9163L589.92 110.297C587.604 113.428 585.678 115.931 583.69 118.758L583.566 118.713C583.898 115.08 584.161 112.205 584.37 108.177L585.312 95.2562L583.873 94.7057C580.175 93.4189 576.458 92.1953 572.702 91.0349L573.984 126.059L566.332 146.124C570.038 147.414 573.71 148.787 577.339 150.237L585.166 129.715ZM553.086 141.854L567.421 89.4505C563.643 88.3496 559.842 87.3232 556.013 86.345L541.677 138.756C545.51 139.708 549.318 140.746 553.086 141.854ZM543.665 95.498L545.7 83.9126C543.121 83.3473 540.526 82.8118 537.924 82.306L526.271 80.253C523.362 79.7918 520.45 79.3715 517.523 78.9885L508.091 132.538C517.947 133.746 527.648 135.461 537.16 137.666L539.189 126.133L521.762 123.065L523.516 113.09L539.083 115.835L541.147 104.093L525.587 101.356L527.13 92.5933L543.665 95.498ZM503.889 108.084C506.801 105.146 508.577 100.337 508.884 94.7876C509.191 89.1716 507.441 84.1618 504.598 81.2236C501.692 78.1218 497.706 76.9168 491.38 76.5709C484.664 76.199 479.573 75.9945 476.339 76.4668L473.347 130.421H473.5C477.366 130.421 481.218 130.507 485.047 130.663L486.045 112.655C486.754 112.777 487.792 112.915 488.903 112.982C494.837 113.309 500.085 111.881 503.889 108.084ZM497.253 94.4752C496.997 99.1986 493.96 101.977 489.327 101.724C488.091 101.65 487.313 101.523 486.67 101.411L487.445 87.3901C488.04 87.2562 489.217 87.1632 490.978 87.2562C495.414 87.5054 497.483 90.3952 497.253 94.4752ZM469.82 130.351C466.356 124.125 463.213 114.734 462.702 102.497C462.23 91.3547 464.068 82.5365 466.561 76.1953C463.824 76.2511 461.105 76.3404 458.386 76.4557C455.744 82.0642 453.252 90.8899 453.701 102.873C454.264 116.281 458.368 125.482 461.788 130.667C462.778 130.63 463.78 130.589 464.781 130.559L469.82 130.351ZM424.91 112.272L433.186 78.4974C429.339 78.9623 425.505 79.4868 421.672 80.0819L420.28 80.3348L418.906 93.2032C418.548 97.0861 418.193 100.221 417.963 103.662L417.831 103.688C416.234 100.411 414.966 97.8188 413.055 94.2669L407.165 82.7336L404.482 83.2209C401.022 83.9461 397.572 84.7234 394.134 85.5565L413.443 114.942L417.294 136.037C421.142 135.253 424.997 134.553 428.864 133.94L424.91 112.272ZM392.752 142.2L379.904 102.315L390.783 98.8117L387.096 87.3529C384.819 87.9554 382.553 88.5914 380.291 89.2422L361.253 95.3715C358.925 96.2009 356.597 97.0601 354.273 97.9378L357.96 109.385L368.653 105.941L381.501 145.834C385.232 144.536 388.978 143.331 392.752 142.2ZM367.681 151.037L346.263 101.181L335.403 105.845L356.828 155.73C360.423 154.087 364.037 152.517 367.681 151.037ZM319.591 125.75C323.479 123.611 327.06 123.373 329.216 123.373L325.745 113.253C322.408 113.268 318.579 114.008 313.945 116.564C304.221 121.904 302.171 130.332 306.688 138.674C310.485 145.685 317.172 147.738 325.215 146.957C330.55 146.392 332.984 146.778 334.237 149.088C335.527 151.479 334.606 153.893 331.065 155.842C327.232 157.947 322.602 158.587 319.459 158.405L323.176 169.923C326.11 170.124 331.46 169.183 336.093 166.635C347.363 160.432 348.77 150.561 344.367 142.427C340.796 135.84 335.18 133.01 326.589 133.735C320.512 134.167 317.921 134.319 316.624 131.935C315.487 129.834 316.445 127.483 319.591 125.75ZM300.753 158.438C302.632 155.139 303.063 148.757 299.014 143.219C295.838 138.868 292.261 136.629 288.406 136.112C285.46 135.755 282.972 135.353 279.281 138.083C276.135 140.411 275.828 140.556 274.114 141.824C271.044 144.089 268.03 146.41 265.062 148.757C264.302 149.486 263.63 150.163 263.056 150.791L294.939 194.425C297.936 191.959 301.009 189.553 304.133 187.187L292.341 171.05L293.869 169.934C296.818 167.777 298.955 167.933 303.805 172.582C308.321 176.777 311.511 179.433 313.203 180.616C316.583 178.269 320 176 323.446 173.817C321.451 172.538 315.648 166.992 311.256 163.295C307.572 160.123 304.232 158.211 300.947 158.698L300.753 158.438ZM288.603 160.736L286.125 162.548L278.415 152.004C278.799 151.524 279.646 150.695 281.441 149.389C284.656 147.139 287.744 147.716 290.2 151.078C292.608 154.373 292.188 158.111 288.603 160.736ZM249.079 178.659L261.236 167.085L253.179 158.624C250.518 160.937 247.898 163.28 245.333 165.661L238.237 172.422C236.263 174.352 234.316 176.313 232.401 178.287L269.897 217.663C276.632 210.604 283.794 203.838 291.373 197.404L283.235 188.861L270.423 201.064L263.436 193.737L274.885 182.836L266.667 174.207L255.218 185.108L249.079 178.659ZM260.144 228.43L227.394 183.576C224.57 186.618 221.814 189.702 219.121 192.826L233.066 210.325C236.797 215.048 240.952 220.032 245.505 225.172L245.421 225.276C239.252 221.601 233.826 218.697 228.169 215.941L208.469 205.873L207.877 206.602C205.454 209.741 203.09 212.921 200.792 216.127L251.107 239.502C254.016 235.745 257.027 232.056 260.144 228.43ZM242.746 250.879L197.525 220.768C195.281 224.015 193.096 227.295 190.98 230.609L236.208 260.723C238.31 257.406 240.488 254.118 242.746 250.879ZM233.577 264.941L185.327 239.758C183.496 242.842 181.709 245.962 179.973 249.097L191.502 255.137C198.818 258.957 205.736 262.278 212.478 265.056L212.39 265.231C205.769 263.982 198.069 262.84 192.105 262.449L173.805 260.802C171.722 264.949 169.731 269.133 167.827 273.354L216.07 298.544C217.506 295.249 219.019 291.983 220.59 288.74L209.204 282.801C201.314 278.68 193.874 274.942 187.169 271.736L187.256 271.561C194.159 272.807 202.001 273.659 208.363 274.18L227.186 275.969C229.229 272.253 231.359 268.578 233.577 264.941ZM190.574 293.371L163.274 283.928C161.797 287.532 160.383 291.173 159.031 294.825L158.987 294.948L188.437 305.201C196.684 308.069 200.028 311.651 198.482 316.095C196.955 320.476 191.733 321.075 183.869 318.338L154.434 308.095C153.224 311.851 152.073 315.623 150.995 319.416L177.847 328.707C194.579 334.524 204.449 331.251 208.422 319.84C212.474 308.181 206.613 298.95 190.574 293.371ZM199.059 350.527L145.276 342.278C144.538 345.782 143.855 349.311 143.23 352.863L156.02 354.827C164.176 356.08 171.799 356.984 179.078 357.441L179.045 357.635C172.38 358.591 164.728 359.996 158.958 361.555L141.198 365.895C140.577 370.477 140.047 375.089 139.612 379.727L193.403 387.987C193.699 384.387 194.06 380.809 194.495 377.25L181.705 375.286C172.91 373.936 164.658 372.802 157.277 371.931L157.306 371.738C164.242 370.689 171.934 368.967 178.124 367.401L196.6 362.994C197.327 358.806 198.146 354.652 199.059 350.527ZM192.953 394.176L138.684 391.959C138.458 395.879 138.3 399.814 138.213 403.764L192.482 405.988C192.559 402.031 192.712 398.096 192.953 394.176ZM171.181 412.634L138.132 413.925C138.162 417.878 138.257 421.821 138.421 425.741L171.623 424.443C179.053 424.156 181.227 426.555 181.366 430.341C181.439 432.235 181.106 434.072 180.679 435.53L192.314 436.381C193.11 434.131 193.395 430.914 193.3 428.5C192.906 417.93 186.843 412.021 171.181 412.634ZM193.691 438.338L140.003 447.215C140.38 450.801 140.815 454.375 141.308 457.923L154.05 455.814C162.188 454.472 169.712 452.958 176.78 451.136L176.809 451.325C170.765 454.308 163.931 458.02 158.932 461.296L143.398 470.951L143.628 472.35C144.381 476.46 145.211 480.543 146.11 484.601L199.798 475.723C198.983 472.235 198.23 468.712 197.547 465.172L184.826 467.277C176.045 468.727 167.852 470.215 160.566 471.688L160.533 471.491C166.796 468.341 173.579 464.305 178.972 460.895L195.171 450.953C194.587 446.777 194.093 442.57 193.691 438.338ZM200.678 479.379L152.526 509.04C154.058 514.083 155.698 519.074 157.463 524.01L213.665 518.877C212.094 515.08 210.603 511.238 209.196 507.355L197.039 508.887L193.49 498.09L204.069 491.831C202.845 487.718 201.712 483.567 200.678 479.379ZM186.156 510.814L176.253 512.071C173.1 512.417 168.561 513.224 165.254 513.622L165.21 513.499C168.108 511.855 172.109 509.65 174.857 508.065L183.606 503.056L186.156 510.814ZM214.857 521.722L165.36 544.104C166.917 547.723 168.547 551.316 170.224 554.875L219.728 532.497C218.036 528.941 216.413 525.352 214.857 521.722ZM183.781 555.322L173.312 561.22C178.468 571.541 184.143 581.549 190.3 591.234L200.726 585.358L195.208 575.573L231.743 554.957C229.73 551.569 227.789 548.143 225.914 544.673L189.394 565.274L183.781 555.322ZM259.106 647C256.774 648.674 262.219 656.443 267.416 659.232C270.785 661.044 275.597 660.3 279.197 659.794C284.17 659.095 289.356 658.332 293.642 655.517C297.194 653.181 300.523 650.425 303.779 647.707C305.347 646.394 306.907 645.088 308.434 643.734C312.144 640.465 317.15 636.508 317.15 636.508C317.15 636.508 309.399 651.861 306.425 659.247C303.45 666.634 302.434 677.535 304.769 680.77C307.104 684.002 313.857 683.824 315.111 684.263C316.36 684.701 322.945 686.87 326.366 688.071C329.79 689.257 330.744 686.669 329.264 685.609C327.791 684.542 327.352 684.181 324.418 682.213C321.48 680.25 317.537 677.006 317.314 676.385C317.088 675.768 317.15 672.294 317.303 669.78C317.457 667.27 317.72 654.423 318.367 650.41C319.017 646.397 321.915 636.601 321.915 636.601C321.915 636.601 326.333 636.404 332.885 637.535C339.448 638.658 340.873 637.631 341.768 636.895C342.664 636.166 343.614 635.184 340.972 634.481C338.319 633.771 334.007 630.092 333.649 629.802C333.305 629.512 332.655 628.69 331.365 628.657C330.068 628.623 329.198 627.333 329.198 627.333C329.198 627.333 328.891 626.481 329.611 625.607C330.331 624.729 330.027 621.694 330.027 621.694C331.295 623.907 338.476 624.811 341.513 624.514C344.546 624.212 350.414 624.03 352.79 623.636C355.165 623.242 356.064 625.008 359.437 623.219C361.6 622.081 360.083 623.104 362.199 621.735C364.315 620.363 363.858 619.708 363.193 618.451C362.528 617.198 360.368 616.558 358.552 615.495C356.743 614.427 354.365 613.189 353.298 612.597C352.227 612.006 352.735 612.419 349.585 611.95C346.428 611.489 342.543 609.856 338.626 608.767C334.716 607.68 333.068 606.754 332.224 606.055C331.383 605.367 330.912 604.556 328.737 605.315C327.312 605.813 327.36 607.316 327.542 608.558C327.758 610.076 327.612 611.024 327.521 612.538C327.44 613.784 328.339 614.799 328.098 616.097C328.098 616.097 327.32 615.32 325.982 614.364C324.648 613.408 323.526 615.461 322.697 616.476C321.867 617.484 319.386 620.687 318.305 621.49C317.219 622.293 316.127 623.8 315.016 625.153C313.908 626.5 310.181 629.62 310.181 629.62C307.868 629.929 291.194 627.545 288.329 627.102C285.46 626.66 283.319 621.233 283.319 621.233C280.001 622.464 278.437 628.798 278.612 631.937C278.715 633.808 279.255 635.995 280.103 637.672C281.51 640.436 286.173 642.072 290.942 641.269C295.699 640.48 302.942 637.91 302.942 637.91C299.913 642.325 297.333 644.75 286.473 650.663C275.612 656.573 270.873 652.687 267.668 651.229C264.463 649.771 260.538 645.966 259.106 647ZM323.801 631.506C324.583 630.029 326.622 629.252 326.622 629.252L327.316 628.951C329.311 629.46 329.019 632.026 328.493 631.818C328.083 631.662 323.801 631.506 323.801 631.506ZM326.366 498.139C372.91 580.917 446.755 618.355 465.216 627.009L473.5 630.29L481.784 627.009C500.245 618.355 574.087 580.917 620.653 498.139C641.069 461.579 648.812 422.453 649.81 386.198L649.832 385.443H649.846L650.288 369.425C650.288 369.425 629.909 363.169 623.828 359.111C614.521 352.911 611.948 345.585 616.465 336.112C620.773 327.063 645.308 319.453 645.308 319.453L641.2 300.82C640.93 299.615 640.656 298.414 640.378 297.22H640.371C630.27 253.441 616.03 223.792 615.526 222.724L607.26 205.519L590.14 211.563C579.656 215.286 569.296 216.8 559.283 216.8C521.173 217.138 487.313 185.99 485.789 184.61L473.5 175.16L461.193 184.61H461.214C459.687 185.99 425.831 217.138 387.72 216.8C377.701 216.8 367.359 215.286 356.849 211.563L339.74 205.519L331.467 222.724C330.956 223.814 315.94 255.074 305.803 300.82L301.7 319.453C301.7 319.453 326.227 327.063 330.543 336.112C335.056 345.585 332.483 352.911 323.183 359.111C317.099 363.169 296.719 369.425 296.719 369.425L297.179 386.198C298.195 422.453 305.931 461.579 326.366 498.139ZM336.426 491.612C317.256 457.295 309.896 420.448 308.924 385.815L308.72 378.369L315.268 375.937C324.9 372.378 332.731 367.048 337.84 361.209C342.993 355.333 345.379 349.311 345.382 343.379C345.382 343.03 345.379 342.687 345.353 342.379C345.097 337.339 343.19 332.526 339.389 327.792C335.593 323.106 329.867 318.706 322.668 315.392L315.429 312.03L317.248 303.736C327.035 259.485 341.681 229.032 341.9 228.549L345.587 220.891L353.188 223.591C364.984 227.775 376.593 229.445 387.753 229.445H388.02C429.536 229.445 464.237 197.817 467.763 195.113L468.033 194.909L473.5 190.739L478.963 194.909L479.263 195.113C482.767 197.821 517.621 229.594 559.269 229.445C570.407 229.445 582.009 227.775 593.823 223.591L601.413 220.891L605.1 228.549C605.316 229.006 618.57 256.569 628.283 297.332C628.502 298.224 628.71 299.121 628.922 300.024C629.002 300.378 629.083 300.735 629.167 301.088C629.284 301.62 629.401 302.148 629.521 302.684C629.605 303.033 629.682 303.383 629.755 303.736L630.603 307.593L631.571 312.03L624.332 315.392C617.137 318.706 611.415 323.106 607.622 327.792C603.817 332.526 601.91 337.339 601.658 342.379C601.636 342.687 601.621 343.03 601.621 343.379C601.636 349.311 604.015 355.333 609.164 361.209C614.276 367.048 622.111 372.378 631.739 375.937L638.284 378.369L638.127 384.473L638.083 385.815C637.097 420.448 629.755 457.295 610.563 491.612C566.303 570.634 494.468 607.357 477.183 615.372L473.5 616.573L469.82 615.372C452.539 607.357 380.704 570.634 336.426 491.612ZM318.323 385.507C319.262 418.845 326.307 453.847 344.487 486.401C386.938 562.425 457.177 598.568 473.507 606.063C473.507 606.063 549.826 580.727 602.476 486.401C620.674 453.847 627.716 418.845 628.677 385.507C606.353 377.257 591.327 360.484 592.237 341.85C592.95 326.665 604.091 313.718 620.59 306.098C611.086 263.033 596.728 233.209 596.728 233.209C532.523 255.929 473.507 203.143 473.507 203.143C473.507 203.143 414.429 255.929 350.254 233.209C350.254 233.209 335.896 263.033 326.395 306.098C342.872 313.718 354.021 326.665 354.741 341.85C355.596 360.484 340.588 377.257 318.323 385.507ZM490.693 302.71C490.693 309.423 489.922 315.526 488.895 321.443C488.446 324.021 486.202 325.839 483.677 325.839L482.753 325.758C479.866 325.255 477.929 322.507 478.433 319.621C479.405 314.027 480.074 308.616 480.074 302.71C480.067 293.88 478.598 283.835 474.085 270.412C473.149 267.63 474.647 264.618 477.417 263.684C480.195 262.747 483.209 264.242 484.145 267.024C488.957 281.287 490.697 292.645 490.693 302.71ZM507.989 301.962C507.989 307.85 507.367 313.276 506.49 318.691C505.613 324.11 504.492 329.521 503.439 335.52C501.678 345.614 500.07 357.672 500.07 374.825C500.07 392.023 501.7 414.327 506.534 444.59C506.995 447.487 505.025 450.209 502.127 450.674L501.294 450.741C498.729 450.741 496.467 448.874 496.054 446.267C491.154 415.573 489.454 392.703 489.454 374.825C489.454 357.017 491.154 344.145 492.988 333.691C494.077 327.494 495.184 322.098 496.01 316.999C496.84 311.892 497.373 307.095 497.373 301.962C497.366 293.453 495.908 283.876 491.38 270.412C490.445 267.63 491.943 264.618 494.72 263.684C497.497 262.747 500.505 264.242 501.448 267.024C506.246 281.25 507.996 292.166 507.989 301.962ZM525.292 302.71C525.292 309.423 524.52 315.526 523.494 321.443C523.037 324.021 520.797 325.839 518.268 325.839L517.347 325.758C514.464 325.255 512.527 322.507 513.028 319.621C514.004 314.027 514.672 308.616 514.672 302.71C514.665 293.88 513.2 283.835 508.679 270.412C507.744 267.63 509.246 264.618 512.019 263.684C514.797 262.747 517.804 264.242 518.739 267.024C523.552 281.287 525.299 292.645 525.292 302.71ZM556.345 450.987C553.415 450.987 551.036 448.606 551.036 445.683V380.344H534.314C531.314 380.344 528.873 377.971 528.873 375.037C528.873 372.106 531.314 369.73 534.314 369.73H551.036V349.099H534.314C531.314 349.099 528.873 346.719 528.873 343.784C528.873 340.854 531.314 338.481 534.314 338.481H551.036V317.743H534.314C531.314 317.743 528.873 315.366 528.873 312.435C528.873 309.505 531.314 307.124 534.314 307.124H540.895C541.016 305.41 541.096 303.68 541.096 301.91C541.092 293.59 539.642 284.151 535.103 270.55C534.168 267.749 535.662 264.71 538.439 263.77C541.224 262.825 544.231 264.327 545.163 267.132C549.954 281.466 551.715 292.259 551.715 301.91C551.715 303.691 551.642 305.421 551.533 307.124H560.825C560.716 305.421 560.65 303.691 560.65 301.91C560.643 292.259 562.4 281.466 567.191 267.132C568.13 264.327 571.145 262.825 573.918 263.77C576.696 264.71 578.194 267.749 577.255 270.55C572.724 284.151 571.269 293.59 571.269 301.91C571.269 303.68 571.339 305.41 571.463 307.124H578.051C581.052 307.124 583.485 309.505 583.485 312.435C583.485 315.366 581.052 317.743 578.051 317.743H561.651V338.481H578.051C581.052 338.481 583.485 340.854 583.485 343.784C583.485 346.719 581.052 349.099 578.051 349.099H561.651V369.73H578.051C581.052 369.73 583.485 372.106 583.485 375.037C583.485 377.971 581.052 380.344 578.051 380.344H561.651V445.683C561.651 448.606 559.283 450.987 556.345 450.987ZM518.396 530.388C519.185 528.011 521.893 526.706 524.396 527.446C526.11 527.959 528.431 528.19 531.16 528.35C531.602 528.38 532.074 528.38 532.531 528.38C535.9 528.406 539.455 527.61 541.889 526.245C544.345 524.82 545.616 523.281 545.96 520.93C546.011 520.476 546.04 520.045 546.04 519.662C545.909 516.46 544.677 515.269 541.973 513.793C539.302 512.469 535.264 511.9 532.384 511.911C531.083 511.911 529.987 512.03 529.6 512.116V512.104C528.131 512.629 526.465 512.443 525.167 511.61C523.855 510.754 523.066 509.382 523.095 507.861L523.311 488.926C523.377 486.483 525.5 484.478 528.116 484.478H547.027C549.673 484.478 551.818 486.494 551.818 488.964C551.818 491.452 549.673 493.445 547.027 493.445H532.859L532.728 502.94C536.671 503.004 541.692 503.617 546.38 505.83C551.178 507.995 555.739 512.919 555.629 519.662C555.629 520.421 555.578 521.216 555.49 522.031C554.789 527.483 551.079 531.63 546.757 533.958C542.434 536.339 537.372 537.328 532.531 537.358C531.865 537.358 531.211 537.328 530.532 537.306C527.674 537.109 524.656 536.897 521.55 535.989C518.999 535.256 517.607 532.735 518.396 530.388ZM515.765 432.324C513.138 432.324 510.854 430.371 510.506 427.697C507.766 406.527 506.75 389.021 506.75 374.646C506.75 364.913 507.214 356.616 507.934 349.594H507.941C508.23 346.678 510.839 344.554 513.751 344.856C516.675 345.153 518.794 347.757 518.491 350.672C517.815 357.319 517.362 365.252 517.362 374.646C517.362 388.519 518.348 405.572 521.038 426.332C521.411 429.244 519.361 431.904 516.456 432.279L515.765 432.324ZM474.428 498.775C474.541 489.57 483.326 483.106 493.163 483.091C500.808 483.098 507.795 487.033 510.583 493.103L511.088 493.899C511.252 494.286 512.849 497.841 512.849 503.312C512.984 512.16 508.113 525.873 488.183 536.722C487.426 537.138 486.575 537.358 485.749 537.358C484.119 537.358 482.515 536.573 481.609 535.163C480.279 533.018 481.028 530.28 483.304 529.008C493.163 523.467 498.221 517.944 500.75 513.086C498.415 513.971 495.82 514.448 493.163 514.474C483.326 514.448 474.541 507.995 474.428 498.775ZM472.152 374.646C472.152 364.913 472.616 356.616 473.336 349.594C473.632 346.678 476.241 344.554 479.153 344.856C482.077 345.153 484.196 347.757 483.9 350.672C483.217 357.319 482.767 365.252 482.767 374.646C482.767 388.519 483.746 405.572 486.44 426.332C486.812 429.244 484.762 431.904 481.857 432.279L481.167 432.324C478.536 432.324 476.259 430.371 475.912 427.697C473.167 406.527 472.152 389.021 472.152 374.646ZM425.348 521.436C425.348 516.698 427.976 512.551 431.659 509.825L431.871 509.702C428.443 507.009 426.075 503.041 426.075 498.544C426.075 493.914 428.553 489.856 432.112 487.156C435.712 484.411 440.418 482.86 445.534 482.86C450.635 482.86 455.368 484.411 458.938 487.156C462.523 489.856 465.008 493.914 465.008 498.544C465.008 503.041 462.632 507.009 459.212 509.691L459.409 509.825C463.107 512.551 465.738 516.698 465.738 521.436C465.738 526.167 463.107 530.325 459.409 533.032C455.678 535.785 450.829 537.332 445.534 537.358C440.243 537.332 435.39 535.785 431.659 533.032C427.976 530.325 425.348 526.167 425.348 521.436ZM425.911 266.369L425.922 266.373C427.095 263.68 430.219 262.464 432.905 263.647C435.584 264.826 436.797 267.95 435.627 270.635L435.624 270.643L435.617 270.661L435.543 270.843C435.474 271.015 435.361 271.282 435.218 271.662C434.93 272.413 434.506 273.577 433.987 275.158C432.956 278.312 431.564 283.106 430.19 289.536C429.905 290.875 429.616 292.3 429.339 293.787C431.378 295.677 433.176 297.89 434.798 300.322C437.129 303.837 439.103 307.82 440.842 312.075C444.31 320.588 446.828 330.232 448.699 339.377C452.441 357.65 453.581 373.921 453.595 374.077C453.815 377.172 451.618 379.872 448.699 380.099L448.3 380.117C445.552 380.117 443.221 377.871 443.016 374.914L442.998 374.635C442.98 374.442 442.958 374.148 442.929 373.758C442.863 372.976 442.761 371.838 442.618 370.392C442.329 367.498 441.873 363.388 441.2 358.579C439.866 348.973 437.645 336.528 434.272 325.516C432.269 318.955 429.825 312.911 427.106 308.355C425.801 319.134 424.961 332.184 425.224 347.522C425.681 373.285 429.244 405.453 438.997 443.898C439.713 446.739 437.999 449.633 435.16 450.351C434.754 450.455 434.345 450.507 433.943 450.514C431.535 450.559 429.335 448.941 428.71 446.509C418.771 407.294 415.087 374.304 414.619 347.712C413.691 294.524 425.64 266.968 425.911 266.369ZM404.227 488.123C404.227 485.653 406.39 483.645 409.021 483.645C411.663 483.645 413.826 485.653 413.826 488.123V532.869C413.826 535.361 411.663 537.358 409.021 537.358C406.39 537.358 404.227 535.361 404.227 532.869V488.123ZM363.526 374.077C363.533 373.981 364.026 366.925 365.419 356.936C366.818 346.942 369.098 334.022 372.76 322.042C375.216 314.053 378.252 306.473 382.327 300.322C383.942 297.89 385.74 295.677 387.775 293.787C384.921 278.71 381.618 270.936 381.494 270.643C380.317 267.957 381.534 264.826 384.216 263.647C386.895 262.464 390.023 263.68 391.203 266.373C391.473 266.968 403.426 294.524 402.498 347.712C402.03 374.304 398.351 407.294 388.404 446.509C387.79 448.945 385.579 450.559 383.178 450.514C382.773 450.507 382.367 450.455 381.958 450.351C379.122 449.633 377.405 446.739 378.121 443.898C387.87 405.453 391.44 373.285 391.89 347.522C392.157 332.188 391.32 319.13 390.015 308.355C388.817 310.36 387.666 312.655 386.591 315.158C383.653 321.968 381.289 330.287 379.48 338.492C375.844 354.905 374.419 370.845 374.149 374.245C374.123 374.702 374.105 374.914 374.105 374.914C373.896 377.871 371.569 380.117 368.817 380.117L368.415 380.099C365.499 379.872 363.31 377.172 363.526 374.077ZM434.948 521.436C434.948 523.005 435.763 524.586 437.623 526.022C439.483 527.405 442.326 528.402 445.534 528.402C448.757 528.402 451.6 527.405 453.457 526.022C455.32 524.586 456.15 523.005 456.15 521.436C456.15 519.848 455.32 518.263 453.457 516.846C451.6 515.455 448.757 514.462 445.534 514.462H445.498C442.311 514.462 439.483 515.455 437.623 516.846C435.763 518.263 434.948 519.848 434.948 521.436ZM452.886 503.004C454.648 501.642 455.419 500.106 455.419 498.544C455.419 496.967 454.648 495.435 452.897 494.081C451.151 492.75 448.538 491.82 445.534 491.82H445.52C442.53 491.82 439.91 492.75 438.196 494.081C436.439 495.435 435.664 496.967 435.664 498.544C435.664 500.106 436.439 501.642 438.196 503.004C439.91 504.316 442.556 505.261 445.534 505.261C448.538 505.261 451.151 504.316 452.886 503.004ZM486.414 494.237C484.799 495.576 484.006 497.127 483.984 498.775C484.006 500.434 484.799 501.97 486.414 503.301C488.022 504.595 490.408 505.499 493.163 505.499C495.868 505.499 498.265 504.595 499.902 503.301C501.517 501.97 502.31 500.434 502.317 498.775C502.31 497.127 501.517 495.576 499.902 494.237C498.265 492.962 495.868 492.054 493.163 492.054H493.142C490.394 492.054 488.022 492.962 486.414 494.237ZM382.648 716.036C382.433 718.096 380.85 722.41 384.41 722.507C387.815 722.596 387.702 721.581 389.624 718.174C391.123 715.515 392.749 714.113 394.082 711.182C395.405 708.251 395.994 708.359 396.308 707.418C396.615 706.477 396.589 705.161 397.291 702.505C397.996 699.857 399.133 695.636 399.502 694.118C399.878 692.605 400.423 691.441 401.161 689.57C401.892 687.695 403.646 686.948 405.031 686.702C405.498 686.617 409.207 686.996 409.679 687.045L409.843 687.55C410.011 687.803 409.248 687.718 414.966 689.767C415.127 689.83 414.857 691.017 414.82 691.56C414.725 692.627 414.744 693.765 414.437 694.799C414.437 694.799 411.396 695.253 411.206 696.183C411.009 697.109 410.665 697.856 411.802 698.37C412.931 698.875 413.603 699.519 413.603 699.519C413.603 699.519 413.724 700.601 413.388 702.334C413.212 703.223 412.957 703.16 412.909 703.368C412.851 703.673 410.72 703.762 410.351 703.963C409.109 704.644 409.006 706.418 410.424 708.114C410.954 708.746 411.773 708.222 411.988 708.902C412.281 709.854 411.053 711.126 410.834 711.402C410.07 712.361 408.648 713.86 406.781 714.191C404.91 714.518 403.01 715.199 397.945 714.012C397.207 713.845 396.483 714.515 396.037 715.314C396.067 715.883 396.045 716.475 395.661 717.2L395.782 717.39C396.509 718.111 397.543 718.989 398.113 719.997C398.676 720.997 398.077 721.488 400.09 722.046C402.995 722.853 403.737 720.711 406.098 721.432C408.451 722.154 406.141 723.79 405.875 724.761C405.586 725.769 404.212 726.609 403.576 727.409C401.924 729.466 402.476 732.772 403.412 735.011C404.128 736.718 405.699 741.538 408.36 740.449C409.405 740.021 413.249 736.462 414.484 735.108C415.716 733.754 416.333 732.824 416.677 731.608C417.009 730.399 418.018 719.989 418.953 719.461C420.528 718.572 423.269 718.993 425.016 718.81C428.14 718.483 431.341 717.977 434.425 717.404C435.536 717.2 436.629 716.932 437.725 716.683C439.088 716.374 440.341 715.705 441.705 715.359C442.83 715.072 444.398 714.894 445.231 713.983C445.951 713.205 446.594 712.662 446.689 711.844C446.777 711.022 446.272 710.033 445.728 709.43C444.946 708.538 443.334 708.56 442.286 708.129C439.508 706.998 437.115 705.328 434.688 703.602C433.742 702.94 431.652 702.115 431.089 701.077C430.724 701.215 431.089 701.077 430.935 701.654C430.935 701.977 431.341 702.873 432.101 705.213C433.033 708.11 434.264 710.695 433.362 710.948C430.935 711.643 428.356 711.547 425.9 712.194C425.052 712.421 424.438 712.573 423.667 712.811C422.885 713.053 422.553 713.224 421.694 712.99C420.839 712.748 419.933 711.911 419.611 710.777C419.289 709.646 419.359 709.144 420.506 708.873C421.65 708.601 424.42 707.552 424.668 706.184C424.906 704.819 424.376 704.834 423.846 703.904C423.331 702.981 420.78 705.763 422.213 700.884L422.461 700.017L425.399 699.842C425.648 699.772 425.984 699.697 426.485 699.582C427.738 699.296 430.599 698.756 431.776 697.912C432.116 697.663 432.733 696 432.825 695.71C432.942 695.342 433.442 694.65 432.017 693.903C430.592 693.159 430.968 694.025 429.203 694.319C427.446 694.609 423.411 694.669 423.411 694.669C423.411 694.669 423.656 693.401 423.78 692.199L423.941 691.244L423.981 691.117C423.981 691.117 424.478 689.864 427.047 688.038C429.66 686.174 438.964 684.534 442.092 684.136C445.22 683.738 450.519 683.162 451.567 683.091C452.62 683.02 452.777 681.67 452.148 680.123C451.545 678.635 450.387 679.283 449.232 679.461C447.84 679.681 446.459 679.227 445.063 679.294C443.641 679.353 442.22 679.662 440.824 679.881C438.88 680.179 434.992 681.012 433.749 681.094C432.507 681.172 430.658 681.841 429.773 682.016C428.896 682.191 428.977 681.867 429.963 680.566C430.946 679.264 433.391 679.268 434.349 679.294C435.313 679.309 436.899 678.628 438.646 677.866C441.277 676.724 443.415 674.808 445.684 673.105C446.861 672.224 448.162 671.435 449.287 670.509C450.175 669.776 451.092 668.906 451.582 667.846C452.126 666.686 451.659 666.005 451.165 664.919C450.307 663.015 447.04 663.487 445.384 663.431C444.938 663.416 444.321 663.305 443.89 663.465C442.79 663.881 440.937 665.908 439.556 665.005C439.117 664.718 439.859 662.141 440.133 660.597C440.407 659.05 438.902 657.678 437.425 655.911C435.956 654.137 434.148 650.953 431.557 650.28C428.969 649.603 426.978 654.505 426.331 656.25C425.9 657.421 425.622 658.656 425.184 659.835C424.771 660.932 424.098 661.873 423.612 662.929C422.779 664.77 422.863 668.91 420.177 669.241C419.578 669.319 419.348 670.182 418.749 670.777C418.142 671.364 416.143 672.112 416.399 673.105C416.655 674.094 418.84 672.874 419.213 672.912C419.593 672.956 419.885 674.068 419.947 674.314C420.214 675.363 419.315 677.047 419.077 678.07C418.665 679.84 418.555 681.849 417.842 683.537C417.448 684.478 411.974 683.85 410.238 683.932L409.851 684.036L409.843 684.028L409.671 683.694C409.496 683.132 407.399 682.291 407.431 681.715C407.541 680.041 406.134 679.059 405.228 678.795C404.314 678.535 402.867 677.375 402.407 676.936C401.95 676.501 400.233 675.597 399.505 674.734C398.782 673.875 399.805 671.792 399.878 671.067C399.969 670.167 401.197 669.062 401.749 668.419C403.203 666.715 405.82 665.291 408.126 665.455C409.785 665.574 411.177 665.905 412.423 664.484C415.372 661.092 411.7 657.142 408.867 655.376C407.439 654.494 406.832 653.691 406.054 653.241C405.275 652.791 402.794 651.426 401.771 650.704C400.74 649.986 398.804 648.677 397.645 649.302C396.48 649.919 397.455 651.136 399.125 653.65C399.915 654.825 400.331 655.993 400.189 657.406C400.057 658.712 399.951 659.496 400.613 660.694C401.409 662.137 402.14 663.245 401.654 664.953C401.146 666.749 398.818 670.405 398.27 671.03C397.722 671.647 396.856 671.852 396.271 672.428C393.871 674.779 393.805 677.278 394.726 680.298C395.456 682.715 395.292 686.978 395.044 688.9C394.791 690.82 392.782 695.138 392.113 696.387C391.44 697.633 389.986 700.207 388.013 704.633C386.05 709.051 385.48 709.873 384.991 709.821C384.516 709.773 383.237 711.64 382.78 712.369C382.239 713.246 382.762 715.032 382.648 716.036ZM437.243 670.104C438.317 668.78 441.427 668.523 441.427 668.523C441.544 670.1 439.081 671.175 438.763 671.39C438.441 671.602 438.328 672.049 438.09 672.458C437.838 672.871 436.738 673.053 436.738 673.053C436.738 673.053 436.172 671.424 437.243 670.104ZM392.065 701.929C392.138 701.244 393.07 699.716 394.503 696.614C395.942 693.516 398.669 691.244 398.669 691.244C398.566 692.237 398.219 692.281 398.058 693.036C397.894 693.787 393.399 701.523 392.745 702.074C392.087 702.624 391.996 702.613 392.065 701.929ZM524.634 705.726C525.712 712.562 523.691 716.761 520.11 720.25C516.339 723.887 510.751 726.598 505.288 730.076L505.058 730.224L504.996 730.492C504.974 730.686 504.78 731.024 504.912 731.571L505.003 731.924L505.358 732.036C507.612 732.646 510.492 731.85 512.652 731.601C513.441 731.474 514.186 731.318 514.921 731.128C525.873 728.287 531.95 718.249 532.944 709.646C533.159 705.22 533.371 700.832 533.616 696.588C534.763 695.42 535.9 694.271 537.062 693.259L537.091 693.23L537.131 693.192C538.22 691.909 540.245 690.31 542.244 688.573L541.823 688.09L542.258 688.562C545.222 685.769 548.967 682.005 549.786 679.063L549.819 678.963L549.808 678.855L549.757 678.542C549.296 677.14 547.765 676.701 546.084 676.259C544.381 675.857 542.393 675.63 540.873 675.452C540.72 675.444 537.489 675.437 536.313 675.448H536.236L536.156 675.467L535.64 675.943L535.633 676.426C535.83 677.029 536.313 677.587 536.843 678.364C537.35 679.078 537.866 679.904 537.964 680.317L537.986 680.51C537.888 681.745 535.056 684.835 533.437 686.312C532.472 678.966 535.191 672.335 534.197 664.874L534.16 664.636L533.981 664.48C531.697 662.524 524.495 659.887 520.731 660.605L520.457 660.664L520.311 660.913L520.157 661.52L520.15 661.59L520.095 661.683L520.088 661.843C520.037 662.807 520.187 663.762 520.435 664.722C520.958 666.738 521.9 668.761 522.412 670.773C522.602 671.498 522.734 672.22 522.781 672.945C523.34 680.35 524.312 687.61 524.389 694.754C520.877 698.492 516.927 702.171 512.403 705.265C510.675 706.559 508.058 706.957 505.701 708.493L505.372 708.709L505.365 708.716L504.715 708.887L505.011 709.587C506.476 712.774 508.961 717.479 512.823 716.668L513.536 716.415C515.747 715.37 517.621 713.674 519.361 711.513C520.99 709.479 522.704 707.593 524.634 705.726ZM536.313 701.308C535.987 702.197 536.009 703.134 536.251 704.038C537.533 708.783 544.491 713.696 546.917 715.768C547.604 716.285 548.076 716.921 548.916 717.561C549.526 718.052 550.374 718.565 551.485 718.635C552.26 718.68 552.976 718.598 553.652 718.423L553.681 718.416C557.759 717.33 560.076 713.098 561.735 711.346C562.126 710.844 563.157 710.029 564.078 709.17C564.995 708.277 565.927 707.407 566.022 706.221L566.051 705.544L565.368 705.548C564.114 705.559 563.08 705.67 561.903 705.685L561.911 706.329L561.867 705.685C560.961 705.745 560.098 705.905 559.269 706.12C557.485 706.582 555.848 707.262 554.193 707.682C553.1 707.965 551.997 708.14 550.838 708.095C549.749 708.103 548.485 707.723 547.148 707.173C543.727 705.864 540.314 703.149 538.096 700.891L537.836 700.627L536.762 700.902L536.433 700.988L536.313 701.308ZM592.482 624.495L591.872 624.867L592.771 625.406C594.141 626.213 595.606 627.147 596.988 627.972C600.364 630.502 604.694 633.607 607.062 637.43L607.084 637.475C607.49 638.133 607.947 638.78 608.338 639.413C609.065 640.603 609.456 641.629 609.028 642.63L609.014 642.663L608.981 642.682C605.582 642.466 602.432 639.896 597.938 642.626C597.433 642.939 596.911 643.318 596.363 643.775L596.217 643.902L596.169 644.095L596.228 644.832L596.345 644.988L596.454 645.111L596.608 645.166C599.648 646.189 605.224 649.112 607.388 652.136C607.786 652.806 608.115 653.62 608.601 654.405C609.014 655.093 609.576 655.77 610.443 656.231L610.541 656.29L610.651 656.305C611.955 656.502 613.253 656.703 614.55 656.908L614.882 656.96L615.116 656.711C615.694 656.038 615.624 655.212 615.493 654.397C615.014 651.946 613.549 648.581 615.361 646.264C616.611 645.672 617.744 646.1 619.333 645.921L619.465 645.903L619.571 645.832C619.933 645.561 620.024 645.378 620.159 645.308L620.492 645.096L620.459 644.709C620.367 643.727 620.185 642.678 620.101 641.76L620.086 641.652L620.046 641.555C619.746 640.897 619.458 640.019 619.059 639.156L619.578 637.851L622.008 631.93L622.37 631.781C622.819 631.993 623.58 632.514 623.865 633.016L624.033 633.592V633.633V633.678L624.018 633.67L623.382 634.541L623.061 634.909L623.422 635.437L623.572 635.656L623.85 635.701C624.431 635.768 624.972 635.578 625.399 635.444C626.108 636.255 626.675 637.01 627.559 637.758L627.596 637.795L627.647 637.821C628.611 638.308 630.27 638.732 630.256 638.944L630.234 638.948L630.197 639.048L630.186 639.145C630.102 641.071 627.76 645.092 625.933 647.844C625.662 648.391 625.436 648.819 625.206 649.09L625.158 649.142L625.122 649.198C621.255 656.071 617.331 662.807 613.406 669.728C611.988 672.648 606.759 676.824 609.196 681.146L609.47 681.544L609.602 681.711L609.81 681.767C611.955 682.31 614.152 682.656 616.388 682.812C617.82 682.727 619.173 682.009 619.746 682.299L620.185 682.459L620.47 682.072C623.4 678.118 622.326 675.909 622.812 674.481C624.913 668.095 628.198 661.944 632.167 655.863C633.146 654.602 634.06 653.207 635.032 651.958C636.691 649.637 638.328 646.598 640.966 644.999L641.533 644.675L641.566 644.661C641.818 645.163 641.946 645.732 641.99 646.163C642.092 647.662 641.175 649.191 640.846 650.853C640.488 653.546 639.662 656.361 638.814 658.864C638.397 659.883 637.14 661.389 637.155 662.922C637.243 663.442 637.425 663.811 637.619 664.134C637.871 664.54 638.145 664.889 638.328 665.191L638.573 665.778L638.591 665.908L638.606 665.923L638.573 666.02C638.091 667.162 635.606 669.877 634.838 671.041C633.775 673.045 632.635 675.069 631.348 676.832C628.451 680.581 623.623 683.619 622.633 688.198L622.556 688.54L622.812 688.785C623.733 689.592 625.79 690.087 628.151 690.384C630.501 690.63 633.004 690.589 634.604 689.641L635.076 689.298C636.991 687.372 637.707 684.661 638.372 682.779C639.271 680.309 641.796 675.772 644.306 673.276L644.931 672.703C645.615 673.254 646.338 674.184 647.222 674.979C648.004 675.727 648.607 676.456 649.042 677.159C650.036 678.799 650.135 680.238 649.663 681.696C649.097 683.712 647.175 685.743 644.756 687.714C644.474 687.933 644.146 688.157 643.802 688.369C642.647 689.083 641.208 689.719 639.929 690.5C639.417 690.816 638.931 691.158 638.496 691.552L638.16 692.203L638.167 692.318L637.992 693.137L638.821 693.088C641.12 692.913 643.455 691.816 645.454 691.82C649.104 691.757 652.189 691.63 655.806 691.571H655.883L655.952 691.548L656.625 691.307L656.636 691.299L657.027 690.812C658.189 687.904 657.875 680.61 655.36 676.404C655.057 675.906 654.714 675.463 654.337 675.072C652.492 673.135 650.23 671.312 648.944 669.207L648.425 668.218C648.461 667.969 649.126 666.968 649.883 666.187C650.679 665.321 651.608 664.491 651.838 664.35L656.34 661.583L656.413 661.497C657.918 659.537 657.261 657.183 657.4 655.621V655.573V655.509L657.122 654.673C656.596 653.836 655.645 653.94 655.602 653.903L655.539 653.892L655.477 653.895C654.144 653.936 652.938 654.435 651.874 655.089C651.129 655.554 650.435 656.086 649.795 656.625C649.09 657.22 648.534 657.734 647.975 658.232L642.381 661.672L642.351 661.665C642.169 661.631 641.719 661.248 641.511 660.884L641.372 660.59L641.357 660.549C642.041 658.195 644.679 655.881 645.991 653.151C646.196 652.742 646.554 652.181 646.824 651.66C647.968 648.536 648.743 645.557 649.729 642.641C650.135 641.261 651.567 637.988 650.215 635.623C649.905 635.121 649.448 634.686 648.852 634.396C647.252 633.395 645.432 633.841 643.945 634.764C641.902 636.032 640.206 638.182 639.351 639.621C639.154 640.038 638.843 640.372 638.657 640.915C636.055 644.962 632.814 648.934 629.653 653.04C628.557 654.702 627.248 656.346 626.328 658.117C625.641 659.143 623.536 662.974 622.52 663.584H622.494C621.855 661.918 623.645 659.329 624.559 657.317L628.257 650.224L634.159 638.643C634.561 638.156 635.43 637.59 636.344 637.036C636.874 636.776 637.502 636.456 638.112 636.084C638.997 635.537 639.837 634.89 640.327 633.99C643.736 628.181 641.96 620.787 642.238 614.762C642.308 612.378 642.951 604.545 640.473 600.417C639.735 599.204 638.635 598.275 637.162 598.078C635.69 597.873 633.972 598.353 631.9 599.617L631.802 599.68L631.725 599.777C629.949 602.236 627.354 611.351 623.927 615.171C623.612 613.397 624.31 611.143 625.008 608.781C625.776 606.092 626.514 603.18 624.943 600.588L624.807 600.383L624.793 600.343C624.31 599.695 623.631 599.58 622.732 599.405C620.057 599.007 615.361 599.372 612.617 600.636L612.197 600.837L612.251 601.298C612.493 602.667 613.786 604.218 614.283 605.43L614.323 605.977L614.985 611.772C615.204 613.683 615.92 615.985 616.052 618.076C616.158 620.188 615.781 621.899 613.91 623.063C613.158 623.528 612.142 623.9 610.786 624.138C610.351 624.201 610.216 624.29 609.953 624.316C607.077 624.573 604.621 623.29 601.468 623.249C600.043 623.048 598.749 623.513 597.51 623.509C596.279 623.543 594.642 623.052 592.924 623.885L592.299 624.197L592.482 624.495ZM629.572 630.862L630.073 630.557L631.242 630.122L632.046 630.632C632.123 631.13 632.299 631.495 632.306 631.699C632.167 632.168 631.886 632.543 631.502 632.785C631.067 633.042 630.501 633.153 629.77 632.923C629.423 632.142 629.445 631.714 629.572 630.862ZM624.639 619.995L625.268 620.021C625.341 616.22 631.089 609.704 633.874 606.364C634.221 606.059 634.319 605.81 634.634 605.627C634.871 605.494 635.112 605.404 635.642 605.557C636.3 605.832 636.713 606.215 636.998 606.676C637.44 607.39 637.546 608.395 637.488 609.514C637.488 611.511 637.356 613.583 637.279 615.48V615.521L637.287 615.584C637.824 618.968 639.483 625.838 636.337 627.552L635.796 627.824C634.725 626.991 633.83 626.18 632.916 625.362L632.77 625.231L632.598 625.209C631.824 625.09 631.118 625.183 630.603 625.098C630.033 624.915 628.959 624.447 627.965 623.785C626.865 623.167 626.032 622.435 625.633 621.776L625.509 621.561L625.487 621.497L625.436 621.43L625.421 621.408C625.257 621.14 625.191 620.683 625.264 620.069L624.639 619.995ZM611.897 630.167C612.387 629.992 612.789 629.892 613.106 629.884C614.002 629.854 614.729 629.932 615.548 629.992C615.591 630.751 615.42 631.978 615.124 632.744L615.708 632.964L615.102 632.796L614.948 633.373C613.91 632.536 612.679 631.517 612.109 630.572L611.897 630.167Z" fill="white"/>
<path d="M626.579 1143.62C626.579 1143.62 627.721 1140.36 628.573 1139.79C639.208 1134.81 647.268 1147.17 644.169 1148.17C641.801 1148.94 622.291 1163.72 622.291 1163.72C620.4 1154.39 626.579 1143.62 626.579 1143.62ZM842.752 1382.21C832.351 1382.87 829.112 1382.87 808.984 1384.8C788.866 1386.73 759.648 1386.73 756.399 1384.8C753.169 1382.87 740.83 1367.36 732.386 1355.74C723.951 1344.12 678.518 1286.63 666.825 1266.6C655.142 1246.59 632.42 1192.98 632.42 1192.98C632.42 1192.98 651.256 1176.19 684.35 1157.46C717.454 1138.72 720.056 1129.04 721.358 1122.58C722.659 1116.13 723.296 1108.37 709.028 1114.83C694.742 1121.29 662.294 1120.65 659.682 1120.65C657.089 1120.65 651.256 1119.34 645.405 1123.87C639.563 1128.39 631.035 1125.85 631.035 1125.85C631.035 1125.85 626.579 1123.23 626.579 1116.76C626.579 1110.3 614.249 1098.04 614.249 1098.04C627.88 1103.2 662.94 1081.24 675.26 1068.97C687.599 1056.69 712.913 1034.73 722.004 1024.4C731.094 1014.08 741.476 1018.6 749.921 998.577C755.332 985.738 752.355 995.735 756.736 982.048C761.108 968.361 756.736 967.121 749.237 964C741.729 960.888 729.849 965.863 717.959 967.736C706.079 969.6 691.072 972.703 684.201 973.97C677.31 975.2 681.074 975.2 665.43 984.526C649.796 993.872 626.663 1000.71 605.393 1010.05C584.141 1019.38 573.506 1021.25 567.253 1021.25C560.999 1021.25 556 1019.38 549.119 1030.58C544.616 1037.91 550.27 1044.37 555.579 1049.19C562.057 1055.08 564.856 1059.76 569.912 1066.77C574.087 1072.56 581.745 1073.77 585.387 1080.36C585.387 1080.36 579.142 1079.73 569.762 1080.36C560.372 1080.97 562.871 1094.04 562.871 1101.52C562.871 1108.97 563.499 1132 561.617 1139.47C559.754 1146.93 560.372 1157.51 560.372 1167.47C560.372 1177.42 555.176 1204.6 555.176 1204.6C546.086 1214.29 463.655 1264.02 449.369 1272.42C435.083 1280.81 405.883 1264.67 405.874 1264.67C395.679 1282.07 411.753 1315.59 423.905 1328.78C431.151 1336.64 441.486 1344.33 451.316 1348.63C467.549 1355.74 494.109 1346.1 512.327 1325.38C530.508 1304.7 553.229 1267.25 553.229 1267.25C555.822 1297.6 553.229 1317.63 526.613 1382.87C499.997 1448.1 464.947 1448.1 445.474 1453.26C426.002 1458.42 394.845 1455.84 392.243 1465.53C388.002 1481.34 440.278 1495.89 473.391 1489.43C494.858 1485.24 513.469 1464.58 527.549 1449.37C547.041 1428.32 567.215 1406.24 575.969 1378.35C583.224 1355.24 587.924 1331.09 592.464 1307.35C594.645 1295.94 596.799 1284.52 598.671 1273.06C603.212 1245.28 611.001 1209.78 611.001 1209.78C611.001 1209.78 632.42 1305.36 646.051 1348.63C659.682 1391.9 694.742 1443.57 716.817 1449.38C738.874 1455.2 768.101 1430.01 775.235 1427.43C782.369 1424.84 819.376 1410.62 838.839 1403.53C858.321 1396.42 853.135 1381.56 842.752 1382.21Z" fill="white"/>
<path d="M800.893 1939.6C800.211 1934.99 796.058 1930.34 792.255 1927.8C786.693 1924.1 777.991 1926.5 771.655 1925.64C754.904 1923.4 739.498 1917.73 723.825 1911.8C717.738 1909.51 705.214 1907.99 700.619 1903.13C698.86 1904.4 700.619 1903.13 700.619 1906.52C701.089 1908.28 704.579 1912.55 712.038 1924.23C721.256 1938.67 731.57 1950.97 727.057 1953.64C714.81 1960.87 700.619 1964.04 688.178 1971.04C683.896 1973.45 680.783 1975.17 676.888 1977.58C672.984 1980 671.427 1981.39 666.418 1981.31C661.408 1981.23 655.294 1977.95 651.933 1972.25C648.571 1966.53 648.249 1963.7 654.078 1960.61C659.935 1957.51 673.536 1947.87 672.91 1940.07C672.284 1932.3 669.42 1933.13 665.248 1928.82C661.095 1924.54 651.168 1943.28 652.043 1914.7C652.089 1913.36 651.555 1910.22 652.144 1909.65C652.706 1907.92 666.372 1905.09 667.928 1904.49C669.171 1903.78 670.875 1902.87 673.444 1901.55C679.853 1898.23 694.689 1891.19 699.873 1884.94C701.383 1883.1 702.396 1873.16 702.479 1871.47C702.59 1869.32 704.33 1864.82 695.508 1862.78C686.695 1860.76 689.965 1864.96 680.793 1869.03C671.612 1873.11 649.732 1879.2 649.732 1879.2C649.732 1879.2 649.262 1871.92 648.221 1865.19C647.973 1863.53 647.66 1861.49 647.743 1859.77L647.779 1859.06C647.779 1859.06 648.719 1851.5 660.11 1837.91C671.667 1824.07 720.031 1801.91 736.505 1795.31C752.98 1788.72 781.011 1778.04 786.619 1776.16C792.227 1774.27 791.168 1766.73 785.569 1759.19C780.173 1751.93 774.758 1757.12 768.736 1759.73C761.489 1762.9 753.284 1762.41 745.788 1764.72C738.154 1767.08 730.842 1770.79 723.54 1773.95C713.373 1778.35 693.381 1788.4 686.742 1790.6C680.084 1792.81 670.967 1799.09 666.418 1801.28C661.86 1803.49 661.86 1801.61 665.359 1793.11C668.867 1784.64 682.192 1781.19 687.441 1779.93C692.69 1778.66 700.389 1772.7 708.815 1766.1C721.514 1756.14 730.418 1742.64 740.382 1730.16C745.53 1723.72 751.479 1717.56 756.304 1710.93C760.117 1705.68 763.864 1699.65 765.043 1693.18C766.332 1686.08 762.805 1683.03 758.588 1677.82C751.203 1668.69 734.111 1675.91 725.013 1677.94C722.527 1678.5 719.036 1678.76 716.909 1680.27C711.531 1684.1 704.293 1697.75 695.49 1694.79C692.69 1693.85 693.04 1678.77 692.34 1669.97C691.641 1661.18 681.493 1655.84 670.967 1648.3C660.46 1640.76 646.085 1626 631.02 1626C615.945 1626 612.086 1655.52 611.037 1665.9C610.318 1672.94 610.613 1680.04 609.876 1687.07C609.195 1693.61 606.856 1699.71 605.732 1706.14C603.78 1717.33 610.116 1739.76 595.971 1745.37C592.813 1746.63 592.813 1751.65 590.372 1755.74C587.914 1759.82 578.097 1766.73 580.906 1771.76C583.714 1776.78 593.862 1767.04 595.971 1766.73C598.071 1766.42 601.229 1772.06 601.929 1773.32C604.894 1778.63 602.362 1789.09 602.519 1794.96C602.804 1805.22 605.069 1816.3 603.605 1826.49C602.786 1832.18 572.047 1836.53 562.728 1839.43C551.944 1843.44 562.451 1854.03 565.73 1859.7C566.982 1860.82 562.728 1861.45 596.782 1864.51C597.73 1864.6 597.979 1871.45 598.522 1874.44C599.517 1880.4 601.229 1886.57 601.045 1892.63C601.045 1892.63 585.105 1899.43 585.39 1904.74C585.676 1910.05 584.829 1914.63 591.744 1915.79C598.651 1916.96 603.228 1919.51 603.228 1919.51C603.228 1919.51 605.401 1925.22 606.018 1935.11C606.349 1940.24 604.867 1940.23 604.913 1941.44C605.023 1943.18 593.522 1946.71 591.809 1948.3C585.998 1953.77 587.987 1963.58 598.117 1970.81C601.892 1973.5 605.613 1969.48 607.74 1972.9C610.696 1977.62 605.825 1986.29 605.014 1988.11C602.206 1994.43 596.616 2004.58 586.901 2009.03C577.185 2013.47 567.783 2019.88 538.518 2020.64C534.264 2020.74 531.289 2025.42 530 2030.4C530.976 2033.47 531.685 2036.73 530.635 2041.21L531.575 2042.08C536.52 2044.99 543.399 2048.29 547.948 2052.95C552.451 2057.62 549.863 2061.11 561.641 2061.3C578.585 2061.58 579.607 2048.86 593.466 2049.44C607.326 2050.01 597.067 2062.21 596.966 2067.86C596.846 2073.79 590.575 2080.29 588.227 2085.53C582.158 2099.1 589.838 2116.28 598.135 2127.15C604.452 2135.4 619.859 2159.42 632.806 2149.73C637.889 2145.92 653.774 2121.07 658.554 2111.96C663.361 2102.84 665.396 2096.88 665.525 2089.79C665.663 2082.72 656.353 2024.62 660.672 2020.45C668.002 2013.36 683.482 2011.78 692.773 2008.28C709.321 2002.06 726.044 1994.79 742.04 1987.27C747.768 1984.58 753.348 1981.57 758.965 1978.67C765.955 1975.05 771.83 1969.62 778.746 1965.81C784.474 1962.65 792.771 1959.43 796.003 1953.29C798.821 1948.05 801.583 1944.2 800.893 1939.6ZM690.149 1725.82C694.118 1717.1 710.693 1711.29 710.693 1711.29C713.576 1719.68 701.687 1729.05 700.251 1730.67C698.814 1732.29 698.814 1734.87 698.087 1737.45C697.359 1740.05 691.585 1742.62 691.585 1742.62C691.585 1742.62 686.18 1734.54 690.149 1725.82Z" fill="white"/>
<path d="M560.863 1841.56L560.234 1840.97L558.781 1839.38C557.024 1836.58 544.338 1835 543.728 1831.81C541.905 1822.56 532.828 1819.18 527.471 1819.07C522.114 1818.93 512.538 1814.69 509.42 1812.95C506.292 1811.2 495.578 1808.73 490.369 1805.08C485.178 1801.43 487.806 1788.63 487.167 1784.6C486.39 1779.57 491.544 1771.82 493.626 1767.54C499.168 1756.19 511.437 1744.71 524.288 1742.34C533.541 1740.62 541.646 1740.45 546.402 1730.95C557.736 1708.3 531.986 1692.05 513.953 1686.46C504.904 1683.67 500.426 1680.17 495.513 1678.84C490.6 1677.49 475.102 1673.59 468.45 1671.12C461.788 1668.66 449.343 1664.28 443.875 1669.32C438.388 1674.36 445.476 1679.56 458.198 1690.88C464.184 1696.2 468.126 1701.91 469.375 1709.81C470.541 1717.1 471.068 1721.54 476.379 1727.09C482.809 1733.81 488.37 1738.83 488.167 1748.79C487.945 1759.29 480.45 1782.48 478.322 1786.67C476.212 1790.8 471.771 1793.15 469.366 1797.13C459.604 1813.33 462.815 1827.03 472.16 1842.16C479.608 1854.24 484.808 1877.68 486.177 1888.49C487.547 1899.29 482.708 1925.64 480.829 1933.39C478.942 1941.12 474.658 1957.2 470.198 1984.06C465.748 2010.93 463.796 2016.17 461.066 2016.59C458.355 2017.01 454.044 2028.97 452.609 2033.61C450.907 2039.15 456.255 2048.11 457.125 2053.77C458.873 2065.27 456.394 2090.98 475.99 2086.48C494.754 2082.13 492.691 2076.74 498.335 2055.48C502.739 2038.89 509.623 2028.93 512.723 2011.11C515.804 1993.28 519.172 1993.03 519.533 1987.46C519.893 1981.91 517.858 1974.78 517.923 1959.34C517.987 1943.91 518.172 1919.36 518.034 1910.57C517.904 1901.78 519.264 1894.68 520.597 1883.46C521.938 1872.22 530.497 1865.67 537.695 1862.36C540.129 1861.24 560.984 1858.02 563.602 1857.62C564.731 1857.44 563.019 1855.01 563.787 1854.16L561.243 1852.56C560.9 1849.66 562.316 1846.45 562.242 1846.3L561.826 1844.5C561.603 1843.32 561.539 1842.37 560.863 1841.56ZM508.578 1906.72C508.763 1911.06 495.217 1959.52 492.414 1963.45C489.582 1967.38 489.11 1967.45 488.509 1963.61C487.908 1959.77 490.822 1950.14 494.236 1931.24C497.687 1912.34 509.364 1896.09 509.364 1896.09C510.225 1901.65 508.383 1902.36 508.578 1906.72Z" fill="white"/>
<path d="M658.992 2484.01L659.244 2483.85C667.095 2478.33 680.506 2472.38 694.019 2465.61L692.371 2462.32L694.112 2465.57C714.434 2454.36 740.408 2438.92 749.144 2423.81L749.442 2423.28L749.563 2422.68L749.703 2420.86C749.163 2412.44 741.349 2407.83 732.734 2402.99C723.933 2398.31 713.288 2394.24 705.167 2391.05C704.347 2390.79 686.541 2386.13 680.059 2384.5L679.621 2384.39H679.165C678.056 2384.27 676.287 2385.1 675.635 2386.29C674.918 2387.42 674.918 2388.29 674.908 2388.96C675.095 2392.58 676.985 2396.35 678.783 2401.38C680.589 2406.11 682.247 2411.38 682.191 2413.82L682.061 2414.91C679.761 2421.61 659.719 2434.65 648.692 2440.5C653.888 2398.49 678.28 2365.66 683.43 2322.95L683.588 2321.59L682.843 2320.47C673.009 2306.41 637.069 2281.52 615.35 2280.07L613.711 2280L612.547 2281.18C611.299 2282.53 611.104 2283.68 610.861 2284.3L610.722 2284.71L610.293 2285.13L610.014 2286.01C608.356 2291.27 607.816 2296.79 607.816 2302.41C607.835 2314.34 610.135 2326.87 610.107 2338.73C610.107 2343.04 609.809 2347.23 609.055 2351.31C601.567 2393.06 596.566 2434.6 586.815 2474.28C562.135 2489.92 535.108 2504.61 505.762 2515.25C494.409 2519.97 479.415 2518.41 464.262 2523.54C463.117 2523.7 462.493 2524.14 462.129 2524.28L462.083 2524.32H458.227L458.907 2528.59C462.418 2548.37 469.412 2577.93 491.876 2578.97C493.291 2578.97 494.707 2578.82 496.141 2578.58C509.804 2575.98 522.544 2569.28 535.21 2559.82C547.131 2550.88 559.22 2542.9 572.5 2535.31C568.71 2574.7 551.601 2595.06 526.884 2609.2C500.947 2623.96 466.274 2630.95 431.2 2642.39L429.701 2642.87L429.021 2644.28C428.611 2645.32 427.056 2646.93 427 2650.12V2652.22L428.816 2653.3C440.374 2659.92 457.352 2659.62 469.608 2661.36C474.153 2661.79 478.502 2662 482.795 2662C547.159 2661.92 594.992 2615.08 612.733 2568.91C620.249 2544.72 627.644 2520.74 635.057 2497.6C643.048 2492.81 650.946 2488.07 658.769 2484.13L658.992 2484.01ZM797.284 2592.63C790.327 2590.89 784.46 2590.05 777.978 2588.42L777.084 2592.01L777.773 2588.38C772.697 2587.4 767.705 2587.07 762.806 2587.07C752.357 2587.07 742.345 2588.49 732.613 2588.48C726.196 2588.48 719.882 2587.86 713.549 2585.94C707.533 2584.44 701.106 2580.51 694.559 2575.58C677.563 2563.39 662.615 2543.5 653.59 2527.83L652.547 2525.99H646.233H644.287L643.188 2527.6C640.151 2532.05 638.922 2537.26 638.922 2542.62C639.248 2570.72 670.606 2607.85 680.99 2622.78C684.082 2626.62 685.749 2630.83 689.493 2635.58C692.147 2639.15 696.087 2643.2 702.084 2645.2C706.303 2646.51 710.392 2647.1 714.359 2647.1H714.508C738.546 2646.94 757.34 2626.87 769.009 2619.53C771.878 2617.31 778.686 2614.26 785.009 2610.83C791.314 2607.23 797.675 2603.71 799.892 2597.29L801 2593.58L797.284 2592.63Z" fill="white"/>
<path d="M589.067 2954.91L591.403 2957.78L588.815 2955.12C587.965 2955.96 587.105 2956.82 586.368 2957.55C583.631 2950.28 580.445 2941.5 580.389 2935.06C580.37 2934.11 580.398 2933.2 580.52 2932.39C583.518 2932.98 585.835 2933.64 587.442 2934.55C592.028 2937.05 595.438 2939.62 599.38 2942.35C597.325 2946.31 592.813 2951.94 589.067 2954.91ZM667.142 2988.3L670.589 2988.23L677.726 2989.53C678.408 2991.02 679.211 2992.63 680.276 2994.45C679.146 2997.2 678.968 2999.54 678.408 3000.59C676.325 3002.54 673.756 3003.59 671.131 3003.66C668.188 3003.68 665.05 3002.53 662.06 2999.25C662.602 2994.28 663.994 2992.18 667.142 2988.3ZM674.316 2929.54L674.382 2929.12L674.326 2928.66V2928.51C674.26 2926.68 675.288 2924.17 677.502 2921.33L674.587 2919.06L677.689 2921.07C689.272 2902.23 737.408 2886.54 761.284 2878.02C763.919 2877.52 765.161 2876.57 767.281 2876.57C768.851 2876.61 770.317 2876.88 772.531 2879.22C775.016 2882.55 775.969 2885.68 776.034 2888.83C776.146 2893.73 773.671 2899.1 770.093 2904.56C764.189 2914.57 757.38 2924.59 751.382 2933.87L751.252 2934.09L751.102 2934.43C743.779 2953.04 731.775 2992.43 710.888 2991.7C709.757 2991.72 708.59 2991.65 707.366 2991.47C704.517 2984.13 702.378 2977.39 700.22 2970.54L699.874 2969.5L699.052 2968.84C695.521 2965.94 691.729 2964.35 689.412 2962.37C687.067 2959.77 683.088 2954.24 680.033 2948.01C676.343 2941.63 674.335 2935.47 674.27 2930.97L674.316 2929.54ZM563.668 3106.28L603.21 3081.62L667.133 3040.98C670.58 3039.69 676.614 3039.45 682.817 3039.36C686.245 3039.63 690.393 3039.9 694.559 3039.83C700.594 3039.71 706.721 3038.93 711.869 3035.88C746.17 3016.81 759.154 2974.39 778.342 2944.97C785.787 2933.21 812.232 2895.78 811.998 2867.71C811.896 2859.44 809.103 2851.52 802.311 2846.14C795.548 2840.77 785.506 2838.07 771.373 2838.3L770.672 2838.32L770.018 2838.59C753.821 2845.65 713.812 2883.72 685.292 2892.75C688.945 2882.92 699.164 2873.68 709.645 2863.89C721.453 2852.66 733.774 2840.23 733.559 2822.56L733.512 2821.13L733.531 2820.86C733.083 2816.19 729.963 2813.56 725.993 2810.06C713.756 2800.13 689.094 2788.05 671.579 2786.25L668.861 2786L667.815 2788.51C664.947 2796.08 666.871 2807.7 665.75 2815.27L664.34 2818.14L650.515 2849.17C645.947 2859.45 642.715 2873.12 637.166 2884C631.486 2894.94 624.518 2902.4 611.664 2902.72C606.535 2902.8 600.314 2901.67 592.813 2898.83C590.431 2897.88 589.516 2897.9 588.142 2897.29C572.935 2890.04 564.378 2876.32 548.703 2866.76C542.118 2861.53 534.29 2860.04 528.087 2856.34C521.809 2852.86 515.028 2845.55 503.93 2844.65L499.904 2844.36L499.941 2846.38L495.775 2846.45L498.69 2851.81C503.155 2859.94 507.732 2868.97 512.253 2877.23C521.688 2899.91 534.224 2928.34 534.747 2954.56V2954.84C534.822 2959.36 535.224 2963.96 535.298 2968.29C535.429 2976.44 534.355 2982.73 529.226 2986.49L529.068 2986.62H528.881C512.468 2975.46 504.238 2953.2 473.599 2953.61C470.124 2953.67 466.378 2954.02 462.342 2954.71L461.193 2954.92L460.381 2955.72C460.035 2955.93 458.382 2957.69 458.494 2959.64L458.597 2960.75L458.783 2961.68L459.409 2962.42C471.618 2976.56 490.955 3007.77 492.879 3029.36C492.898 3033.93 492.113 3039 492.197 3044.37C492.244 3049.05 493.094 3054.1 496.065 3059L496.373 3059.54L496.896 3059.96C502.828 3064.82 508.75 3069.68 514.682 3074.55L516.195 3075.82L518.092 3075.24C523.014 3073.56 525.079 3069.23 526.816 3064.74C531.665 3051.01 534.308 3029.76 550.273 3023.52C558.25 3024.23 562.706 3029.76 571.178 3033.56L571.888 3033.85L572.682 3033.84C575.279 3033.56 576.241 3032.87 577.166 3032.92L579.464 3032.88L580.426 3030.8C582.865 3025.63 585.097 3019.79 587.358 3014.92L587.619 3014.35L587.675 3013.75C588.114 3009.55 589.263 3004.29 589.843 2998.75L596.325 2993.77L626.059 2971.23L628.291 2971.54C629.945 2973.97 632.196 2978.83 632.131 2982.17C632.14 2983.67 631.851 2984.76 631.271 2985.56L631.141 2985.75L631.019 2985.99L630.972 2985.93C629.992 2986.67 627.04 2987.87 625.237 2988.42L622.491 2989.31L622.743 2993.03L622.845 2994.59L624.097 2995.62C626.816 2997.65 630.132 2998.34 632.673 2998.94C633.812 3005.11 634.401 3010.58 636.633 3016.93L636.727 3017.22L636.904 3017.5C640.295 3022.82 647.357 3029.86 646.629 3030.9L646.535 3030.87L646.059 3031.24L645.75 3031.71C639.585 3041.13 615.952 3054.41 598.614 3062.78C595.625 3064.74 593.252 3066.22 591.262 3066.88L590.87 3067L590.562 3067.18C550.786 3090.22 511.17 3112.42 470.936 3135.51C455.206 3146.03 416.56 3151.47 416 3180.39C416.009 3181.21 416.056 3182.17 416.196 3183.21L416.364 3184.43L417.261 3185.34C426.425 3194.43 436.42 3202.66 447.191 3210.08C454.645 3213.87 463.538 3214.32 465.528 3217.44L467.284 3219.56L469.825 3218.47C496.252 3207.28 497.41 3193.03 504.08 3187.28C533.514 3161.47 568.208 3140.29 606.143 3121.51C614.793 3118.09 623.509 3113.78 632.093 3110.41C647.292 3103.68 664.489 3093.28 682.453 3093.03C683.742 3093 684.984 3093.03 686.245 3093.11L686.488 3093.13C686.245 3096.39 685.218 3099.63 684.143 3101.93C680.211 3109.72 671.131 3114.71 664.508 3122.12C654.765 3134.53 642.294 3146.24 630.599 3156.29C625.48 3160.17 614.756 3163.99 610.244 3171.77C609.142 3174.61 608.964 3177.02 609.002 3179.23C609.048 3182.01 609.403 3184.56 609.441 3186.61C609.469 3188.25 609.282 3189.46 608.927 3190.29L608.619 3191.01V3191.11L608.245 3191.52C602.388 3195.81 581.893 3202.07 574.579 3205.64C563.35 3212.59 551.627 3219.34 539.922 3224.39C514.29 3234.62 481.081 3235.57 462.539 3255.62L461.165 3257.12L461.717 3259.11C463.94 3265.88 472.786 3274.48 483.79 3282.97C494.85 3291.16 507.517 3298.41 518.353 3298.36C519.54 3298.36 520.642 3298.22 521.735 3298.04C537.045 3294.01 548.656 3282.53 557.568 3275.06C569.366 3265.33 595.513 3250.03 615.503 3244.98C616.867 3244.49 618.483 3244.3 620.342 3243.93C622.108 3248.71 623.004 3255.51 625.069 3262.15C626.788 3268.2 627.638 3273.66 627.722 3278.47C627.862 3289.66 624.116 3297.19 617.418 3303.1C608.665 3311.54 592.972 3316.04 574.99 3318.76C572.935 3319.04 570.655 3319.19 568.264 3319.24C560.371 3319.4 551.253 3318.32 542.529 3318.46C539.016 3318.52 535.541 3318.8 532.206 3319.47C530.553 3319.51 528.769 3321.17 528.61 3321.78L528.302 3322.34L524.967 3325.93L529.32 3328.16C541.333 3334.11 556.307 3335.52 566.34 3341.46C584.845 3351.95 600.688 3360.45 618.969 3370.86L619.389 3371.09L619.819 3371.21C620.678 3371.41 621.911 3371.99 623.892 3372H623.957C624.966 3371.98 626.311 3371.64 627.367 3370.7C641.827 3359.53 661.846 3321.98 661.668 3293.4C661.612 3290.01 661.257 3286.76 660.528 3283.7C656.979 3268.49 651.019 3252.62 650.813 3238.26C650.776 3236 650.851 3233.83 651.122 3231.74C652.056 3230.64 658.352 3227.55 664.471 3225.87C671.009 3223.87 678.128 3222.45 679.706 3222.43L710.505 3221.89L711.093 3221.67C724.47 3216.29 728.132 3202.51 733.447 3195.06L733.615 3194.83L733.765 3194.53C734.54 3192.8 734.923 3191.09 734.895 3189.51C734.717 3183.73 729.626 3181.45 729.524 3181.15L729.234 3180.91L728.898 3180.73C722.107 3176.99 714.606 3175.93 707.301 3176.06C702.191 3176.15 697.128 3176.78 692.317 3177.6C687.058 3178.5 682.714 3179.41 678.427 3180.29L640.164 3180.95L640.071 3180.83C639.24 3180.12 638.128 3176.85 638.165 3174.44L638.333 3172.54L638.408 3172.29C648.786 3162.49 668.87 3158.69 683.546 3148.87C685.769 3147.41 689.244 3145.68 692.121 3143.82C707.114 3131.58 719.827 3118.9 733.41 3107.17C739.519 3101.48 756.427 3089.28 756.614 3073.37C756.567 3069.93 755.539 3066.4 753.419 3063.15C748.365 3053.4 737.884 3050.24 727.711 3050.49C713.737 3050.78 698.828 3056.57 690.271 3061.25C688.057 3062.77 685.507 3063.51 682.957 3065.68C657.932 3078.31 629.908 3088.66 601.902 3099.9C591.477 3105.02 580.043 3109.37 570.17 3115.55C563.668 3118.65 541.791 3131.63 534.887 3131.72L534.747 3131.6C536.494 3121.37 553.103 3113.68 563.668 3106.28Z" fill="white"/>
<path d="M208.377 3357V3306.62L138.621 3287.65C130.189 3285.48 119.726 3282.99 111.885 3281.12V3279.87C119.443 3278.01 130.189 3274.9 138.33 3272.41L208.377 3249.71L208.377 3197.15L78.1637 3253.13C74.6759 3254.69 72.6362 3255 70.8968 3255C69.1573 3255 66.8262 3254.06 64.504 3252.51C57.5284 3248.17 41.6524 3235.1 38.2618 3216.78L0.00224955 3207.59C-0.156687 3230.57 8.11684 3251.88 21.4852 3268.06C35.7276 3285.16 58.1112 3299.78 114.79 3321.54L208.377 3357ZM124.379 3150.1H175.83V3184H208.377V3150.1H224.95V3103.76H208.377V3083.55H175.83V3103.76H117.695C97.6422 3103.76 83.9737 3108.12 75.5501 3116.83C68.2743 3124.6 63.3384 3137.34 63.3384 3152.59C63.3384 3165.65 64.2038 3172.78 66.2434 3178.7L101.501 3187.63C100.618 3183.28 99.3817 3175.29 99.3817 3168.77C99.3817 3154.76 107.24 3150.1 124.379 3150.1ZM247.908 3064.52C260.402 3064.2 270 3054.88 270 3039.65C270 3024.4 260.402 3014.45 247.908 3014.45C235.705 3014.45 225.816 3024.09 225.816 3039.01C225.816 3054.88 235.705 3064.52 247.908 3064.52ZM169.72 2924.7C176.695 2924.7 181.057 2931.23 181.057 2942.74C181.057 2955.47 176.404 2968.86 172.925 2975.69L203.432 2983.78C207.794 2974.46 211.865 2958.9 211.865 2941.18C211.865 2903.55 191.803 2879.29 165.075 2879.29C148.211 2878.98 132.22 2891.11 122.348 2922.83C116.821 2940.25 113.342 2944.91 105.774 2944.91C98.5164 2944.91 94.1545 2939 94.1545 2924.7C94.1545 2910.7 99.6731 2892.65 104.618 2883.96L73.2278 2875.56C67.4178 2887.07 63.0559 2904.79 63.0559 2924.7C63.0559 2968.23 82.5256 2990.31 109.271 2990.31C129.897 2990.01 143.849 2978.19 153.155 2949.27C159.257 2930.6 162.753 2924.7 169.72 2924.7ZM170.276 2855.21L210.249 2865.33C210.84 2861.91 211.865 2855.88 211.865 2851.52C211.865 2836.59 203.15 2818.26 182.223 2810.48V2809.23L208.377 2807.36V2766.93C196.165 2767.86 182.514 2768.17 161.588 2768.17H66.2434L66.2434 2815.44H138.33C141.818 2815.44 145.306 2815.76 148.211 2816.39C161.87 2819.48 170.594 2831.3 170.594 2848.73C170.594 2854.02 170.859 2851.46 170.276 2855.21ZM123.213 2740.29C126.41 2740.9 133.103 2741.83 140.661 2741.83C175.83 2741.83 211.582 2723.18 211.582 2674.04C211.582 2621.17 171.76 2597.23 135.716 2597.23C91.2494 2597.23 63.3384 2626.77 63.3384 2678.4C63.3384 2698.92 66.2434 2717.88 72.3448 2733.45L102.287 2727.21C98.2162 2714.47 96.1853 2701.4 96.1853 2685.24C96.1853 2663.16 104.909 2643.56 123.213 2642.32L123.213 2740.29ZM153.447 2697.99V2642.01C165.075 2643.24 182.223 2651.34 182.223 2671.23C182.223 2693.01 164.201 2697.99 153.447 2697.99ZM66.2434 2536.39L208.377 2592.99V2543.23L142.401 2523.65C130.189 2520.22 119.443 2517.73 107.805 2515.24V2514.31C119.152 2511.83 130.189 2509.34 142.401 2505.6L208.377 2485.08L208.377 2433.77L66.2434 2489.12V2536.39ZM247.908 2416.76C260.402 2416.44 270 2407.12 270 2391.89C270 2376.64 260.402 2366.69 247.908 2366.69C235.705 2366.69 225.816 2376.33 225.816 2391.25C225.816 2407.12 235.705 2416.76 247.908 2416.76ZM66.2434 2286.83L66.2434 2334.1H150.241C192.103 2334.1 211.582 2310.77 211.582 2279.66C211.582 2254.17 197.913 2238.93 188.616 2232.71V2231.78L208.377 2229.6V2188.56C195.591 2189.17 180.766 2189.78 163.036 2189.78H66.2434V2237.06H148.211C152.281 2237.06 156.352 2237.37 159.257 2238.62C167.398 2242.04 175.83 2249.82 175.83 2262.88C175.83 2279.98 163.327 2286.83 145.023 2286.83H66.2434ZM152.281 2154.78H262.159V2107.51H149.667C114.79 2107.51 98.5164 2093.82 98.5164 2068.95C98.5164 2045 115.655 2031 149.667 2031H262.159V1983.73H152.864C90.6579 1983.73 63.0559 2014.52 63.0559 2067.39C63.0559 2122.13 91.8234 2154.78 152.281 2154.78ZM66.2434 1835.52L66.2434 1882.77H150.241C192.103 1882.77 211.582 1859.45 211.582 1828.36C211.582 1802.86 197.913 1787.63 188.616 1781.41V1780.48L208.377 1778.29V1737.24C195.591 1737.86 180.766 1738.49 163.036 1738.49H66.2434L66.2434 1785.76H148.211C152.281 1785.76 156.352 1786.06 159.257 1787.32C167.398 1790.73 175.83 1798.5 175.83 1811.57C175.83 1828.68 163.327 1835.52 145.023 1835.52H66.2434ZM247.908 1705.71C260.402 1705.4 270 1696.07 270 1680.83C270 1665.59 260.402 1655.63 247.908 1655.63C235.705 1655.63 225.816 1665.28 225.816 1680.2C225.816 1696.07 235.705 1705.71 247.908 1705.71ZM247.908 1624.41C260.402 1624.11 270 1614.78 270 1599.54C270 1584.3 260.402 1574.36 247.908 1574.36C235.705 1574.36 225.816 1583.99 225.816 1598.91C225.816 1614.78 235.705 1624.41 247.908 1624.41ZM93.8631 1575.9C73.0512 1575.9 61.4665 1574.54 54.1113 1571.08C45.2108 1566.12 40.3898 1555.15 38.2618 1543.65L0.00224955 1534.46C-0.0860485 1546.14 4.70854 1582.6 21.2026 1601.71C33.4849 1615.95 52.2924 1623.17 83.1084 1623.17H208.377V1575.9H93.8631ZM66.2434 1491.38V1538.64H150.241C192.103 1538.64 211.582 1515.33 211.582 1484.22C211.582 1458.72 197.913 1443.49 188.616 1437.26V1436.32L208.377 1434.16V1393.1C195.591 1393.73 180.766 1394.35 163.036 1394.35H66.2434L66.2434 1441.62H148.211C152.281 1441.62 156.352 1441.93 159.257 1443.17C167.398 1446.59 175.83 1454.37 175.83 1467.42C175.83 1484.54 163.327 1491.38 145.023 1491.38H66.2434ZM66.2434 1320.71V1363.31C74.0931 1361.44 87.1789 1360.81 100.547 1360.81H150.241C183.962 1360.81 211.865 1344.96 211.865 1294.27C211.865 1266.59 204.606 1245.76 199.079 1235.18L170.594 1243.88C176.404 1253.84 181.349 1270.33 181.349 1285.87C181.349 1309.19 170.594 1313.55 162.753 1313.55H161.005C161.005 1259.75 143.566 1224.3 106.649 1224.3C83.9737 1224.3 63.0559 1242.65 63.0559 1273.44C63.0559 1291.46 69.1573 1307.02 80.4947 1316.98V1317.91L66.2434 1320.71ZM117.986 1315.1C115.372 1315.1 112.75 1314.8 110.428 1314.17C101.421 1311.06 94.1545 1301.11 94.1545 1289.6C94.1545 1279.03 99.6731 1270.94 111.011 1270.94C127.858 1270.94 133.394 1290.22 133.394 1315.1H117.986ZM247.908 1201.5C260.402 1201.2 270 1191.86 270 1176.62C270 1161.39 260.402 1151.43 247.908 1151.43C235.705 1151.43 225.816 1161.07 225.816 1176.01C225.816 1191.86 235.705 1201.5 247.908 1201.5ZM224.95 1074.87V1132.08H262.159L262.159 971H224.95V1027.59H66.2434V1074.87H224.95ZM208.377 1199.94V1152.67H66.2434L66.2434 1199.94H208.377ZM208.377 1704.15L208.377 1656.88H66.2434V1704.15H208.377ZM208.377 2415.2V2367.93H66.2434L66.2434 2415.2H208.377ZM208.377 3062.96L208.377 3015.69H66.2434L66.2434 3062.96H208.377Z" fill="white"/>
</g>
<defs>
<clipPath id="clip0_70_154">
<rect width="885" height="3372" fill="white"/>
</clipPath>
</defs>
</svg>
