<svg width="440" height="568" viewBox="0 0 440 568" fill="none" xmlns="http://www.w3.org/2000/svg">
<g clip-path="url(#clip0_74_671)">
<rect width="440" height="568" fill="white"/>
<path d="M36.9313 402.799C94.8427 505.794 186.723 552.375 209.693 563.143L220 567.225L230.307 563.143C253.277 552.375 345.153 505.794 403.091 402.799C428.494 357.31 438.128 308.629 439.369 263.519L439.397 262.58H439.415L439.965 242.649C439.965 242.649 414.608 234.866 407.042 229.817C395.462 222.103 392.261 212.987 397.881 201.2C403.241 189.941 433.768 180.474 433.768 180.474L428.657 157.29C428.321 155.79 427.98 154.296 427.634 152.81H427.625C415.058 98.3393 397.34 61.4486 396.712 60.1205L386.428 38.7135L365.126 46.2333C352.082 50.8654 339.192 52.7488 326.734 52.7488C279.316 53.1699 237.186 14.4143 235.29 12.6975L220 0.938843L204.687 12.6975H204.714C202.813 14.4143 160.688 53.1699 113.271 52.7488C100.804 52.7488 87.9363 50.8654 74.8599 46.2333L53.5723 38.7135L43.2785 60.1205C42.642 61.4764 23.9596 100.371 11.347 157.29L6.24109 180.474C6.24109 180.474 36.7586 189.941 42.1282 201.2C47.7434 212.987 44.5425 222.103 32.9712 229.817C25.4009 234.866 0.0439453 242.649 0.0439453 242.649L0.616791 263.519C1.88077 308.629 11.5062 357.31 36.9313 402.799ZM49.4484 394.678C25.5964 351.979 16.4394 306.134 15.2299 263.043L14.9753 253.778L23.123 250.752C35.1081 246.323 44.8517 239.692 51.208 232.427C57.6189 225.115 60.5878 217.623 60.5924 210.242C60.5924 209.807 60.5879 209.382 60.556 208.998C60.2378 202.727 57.8643 196.739 53.1358 190.848C48.4117 185.018 41.2871 179.543 32.3301 175.42L23.3231 171.237L25.5873 160.918C37.7634 105.859 55.9866 67.9687 56.2594 67.3672L60.847 57.8391L70.3042 61.1987C84.9809 66.4047 99.4258 68.4825 113.311 68.4825H113.643C165.298 68.4825 208.474 29.1298 212.862 25.7656L213.198 25.5112L220 20.3237L226.797 25.5112L227.17 25.7656C231.53 29.1345 274.897 68.6676 326.716 68.4825C340.574 68.4825 355.01 66.4047 369.709 61.1987L379.153 57.8391L383.74 67.3672C384.009 67.9363 400.5 102.231 412.585 152.949C412.858 154.059 413.117 155.175 413.38 156.299C413.48 156.739 413.58 157.183 413.685 157.623C413.83 158.284 413.976 158.942 414.126 159.608C414.231 160.043 414.326 160.478 414.417 160.918L415.472 165.716L416.677 171.237L407.67 175.42C398.717 179.543 391.597 185.018 386.878 190.848C382.145 196.739 379.771 202.727 379.457 208.998C379.43 209.382 379.412 209.807 379.412 210.242C379.43 217.623 382.39 225.115 388.796 232.427C395.157 239.692 404.905 246.323 416.886 250.752L425.029 253.778L424.833 261.372L424.779 263.043C423.551 306.134 414.417 351.979 390.538 394.678C335.468 492.999 246.089 538.691 224.583 548.664L220 550.158L215.421 548.664C193.92 538.691 104.541 492.999 49.4484 394.678Z" fill="#00468C"/>
</g>
<defs>
<clipPath id="clip0_74_671">
<rect width="440" height="568" fill="white"/>
</clipPath>
</defs>
</svg>
