<svg width="2383" height="670" viewBox="0 0 2383 670" fill="none" xmlns="http://www.w3.org/2000/svg">
<g clip-path="url(#clip0_70_33)">
<path d="M268.236 232.963C268.236 232.963 269.542 229.226 270.516 228.575C282.677 222.863 291.894 237.03 288.35 238.173C285.642 239.059 263.333 255.991 263.333 255.991C261.17 245.304 268.236 232.963 268.236 232.963ZM515.426 506.35C503.532 507.097 499.828 507.097 476.813 509.307C453.807 511.528 420.397 511.528 416.682 509.307C412.989 507.097 398.88 489.332 389.224 476.018C379.579 462.694 327.627 396.822 314.257 373.879C300.897 350.946 274.916 289.515 274.916 289.515C274.916 289.515 296.454 270.276 334.296 248.817C372.149 227.347 375.125 216.254 376.613 208.856C378.101 201.457 378.829 192.574 362.515 199.973C346.179 207.372 309.075 206.635 306.089 206.635C303.123 206.635 296.454 205.14 289.763 210.329C283.083 215.507 273.331 212.603 273.331 212.603C273.331 212.603 268.236 209.592 268.236 202.183C268.236 194.784 254.137 180.734 254.137 180.734C269.724 186.649 309.814 161.485 323.902 147.425C338.011 133.353 366.957 108.189 377.352 96.3493C387.747 84.5307 399.619 89.7087 409.274 66.7654C415.462 52.0535 412.058 63.5092 417.068 47.8257C422.067 32.1423 417.068 30.7224 408.493 27.1458C399.908 23.5799 386.323 29.281 372.727 31.427C359.143 33.5622 341.983 37.1174 334.125 38.5694C326.246 39.9787 330.55 39.9787 312.661 50.6656C294.784 61.3739 268.332 69.2102 244.01 79.9079C219.71 90.6055 207.549 92.7408 200.398 92.7408C193.247 92.7408 187.53 90.6055 179.662 103.438C174.513 111.83 180.979 119.239 187.049 124.759C194.456 131.506 197.657 136.876 203.438 144.905C208.212 151.535 216.969 152.923 221.133 160.471C221.133 160.471 213.993 159.756 203.267 160.471C192.529 161.176 195.388 176.154 195.388 184.717C195.388 193.258 196.105 219.649 193.953 228.201C191.823 236.753 192.529 248.87 192.529 260.283C192.529 271.685 186.588 302.839 186.588 302.839C176.194 313.942 81.9357 370.921 65.5998 380.541C49.2639 390.16 15.8749 371.669 15.8642 371.669C4.20641 391.601 22.587 430.014 36.4821 445.121C44.7678 454.132 56.5862 462.94 67.8265 467.872C86.389 476.018 116.759 464.968 137.591 441.224C158.38 417.534 184.362 374.615 184.362 374.615C187.327 409.399 184.362 432.342 153.927 507.097C123.493 581.841 83.413 581.841 61.1465 587.756C38.8801 593.671 3.25367 590.713 0.277665 601.817C-4.57172 619.934 55.2052 636.6 93.069 629.201C117.616 624.397 138.897 600.728 154.998 583.293C177.286 559.176 200.355 533.884 210.364 501.919C218.661 475.442 224.034 447.769 229.226 420.566C231.721 407.498 234.183 394.409 236.324 381.277C241.516 349.451 250.422 308.764 250.422 308.764C250.422 308.764 274.915 418.292 290.502 467.872C306.089 517.453 346.179 576.653 371.421 583.315C396.643 589.977 430.064 561.119 438.221 558.162C446.378 555.194 488.695 538.902 510.951 530.777C533.228 522.631 527.298 505.602 515.426 506.35Z" fill="#00468C"/>
<path d="M1595.49 359.851L1595.78 359.67C1604.76 353.362 1620.11 346.574 1635.57 338.847L1633.69 335.09L1635.68 338.804C1658.93 326.008 1688.66 308.386 1698.66 291.139L1699 290.531L1699.14 289.848L1699.3 287.777C1698.68 278.161 1689.74 272.899 1679.88 267.37C1669.81 262.034 1657.62 257.391 1648.33 253.752C1647.39 253.453 1627.01 248.138 1619.6 246.27L1619.1 246.142H1618.57C1617.31 246.014 1615.28 246.953 1614.53 248.319C1613.71 249.611 1613.71 250.603 1613.7 251.361C1613.92 255.491 1616.08 259.793 1618.14 265.535C1620.2 270.935 1622.1 276.955 1622.04 279.74L1621.89 280.978C1619.26 288.631 1596.32 303.509 1583.7 310.19C1589.65 262.237 1617.56 224.775 1623.45 176.021L1623.64 174.473L1622.78 173.192C1611.53 157.14 1570.4 128.74 1545.55 127.085L1543.67 127L1542.34 128.345C1540.91 129.892 1540.69 131.205 1540.41 131.91L1540.25 132.379L1539.76 132.859L1539.44 133.863C1537.54 139.861 1536.92 146.169 1536.92 152.583C1536.94 166.191 1539.58 180.493 1539.54 194.037C1539.54 198.957 1539.2 203.738 1538.34 208.392C1529.77 256.046 1524.05 303.456 1512.89 348.741C1484.65 366.597 1453.72 383.364 1420.13 395.51C1407.14 400.889 1389.98 399.106 1372.64 404.966C1371.33 405.147 1370.62 405.649 1370.2 405.809L1370.15 405.852H1365.74L1366.51 410.729C1370.53 433.303 1378.54 467.05 1404.24 468.235C1405.86 468.235 1407.48 468.064 1409.12 467.787C1424.76 464.82 1439.34 457.178 1453.83 446.377C1467.48 436.174 1481.31 427.07 1496.51 418.403C1492.17 463.357 1472.59 486.592 1444.31 502.741C1414.62 519.582 1374.94 527.566 1334.81 540.619L1333.09 541.163L1332.31 542.775C1331.84 543.959 1330.06 545.795 1330 549.445V551.836L1332.08 553.074C1345.3 560.631 1364.73 560.289 1378.76 562.274C1383.96 562.765 1388.94 563 1393.85 563C1467.51 562.904 1522.25 509.443 1542.55 456.751C1551.15 429.14 1559.61 401.775 1568.1 375.359C1577.24 369.895 1586.28 364.483 1595.23 359.99L1595.49 359.851ZM1753.75 483.828C1745.79 481.832 1739.07 480.882 1731.65 479.015L1730.63 483.113L1731.42 478.972C1725.61 477.851 1719.9 477.478 1714.29 477.478C1702.33 477.478 1690.88 479.1 1679.74 479.089C1672.4 479.089 1665.17 478.385 1657.92 476.186C1651.04 474.479 1643.68 469.996 1636.19 464.361C1616.74 450.454 1599.63 427.753 1589.31 409.865L1588.11 407.762H1580.89H1578.66L1577.4 409.598C1573.93 414.678 1572.52 420.623 1572.52 426.739C1572.89 458.821 1608.78 501.193 1620.66 518.238C1624.2 522.624 1626.11 527.427 1630.39 532.849C1633.43 536.915 1637.94 541.537 1644.8 543.821C1649.63 545.326 1654.31 545.998 1658.85 545.998H1659.02C1686.53 545.817 1708.04 522.902 1721.39 514.524C1724.67 511.994 1732.46 508.515 1739.7 504.598C1746.92 500.489 1754.2 496.476 1756.73 489.143L1758 484.906L1753.75 483.828Z" fill="#00468C"/>
<path d="M2127.98 193.121L2130.65 196.402L2127.69 193.366C2126.72 194.329 2125.73 195.301 2124.89 196.146C2121.76 187.829 2118.12 177.792 2118.05 170.426C2118.03 169.336 2118.06 168.299 2118.2 167.38C2121.63 168.053 2124.28 168.801 2126.12 169.838C2131.37 172.703 2135.27 175.643 2139.78 178.764C2137.42 183.286 2132.26 189.721 2127.98 193.121ZM2217.29 231.294L2221.23 231.219L2229.4 232.705C2230.18 234.404 2231.1 236.254 2232.32 238.327C2231.02 241.47 2230.82 244.153 2230.18 245.351C2227.8 247.585 2224.86 248.782 2221.85 248.857C2218.49 248.889 2214.9 247.574 2211.48 243.822C2212.1 238.135 2213.69 235.73 2217.29 231.294ZM2225.5 164.119L2225.57 163.638L2225.51 163.104V162.944C2225.43 160.848 2226.61 157.973 2229.14 154.723L2225.81 152.136L2229.36 154.434C2242.61 132.895 2297.67 114.947 2324.98 105.208C2328 104.642 2329.42 103.551 2331.84 103.551C2333.64 103.594 2335.32 103.904 2337.85 106.587C2340.69 110.393 2341.78 113.963 2341.86 117.566C2341.99 123.178 2339.15 129.314 2335.06 135.556C2328.31 147.005 2320.52 158.454 2313.66 169.069L2313.51 169.315L2313.34 169.71C2304.96 190.983 2291.23 236.018 2267.33 235.185C2266.04 235.206 2264.7 235.131 2263.31 234.917C2260.05 226.526 2257.6 218.829 2255.13 210.994L2254.73 209.807L2253.79 209.048C2249.76 205.734 2245.42 203.917 2242.77 201.651C2240.08 198.679 2235.53 192.351 2232.04 185.232C2227.82 177.941 2225.52 170.897 2225.44 165.755L2225.5 164.119ZM2098.92 366.187L2144.16 337.998L2217.28 291.53C2221.22 290.055 2228.13 289.777 2235.22 289.681C2239.14 289.991 2243.89 290.29 2248.65 290.215C2255.56 290.076 2262.57 289.189 2268.46 285.704C2307.69 263.897 2322.55 215.398 2344.5 181.757C2353.01 168.31 2383.27 125.519 2383 93.4175C2382.88 83.9678 2379.69 74.9136 2371.92 68.7563C2364.18 62.6204 2352.69 59.5311 2336.53 59.7983L2335.72 59.8197L2334.98 60.1297C2316.45 68.2004 2270.68 111.729 2238.05 122.055C2242.23 110.81 2253.92 100.248 2265.91 89.0561C2279.42 76.2177 2293.51 62.0004 2293.27 41.7968L2293.22 40.1613L2293.24 39.8513C2292.72 34.5171 2289.15 31.5133 2284.61 27.5047C2270.61 16.1522 2242.4 2.34103 2222.37 0.288598L2219.26 -2.93727e-05L2218.06 2.86483C2214.78 11.5235 2216.98 24.8108 2215.7 33.4695L2214.09 36.7513L2198.27 72.2305C2193.05 83.9785 2189.35 99.6069 2183 112.05C2176.5 124.557 2168.53 133.087 2153.83 133.451C2147.96 133.547 2140.84 132.253 2132.26 129.004C2129.54 127.913 2128.49 127.945 2126.92 127.24C2109.52 118.955 2099.74 103.263 2081.8 92.3378C2074.27 86.3516 2065.32 84.6519 2058.22 80.4188C2051.04 76.4422 2043.28 68.0829 2030.59 67.0567L2025.98 66.7253L2026.02 69.0342L2021.26 69.1198L2024.59 75.245C2029.7 84.5343 2034.94 94.8606 2040.11 104.31C2050.9 130.244 2065.24 162.74 2065.84 192.725V193.046C2065.93 198.209 2066.38 203.468 2066.47 208.418C2066.62 217.739 2065.39 224.933 2059.52 229.23L2059.34 229.38H2059.13C2040.35 216.617 2030.94 191.164 1995.89 191.635C1991.91 191.699 1987.63 192.105 1983.01 192.896L1981.7 193.131L1980.77 194.051C1980.37 194.286 1978.48 196.306 1978.61 198.53L1978.73 199.802L1978.94 200.86L1979.66 201.704C1993.62 217.878 2015.74 253.56 2017.95 278.243C2017.97 283.47 2017.07 289.264 2017.17 295.411C2017.22 300.755 2018.19 306.528 2021.59 312.129L2021.94 312.749L2022.54 313.23C2029.33 318.789 2036.1 324.348 2042.89 329.917L2044.62 331.36L2046.79 330.697C2052.42 328.784 2054.78 323.824 2056.77 318.693C2062.31 303 2065.34 278.703 2083.6 271.562C2092.73 272.374 2097.82 278.703 2107.51 283.043L2108.33 283.374L2109.24 283.363C2112.21 283.043 2113.31 282.262 2114.36 282.316L2116.99 282.273L2118.09 279.889C2120.88 273.978 2123.44 267.307 2126.02 261.738L2126.32 261.086L2126.39 260.402C2126.89 255.591 2128.2 249.584 2128.87 243.245L2136.28 237.558L2170.29 211.785L2172.85 212.138C2174.74 214.917 2177.32 220.476 2177.24 224.292C2177.25 226.002 2176.92 227.253 2176.26 228.162L2176.11 228.386L2175.97 228.653L2175.92 228.589C2174.79 229.434 2171.42 230.802 2169.35 231.433L2166.21 232.448L2166.5 236.703L2166.62 238.488L2168.05 239.664C2171.16 241.983 2174.95 242.774 2177.86 243.459C2179.16 250.514 2179.84 256.778 2182.39 264.036L2182.5 264.368L2182.7 264.688C2186.58 270.771 2194.66 278.82 2193.83 280.007L2193.72 279.975L2193.17 280.392L2192.82 280.926C2185.77 291.701 2158.73 306.881 2138.9 316.459C2135.48 318.693 2132.77 320.392 2130.49 321.141L2130.04 321.28L2129.69 321.483C2084.19 347.833 2038.87 373.21 1992.84 399.614C1974.85 411.64 1930.64 417.861 1930 450.925C1930.01 451.865 1930.06 452.956 1930.22 454.142L1930.42 455.543L1931.44 456.58C1941.93 466.981 1953.36 476.388 1965.68 484.875C1974.21 489.205 1984.38 489.718 1986.66 493.288L1988.67 495.704L1991.57 494.464C2021.8 481.668 2023.13 465.377 2030.76 458.803C2064.43 429.289 2104.12 405.077 2147.51 383.601C2157.41 379.688 2167.38 374.771 2177.2 370.912C2194.58 363.216 2214.26 351.329 2234.81 351.04C2236.28 351.008 2237.7 351.04 2239.14 351.136L2239.42 351.158C2239.14 354.878 2237.97 358.587 2236.74 361.217C2232.24 370.121 2221.85 375.829 2214.28 384.296C2203.13 398.492 2188.87 411.875 2175.49 423.367C2169.63 427.803 2157.36 432.175 2152.2 441.069C2150.94 444.318 2150.74 447.066 2150.78 449.599C2150.84 452.774 2151.24 455.692 2151.28 458.033C2151.32 459.915 2151.1 461.294 2150.7 462.245L2150.34 463.068V463.175L2149.92 463.646C2143.22 468.552 2119.77 475.714 2111.4 479.798C2098.56 487.74 2085.15 495.458 2071.76 501.231C2042.44 512.925 2004.45 514.015 1983.24 536.934L1981.67 538.655L1982.3 540.932C1984.84 548.672 1994.96 558.495 2007.55 568.212C2020.2 577.577 2034.69 585.861 2047.09 585.808C2048.44 585.808 2049.7 585.647 2050.95 585.434C2068.47 580.826 2081.75 567.71 2091.95 559.169C2105.44 548.041 2135.35 530.542 2158.22 524.769C2159.78 524.214 2161.63 524 2163.75 523.572C2165.77 529.035 2166.8 536.817 2169.16 544.406C2171.13 551.323 2172.1 557.565 2172.2 563.06C2172.36 575.856 2168.07 584.472 2160.41 591.227C2150.4 600.87 2132.45 606.022 2111.87 609.133C2109.52 609.453 2106.92 609.624 2104.18 609.678C2095.15 609.86 2084.72 608.62 2074.74 608.791C2070.72 608.855 2066.75 609.175 2062.93 609.934C2061.04 609.988 2059 611.88 2058.82 612.585L2058.47 613.216L2054.65 617.332L2059.63 619.876C2073.37 626.675 2090.5 628.289 2101.98 635.087C2123.15 647.081 2141.27 656.798 2162.18 668.696L2162.66 668.963L2163.16 669.102C2164.14 669.327 2165.55 669.989 2167.82 670H2167.89C2169.04 669.979 2170.58 669.594 2171.79 668.514C2188.33 655.74 2211.23 612.81 2211.03 580.131C2210.97 576.262 2210.56 572.542 2209.73 569.046C2205.67 551.654 2198.85 533.503 2198.61 517.094C2198.57 514.507 2198.66 512.027 2198.97 509.633C2200.03 508.371 2207.24 504.844 2214.24 502.92C2221.72 500.632 2229.86 499.018 2231.66 498.986L2266.9 498.376L2267.57 498.12C2282.87 491.973 2287.06 476.217 2293.14 467.697L2293.33 467.43L2293.5 467.088C2294.39 465.11 2294.83 463.154 2294.8 461.347C2294.59 454.741 2288.77 452.133 2288.65 451.791L2288.32 451.513L2287.94 451.31C2280.17 447.034 2271.59 445.826 2263.23 445.975C2257.39 446.072 2251.59 446.799 2246.09 447.729C2240.07 448.765 2235.1 449.802 2230.2 450.807L2186.43 451.566L2186.32 451.427C2185.37 450.615 2184.1 446.873 2184.14 444.126L2184.34 441.945L2184.42 441.667C2196.29 430.454 2219.27 426.114 2236.06 414.89C2238.6 413.211 2242.57 411.234 2245.87 409.107C2263.02 395.114 2277.56 380.618 2293.1 367.213C2300.09 360.703 2319.43 346.753 2319.64 328.559C2319.59 324.626 2318.41 320.596 2315.99 316.876C2310.21 305.726 2298.22 302.113 2286.58 302.402C2270.59 302.733 2253.54 309.35 2243.75 314.706C2241.22 316.448 2238.3 317.292 2235.38 319.772C2206.76 334.214 2174.7 346.048 2142.66 358.897C2130.74 364.755 2117.66 369.726 2106.36 376.791C2098.92 380.33 2073.9 395.178 2066 395.274L2065.84 395.135C2067.84 383.441 2086.84 374.654 2098.92 366.187Z" fill="#00468C"/>
<path d="M1140.88 399.319C1140.1 394.05 1135.35 388.74 1131 385.838C1124.63 381.6 1114.68 384.345 1107.43 383.367C1088.27 380.801 1070.65 374.323 1052.72 367.551C1045.76 364.933 1031.43 363.198 1026.17 357.645C1024.16 359.097 1026.17 357.645 1026.17 361.515C1026.71 363.524 1030.7 368.413 1039.24 381.758C1049.78 398.257 1061.58 412.306 1056.42 415.355C1042.41 423.62 1026.17 427.238 1011.94 435.24C1007.04 437.995 1003.48 439.951 999.027 442.706C994.561 445.472 992.78 447.06 987.05 446.975C981.32 446.881 974.325 443.137 970.48 436.618C966.635 430.087 966.266 426.849 972.934 423.326C979.634 419.782 995.193 408.762 994.476 399.855C993.76 390.969 990.484 391.926 985.712 386.994C980.961 382.105 969.606 403.525 970.606 370.864C970.659 369.328 970.048 365.742 970.722 365.091C971.365 363.114 986.997 359.885 988.778 359.202C990.2 358.392 992.148 357.351 995.087 355.837C1002.42 352.041 1019.39 344.007 1025.32 336.856C1027.05 334.764 1028.21 323.407 1028.3 321.472C1028.43 319.011 1030.42 313.869 1020.33 311.545C1010.25 309.232 1013.99 314.027 1003.49 318.685C992.991 323.344 967.962 330.305 967.962 330.305C967.962 330.305 967.425 321.987 966.235 314.29C965.95 312.397 965.592 310.073 965.687 308.107L965.729 307.286C965.729 307.286 966.804 298.653 979.834 283.121C993.054 267.317 1048.38 241.995 1067.22 234.455C1086.07 226.926 1118.13 214.718 1124.55 212.572C1130.96 210.406 1129.75 201.794 1123.35 193.182C1117.18 184.885 1110.98 190.816 1104.09 193.802C1095.8 197.419 1086.42 196.862 1077.84 199.502C1069.11 202.194 1060.75 206.431 1052.39 210.049C1040.76 215.075 1017.89 226.558 1010.3 229.071C1002.68 231.595 992.254 238.767 987.05 241.269C981.836 243.793 981.836 241.648 985.839 231.942C989.852 222.257 1005.09 218.314 1011.1 216.884C1017.1 215.433 1025.91 208.619 1035.55 201.079C1050.07 189.69 1060.26 174.275 1071.66 160.015C1077.55 152.655 1084.35 145.62 1089.87 138.038C1094.23 132.044 1098.52 125.146 1099.87 117.753C1101.34 109.646 1097.31 106.165 1092.48 100.213C1084.04 89.7818 1064.49 98.0261 1054.08 100.35C1051.23 100.981 1047.24 101.286 1044.81 103.01C1038.66 107.385 1030.38 122.98 1020.31 119.604C1017.1 118.521 1017.5 101.296 1016.7 91.2435C1015.9 81.2011 1004.29 75.0916 992.254 66.4793C980.235 57.867 963.791 41 946.557 41C929.313 41 924.9 74.7341 923.699 86.5851C922.877 94.6296 923.214 102.748 922.372 110.781C921.592 118.248 918.916 125.219 917.631 132.57C915.398 145.357 922.645 170.983 906.465 177.387C902.852 178.828 902.852 184.569 900.061 189.238C897.248 193.897 886.019 201.794 889.232 207.546C892.445 213.277 904.053 202.151 906.465 201.794C908.867 201.436 912.48 207.882 913.281 209.323C916.673 215.391 913.776 227.347 913.955 234.056C914.281 245.77 916.873 258.431 915.198 270.082C914.26 276.581 879.098 281.544 868.438 284.867C856.102 289.441 868.122 301.545 871.872 308.022C873.304 309.305 868.438 310.02 907.392 313.522C908.477 313.617 908.762 321.451 909.383 324.868C910.521 331.672 912.48 338.728 912.269 345.647C912.269 345.647 894.035 353.418 894.362 359.486C894.688 365.553 893.719 370.779 901.63 372.115C909.531 373.45 914.766 376.363 914.766 376.363C914.766 376.363 917.252 382.883 917.958 394.187C918.337 400.044 916.641 400.034 916.694 401.422C916.82 403.409 903.663 407.437 901.704 409.256C895.057 415.502 897.332 426.712 908.92 434.977C913.239 438.048 917.494 433.452 919.928 437.364C923.309 442.759 917.737 452.664 916.81 454.746C913.597 461.96 907.203 473.559 896.089 478.648C884.976 483.717 874.221 491.046 840.744 491.909C835.877 492.024 832.475 497.366 831 503.066C832.117 506.567 832.928 510.29 831.727 515.411L832.801 516.41C838.458 519.733 846.327 523.497 851.531 528.829C856.682 534.16 853.722 538.156 867.195 538.366C886.577 538.682 887.746 524.149 903.6 524.812C919.454 525.464 907.719 539.407 907.603 545.864C907.466 552.636 900.292 560.06 897.606 566.054C890.664 581.554 899.45 601.187 908.941 613.605C916.167 623.038 933.79 650.484 948.601 639.411C954.416 635.057 972.587 606.665 978.054 596.255C983.553 585.834 985.881 579.02 986.028 570.923C986.186 562.847 975.536 496.462 980.477 491.688C988.862 483.591 1006.57 481.782 1017.2 477.786C1036.13 470.678 1055.26 462.37 1073.55 453.779C1080.11 450.708 1086.49 447.27 1092.92 443.957C1100.91 439.814 1107.63 433.621 1115.54 429.267C1122.1 425.65 1131.59 421.969 1135.28 414.955C1138.51 408.972 1141.67 404.566 1140.88 399.319ZM1014.2 155.052C1018.74 145.094 1037.7 138.448 1037.7 138.448C1040.99 148.038 1027.4 158.743 1025.75 160.594C1024.11 162.445 1024.11 165.389 1023.28 168.344C1022.44 171.309 1015.84 174.243 1015.84 174.243C1015.84 174.243 1009.66 165.021 1014.2 155.052Z" fill="#00468C"/>
<path d="M866.426 286.917L865.709 286.243L864.054 284.42C862.051 281.206 847.599 279.404 846.903 275.748C844.826 265.158 834.485 261.28 828.381 261.153C822.277 260.995 811.367 256.138 807.814 254.146C804.251 252.144 792.044 249.309 786.109 245.137C780.195 240.953 783.189 226.296 782.461 221.681C781.576 215.917 787.447 207.044 789.819 202.144C796.134 189.141 810.112 176.001 824.755 173.283C835.296 171.312 844.531 171.123 849.949 160.238C862.863 134.295 833.525 115.686 812.98 109.29C802.67 106.097 797.568 102.082 791.97 100.554C786.372 99.0157 768.715 94.5479 761.135 91.7239C753.545 88.8999 739.367 83.8842 733.136 89.6586C726.885 95.4331 734.96 101.387 749.455 114.348C756.276 120.438 760.766 126.982 762.189 136.023C763.518 144.379 764.119 149.458 770.17 155.822C777.496 163.515 783.832 169.257 783.6 180.669C783.347 192.692 774.808 219.257 772.383 224.051C769.98 228.783 764.92 231.47 762.179 236.032C751.057 254.578 754.715 270.268 765.362 287.602C773.849 301.438 779.773 328.276 781.333 340.657C782.893 353.028 777.38 383.207 775.24 392.079C773.09 400.931 768.209 419.35 763.128 450.108C758.057 480.877 755.833 486.884 752.723 487.368C749.634 487.843 744.722 501.541 743.088 506.852C741.148 513.206 747.241 523.459 748.232 529.939C750.225 543.111 747.399 572.563 769.727 567.399C791.105 562.426 788.755 556.251 795.185 531.899C800.203 512.9 808.046 501.499 811.577 481.088C815.088 460.667 818.925 460.382 819.336 454.007C819.747 447.643 817.428 439.476 817.502 421.795C817.576 404.124 817.787 376.01 817.628 365.947C817.481 355.873 819.031 347.749 820.549 334.893C822.077 322.027 831.828 314.525 840.03 310.731C842.802 309.446 866.563 305.768 869.547 305.305C870.833 305.094 868.882 302.312 869.757 301.343L866.858 299.509C866.468 296.19 868.081 292.512 867.997 292.344L867.523 290.278C867.27 288.93 867.196 287.844 866.426 286.917ZM806.855 361.532C807.066 366.505 791.633 422.005 788.438 426.505C785.213 431.004 784.675 431.089 783.99 426.695C783.305 422.29 786.625 411.257 790.515 389.614C794.447 367.97 807.751 349.361 807.751 349.361C808.731 355.726 806.633 356.548 806.855 361.532Z" fill="#00468C"/>
</g>
<defs>
<clipPath id="clip0_70_33">
<rect width="2383" height="670" fill="white"/>
</clipPath>
</defs>
</svg>
