<svg width="2386" height="270" viewBox="0 0 2386 270" fill="none" xmlns="http://www.w3.org/2000/svg">
<g clip-path="url(#clip0_70_47)">
<rect width="2386" height="270" fill="white"/>
<path d="M2386 61.6232H2335.62L2316.65 131.379C2314.48 139.811 2311.99 150.274 2310.12 158.115H2308.87C2307.01 150.557 2303.9 139.811 2301.41 131.67L2278.71 61.6232H2226.15L2282.13 191.836C2283.69 195.324 2284 197.364 2284 199.103C2284 200.843 2283.06 203.174 2281.51 205.496C2277.17 212.472 2264.1 228.348 2245.78 231.738L2236.59 269.998C2259.57 270.157 2280.88 261.883 2297.06 248.515C2314.16 234.272 2328.78 211.889 2350.54 155.21L2386 61.6232ZM2179.1 145.621V94.1699H2213V61.6232H2179.1V45.0497H2132.76V61.6232H2112.55V94.1699H2132.76V152.305C2132.76 172.358 2137.12 186.026 2145.83 194.45C2153.6 201.726 2166.34 206.662 2181.59 206.662C2194.65 206.662 2201.78 205.796 2207.7 203.757L2216.63 168.499C2212.28 169.382 2204.29 170.618 2197.77 170.618C2183.76 170.618 2179.1 162.76 2179.1 145.621ZM2093.52 22.0922C2093.2 9.59801 2083.88 3.80242e-06 2068.65 3.80242e-06C2053.4 3.80242e-06 2043.45 9.59801 2043.45 22.0922C2043.45 34.295 2053.09 44.1844 2068.01 44.1844C2083.88 44.1844 2093.52 34.295 2093.52 22.0922ZM1953.7 100.28C1953.7 93.3045 1960.23 88.9426 1971.74 88.9426C1984.47 88.9426 1997.86 93.5959 2004.69 97.0749L2012.78 66.5679C2003.46 62.206 1987.9 58.1354 1970.18 58.1354C1932.55 58.1354 1908.29 78.1968 1908.29 104.925C1907.98 121.789 1920.11 137.78 1951.83 147.652C1969.25 153.179 1973.91 156.658 1973.91 164.226C1973.91 171.484 1968 175.846 1953.7 175.846C1939.7 175.846 1921.65 170.327 1912.96 165.382L1904.56 196.772C1916.07 202.582 1933.79 206.944 1953.7 206.944C1997.23 206.944 2019.31 187.474 2019.31 160.729C2019.01 140.103 2007.19 126.151 1978.27 116.845C1959.6 110.743 1953.7 107.247 1953.7 100.28ZM1884.21 99.7238L1894.33 59.7513C1890.91 59.1597 1884.88 58.1354 1880.52 58.1354C1865.59 58.1354 1847.26 66.8504 1839.48 87.7771H1838.23L1836.36 61.6232H1795.93C1796.86 73.8348 1797.17 87.4857 1797.17 108.412V203.757H1844.44V131.67C1844.44 128.182 1844.76 124.694 1845.39 121.789C1848.48 108.13 1860.3 99.4059 1877.73 99.4059C1883.02 99.4059 1880.46 99.141 1884.21 99.7238ZM1769.29 146.787C1769.9 143.59 1770.83 136.897 1770.83 129.339C1770.83 94.1699 1752.18 58.418 1703.04 58.418C1650.17 58.418 1626.23 98.2404 1626.23 134.284C1626.23 178.751 1655.77 206.662 1707.4 206.662C1727.92 206.662 1746.88 203.757 1762.45 197.655L1756.21 167.713C1743.47 171.784 1730.4 173.815 1714.24 173.815C1692.16 173.815 1672.56 165.091 1671.32 146.787H1769.29ZM1726.99 116.553H1671.01C1672.24 104.925 1680.34 87.7771 1700.23 87.7771C1722.01 87.7771 1726.99 105.799 1726.99 116.553ZM1565.39 203.757L1621.99 61.6232H1572.23L1552.65 127.599C1549.22 139.811 1546.73 150.557 1544.24 162.195H1543.31C1540.83 150.848 1538.34 139.811 1534.6 127.599L1514.08 61.6232H1462.77L1518.12 203.757H1565.39ZM1445.76 22.0922C1445.44 9.59801 1436.12 3.80242e-06 1420.89 3.80242e-06C1405.64 3.80242e-06 1395.69 9.59801 1395.69 22.0922C1395.69 34.295 1405.33 44.1844 1420.25 44.1844C1436.12 44.1844 1445.76 34.295 1445.76 22.0922ZM1315.83 203.757H1363.1V119.759C1363.1 77.8965 1339.77 58.418 1308.66 58.418C1283.17 58.418 1267.93 72.0865 1261.71 81.3843H1260.78L1258.6 61.6232H1217.56C1218.17 74.4088 1218.78 89.234 1218.78 106.964V203.757H1266.06V121.789C1266.06 117.719 1266.37 113.648 1267.62 110.743C1271.04 102.602 1278.82 94.1699 1291.88 94.1699C1308.98 94.1699 1315.83 106.673 1315.83 124.977V203.757ZM1183.78 117.719V7.84087H1136.51V120.333C1136.51 155.21 1122.82 171.484 1097.95 171.484C1074 171.484 1060 154.345 1060 120.333V7.84087H1012.73V117.136C1012.73 179.342 1043.52 206.944 1096.39 206.944C1151.13 206.944 1183.78 178.177 1183.78 117.719ZM864.52 203.757H911.772V119.759C911.772 77.8965 888.453 58.418 857.364 58.418C831.858 58.418 816.625 72.0865 810.409 81.3843H809.479L807.292 61.6232H766.237C766.86 74.4088 767.493 89.234 767.493 106.964V203.757H814.764V121.789C814.764 117.719 815.062 113.648 816.318 110.743C819.733 102.602 827.503 94.1699 840.568 94.1699C857.68 94.1699 864.52 106.673 864.52 124.977V203.757ZM734.707 22.0922C734.4 9.59801 725.066 3.80242e-06 709.834 3.80242e-06C694.591 3.80242e-06 684.634 9.59801 684.634 22.0922C684.634 34.295 694.284 44.1844 709.201 44.1844C725.066 44.1844 734.707 34.295 734.707 22.0922ZM653.411 22.0922C653.114 9.59801 643.781 3.80242e-06 628.539 3.80242e-06C613.296 3.80242e-06 603.359 9.59801 603.359 22.0922C603.359 34.295 612.989 44.1844 627.915 44.1844C643.781 44.1844 653.411 34.295 653.411 22.0922ZM604.903 176.137C604.903 196.949 603.541 208.533 600.078 215.889C595.119 224.789 584.155 229.61 572.653 231.738L563.464 269.998C575.138 270.086 611.598 265.291 630.706 248.797C644.951 236.515 652.174 217.708 652.174 186.892V61.6232H604.903V176.137ZM520.375 203.757H567.637V119.759C567.637 77.8965 544.327 58.418 513.219 58.418C487.723 58.418 472.49 72.0865 466.265 81.3843H465.325L463.157 61.6232H422.102C422.725 74.4088 423.349 89.234 423.349 106.964V203.757H470.62V121.789C470.62 117.719 470.927 113.648 472.174 110.743C475.588 102.602 483.368 94.1699 496.423 94.1699C513.536 94.1699 520.375 106.673 520.375 124.977V203.757ZM349.708 203.757H392.308C390.437 195.907 389.814 182.821 389.814 169.453V119.759C389.814 86.0376 373.958 58.1354 323.272 58.1354C295.588 58.1354 274.763 65.3935 264.183 70.921L272.883 99.4059C282.84 93.5959 299.329 88.6512 314.869 88.6512C338.188 88.6512 342.552 99.4059 342.552 107.247V108.995C288.749 108.995 253.296 126.434 253.296 163.351C253.296 186.026 271.646 206.944 302.437 206.944C320.461 206.944 336.02 200.843 345.977 189.505H346.907L349.708 203.757ZM344.097 152.014C344.097 154.628 343.799 157.25 343.166 159.572C340.058 168.579 330.111 175.846 318.6 175.846C308.029 175.846 299.943 170.327 299.943 158.989C299.943 142.142 319.224 136.606 344.097 136.606V152.014ZM230.504 22.0922C230.197 9.59801 220.864 3.80242e-06 205.622 3.80242e-06C190.389 3.80242e-06 180.432 9.59801 180.432 22.0922C180.432 34.295 190.072 44.1844 205.008 44.1844C220.864 44.1844 230.504 34.295 230.504 22.0922ZM103.866 45.0497H161.084V7.84087H0V45.0497H56.5949V203.757H103.866V45.0497ZM228.941 61.6232H181.67V203.757H228.941V61.6232ZM733.153 61.6232H685.882V203.757H733.153V61.6232ZM1444.2 61.6232H1396.93V203.757H1444.2V61.6232ZM2091.96 61.6232H2044.69V203.757H2091.96V61.6232Z" fill="#00468C"/>
</g>
<defs>
<clipPath id="clip0_70_47">
<rect width="2386" height="270" fill="white"/>
</clipPath>
</defs>
</svg>
