<svg width="2386" height="1024" viewBox="0 0 2386 1024" fill="none" xmlns="http://www.w3.org/2000/svg">
<g clip-path="url(#clip0_33_42)">
<rect width="2386" height="1024" fill="white"/>
<path d="M271.236 232.963C271.236 232.963 272.542 229.226 273.516 228.575C285.677 222.863 294.894 237.03 291.35 238.173C288.642 239.059 266.333 255.991 266.333 255.991C264.17 245.305 271.236 232.963 271.236 232.963ZM518.426 506.35C506.532 507.097 502.828 507.097 479.813 509.307C456.807 511.528 423.397 511.528 419.682 509.307C415.989 507.097 401.88 489.332 392.224 476.018C382.579 462.694 330.627 396.822 317.257 373.879C303.897 350.946 277.915 289.515 277.915 289.515C277.915 289.515 299.454 270.276 337.296 248.817C375.149 227.347 378.125 216.254 379.613 208.856C381.101 201.457 381.829 192.574 365.515 199.973C349.179 207.372 312.075 206.635 309.089 206.635C306.123 206.635 299.454 205.14 292.763 210.329C286.083 215.507 276.331 212.603 276.331 212.603C276.331 212.603 271.236 209.592 271.236 202.183C271.236 194.784 257.137 180.734 257.137 180.734C272.724 186.649 312.814 161.485 326.902 147.425C341.011 133.353 369.957 108.189 380.352 96.3493C390.747 84.5307 402.618 89.7087 412.274 66.7654C418.462 52.0535 415.058 63.5092 420.068 47.8257C425.067 32.1423 420.068 30.7224 411.493 27.1458C402.908 23.58 389.323 29.2811 375.727 31.4269C362.143 33.5622 344.983 37.1174 337.125 38.5694C329.246 39.9787 333.55 39.9787 315.661 50.6656C297.784 61.3739 271.332 69.2103 247.01 79.9078C222.71 90.6055 210.549 92.7408 203.398 92.7408C196.247 92.7408 190.53 90.6055 182.662 103.438C177.513 111.83 183.979 119.239 190.049 124.759C197.456 131.506 200.657 136.876 206.438 144.905C211.212 151.535 219.969 152.923 224.133 160.471C224.133 160.471 216.993 159.756 206.267 160.471C195.529 161.176 198.388 176.154 198.388 184.717C198.388 193.258 199.105 219.649 196.953 228.201C194.823 236.753 195.529 248.87 195.529 260.283C195.529 271.685 189.588 302.839 189.588 302.839C179.194 313.942 84.9357 370.921 68.5998 380.541C52.2639 390.16 18.8749 371.669 18.8642 371.669C7.20641 391.601 25.587 430.014 39.4821 445.121C47.7678 454.132 59.5862 462.94 70.8265 467.872C89.389 476.018 119.759 464.968 140.591 441.224C161.38 417.534 187.362 374.615 187.362 374.615C190.327 409.399 187.362 432.342 156.927 507.097C126.493 581.841 86.413 581.841 64.1465 587.756C41.8801 593.671 6.25367 590.713 3.27767 601.817C-1.57172 619.934 58.2052 636.6 96.069 629.201C120.616 624.397 141.897 600.728 157.998 583.293C180.286 559.176 203.355 533.884 213.364 501.919C221.661 475.442 227.034 447.769 232.226 420.566C234.721 407.498 237.183 394.409 239.324 381.277C244.516 349.451 253.422 308.764 253.422 308.764C253.422 308.764 277.915 418.292 293.502 467.872C309.089 517.453 349.179 576.653 374.421 583.315C399.643 589.977 433.064 561.119 441.221 558.162C449.378 555.194 491.695 538.902 513.951 530.777C536.228 522.631 530.298 505.602 518.426 506.35Z" fill="#00468C"/>
<path d="M1598.49 359.851L1598.78 359.67C1607.76 353.362 1623.11 346.574 1638.57 338.847L1636.69 335.09L1638.68 338.804C1661.93 326.008 1691.66 308.386 1701.66 291.139L1702 290.531L1702.14 289.848L1702.3 287.777C1701.68 278.161 1692.74 272.899 1682.88 267.37C1672.81 262.034 1660.62 257.391 1651.33 253.752C1650.39 253.453 1630.01 248.138 1622.6 246.27L1622.1 246.142H1621.57C1620.31 246.014 1618.28 246.953 1617.53 248.319C1616.71 249.611 1616.71 250.603 1616.7 251.361C1616.92 255.491 1619.08 259.793 1621.14 265.535C1623.2 270.935 1625.1 276.955 1625.04 279.74L1624.89 280.978C1622.26 288.631 1599.32 303.509 1586.7 310.19C1592.65 262.237 1620.56 224.775 1626.45 176.021L1626.64 174.473L1625.78 173.192C1614.53 157.14 1573.4 128.74 1548.55 127.085L1546.67 127L1545.34 128.345C1543.91 129.892 1543.69 131.205 1543.41 131.91L1543.25 132.379L1542.76 132.859L1542.44 133.863C1540.54 139.861 1539.92 146.169 1539.92 152.583C1539.94 166.191 1542.58 180.493 1542.54 194.037C1542.54 198.957 1542.2 203.738 1541.34 208.392C1532.77 256.046 1527.05 303.456 1515.89 348.741C1487.65 366.597 1456.72 383.364 1423.13 395.51C1410.14 400.889 1392.98 399.106 1375.64 404.966C1374.33 405.147 1373.62 405.649 1373.2 405.809L1373.15 405.852H1368.74L1369.51 410.729C1373.53 433.303 1381.54 467.05 1407.24 468.235C1408.86 468.235 1410.48 468.064 1412.12 467.787C1427.76 464.82 1442.34 457.178 1456.83 446.377C1470.48 436.174 1484.31 427.07 1499.51 418.403C1495.17 463.357 1475.59 486.592 1447.31 502.741C1417.62 519.582 1377.94 527.566 1337.81 540.619L1336.09 541.163L1335.31 542.775C1334.84 543.959 1333.06 545.795 1333 549.445V551.836L1335.08 553.074C1348.3 560.631 1367.73 560.289 1381.76 562.274C1386.96 562.765 1391.94 563 1396.85 563C1470.51 562.904 1525.25 509.443 1545.55 456.751C1554.15 429.14 1562.61 401.775 1571.1 375.359C1580.24 369.895 1589.28 364.483 1598.23 359.99L1598.49 359.851ZM1756.75 483.828C1748.79 481.832 1742.07 480.882 1734.65 479.015L1733.63 483.113L1734.42 478.972C1728.61 477.851 1722.9 477.478 1717.29 477.478C1705.33 477.478 1693.88 479.1 1682.74 479.089C1675.4 479.089 1668.17 478.385 1660.92 476.186C1654.04 474.479 1646.68 469.996 1639.19 464.361C1619.74 450.454 1602.63 427.753 1592.31 409.865L1591.11 407.762H1583.89H1581.66L1580.4 409.598C1576.93 414.678 1575.52 420.623 1575.52 426.739C1575.89 458.821 1611.78 501.193 1623.66 518.238C1627.2 522.624 1629.11 527.427 1633.39 532.849C1636.43 536.915 1640.94 541.537 1647.8 543.821C1652.63 545.326 1657.31 545.998 1661.85 545.998H1662.02C1689.53 545.817 1711.04 522.902 1724.39 514.524C1727.67 511.994 1735.46 508.515 1742.7 504.598C1749.92 500.489 1757.2 496.476 1759.73 489.143L1761 484.906L1756.75 483.828Z" fill="#00468C"/>
<path d="M2130.98 193.121L2133.65 196.402L2130.69 193.366C2129.72 194.329 2128.73 195.301 2127.89 196.146C2124.76 187.829 2121.12 177.792 2121.05 170.426C2121.03 169.336 2121.06 168.299 2121.2 167.38C2124.63 168.053 2127.28 168.801 2129.12 169.838C2134.37 172.703 2138.27 175.643 2142.78 178.764C2140.42 183.286 2135.26 189.721 2130.98 193.121ZM2220.29 231.294L2224.23 231.219L2232.4 232.705C2233.18 234.404 2234.1 236.254 2235.32 238.327C2234.02 241.47 2233.82 244.153 2233.18 245.351C2230.8 247.585 2227.86 248.782 2224.85 248.857C2221.49 248.889 2217.9 247.574 2214.48 243.822C2215.1 238.135 2216.69 235.73 2220.29 231.294ZM2228.5 164.119L2228.57 163.638L2228.51 163.104V162.944C2228.43 160.848 2229.61 157.973 2232.14 154.723L2228.81 152.136L2232.36 154.435C2245.61 132.895 2300.67 114.947 2327.98 105.208C2331 104.642 2332.42 103.551 2334.84 103.551C2336.64 103.594 2338.32 103.904 2340.85 106.587C2343.69 110.393 2344.78 113.963 2344.86 117.566C2344.99 123.178 2342.15 129.314 2338.06 135.556C2331.31 147.005 2323.52 158.454 2316.66 169.069L2316.51 169.315L2316.34 169.71C2307.96 190.983 2294.23 236.018 2270.33 235.185C2269.04 235.206 2267.7 235.131 2266.31 234.917C2263.05 226.526 2260.6 218.829 2258.13 210.994L2257.73 209.807L2256.79 209.048C2252.76 205.734 2248.42 203.917 2245.77 201.651C2243.08 198.679 2238.53 192.351 2235.04 185.232C2230.82 177.941 2228.52 170.897 2228.44 165.755L2228.5 164.119ZM2101.92 366.187L2147.16 337.998L2220.28 291.53C2224.22 290.055 2231.13 289.777 2238.22 289.681C2242.14 289.991 2246.89 290.29 2251.65 290.215C2258.56 290.076 2265.57 289.189 2271.46 285.704C2310.69 263.897 2325.55 215.398 2347.5 181.757C2356.01 168.31 2386.27 125.519 2386 93.4175C2385.88 83.9678 2382.69 74.9136 2374.92 68.7563C2367.18 62.6204 2355.69 59.5311 2339.53 59.7983L2338.72 59.8197L2337.98 60.1297C2319.45 68.2004 2273.68 111.729 2241.05 122.055C2245.23 110.81 2256.92 100.248 2268.91 89.0561C2282.42 76.2177 2296.51 62.0004 2296.27 41.7968L2296.22 40.1613L2296.24 39.8513C2295.72 34.5171 2292.15 31.5133 2287.61 27.5046C2273.61 16.1522 2245.4 2.341 2225.37 0.288574L2222.26 0L2221.06 2.86481C2217.78 11.5235 2219.98 24.8109 2218.7 33.4695L2217.09 36.7513L2201.27 72.2305C2196.05 83.9785 2192.35 99.6069 2186 112.05C2179.5 124.557 2171.53 133.087 2156.83 133.451C2150.96 133.547 2143.84 132.253 2135.26 129.004C2132.54 127.913 2131.49 127.945 2129.92 127.24C2112.52 118.955 2102.74 103.263 2084.8 92.3378C2077.27 86.3516 2068.32 84.6519 2061.22 80.4188C2054.04 76.4423 2046.28 68.0829 2033.59 67.0566L2028.98 66.7253L2029.02 69.0342L2024.26 69.1198L2027.59 75.245C2032.7 84.5344 2037.94 94.8607 2043.11 104.31C2053.9 130.244 2068.24 162.74 2068.84 192.725V193.046C2068.93 198.209 2069.38 203.468 2069.47 208.418C2069.62 217.739 2068.39 224.933 2062.52 229.23L2062.34 229.38H2062.13C2043.35 216.617 2033.94 191.164 1998.89 191.635C1994.91 191.699 1990.63 192.105 1986.01 192.896L1984.7 193.131L1983.77 194.051C1983.37 194.286 1981.48 196.306 1981.61 198.53L1981.73 199.802L1981.94 200.86L1982.66 201.704C1996.62 217.878 2018.74 253.56 2020.95 278.243C2020.97 283.47 2020.07 289.264 2020.17 295.411C2020.22 300.755 2021.19 306.528 2024.59 312.129L2024.94 312.749L2025.54 313.23C2032.33 318.789 2039.1 324.348 2045.89 329.917L2047.62 331.36L2049.79 330.697C2055.42 328.784 2057.78 323.824 2059.77 318.693C2065.31 303 2068.34 278.703 2086.6 271.562C2095.73 272.374 2100.82 278.703 2110.51 283.043L2111.33 283.374L2112.24 283.363C2115.21 283.043 2116.31 282.262 2117.36 282.316L2119.99 282.273L2121.09 279.889C2123.88 273.978 2126.44 267.307 2129.02 261.738L2129.32 261.086L2129.39 260.402C2129.89 255.591 2131.2 249.584 2131.87 243.245L2139.28 237.558L2173.29 211.785L2175.85 212.138C2177.74 214.917 2180.32 220.476 2180.24 224.292C2180.25 226.002 2179.92 227.253 2179.26 228.162L2179.11 228.386L2178.97 228.653L2178.92 228.589C2177.79 229.434 2174.42 230.802 2172.35 231.433L2169.21 232.448L2169.5 236.703L2169.62 238.488L2171.05 239.664C2174.16 241.983 2177.95 242.774 2180.86 243.459C2182.16 250.514 2182.84 256.778 2185.39 264.036L2185.5 264.368L2185.7 264.688C2189.58 270.771 2197.66 278.82 2196.83 280.007L2196.72 279.975L2196.17 280.392L2195.82 280.926C2188.77 291.701 2161.73 306.881 2141.9 316.459C2138.48 318.693 2135.77 320.392 2133.49 321.141L2133.04 321.28L2132.69 321.483C2087.19 347.833 2041.87 373.21 1995.84 399.614C1977.85 411.64 1933.64 417.861 1933 450.925C1933.01 451.865 1933.06 452.956 1933.22 454.142L1933.42 455.543L1934.44 456.58C1944.93 466.981 1956.36 476.388 1968.68 484.875C1977.21 489.205 1987.38 489.718 1989.66 493.288L1991.67 495.704L1994.57 494.464C2024.8 481.668 2026.13 465.377 2033.76 458.803C2067.43 429.289 2107.12 405.077 2150.51 383.601C2160.41 379.688 2170.38 374.771 2180.2 370.912C2197.58 363.216 2217.26 351.329 2237.81 351.04C2239.28 351.008 2240.7 351.04 2242.14 351.136L2242.42 351.158C2242.14 354.878 2240.97 358.587 2239.74 361.217C2235.24 370.121 2224.85 375.829 2217.28 384.296C2206.13 398.492 2191.87 411.875 2178.49 423.367C2172.63 427.803 2160.36 432.175 2155.2 441.069C2153.94 444.318 2153.74 447.066 2153.78 449.599C2153.84 452.774 2154.24 455.692 2154.28 458.033C2154.32 459.915 2154.1 461.294 2153.7 462.245L2153.34 463.068V463.175L2152.92 463.646C2146.22 468.552 2122.77 475.714 2114.4 479.798C2101.56 487.74 2088.15 495.458 2074.76 501.231C2045.44 512.925 2007.45 514.015 1986.24 536.934L1984.67 538.655L1985.3 540.932C1987.84 548.672 1997.96 558.495 2010.55 568.212C2023.2 577.577 2037.69 585.861 2050.09 585.808C2051.44 585.808 2052.7 585.647 2053.95 585.434C2071.47 580.826 2084.75 567.71 2094.95 559.169C2108.44 548.041 2138.35 530.542 2161.22 524.769C2162.78 524.214 2164.63 524 2166.75 523.572C2168.77 529.035 2169.8 536.817 2172.16 544.406C2174.13 551.323 2175.1 557.565 2175.2 563.06C2175.36 575.856 2171.07 584.472 2163.41 591.227C2153.4 600.87 2135.45 606.022 2114.87 609.133C2112.52 609.453 2109.92 609.624 2107.18 609.678C2098.15 609.86 2087.72 608.62 2077.74 608.791C2073.72 608.855 2069.75 609.175 2065.93 609.934C2064.04 609.988 2062 611.88 2061.82 612.585L2061.47 613.216L2057.65 617.332L2062.63 619.876C2076.37 626.675 2093.5 628.289 2104.98 635.087C2126.15 647.081 2144.27 656.798 2165.18 668.696L2165.66 668.963L2166.16 669.102C2167.14 669.327 2168.55 669.989 2170.82 670H2170.89C2172.04 669.979 2173.58 669.594 2174.79 668.514C2191.33 655.74 2214.23 612.81 2214.03 580.131C2213.97 576.262 2213.56 572.542 2212.73 569.046C2208.67 551.654 2201.85 533.503 2201.61 517.094C2201.57 514.507 2201.66 512.027 2201.97 509.633C2203.03 508.371 2210.24 504.844 2217.24 502.92C2224.72 500.632 2232.86 499.018 2234.66 498.986L2269.9 498.376L2270.57 498.12C2285.87 491.973 2290.06 476.217 2296.14 467.697L2296.33 467.43L2296.5 467.088C2297.39 465.11 2297.83 463.154 2297.8 461.347C2297.59 454.741 2291.77 452.133 2291.65 451.791L2291.32 451.513L2290.94 451.31C2283.17 447.034 2274.59 445.826 2266.23 445.975C2260.39 446.072 2254.59 446.799 2249.09 447.729C2243.07 448.765 2238.1 449.802 2233.2 450.807L2189.43 451.566L2189.32 451.427C2188.37 450.615 2187.1 446.873 2187.14 444.126L2187.34 441.945L2187.42 441.667C2199.29 430.454 2222.27 426.114 2239.06 414.89C2241.6 413.211 2245.57 411.234 2248.87 409.107C2266.02 395.114 2280.56 380.618 2296.1 367.213C2303.09 360.703 2322.43 346.753 2322.64 328.559C2322.59 324.626 2321.41 320.596 2318.99 316.876C2313.21 305.726 2301.22 302.113 2289.58 302.402C2273.59 302.733 2256.54 309.35 2246.75 314.706C2244.22 316.448 2241.3 317.292 2238.38 319.772C2209.76 334.214 2177.7 346.048 2145.66 358.897C2133.74 364.755 2120.66 369.726 2109.36 376.791C2101.92 380.33 2076.9 395.178 2069 395.274L2068.84 395.135C2070.84 383.44 2089.84 374.654 2101.92 366.187Z" fill="#00468C"/>
<path d="M1143.88 399.319C1143.1 394.05 1138.35 388.74 1134 385.838C1127.63 381.6 1117.68 384.345 1110.43 383.367C1091.27 380.801 1073.65 374.323 1055.72 367.551C1048.76 364.933 1034.43 363.198 1029.17 357.645C1027.16 359.097 1029.17 357.645 1029.17 361.515C1029.71 363.524 1033.7 368.413 1042.24 381.758C1052.78 398.257 1064.58 412.306 1059.42 415.355C1045.41 423.62 1029.17 427.238 1014.94 435.24C1010.04 437.995 1006.48 439.951 1002.03 442.706C997.561 445.472 995.78 447.06 990.05 446.975C984.32 446.881 977.325 443.137 973.48 436.618C969.635 430.087 969.266 426.849 975.934 423.326C982.634 419.782 998.193 408.762 997.476 399.855C996.76 390.969 993.484 391.926 988.712 386.994C983.961 382.105 972.606 403.525 973.606 370.864C973.659 369.328 973.048 365.742 973.722 365.091C974.365 363.114 989.997 359.885 991.778 359.202C993.2 358.392 995.148 357.351 998.087 355.837C1005.42 352.041 1022.39 344.007 1028.32 336.856C1030.05 334.764 1031.21 323.407 1031.3 321.472C1031.43 319.011 1033.42 313.869 1023.33 311.545C1013.25 309.232 1016.99 314.027 1006.49 318.685C995.991 323.344 970.962 330.305 970.962 330.305C970.962 330.305 970.425 321.987 969.235 314.29C968.95 312.397 968.592 310.073 968.687 308.107L968.729 307.286C968.729 307.286 969.804 298.653 982.834 283.121C996.054 267.317 1051.38 241.995 1070.22 234.455C1089.07 226.926 1121.13 214.718 1127.55 212.572C1133.96 210.406 1132.75 201.794 1126.35 193.182C1120.18 184.885 1113.98 190.816 1107.09 193.802C1098.8 197.419 1089.42 196.862 1080.84 199.502C1072.11 202.194 1063.75 206.431 1055.39 210.049C1043.76 215.075 1020.89 226.558 1013.3 229.071C1005.68 231.595 995.254 238.767 990.05 241.269C984.836 243.793 984.836 241.648 988.839 231.942C992.852 222.257 1008.09 218.314 1014.1 216.884C1020.1 215.433 1028.91 208.619 1038.55 201.079C1053.07 189.69 1063.26 174.275 1074.66 160.015C1080.55 152.655 1087.35 145.62 1092.87 138.038C1097.23 132.044 1101.52 125.146 1102.87 117.753C1104.34 109.646 1100.31 106.165 1095.48 100.213C1087.04 89.7819 1067.49 98.0261 1057.08 100.35C1054.23 100.981 1050.24 101.286 1047.81 103.01C1041.66 107.385 1033.38 122.98 1023.31 119.604C1020.1 118.521 1020.5 101.296 1019.7 91.2435C1018.9 81.2011 1007.29 75.0916 995.254 66.4793C983.234 57.867 966.791 41 949.557 41C932.313 41 927.9 74.7341 926.699 86.5851C925.877 94.6296 926.214 102.748 925.372 110.781C924.592 118.248 921.916 125.219 920.631 132.57C918.398 145.357 925.645 170.983 909.465 177.387C905.852 178.828 905.852 184.569 903.061 189.238C900.248 193.897 889.019 201.794 892.232 207.546C895.445 213.277 907.053 202.151 909.465 201.794C911.867 201.436 915.48 207.882 916.281 209.323C919.673 215.391 916.776 227.347 916.955 234.056C917.281 245.77 919.873 258.431 918.198 270.082C917.26 276.581 882.098 281.544 871.438 284.867C859.102 289.441 871.122 301.545 874.872 308.022C876.304 309.305 871.438 310.02 910.392 313.522C911.477 313.617 911.762 321.451 912.383 324.868C913.521 331.672 915.48 338.728 915.269 345.647C915.269 345.647 897.035 353.418 897.362 359.486C897.688 365.553 896.719 370.779 904.63 372.115C912.531 373.45 917.766 376.363 917.766 376.363C917.766 376.363 920.252 382.883 920.958 394.187C921.337 400.044 919.641 400.034 919.694 401.422C919.82 403.409 906.663 407.437 904.704 409.256C898.057 415.502 900.332 426.712 911.92 434.977C916.239 438.048 920.494 433.452 922.928 437.364C926.309 442.759 920.737 452.664 919.81 454.746C916.597 461.96 910.203 473.559 899.089 478.648C887.976 483.717 877.221 491.046 843.744 491.909C838.877 492.024 835.475 497.366 834 503.066C835.117 506.567 835.928 510.29 834.727 515.411L835.801 516.41C841.458 519.733 849.327 523.497 854.531 528.829C859.682 534.16 856.722 538.156 870.195 538.366C889.577 538.682 890.746 524.149 906.6 524.812C922.454 525.464 910.719 539.407 910.603 545.864C910.466 552.636 903.292 560.06 900.606 566.054C893.664 581.554 902.45 601.187 911.941 613.605C919.167 623.038 936.79 650.484 951.601 639.411C957.416 635.057 975.587 606.665 981.054 596.255C986.553 585.834 988.881 579.02 989.028 570.923C989.186 562.847 978.536 496.462 983.477 491.688C991.862 483.591 1009.57 481.782 1020.2 477.786C1039.13 470.678 1058.26 462.37 1076.55 453.779C1083.11 450.708 1089.49 447.27 1095.92 443.957C1103.91 439.814 1110.63 433.621 1118.54 429.267C1125.1 425.65 1134.59 421.969 1138.28 414.955C1141.51 408.972 1144.67 404.566 1143.88 399.319ZM1017.2 155.052C1021.74 145.094 1040.7 138.448 1040.7 138.448C1043.99 148.038 1030.4 158.743 1028.75 160.594C1027.11 162.445 1027.11 165.389 1026.28 168.344C1025.44 171.309 1018.84 174.243 1018.84 174.243C1018.84 174.243 1012.66 165.021 1017.2 155.052Z" fill="#00468C"/>
<path d="M869.426 286.917L868.709 286.243L867.054 284.42C865.051 281.206 850.599 279.404 849.903 275.748C847.826 265.158 837.485 261.28 831.381 261.153C825.277 260.995 814.367 256.138 810.814 254.146C807.251 252.144 795.044 249.309 789.109 245.137C783.195 240.953 786.189 226.296 785.461 221.681C784.576 215.917 790.447 207.044 792.819 202.144C799.134 189.141 813.112 176.001 827.755 173.283C838.296 171.312 847.531 171.123 852.949 160.238C865.863 134.295 836.525 115.686 815.98 109.29C805.67 106.097 800.568 102.082 794.97 100.554C789.372 99.0157 771.715 94.5479 764.135 91.7239C756.545 88.8999 742.367 83.8842 736.136 89.6586C729.885 95.433 737.96 101.387 752.455 114.348C759.276 120.438 763.766 126.982 765.189 136.023C766.518 144.379 767.119 149.458 773.17 155.822C780.496 163.515 786.832 169.257 786.6 180.669C786.347 192.692 777.808 219.257 775.383 224.051C772.98 228.783 767.92 231.47 765.179 236.032C754.057 254.578 757.715 270.268 768.362 287.602C776.849 301.438 782.773 328.276 784.333 340.657C785.893 353.028 780.38 383.207 778.24 392.079C776.09 400.931 771.209 419.35 766.128 450.108C761.057 480.877 758.833 486.884 755.723 487.368C752.634 487.843 747.722 501.541 746.088 506.852C744.148 513.206 750.241 523.459 751.232 529.939C753.225 543.111 750.399 572.563 772.727 567.399C794.105 562.426 791.755 556.251 798.185 531.899C803.203 512.9 811.046 501.499 814.577 481.088C818.088 460.667 821.925 460.382 822.336 454.007C822.747 447.643 820.428 439.476 820.502 421.795C820.576 404.124 820.787 376.01 820.628 365.947C820.481 355.873 822.031 347.749 823.549 334.893C825.077 322.027 834.828 314.525 843.03 310.731C845.802 309.446 869.563 305.768 872.547 305.305C873.833 305.094 871.882 302.312 872.757 301.343L869.858 299.509C869.468 296.19 871.081 292.512 870.997 292.344L870.523 290.279C870.27 288.93 870.196 287.844 869.426 286.917ZM809.855 361.532C810.066 366.505 794.633 422.005 791.438 426.505C788.213 431.004 787.675 431.089 786.99 426.695C786.305 422.29 789.625 411.257 793.515 389.614C797.447 367.97 810.751 349.361 810.751 349.361C811.731 355.726 809.633 356.548 809.855 361.532Z" fill="#00468C"/>
<path d="M2386 815.623H2335.62L2316.65 885.379C2314.48 893.811 2311.99 904.274 2310.12 912.115H2308.87C2307.01 904.557 2303.9 893.811 2301.41 885.67L2278.71 815.623H2226.15L2282.13 945.836C2283.69 949.324 2284 951.364 2284 953.103C2284 954.843 2283.06 957.174 2281.51 959.496C2277.17 966.472 2264.1 982.348 2245.78 985.738L2236.59 1024C2259.57 1024.16 2280.88 1015.88 2297.06 1002.51C2314.16 988.272 2328.78 965.889 2350.54 909.21L2386 815.623ZM2179.1 899.621V848.17H2213V815.623H2179.1V799.05H2132.76V815.623H2112.55V848.17H2132.76V906.305C2132.76 926.358 2137.12 940.026 2145.83 948.45C2153.6 955.726 2166.34 960.662 2181.59 960.662C2194.65 960.662 2201.78 959.796 2207.7 957.757L2216.63 922.499C2212.28 923.382 2204.29 924.618 2197.77 924.618C2183.76 924.618 2179.1 916.76 2179.1 899.621ZM2093.52 776.092C2093.2 763.598 2083.88 754 2068.65 754C2053.4 754 2043.45 763.598 2043.45 776.092C2043.45 788.295 2053.09 798.184 2068.01 798.184C2083.88 798.184 2093.52 788.295 2093.52 776.092ZM1953.7 854.28C1953.7 847.305 1960.23 842.943 1971.74 842.943C1984.47 842.943 1997.86 847.596 2004.69 851.075L2012.78 820.568C2003.46 816.206 1987.9 812.135 1970.18 812.135C1932.55 812.135 1908.29 832.197 1908.29 858.925C1907.98 875.789 1920.11 891.78 1951.83 901.652C1969.25 907.179 1973.91 910.658 1973.91 918.226C1973.91 925.484 1968 929.846 1953.7 929.846C1939.7 929.846 1921.65 924.327 1912.96 919.382L1904.56 950.772C1916.07 956.582 1933.79 960.944 1953.7 960.944C1997.23 960.944 2019.31 941.474 2019.31 914.729C2019.01 894.103 2007.19 880.151 1978.27 870.845C1959.6 864.743 1953.7 861.247 1953.7 854.28ZM1884.21 853.724L1894.33 813.751C1890.91 813.16 1884.88 812.135 1880.52 812.135C1865.59 812.135 1847.26 820.85 1839.48 841.777H1838.23L1836.36 815.623H1795.93C1796.86 827.835 1797.17 841.486 1797.17 862.412V957.757H1844.44V885.67C1844.44 882.182 1844.76 878.695 1845.39 875.789C1848.48 862.13 1860.3 853.406 1877.73 853.406C1883.02 853.406 1880.46 853.141 1884.21 853.724ZM1769.29 900.787C1769.9 897.59 1770.83 890.897 1770.83 883.339C1770.83 848.17 1752.18 812.418 1703.04 812.418C1650.17 812.418 1626.23 852.24 1626.23 888.284C1626.23 932.751 1655.77 960.662 1707.4 960.662C1727.92 960.662 1746.88 957.757 1762.45 951.655L1756.21 921.713C1743.47 925.784 1730.4 927.815 1714.24 927.815C1692.16 927.815 1672.56 919.091 1671.32 900.787H1769.29ZM1726.99 870.553H1671.01C1672.24 858.925 1680.34 841.777 1700.23 841.777C1722.01 841.777 1726.99 859.799 1726.99 870.553ZM1565.39 957.757L1621.99 815.623H1572.23L1552.65 881.6C1549.22 893.811 1546.73 904.557 1544.24 916.195H1543.31C1540.83 904.848 1538.34 893.811 1534.6 881.6L1514.08 815.623H1462.77L1518.12 957.757H1565.39ZM1445.76 776.092C1445.44 763.598 1436.12 754 1420.89 754C1405.64 754 1395.69 763.598 1395.69 776.092C1395.69 788.295 1405.33 798.184 1420.25 798.184C1436.12 798.184 1445.76 788.295 1445.76 776.092ZM1315.83 957.757H1363.1V873.759C1363.1 831.897 1339.77 812.418 1308.66 812.418C1283.17 812.418 1267.93 826.087 1261.71 835.384H1260.78L1258.6 815.623H1217.56C1218.17 828.409 1218.78 843.234 1218.78 860.964V957.757H1266.06V875.789C1266.06 871.719 1266.37 867.648 1267.62 864.743C1271.04 856.602 1278.82 848.17 1291.88 848.17C1308.98 848.17 1315.83 860.673 1315.83 878.977V957.757ZM1183.78 871.719V761.841H1136.51V874.333C1136.51 909.21 1122.82 925.484 1097.95 925.484C1074 925.484 1060 908.345 1060 874.333V761.841H1012.73V871.136C1012.73 933.342 1043.52 960.944 1096.39 960.944C1151.13 960.944 1183.78 932.177 1183.78 871.719ZM864.52 957.757H911.772V873.759C911.772 831.897 888.453 812.418 857.364 812.418C831.858 812.418 816.625 826.087 810.409 835.384H809.479L807.292 815.623H766.237C766.86 828.409 767.493 843.234 767.493 860.964V957.757H814.764V875.789C814.764 871.719 815.062 867.648 816.318 864.743C819.733 856.602 827.503 848.17 840.568 848.17C857.68 848.17 864.52 860.673 864.52 878.977V957.757ZM734.707 776.092C734.4 763.598 725.066 754 709.834 754C694.591 754 684.634 763.598 684.634 776.092C684.634 788.295 694.284 798.184 709.201 798.184C725.066 798.184 734.707 788.295 734.707 776.092ZM653.411 776.092C653.114 763.598 643.781 754 628.539 754C613.296 754 603.359 763.598 603.359 776.092C603.359 788.295 612.989 798.184 627.915 798.184C643.781 798.184 653.411 788.295 653.411 776.092ZM604.903 930.137C604.903 950.949 603.541 962.533 600.078 969.889C595.119 978.789 584.155 983.61 572.653 985.738L563.464 1024C575.138 1024.09 611.598 1019.29 630.706 1002.8C644.951 990.515 652.174 971.708 652.174 940.892V815.623H604.903V930.137ZM520.375 957.757H567.637V873.759C567.637 831.897 544.327 812.418 513.219 812.418C487.723 812.418 472.49 826.087 466.265 835.384H465.325L463.157 815.623H422.102C422.725 828.409 423.349 843.234 423.349 860.964V957.757H470.62V875.789C470.62 871.719 470.927 867.648 472.174 864.743C475.588 856.602 483.368 848.17 496.423 848.17C513.536 848.17 520.375 860.673 520.375 878.977V957.757ZM349.708 957.757H392.308C390.437 949.907 389.814 936.821 389.814 923.453V873.759C389.814 840.038 373.958 812.135 323.272 812.135C295.588 812.135 274.763 819.394 264.183 824.921L272.883 853.406C282.84 847.596 299.329 842.651 314.869 842.651C338.188 842.651 342.552 853.406 342.552 861.247V862.995C288.749 862.995 253.296 880.434 253.296 917.351C253.296 940.026 271.646 960.944 302.437 960.944C320.461 960.944 336.02 954.843 345.977 943.505H346.907L349.708 957.757ZM344.097 906.014C344.097 908.628 343.799 911.25 343.166 913.572C340.058 922.579 330.111 929.846 318.6 929.846C308.029 929.846 299.943 924.327 299.943 912.989C299.943 896.142 319.224 890.606 344.097 890.606V906.014ZM230.504 776.092C230.197 763.598 220.864 754 205.622 754C190.389 754 180.432 763.598 180.432 776.092C180.432 788.295 190.072 798.184 205.008 798.184C220.864 798.184 230.504 788.295 230.504 776.092ZM103.866 799.05H161.084V761.841H0V799.05H56.5949V957.757H103.866V799.05ZM228.941 815.623H181.67V957.757H228.941V815.623ZM733.153 815.623H685.882V957.757H733.153V815.623ZM1444.2 815.623H1396.93V957.757H1444.2V815.623ZM2091.96 815.623H2044.69V957.757H2091.96V815.623Z" fill="#00468C"/>
</g>
<defs>
<clipPath id="clip0_33_42">
<rect width="2386" height="1024" fill="white"/>
</clipPath>
</defs>
</svg>
