<svg width="3386" height="1024" viewBox="0 0 3386 1024" fill="none" xmlns="http://www.w3.org/2000/svg">
<g clip-path="url(#clip0_47_37)">
<path d="M823 512.5C823 285.231 638.764 101 411.5 101C184.228 101 0 285.231 0 512.5C0 739.769 184.228 924 411.5 924C638.764 924 823 739.769 823 512.5ZM786.366 429.049L805.858 450.988L793.741 475.799L810.386 499.937L795.308 523.048L808.825 549.082L791.066 570.14L801.283 597.621L781.027 616.381L787.857 644.915L765.457 661.034L768.702 690.166L744.452 703.392L744.101 732.759L718.452 742.897L714.469 771.97L687.779 778.914L680.251 807.232L652.921 810.828L642.002 838.057L614.416 838.261L600.216 863.942L572.82 860.751L555.568 884.428L528.772 877.9L508.739 899.342L482.944 889.56L460.412 908.357L436.016 895.485L411.401 911.392L388.745 895.619L362.376 908.327L341.825 889.906L314.06 899.29L295.953 878.477L267.238 884.353L251.824 861.506L222.613 863.846L210.137 839.228L180.826 837.934L171.493 811.978L142.592 807.091L136.504 780.186L108.392 771.818L105.644 744.363L78.7853 732.588L79.4358 704.991L54.207 689.977L58.2486 662.674L35.0697 644.729L42.4549 618.122L21.6697 597.413L32.2486 571.959L14.1529 548.874L27.7759 524.863L12.6217 499.732L29.0878 477.569L17.1713 450.787L36.2318 430.823L27.7064 402.743L49.0618 385.326L44.019 356.398L67.3768 341.722L65.9773 312.396L90.9211 300.717L93.1099 271.451L119.304 262.863L125.088 234.14L152.177 228.848L161.397 201.017L188.935 199.12L201.491 172.643L229.037 174.134L244.794 149.405L271.937 154.248L290.625 131.657L316.965 139.791L338.306 119.633L363.388 131.018L387.013 113.619L410.612 127.994L436.188 113.63L457.785 130.795L484.899 119.674L504.266 139.349L532.569 131.721L549.341 153.582L578.393 149.491L592.367 173.249L621.681 172.755L632.603 198.06L661.768 201.154L669.496 227.65L698.051 234.285L702.487 261.491L730.014 271.611L731.056 299.167L757.136 312.578L754.783 340.081L779.065 356.591L773.324 383.596L795.345 402.947L786.366 429.049ZM794.57 452.535L775.619 431.206L784.327 405.867L762.906 387.048L768.482 360.842L744.872 344.797L747.164 318.097L721.811 305.058L720.795 278.309L694.038 268.468L689.73 242.073L661.958 235.62L654.456 209.895L626.102 206.889L615.498 182.328L587.006 182.808L573.441 159.748L545.187 163.724L528.914 142.506L501.394 149.922L482.608 130.843L456.242 141.658L435.282 125L410.418 138.958L387.514 125.011L364.536 141.93L340.184 130.884L319.446 150.465L293.885 142.57L275.709 164.539L249.369 159.834L234.047 183.89L207.323 182.436L195.111 208.184L168.384 210.028L159.423 237.078L133.12 242.218L127.496 270.142L102.081 278.473L99.9507 306.943L75.7341 318.283L77.0934 346.795L54.4372 361.032L59.3375 389.156L38.6107 406.068L46.8949 433.359L28.4007 452.736L39.9847 478.774L24.0047 500.282L38.7386 524.718L25.5175 548.03L43.1127 570.482L32.8479 595.189L53.0559 615.314L45.8936 641.132L68.4256 658.575L64.5009 685.086L89.0318 699.684L88.3997 726.466L114.513 737.91L117.18 764.554L144.51 772.692L150.427 798.815L178.535 803.569L187.59 828.759L216.079 830.019L228.185 853.9L256.579 851.628L271.546 873.809L299.465 868.089L317.042 888.288L344.028 879.176L363.977 897.051L389.615 884.688L411.595 899.996L435.538 884.524L459.221 897.021L481.128 878.748L506.156 888.24L525.636 867.39L551.647 873.735L568.42 850.709L595.005 853.804L608.807 828.829L635.578 828.636L646.197 802.166L672.727 798.674L680.046 771.145L705.958 764.402L709.828 736.128L734.71 726.295L735.053 697.731L758.594 684.896L755.433 656.582L777.176 640.943L770.536 613.201L790.2 594.981L780.267 568.262L797.501 547.821L784.36 522.505L798.984 500.082L782.803 476.617L794.57 452.535ZM771.552 512.422C771.552 711.314 610.565 872.549 411.986 872.549C213.404 872.549 52.42 711.314 52.42 512.422C52.42 313.523 213.404 152.288 411.986 152.288C610.565 152.288 771.552 313.523 771.552 512.422ZM669.215 683.531C679.403 689.958 688.338 692.067 694.521 692.524C695.975 690.241 697.4 687.938 698.807 685.625C692.043 684.632 683.434 681.765 674.053 675.851C663.697 669.324 656.948 661.908 653.334 655.838L653.169 656.106C651.85 658.311 650.505 660.506 649.135 662.678C652 668.253 657.887 676.316 669.215 683.531ZM679.44 654.298L701.38 681.281C703.327 677.934 705.22 674.553 707.058 671.139L707.698 669.871L698.27 661.019C695.387 658.397 693.099 656.217 690.49 653.952L690.56 653.833C694.13 654.544 696.958 655.091 700.945 655.708L713.698 657.973L714.93 655.541C716.439 652.346 717.893 649.125 719.307 645.874L684.223 643.542L665.082 633.891C663.387 637.428 661.611 640.924 659.78 644.375L679.44 654.298ZM710.756 635.204L722.128 639.18C723.02 637 723.883 634.81 724.723 632.612L731.315 613.737C732.064 611.375 732.792 608.998 733.486 606.618L722.132 602.65L718.43 613.257L678.866 599.433C677.649 603.189 676.352 606.912 674.978 610.598L714.531 624.418L710.756 635.204ZM683.057 585.27L735.729 598.276L738.569 586.806L685.86 573.792C685.009 577.646 684.07 581.469 683.057 585.27ZM738.492 574.622C740.491 571.959 742.212 568.452 742.972 563.222C744.576 552.24 739.095 545.523 729.707 544.095C721.832 542.893 716.157 546.981 711.929 553.865C709.163 558.466 707.387 560.176 704.785 559.779C702.103 559.366 700.726 557.179 701.31 553.173C701.942 548.844 704.234 544.768 706.269 542.373L694.85 538.389C692.913 540.599 690.435 545.441 689.672 550.674C687.819 563.394 694.842 570.479 703.989 571.873C711.396 573.004 717.042 570.233 721.65 562.94C724.971 557.833 726.411 555.68 729.093 556.085C731.454 556.442 732.755 558.622 732.232 562.177C731.593 566.57 729.623 569.571 728.322 571.289L738.492 574.622ZM742.793 531.059C744.85 528.924 746.674 527.176 746.718 522.594C746.765 518.678 746.835 518.343 746.857 516.212C746.901 512.4 746.871 508.599 746.784 504.812C746.667 503.775 746.531 502.83 746.378 501.986L692.346 501.078C692.5 504.965 692.573 508.863 692.573 512.779L712.554 513.114L712.525 515.007C712.459 518.663 711.045 520.273 704.416 521.341C698.339 522.404 694.305 523.341 692.332 523.977C692.167 528.095 691.912 532.186 691.575 536.255C693.804 535.44 701.723 534.149 707.321 532.885C712.076 531.851 715.613 530.345 717.214 527.429L717.542 527.436C719.033 530.921 723.861 535.12 730.716 535.232C736.099 535.321 740.052 533.822 742.793 531.059ZM736.406 517.499C736.252 521.415 733.932 523.531 729.769 523.457C725.691 523.394 722.954 520.798 723.035 516.357L723.086 513.285L736.146 513.508C736.296 514.096 736.442 515.278 736.406 517.499ZM734.483 490.702L746.097 489.385C745.855 485.863 745.559 482.363 745.212 478.882L744.101 469.145C743.758 466.404 743.363 463.671 742.947 460.948L688.919 467.1C690.483 476.725 691.561 486.514 692.123 496.44L703.843 495.109L701.844 477.525L711.9 476.383L713.684 492.082L725.527 490.739L723.747 475.036L732.58 474.025L734.483 490.702ZM686.226 452.818L741.755 453.759C741.028 449.679 740.232 445.618 739.366 441.59L716.998 442.148C710.983 442.274 704.493 442.579 697.652 443.107L697.616 442.984C704.27 440.281 709.858 437.707 715.467 434.858L735.393 425.221L735.167 424.307C734.122 420.483 733.014 416.686 731.845 412.911L682.845 438.934C684.084 443.52 685.21 448.147 686.226 452.818ZM678.818 425.4L730.106 407.511C728.874 403.758 727.581 400.035 726.218 396.346L674.908 414.239C676.286 417.928 677.594 421.644 678.818 425.4ZM673.132 409.597L722.322 386.322C720.977 382.997 719.57 379.691 718.112 376.418L706.346 381.967C698.884 385.493 692.058 389.011 685.776 392.705L685.688 392.53C690.68 388 696.234 382.559 700.148 378.036L712.503 364.435C710.446 360.277 708.312 356.156 706.097 352.095L656.908 375.366C658.662 378.501 660.35 381.673 661.998 384.887L673.6 379.39C681.643 375.585 689.116 371.91 695.716 368.492L695.807 368.671C690.644 373.42 685.232 379.163 680.985 383.92L668.199 397.856C669.924 401.724 671.579 405.636 673.132 409.597ZM676.41 358.157L700.408 342.086C698.431 338.724 696.377 335.406 694.283 332.126L694.21 332.015L668.265 349.316C660.997 354.162 656.129 354.661 653.52 350.748C650.94 346.891 653.619 342.361 660.544 337.742L686.47 320.448C684.216 317.216 681.895 314.029 679.52 310.878L655.914 326.689C641.176 336.519 637.833 346.363 644.534 356.416C651.386 366.681 662.283 367.578 676.41 358.157ZM648.876 295.101L658.355 288.879C657.712 286.287 655.431 282.188 651.211 278.001C641.063 267.922 626.621 266.345 613.115 279.868C607.535 285.487 604.63 291.133 604.1 297.508C603.596 303.674 605.869 309.729 612.037 315.843C616.115 319.894 621.739 322.943 625.032 324.256L645.631 303.845L633.389 291.698L625.335 299.817L629.512 303.949L622.843 310.677C622.298 310.484 621.019 309.554 619.901 308.446C614.752 303.336 615.198 295.384 622.437 288.083C630.316 280.143 637.917 281.009 643.073 286.116C646.639 289.66 648.035 292.427 648.876 295.101ZM591.818 296.887L623.822 252.881C621.041 250.601 618.228 248.366 615.37 246.183L607.798 256.593C602.949 263.261 598.644 269.617 594.895 275.884L594.745 275.765C596.949 269.398 599.211 261.956 600.472 256.113L604.751 238.369C600.961 235.687 597.113 233.091 593.211 230.57L561.203 274.571C564.254 276.494 567.255 278.473 570.222 280.504L577.837 270.03C583.07 262.837 587.861 256.024 592.016 249.865L592.169 249.976C589.933 256.619 587.93 264.258 586.483 270.465L581.915 288.965C585.281 291.531 588.577 294.172 591.818 296.887ZM559.347 272.909L572.937 218.467C568.307 215.92 563.611 213.472 558.85 211.144L522.45 253.714C526.243 255.343 529.985 257.043 533.69 258.828L541.339 249.206L551.421 254.443L548.223 266.371C551.984 268.472 555.696 270.648 559.347 272.909ZM560.856 223.656C559.935 226.854 558.616 231.228 557.768 234.285L555.016 243.988L547.767 240.221L553.96 232.403C555.97 229.948 558.66 226.192 560.739 223.596L560.856 223.656ZM523.166 230.715L547.869 206.012C543.889 204.238 539.873 202.542 535.817 200.916L527.92 211.297C525.604 214.428 523.678 216.931 521.69 219.758L521.566 219.713C521.898 216.08 522.161 213.205 522.37 209.177L523.312 196.256L521.873 195.706C518.174 194.419 514.458 193.195 510.702 192.035L511.984 227.059L504.332 247.124C508.038 248.414 511.71 249.787 515.339 251.237L523.166 230.715ZM491.086 242.854L505.421 190.451C501.643 189.35 497.842 188.323 494.013 187.345L479.677 239.756C483.51 240.708 487.318 241.746 491.086 242.854ZM481.665 196.498L483.7 184.913C481.121 184.347 478.526 183.812 475.924 183.306L464.271 181.253C461.362 180.792 458.45 180.372 455.523 179.988L446.091 233.538C455.947 234.746 465.648 236.461 475.16 238.666L477.189 227.133L459.762 224.065L461.516 214.09L477.083 216.835L479.147 205.093L463.587 202.356L465.13 193.593L481.665 196.498ZM441.889 209.084C444.801 206.146 446.577 201.337 446.884 195.788C447.191 190.172 445.441 185.162 442.598 182.224C439.692 179.122 435.706 177.917 429.38 177.571C422.664 177.199 417.573 176.994 414.339 177.467L411.347 231.421H411.5C415.366 231.421 419.218 231.507 423.047 231.663L424.045 213.655C424.754 213.777 425.792 213.915 426.903 213.982C432.837 214.309 438.085 212.881 441.889 209.084ZM435.253 195.475C434.997 200.199 431.96 202.977 427.327 202.724C426.091 202.65 425.313 202.523 424.67 202.411L425.445 188.39C426.04 188.256 427.217 188.163 428.978 188.256C433.414 188.505 435.483 191.395 435.253 195.475ZM407.82 231.351C404.356 225.125 401.213 215.734 400.702 203.497C400.23 192.355 402.068 183.537 404.561 177.195C401.824 177.251 399.105 177.34 396.386 177.456C393.744 183.064 391.252 191.89 391.701 203.873C392.264 217.281 396.368 226.482 399.788 231.667C400.778 231.63 401.78 231.589 402.781 231.559L407.82 231.351ZM362.91 213.272L371.186 179.497C367.339 179.962 363.505 180.487 359.672 181.082L358.28 181.335L356.906 194.203C356.548 198.086 356.193 201.221 355.963 204.662L355.831 204.688C354.234 201.411 352.966 198.819 351.055 195.267L345.165 183.734L342.482 184.221C339.022 184.946 335.572 185.723 332.134 186.557L351.443 215.942L355.294 237.037C359.142 236.253 362.997 235.553 366.864 234.94L362.91 213.272ZM330.752 243.2L317.904 203.315L328.783 199.812L325.096 188.353C322.819 188.955 320.553 189.591 318.291 190.242L299.253 196.372C296.925 197.201 294.597 198.06 292.273 198.938L295.96 210.385L306.653 206.941L319.501 246.834C323.232 245.536 326.978 244.331 330.752 243.2ZM305.681 252.037L284.263 202.181L273.403 206.845L294.828 256.73C298.423 255.087 302.037 253.517 305.681 252.037ZM257.591 226.75C261.479 224.611 265.06 224.373 267.216 224.373L263.745 214.253C260.408 214.268 256.579 215.008 251.945 217.564C242.221 222.904 240.171 231.332 244.688 239.674C248.485 246.685 255.172 248.738 263.215 247.957C268.55 247.392 270.984 247.778 272.237 250.088C273.527 252.479 272.606 254.893 269.065 256.842C265.232 258.947 260.602 259.587 257.459 259.405L261.176 270.923C264.11 271.124 269.46 270.183 274.093 267.635C285.363 261.432 286.77 251.561 282.367 243.427C278.796 236.84 273.18 234.01 264.589 234.735C258.512 235.167 255.921 235.319 254.624 232.935C253.487 230.834 254.445 228.483 257.591 226.75ZM238.753 259.438C240.632 256.139 241.063 249.757 237.014 244.219C233.838 239.868 230.261 237.629 226.406 237.112C223.46 236.755 220.972 236.353 217.281 239.083C214.135 241.411 213.828 241.556 212.114 242.824C209.044 245.089 206.03 247.41 203.062 249.757C202.302 250.486 201.63 251.163 201.056 251.791L232.939 295.425C235.936 292.959 239.009 290.553 242.133 288.188L230.341 272.05L231.869 270.934C234.818 268.777 236.955 268.933 241.805 273.582C246.321 277.777 249.511 280.433 251.203 281.616C254.583 279.269 258 277 261.446 274.817C259.451 273.538 253.648 267.992 249.256 264.295C245.572 261.123 242.232 259.211 238.947 259.698L238.753 259.438ZM226.603 261.736L224.125 263.548L216.415 253.004C216.799 252.524 217.646 251.695 219.441 250.389C222.656 248.139 225.744 248.716 228.2 252.078C230.608 255.373 230.188 259.111 226.603 261.736ZM187.079 279.659L199.236 268.085L191.179 259.624C188.518 261.937 185.898 264.28 183.333 266.661L176.237 273.422C174.263 275.352 172.316 277.312 170.401 279.287L207.897 318.663C214.632 311.604 221.794 304.838 229.373 298.404L221.235 289.861L208.423 302.064L201.436 294.737L212.885 283.836L204.667 275.207L193.218 286.108L187.079 279.659ZM198.144 329.43L165.394 284.576C162.57 287.618 159.814 290.702 157.121 293.826L171.066 311.325C174.797 316.048 178.952 321.032 183.505 326.172L183.421 326.276C177.252 322.601 171.826 319.697 166.169 316.941L146.469 306.873L145.877 307.602C143.454 310.741 141.09 313.921 138.792 317.127L189.107 340.502C192.016 336.745 195.027 333.056 198.144 329.43ZM180.746 351.879L135.525 321.768C133.281 325.015 131.096 328.295 128.98 331.609L174.208 361.724C176.31 358.406 178.488 355.118 180.746 351.879ZM171.577 365.941L123.327 340.758C121.496 343.842 119.709 346.962 117.973 350.097L129.503 356.137C136.818 359.957 143.736 363.278 150.478 366.056L150.39 366.231C143.769 364.982 136.069 363.84 130.105 363.449L111.805 361.802C109.722 365.949 107.731 370.133 105.827 374.354L154.07 399.544C155.506 396.249 157.019 392.983 158.59 389.74L147.204 383.801C139.314 379.68 131.874 375.942 125.169 372.736L125.256 372.561C132.159 373.807 140.001 374.659 146.363 375.18L165.186 376.969C167.229 373.253 169.359 369.578 171.577 365.941ZM128.574 394.371L101.274 384.928C99.7972 388.532 98.3831 392.173 97.031 395.825L96.9871 395.948L126.437 406.201C134.684 409.069 138.028 412.651 136.482 417.095C134.955 421.476 129.733 422.075 121.869 419.338L92.4339 409.095C91.2244 412.851 90.0733 416.623 88.9953 420.416L115.847 429.707C132.579 435.524 142.449 432.251 146.422 420.84C150.474 409.181 144.613 399.95 128.574 394.371ZM137.059 451.527L83.2764 443.278C82.5383 446.782 81.8549 450.311 81.2301 453.863L94.0199 455.827C102.176 457.08 109.799 457.984 117.078 458.441L117.045 458.635C110.38 459.591 102.728 460.996 96.9579 462.555L79.1983 466.895C78.5771 471.477 78.0472 476.089 77.6123 480.727L131.403 488.987C131.699 485.387 132.06 481.809 132.495 478.25L119.705 476.286C110.91 474.936 102.658 473.802 95.2769 472.931L95.3062 472.738C102.242 471.689 109.934 469.967 116.124 468.401L134.6 463.994C135.327 459.806 136.146 455.652 137.059 451.527ZM130.953 495.176L76.6842 492.959C76.4576 496.879 76.3005 500.814 76.2128 504.764L130.482 506.988C130.559 503.031 130.712 499.096 130.953 495.176ZM109.181 513.634L76.1324 514.925C76.1616 518.878 76.2567 522.821 76.4211 526.741L109.623 525.443C117.053 525.156 119.227 527.555 119.366 531.341C119.439 533.235 119.106 535.072 118.679 536.53L130.314 537.381C131.11 535.131 131.395 531.914 131.3 529.5C130.906 518.931 124.843 513.021 109.181 513.634ZM131.691 539.338L78.0034 548.215C78.3798 551.801 78.8146 555.375 79.3079 558.923L92.0502 556.814C100.188 555.472 107.712 553.958 114.78 552.136L114.809 552.325C108.765 555.308 101.931 559.02 96.9323 562.296L81.3982 571.951L81.6283 573.35C82.3811 577.46 83.2106 581.543 84.1096 585.601L137.798 576.723C136.983 573.235 136.23 569.712 135.547 566.172L122.826 568.277C114.045 569.727 105.852 571.215 98.5658 572.688L98.5329 572.491C104.796 569.341 111.579 565.305 116.972 561.895L133.171 551.953C132.587 547.777 132.093 543.57 131.691 539.338ZM138.678 580.379L90.5264 610.04C92.0575 615.083 93.6983 620.074 95.4633 625.01L151.665 619.877C150.094 616.08 148.603 612.238 147.196 608.355L135.039 609.887L131.49 599.09L142.069 592.831C140.845 588.718 139.712 584.567 138.678 580.379ZM124.156 611.814L114.253 613.071C111.1 613.417 106.561 614.224 103.254 614.622L103.21 614.499C106.108 612.855 110.109 610.65 112.857 609.065L121.606 604.056L124.156 611.814ZM152.857 622.722L103.36 645.104C104.917 648.723 106.547 652.316 108.224 655.875L157.728 633.497C156.036 629.941 154.413 626.352 152.857 622.722ZM121.781 656.322L111.312 662.22C116.468 672.541 122.143 682.549 128.3 692.234L138.726 686.358L133.208 676.573L169.743 655.957C167.73 652.569 165.789 649.143 163.914 645.673L127.394 666.274L121.781 656.322ZM197.106 748C194.774 749.674 200.219 757.443 205.416 760.232C208.785 762.044 213.597 761.3 217.197 760.794C222.17 760.095 227.356 759.332 231.642 756.517C235.194 754.181 238.523 751.425 241.779 748.707C243.347 747.394 244.907 746.088 246.434 744.734C250.144 741.465 255.15 737.508 255.15 737.508C255.15 737.508 247.399 752.861 244.425 760.247C241.45 767.634 240.434 778.535 242.769 781.77C245.104 785.002 251.857 784.824 253.111 785.263C254.36 785.701 260.945 787.87 264.366 789.071C267.79 790.257 268.744 787.669 267.264 786.609C265.791 785.542 265.352 785.181 262.418 783.213C259.48 781.25 255.537 778.006 255.314 777.385C255.088 776.768 255.15 773.294 255.303 770.78C255.457 768.27 255.72 755.423 256.367 751.41C257.017 747.397 259.915 737.601 259.915 737.601C259.915 737.601 264.333 737.404 270.885 738.535C277.448 739.658 278.873 738.631 279.768 737.895C280.664 737.166 281.614 736.184 278.972 735.481C276.319 734.771 272.007 731.092 271.649 730.802C271.305 730.512 270.655 729.69 269.365 729.657C268.068 729.623 267.198 728.333 267.198 728.333C267.198 728.333 266.891 727.481 267.611 726.607C268.331 725.729 268.027 722.694 268.027 722.694C269.295 724.907 276.476 725.811 279.513 725.514C282.546 725.212 288.414 725.03 290.79 724.636C293.165 724.242 294.064 726.008 297.437 724.219C299.6 723.081 298.083 724.104 300.199 722.735C302.315 721.363 301.858 720.708 301.193 719.451C300.528 718.198 298.368 717.558 296.552 716.495C294.743 715.427 292.365 714.189 291.298 713.597C290.227 713.006 290.735 713.419 287.585 712.95C284.428 712.489 280.543 710.856 276.626 709.767C272.716 708.68 271.068 707.754 270.224 707.055C269.383 706.367 268.912 705.556 266.737 706.315C265.312 706.813 265.36 708.316 265.542 709.558C265.758 711.076 265.612 712.024 265.521 713.538C265.44 714.784 266.339 715.799 266.098 717.097C266.098 717.097 265.32 716.32 263.982 715.364C262.648 714.408 261.526 716.461 260.697 717.476C259.867 718.484 257.386 721.687 256.305 722.49C255.219 723.293 254.127 724.8 253.016 726.153C251.908 727.5 248.181 730.62 248.181 730.62C245.868 730.929 229.194 728.545 226.329 728.102C223.46 727.66 221.319 722.233 221.319 722.233C218.001 723.464 216.437 729.798 216.612 732.937C216.715 734.808 217.255 736.995 218.103 738.672C219.51 741.436 224.173 743.072 228.942 742.269C233.699 741.48 240.942 738.91 240.942 738.91C237.913 743.325 235.333 745.75 224.473 751.663C213.612 757.573 208.873 753.687 205.668 752.229C202.463 750.771 198.538 746.966 197.106 748ZM261.801 732.506C262.583 731.029 264.622 730.252 264.622 730.252L265.316 729.951C267.311 730.46 267.019 733.026 266.493 732.818C266.083 732.662 261.801 732.506 261.801 732.506ZM264.366 599.139C310.91 681.917 384.755 719.355 403.216 728.009L411.5 731.29L419.784 728.009C438.245 719.355 512.087 681.917 558.653 599.139C579.069 562.579 586.812 523.453 587.81 487.198L587.832 486.443H587.846L588.288 470.425C588.288 470.425 567.909 464.169 561.828 460.111C552.521 453.911 549.948 446.585 554.465 437.112C558.773 428.063 583.308 420.453 583.308 420.453L579.2 401.82C578.93 400.615 578.656 399.414 578.378 398.22H578.371C568.27 354.441 554.03 324.792 553.526 323.724L545.26 306.519L528.14 312.563C517.656 316.286 507.296 317.8 497.283 317.8C459.173 318.138 425.313 286.99 423.789 285.61L411.5 276.16L399.193 285.61H399.214C397.687 286.99 363.831 318.138 325.72 317.8C315.701 317.8 305.359 316.286 294.849 312.563L277.74 306.519L269.467 323.724C268.956 324.814 253.94 356.074 243.803 401.82L239.7 420.453C239.7 420.453 264.227 428.063 268.543 437.112C273.056 446.585 270.483 453.911 261.183 460.111C255.099 464.169 234.719 470.425 234.719 470.425L235.179 487.198C236.195 523.453 243.931 562.579 264.366 599.139ZM274.426 592.612C255.256 558.295 247.896 521.448 246.924 486.815L246.72 479.369L253.268 476.937C262.9 473.378 270.731 468.048 275.84 462.209C280.993 456.333 283.379 450.311 283.382 444.379C283.382 444.03 283.379 443.687 283.353 443.379C283.097 438.339 281.19 433.526 277.389 428.792C273.593 424.106 267.867 419.706 260.668 416.392L253.429 413.03L255.248 404.736C265.035 360.485 279.681 330.032 279.9 329.549L283.587 321.891L291.188 324.591C302.984 328.775 314.593 330.445 325.753 330.445H326.02C367.536 330.445 402.237 298.817 405.763 296.113L406.033 295.909L411.5 291.739L416.963 295.909L417.263 296.113C420.767 298.821 455.621 330.594 497.269 330.445C508.407 330.445 520.009 328.775 531.823 324.591L539.413 321.891L543.1 329.549C543.316 330.006 556.57 357.569 566.283 398.332C566.502 399.224 566.71 400.121 566.922 401.024C567.002 401.378 567.083 401.735 567.167 402.088C567.284 402.62 567.401 403.148 567.521 403.684C567.605 404.033 567.682 404.383 567.755 404.736L568.603 408.593L569.571 413.03L562.332 416.392C555.137 419.706 549.415 424.106 545.622 428.792C541.817 433.526 539.91 438.339 539.658 443.379C539.636 443.687 539.621 444.03 539.621 444.379C539.636 450.311 542.015 456.333 547.164 462.209C552.276 468.048 560.111 473.378 569.739 476.937L576.284 479.369L576.127 485.473L576.083 486.815C575.097 521.448 567.755 558.295 548.563 592.612C504.303 671.634 432.468 708.357 415.184 716.372L411.5 717.573L407.82 716.372C390.539 708.357 318.704 671.634 274.426 592.612ZM256.323 486.507C257.262 519.845 264.307 554.847 282.487 587.401C324.938 663.425 395.177 699.568 411.507 707.063C411.507 707.063 487.826 681.727 540.476 587.401C558.674 554.847 565.716 519.845 566.677 486.507C544.353 478.257 529.327 461.484 530.237 442.85C530.95 427.665 542.091 414.718 558.59 407.098C549.086 364.033 534.728 334.209 534.728 334.209C470.523 356.929 411.507 304.143 411.507 304.143C411.507 304.143 352.429 356.929 288.254 334.209C288.254 334.209 273.896 364.033 264.395 407.098C280.872 414.718 292.021 427.665 292.741 442.85C293.596 461.484 278.588 478.257 256.323 486.507ZM428.693 403.71C428.693 410.423 427.922 416.526 426.895 422.443C426.446 425.021 424.202 426.839 421.677 426.839L420.753 426.758C417.866 426.255 415.929 423.507 416.433 420.621C417.405 415.027 418.074 409.616 418.074 403.71C418.067 394.88 416.598 384.835 412.085 371.412C411.149 368.63 412.647 365.618 415.417 364.684C418.195 363.747 421.209 365.242 422.145 368.024C426.957 382.287 428.697 393.645 428.693 403.71ZM445.989 402.962C445.989 408.85 445.367 414.276 444.49 419.691C443.613 425.11 442.492 430.521 441.439 436.52C439.678 446.614 438.07 458.672 438.07 475.825C438.07 493.023 439.7 515.327 444.534 545.59C444.995 548.487 443.025 551.209 440.127 551.674L439.294 551.741C436.729 551.741 434.467 549.874 434.054 547.267C429.154 516.573 427.454 493.703 427.454 475.825C427.454 458.017 429.154 445.145 430.988 434.691C432.077 428.494 433.184 423.098 434.01 417.999C434.84 412.892 435.373 408.095 435.373 402.962C435.366 394.453 433.908 384.876 429.38 371.412C428.445 368.63 429.943 365.618 432.72 364.684C435.497 363.747 438.505 365.242 439.448 368.024C444.246 382.25 445.996 393.166 445.989 402.962ZM463.292 403.71C463.292 410.423 462.52 416.526 461.494 422.443C461.037 425.021 458.797 426.839 456.268 426.839L455.347 426.758C452.464 426.255 450.527 423.507 451.028 420.621C452.004 415.027 452.672 409.616 452.672 403.71C452.665 394.88 451.2 384.835 446.679 371.412C445.744 368.63 447.246 365.618 450.019 364.684C452.797 363.747 455.804 365.242 456.739 368.024C461.552 382.287 463.299 393.645 463.292 403.71ZM494.345 551.987C491.415 551.987 489.036 549.607 489.036 546.683V481.344H472.314C469.314 481.344 466.873 478.971 466.873 476.037C466.873 473.106 469.314 470.73 472.314 470.73H489.036V450.099H472.314C469.314 450.099 466.873 447.719 466.873 444.784C466.873 441.854 469.314 439.481 472.314 439.481H489.036V418.743H472.314C469.314 418.743 466.873 416.366 466.873 413.435C466.873 410.505 469.314 408.124 472.314 408.124H478.895C479.016 406.41 479.096 404.68 479.096 402.91C479.092 394.59 477.642 385.151 473.103 371.55C472.168 368.749 473.662 365.711 476.439 364.77C479.224 363.825 482.231 365.327 483.163 368.132C487.954 382.466 489.715 393.259 489.715 402.91C489.715 404.691 489.642 406.421 489.533 408.124H498.825C498.716 406.421 498.65 404.691 498.65 402.91C498.643 393.259 500.4 382.466 505.191 368.132C506.13 365.327 509.145 363.825 511.918 364.77C514.696 365.711 516.194 368.749 515.255 371.55C510.724 385.151 509.269 394.59 509.269 402.91C509.269 404.68 509.339 406.41 509.463 408.124H516.051C519.052 408.124 521.485 410.505 521.485 413.435C521.485 416.366 519.052 418.743 516.051 418.743H499.651V439.481H516.051C519.052 439.481 521.485 441.854 521.485 444.784C521.485 447.719 519.052 450.099 516.051 450.099H499.651V470.73H516.051C519.052 470.73 521.485 473.106 521.485 476.037C521.485 478.971 519.052 481.344 516.051 481.344H499.651V546.683C499.651 549.607 497.283 551.987 494.345 551.987ZM456.396 631.388C457.185 629.011 459.893 627.706 462.396 628.446C464.11 628.959 466.431 629.19 469.16 629.35C469.602 629.38 470.074 629.38 470.531 629.38C473.9 629.406 477.455 628.61 479.889 627.245C482.345 625.82 483.616 624.281 483.96 621.93C484.011 621.476 484.04 621.045 484.04 620.662C483.909 617.46 482.677 616.269 479.973 614.793C477.302 613.469 473.264 612.9 470.384 612.911C469.083 612.911 467.987 613.03 467.6 613.116V613.104C466.131 613.629 464.465 613.443 463.167 612.61C461.855 611.754 461.066 610.382 461.095 608.861L461.311 589.926C461.377 587.483 463.5 585.478 466.116 585.478H485.027C487.673 585.478 489.818 587.494 489.818 589.964C489.818 592.452 487.673 594.445 485.027 594.445H470.859L470.728 603.94C474.671 604.004 479.692 604.617 484.38 606.83C489.178 608.995 493.739 613.919 493.629 620.662C493.629 621.421 493.578 622.216 493.49 623.031C492.789 628.483 489.079 632.63 484.757 634.958C480.434 637.339 475.372 638.328 470.531 638.358C469.865 638.358 469.211 638.328 468.532 638.306C465.674 638.109 462.656 637.897 459.55 636.989C456.999 636.256 455.607 633.735 456.396 631.388ZM453.765 533.324C451.138 533.324 448.854 531.371 448.506 528.697C445.766 507.527 444.75 490.021 444.75 475.646C444.75 465.913 445.214 457.616 445.934 450.594H445.941C446.23 447.678 448.839 445.554 451.751 445.856C454.675 446.153 456.794 448.757 456.491 451.672C455.815 458.319 455.362 466.252 455.362 475.646C455.362 489.519 456.348 506.572 459.038 527.332C459.411 530.244 457.361 532.904 454.456 533.279L453.765 533.324ZM412.428 599.775C412.541 590.57 421.326 584.106 431.163 584.091C438.808 584.098 445.795 588.033 448.583 594.103L449.087 594.899C449.252 595.286 450.849 598.841 450.849 604.312C450.984 613.16 446.113 626.873 426.183 637.722C425.426 638.138 424.575 638.358 423.749 638.358C422.119 638.358 420.515 637.573 419.609 636.163C418.279 634.018 419.028 631.28 421.304 630.008C431.163 624.467 436.221 618.944 438.75 614.086C436.415 614.971 433.82 615.448 431.163 615.474C421.326 615.448 412.541 608.995 412.428 599.775ZM410.152 475.646C410.152 465.913 410.616 457.616 411.336 450.594C411.632 447.678 414.241 445.554 417.153 445.856C420.077 446.153 422.196 448.757 421.9 451.672C421.217 458.319 420.767 466.252 420.767 475.646C420.767 489.519 421.746 506.572 424.44 527.332C424.812 530.244 422.762 532.904 419.857 533.279L419.167 533.324C416.536 533.324 414.259 531.371 413.912 528.697C411.167 507.527 410.152 490.021 410.152 475.646ZM363.348 622.436C363.348 617.698 365.976 613.551 369.659 610.825L369.871 610.702C366.443 608.009 364.075 604.041 364.075 599.544C364.075 594.914 366.553 590.856 370.112 588.156C373.712 585.411 378.418 583.86 383.534 583.86C388.635 583.86 393.368 585.411 396.938 588.156C400.523 590.856 403.008 594.914 403.008 599.544C403.008 604.041 400.632 608.009 397.212 610.691L397.409 610.825C401.107 613.551 403.738 617.698 403.738 622.436C403.738 627.167 401.107 631.325 397.409 634.032C393.678 636.785 388.829 638.332 383.534 638.358C378.243 638.332 373.39 636.785 369.659 634.032C365.976 631.325 363.348 627.167 363.348 622.436ZM363.911 367.369L363.922 367.373C365.095 364.68 368.219 363.464 370.905 364.647C373.584 365.826 374.797 368.95 373.628 371.635L373.624 371.643L373.617 371.661L373.543 371.844C373.474 372.015 373.361 372.282 373.218 372.662C372.93 373.413 372.506 374.577 371.987 376.158C370.956 379.312 369.564 384.106 368.19 390.536C367.905 391.875 367.616 393.3 367.339 394.787C369.378 396.677 371.176 398.89 372.798 401.322C375.129 404.836 377.103 408.82 378.842 413.075C382.31 421.588 384.828 431.232 386.699 440.377C390.441 458.65 391.581 474.921 391.595 475.077C391.815 478.172 389.618 480.872 386.699 481.099L386.3 481.117C383.552 481.117 381.221 478.871 381.016 475.914L380.998 475.635C380.98 475.442 380.958 475.148 380.929 474.758C380.863 473.977 380.761 472.838 380.618 471.392C380.329 468.498 379.873 464.388 379.2 459.579C377.866 449.973 375.645 437.528 372.272 426.516C370.269 419.955 367.825 413.911 365.106 409.355C363.801 420.134 362.961 433.184 363.224 448.522C363.681 474.285 367.244 506.453 376.997 544.898C377.713 547.739 375.999 550.633 373.16 551.351C372.754 551.455 372.345 551.507 371.943 551.514C369.535 551.559 367.335 549.941 366.71 547.509C356.771 508.294 353.087 475.304 352.619 448.712C351.691 395.524 363.64 367.968 363.911 367.369ZM342.227 589.123C342.227 586.653 344.39 584.645 347.021 584.645C349.663 584.645 351.826 586.653 351.826 589.123V633.869C351.826 636.361 349.663 638.358 347.021 638.358C344.39 638.358 342.227 636.361 342.227 633.869V589.123ZM301.526 475.077C301.533 474.981 302.026 467.925 303.419 457.936C304.818 447.942 307.098 435.022 310.76 423.042C313.216 415.053 316.252 407.473 320.327 401.322C321.942 398.89 323.74 396.677 325.775 394.787C322.921 379.71 319.618 371.936 319.494 371.643C318.317 368.957 319.534 365.826 322.216 364.647C324.895 363.464 328.023 364.68 329.203 367.373C329.473 367.968 341.426 395.524 340.498 448.712C340.03 475.304 336.351 508.294 326.404 547.509C325.79 549.945 323.579 551.559 321.178 551.514C320.773 551.507 320.367 551.455 319.958 551.351C317.122 550.633 315.405 547.739 316.121 544.898C325.87 506.453 329.44 474.285 329.89 448.522C330.157 433.188 329.32 420.13 328.015 409.355C326.817 411.36 325.666 413.655 324.591 416.158C321.653 422.968 319.289 431.287 317.48 439.492C313.844 455.905 312.419 471.845 312.149 475.245C312.123 475.702 312.105 475.914 312.105 475.914C311.896 478.871 309.569 481.117 306.817 481.117L306.415 481.099C303.499 480.872 301.31 478.172 301.526 475.077ZM372.948 622.436C372.948 624.005 373.763 625.586 375.623 627.022C377.483 628.405 380.326 629.402 383.534 629.402C386.757 629.402 389.6 628.405 391.457 627.022C393.32 625.586 394.15 624.005 394.15 622.436C394.15 620.848 393.32 619.263 391.457 617.846C389.6 616.455 386.757 615.462 383.534 615.462H383.498C380.311 615.462 377.483 616.455 375.623 617.846C373.763 619.263 372.948 620.848 372.948 622.436ZM390.886 604.004C392.648 602.642 393.419 601.106 393.419 599.544C393.419 597.967 392.648 596.435 390.897 595.081C389.151 593.75 386.538 592.82 383.534 592.82H383.52C380.53 592.82 377.91 593.75 376.196 595.081C374.439 596.435 373.664 597.967 373.664 599.544C373.664 601.106 374.439 602.642 376.196 604.004C377.91 605.316 380.556 606.261 383.534 606.261C386.538 606.261 389.151 605.316 390.886 604.004ZM424.414 595.237C422.799 596.576 422.006 598.127 421.984 599.775C422.006 601.434 422.799 602.97 424.414 604.301C426.022 605.595 428.408 606.499 431.163 606.499C433.868 606.499 436.265 605.595 437.902 604.301C439.517 602.97 440.31 601.434 440.317 599.775C440.31 598.127 439.517 596.576 437.902 595.237C436.265 593.962 433.868 593.054 431.163 593.054H431.142C428.394 593.054 426.022 593.962 424.414 595.237ZM320.648 817.036C320.433 819.096 318.85 823.41 322.41 823.507C325.815 823.596 325.702 822.581 327.624 819.174C329.123 816.515 330.749 815.113 332.082 812.182C333.405 809.251 333.994 809.359 334.308 808.418C334.615 807.477 334.589 806.161 335.291 803.505C335.996 800.857 337.133 796.636 337.502 795.118C337.878 793.605 338.423 792.441 339.161 790.57C339.892 788.695 341.646 787.948 343.031 787.702C343.498 787.617 347.207 787.996 347.679 788.045L347.843 788.55C348.011 788.803 347.248 788.718 352.966 790.767C353.127 790.83 352.857 792.017 352.82 792.56C352.725 793.627 352.744 794.765 352.437 795.799C352.437 795.799 349.396 796.253 349.206 797.183C349.009 798.109 348.665 798.856 349.802 799.37C350.931 799.875 351.603 800.519 351.603 800.519C351.603 800.519 351.724 801.601 351.388 803.334C351.212 804.223 350.957 804.16 350.909 804.368C350.851 804.673 348.72 804.762 348.351 804.963C347.109 805.644 347.006 807.418 348.424 809.114C348.954 809.746 349.773 809.222 349.988 809.902C350.281 810.854 349.053 812.126 348.834 812.402C348.07 813.361 346.648 814.86 344.781 815.191C342.91 815.518 341.01 816.199 335.945 815.012C335.207 814.845 334.483 815.515 334.037 816.314C334.067 816.883 334.045 817.475 333.661 818.2L333.782 818.39C334.509 819.111 335.543 819.989 336.113 820.997C336.676 821.997 336.077 822.488 338.09 823.046C340.995 823.853 341.737 821.711 344.098 822.432C346.451 823.154 344.141 824.79 343.875 825.761C343.586 826.769 342.212 827.609 341.576 828.409C339.924 830.466 340.476 833.772 341.412 836.011C342.128 837.718 343.699 842.538 346.36 841.449C347.405 841.021 351.249 837.462 352.484 836.108C353.716 834.754 354.333 833.824 354.677 832.608C355.009 831.399 356.018 820.989 356.953 820.461C358.528 819.572 361.269 819.993 363.016 819.81C366.14 819.483 369.341 818.977 372.425 818.404C373.536 818.2 374.629 817.932 375.725 817.683C377.088 817.374 378.341 816.705 379.704 816.359C380.83 816.072 382.398 815.894 383.231 814.983C383.951 814.205 384.594 813.662 384.689 812.844C384.777 812.022 384.272 811.033 383.728 810.43C382.946 809.538 381.334 809.56 380.286 809.129C377.508 807.998 375.115 806.328 372.688 804.602C371.742 803.94 369.652 803.115 369.089 802.077C368.724 802.215 369.089 802.077 368.935 802.654C368.935 802.977 369.341 803.873 370.101 806.213C371.033 809.11 372.264 811.695 371.362 811.948C368.935 812.643 366.356 812.547 363.9 813.194C363.052 813.421 362.438 813.573 361.667 813.811C360.885 814.053 360.553 814.224 359.694 813.99C358.839 813.748 357.933 812.911 357.611 811.777C357.289 810.646 357.359 810.144 358.506 809.873C359.65 809.601 362.42 808.552 362.668 807.184C362.906 805.819 362.376 805.834 361.846 804.904C361.331 803.981 358.78 806.763 360.213 801.884L360.461 801.017L363.399 800.842C363.648 800.772 363.984 800.697 364.485 800.582C365.738 800.296 368.599 799.756 369.776 798.912C370.116 798.663 370.733 797 370.825 796.71C370.942 796.342 371.442 795.65 370.017 794.903C368.592 794.159 368.968 795.025 367.203 795.319C365.446 795.609 361.411 795.669 361.411 795.669C361.411 795.669 361.656 794.401 361.78 793.199L361.941 792.244L361.981 792.117C361.981 792.117 362.478 790.864 365.047 789.038C367.66 787.174 376.964 785.534 380.092 785.136C383.22 784.738 388.519 784.162 389.567 784.091C390.62 784.02 390.777 782.67 390.148 781.123C389.545 779.635 388.387 780.283 387.232 780.461C385.84 780.681 384.459 780.227 383.063 780.294C381.641 780.353 380.22 780.662 378.824 780.881C376.88 781.179 372.992 782.012 371.749 782.094C370.507 782.172 368.658 782.841 367.773 783.016C366.896 783.191 366.977 782.867 367.963 781.566C368.946 780.264 371.391 780.268 372.349 780.294C373.313 780.309 374.899 779.628 376.646 778.866C379.277 777.724 381.415 775.808 383.684 774.105C384.861 773.224 386.162 772.435 387.287 771.509C388.175 770.776 389.092 769.906 389.582 768.846C390.126 767.686 389.659 767.005 389.165 765.919C388.307 764.015 385.04 764.487 383.384 764.431C382.938 764.416 382.321 764.305 381.89 764.465C380.79 764.881 378.937 766.908 377.556 766.005C377.117 765.718 377.859 763.141 378.133 761.597C378.407 760.05 376.902 758.678 375.425 756.911C373.956 755.137 372.148 751.953 369.557 751.28C366.969 750.603 364.978 755.505 364.331 757.25C363.9 758.421 363.622 759.656 363.184 760.835C362.771 761.932 362.098 762.873 361.612 763.929C360.779 765.77 360.863 769.91 358.177 770.241C357.578 770.319 357.348 771.182 356.749 771.777C356.142 772.364 354.143 773.112 354.399 774.105C354.655 775.094 356.84 773.874 357.213 773.912C357.593 773.956 357.885 775.068 357.947 775.314C358.214 776.363 357.315 778.047 357.077 779.07C356.665 780.84 356.555 782.849 355.842 784.537C355.448 785.478 349.974 784.85 348.238 784.932L347.851 785.036L347.843 785.028L347.671 784.694C347.496 784.132 345.399 783.291 345.431 782.715C345.541 781.041 344.134 780.059 343.228 779.795C342.314 779.535 340.867 778.375 340.407 777.936C339.95 777.501 338.233 776.597 337.505 775.734C336.782 774.875 337.805 772.792 337.878 772.067C337.969 771.167 339.197 770.062 339.749 769.419C341.203 767.715 343.82 766.291 346.126 766.455C347.785 766.574 349.177 766.905 350.423 765.484C353.372 762.092 349.7 758.142 346.867 756.376C345.439 755.494 344.832 754.691 344.054 754.241C343.275 753.791 340.794 752.426 339.771 751.704C338.74 750.986 336.804 749.677 335.645 750.302C334.48 750.919 335.455 752.136 337.125 754.65C337.915 755.825 338.331 756.993 338.189 758.406C338.057 759.712 337.951 760.496 338.613 761.694C339.409 763.137 340.14 764.245 339.654 765.953C339.146 767.749 336.818 771.405 336.27 772.03C335.722 772.647 334.856 772.852 334.271 773.428C331.871 775.779 331.805 778.278 332.726 781.298C333.456 783.715 333.292 787.978 333.044 789.9C332.791 791.82 330.782 796.138 330.113 797.387C329.44 798.633 327.986 801.207 326.013 805.633C324.05 810.051 323.48 810.873 322.991 810.821C322.516 810.773 321.237 812.64 320.78 813.369C320.239 814.246 320.762 816.032 320.648 817.036ZM375.243 771.104C376.317 769.78 379.427 769.523 379.427 769.523C379.544 771.1 377.081 772.175 376.763 772.39C376.441 772.602 376.328 773.049 376.09 773.458C375.838 773.871 374.738 774.053 374.738 774.053C374.738 774.053 374.172 772.424 375.243 771.104ZM330.065 802.929C330.138 802.244 331.07 800.716 332.503 797.614C333.942 794.516 336.669 792.244 336.669 792.244C336.566 793.237 336.219 793.281 336.058 794.036C335.894 794.787 331.399 802.523 330.745 803.074C330.087 803.624 329.996 803.613 330.065 802.929ZM462.634 806.726C463.712 813.562 461.691 817.761 458.11 821.25C454.339 824.887 448.751 827.598 443.288 831.076L443.058 831.224L442.996 831.492C442.974 831.686 442.78 832.024 442.912 832.571L443.003 832.924L443.358 833.036C445.612 833.646 448.492 832.85 450.652 832.601C451.441 832.474 452.186 832.318 452.921 832.128C463.873 829.287 469.95 819.249 470.944 810.646C471.159 806.22 471.371 801.832 471.616 797.588C472.763 796.42 473.9 795.271 475.062 794.259L475.091 794.23L475.131 794.192C476.22 792.909 478.245 791.31 480.244 789.573L479.823 789.09L480.258 789.562C483.222 786.769 486.967 783.005 487.786 780.063L487.819 779.963L487.808 779.855L487.757 779.542C487.296 778.14 485.765 777.701 484.084 777.259C482.381 776.857 480.393 776.63 478.873 776.452C478.72 776.444 475.489 776.437 474.313 776.448H474.236L474.156 776.467L473.64 776.943L473.633 777.426C473.83 778.029 474.313 778.587 474.843 779.364C475.35 780.078 475.866 780.904 475.964 781.317L475.986 781.51C475.888 782.745 473.056 785.835 471.437 787.312C470.472 779.966 473.191 773.335 472.197 765.874L472.16 765.636L471.981 765.48C469.697 763.524 462.495 760.887 458.731 761.605L458.457 761.664L458.311 761.913L458.157 762.52L458.15 762.59L458.095 762.683L458.088 762.843C458.037 763.807 458.187 764.762 458.435 765.722C458.958 767.738 459.9 769.761 460.412 771.773C460.602 772.498 460.734 773.22 460.781 773.945C461.34 781.35 462.312 788.61 462.389 795.754C458.877 799.492 454.927 803.171 450.403 806.265C448.675 807.559 446.058 807.957 443.701 809.493L443.372 809.709L443.365 809.716L442.715 809.887L443.01 810.587C444.476 813.774 446.961 818.479 450.823 817.668L451.536 817.415C453.747 816.37 455.621 814.674 457.361 812.513C458.99 810.479 460.704 808.593 462.634 806.726ZM474.313 802.308C473.987 803.197 474.009 804.134 474.251 805.038C475.533 809.783 482.491 814.696 484.917 816.768C485.604 817.285 486.076 817.921 486.916 818.561C487.526 819.052 488.374 819.565 489.485 819.635C490.26 819.68 490.976 819.598 491.652 819.423L491.681 819.416C495.759 818.33 498.076 814.098 499.735 812.346C500.126 811.844 501.157 811.029 502.078 810.17C502.995 809.277 503.927 808.407 504.022 807.221L504.051 806.544L503.367 806.548C502.114 806.559 501.08 806.67 499.903 806.685L499.911 807.329L499.867 806.685C498.961 806.745 498.098 806.905 497.269 807.12C495.485 807.582 493.848 808.262 492.193 808.682C491.1 808.965 489.997 809.14 488.838 809.095C487.749 809.103 486.485 808.723 485.147 808.173C481.727 806.864 478.314 804.149 476.096 801.891L475.836 801.627L474.762 801.902L474.433 801.988L474.313 802.308ZM530.482 725.495L529.872 725.867L530.771 726.406C532.141 727.213 533.606 728.147 534.988 728.972C538.364 731.502 542.694 734.607 545.062 738.43L545.084 738.475C545.49 739.133 545.947 739.78 546.338 740.413C547.065 741.603 547.456 742.629 547.028 743.63L547.014 743.663L546.981 743.682C543.582 743.466 540.432 740.896 535.938 743.626C535.433 743.939 534.911 744.318 534.363 744.775L534.217 744.902L534.169 745.095L534.228 745.832L534.345 745.988L534.454 746.111L534.608 746.166C537.648 747.189 543.224 750.112 545.388 753.136C545.786 753.806 546.115 754.62 546.601 755.405C547.014 756.093 547.576 756.77 548.443 757.231L548.541 757.29L548.651 757.305C549.955 757.502 551.253 757.703 552.55 757.908L552.883 757.96L553.116 757.711C553.694 757.038 553.624 756.212 553.493 755.397C553.014 752.946 551.549 749.581 553.361 747.264C554.611 746.672 555.744 747.1 557.333 746.921L557.465 746.903L557.571 746.832C557.933 746.561 558.024 746.378 558.159 746.308L558.492 746.096L558.459 745.709C558.367 744.727 558.185 743.678 558.101 742.76L558.086 742.652L558.046 742.555C557.746 741.897 557.458 741.019 557.059 740.156L557.578 738.851L560.008 732.93L560.37 732.781C560.819 732.993 561.58 733.514 561.865 734.016L562.033 734.592V734.633V734.678L562.018 734.67L561.382 735.541L561.061 735.909L561.422 736.437L561.572 736.656L561.85 736.701C562.431 736.768 562.972 736.578 563.399 736.444C564.108 737.255 564.675 738.01 565.559 738.758L565.596 738.795L565.647 738.821C566.611 739.308 568.271 739.732 568.256 739.944L568.234 739.948L568.197 740.048L568.186 740.145C568.102 742.072 565.76 746.092 563.933 748.844C563.662 749.391 563.436 749.819 563.206 750.09L563.158 750.142L563.122 750.198C559.255 757.071 555.331 763.807 551.406 770.728C549.988 773.648 544.759 777.824 547.196 782.146L547.471 782.544L547.602 782.711L547.81 782.767C549.955 783.31 552.152 783.656 554.388 783.812C555.82 783.727 557.173 783.009 557.746 783.299L558.185 783.459L558.47 783.072C561.401 779.118 560.326 776.909 560.812 775.481C562.913 769.095 566.198 762.944 570.167 756.863C571.146 755.602 572.06 754.207 573.032 752.958C574.691 750.637 576.328 747.598 578.966 745.999L579.533 745.675L579.566 745.661C579.818 746.163 579.946 746.732 579.99 747.163C580.092 748.662 579.175 750.191 578.846 751.853C578.488 754.546 577.662 757.361 576.814 759.864C576.397 760.883 575.14 762.389 575.155 763.922C575.243 764.442 575.425 764.811 575.619 765.134C575.871 765.54 576.145 765.889 576.328 766.191L576.573 766.778L576.591 766.908L576.606 766.923L576.573 767.02C576.091 768.162 573.606 770.877 572.838 772.041C571.775 774.045 570.635 776.069 569.348 777.832C566.451 781.581 561.623 784.619 560.633 789.198L560.556 789.54L560.812 789.785C561.733 790.592 563.79 791.087 566.151 791.384C568.501 791.63 571.004 791.589 572.604 790.641L573.076 790.298C574.991 788.372 575.707 785.661 576.372 783.779C577.271 781.309 579.796 776.772 582.306 774.276L582.931 773.703C583.615 774.254 584.338 775.184 585.222 775.979C586.004 776.727 586.607 777.456 587.042 778.159C588.036 779.799 588.135 781.238 587.663 782.696C587.097 784.712 585.175 786.743 582.756 788.714C582.474 788.933 582.146 789.157 581.802 789.369C580.647 790.083 579.208 790.719 577.929 791.5C577.417 791.816 576.931 792.158 576.496 792.552L576.16 793.203L576.167 793.318L575.992 794.137L576.821 794.088C579.12 793.913 581.455 792.816 583.454 792.82C587.104 792.757 590.189 792.63 593.806 792.571H593.883L593.952 792.548L594.625 792.307L594.636 792.299L595.027 791.812C596.189 788.904 595.875 781.61 593.36 777.404C593.057 776.906 592.714 776.463 592.337 776.072C590.492 774.135 588.23 772.312 586.944 770.207L586.425 769.218C586.461 768.969 587.126 767.968 587.883 767.187C588.679 766.321 589.608 765.491 589.838 765.35L594.34 762.583L594.413 762.497C595.918 760.537 595.261 758.183 595.4 756.621V756.573V756.509L595.122 755.673C594.596 754.836 593.645 754.94 593.602 754.903L593.539 754.892L593.477 754.895C592.144 754.936 590.938 755.435 589.874 756.089C589.129 756.554 588.435 757.086 587.795 757.625C587.09 758.22 586.534 758.734 585.975 759.232L580.381 762.672L580.351 762.665C580.169 762.631 579.719 762.248 579.511 761.884L579.372 761.59L579.357 761.549C580.041 759.195 582.679 756.881 583.991 754.151C584.196 753.742 584.554 753.181 584.824 752.66C585.968 749.536 586.743 746.557 587.729 743.641C588.135 742.261 589.567 738.988 588.215 736.623C587.905 736.121 587.448 735.686 586.852 735.396C585.252 734.395 583.432 734.841 581.945 735.764C579.902 737.032 578.206 739.182 577.351 740.621C577.154 741.038 576.843 741.372 576.657 741.915C574.055 745.962 570.814 749.934 567.653 754.04C566.557 755.702 565.248 757.346 564.328 759.117C563.641 760.143 561.536 763.974 560.52 764.584H560.494C559.855 762.918 561.645 760.329 562.559 758.317L566.257 751.224L572.159 739.643C572.561 739.156 573.43 738.59 574.344 738.036C574.874 737.776 575.502 737.456 576.112 737.084C576.997 736.537 577.837 735.89 578.327 734.99C581.736 729.181 579.96 721.787 580.238 715.762C580.307 713.378 580.951 705.545 578.473 701.417C577.735 700.204 576.635 699.275 575.162 699.078C573.69 698.873 571.972 699.353 569.9 700.617L569.802 700.68L569.725 700.777C567.949 703.236 565.354 712.351 561.927 716.171C561.612 714.397 562.31 712.143 563.008 709.781C563.776 707.092 564.514 704.18 562.943 701.588L562.807 701.383L562.793 701.343C562.31 700.695 561.631 700.58 560.732 700.405C558.057 700.007 553.361 700.372 550.617 701.636L550.197 701.837L550.251 702.298C550.493 703.667 551.786 705.218 552.283 706.43L552.323 706.977L552.985 712.772C553.204 714.683 553.92 716.985 554.052 719.076C554.158 721.188 553.781 722.899 551.91 724.063C551.158 724.528 550.142 724.9 548.786 725.138C548.351 725.201 548.216 725.29 547.953 725.316C545.077 725.573 542.621 724.29 539.468 724.249C538.043 724.048 536.749 724.513 535.51 724.509C534.279 724.543 532.642 724.052 530.924 724.885L530.299 725.197L530.482 725.495ZM567.573 731.862L568.073 731.557L569.242 731.122L570.046 731.632C570.123 732.13 570.299 732.495 570.306 732.699C570.167 733.168 569.886 733.543 569.502 733.785C569.067 734.042 568.501 734.153 567.77 733.923C567.423 733.142 567.445 732.714 567.573 731.862ZM562.639 720.995L563.268 721.021C563.341 717.22 569.089 710.704 571.874 707.364C572.221 707.059 572.319 706.81 572.634 706.627C572.871 706.494 573.112 706.404 573.642 706.557C574.3 706.832 574.713 707.215 574.998 707.676C575.44 708.39 575.546 709.395 575.488 710.514C575.488 712.511 575.356 714.583 575.279 716.48V716.521L575.287 716.584C575.824 719.968 577.483 726.838 574.337 728.552L573.796 728.824C572.725 727.991 571.83 727.18 570.916 726.362L570.77 726.231L570.598 726.209C569.823 726.09 569.118 726.183 568.603 726.098C568.033 725.915 566.959 725.447 565.965 724.785C564.865 724.167 564.031 723.435 563.633 722.776L563.509 722.561L563.487 722.497L563.436 722.43L563.421 722.408C563.257 722.14 563.191 721.683 563.264 721.069L562.639 720.995ZM549.897 731.167C550.387 730.992 550.789 730.892 551.107 730.884C552.002 730.854 552.729 730.932 553.548 730.992C553.591 731.751 553.42 732.978 553.124 733.744L553.708 733.964L553.102 733.796L552.948 734.373C551.91 733.536 550.679 732.517 550.109 731.572L549.897 731.167Z" fill="#00468C"/>
<path d="M1271.24 232.963C1271.24 232.963 1272.54 229.226 1273.52 228.575C1285.68 222.863 1294.89 237.03 1291.35 238.173C1288.64 239.059 1266.33 255.991 1266.33 255.991C1264.17 245.305 1271.24 232.963 1271.24 232.963ZM1518.43 506.35C1506.53 507.097 1502.83 507.097 1479.81 509.307C1456.81 511.528 1423.4 511.528 1419.68 509.307C1415.99 507.097 1401.88 489.332 1392.22 476.018C1382.58 462.694 1330.63 396.822 1317.26 373.879C1303.9 350.946 1277.92 289.515 1277.92 289.515C1277.92 289.515 1299.45 270.276 1337.3 248.817C1375.15 227.347 1378.13 216.254 1379.61 208.856C1381.1 201.457 1381.83 192.574 1365.51 199.973C1349.18 207.372 1312.08 206.635 1309.09 206.635C1306.12 206.635 1299.45 205.14 1292.76 210.329C1286.08 215.507 1276.33 212.603 1276.33 212.603C1276.33 212.603 1271.24 209.592 1271.24 202.183C1271.24 194.784 1257.14 180.734 1257.14 180.734C1272.72 186.649 1312.81 161.485 1326.9 147.425C1341.01 133.353 1369.96 108.189 1380.35 96.3493C1390.75 84.5307 1402.62 89.7087 1412.27 66.7654C1418.46 52.0535 1415.06 63.5092 1420.07 47.8257C1425.07 32.1423 1420.07 30.7224 1411.49 27.1458C1402.91 23.58 1389.32 29.2811 1375.73 31.4269C1362.14 33.5622 1344.98 37.1174 1337.13 38.5694C1329.25 39.9787 1333.55 39.9787 1315.66 50.6656C1297.78 61.3739 1271.33 69.2103 1247.01 79.9078C1222.71 90.6055 1210.55 92.7408 1203.4 92.7408C1196.25 92.7408 1190.53 90.6055 1182.66 103.438C1177.51 111.83 1183.98 119.239 1190.05 124.759C1197.46 131.506 1200.66 136.876 1206.44 144.905C1211.21 151.535 1219.97 152.923 1224.13 160.471C1224.13 160.471 1216.99 159.756 1206.27 160.471C1195.53 161.176 1198.39 176.154 1198.39 184.717C1198.39 193.258 1199.1 219.649 1196.95 228.201C1194.82 236.753 1195.53 248.87 1195.53 260.283C1195.53 271.685 1189.59 302.839 1189.59 302.839C1179.19 313.942 1084.94 370.921 1068.6 380.541C1052.26 390.16 1018.87 371.669 1018.86 371.669C1007.21 391.601 1025.59 430.014 1039.48 445.121C1047.77 454.132 1059.59 462.94 1070.83 467.872C1089.39 476.018 1119.76 464.968 1140.59 441.224C1161.38 417.534 1187.36 374.615 1187.36 374.615C1190.33 409.399 1187.36 432.342 1156.93 507.097C1126.49 581.841 1086.41 581.841 1064.15 587.756C1041.88 593.671 1006.25 590.713 1003.28 601.817C998.428 619.934 1058.21 636.6 1096.07 629.201C1120.62 624.397 1141.9 600.728 1158 583.293C1180.29 559.176 1203.35 533.884 1213.36 501.919C1221.66 475.442 1227.03 447.769 1232.23 420.566C1234.72 407.498 1237.18 394.409 1239.32 381.277C1244.52 349.451 1253.42 308.764 1253.42 308.764C1253.42 308.764 1277.92 418.292 1293.5 467.872C1309.09 517.453 1349.18 576.653 1374.42 583.315C1399.64 589.977 1433.06 561.119 1441.22 558.162C1449.38 555.194 1491.7 538.902 1513.95 530.777C1536.23 522.631 1530.3 505.602 1518.43 506.35Z" fill="#00468C"/>
<path d="M2598.49 359.851L2598.78 359.67C2607.76 353.362 2623.11 346.574 2638.57 338.847L2636.69 335.09L2638.68 338.804C2661.93 326.008 2691.66 308.386 2701.66 291.139L2702 290.531L2702.14 289.848L2702.3 287.777C2701.68 278.161 2692.74 272.899 2682.88 267.37C2672.81 262.034 2660.62 257.391 2651.33 253.752C2650.39 253.453 2630.01 248.138 2622.6 246.27L2622.1 246.142H2621.57C2620.31 246.014 2618.28 246.953 2617.53 248.319C2616.71 249.611 2616.71 250.603 2616.7 251.361C2616.92 255.491 2619.08 259.793 2621.14 265.535C2623.2 270.935 2625.1 276.955 2625.04 279.74L2624.89 280.978C2622.26 288.631 2599.32 303.509 2586.7 310.19C2592.65 262.237 2620.56 224.775 2626.45 176.021L2626.64 174.473L2625.78 173.192C2614.53 157.14 2573.4 128.74 2548.55 127.085L2546.67 127L2545.34 128.345C2543.91 129.892 2543.69 131.205 2543.41 131.91L2543.25 132.379L2542.76 132.859L2542.44 133.863C2540.54 139.861 2539.92 146.169 2539.92 152.583C2539.94 166.191 2542.58 180.493 2542.54 194.037C2542.54 198.957 2542.2 203.738 2541.34 208.392C2532.77 256.046 2527.05 303.456 2515.89 348.741C2487.65 366.597 2456.72 383.364 2423.13 395.51C2410.14 400.889 2392.98 399.106 2375.64 404.966C2374.33 405.147 2373.62 405.649 2373.2 405.809L2373.15 405.852H2368.74L2369.51 410.729C2373.53 433.303 2381.54 467.05 2407.24 468.235C2408.86 468.235 2410.48 468.064 2412.12 467.787C2427.76 464.82 2442.34 457.178 2456.83 446.377C2470.48 436.174 2484.31 427.07 2499.51 418.403C2495.17 463.357 2475.59 486.592 2447.31 502.741C2417.62 519.582 2377.94 527.566 2337.81 540.619L2336.09 541.163L2335.31 542.775C2334.84 543.959 2333.06 545.795 2333 549.445V551.836L2335.08 553.074C2348.3 560.631 2367.73 560.289 2381.76 562.274C2386.96 562.765 2391.94 563 2396.85 563C2470.51 562.904 2525.25 509.443 2545.55 456.751C2554.15 429.14 2562.61 401.775 2571.1 375.359C2580.24 369.895 2589.28 364.483 2598.23 359.99L2598.49 359.851ZM2756.75 483.828C2748.79 481.832 2742.07 480.882 2734.65 479.015L2733.63 483.113L2734.42 478.972C2728.61 477.851 2722.9 477.478 2717.29 477.478C2705.33 477.478 2693.88 479.1 2682.74 479.089C2675.4 479.089 2668.17 478.385 2660.92 476.186C2654.04 474.479 2646.68 469.996 2639.19 464.361C2619.74 450.454 2602.63 427.753 2592.31 409.865L2591.11 407.762H2583.89H2581.66L2580.4 409.598C2576.93 414.678 2575.52 420.623 2575.52 426.739C2575.89 458.821 2611.78 501.193 2623.66 518.238C2627.2 522.624 2629.11 527.427 2633.39 532.849C2636.43 536.915 2640.94 541.537 2647.8 543.821C2652.63 545.326 2657.31 545.998 2661.85 545.998H2662.02C2689.53 545.817 2711.04 522.902 2724.39 514.524C2727.67 511.994 2735.46 508.515 2742.7 504.598C2749.92 500.489 2757.2 496.476 2759.73 489.143L2761 484.906L2756.75 483.828Z" fill="#00468C"/>
<path d="M3130.98 193.121L3133.65 196.402L3130.69 193.366C3129.72 194.329 3128.73 195.301 3127.89 196.146C3124.76 187.829 3121.12 177.792 3121.05 170.426C3121.03 169.336 3121.06 168.299 3121.2 167.38C3124.63 168.053 3127.28 168.801 3129.12 169.838C3134.37 172.703 3138.27 175.643 3142.78 178.764C3140.42 183.286 3135.26 189.721 3130.98 193.121ZM3220.29 231.294L3224.23 231.219L3232.4 232.705C3233.18 234.404 3234.1 236.254 3235.32 238.327C3234.02 241.47 3233.82 244.153 3233.18 245.351C3230.8 247.585 3227.86 248.782 3224.85 248.857C3221.49 248.889 3217.9 247.574 3214.48 243.822C3215.1 238.135 3216.69 235.73 3220.29 231.294ZM3228.5 164.119L3228.57 163.638L3228.51 163.104V162.944C3228.43 160.848 3229.61 157.973 3232.14 154.723L3228.81 152.136L3232.36 154.435C3245.61 132.895 3300.67 114.947 3327.98 105.208C3331 104.642 3332.42 103.551 3334.84 103.551C3336.64 103.594 3338.32 103.904 3340.85 106.587C3343.69 110.393 3344.78 113.963 3344.86 117.566C3344.99 123.178 3342.15 129.314 3338.06 135.556C3331.31 147.005 3323.52 158.454 3316.66 169.069L3316.51 169.315L3316.34 169.71C3307.96 190.983 3294.23 236.018 3270.33 235.185C3269.04 235.206 3267.7 235.131 3266.31 234.917C3263.05 226.526 3260.6 218.829 3258.13 210.994L3257.73 209.807L3256.79 209.048C3252.76 205.734 3248.42 203.917 3245.77 201.651C3243.08 198.679 3238.53 192.351 3235.04 185.232C3230.82 177.941 3228.52 170.897 3228.44 165.755L3228.5 164.119ZM3101.92 366.187L3147.16 337.998L3220.28 291.53C3224.22 290.055 3231.13 289.777 3238.22 289.681C3242.14 289.991 3246.89 290.29 3251.65 290.215C3258.56 290.076 3265.57 289.189 3271.46 285.704C3310.69 263.897 3325.55 215.398 3347.5 181.757C3356.01 168.31 3386.27 125.519 3386 93.4175C3385.88 83.9678 3382.69 74.9136 3374.92 68.7563C3367.18 62.6204 3355.69 59.5311 3339.53 59.7983L3338.72 59.8197L3337.98 60.1297C3319.45 68.2004 3273.68 111.729 3241.05 122.055C3245.23 110.81 3256.92 100.248 3268.91 89.0561C3282.42 76.2177 3296.51 62.0004 3296.27 41.7968L3296.22 40.1613L3296.24 39.8513C3295.72 34.5171 3292.15 31.5133 3287.61 27.5046C3273.61 16.1522 3245.4 2.341 3225.37 0.288574L3222.26 0L3221.06 2.86481C3217.78 11.5235 3219.98 24.8109 3218.7 33.4695L3217.09 36.7513L3201.27 72.2305C3196.05 83.9785 3192.35 99.6069 3186 112.05C3179.5 124.557 3171.53 133.087 3156.83 133.451C3150.96 133.547 3143.84 132.253 3135.26 129.004C3132.54 127.913 3131.49 127.945 3129.92 127.24C3112.52 118.955 3102.74 103.263 3084.8 92.3378C3077.27 86.3516 3068.32 84.6519 3061.22 80.4188C3054.04 76.4423 3046.28 68.0829 3033.59 67.0566L3028.98 66.7253L3029.02 69.0342L3024.26 69.1198L3027.59 75.245C3032.7 84.5344 3037.94 94.8607 3043.11 104.31C3053.9 130.244 3068.24 162.74 3068.84 192.725V193.046C3068.93 198.209 3069.38 203.468 3069.47 208.418C3069.62 217.739 3068.39 224.933 3062.52 229.23L3062.34 229.38H3062.13C3043.35 216.617 3033.94 191.164 2998.89 191.635C2994.91 191.699 2990.63 192.105 2986.01 192.896L2984.7 193.131L2983.77 194.051C2983.37 194.286 2981.48 196.306 2981.61 198.53L2981.73 199.802L2981.94 200.86L2982.66 201.704C2996.62 217.878 3018.74 253.56 3020.95 278.243C3020.97 283.47 3020.07 289.264 3020.17 295.411C3020.22 300.755 3021.19 306.528 3024.59 312.129L3024.94 312.749L3025.54 313.23C3032.33 318.789 3039.1 324.348 3045.89 329.917L3047.62 331.36L3049.79 330.697C3055.42 328.784 3057.78 323.824 3059.77 318.693C3065.31 303 3068.34 278.703 3086.6 271.562C3095.73 272.374 3100.82 278.703 3110.51 283.043L3111.33 283.374L3112.24 283.363C3115.21 283.043 3116.31 282.262 3117.36 282.316L3119.99 282.273L3121.09 279.889C3123.88 273.978 3126.44 267.307 3129.02 261.738L3129.32 261.086L3129.39 260.402C3129.89 255.591 3131.2 249.584 3131.87 243.245L3139.28 237.558L3173.29 211.785L3175.85 212.138C3177.74 214.917 3180.32 220.476 3180.24 224.292C3180.25 226.002 3179.92 227.253 3179.26 228.162L3179.11 228.386L3178.97 228.653L3178.92 228.589C3177.79 229.434 3174.42 230.802 3172.35 231.433L3169.21 232.448L3169.5 236.703L3169.62 238.488L3171.05 239.664C3174.16 241.983 3177.95 242.774 3180.86 243.459C3182.16 250.514 3182.84 256.778 3185.39 264.036L3185.5 264.368L3185.7 264.688C3189.58 270.771 3197.66 278.82 3196.83 280.007L3196.72 279.975L3196.17 280.392L3195.82 280.926C3188.77 291.701 3161.73 306.881 3141.9 316.459C3138.48 318.693 3135.77 320.392 3133.49 321.141L3133.04 321.28L3132.69 321.483C3087.19 347.833 3041.87 373.21 2995.84 399.614C2977.85 411.64 2933.64 417.861 2933 450.925C2933.01 451.865 2933.06 452.956 2933.22 454.142L2933.42 455.543L2934.44 456.58C2944.93 466.981 2956.36 476.388 2968.68 484.875C2977.21 489.205 2987.38 489.718 2989.66 493.288L2991.67 495.704L2994.57 494.464C3024.8 481.668 3026.13 465.377 3033.76 458.803C3067.43 429.289 3107.12 405.077 3150.51 383.601C3160.41 379.688 3170.38 374.771 3180.2 370.912C3197.58 363.216 3217.26 351.329 3237.81 351.04C3239.28 351.008 3240.7 351.04 3242.14 351.136L3242.42 351.158C3242.14 354.878 3240.97 358.587 3239.74 361.217C3235.24 370.121 3224.85 375.829 3217.28 384.296C3206.13 398.492 3191.87 411.875 3178.49 423.367C3172.63 427.803 3160.36 432.175 3155.2 441.069C3153.94 444.318 3153.74 447.066 3153.78 449.599C3153.84 452.774 3154.24 455.692 3154.28 458.033C3154.32 459.915 3154.1 461.294 3153.7 462.245L3153.34 463.068V463.175L3152.92 463.646C3146.22 468.552 3122.77 475.714 3114.4 479.798C3101.56 487.74 3088.15 495.458 3074.76 501.231C3045.44 512.925 3007.45 514.015 2986.24 536.934L2984.67 538.655L2985.3 540.932C2987.84 548.672 2997.96 558.495 3010.55 568.212C3023.2 577.577 3037.69 585.861 3050.09 585.808C3051.44 585.808 3052.7 585.647 3053.95 585.434C3071.47 580.826 3084.75 567.71 3094.95 559.169C3108.44 548.041 3138.35 530.542 3161.22 524.769C3162.78 524.214 3164.63 524 3166.75 523.572C3168.77 529.035 3169.8 536.817 3172.16 544.406C3174.13 551.323 3175.1 557.565 3175.2 563.06C3175.36 575.856 3171.07 584.472 3163.41 591.227C3153.4 600.87 3135.45 606.022 3114.87 609.133C3112.52 609.453 3109.92 609.624 3107.18 609.678C3098.15 609.86 3087.72 608.62 3077.74 608.791C3073.72 608.855 3069.75 609.175 3065.93 609.934C3064.04 609.988 3062 611.88 3061.82 612.585L3061.47 613.216L3057.65 617.332L3062.63 619.876C3076.37 626.675 3093.5 628.289 3104.98 635.087C3126.15 647.081 3144.27 656.798 3165.18 668.696L3165.66 668.963L3166.16 669.102C3167.14 669.327 3168.55 669.989 3170.82 670H3170.89C3172.04 669.979 3173.58 669.594 3174.79 668.514C3191.33 655.74 3214.23 612.81 3214.03 580.131C3213.97 576.262 3213.56 572.542 3212.73 569.046C3208.67 551.654 3201.85 533.503 3201.61 517.094C3201.57 514.507 3201.66 512.027 3201.97 509.633C3203.03 508.371 3210.24 504.844 3217.24 502.92C3224.72 500.632 3232.86 499.018 3234.66 498.986L3269.9 498.376L3270.57 498.12C3285.87 491.973 3290.06 476.217 3296.14 467.697L3296.33 467.43L3296.5 467.088C3297.39 465.11 3297.83 463.154 3297.8 461.347C3297.59 454.741 3291.77 452.133 3291.65 451.791L3291.32 451.513L3290.94 451.31C3283.17 447.034 3274.59 445.826 3266.23 445.975C3260.39 446.072 3254.59 446.799 3249.09 447.729C3243.07 448.765 3238.1 449.802 3233.2 450.807L3189.43 451.566L3189.32 451.427C3188.37 450.615 3187.1 446.873 3187.14 444.126L3187.34 441.945L3187.42 441.667C3199.29 430.454 3222.27 426.114 3239.06 414.89C3241.6 413.211 3245.57 411.234 3248.87 409.107C3266.02 395.114 3280.56 380.618 3296.1 367.213C3303.09 360.703 3322.43 346.753 3322.64 328.559C3322.59 324.626 3321.41 320.596 3318.99 316.876C3313.21 305.726 3301.22 302.113 3289.58 302.402C3273.59 302.733 3256.54 309.35 3246.75 314.706C3244.22 316.448 3241.3 317.292 3238.38 319.772C3209.76 334.214 3177.7 346.048 3145.66 358.897C3133.74 364.755 3120.66 369.726 3109.36 376.791C3101.92 380.33 3076.9 395.178 3069 395.274L3068.84 395.135C3070.84 383.44 3089.84 374.654 3101.92 366.187Z" fill="#00468C"/>
<path d="M2143.88 399.319C2143.1 394.05 2138.35 388.74 2134 385.838C2127.63 381.6 2117.68 384.345 2110.43 383.367C2091.27 380.801 2073.65 374.323 2055.72 367.551C2048.76 364.933 2034.43 363.198 2029.17 357.645C2027.16 359.097 2029.17 357.645 2029.17 361.515C2029.71 363.524 2033.7 368.413 2042.24 381.758C2052.78 398.257 2064.58 412.306 2059.42 415.355C2045.41 423.62 2029.17 427.238 2014.94 435.24C2010.04 437.995 2006.48 439.951 2002.03 442.706C1997.56 445.472 1995.78 447.06 1990.05 446.975C1984.32 446.881 1977.32 443.137 1973.48 436.618C1969.64 430.087 1969.27 426.849 1975.93 423.326C1982.63 419.782 1998.19 408.762 1997.48 399.855C1996.76 390.969 1993.48 391.926 1988.71 386.994C1983.96 382.105 1972.61 403.525 1973.61 370.864C1973.66 369.328 1973.05 365.742 1973.72 365.091C1974.36 363.114 1990 359.885 1991.78 359.202C1993.2 358.392 1995.15 357.351 1998.09 355.837C2005.42 352.041 2022.39 344.007 2028.32 336.856C2030.05 334.764 2031.21 323.407 2031.3 321.472C2031.43 319.011 2033.42 313.869 2023.33 311.545C2013.25 309.232 2016.99 314.027 2006.49 318.685C1995.99 323.344 1970.96 330.305 1970.96 330.305C1970.96 330.305 1970.43 321.987 1969.23 314.29C1968.95 312.397 1968.59 310.073 1968.69 308.107L1968.73 307.286C1968.73 307.286 1969.8 298.653 1982.83 283.121C1996.05 267.317 2051.38 241.995 2070.22 234.455C2089.07 226.926 2121.13 214.718 2127.55 212.572C2133.96 210.406 2132.75 201.794 2126.35 193.182C2120.18 184.885 2113.98 190.816 2107.09 193.802C2098.8 197.419 2089.42 196.862 2080.84 199.502C2072.11 202.194 2063.75 206.431 2055.39 210.049C2043.76 215.075 2020.89 226.558 2013.3 229.071C2005.68 231.595 1995.25 238.767 1990.05 241.269C1984.84 243.793 1984.84 241.648 1988.84 231.942C1992.85 222.257 2008.09 218.314 2014.1 216.884C2020.1 215.433 2028.91 208.619 2038.55 201.079C2053.07 189.69 2063.26 174.275 2074.66 160.015C2080.55 152.655 2087.35 145.62 2092.87 138.038C2097.23 132.044 2101.52 125.146 2102.87 117.753C2104.34 109.646 2100.31 106.165 2095.48 100.213C2087.04 89.7819 2067.49 98.0261 2057.08 100.35C2054.23 100.981 2050.24 101.286 2047.81 103.01C2041.66 107.385 2033.38 122.98 2023.31 119.604C2020.1 118.521 2020.5 101.296 2019.7 91.2435C2018.9 81.2011 2007.29 75.0916 1995.25 66.4793C1983.23 57.867 1966.79 41 1949.56 41C1932.31 41 1927.9 74.7341 1926.7 86.5851C1925.88 94.6296 1926.21 102.748 1925.37 110.781C1924.59 118.248 1921.92 125.219 1920.63 132.57C1918.4 145.357 1925.65 170.983 1909.47 177.387C1905.85 178.828 1905.85 184.569 1903.06 189.238C1900.25 193.897 1889.02 201.794 1892.23 207.546C1895.44 213.277 1907.05 202.151 1909.47 201.794C1911.87 201.436 1915.48 207.882 1916.28 209.323C1919.67 215.391 1916.78 227.347 1916.95 234.056C1917.28 245.77 1919.87 258.431 1918.2 270.082C1917.26 276.581 1882.1 281.544 1871.44 284.867C1859.1 289.441 1871.12 301.545 1874.87 308.022C1876.3 309.305 1871.44 310.02 1910.39 313.522C1911.48 313.617 1911.76 321.451 1912.38 324.868C1913.52 331.672 1915.48 338.728 1915.27 345.647C1915.27 345.647 1897.04 353.418 1897.36 359.486C1897.69 365.553 1896.72 370.779 1904.63 372.115C1912.53 373.45 1917.77 376.363 1917.77 376.363C1917.77 376.363 1920.25 382.883 1920.96 394.187C1921.34 400.044 1919.64 400.034 1919.69 401.422C1919.82 403.409 1906.66 407.437 1904.7 409.256C1898.06 415.502 1900.33 426.712 1911.92 434.977C1916.24 438.048 1920.49 433.452 1922.93 437.364C1926.31 442.759 1920.74 452.664 1919.81 454.746C1916.6 461.96 1910.2 473.559 1899.09 478.648C1887.98 483.717 1877.22 491.046 1843.74 491.909C1838.88 492.024 1835.47 497.366 1834 503.066C1835.12 506.567 1835.93 510.29 1834.73 515.411L1835.8 516.41C1841.46 519.733 1849.33 523.497 1854.53 528.829C1859.68 534.16 1856.72 538.156 1870.19 538.366C1889.58 538.682 1890.75 524.149 1906.6 524.812C1922.45 525.464 1910.72 539.407 1910.6 545.864C1910.47 552.636 1903.29 560.06 1900.61 566.054C1893.66 581.554 1902.45 601.187 1911.94 613.605C1919.17 623.038 1936.79 650.484 1951.6 639.411C1957.42 635.057 1975.59 606.665 1981.05 596.255C1986.55 585.834 1988.88 579.02 1989.03 570.923C1989.19 562.847 1978.54 496.462 1983.48 491.688C1991.86 483.591 2009.57 481.782 2020.2 477.786C2039.13 470.678 2058.26 462.37 2076.55 453.779C2083.11 450.708 2089.49 447.27 2095.92 443.957C2103.91 439.814 2110.63 433.621 2118.54 429.267C2125.1 425.65 2134.59 421.969 2138.28 414.955C2141.51 408.972 2144.67 404.566 2143.88 399.319ZM2017.2 155.052C2021.74 145.094 2040.7 138.448 2040.7 138.448C2043.99 148.038 2030.4 158.743 2028.75 160.594C2027.11 162.445 2027.11 165.389 2026.28 168.344C2025.44 171.309 2018.84 174.243 2018.84 174.243C2018.84 174.243 2012.66 165.021 2017.2 155.052Z" fill="#00468C"/>
<path d="M1869.43 286.917L1868.71 286.243L1867.05 284.42C1865.05 281.206 1850.6 279.404 1849.9 275.748C1847.83 265.158 1837.48 261.28 1831.38 261.153C1825.28 260.995 1814.37 256.138 1810.81 254.146C1807.25 252.144 1795.04 249.309 1789.11 245.137C1783.19 240.953 1786.19 226.296 1785.46 221.681C1784.58 215.917 1790.45 207.044 1792.82 202.144C1799.13 189.141 1813.11 176.001 1827.75 173.283C1838.3 171.312 1847.53 171.123 1852.95 160.238C1865.86 134.295 1836.53 115.686 1815.98 109.29C1805.67 106.097 1800.57 102.082 1794.97 100.554C1789.37 99.0157 1771.71 94.5479 1764.14 91.7239C1756.55 88.8999 1742.37 83.8842 1736.14 89.6586C1729.89 95.433 1737.96 101.387 1752.45 114.348C1759.28 120.438 1763.77 126.982 1765.19 136.023C1766.52 144.379 1767.12 149.458 1773.17 155.822C1780.5 163.515 1786.83 169.257 1786.6 180.669C1786.35 192.692 1777.81 219.257 1775.38 224.051C1772.98 228.783 1767.92 231.47 1765.18 236.032C1754.06 254.578 1757.72 270.268 1768.36 287.602C1776.85 301.438 1782.77 328.276 1784.33 340.657C1785.89 353.028 1780.38 383.207 1778.24 392.079C1776.09 400.931 1771.21 419.35 1766.13 450.108C1761.06 480.877 1758.83 486.884 1755.72 487.368C1752.63 487.843 1747.72 501.541 1746.09 506.852C1744.15 513.206 1750.24 523.459 1751.23 529.939C1753.22 543.111 1750.4 572.563 1772.73 567.399C1794.11 562.426 1791.75 556.251 1798.19 531.899C1803.2 512.9 1811.05 501.499 1814.58 481.088C1818.09 460.667 1821.93 460.382 1822.34 454.007C1822.75 447.643 1820.43 439.476 1820.5 421.795C1820.58 404.124 1820.79 376.01 1820.63 365.947C1820.48 355.873 1822.03 347.749 1823.55 334.893C1825.08 322.027 1834.83 314.525 1843.03 310.731C1845.8 309.446 1869.56 305.768 1872.55 305.305C1873.83 305.094 1871.88 302.312 1872.76 301.343L1869.86 299.509C1869.47 296.19 1871.08 292.512 1871 292.344L1870.52 290.279C1870.27 288.93 1870.2 287.844 1869.43 286.917ZM1809.85 361.532C1810.07 366.505 1794.63 422.005 1791.44 426.505C1788.21 431.004 1787.67 431.089 1786.99 426.695C1786.3 422.29 1789.63 411.257 1793.52 389.614C1797.45 367.97 1810.75 349.361 1810.75 349.361C1811.73 355.726 1809.63 356.548 1809.85 361.532Z" fill="#00468C"/>
<path d="M3386 815.623H3335.62L3316.65 885.379C3314.48 893.811 3311.99 904.274 3310.12 912.115H3308.87C3307.01 904.557 3303.9 893.811 3301.41 885.67L3278.71 815.623H3226.15L3282.13 945.836C3283.69 949.324 3284 951.364 3284 953.103C3284 954.843 3283.06 957.174 3281.51 959.496C3277.17 966.472 3264.1 982.348 3245.78 985.738L3236.59 1024C3259.57 1024.16 3280.88 1015.88 3297.06 1002.51C3314.16 988.272 3328.78 965.889 3350.54 909.21L3386 815.623ZM3179.1 899.621V848.17H3213V815.623H3179.1V799.05H3132.76V815.623H3112.55V848.17H3132.76V906.305C3132.76 926.358 3137.12 940.026 3145.83 948.45C3153.6 955.726 3166.34 960.662 3181.59 960.662C3194.65 960.662 3201.78 959.796 3207.7 957.757L3216.63 922.499C3212.28 923.382 3204.29 924.618 3197.77 924.618C3183.76 924.618 3179.1 916.76 3179.1 899.621ZM3093.52 776.092C3093.2 763.598 3083.88 754 3068.65 754C3053.4 754 3043.45 763.598 3043.45 776.092C3043.45 788.295 3053.09 798.184 3068.01 798.184C3083.88 798.184 3093.52 788.295 3093.52 776.092ZM2953.7 854.28C2953.7 847.305 2960.23 842.943 2971.74 842.943C2984.47 842.943 2997.86 847.596 3004.69 851.075L3012.78 820.568C3003.46 816.206 2987.9 812.135 2970.18 812.135C2932.55 812.135 2908.29 832.197 2908.29 858.925C2907.98 875.789 2920.11 891.78 2951.83 901.652C2969.25 907.179 2973.91 910.658 2973.91 918.226C2973.91 925.484 2968 929.846 2953.7 929.846C2939.7 929.846 2921.65 924.327 2912.96 919.382L2904.56 950.772C2916.07 956.582 2933.79 960.944 2953.7 960.944C2997.23 960.944 3019.31 941.474 3019.31 914.729C3019.01 894.103 3007.19 880.151 2978.27 870.845C2959.6 864.743 2953.7 861.247 2953.7 854.28ZM2884.21 853.724L2894.33 813.751C2890.91 813.16 2884.88 812.135 2880.52 812.135C2865.59 812.135 2847.26 820.85 2839.48 841.777H2838.23L2836.36 815.623H2795.93C2796.86 827.835 2797.17 841.486 2797.17 862.412V957.757H2844.44V885.67C2844.44 882.182 2844.76 878.695 2845.39 875.789C2848.48 862.13 2860.3 853.406 2877.73 853.406C2883.02 853.406 2880.46 853.141 2884.21 853.724ZM2769.29 900.787C2769.9 897.59 2770.83 890.897 2770.83 883.339C2770.83 848.17 2752.18 812.418 2703.04 812.418C2650.17 812.418 2626.23 852.24 2626.23 888.284C2626.23 932.751 2655.77 960.662 2707.4 960.662C2727.92 960.662 2746.88 957.757 2762.45 951.655L2756.21 921.713C2743.47 925.784 2730.4 927.815 2714.24 927.815C2692.16 927.815 2672.56 919.091 2671.32 900.787H2769.29ZM2726.99 870.553H2671.01C2672.24 858.925 2680.34 841.777 2700.23 841.777C2722.01 841.777 2726.99 859.799 2726.99 870.553ZM2565.39 957.757L2621.99 815.623H2572.23L2552.65 881.6C2549.22 893.811 2546.73 904.557 2544.24 916.195H2543.31C2540.83 904.848 2538.34 893.811 2534.6 881.6L2514.08 815.623H2462.77L2518.12 957.757H2565.39ZM2445.76 776.092C2445.44 763.598 2436.12 754 2420.89 754C2405.64 754 2395.69 763.598 2395.69 776.092C2395.69 788.295 2405.33 798.184 2420.25 798.184C2436.12 798.184 2445.76 788.295 2445.76 776.092ZM2315.83 957.757H2363.1V873.759C2363.1 831.897 2339.77 812.418 2308.66 812.418C2283.17 812.418 2267.93 826.087 2261.71 835.384H2260.78L2258.6 815.623H2217.56C2218.17 828.409 2218.78 843.234 2218.78 860.964V957.757H2266.06V875.789C2266.06 871.719 2266.37 867.648 2267.62 864.743C2271.04 856.602 2278.82 848.17 2291.88 848.17C2308.98 848.17 2315.83 860.673 2315.83 878.977V957.757ZM2183.78 871.719V761.841H2136.51V874.333C2136.51 909.21 2122.82 925.484 2097.95 925.484C2074 925.484 2060 908.345 2060 874.333V761.841H2012.73V871.136C2012.73 933.342 2043.52 960.944 2096.39 960.944C2151.13 960.944 2183.78 932.177 2183.78 871.719ZM1864.52 957.757H1911.77V873.759C1911.77 831.897 1888.45 812.418 1857.36 812.418C1831.86 812.418 1816.63 826.087 1810.41 835.384H1809.48L1807.29 815.623H1766.24C1766.86 828.409 1767.49 843.234 1767.49 860.964V957.757H1814.76V875.789C1814.76 871.719 1815.06 867.648 1816.32 864.743C1819.73 856.602 1827.5 848.17 1840.57 848.17C1857.68 848.17 1864.52 860.673 1864.52 878.977V957.757ZM1734.71 776.092C1734.4 763.598 1725.07 754 1709.83 754C1694.59 754 1684.63 763.598 1684.63 776.092C1684.63 788.295 1694.28 798.184 1709.2 798.184C1725.07 798.184 1734.71 788.295 1734.71 776.092ZM1653.41 776.092C1653.11 763.598 1643.78 754 1628.54 754C1613.3 754 1603.36 763.598 1603.36 776.092C1603.36 788.295 1612.99 798.184 1627.91 798.184C1643.78 798.184 1653.41 788.295 1653.41 776.092ZM1604.9 930.137C1604.9 950.949 1603.54 962.533 1600.08 969.889C1595.12 978.789 1584.15 983.61 1572.65 985.738L1563.46 1024C1575.14 1024.09 1611.6 1019.29 1630.71 1002.8C1644.95 990.515 1652.17 971.708 1652.17 940.892V815.623H1604.9V930.137ZM1520.38 957.757H1567.64V873.759C1567.64 831.897 1544.33 812.418 1513.22 812.418C1487.72 812.418 1472.49 826.087 1466.26 835.384H1465.32L1463.16 815.623H1422.1C1422.73 828.409 1423.35 843.234 1423.35 860.964V957.757H1470.62V875.789C1470.62 871.719 1470.93 867.648 1472.17 864.743C1475.59 856.602 1483.37 848.17 1496.42 848.17C1513.54 848.17 1520.38 860.673 1520.38 878.977V957.757ZM1349.71 957.757H1392.31C1390.44 949.907 1389.81 936.821 1389.81 923.453V873.759C1389.81 840.038 1373.96 812.135 1323.27 812.135C1295.59 812.135 1274.76 819.394 1264.18 824.921L1272.88 853.406C1282.84 847.596 1299.33 842.651 1314.87 842.651C1338.19 842.651 1342.55 853.406 1342.55 861.247V862.995C1288.75 862.995 1253.3 880.434 1253.3 917.351C1253.3 940.026 1271.65 960.944 1302.44 960.944C1320.46 960.944 1336.02 954.843 1345.98 943.505H1346.91L1349.71 957.757ZM1344.1 906.014C1344.1 908.628 1343.8 911.25 1343.17 913.572C1340.06 922.579 1330.11 929.846 1318.6 929.846C1308.03 929.846 1299.94 924.327 1299.94 912.989C1299.94 896.142 1319.22 890.606 1344.1 890.606V906.014ZM1230.5 776.092C1230.2 763.598 1220.86 754 1205.62 754C1190.39 754 1180.43 763.598 1180.43 776.092C1180.43 788.295 1190.07 798.184 1205.01 798.184C1220.86 798.184 1230.5 788.295 1230.5 776.092ZM1103.87 799.05H1161.08V761.841H1000V799.05H1056.59V957.757H1103.87V799.05ZM1228.94 815.623H1181.67V957.757H1228.94V815.623ZM1733.15 815.623H1685.88V957.757H1733.15V815.623ZM2444.2 815.623H2396.93V957.757H2444.2V815.623ZM3091.96 815.623H3044.69V957.757H3091.96V815.623Z" fill="#00468C"/>
</g>
<defs>
<clipPath id="clip0_47_37">
<rect width="3386" height="1024" fill="white"/>
</clipPath>
</defs>
</svg>
