<svg width="1632" height="1630" viewBox="0 0 1632 1630" fill="none" xmlns="http://www.w3.org/2000/svg">
<g clip-path="url(#clip0_70_110)">
<rect width="1632" height="1630" fill="white"/>
<path d="M1230 411.5C1230 184.231 1045.76 2.61652e-06 818.5 2.61652e-06C591.228 2.61652e-06 407 184.231 407 411.5C407 638.769 591.228 823 818.5 823C1045.76 823 1230 638.769 1230 411.5ZM1193.37 328.049L1212.86 349.988L1200.74 374.799L1217.39 398.937L1202.31 422.048L1215.83 448.082L1198.07 469.14L1208.28 496.621L1188.03 515.381L1194.86 543.915L1172.46 560.034L1175.7 589.166L1151.45 602.392L1151.1 631.759L1125.45 641.897L1121.47 670.97L1094.78 677.914L1087.25 706.232L1059.92 709.828L1049 737.057L1021.42 737.261L1007.22 762.942L979.82 759.751L962.568 783.428L935.772 776.9L915.739 798.342L889.944 788.56L867.412 807.357L843.016 794.485L818.401 810.392L795.745 794.619L769.376 807.327L748.825 788.906L721.06 798.29L702.953 777.477L674.238 783.353L658.824 760.506L629.613 762.846L617.137 738.228L587.826 736.934L578.493 710.978L549.592 706.091L543.504 679.186L515.392 670.818L512.644 643.363L485.785 631.588L486.436 603.991L461.207 588.977L465.249 561.674L442.07 543.729L449.455 517.122L428.67 496.413L439.249 470.959L421.153 447.874L434.776 423.863L419.622 398.732L436.088 376.569L424.171 349.787L443.232 329.823L434.706 301.743L456.062 284.326L451.019 255.398L474.377 240.722L472.977 211.396L497.921 199.717L500.11 170.451L526.304 161.863L532.088 133.14L559.177 127.848L568.397 100.017L595.935 98.12L608.491 71.643L636.037 73.1344L651.794 48.4054L678.937 53.2478L697.625 30.6574L723.965 38.7913L745.306 18.6332L770.388 30.0177L794.013 12.6193L817.612 26.994L843.188 12.6304L864.785 29.7945L891.899 18.6741L911.266 38.3487L939.569 30.7206L956.341 52.5821L985.393 48.4909L999.366 72.2492L1028.68 71.7546L1039.6 97.06L1068.77 100.154L1076.5 126.65L1105.05 133.285L1109.49 160.491L1137.01 170.611L1138.06 198.167L1164.14 211.578L1161.78 239.081L1186.07 255.591L1180.32 282.596L1202.34 301.947L1193.37 328.049ZM1201.57 351.535L1182.62 330.206L1191.33 304.867L1169.91 286.048L1175.48 259.842L1151.87 243.797L1154.16 217.097L1128.81 204.058L1127.79 177.309L1101.04 167.468L1096.73 141.073L1068.96 134.62L1061.46 108.895L1033.1 105.889L1022.5 81.3278L994.006 81.8076L980.441 58.7485L952.187 62.7243L935.914 41.5063L908.394 48.9224L889.608 29.8429L863.243 40.6583L842.282 24L817.418 37.9582L794.514 24.0112L771.536 40.9298L747.184 29.8838L726.446 49.4654L700.885 41.5695L682.709 63.5389L656.369 58.8341L641.047 82.8898L614.323 81.4356L602.111 107.184L575.384 109.028L566.423 136.078L540.12 141.218L534.496 169.142L509.081 177.473L506.951 205.943L482.734 217.283L484.093 245.795L461.437 260.032L466.338 288.156L445.611 305.068L453.895 332.359L435.401 351.736L446.985 377.774L431.005 399.282L445.739 423.718L432.518 447.03L450.113 469.482L439.848 494.189L460.056 514.314L452.894 540.132L475.426 557.575L471.501 584.086L496.032 598.684L495.4 625.466L521.513 636.91L524.18 663.554L551.51 671.692L557.427 697.815L585.535 702.569L594.59 727.759L623.079 729.019L635.185 752.9L663.579 750.628L678.546 772.809L706.465 767.089L724.042 787.288L751.028 778.176L770.977 796.051L796.615 783.688L818.595 798.996L842.538 783.524L866.221 796.021L888.128 777.748L913.156 787.24L932.636 766.39L958.647 772.735L975.42 749.709L1002 752.804L1015.81 727.829L1042.58 727.636L1053.2 701.166L1079.73 697.674L1087.05 670.144L1112.96 663.402L1116.83 635.128L1141.71 625.295L1142.05 596.731L1165.59 583.896L1162.43 555.582L1184.18 539.943L1177.54 512.201L1197.2 493.981L1187.27 467.262L1204.5 446.821L1191.36 421.505L1205.98 399.082L1189.8 375.617L1201.57 351.535ZM1178.55 411.422C1178.55 610.314 1017.56 771.549 818.986 771.549C620.404 771.549 459.42 610.314 459.42 411.422C459.42 212.523 620.404 51.2878 818.986 51.2878C1017.56 51.2878 1178.55 212.523 1178.55 411.422ZM1076.22 582.531C1086.4 588.958 1095.34 591.067 1101.52 591.524C1102.98 589.241 1104.4 586.938 1105.81 584.625C1099.04 583.632 1090.43 580.765 1081.05 574.851C1070.7 568.324 1063.95 560.908 1060.33 554.838L1060.17 555.106C1058.85 557.311 1057.51 559.506 1056.14 561.678C1059 567.253 1064.89 575.316 1076.22 582.531ZM1086.44 553.298L1108.38 580.281C1110.33 576.934 1112.22 573.553 1114.06 570.139L1114.7 568.871L1105.27 560.019C1102.39 557.397 1100.1 555.217 1097.49 552.952L1097.56 552.833C1101.13 553.544 1103.96 554.091 1107.94 554.708L1120.7 556.973L1121.93 554.541C1123.44 551.346 1124.89 548.125 1126.31 544.874L1091.22 542.542L1072.08 532.891C1070.39 536.428 1068.61 539.924 1066.78 543.375L1086.44 553.298ZM1117.76 534.204L1129.13 538.18C1130.02 536 1130.88 533.81 1131.72 531.612L1138.32 512.737C1139.06 510.375 1139.79 507.998 1140.49 505.618L1129.13 501.65L1125.43 512.257L1085.87 498.433C1084.65 502.189 1083.35 505.912 1081.98 509.598L1121.53 523.418L1117.76 534.204ZM1090.06 484.27L1142.73 497.276L1145.57 485.806L1092.86 472.792C1092.01 476.646 1091.07 480.469 1090.06 484.27ZM1145.49 473.622C1147.49 470.959 1149.21 467.452 1149.97 462.222C1151.58 451.24 1146.1 444.523 1136.71 443.095C1128.83 441.893 1123.16 445.981 1118.93 452.865C1116.16 457.466 1114.39 459.176 1111.79 458.778C1109.1 458.366 1107.73 456.179 1108.31 452.173C1108.94 447.844 1111.23 443.768 1113.27 441.373L1101.85 437.389C1099.91 439.599 1097.44 444.441 1096.67 449.674C1094.82 462.394 1101.84 469.479 1110.99 470.873C1118.4 472.004 1124.04 469.233 1128.65 461.94C1131.97 456.833 1133.41 454.68 1136.09 455.085C1138.45 455.442 1139.75 457.622 1139.23 461.177C1138.59 465.57 1136.62 468.571 1135.32 470.289L1145.49 473.622ZM1149.79 430.059C1151.85 427.924 1153.67 426.176 1153.72 421.594C1153.77 417.678 1153.83 417.343 1153.86 415.212C1153.9 411.4 1153.87 407.599 1153.78 403.812C1153.67 402.775 1153.53 401.83 1153.38 400.986L1099.35 400.078C1099.5 403.965 1099.57 407.863 1099.57 411.779L1119.55 412.114L1119.53 414.007C1119.46 417.663 1118.05 419.273 1111.42 420.341C1105.34 421.404 1101.31 422.341 1099.33 422.977C1099.17 427.095 1098.91 431.186 1098.58 435.255C1100.8 434.44 1108.72 433.149 1114.32 431.885C1119.08 430.851 1122.61 429.345 1124.21 426.429L1124.54 426.436C1126.03 429.921 1130.86 434.12 1137.72 434.232C1143.1 434.321 1147.05 432.822 1149.79 430.059ZM1143.41 416.499C1143.25 420.415 1140.93 422.531 1136.77 422.457C1132.69 422.394 1129.95 419.798 1130.03 415.357L1130.09 412.285L1143.15 412.508C1143.3 413.096 1143.44 414.278 1143.41 416.499ZM1141.48 389.702L1153.1 388.385C1152.86 384.863 1152.56 381.363 1152.21 377.882L1151.1 368.145C1150.76 365.404 1150.36 362.671 1149.95 359.948L1095.92 366.1C1097.48 375.725 1098.56 385.514 1099.12 395.44L1110.84 394.109L1108.84 376.525L1118.9 375.383L1120.68 391.082L1132.53 389.739L1130.75 374.036L1139.58 373.025L1141.48 389.702ZM1093.23 351.818L1148.76 352.759C1148.03 348.679 1147.23 344.618 1146.37 340.59L1124 341.148C1117.98 341.274 1111.49 341.579 1104.65 342.107L1104.62 341.984C1111.27 339.281 1116.86 336.707 1122.47 333.858L1142.39 324.221L1142.17 323.307C1141.12 319.483 1140.01 315.686 1138.85 311.911L1089.85 337.934C1091.08 342.52 1092.21 347.147 1093.23 351.818ZM1085.82 324.4L1137.11 306.511C1135.87 302.758 1134.58 299.035 1133.22 295.346L1081.91 313.239C1083.29 316.928 1084.59 320.644 1085.82 324.4ZM1080.13 308.597L1129.32 285.322C1127.98 281.997 1126.57 278.691 1125.11 275.418L1113.35 280.967C1105.88 284.493 1099.06 288.011 1092.78 291.705L1092.69 291.53C1097.68 287 1103.23 281.559 1107.15 277.036L1119.5 263.435C1117.45 259.277 1115.31 255.156 1113.1 251.095L1063.91 274.366C1065.66 277.501 1067.35 280.673 1069 283.887L1080.6 278.39C1088.64 274.585 1096.12 270.91 1102.72 267.492L1102.81 267.671C1097.64 272.42 1092.23 278.163 1087.99 282.92L1075.2 296.856C1076.92 300.724 1078.58 304.636 1080.13 308.597ZM1083.41 257.157L1107.41 241.086C1105.43 237.724 1103.38 234.406 1101.28 231.126L1101.21 231.015L1075.26 248.316C1068 253.162 1063.13 253.661 1060.52 249.748C1057.94 245.891 1060.62 241.361 1067.54 236.742L1093.47 219.448C1091.22 216.216 1088.9 213.028 1086.52 209.878L1062.91 225.689C1048.18 235.519 1044.83 245.363 1051.53 255.416C1058.39 265.681 1069.28 266.578 1083.41 257.157ZM1055.88 194.101L1065.35 187.879C1064.71 185.287 1062.43 181.188 1058.21 177.001C1048.06 166.922 1033.62 165.345 1020.12 178.868C1014.54 184.487 1011.63 190.133 1011.1 196.508C1010.6 202.674 1012.87 208.729 1019.04 214.843C1023.12 218.894 1028.74 221.943 1032.03 223.256L1052.63 202.845L1040.39 190.698L1032.34 198.817L1036.51 202.949L1029.84 209.677C1029.3 209.484 1028.02 208.554 1026.9 207.446C1021.75 202.336 1022.2 194.384 1029.44 187.083C1037.32 179.143 1044.92 180.009 1050.07 185.116C1053.64 188.66 1055.04 191.427 1055.88 194.101ZM998.818 195.887L1030.82 151.881C1028.04 149.601 1025.23 147.366 1022.37 145.183L1014.8 155.593C1009.95 162.261 1005.64 168.617 1001.9 174.884L1001.75 174.765C1003.95 168.398 1006.21 160.956 1007.47 155.113L1011.75 137.369C1007.96 134.687 1004.11 132.091 1000.21 129.57L968.203 173.571C971.254 175.494 974.255 177.473 977.222 179.504L984.837 169.03C990.07 161.837 994.861 155.024 999.016 148.865L999.169 148.976C996.933 155.619 994.93 163.258 993.483 169.465L988.915 187.965C992.281 190.531 995.577 193.172 998.818 195.887ZM966.347 171.909L979.937 117.467C975.307 114.92 970.611 112.472 965.85 110.144L929.45 152.714C933.243 154.343 936.985 156.043 940.69 157.828L948.339 148.207L958.421 153.443L955.223 165.371C958.984 167.472 962.696 169.648 966.347 171.909ZM967.856 122.656C966.935 125.854 965.616 130.228 964.768 133.285L962.017 142.988L954.767 139.221L960.96 131.403C962.97 128.948 965.66 125.192 967.739 122.596L967.856 122.656ZM930.166 129.715L954.869 105.012C950.889 103.238 946.873 101.542 942.817 99.9163L934.92 110.297C932.604 113.428 930.678 115.931 928.69 118.758L928.566 118.713C928.898 115.08 929.161 112.205 929.37 108.177L930.312 95.2562L928.873 94.7057C925.175 93.4189 921.458 92.1953 917.702 91.0349L918.984 126.059L911.332 146.124C915.038 147.414 918.71 148.787 922.339 150.237L930.166 129.715ZM898.086 141.854L912.421 89.4505C908.643 88.3496 904.842 87.3232 901.013 86.345L886.677 138.756C890.51 139.708 894.318 140.746 898.086 141.854ZM888.665 95.498L890.7 83.9126C888.121 83.3473 885.526 82.8118 882.924 82.306L871.271 80.253C868.362 79.7918 865.45 79.3715 862.523 78.9885L853.091 132.538C862.947 133.746 872.648 135.461 882.16 137.666L884.189 126.133L866.762 123.065L868.516 113.09L884.083 115.835L886.147 104.093L870.587 101.356L872.13 92.5933L888.665 95.498ZM848.889 108.084C851.801 105.146 853.577 100.337 853.884 94.7876C854.191 89.1716 852.441 84.1618 849.598 81.2236C846.692 78.1218 842.706 76.9168 836.38 76.5709C829.664 76.199 824.573 75.9945 821.339 76.4668L818.347 130.421H818.5C822.366 130.421 826.218 130.507 830.047 130.663L831.045 112.655C831.754 112.777 832.792 112.915 833.903 112.982C839.837 113.309 845.085 111.881 848.889 108.084ZM842.253 94.4752C841.997 99.1986 838.96 101.977 834.327 101.724C833.091 101.65 832.313 101.523 831.67 101.411L832.445 87.3901C833.04 87.2562 834.217 87.1632 835.978 87.2562C840.414 87.5054 842.483 90.3952 842.253 94.4752ZM814.82 130.351C811.356 124.125 808.213 114.734 807.702 102.497C807.23 91.3547 809.068 82.5365 811.561 76.1953C808.824 76.2511 806.105 76.3404 803.386 76.4557C800.744 82.0642 798.252 90.8899 798.701 102.873C799.264 116.281 803.368 125.482 806.788 130.667C807.778 130.63 808.78 130.589 809.781 130.559L814.82 130.351ZM769.91 112.272L778.186 78.4974C774.339 78.9623 770.505 79.4868 766.672 80.0819L765.28 80.3348L763.906 93.2032C763.548 97.0861 763.193 100.221 762.963 103.662L762.831 103.688C761.234 100.411 759.966 97.8188 758.055 94.2669L752.165 82.7336L749.482 83.2209C746.022 83.9461 742.572 84.7234 739.134 85.5565L758.443 114.942L762.294 136.037C766.142 135.253 769.997 134.553 773.864 133.94L769.91 112.272ZM737.752 142.2L724.904 102.315L735.783 98.8117L732.096 87.3529C729.819 87.9554 727.553 88.5914 725.291 89.2422L706.253 95.3715C703.925 96.2009 701.597 97.0601 699.273 97.9378L702.96 109.385L713.653 105.941L726.501 145.834C730.232 144.536 733.978 143.331 737.752 142.2ZM712.681 151.037L691.263 101.181L680.403 105.845L701.828 155.73C705.423 154.087 709.037 152.517 712.681 151.037ZM664.591 125.75C668.479 123.611 672.06 123.373 674.216 123.373L670.745 113.253C667.408 113.268 663.579 114.008 658.945 116.564C649.221 121.904 647.171 130.332 651.688 138.674C655.485 145.685 662.172 147.738 670.215 146.957C675.55 146.392 677.984 146.778 679.237 149.088C680.527 151.479 679.606 153.893 676.065 155.842C672.232 157.947 667.602 158.587 664.459 158.405L668.176 169.923C671.11 170.124 676.46 169.183 681.093 166.635C692.363 160.432 693.77 150.561 689.367 142.427C685.796 135.84 680.18 133.01 671.589 133.735C665.512 134.167 662.921 134.319 661.624 131.935C660.487 129.834 661.445 127.483 664.591 125.75ZM645.753 158.438C647.632 155.139 648.063 148.757 644.014 143.219C640.838 138.868 637.261 136.629 633.406 136.112C630.46 135.755 627.972 135.353 624.281 138.083C621.135 140.411 620.828 140.556 619.114 141.824C616.044 144.089 613.03 146.41 610.062 148.757C609.302 149.486 608.63 150.163 608.056 150.791L639.939 194.425C642.936 191.959 646.009 189.553 649.133 187.187L637.341 171.05L638.869 169.934C641.818 167.777 643.955 167.933 648.805 172.582C653.321 176.777 656.511 179.433 658.203 180.616C661.583 178.269 665 176 668.446 173.817C666.451 172.538 660.648 166.992 656.256 163.295C652.572 160.123 649.232 158.211 645.947 158.698L645.753 158.438ZM633.603 160.736L631.125 162.548L623.415 152.004C623.799 151.524 624.646 150.695 626.441 149.389C629.656 147.139 632.744 147.716 635.2 151.078C637.608 154.373 637.188 158.111 633.603 160.736ZM594.079 178.659L606.236 167.085L598.179 158.624C595.518 160.937 592.898 163.28 590.333 165.661L583.237 172.422C581.263 174.352 579.316 176.313 577.401 178.287L614.897 217.663C621.632 210.604 628.794 203.838 636.373 197.404L628.235 188.861L615.423 201.064L608.436 193.737L619.885 182.836L611.667 174.207L600.218 185.108L594.079 178.659ZM605.144 228.43L572.394 183.576C569.57 186.618 566.814 189.702 564.121 192.826L578.066 210.325C581.797 215.048 585.952 220.032 590.505 225.172L590.421 225.276C584.252 221.601 578.826 218.697 573.169 215.941L553.469 205.873L552.877 206.602C550.454 209.741 548.09 212.921 545.792 216.127L596.107 239.502C599.016 235.745 602.027 232.056 605.144 228.43ZM587.746 250.879L542.525 220.768C540.281 224.015 538.096 227.295 535.98 230.609L581.208 260.723C583.31 257.406 585.488 254.118 587.746 250.879ZM578.577 264.941L530.327 239.758C528.496 242.842 526.709 245.962 524.973 249.097L536.502 255.137C543.818 258.957 550.736 262.278 557.478 265.056L557.39 265.231C550.769 263.982 543.069 262.84 537.105 262.449L518.805 260.802C516.722 264.949 514.731 269.133 512.827 273.354L561.07 298.544C562.506 295.249 564.019 291.983 565.59 288.74L554.204 282.801C546.314 278.68 538.874 274.942 532.169 271.736L532.256 271.561C539.159 272.807 547.001 273.659 553.363 274.18L572.186 275.969C574.229 272.253 576.359 268.578 578.577 264.941ZM535.574 293.371L508.274 283.928C506.797 287.532 505.383 291.173 504.031 294.825L503.987 294.948L533.437 305.201C541.684 308.069 545.028 311.651 543.482 316.095C541.955 320.476 536.733 321.075 528.869 318.338L499.434 308.095C498.224 311.851 497.073 315.623 495.995 319.416L522.847 328.707C539.579 334.524 549.449 331.251 553.422 319.84C557.474 308.181 551.613 298.95 535.574 293.371ZM544.059 350.527L490.276 342.278C489.538 345.782 488.855 349.311 488.23 352.863L501.02 354.827C509.176 356.08 516.799 356.984 524.078 357.441L524.045 357.635C517.38 358.591 509.728 359.996 503.958 361.555L486.198 365.895C485.577 370.477 485.047 375.089 484.612 379.727L538.403 387.987C538.699 384.387 539.06 380.809 539.495 377.25L526.705 375.286C517.91 373.936 509.658 372.802 502.277 371.931L502.306 371.738C509.242 370.689 516.934 368.967 523.124 367.401L541.6 362.994C542.327 358.806 543.146 354.652 544.059 350.527ZM537.953 394.176L483.684 391.959C483.458 395.879 483.3 399.814 483.213 403.764L537.482 405.988C537.559 402.031 537.712 398.096 537.953 394.176ZM516.181 412.634L483.132 413.925C483.162 417.878 483.257 421.821 483.421 425.741L516.623 424.443C524.053 424.156 526.227 426.555 526.366 430.341C526.439 432.235 526.106 434.072 525.679 435.53L537.314 436.381C538.11 434.131 538.395 430.914 538.3 428.5C537.906 417.93 531.843 412.021 516.181 412.634ZM538.691 438.338L485.003 447.215C485.38 450.801 485.815 454.375 486.308 457.923L499.05 455.814C507.188 454.472 514.712 452.958 521.78 451.136L521.809 451.325C515.765 454.308 508.931 458.02 503.932 461.296L488.398 470.951L488.628 472.35C489.381 476.46 490.211 480.543 491.11 484.601L544.798 475.723C543.983 472.235 543.23 468.712 542.547 465.172L529.826 467.277C521.045 468.727 512.852 470.215 505.566 471.688L505.533 471.491C511.796 468.341 518.579 464.305 523.972 460.895L540.171 450.953C539.587 446.777 539.093 442.57 538.691 438.338ZM545.678 479.379L497.526 509.04C499.058 514.083 500.698 519.074 502.463 524.01L558.665 518.877C557.094 515.08 555.603 511.238 554.196 507.355L542.039 508.887L538.49 498.09L549.069 491.831C547.845 487.718 546.712 483.567 545.678 479.379ZM531.156 510.814L521.253 512.071C518.1 512.417 513.561 513.224 510.254 513.622L510.21 513.499C513.108 511.855 517.109 509.65 519.857 508.065L528.606 503.056L531.156 510.814ZM559.857 521.722L510.36 544.104C511.917 547.723 513.547 551.316 515.224 554.875L564.728 532.497C563.036 528.941 561.413 525.352 559.857 521.722ZM528.781 555.322L518.312 561.22C523.468 571.541 529.143 581.549 535.3 591.234L545.726 585.358L540.208 575.573L576.743 554.957C574.73 551.569 572.789 548.143 570.914 544.673L534.394 565.274L528.781 555.322ZM604.106 647C601.774 648.674 607.219 656.443 612.416 659.232C615.785 661.044 620.597 660.3 624.197 659.794C629.17 659.095 634.356 658.332 638.642 655.517C642.194 653.181 645.523 650.425 648.779 647.707C650.347 646.394 651.907 645.088 653.434 643.734C657.144 640.465 662.15 636.508 662.15 636.508C662.15 636.508 654.399 651.861 651.425 659.247C648.45 666.634 647.434 677.535 649.769 680.77C652.104 684.002 658.857 683.824 660.111 684.263C661.36 684.701 667.945 686.87 671.366 688.071C674.79 689.257 675.744 686.669 674.264 685.609C672.791 684.542 672.352 684.181 669.418 682.213C666.48 680.25 662.537 677.006 662.314 676.385C662.088 675.768 662.15 672.294 662.303 669.78C662.457 667.27 662.72 654.423 663.367 650.41C664.017 646.397 666.915 636.601 666.915 636.601C666.915 636.601 671.333 636.404 677.885 637.535C684.448 638.658 685.873 637.631 686.768 636.895C687.664 636.166 688.614 635.184 685.972 634.481C683.319 633.771 679.007 630.092 678.649 629.802C678.305 629.512 677.655 628.69 676.365 628.657C675.068 628.623 674.198 627.333 674.198 627.333C674.198 627.333 673.891 626.481 674.611 625.607C675.331 624.729 675.027 621.694 675.027 621.694C676.295 623.907 683.476 624.811 686.513 624.514C689.546 624.212 695.414 624.03 697.79 623.636C700.165 623.242 701.064 625.008 704.437 623.219C706.6 622.081 705.083 623.104 707.199 621.735C709.315 620.363 708.858 619.708 708.193 618.451C707.528 617.198 705.368 616.558 703.552 615.495C701.743 614.427 699.365 613.189 698.298 612.597C697.227 612.006 697.735 612.419 694.585 611.95C691.428 611.489 687.543 609.856 683.626 608.767C679.716 607.68 678.068 606.754 677.224 606.055C676.383 605.367 675.912 604.556 673.737 605.315C672.312 605.813 672.36 607.316 672.542 608.558C672.758 610.076 672.612 611.024 672.521 612.538C672.44 613.784 673.339 614.799 673.098 616.097C673.098 616.097 672.32 615.32 670.982 614.364C669.648 613.408 668.526 615.461 667.697 616.476C666.867 617.484 664.386 620.687 663.305 621.49C662.219 622.293 661.127 623.8 660.016 625.153C658.908 626.5 655.181 629.62 655.181 629.62C652.868 629.929 636.194 627.545 633.329 627.102C630.46 626.66 628.319 621.233 628.319 621.233C625.001 622.464 623.437 628.798 623.612 631.937C623.715 633.808 624.255 635.995 625.103 637.672C626.51 640.436 631.173 642.072 635.942 641.269C640.699 640.48 647.942 637.91 647.942 637.91C644.913 642.325 642.333 644.75 631.473 650.663C620.612 656.573 615.873 652.687 612.668 651.229C609.463 649.771 605.538 645.966 604.106 647ZM668.801 631.506C669.583 630.029 671.622 629.252 671.622 629.252L672.316 628.951C674.311 629.46 674.019 632.026 673.493 631.818C673.083 631.662 668.801 631.506 668.801 631.506ZM671.366 498.139C717.91 580.917 791.755 618.355 810.216 627.009L818.5 630.29L826.784 627.009C845.245 618.355 919.087 580.917 965.653 498.139C986.069 461.579 993.812 422.453 994.81 386.198L994.832 385.443H994.846L995.288 369.425C995.288 369.425 974.909 363.169 968.828 359.111C959.521 352.911 956.948 345.585 961.465 336.112C965.773 327.063 990.308 319.453 990.308 319.453L986.2 300.82C985.93 299.615 985.656 298.414 985.378 297.22H985.371C975.27 253.441 961.03 223.792 960.526 222.724L952.26 205.519L935.14 211.563C924.656 215.286 914.296 216.8 904.283 216.8C866.173 217.138 832.313 185.99 830.789 184.61L818.5 175.16L806.193 184.61H806.214C804.687 185.99 770.831 217.138 732.72 216.8C722.701 216.8 712.359 215.286 701.849 211.563L684.74 205.519L676.467 222.724C675.956 223.814 660.94 255.074 650.803 300.82L646.7 319.453C646.7 319.453 671.227 327.063 675.543 336.112C680.056 345.585 677.483 352.911 668.183 359.111C662.099 363.169 641.719 369.425 641.719 369.425L642.179 386.198C643.195 422.453 650.931 461.579 671.366 498.139ZM681.426 491.612C662.256 457.295 654.896 420.448 653.924 385.815L653.72 378.369L660.268 375.937C669.9 372.378 677.731 367.048 682.84 361.209C687.993 355.333 690.379 349.311 690.382 343.379C690.382 343.03 690.379 342.687 690.353 342.379C690.097 337.339 688.19 332.526 684.389 327.792C680.593 323.106 674.867 318.706 667.668 315.392L660.429 312.03L662.248 303.736C672.035 259.485 686.681 229.032 686.9 228.549L690.587 220.891L698.188 223.591C709.984 227.775 721.593 229.445 732.753 229.445H733.02C774.536 229.445 809.237 197.817 812.763 195.113L813.033 194.909L818.5 190.739L823.963 194.909L824.263 195.113C827.767 197.821 862.621 229.594 904.269 229.445C915.407 229.445 927.009 227.775 938.823 223.591L946.413 220.891L950.1 228.549C950.316 229.006 963.57 256.569 973.283 297.332C973.502 298.224 973.71 299.121 973.922 300.024C974.002 300.378 974.083 300.735 974.167 301.088C974.284 301.62 974.401 302.148 974.521 302.684C974.605 303.033 974.682 303.383 974.755 303.736L975.603 307.593L976.571 312.03L969.332 315.392C962.137 318.706 956.415 323.106 952.622 327.792C948.817 332.526 946.91 337.339 946.658 342.379C946.636 342.687 946.621 343.03 946.621 343.379C946.636 349.311 949.015 355.333 954.164 361.209C959.276 367.048 967.111 372.378 976.739 375.937L983.284 378.369L983.127 384.473L983.083 385.815C982.097 420.448 974.755 457.295 955.563 491.612C911.303 570.634 839.468 607.357 822.183 615.372L818.5 616.573L814.82 615.372C797.539 607.357 725.704 570.634 681.426 491.612ZM663.323 385.507C664.262 418.845 671.307 453.847 689.487 486.401C731.938 562.425 802.177 598.568 818.507 606.063C818.507 606.063 894.826 580.727 947.476 486.401C965.674 453.847 972.716 418.845 973.677 385.507C951.353 377.257 936.327 360.484 937.237 341.85C937.95 326.665 949.091 313.718 965.59 306.098C956.086 263.033 941.728 233.209 941.728 233.209C877.523 255.929 818.507 203.143 818.507 203.143C818.507 203.143 759.429 255.929 695.254 233.209C695.254 233.209 680.896 263.033 671.395 306.098C687.872 313.718 699.021 326.665 699.741 341.85C700.596 360.484 685.588 377.257 663.323 385.507ZM835.693 302.71C835.693 309.423 834.922 315.526 833.895 321.443C833.446 324.021 831.202 325.839 828.677 325.839L827.753 325.758C824.866 325.255 822.929 322.507 823.433 319.621C824.405 314.027 825.074 308.616 825.074 302.71C825.067 293.88 823.598 283.835 819.085 270.412C818.149 267.63 819.647 264.618 822.417 263.684C825.195 262.747 828.209 264.242 829.145 267.024C833.957 281.287 835.697 292.645 835.693 302.71ZM852.989 301.962C852.989 307.85 852.367 313.276 851.49 318.691C850.613 324.11 849.492 329.521 848.439 335.52C846.678 345.614 845.07 357.672 845.07 374.825C845.07 392.023 846.7 414.327 851.534 444.59C851.995 447.487 850.025 450.209 847.127 450.674L846.294 450.741C843.729 450.741 841.467 448.874 841.054 446.267C836.154 415.573 834.454 392.703 834.454 374.825C834.454 357.017 836.154 344.145 837.988 333.691C839.077 327.494 840.184 322.098 841.01 316.999C841.84 311.892 842.373 307.095 842.373 301.962C842.366 293.453 840.908 283.876 836.38 270.412C835.445 267.63 836.943 264.618 839.72 263.684C842.497 262.747 845.505 264.242 846.448 267.024C851.246 281.25 852.996 292.166 852.989 301.962ZM870.292 302.71C870.292 309.423 869.52 315.526 868.494 321.443C868.037 324.021 865.797 325.839 863.268 325.839L862.347 325.758C859.464 325.255 857.527 322.507 858.028 319.621C859.004 314.027 859.672 308.616 859.672 302.71C859.665 293.88 858.2 283.835 853.679 270.412C852.744 267.63 854.246 264.618 857.019 263.684C859.797 262.747 862.804 264.242 863.739 267.024C868.552 281.287 870.299 292.645 870.292 302.71ZM901.345 450.987C898.415 450.987 896.036 448.606 896.036 445.683V380.344H879.314C876.314 380.344 873.873 377.971 873.873 375.037C873.873 372.106 876.314 369.73 879.314 369.73H896.036V349.099H879.314C876.314 349.099 873.873 346.719 873.873 343.784C873.873 340.854 876.314 338.481 879.314 338.481H896.036V317.743H879.314C876.314 317.743 873.873 315.366 873.873 312.435C873.873 309.505 876.314 307.124 879.314 307.124H885.895C886.016 305.41 886.096 303.68 886.096 301.91C886.092 293.59 884.642 284.151 880.103 270.55C879.168 267.749 880.662 264.71 883.439 263.77C886.224 262.825 889.231 264.327 890.163 267.132C894.954 281.466 896.715 292.259 896.715 301.91C896.715 303.691 896.642 305.421 896.533 307.124H905.825C905.716 305.421 905.65 303.691 905.65 301.91C905.643 292.259 907.4 281.466 912.191 267.132C913.13 264.327 916.145 262.825 918.918 263.77C921.696 264.71 923.194 267.749 922.255 270.55C917.724 284.151 916.269 293.59 916.269 301.91C916.269 303.68 916.339 305.41 916.463 307.124H923.051C926.052 307.124 928.485 309.505 928.485 312.435C928.485 315.366 926.052 317.743 923.051 317.743H906.651V338.481H923.051C926.052 338.481 928.485 340.854 928.485 343.784C928.485 346.719 926.052 349.099 923.051 349.099H906.651V369.73H923.051C926.052 369.73 928.485 372.106 928.485 375.037C928.485 377.971 926.052 380.344 923.051 380.344H906.651V445.683C906.651 448.606 904.283 450.987 901.345 450.987ZM863.396 530.388C864.185 528.011 866.893 526.706 869.396 527.446C871.11 527.959 873.431 528.19 876.16 528.35C876.602 528.38 877.074 528.38 877.531 528.38C880.9 528.406 884.455 527.61 886.889 526.245C889.345 524.82 890.616 523.281 890.96 520.93C891.011 520.476 891.04 520.045 891.04 519.662C890.909 516.46 889.677 515.269 886.973 513.793C884.302 512.469 880.264 511.9 877.384 511.911C876.083 511.911 874.987 512.03 874.6 512.116V512.104C873.131 512.629 871.465 512.443 870.167 511.61C868.855 510.754 868.066 509.382 868.095 507.861L868.311 488.926C868.377 486.483 870.5 484.478 873.116 484.478H892.027C894.673 484.478 896.818 486.494 896.818 488.964C896.818 491.452 894.673 493.445 892.027 493.445H877.859L877.728 502.94C881.671 503.004 886.692 503.617 891.38 505.83C896.178 507.995 900.739 512.919 900.629 519.662C900.629 520.421 900.578 521.216 900.49 522.031C899.789 527.483 896.079 531.63 891.757 533.958C887.434 536.339 882.372 537.328 877.531 537.358C876.865 537.358 876.211 537.328 875.532 537.306C872.674 537.109 869.656 536.897 866.55 535.989C863.999 535.256 862.607 532.735 863.396 530.388ZM860.765 432.324C858.138 432.324 855.854 430.371 855.506 427.697C852.766 406.527 851.75 389.021 851.75 374.646C851.75 364.913 852.214 356.616 852.934 349.594H852.941C853.23 346.678 855.839 344.554 858.751 344.856C861.675 345.153 863.794 347.757 863.491 350.672C862.815 357.319 862.362 365.252 862.362 374.646C862.362 388.519 863.348 405.572 866.038 426.332C866.411 429.244 864.361 431.904 861.456 432.279L860.765 432.324ZM819.428 498.775C819.541 489.57 828.326 483.106 838.163 483.091C845.808 483.098 852.795 487.033 855.583 493.103L856.088 493.899C856.252 494.286 857.849 497.841 857.849 503.312C857.984 512.16 853.113 525.873 833.183 536.722C832.426 537.138 831.575 537.358 830.749 537.358C829.119 537.358 827.515 536.573 826.609 535.163C825.279 533.018 826.028 530.28 828.304 529.008C838.163 523.467 843.221 517.944 845.75 513.086C843.415 513.971 840.82 514.448 838.163 514.474C828.326 514.448 819.541 507.995 819.428 498.775ZM817.152 374.646C817.152 364.913 817.616 356.616 818.336 349.594C818.632 346.678 821.241 344.554 824.153 344.856C827.077 345.153 829.196 347.757 828.9 350.672C828.217 357.319 827.767 365.252 827.767 374.646C827.767 388.519 828.746 405.572 831.44 426.332C831.812 429.244 829.762 431.904 826.857 432.279L826.167 432.324C823.536 432.324 821.259 430.371 820.912 427.697C818.167 406.527 817.152 389.021 817.152 374.646ZM770.348 521.436C770.348 516.698 772.976 512.551 776.659 509.825L776.871 509.702C773.443 507.009 771.075 503.041 771.075 498.544C771.075 493.914 773.553 489.856 777.112 487.156C780.712 484.411 785.418 482.86 790.534 482.86C795.635 482.86 800.368 484.411 803.938 487.156C807.523 489.856 810.008 493.914 810.008 498.544C810.008 503.041 807.632 507.009 804.212 509.691L804.409 509.825C808.107 512.551 810.738 516.698 810.738 521.436C810.738 526.167 808.107 530.325 804.409 533.032C800.678 535.785 795.829 537.332 790.534 537.358C785.243 537.332 780.39 535.785 776.659 533.032C772.976 530.325 770.348 526.167 770.348 521.436ZM770.911 266.369L770.922 266.373C772.095 263.68 775.219 262.464 777.905 263.647C780.584 264.826 781.797 267.95 780.627 270.635L780.624 270.643L780.617 270.661L780.543 270.843C780.474 271.015 780.361 271.282 780.218 271.662C779.93 272.413 779.506 273.577 778.987 275.158C777.956 278.312 776.564 283.106 775.19 289.536C774.905 290.875 774.616 292.3 774.339 293.787C776.378 295.677 778.176 297.89 779.798 300.322C782.129 303.837 784.103 307.82 785.842 312.075C789.31 320.588 791.828 330.232 793.699 339.377C797.441 357.65 798.581 373.921 798.595 374.077C798.815 377.172 796.618 379.872 793.699 380.099L793.3 380.117C790.552 380.117 788.221 377.871 788.016 374.914L787.998 374.635C787.98 374.442 787.958 374.148 787.929 373.758C787.863 372.976 787.761 371.838 787.618 370.392C787.329 367.498 786.873 363.388 786.2 358.579C784.866 348.973 782.645 336.528 779.272 325.516C777.269 318.955 774.825 312.911 772.106 308.355C770.801 319.134 769.961 332.184 770.224 347.522C770.681 373.285 774.244 405.453 783.997 443.898C784.713 446.739 782.999 449.633 780.16 450.351C779.754 450.455 779.345 450.507 778.943 450.514C776.535 450.559 774.335 448.941 773.71 446.509C763.771 407.294 760.087 374.304 759.619 347.712C758.691 294.524 770.64 266.968 770.911 266.369ZM749.227 488.123C749.227 485.653 751.39 483.645 754.021 483.645C756.663 483.645 758.826 485.653 758.826 488.123V532.869C758.826 535.361 756.663 537.358 754.021 537.358C751.39 537.358 749.227 535.361 749.227 532.869V488.123ZM708.526 374.077C708.533 373.981 709.026 366.925 710.419 356.936C711.818 346.942 714.098 334.022 717.76 322.042C720.216 314.053 723.252 306.473 727.327 300.322C728.942 297.89 730.74 295.677 732.775 293.787C729.921 278.71 726.618 270.936 726.494 270.643C725.317 267.957 726.534 264.826 729.216 263.647C731.895 262.464 735.023 263.68 736.203 266.373C736.473 266.968 748.426 294.524 747.498 347.712C747.03 374.304 743.351 407.294 733.404 446.509C732.79 448.945 730.579 450.559 728.178 450.514C727.773 450.507 727.367 450.455 726.958 450.351C724.122 449.633 722.405 446.739 723.121 443.898C732.87 405.453 736.44 373.285 736.89 347.522C737.157 332.188 736.32 319.13 735.015 308.355C733.817 310.36 732.666 312.655 731.591 315.158C728.653 321.968 726.289 330.287 724.48 338.492C720.844 354.905 719.419 370.845 719.149 374.245C719.123 374.702 719.105 374.914 719.105 374.914C718.896 377.871 716.569 380.117 713.817 380.117L713.415 380.099C710.499 379.872 708.31 377.172 708.526 374.077ZM779.948 521.436C779.948 523.005 780.763 524.586 782.623 526.022C784.483 527.405 787.326 528.402 790.534 528.402C793.757 528.402 796.6 527.405 798.457 526.022C800.32 524.586 801.15 523.005 801.15 521.436C801.15 519.848 800.32 518.263 798.457 516.846C796.6 515.455 793.757 514.462 790.534 514.462H790.498C787.311 514.462 784.483 515.455 782.623 516.846C780.763 518.263 779.948 519.848 779.948 521.436ZM797.886 503.004C799.648 501.642 800.419 500.106 800.419 498.544C800.419 496.967 799.648 495.435 797.897 494.081C796.151 492.75 793.538 491.82 790.534 491.82H790.52C787.53 491.82 784.91 492.75 783.196 494.081C781.439 495.435 780.664 496.967 780.664 498.544C780.664 500.106 781.439 501.642 783.196 503.004C784.91 504.316 787.556 505.261 790.534 505.261C793.538 505.261 796.151 504.316 797.886 503.004ZM831.414 494.237C829.799 495.576 829.006 497.127 828.984 498.775C829.006 500.434 829.799 501.97 831.414 503.301C833.022 504.595 835.408 505.499 838.163 505.499C840.868 505.499 843.265 504.595 844.902 503.301C846.517 501.97 847.31 500.434 847.317 498.775C847.31 497.127 846.517 495.576 844.902 494.237C843.265 492.962 840.868 492.054 838.163 492.054H838.142C835.394 492.054 833.022 492.962 831.414 494.237ZM727.648 716.036C727.433 718.096 725.85 722.41 729.41 722.507C732.815 722.596 732.702 721.581 734.624 718.174C736.123 715.515 737.749 714.113 739.082 711.182C740.405 708.251 740.994 708.359 741.308 707.418C741.615 706.477 741.589 705.161 742.291 702.505C742.996 699.857 744.133 695.636 744.502 694.118C744.878 692.605 745.423 691.441 746.161 689.57C746.892 687.695 748.646 686.948 750.031 686.702C750.498 686.617 754.207 686.996 754.679 687.045L754.843 687.55C755.011 687.803 754.248 687.718 759.966 689.767C760.127 689.83 759.857 691.017 759.82 691.56C759.725 692.627 759.744 693.765 759.437 694.799C759.437 694.799 756.396 695.253 756.206 696.183C756.009 697.109 755.665 697.856 756.802 698.37C757.931 698.875 758.603 699.519 758.603 699.519C758.603 699.519 758.724 700.601 758.388 702.334C758.212 703.223 757.957 703.16 757.909 703.368C757.851 703.673 755.72 703.762 755.351 703.963C754.109 704.644 754.006 706.418 755.424 708.114C755.954 708.746 756.773 708.222 756.988 708.902C757.281 709.854 756.053 711.126 755.834 711.402C755.07 712.361 753.648 713.86 751.781 714.191C749.91 714.518 748.01 715.199 742.945 714.012C742.207 713.845 741.483 714.515 741.037 715.314C741.067 715.883 741.045 716.475 740.661 717.2L740.782 717.39C741.509 718.111 742.543 718.989 743.113 719.997C743.676 720.997 743.077 721.488 745.09 722.046C747.995 722.853 748.737 720.711 751.098 721.432C753.451 722.154 751.141 723.79 750.875 724.761C750.586 725.769 749.212 726.609 748.576 727.409C746.924 729.466 747.476 732.772 748.412 735.011C749.128 736.718 750.699 741.538 753.36 740.449C754.405 740.021 758.249 736.462 759.484 735.108C760.716 733.754 761.333 732.824 761.677 731.608C762.009 730.399 763.018 719.989 763.953 719.461C765.528 718.572 768.269 718.993 770.016 718.81C773.14 718.483 776.341 717.977 779.425 717.404C780.536 717.2 781.629 716.932 782.725 716.683C784.088 716.374 785.341 715.705 786.705 715.359C787.83 715.072 789.398 714.894 790.231 713.983C790.951 713.205 791.594 712.662 791.689 711.844C791.777 711.022 791.272 710.033 790.728 709.43C789.946 708.538 788.334 708.56 787.286 708.129C784.508 706.998 782.115 705.328 779.688 703.602C778.742 702.94 776.652 702.115 776.089 701.077C775.724 701.215 776.089 701.077 775.935 701.654C775.935 701.977 776.341 702.873 777.101 705.213C778.033 708.11 779.264 710.695 778.362 710.948C775.935 711.643 773.356 711.547 770.9 712.194C770.052 712.421 769.438 712.573 768.667 712.811C767.885 713.053 767.553 713.224 766.694 712.99C765.839 712.748 764.933 711.911 764.611 710.777C764.289 709.646 764.359 709.144 765.506 708.873C766.65 708.601 769.42 707.552 769.668 706.184C769.906 704.819 769.376 704.834 768.846 703.904C768.331 702.981 765.78 705.763 767.213 700.884L767.461 700.017L770.399 699.842C770.648 699.772 770.984 699.697 771.485 699.582C772.738 699.296 775.599 698.756 776.776 697.912C777.116 697.663 777.733 696 777.825 695.71C777.942 695.342 778.442 694.65 777.017 693.903C775.592 693.159 775.968 694.025 774.203 694.319C772.446 694.609 768.411 694.669 768.411 694.669C768.411 694.669 768.656 693.401 768.78 692.199L768.941 691.244L768.981 691.117C768.981 691.117 769.478 689.864 772.047 688.038C774.66 686.174 783.964 684.534 787.092 684.136C790.22 683.738 795.519 683.162 796.567 683.091C797.62 683.02 797.777 681.67 797.148 680.123C796.545 678.635 795.387 679.283 794.232 679.461C792.84 679.681 791.459 679.227 790.063 679.294C788.641 679.353 787.22 679.662 785.824 679.881C783.88 680.179 779.992 681.012 778.749 681.094C777.507 681.172 775.658 681.841 774.773 682.016C773.896 682.191 773.977 681.867 774.963 680.566C775.946 679.264 778.391 679.268 779.349 679.294C780.313 679.309 781.899 678.628 783.646 677.866C786.277 676.724 788.415 674.808 790.684 673.105C791.861 672.224 793.162 671.435 794.287 670.509C795.175 669.776 796.092 668.906 796.582 667.846C797.126 666.686 796.659 666.005 796.165 664.919C795.307 663.015 792.04 663.487 790.384 663.431C789.938 663.416 789.321 663.305 788.89 663.465C787.79 663.881 785.937 665.908 784.556 665.005C784.117 664.718 784.859 662.141 785.133 660.597C785.407 659.05 783.902 657.678 782.425 655.911C780.956 654.137 779.148 650.953 776.557 650.28C773.969 649.603 771.978 654.505 771.331 656.25C770.9 657.421 770.622 658.656 770.184 659.835C769.771 660.932 769.098 661.873 768.612 662.929C767.779 664.77 767.863 668.91 765.177 669.241C764.578 669.319 764.348 670.182 763.749 670.777C763.142 671.364 761.143 672.112 761.399 673.105C761.655 674.094 763.84 672.874 764.213 672.912C764.593 672.956 764.885 674.068 764.947 674.314C765.214 675.363 764.315 677.047 764.077 678.07C763.665 679.84 763.555 681.849 762.842 683.537C762.448 684.478 756.974 683.85 755.238 683.932L754.851 684.036L754.843 684.028L754.671 683.694C754.496 683.132 752.399 682.291 752.431 681.715C752.541 680.041 751.134 679.059 750.228 678.795C749.314 678.535 747.867 677.375 747.407 676.936C746.95 676.501 745.233 675.597 744.505 674.734C743.782 673.875 744.805 671.792 744.878 671.067C744.969 670.167 746.197 669.062 746.749 668.419C748.203 666.715 750.82 665.291 753.126 665.455C754.785 665.574 756.177 665.905 757.423 664.484C760.372 661.092 756.7 657.142 753.867 655.376C752.439 654.494 751.832 653.691 751.054 653.241C750.275 652.791 747.794 651.426 746.771 650.704C745.74 649.986 743.804 648.677 742.645 649.302C741.48 649.919 742.455 651.136 744.125 653.65C744.915 654.825 745.331 655.993 745.189 657.406C745.057 658.712 744.951 659.496 745.613 660.694C746.409 662.137 747.14 663.245 746.654 664.953C746.146 666.749 743.818 670.405 743.27 671.03C742.722 671.647 741.856 671.852 741.271 672.428C738.871 674.779 738.805 677.278 739.726 680.298C740.456 682.715 740.292 686.978 740.044 688.9C739.791 690.82 737.782 695.138 737.113 696.387C736.44 697.633 734.986 700.207 733.013 704.633C731.05 709.051 730.48 709.873 729.991 709.821C729.516 709.773 728.237 711.64 727.78 712.369C727.239 713.246 727.762 715.032 727.648 716.036ZM782.243 670.104C783.317 668.78 786.427 668.523 786.427 668.523C786.544 670.1 784.081 671.175 783.763 671.39C783.441 671.602 783.328 672.049 783.09 672.458C782.838 672.871 781.738 673.053 781.738 673.053C781.738 673.053 781.172 671.424 782.243 670.104ZM737.065 701.929C737.138 701.244 738.07 699.716 739.503 696.614C740.942 693.516 743.669 691.244 743.669 691.244C743.566 692.237 743.219 692.281 743.058 693.036C742.894 693.787 738.399 701.523 737.745 702.074C737.087 702.624 736.996 702.613 737.065 701.929ZM869.634 705.726C870.712 712.562 868.691 716.761 865.11 720.25C861.339 723.887 855.751 726.598 850.288 730.076L850.058 730.224L849.996 730.492C849.974 730.686 849.78 731.024 849.912 731.571L850.003 731.924L850.358 732.036C852.612 732.646 855.492 731.85 857.652 731.601C858.441 731.474 859.186 731.318 859.921 731.128C870.873 728.287 876.95 718.249 877.944 709.646C878.159 705.22 878.371 700.832 878.616 696.588C879.763 695.42 880.9 694.271 882.062 693.259L882.091 693.23L882.131 693.192C883.22 691.909 885.245 690.31 887.244 688.573L886.823 688.09L887.258 688.562C890.222 685.769 893.967 682.005 894.786 679.063L894.819 678.963L894.808 678.855L894.757 678.542C894.296 677.14 892.765 676.701 891.084 676.259C889.381 675.857 887.393 675.63 885.873 675.452C885.72 675.444 882.489 675.437 881.313 675.448H881.236L881.156 675.467L880.64 675.943L880.633 676.426C880.83 677.029 881.313 677.587 881.843 678.364C882.35 679.078 882.866 679.904 882.964 680.317L882.986 680.51C882.888 681.745 880.056 684.835 878.437 686.312C877.472 678.966 880.191 672.335 879.197 664.874L879.16 664.636L878.981 664.48C876.697 662.524 869.495 659.887 865.731 660.605L865.457 660.664L865.311 660.913L865.157 661.52L865.15 661.59L865.095 661.683L865.088 661.843C865.037 662.807 865.187 663.762 865.435 664.722C865.958 666.738 866.9 668.761 867.412 670.773C867.602 671.498 867.734 672.22 867.781 672.945C868.34 680.35 869.312 687.61 869.389 694.754C865.877 698.492 861.927 702.171 857.403 705.265C855.675 706.559 853.058 706.957 850.701 708.493L850.372 708.709L850.365 708.716L849.715 708.887L850.011 709.587C851.476 712.774 853.961 717.479 857.823 716.668L858.536 716.415C860.747 715.37 862.621 713.674 864.361 711.513C865.99 709.479 867.704 707.593 869.634 705.726ZM881.313 701.308C880.987 702.197 881.009 703.134 881.251 704.038C882.533 708.783 889.491 713.696 891.917 715.768C892.604 716.285 893.076 716.921 893.916 717.561C894.526 718.052 895.374 718.565 896.485 718.635C897.26 718.68 897.976 718.598 898.652 718.423L898.681 718.416C902.759 717.33 905.076 713.098 906.735 711.346C907.126 710.844 908.157 710.029 909.078 709.17C909.995 708.277 910.927 707.407 911.022 706.221L911.051 705.544L910.368 705.548C909.114 705.559 908.08 705.67 906.903 705.685L906.911 706.329L906.867 705.685C905.961 705.745 905.098 705.905 904.269 706.12C902.485 706.582 900.848 707.262 899.193 707.682C898.1 707.965 896.997 708.14 895.838 708.095C894.749 708.103 893.485 707.723 892.148 707.173C888.727 705.864 885.314 703.149 883.096 700.891L882.836 700.627L881.762 700.902L881.433 700.988L881.313 701.308ZM937.482 624.495L936.872 624.867L937.771 625.406C939.141 626.213 940.606 627.147 941.988 627.972C945.364 630.502 949.694 633.607 952.062 637.43L952.084 637.475C952.49 638.133 952.947 638.78 953.338 639.413C954.065 640.603 954.456 641.629 954.028 642.63L954.014 642.663L953.981 642.682C950.582 642.466 947.432 639.896 942.938 642.626C942.433 642.939 941.911 643.318 941.363 643.775L941.217 643.902L941.169 644.095L941.228 644.832L941.345 644.988L941.454 645.111L941.608 645.166C944.648 646.189 950.224 649.112 952.388 652.136C952.786 652.806 953.115 653.62 953.601 654.405C954.014 655.093 954.576 655.77 955.443 656.231L955.541 656.29L955.651 656.305C956.955 656.502 958.253 656.703 959.55 656.908L959.882 656.96L960.116 656.711C960.694 656.038 960.624 655.212 960.493 654.397C960.014 651.946 958.549 648.581 960.361 646.264C961.611 645.672 962.744 646.1 964.333 645.921L964.465 645.903L964.571 645.832C964.933 645.561 965.024 645.378 965.159 645.308L965.492 645.096L965.459 644.709C965.367 643.727 965.185 642.678 965.101 641.76L965.086 641.652L965.046 641.555C964.746 640.897 964.458 640.019 964.059 639.156L964.578 637.851L967.008 631.93L967.37 631.781C967.819 631.993 968.58 632.514 968.865 633.016L969.033 633.592V633.633V633.678L969.018 633.67L968.382 634.541L968.061 634.909L968.422 635.437L968.572 635.656L968.85 635.701C969.431 635.768 969.972 635.578 970.399 635.444C971.108 636.255 971.675 637.01 972.559 637.758L972.596 637.795L972.647 637.821C973.611 638.308 975.27 638.732 975.256 638.944L975.234 638.948L975.197 639.048L975.186 639.145C975.102 641.071 972.76 645.092 970.933 647.844C970.662 648.391 970.436 648.819 970.206 649.09L970.158 649.142L970.122 649.198C966.255 656.071 962.331 662.807 958.406 669.728C956.988 672.648 951.759 676.824 954.196 681.146L954.47 681.544L954.602 681.711L954.81 681.767C956.955 682.31 959.152 682.656 961.388 682.812C962.82 682.727 964.173 682.009 964.746 682.299L965.185 682.459L965.47 682.072C968.4 678.118 967.326 675.909 967.812 674.481C969.913 668.095 973.198 661.944 977.167 655.863C978.146 654.602 979.06 653.207 980.032 651.958C981.691 649.637 983.328 646.598 985.966 644.999L986.533 644.675L986.566 644.661C986.818 645.163 986.946 645.732 986.99 646.163C987.092 647.662 986.175 649.191 985.846 650.853C985.488 653.546 984.662 656.361 983.814 658.864C983.397 659.883 982.14 661.389 982.155 662.922C982.243 663.442 982.425 663.811 982.619 664.134C982.871 664.54 983.145 664.889 983.328 665.191L983.573 665.778L983.591 665.908L983.606 665.923L983.573 666.02C983.091 667.162 980.606 669.877 979.838 671.041C978.775 673.045 977.635 675.069 976.348 676.832C973.451 680.581 968.623 683.619 967.633 688.198L967.556 688.54L967.812 688.785C968.733 689.592 970.79 690.087 973.151 690.384C975.501 690.63 978.004 690.589 979.604 689.641L980.076 689.298C981.991 687.372 982.707 684.661 983.372 682.779C984.271 680.309 986.796 675.772 989.306 673.276L989.931 672.703C990.615 673.254 991.338 674.184 992.222 674.979C993.004 675.727 993.607 676.456 994.042 677.159C995.036 678.799 995.135 680.238 994.663 681.696C994.097 683.712 992.175 685.743 989.756 687.714C989.474 687.933 989.146 688.157 988.802 688.369C987.647 689.083 986.208 689.719 984.929 690.5C984.417 690.816 983.931 691.158 983.496 691.552L983.16 692.203L983.167 692.318L982.992 693.137L983.821 693.088C986.12 692.913 988.455 691.816 990.454 691.82C994.104 691.757 997.189 691.63 1000.81 691.571H1000.88L1000.95 691.548L1001.62 691.307L1001.64 691.299L1002.03 690.812C1003.19 687.904 1002.87 680.61 1000.36 676.404C1000.06 675.906 999.714 675.463 999.337 675.072C997.492 673.135 995.23 671.312 993.944 669.207L993.425 668.218C993.461 667.969 994.126 666.968 994.883 666.187C995.679 665.321 996.608 664.491 996.838 664.35L1001.34 661.583L1001.41 661.497C1002.92 659.537 1002.26 657.183 1002.4 655.621V655.573V655.509L1002.12 654.673C1001.6 653.836 1000.65 653.94 1000.6 653.903L1000.54 653.892L1000.48 653.895C999.144 653.936 997.938 654.435 996.874 655.089C996.129 655.554 995.435 656.086 994.795 656.625C994.09 657.22 993.534 657.734 992.975 658.232L987.381 661.672L987.351 661.665C987.169 661.631 986.719 661.248 986.511 660.884L986.372 660.59L986.357 660.549C987.041 658.195 989.679 655.881 990.991 653.151C991.196 652.742 991.554 652.181 991.824 651.66C992.968 648.536 993.743 645.557 994.729 642.641C995.135 641.261 996.567 637.988 995.215 635.623C994.905 635.121 994.448 634.686 993.852 634.396C992.252 633.395 990.432 633.841 988.945 634.764C986.902 636.032 985.206 638.182 984.351 639.621C984.154 640.038 983.843 640.372 983.657 640.915C981.055 644.962 977.814 648.934 974.653 653.04C973.557 654.702 972.248 656.346 971.328 658.117C970.641 659.143 968.536 662.974 967.52 663.584H967.494C966.855 661.918 968.645 659.329 969.559 657.317L973.257 650.224L979.159 638.643C979.561 638.156 980.43 637.59 981.344 637.036C981.874 636.776 982.502 636.456 983.112 636.084C983.997 635.537 984.837 634.89 985.327 633.99C988.736 628.181 986.96 620.787 987.238 614.762C987.308 612.378 987.951 604.545 985.473 600.417C984.735 599.204 983.635 598.275 982.162 598.078C980.69 597.873 978.972 598.353 976.9 599.617L976.802 599.68L976.725 599.777C974.949 602.236 972.354 611.351 968.927 615.171C968.612 613.397 969.31 611.143 970.008 608.781C970.776 606.092 971.514 603.18 969.943 600.588L969.807 600.383L969.793 600.343C969.31 599.695 968.631 599.58 967.732 599.405C965.057 599.007 960.361 599.372 957.617 600.636L957.197 600.837L957.251 601.298C957.493 602.667 958.786 604.218 959.283 605.43L959.323 605.977L959.985 611.772C960.204 613.683 960.92 615.985 961.052 618.076C961.158 620.188 960.781 621.899 958.91 623.063C958.158 623.528 957.142 623.9 955.786 624.138C955.351 624.201 955.216 624.29 954.953 624.316C952.077 624.573 949.621 623.29 946.468 623.249C945.043 623.048 943.749 623.513 942.51 623.509C941.279 623.543 939.642 623.052 937.924 623.885L937.299 624.197L937.482 624.495ZM974.572 630.862L975.073 630.557L976.242 630.122L977.046 630.632C977.123 631.13 977.299 631.495 977.306 631.699C977.167 632.168 976.886 632.543 976.502 632.785C976.067 633.042 975.501 633.153 974.77 632.923C974.423 632.142 974.445 631.714 974.572 630.862ZM969.639 619.995L970.268 620.021C970.341 616.22 976.089 609.704 978.874 606.364C979.221 606.059 979.319 605.81 979.634 605.627C979.871 605.494 980.112 605.404 980.642 605.557C981.3 605.832 981.713 606.215 981.998 606.676C982.44 607.39 982.546 608.395 982.488 609.514C982.488 611.511 982.356 613.583 982.279 615.48V615.521L982.287 615.584C982.824 618.968 984.483 625.838 981.337 627.552L980.796 627.824C979.725 626.991 978.83 626.18 977.916 625.362L977.77 625.231L977.598 625.209C976.824 625.09 976.118 625.183 975.603 625.098C975.033 624.915 973.959 624.447 972.965 623.785C971.865 623.167 971.032 622.435 970.633 621.776L970.509 621.561L970.487 621.497L970.436 621.43L970.421 621.408C970.257 621.14 970.191 620.683 970.264 620.069L969.639 619.995ZM956.897 630.167C957.387 629.992 957.789 629.892 958.106 629.884C959.002 629.854 959.729 629.932 960.548 629.992C960.591 630.751 960.42 631.978 960.124 632.744L960.708 632.964L960.102 632.796L959.948 633.373C958.91 632.536 957.679 631.517 957.109 630.572L956.897 630.167Z" fill="#00468C"/>
<path d="M186.073 1111.62C186.073 1111.62 186.965 1109.07 187.63 1108.62C195.929 1104.71 202.22 1114.41 199.802 1115.19C197.953 1115.8 182.727 1127.38 182.727 1127.38C181.251 1120.07 186.073 1111.62 186.073 1111.62ZM354.783 1298.7C346.666 1299.21 344.138 1299.21 328.429 1300.73C312.728 1302.25 289.925 1302.25 287.39 1300.73C284.869 1299.21 275.239 1287.06 268.649 1277.95C262.066 1268.83 226.609 1223.75 217.483 1208.05C208.365 1192.36 190.632 1150.32 190.632 1150.32C190.632 1150.32 205.333 1137.16 231.16 1122.47C256.995 1107.78 259.027 1100.19 260.042 1095.13C261.058 1090.06 261.555 1083.99 250.42 1089.05C239.27 1094.11 213.947 1093.61 211.908 1093.61C209.885 1093.61 205.333 1092.59 200.766 1096.14C196.207 1099.68 189.551 1097.69 189.551 1097.69C189.551 1097.69 186.073 1095.63 186.073 1090.56C186.073 1085.5 176.451 1075.88 176.451 1075.88C187.089 1079.93 214.451 1062.71 224.066 1053.09C233.696 1043.46 253.452 1026.24 260.546 1018.14C267.641 1010.05 275.743 1013.6 282.334 997.896C286.557 987.828 284.233 995.667 287.653 984.935C291.065 974.203 287.653 973.232 281.8 970.784C275.941 968.344 266.669 972.245 257.39 973.714C248.118 975.175 236.406 977.608 231.044 978.601C225.666 979.566 228.603 979.566 216.394 986.879C204.193 994.206 186.139 999.569 169.539 1006.89C152.954 1014.21 144.654 1015.67 139.773 1015.67C134.893 1015.67 130.991 1014.21 125.621 1022.99C122.107 1028.73 126.52 1033.8 130.662 1037.58C135.718 1042.2 137.903 1045.87 141.848 1051.37C145.107 1055.9 151.083 1056.85 153.926 1062.02C153.926 1062.02 149.052 1061.53 141.731 1062.02C134.403 1062.5 136.354 1072.75 136.354 1078.61C136.354 1084.45 136.844 1102.51 135.375 1108.37C133.921 1114.22 134.403 1122.51 134.403 1130.32C134.403 1138.12 130.348 1159.44 130.348 1159.44C123.254 1167.04 58.9219 1206.03 47.7725 1212.61C36.6231 1219.19 13.8348 1206.54 13.8275 1206.54C5.87091 1220.18 18.4158 1246.47 27.8994 1256.8C33.5545 1262.97 41.6206 1269 49.2922 1272.37C61.9613 1277.95 82.6893 1270.39 96.9073 1254.14C111.096 1237.93 128.829 1208.56 128.829 1208.56C130.852 1232.36 128.829 1248.06 108.057 1299.21C87.2849 1350.36 59.9302 1350.36 44.7331 1354.41C29.536 1358.46 5.22066 1356.43 3.18951 1364.03C-0.120241 1376.43 40.6781 1387.83 66.5204 1382.77C83.2738 1379.48 97.7987 1363.28 108.787 1351.35C123.999 1334.85 139.744 1317.54 146.575 1295.67C152.238 1277.55 155.906 1258.62 159.449 1240C161.152 1231.06 162.832 1222.1 164.293 1213.12C167.837 1191.34 173.916 1163.49 173.916 1163.49C173.916 1163.49 190.632 1238.44 201.27 1272.37C211.908 1306.3 239.27 1346.81 256.499 1351.37C273.712 1355.93 296.523 1336.18 302.09 1334.16C307.657 1332.13 336.539 1320.98 351.729 1315.42C366.933 1309.84 362.886 1298.19 354.783 1298.7Z" fill="#00468C"/>
<path d="M1093.37 1199.15L1093.57 1199.03C1099.74 1194.72 1110.28 1190.08 1120.9 1184.79L1119.61 1182.23L1120.98 1184.77C1136.95 1176.02 1157.37 1163.98 1164.24 1152.19L1164.47 1151.77L1164.57 1151.3L1164.68 1149.89C1164.25 1143.32 1158.11 1139.72 1151.34 1135.94C1144.42 1132.29 1136.05 1129.12 1129.67 1126.63C1129.02 1126.43 1115.02 1122.8 1109.93 1121.52L1109.58 1121.43H1109.23C1108.35 1121.34 1106.96 1121.99 1106.45 1122.92C1105.89 1123.8 1105.89 1124.48 1105.88 1125C1106.03 1127.82 1107.51 1130.76 1108.93 1134.69C1110.35 1138.38 1111.65 1142.49 1111.6 1144.4L1111.5 1145.24C1109.69 1150.47 1093.94 1160.64 1085.27 1165.21C1089.36 1132.43 1108.53 1106.83 1112.58 1073.5L1112.7 1072.45L1112.12 1071.57C1104.39 1060.6 1076.13 1041.19 1059.06 1040.06L1057.77 1040L1056.86 1040.92C1055.88 1041.98 1055.72 1042.87 1055.53 1043.36L1055.42 1043.68L1055.09 1044L1054.87 1044.69C1053.56 1048.79 1053.14 1053.1 1053.14 1057.49C1053.15 1066.79 1054.96 1076.56 1054.94 1085.82C1054.94 1089.18 1054.71 1092.45 1054.11 1095.63C1048.23 1128.2 1044.29 1160.6 1036.63 1191.56C1017.23 1203.76 995.983 1215.22 972.914 1223.52C963.99 1227.2 952.203 1225.98 940.292 1229.99C939.391 1230.11 938.901 1230.45 938.615 1230.56L938.579 1230.59H935.548L936.082 1233.93C938.842 1249.35 944.34 1272.42 961.999 1273.23C963.111 1273.23 964.224 1273.11 965.352 1272.92C976.092 1270.9 986.107 1265.67 996.064 1258.29C1005.43 1251.32 1014.94 1245.09 1025.38 1239.17C1022.4 1269.9 1008.95 1285.78 989.519 1296.81C969.129 1308.32 941.873 1313.78 914.302 1322.7L913.123 1323.07L912.589 1324.18C912.267 1324.99 911.044 1326.24 911 1328.74V1330.37L912.428 1331.22C921.513 1336.38 934.859 1336.15 944.494 1337.5C948.067 1337.84 951.486 1338 954.861 1338C1005.46 1337.93 1043.06 1301.39 1057 1265.38C1062.91 1246.51 1068.73 1227.8 1074.55 1209.75C1080.83 1206.02 1087.04 1202.32 1093.19 1199.25L1093.37 1199.15ZM1202.08 1283.89C1196.61 1282.52 1192 1281.87 1186.9 1280.6L1186.2 1283.4L1186.74 1280.57C1182.75 1279.8 1178.83 1279.55 1174.98 1279.55C1166.76 1279.55 1158.89 1280.66 1151.24 1280.65C1146.2 1280.65 1141.23 1280.17 1136.26 1278.66C1131.53 1277.5 1126.47 1274.43 1121.33 1270.58C1107.97 1261.08 1096.22 1245.56 1089.12 1233.33L1088.3 1231.9H1083.34H1081.81L1080.94 1233.15C1078.56 1236.62 1077.59 1240.69 1077.59 1244.87C1077.85 1266.8 1102.5 1295.76 1110.66 1307.41C1113.09 1310.4 1114.4 1313.69 1117.34 1317.39C1119.43 1320.17 1122.53 1323.33 1127.24 1324.89C1130.56 1325.92 1133.77 1326.38 1136.89 1326.38H1137.01C1155.9 1326.26 1170.68 1310.59 1179.85 1304.87C1182.11 1303.14 1187.46 1300.76 1192.43 1298.08C1197.39 1295.27 1202.39 1292.53 1204.13 1287.52L1205 1284.62L1202.08 1283.89Z" fill="#00468C"/>
<path d="M1458.04 1085.01L1459.87 1087.26L1457.85 1085.18C1457.18 1085.84 1456.51 1086.5 1455.94 1087.08C1453.8 1081.4 1451.32 1074.54 1451.27 1069.5C1451.26 1068.76 1451.28 1068.05 1451.38 1067.42C1453.72 1067.88 1455.52 1068.39 1456.78 1069.1C1460.36 1071.06 1463.02 1073.07 1466.09 1075.2C1464.49 1078.29 1460.97 1082.69 1458.04 1085.01ZM1518.97 1111.11L1521.66 1111.06L1527.23 1112.07C1527.76 1113.23 1528.38 1114.5 1529.22 1115.92C1528.33 1118.06 1528.19 1119.9 1527.76 1120.72C1526.13 1122.24 1524.13 1123.06 1522.08 1123.11C1519.78 1123.14 1517.33 1122.24 1515 1119.67C1515.42 1115.78 1516.51 1114.14 1518.97 1111.11ZM1524.56 1065.19L1524.62 1064.86L1524.57 1064.49V1064.39C1524.52 1062.95 1525.32 1060.99 1527.05 1058.77L1524.78 1057L1527.2 1058.57C1536.23 1043.84 1573.8 1031.58 1592.43 1024.92C1594.48 1024.53 1595.45 1023.79 1597.11 1023.79C1598.33 1023.82 1599.47 1024.03 1601.2 1025.86C1603.14 1028.46 1603.88 1030.9 1603.94 1033.37C1604.02 1037.2 1602.09 1041.4 1599.3 1045.66C1594.69 1053.49 1589.38 1061.32 1584.7 1068.57L1584.6 1068.74L1584.48 1069.01C1578.77 1083.55 1569.4 1114.34 1553.1 1113.77C1552.22 1113.78 1551.31 1113.73 1550.35 1113.59C1548.13 1107.85 1546.46 1102.59 1544.78 1097.23L1544.51 1096.42L1543.87 1095.9C1541.11 1093.64 1538.15 1092.39 1536.34 1090.85C1534.51 1088.81 1531.41 1084.49 1529.03 1079.62C1526.15 1074.64 1524.58 1069.82 1524.53 1066.31L1524.56 1065.19ZM1438.23 1203.32L1469.08 1184.05L1518.96 1152.28C1521.65 1151.28 1526.36 1151.09 1531.2 1151.02C1533.87 1151.23 1537.11 1151.44 1540.36 1151.39C1545.07 1151.29 1549.85 1150.68 1553.87 1148.3C1580.63 1133.4 1590.76 1100.24 1605.74 1077.25C1611.55 1068.05 1632.18 1038.8 1632 1016.86C1631.92 1010.4 1629.74 1004.21 1624.44 1000C1619.16 995.806 1611.33 993.694 1600.3 993.877L1599.75 993.892L1599.24 994.104C1586.6 999.621 1555.38 1029.38 1533.13 1036.43C1535.98 1028.75 1543.95 1021.53 1552.13 1013.88C1561.35 1005.1 1570.96 995.382 1570.79 981.572L1570.76 980.454L1570.77 980.242C1570.42 976.595 1567.99 974.542 1564.89 971.802C1555.34 964.041 1536.1 954.6 1522.43 953.197L1520.31 953L1519.49 954.958C1517.25 960.877 1518.76 969.96 1517.88 975.879L1516.78 978.123L1505.99 1002.38C1502.43 1010.41 1499.91 1021.09 1495.58 1029.6C1491.14 1038.14 1485.71 1043.98 1475.68 1044.22C1471.68 1044.29 1466.82 1043.41 1460.97 1041.18C1459.11 1040.44 1458.39 1040.46 1457.32 1039.98C1445.46 1034.32 1438.78 1023.59 1426.55 1016.12C1421.41 1012.03 1415.3 1010.87 1410.46 1007.97C1405.56 1005.25 1400.27 999.54 1391.61 998.839L1388.47 998.612L1388.5 1000.19L1385.25 1000.25L1387.52 1004.44C1391.01 1010.79 1394.58 1017.85 1398.11 1024.3C1405.47 1042.03 1415.25 1064.25 1415.66 1084.74V1084.96C1415.72 1088.49 1416.03 1092.09 1416.09 1095.47C1416.19 1101.84 1415.35 1106.76 1411.35 1109.7L1411.23 1109.8H1411.08C1398.27 1101.08 1391.85 1083.68 1367.94 1084C1365.23 1084.04 1362.31 1084.32 1359.16 1084.86L1358.26 1085.02L1357.63 1085.65C1357.36 1085.81 1356.07 1087.19 1356.16 1088.71L1356.24 1089.58L1356.38 1090.3L1356.87 1090.88C1366.4 1101.94 1381.49 1126.33 1382.99 1143.2C1383 1146.78 1382.39 1150.74 1382.46 1154.94C1382.49 1158.59 1383.16 1162.54 1385.47 1166.37L1385.72 1166.79L1386.12 1167.12C1390.75 1170.92 1395.37 1174.72 1400 1178.53L1401.18 1179.51L1402.66 1179.06C1406.5 1177.75 1408.11 1174.36 1409.47 1170.85C1413.25 1160.13 1415.32 1143.52 1427.77 1138.63C1434 1139.19 1437.48 1143.52 1444.09 1146.48L1444.64 1146.71L1445.26 1146.7C1447.29 1146.48 1448.04 1145.95 1448.76 1145.99L1450.55 1145.96L1451.3 1144.33C1453.2 1140.29 1454.95 1135.73 1456.71 1131.92L1456.92 1131.47L1456.96 1131.01C1457.3 1127.72 1458.2 1123.61 1458.65 1119.28L1463.71 1115.39L1486.91 1097.77L1488.65 1098.01C1489.94 1099.91 1491.7 1103.71 1491.65 1106.32C1491.65 1107.49 1491.43 1108.35 1490.98 1108.97L1490.87 1109.12L1490.78 1109.3L1490.74 1109.26C1489.98 1109.84 1487.67 1110.77 1486.27 1111.2L1484.13 1111.9L1484.32 1114.81L1484.4 1116.03L1485.38 1116.83C1487.5 1118.42 1490.09 1118.96 1492.07 1119.42C1492.96 1124.25 1493.42 1128.53 1495.16 1133.49L1495.23 1133.72L1495.37 1133.94C1498.02 1138.09 1503.53 1143.6 1502.96 1144.41L1502.89 1144.39L1502.52 1144.67L1502.27 1145.04C1497.46 1152.4 1479.02 1162.78 1465.49 1169.33C1463.16 1170.85 1461.31 1172.01 1459.76 1172.53L1459.45 1172.62L1459.21 1172.76C1428.17 1190.77 1397.26 1208.12 1365.87 1226.17C1353.59 1234.39 1323.44 1238.64 1323 1261.24C1323.01 1261.89 1323.04 1262.63 1323.15 1263.44L1323.28 1264.4L1323.98 1265.11C1331.13 1272.22 1338.93 1278.65 1347.34 1284.45C1353.15 1287.41 1360.09 1287.76 1361.65 1290.2L1363.02 1291.85L1365 1291.01C1385.62 1282.26 1386.52 1271.12 1391.73 1266.63C1414.7 1246.45 1441.77 1229.9 1471.37 1215.22C1478.12 1212.55 1484.92 1209.19 1491.62 1206.55C1503.48 1201.29 1516.9 1193.16 1530.91 1192.96C1531.92 1192.94 1532.89 1192.96 1533.87 1193.03L1534.06 1193.05C1533.87 1195.59 1533.07 1198.12 1532.23 1199.92C1529.16 1206.01 1522.08 1209.91 1516.91 1215.7C1509.31 1225.4 1499.58 1234.55 1490.45 1242.41C1486.46 1245.44 1478.09 1248.43 1474.57 1254.51C1473.71 1256.73 1473.57 1258.61 1473.6 1260.34C1473.64 1262.51 1473.91 1264.5 1473.94 1266.1C1473.96 1267.39 1473.82 1268.33 1473.54 1268.98L1473.3 1269.55V1269.62L1473.01 1269.94C1468.44 1273.29 1452.45 1278.19 1446.74 1280.98C1437.98 1286.41 1428.83 1291.69 1419.7 1295.63C1399.7 1303.63 1373.78 1304.37 1359.31 1320.04L1358.24 1321.22L1358.67 1322.77C1360.41 1328.06 1367.31 1334.78 1375.9 1341.42C1384.53 1347.82 1394.41 1353.48 1402.87 1353.45C1403.79 1353.45 1404.65 1353.34 1405.51 1353.19C1417.45 1350.04 1426.51 1341.08 1433.47 1335.24C1442.67 1327.63 1463.07 1315.67 1478.67 1311.72C1479.74 1311.34 1481 1311.2 1482.45 1310.9C1483.83 1314.64 1484.53 1319.96 1486.14 1325.15C1487.48 1329.87 1488.14 1334.14 1488.21 1337.9C1488.32 1346.64 1485.39 1352.53 1480.17 1357.15C1473.34 1363.74 1461.09 1367.27 1447.06 1369.39C1445.46 1369.61 1443.68 1369.73 1441.81 1369.76C1435.65 1369.89 1428.54 1369.04 1421.73 1369.16C1418.99 1369.2 1416.28 1369.42 1413.68 1369.94C1412.39 1369.98 1410.99 1371.27 1410.87 1371.75L1410.63 1372.18L1408.03 1375L1411.42 1376.74C1420.8 1381.38 1432.48 1382.49 1440.31 1387.13C1454.75 1395.33 1467.11 1401.98 1481.38 1410.11L1481.71 1410.29L1482.04 1410.39C1482.71 1410.54 1483.67 1410.99 1485.22 1411H1485.27C1486.06 1410.99 1487.11 1410.72 1487.93 1409.98C1499.21 1401.25 1514.83 1371.91 1514.7 1349.57C1514.65 1346.92 1514.37 1344.38 1513.81 1341.99C1511.04 1330.1 1506.39 1317.69 1506.23 1306.48C1506.2 1304.71 1506.25 1303.01 1506.47 1301.38C1507.2 1300.51 1512.11 1298.1 1516.88 1296.79C1521.98 1295.22 1527.54 1294.12 1528.77 1294.1L1552.8 1293.68L1553.26 1293.51C1563.7 1289.3 1566.56 1278.53 1570.7 1272.71L1570.84 1272.53L1570.95 1272.29C1571.56 1270.94 1571.86 1269.6 1571.83 1268.37C1571.7 1263.85 1567.72 1262.07 1567.64 1261.84L1567.42 1261.65L1567.16 1261.51C1561.86 1258.58 1556 1257.76 1550.3 1257.86C1546.32 1257.93 1542.36 1258.42 1538.61 1259.06C1534.51 1259.77 1531.12 1260.48 1527.77 1261.16L1497.92 1261.68L1497.84 1261.59C1497.19 1261.03 1496.33 1258.47 1496.36 1256.6L1496.49 1255.11L1496.55 1254.92C1504.64 1247.25 1520.32 1244.28 1531.77 1236.61C1533.5 1235.46 1536.21 1234.11 1538.46 1232.66C1550.16 1223.09 1560.08 1213.18 1570.68 1204.02C1575.44 1199.57 1588.64 1190.03 1588.78 1177.6C1588.75 1174.91 1587.94 1172.15 1586.29 1169.61C1582.35 1161.99 1574.17 1159.52 1566.23 1159.72C1555.32 1159.94 1543.69 1164.47 1537.01 1168.13C1535.29 1169.32 1533.3 1169.9 1531.31 1171.59C1511.78 1181.46 1489.91 1189.55 1468.06 1198.34C1459.93 1202.34 1451 1205.74 1443.3 1210.57C1438.23 1212.99 1421.15 1223.14 1415.77 1223.2L1415.66 1223.11C1417.02 1215.11 1429.98 1209.11 1438.23 1203.32Z" fill="#00468C"/>
<path d="M782.916 1226.44C782.383 1222.85 779.134 1219.23 776.159 1217.25C771.808 1214.36 765 1216.23 760.044 1215.56C746.94 1213.81 734.888 1209.39 722.627 1204.77C717.865 1202.99 708.068 1201.8 704.473 1198.01C703.097 1199 704.473 1198.01 704.473 1200.65C704.841 1202.02 707.571 1205.36 713.406 1214.46C720.617 1225.72 728.685 1235.3 725.155 1237.38C715.574 1243.02 704.473 1245.49 694.741 1250.95C691.391 1252.83 688.956 1254.16 685.909 1256.04C682.854 1257.93 681.637 1259.01 677.718 1258.95C673.799 1258.89 669.016 1256.34 666.386 1251.89C663.757 1247.43 663.505 1245.22 668.065 1242.82C672.647 1240.4 683.287 1232.89 682.797 1226.81C682.307 1220.75 680.067 1221.4 676.803 1218.04C673.554 1214.7 665.788 1229.31 666.473 1207.03C666.509 1205.98 666.091 1203.54 666.552 1203.09C666.991 1201.74 677.682 1199.54 678.899 1199.08C679.872 1198.52 681.205 1197.81 683.215 1196.78C688.228 1194.19 699.834 1188.71 703.89 1183.83C705.071 1182.4 705.864 1174.66 705.928 1173.34C706.015 1171.66 707.376 1168.15 700.475 1166.56C693.581 1164.99 696.138 1168.26 688.963 1171.44C681.781 1174.61 664.665 1179.36 664.665 1179.36C664.665 1179.36 664.297 1173.69 663.483 1168.44C663.289 1167.15 663.044 1165.56 663.109 1164.22L663.137 1163.66C663.137 1163.66 663.872 1157.77 672.783 1147.17C681.824 1136.39 719.659 1119.12 732.547 1113.97C745.434 1108.84 767.363 1100.51 771.75 1099.05C776.137 1097.57 775.309 1091.69 770.929 1085.82C766.707 1080.16 762.471 1084.2 757.76 1086.24C752.091 1088.71 745.672 1088.33 739.808 1090.13C733.836 1091.97 728.116 1094.86 722.404 1097.32C714.451 1100.75 698.811 1108.59 693.617 1110.3C688.409 1112.02 681.277 1116.92 677.718 1118.62C674.152 1120.34 674.152 1118.88 676.89 1112.26C679.634 1105.65 690.058 1102.96 694.164 1101.99C698.271 1101 704.293 1096.35 710.885 1091.21C720.819 1083.44 727.785 1072.92 735.579 1063.19C739.606 1058.17 744.26 1053.37 748.035 1048.2C751.017 1044.11 753.949 1039.4 754.871 1034.36C755.88 1028.83 753.121 1026.46 749.822 1022.4C744.044 1015.28 730.674 1020.9 723.556 1022.49C721.611 1022.92 718.881 1023.13 717.217 1024.3C713.01 1027.29 707.348 1037.93 700.461 1035.62C698.271 1034.88 698.544 1023.13 697.997 1016.28C697.449 1009.43 689.511 1005.26 681.277 999.382C673.057 993.507 661.812 982 650.026 982C638.234 982 635.215 1005.01 634.394 1013.1C633.832 1018.59 634.063 1024.12 633.486 1029.6C632.953 1034.7 631.123 1039.45 630.245 1044.47C628.717 1053.19 633.674 1070.67 622.608 1075.04C620.138 1076.03 620.138 1079.94 618.229 1083.13C616.305 1086.31 608.626 1091.69 610.823 1095.62C613.02 1099.53 620.959 1091.94 622.608 1091.69C624.251 1091.45 626.722 1095.85 627.269 1096.83C629.589 1100.97 627.608 1109.13 627.73 1113.7C627.954 1121.69 629.726 1130.33 628.58 1138.28C627.939 1142.71 603.893 1146.1 596.603 1148.37C588.167 1151.49 596.386 1159.74 598.951 1164.16C599.931 1165.04 596.603 1165.52 623.242 1167.91C623.984 1167.98 624.179 1173.32 624.604 1175.65C625.382 1180.3 626.722 1185.11 626.578 1189.83C626.578 1189.83 614.108 1195.13 614.331 1199.27C614.555 1203.41 613.892 1206.97 619.302 1207.89C624.705 1208.8 628.285 1210.78 628.285 1210.78C628.285 1210.78 629.985 1215.23 630.468 1222.94C630.727 1226.94 629.567 1226.93 629.603 1227.88C629.69 1229.23 620.692 1231.98 619.352 1233.22C614.807 1237.48 616.363 1245.13 624.287 1250.77C627.241 1252.86 630.151 1249.73 631.815 1252.4C634.127 1256.08 630.317 1262.84 629.683 1264.26C627.485 1269.18 623.113 1277.09 615.513 1280.56C607.913 1284.02 600.557 1289.02 577.664 1289.61C574.335 1289.69 572.009 1293.33 571 1297.22C571.764 1299.61 572.318 1302.15 571.497 1305.64L572.232 1306.32C576.1 1308.59 581.482 1311.16 585.04 1314.79C588.563 1318.43 586.539 1321.16 595.752 1321.3C609.008 1321.52 609.807 1311.6 620.649 1312.05C631.491 1312.5 623.466 1322.01 623.386 1326.42C623.293 1331.04 618.387 1336.1 616.55 1340.19C611.803 1350.76 617.811 1364.16 624.301 1372.63C629.243 1379.06 641.295 1397.79 651.424 1390.23C655.4 1387.26 667.827 1367.89 671.566 1360.79C675.326 1353.68 676.918 1349.04 677.019 1343.51C677.127 1338 669.844 1292.71 673.223 1289.46C678.957 1283.93 691.067 1282.7 698.335 1279.97C711.281 1275.12 724.363 1269.46 736.876 1263.6C741.357 1261.5 745.723 1259.16 750.117 1256.9C755.585 1254.07 760.181 1249.84 765.591 1246.87C770.072 1244.41 776.562 1241.9 779.091 1237.11C781.295 1233.03 783.456 1230.02 782.916 1226.44ZM696.282 1059.81C699.387 1053.01 712.354 1048.48 712.354 1048.48C714.609 1055.02 705.309 1062.32 704.185 1063.59C703.061 1064.85 703.061 1066.86 702.492 1068.87C701.923 1070.9 697.406 1072.9 697.406 1072.9C697.406 1072.9 693.178 1066.61 696.282 1059.81Z" fill="#00468C"/>
<path d="M594.583 1149.74L594.098 1149.28L592.979 1148.03C591.625 1145.84 581.851 1144.6 581.38 1142.1C579.976 1134.86 572.982 1132.21 568.855 1132.12C564.727 1132.01 557.349 1128.69 554.946 1127.33C552.537 1125.96 544.281 1124.02 540.268 1121.16C536.268 1118.3 538.293 1108.28 537.801 1105.12C537.202 1101.18 541.173 1095.11 542.777 1091.76C547.047 1082.86 556.5 1073.88 566.402 1072.02C573.531 1070.67 579.776 1070.54 583.441 1063.09C592.174 1045.35 572.334 1032.62 558.439 1028.25C551.467 1026.06 548.017 1023.32 544.231 1022.27C540.446 1021.22 528.505 1018.16 523.379 1016.23C518.246 1014.3 508.658 1010.87 504.445 1014.82C500.217 1018.77 505.678 1022.84 515.48 1031.71C520.093 1035.87 523.13 1040.35 524.092 1046.53C524.99 1052.25 525.397 1055.72 529.489 1060.07C534.443 1065.34 538.728 1069.26 538.571 1077.07C538.4 1085.29 532.625 1103.46 530.986 1106.74C529.36 1109.98 525.939 1111.82 524.085 1114.94C516.564 1127.62 519.038 1138.35 526.238 1150.21C531.977 1159.67 535.983 1178.03 537.038 1186.5C538.093 1194.96 534.365 1215.6 532.918 1221.67C531.463 1227.73 528.163 1240.32 524.727 1261.36C521.298 1282.41 519.793 1286.52 517.69 1286.85C515.602 1287.17 512.279 1296.54 511.174 1300.18C509.863 1304.52 513.983 1311.53 514.653 1315.97C516.001 1324.98 514.09 1345.12 529.189 1341.59C543.647 1338.19 542.057 1333.96 546.406 1317.31C549.799 1304.31 555.103 1296.51 557.491 1282.55C559.865 1268.59 562.46 1268.39 562.738 1264.03C563.016 1259.68 561.448 1254.09 561.498 1242C561.548 1229.91 561.69 1210.68 561.583 1203.8C561.483 1196.91 562.531 1191.35 563.558 1182.56C564.592 1173.76 571.186 1168.63 576.732 1166.03C578.607 1165.15 594.676 1162.64 596.693 1162.32C597.563 1162.17 596.244 1160.27 596.836 1159.61L594.875 1158.35C594.612 1156.08 595.702 1153.57 595.645 1153.45L595.325 1152.04C595.154 1151.12 595.104 1150.38 594.583 1149.74ZM554.297 1200.78C554.44 1204.18 544.003 1242.14 541.843 1245.22C539.662 1248.3 539.298 1248.35 538.835 1245.35C538.371 1242.34 540.617 1234.79 543.248 1219.99C545.907 1205.18 554.903 1192.45 554.903 1192.45C555.566 1196.81 554.148 1197.37 554.297 1200.78Z" fill="#00468C"/>
<path d="M1632 1487.22H1597.54L1584.56 1535.02C1583.08 1540.8 1581.37 1547.97 1580.1 1553.34H1579.24C1577.97 1548.16 1575.84 1540.8 1574.14 1535.22L1558.61 1487.22H1522.67L1560.96 1576.44C1562.02 1578.83 1562.24 1580.23 1562.24 1581.42C1562.24 1582.61 1561.59 1584.21 1560.53 1585.8C1557.56 1590.58 1548.62 1601.46 1536.09 1603.78L1529.8 1630C1545.53 1630.11 1560.1 1624.44 1571.17 1615.28C1582.86 1605.52 1592.86 1590.18 1607.74 1551.35L1632 1487.22ZM1490.48 1544.78V1509.52H1513.67V1487.22H1490.48V1475.87H1458.79V1487.22H1444.96V1509.52H1458.79V1549.36C1458.79 1563.1 1461.77 1572.46 1467.72 1578.23C1473.04 1583.22 1481.76 1586.6 1492.18 1586.6C1501.12 1586.6 1505.99 1586.01 1510.04 1584.61L1516.15 1560.45C1513.18 1561.06 1507.71 1561.91 1503.25 1561.91C1493.67 1561.91 1490.48 1556.52 1490.48 1544.78ZM1431.95 1460.14C1431.73 1451.58 1425.35 1445 1414.93 1445C1404.51 1445 1397.7 1451.58 1397.7 1460.14C1397.7 1468.5 1404.29 1475.27 1414.5 1475.27C1425.35 1475.27 1431.95 1468.5 1431.95 1460.14ZM1336.31 1513.71C1336.31 1508.93 1340.78 1505.94 1348.65 1505.94C1357.36 1505.94 1366.51 1509.13 1371.19 1511.51L1376.72 1490.61C1370.34 1487.62 1359.7 1484.83 1347.58 1484.83C1321.85 1484.83 1305.25 1498.58 1305.25 1516.89C1305.04 1528.45 1313.34 1539.4 1335.03 1546.17C1346.95 1549.96 1350.14 1552.34 1350.14 1557.52C1350.14 1562.5 1346.09 1565.49 1336.31 1565.49C1326.73 1565.49 1314.39 1561.71 1308.45 1558.32L1302.7 1579.83C1310.57 1583.81 1322.69 1586.8 1336.31 1586.8C1366.09 1586.8 1381.19 1573.45 1381.19 1555.13C1380.98 1541 1372.9 1531.44 1353.12 1525.06C1340.35 1520.88 1336.31 1518.48 1336.31 1513.71ZM1288.78 1513.33L1295.71 1485.94C1293.36 1485.54 1289.24 1484.83 1286.26 1484.83C1276.04 1484.83 1263.5 1490.8 1258.18 1505.14H1257.33L1256.05 1487.22H1228.4C1229.03 1495.59 1229.25 1504.94 1229.25 1519.28V1584.61H1261.58V1535.22C1261.58 1532.83 1261.8 1530.44 1262.22 1528.45C1264.34 1519.09 1272.43 1513.11 1284.35 1513.11C1287.96 1513.11 1286.22 1512.93 1288.78 1513.33ZM1210.18 1545.58C1210.6 1543.39 1211.23 1538.8 1211.23 1533.62C1211.23 1509.52 1198.47 1485.03 1164.87 1485.03C1128.7 1485.03 1112.32 1512.31 1112.32 1537.01C1112.32 1567.48 1132.53 1586.6 1167.84 1586.6C1181.88 1586.6 1194.85 1584.61 1205.5 1580.43L1201.23 1559.91C1192.51 1562.7 1183.58 1564.1 1172.52 1564.1C1157.42 1564.1 1144.01 1558.12 1143.17 1545.58H1210.18ZM1181.24 1524.86H1142.95C1143.8 1516.89 1149.34 1505.14 1162.94 1505.14C1177.84 1505.14 1181.24 1517.49 1181.24 1524.86ZM1070.71 1584.61L1109.42 1487.22H1075.39L1061.99 1532.43C1059.65 1540.8 1057.95 1548.16 1056.25 1556.13H1055.61C1053.91 1548.36 1052.21 1540.8 1049.65 1532.43L1035.61 1487.22H1000.52L1038.38 1584.61H1070.71ZM988.884 1460.14C988.668 1451.58 982.29 1445 971.871 1445C961.446 1445 954.635 1451.58 954.635 1460.14C954.635 1468.5 961.229 1475.27 971.438 1475.27C982.29 1475.27 988.884 1468.5 988.884 1460.14ZM900.014 1584.61H932.347V1527.06C932.347 1498.37 916.391 1485.03 895.113 1485.03C877.674 1485.03 867.249 1494.39 862.997 1500.76H862.361L860.871 1487.22H832.796C833.216 1495.98 833.636 1506.14 833.636 1518.29V1584.61H865.976V1528.45C865.976 1525.66 866.186 1522.87 867.039 1520.88C869.381 1515.3 874.702 1509.52 883.632 1509.52C895.33 1509.52 900.014 1518.09 900.014 1530.63V1584.61ZM809.695 1525.66V1450.37H777.362V1527.45C777.362 1551.35 767.999 1562.5 750.986 1562.5C734.603 1562.5 725.031 1550.75 725.031 1527.45V1450.37H692.698V1525.26C692.698 1567.88 713.759 1586.8 749.917 1586.8C787.361 1586.8 809.695 1567.08 809.695 1525.66ZM591.323 1584.61H623.643V1527.06C623.643 1498.37 607.693 1485.03 586.428 1485.03C568.982 1485.03 558.563 1494.39 554.312 1500.76H553.675L552.179 1487.22H524.098C524.525 1495.98 524.958 1506.14 524.958 1518.29V1584.61H557.291V1528.45C557.291 1525.66 557.494 1522.87 558.353 1520.88C560.689 1515.3 566.004 1509.52 574.94 1509.52C586.645 1509.52 591.323 1518.09 591.323 1530.63V1584.61ZM502.532 1460.14C502.322 1451.58 495.938 1445 485.519 1445C475.093 1445 468.283 1451.58 468.283 1460.14C468.283 1468.5 474.884 1475.27 485.086 1475.27C495.938 1475.27 502.532 1468.5 502.532 1460.14ZM446.927 1460.14C446.723 1451.58 440.34 1445 429.914 1445C419.488 1445 412.691 1451.58 412.691 1460.14C412.691 1468.5 419.279 1475.27 429.488 1475.27C440.34 1475.27 446.927 1468.5 446.927 1460.14ZM413.748 1565.69C413.748 1579.95 412.816 1587.88 410.447 1592.92C407.055 1599.02 399.556 1602.33 391.689 1603.78L385.404 1630C393.389 1630.06 418.327 1626.77 431.397 1615.47C441.14 1607.06 446.08 1594.17 446.08 1573.06V1487.22H413.748V1565.69ZM355.931 1584.61H388.258V1527.06C388.258 1498.37 372.314 1485.03 351.037 1485.03C333.598 1485.03 323.179 1494.39 318.92 1500.76H318.277L316.795 1487.22H288.713C289.14 1495.98 289.566 1506.14 289.566 1518.29V1584.61H321.899V1528.45C321.899 1525.66 322.109 1522.87 322.962 1520.88C325.298 1515.3 330.619 1509.52 339.548 1509.52C351.253 1509.52 355.931 1518.09 355.931 1530.63V1584.61ZM239.197 1584.61H268.335C267.055 1579.23 266.629 1570.27 266.629 1561.11V1527.06C266.629 1503.95 255.783 1484.83 221.115 1484.83C202.179 1484.83 187.935 1489.81 180.698 1493.59L186.649 1513.11C193.46 1509.13 204.738 1505.74 215.367 1505.74C231.317 1505.74 234.302 1513.11 234.302 1518.48V1519.68C197.501 1519.68 173.252 1531.63 173.252 1556.93C173.252 1572.46 185.803 1586.8 206.864 1586.8C219.192 1586.8 229.834 1582.61 236.645 1574.85H237.281L239.197 1584.61ZM235.359 1549.16C235.359 1550.95 235.155 1552.75 234.722 1554.34C232.596 1560.51 225.793 1565.49 217.919 1565.49C210.689 1565.49 205.158 1561.71 205.158 1553.94C205.158 1542.39 218.346 1538.6 235.359 1538.6V1549.16ZM157.662 1460.14C157.452 1451.58 151.069 1445 140.643 1445C130.224 1445 123.414 1451.58 123.414 1460.14C123.414 1468.5 130.008 1475.27 140.223 1475.27C151.069 1475.27 157.662 1468.5 157.662 1460.14ZM71.0433 1475.87H110.18V1450.37H0V1475.87H38.7104V1584.61H71.0433V1475.87ZM156.593 1487.22H124.26V1584.61H156.593V1487.22ZM501.469 1487.22H469.136V1584.61H501.469V1487.22ZM987.821 1487.22H955.488V1584.61H987.821V1487.22ZM1430.88 1487.22H1398.54V1584.61H1430.88V1487.22Z" fill="#00468C"/>
</g>
<defs>
<clipPath id="clip0_70_110">
<rect width="1632" height="1630" fill="white"/>
</clipPath>
</defs>
</svg>
