<svg width="1646" height="4029" viewBox="0 0 1646 4029" fill="none" xmlns="http://www.w3.org/2000/svg">
<rect width="1646" height="4028.4" fill="#00468C"/>
<path d="M1234.5 747.199C1234.5 519.93 1050.26 335.699 823 335.699C595.728 335.699 411.5 519.93 411.5 747.199C411.5 974.469 595.728 1158.7 823 1158.7C1050.26 1158.7 1234.5 974.469 1234.5 747.199ZM1197.87 663.748L1217.36 685.687L1205.24 710.498L1221.89 734.636L1206.81 757.747L1220.33 783.781L1202.57 804.839L1212.78 832.321L1192.53 851.08L1199.36 879.614L1176.96 895.733L1180.2 924.866L1155.95 938.091L1155.6 967.458L1129.95 977.596L1125.97 1006.67L1099.28 1013.61L1091.75 1041.93L1064.42 1045.53L1053.5 1072.76L1025.92 1072.96L1011.72 1098.64L984.32 1095.45L967.068 1119.13L940.272 1112.6L920.239 1134.04L894.444 1124.26L871.912 1143.06L847.516 1130.18L822.901 1146.09L800.245 1130.32L773.876 1143.03L753.325 1124.61L725.56 1133.99L707.453 1113.18L678.738 1119.05L663.324 1096.21L634.113 1098.54L621.637 1073.93L592.326 1072.63L582.993 1046.68L554.092 1041.79L548.004 1014.89L519.892 1006.52L517.144 979.062L490.285 967.287L490.936 939.69L465.707 924.676L469.749 897.373L446.57 879.428L453.955 852.821L433.17 832.112L443.749 806.658L425.653 783.573L439.276 759.562L424.122 734.431L440.588 712.268L428.671 685.486L447.732 665.522L439.206 637.442L460.562 620.025L455.519 591.097L478.877 576.421L477.477 547.095L502.421 535.417L504.61 506.15L530.804 497.563L536.588 468.839L563.677 463.547L572.897 435.716L600.435 433.819L612.991 407.342L640.537 408.834L656.294 384.105L683.437 388.947L702.125 366.357L728.465 374.49L749.806 354.332L774.888 365.717L798.513 348.318L822.112 362.693L847.688 348.33L869.285 365.494L896.399 354.373L915.766 374.048L944.069 366.42L960.841 388.281L989.893 384.19L1003.87 407.948L1033.18 407.454L1044.1 432.759L1073.27 435.854L1081 462.349L1109.55 468.984L1113.99 496.19L1141.51 506.31L1142.56 533.866L1168.64 547.277L1166.28 574.781L1190.57 591.29L1184.82 618.295L1206.84 637.646L1197.87 663.748ZM1206.07 687.235L1187.12 665.905L1195.83 640.566L1174.41 621.747L1179.98 595.541L1156.37 579.497L1158.66 552.796L1133.31 539.757L1132.29 513.008L1105.54 503.167L1101.23 476.772L1073.46 470.319L1065.96 444.594L1037.6 441.589L1027 417.027L998.506 417.507L984.941 394.448L956.687 398.424L940.414 377.206L912.894 384.622L894.108 365.542L867.743 376.358L846.782 359.699L821.918 373.657L799.014 359.71L776.036 376.629L751.684 365.583L730.946 385.165L705.385 377.269L687.209 399.238L660.869 394.533L645.547 418.589L618.823 417.135L606.611 442.883L579.884 444.728L570.923 471.777L544.62 476.917L538.996 504.841L513.581 513.172L511.451 541.643L487.234 552.982L488.593 581.494L465.937 595.731L470.838 623.856L450.111 640.767L458.395 668.058L439.901 687.435L451.485 713.473L435.505 734.982L450.239 759.417L437.018 782.729L454.613 805.182L444.348 829.888L464.556 850.013L457.394 875.832L479.926 893.275L476.001 919.785L500.532 934.383L499.9 961.165L526.013 972.609L528.68 999.253L556.01 1007.39L561.927 1033.51L590.035 1038.27L599.09 1063.46L627.579 1064.72L639.685 1088.6L668.079 1086.33L683.046 1108.51L710.965 1102.79L728.542 1122.99L755.528 1113.88L775.477 1131.75L801.115 1119.39L823.095 1134.7L847.038 1119.22L870.721 1131.72L892.628 1113.45L917.656 1122.94L937.136 1102.09L963.147 1108.43L979.92 1085.41L1006.5 1088.5L1020.31 1063.53L1047.08 1063.34L1057.7 1036.87L1084.23 1033.37L1091.55 1005.84L1117.46 999.101L1121.33 970.827L1146.21 960.994L1146.55 932.43L1170.09 919.595L1166.93 891.281L1188.68 875.642L1182.04 847.9L1201.7 829.68L1191.77 802.961L1209 782.52L1195.86 757.204L1210.48 734.781L1194.3 711.316L1206.07 687.235ZM1183.05 747.121C1183.05 946.013 1022.06 1107.25 823.486 1107.25C624.904 1107.25 463.92 946.013 463.92 747.121C463.92 548.222 624.904 386.987 823.486 386.987C1022.06 386.987 1183.05 548.222 1183.05 747.121ZM1080.72 918.23C1090.9 924.657 1099.84 926.766 1106.02 927.223C1107.48 924.94 1108.9 922.638 1110.31 920.324C1103.54 919.331 1094.93 916.464 1085.55 910.55C1075.2 904.023 1068.45 896.607 1064.83 890.537L1064.67 890.805C1063.35 893.011 1062.01 895.205 1060.64 897.377C1063.5 902.952 1069.39 911.015 1080.72 918.23ZM1090.94 888.998L1112.88 915.98C1114.83 912.633 1116.72 909.252 1118.56 905.838L1119.2 904.57L1109.77 895.718C1106.89 893.096 1104.6 890.917 1101.99 888.652L1102.06 888.533C1105.63 889.243 1108.46 889.79 1112.44 890.407L1125.2 892.672L1126.43 890.24C1127.94 887.045 1129.39 883.824 1130.81 880.574L1095.72 878.242L1076.58 868.59C1074.89 872.127 1073.11 875.623 1071.28 879.075L1090.94 888.998ZM1122.26 869.903L1133.63 873.879C1134.52 871.7 1135.38 869.509 1136.22 867.311L1142.82 848.436C1143.56 846.074 1144.29 843.698 1144.99 841.317L1133.63 837.349L1129.93 847.956L1090.37 834.132C1089.15 837.888 1087.85 841.611 1086.48 845.297L1126.03 859.117L1122.26 869.903ZM1094.56 819.969L1147.23 832.975L1150.07 821.505L1097.36 808.492C1096.51 812.345 1095.57 816.168 1094.56 819.969ZM1149.99 809.321C1151.99 806.658 1153.71 803.151 1154.47 797.922C1156.08 786.939 1150.6 780.222 1141.21 778.794C1133.33 777.593 1127.66 781.68 1123.43 788.564C1120.66 793.165 1118.89 794.876 1116.29 794.478C1113.6 794.065 1112.23 791.878 1112.81 787.872C1113.44 783.543 1115.73 779.467 1117.77 777.072L1106.35 773.089C1104.41 775.298 1101.94 780.14 1101.17 785.373C1099.32 798.093 1106.34 805.178 1115.49 806.573C1122.9 807.703 1128.54 804.932 1133.15 797.639C1136.47 792.533 1137.91 790.379 1140.59 790.785C1142.95 791.142 1144.25 793.321 1143.73 796.877C1143.09 801.269 1141.12 804.27 1139.82 805.989L1149.99 809.321ZM1154.29 765.758C1156.35 763.623 1158.17 761.875 1158.22 757.293C1158.27 753.377 1158.33 753.042 1158.36 750.911C1158.4 747.099 1158.37 743.298 1158.28 739.512C1158.17 738.474 1158.03 737.529 1157.88 736.685L1103.85 735.778C1104 739.664 1104.07 743.562 1104.07 747.478L1124.05 747.813L1124.03 749.706C1123.96 753.362 1122.55 754.972 1115.92 756.04C1109.84 757.103 1105.81 758.041 1103.83 758.677C1103.67 762.794 1103.41 766.885 1103.08 770.954C1105.3 770.139 1113.22 768.849 1118.82 767.584C1123.58 766.55 1127.11 765.044 1128.71 762.128L1129.04 762.136C1130.53 765.62 1135.36 769.819 1142.22 769.931C1147.6 770.02 1151.55 768.521 1154.29 765.758ZM1147.91 752.198C1147.75 756.114 1145.43 758.23 1141.27 758.156C1137.19 758.093 1134.45 755.497 1134.53 751.056L1134.59 747.984L1147.65 748.207C1147.8 748.795 1147.94 749.977 1147.91 752.198ZM1145.98 725.401L1157.6 724.084C1157.36 720.562 1157.06 717.063 1156.71 713.581L1155.6 703.844C1155.26 701.103 1154.86 698.37 1154.45 695.647L1100.42 701.799C1101.98 711.424 1103.06 721.213 1103.62 731.14L1115.34 729.808L1113.34 712.224L1123.4 711.082L1125.18 726.781L1137.03 725.438L1135.25 709.736L1144.08 708.724L1145.98 725.401ZM1097.73 687.517L1153.26 688.458C1152.53 684.378 1151.73 680.317 1150.87 676.289L1128.5 676.847C1122.48 676.973 1115.99 677.278 1109.15 677.806L1109.12 677.684C1115.77 674.98 1121.36 672.406 1126.97 669.557L1146.89 659.921L1146.67 659.006C1145.62 655.182 1144.51 651.385 1143.35 647.61L1094.35 673.633C1095.58 678.219 1096.71 682.846 1097.73 687.517ZM1090.32 660.099L1141.61 642.21C1140.37 638.457 1139.08 634.734 1137.72 631.045L1086.41 648.938C1087.79 652.627 1089.09 656.343 1090.32 660.099ZM1084.63 644.296L1133.82 621.022C1132.48 617.697 1131.07 614.39 1129.61 611.117L1117.85 616.666C1110.38 620.192 1103.56 623.711 1097.28 627.404L1097.19 627.229C1102.18 622.699 1107.73 617.258 1111.65 612.735L1124 599.134C1121.95 594.976 1119.81 590.855 1117.6 586.794L1068.41 610.065C1070.16 613.2 1071.85 616.373 1073.5 619.586L1085.1 614.089C1093.14 610.284 1100.62 606.61 1107.22 603.192L1107.31 603.37C1102.14 608.12 1096.73 613.862 1092.49 618.619L1079.7 632.555C1081.42 636.423 1083.08 640.335 1084.63 644.296ZM1087.91 592.856L1111.91 576.785C1109.93 573.423 1107.88 570.106 1105.78 566.825L1105.71 566.714L1079.76 584.015C1072.5 588.862 1067.63 589.36 1065.02 585.447C1062.44 581.591 1065.12 577.061 1072.04 572.441L1097.97 555.147C1095.72 551.915 1093.4 548.728 1091.02 545.578L1067.41 561.388C1052.68 571.218 1049.33 581.062 1056.03 591.115C1062.89 601.38 1073.78 602.277 1087.91 592.856ZM1060.38 529.801L1069.85 523.578C1069.21 520.986 1066.93 516.888 1062.71 512.7C1052.56 502.621 1038.12 501.044 1024.62 514.567C1019.04 520.187 1016.13 525.832 1015.6 532.207C1015.1 538.373 1017.37 544.428 1023.54 550.543C1027.62 554.593 1033.24 557.643 1036.53 558.956L1057.13 538.545L1044.89 526.398L1036.84 534.517L1041.01 538.649L1034.34 545.377C1033.8 545.183 1032.52 544.253 1031.4 543.145C1026.25 538.035 1026.7 530.083 1033.94 522.783C1041.82 514.842 1049.42 515.709 1054.57 520.815C1058.14 524.359 1059.54 527.127 1060.38 529.801ZM1003.32 531.586L1035.32 487.58C1032.54 485.3 1029.73 483.065 1026.87 480.882L1019.3 491.292C1014.45 497.961 1010.14 504.317 1006.4 510.584L1006.25 510.465C1008.45 504.097 1010.71 496.655 1011.97 490.812L1016.25 473.068C1012.46 470.386 1008.61 467.79 1004.71 465.269L972.703 509.271C975.754 511.194 978.755 513.172 981.722 515.203L989.337 504.73C994.57 497.537 999.361 490.723 1003.52 484.564L1003.67 484.676C1001.43 491.318 999.43 498.957 997.983 505.165L993.415 523.664C996.781 526.23 1000.08 528.871 1003.32 531.586ZM970.847 507.608L984.437 453.167C979.807 450.619 975.111 448.172 970.35 445.843L933.95 488.413C937.743 490.042 941.485 491.742 945.19 493.527L952.839 483.906L962.921 489.142L959.723 501.07C963.484 503.171 967.196 505.347 970.847 507.608ZM972.356 458.355C971.435 461.553 970.116 465.927 969.268 468.984L966.517 478.688L959.267 474.92L965.46 467.102C967.47 464.648 970.16 460.891 972.239 458.295L972.356 458.355ZM934.666 465.414L959.369 440.711C955.389 438.937 951.373 437.241 947.317 435.616L939.42 445.996C937.104 449.127 935.178 451.63 933.19 454.457L933.066 454.412C933.398 450.779 933.661 447.904 933.87 443.876L934.812 430.955L933.373 430.405C929.675 429.118 925.958 427.894 922.202 426.734L923.484 461.758L915.832 481.823C919.538 483.114 923.21 484.486 926.839 485.936L934.666 465.414ZM902.586 477.553L916.921 425.15C913.143 424.049 909.342 423.022 905.513 422.044L891.177 474.455C895.01 475.407 898.818 476.445 902.586 477.553ZM893.165 431.197L895.2 419.612C892.621 419.047 890.026 418.511 887.424 418.005L875.771 415.952C872.862 415.491 869.95 415.071 867.023 414.688L857.591 468.237C867.447 469.445 877.148 471.16 886.66 473.366L888.689 461.832L871.262 458.764L873.016 448.789L888.583 451.534L890.647 439.792L875.087 437.055L876.63 428.292L893.165 431.197ZM853.389 443.783C856.301 440.845 858.077 436.036 858.384 430.487C858.691 424.871 856.941 419.861 854.098 416.923C851.192 413.821 847.206 412.616 840.88 412.27C834.164 411.898 829.073 411.694 825.839 412.166L822.847 466.121H823C826.866 466.121 830.718 466.206 834.547 466.362L835.545 448.354C836.254 448.477 837.292 448.614 838.403 448.681C844.337 449.008 849.585 447.58 853.389 443.783ZM846.753 430.174C846.497 434.898 843.46 437.676 838.827 437.423C837.591 437.349 836.813 437.222 836.17 437.111L836.945 423.089C837.54 422.955 838.717 422.862 840.478 422.955C844.914 423.205 846.983 426.094 846.753 430.174ZM819.32 466.05C815.856 459.824 812.713 450.433 812.202 438.197C811.73 427.054 813.568 418.236 816.061 411.895C813.324 411.95 810.605 412.04 807.886 412.155C805.244 417.763 802.752 426.589 803.201 438.572C803.764 451.98 807.868 461.181 811.288 466.366C812.278 466.329 813.28 466.288 814.281 466.258L819.32 466.05ZM774.41 447.971L782.686 414.197C778.839 414.662 775.005 415.186 771.172 415.781L769.78 416.034L768.406 428.902C768.048 432.785 767.693 435.921 767.463 439.361L767.331 439.387C765.734 436.11 764.466 433.518 762.555 429.966L756.665 418.433L753.982 418.92C750.522 419.645 747.072 420.423 743.634 421.256L762.943 450.641L766.794 471.736C770.642 470.952 774.497 470.253 778.364 469.639L774.41 447.971ZM742.252 477.899L729.404 438.014L740.283 434.511L736.596 423.052C734.319 423.655 732.053 424.291 729.791 424.941L710.753 431.071C708.425 431.9 706.097 432.759 703.773 433.637L707.46 445.085L718.153 441.641L731.001 481.533C734.732 480.235 738.478 479.03 742.252 477.899ZM717.181 486.736L695.763 436.88L684.903 441.544L706.328 491.43C709.923 489.786 713.537 488.216 717.181 486.736ZM669.091 461.449C672.979 459.311 676.56 459.073 678.716 459.073L675.245 448.953C671.908 448.967 668.079 449.708 663.445 452.263C653.721 457.604 651.671 466.031 656.188 474.373C659.985 481.384 666.672 483.437 674.715 482.656C680.05 482.091 682.484 482.478 683.737 484.787C685.027 487.179 684.106 489.592 680.565 491.541C676.732 493.646 672.102 494.286 668.959 494.104L672.676 505.622C675.61 505.823 680.96 504.882 685.593 502.334C696.863 496.131 698.27 486.26 693.867 478.126C690.296 471.539 684.68 468.709 676.089 469.434C670.012 469.866 667.421 470.018 666.124 467.634C664.987 465.533 665.945 463.182 669.091 461.449ZM650.253 494.137C652.132 490.838 652.563 484.456 648.514 478.918C645.338 474.567 641.761 472.328 637.906 471.811C634.96 471.454 632.472 471.052 628.781 473.782C625.635 476.11 625.328 476.255 623.614 477.524C620.544 479.789 617.53 482.109 614.562 484.456C613.802 485.185 613.13 485.862 612.556 486.491L644.439 530.124C647.436 527.658 650.509 525.252 653.633 522.887L641.841 506.749L643.369 505.633C646.318 503.476 648.455 503.632 653.305 508.281C657.821 512.477 661.011 515.132 662.703 516.315C666.083 513.968 669.5 511.699 672.946 509.516C670.951 508.237 665.148 502.691 660.756 498.995C657.072 495.822 653.732 493.91 650.447 494.398L650.253 494.137ZM638.103 496.436L635.625 498.247L627.915 487.703C628.299 487.223 629.146 486.394 630.941 485.088C634.156 482.838 637.244 483.415 639.7 486.777C642.108 490.072 641.688 493.81 638.103 496.436ZM598.579 514.359L610.736 502.784L602.679 494.323C600.018 496.637 597.398 498.98 594.833 501.36L587.737 508.121C585.763 510.052 583.816 512.012 581.901 513.987L619.397 553.362C626.132 546.303 633.294 539.538 640.873 533.103L632.735 524.56L619.923 536.763L612.936 529.436L624.385 518.535L616.167 509.907L604.718 520.808L598.579 514.359ZM609.644 564.129L576.894 519.275C574.07 522.318 571.314 525.401 568.621 528.525L582.566 546.024C586.297 550.747 590.452 555.731 595.005 560.871L594.921 560.975C588.752 557.3 583.326 554.396 577.669 551.64L557.969 541.572L557.377 542.301C554.954 545.44 552.59 548.62 550.292 551.826L600.607 575.201C603.516 571.445 606.527 567.755 609.644 564.129ZM592.246 586.578L547.025 556.467C544.781 559.714 542.596 562.995 540.48 566.308L585.708 596.423C587.81 593.105 589.988 589.817 592.246 586.578ZM583.077 600.64L534.827 575.458C532.996 578.541 531.209 581.661 529.473 584.797L541.002 590.837C548.318 594.656 555.236 597.977 561.978 600.756L561.89 600.93C555.269 599.681 547.569 598.539 541.605 598.148L523.305 596.501C521.222 600.648 519.231 604.832 517.327 609.053L565.57 634.243C567.006 630.948 568.519 627.683 570.09 624.439L558.704 618.5C550.814 614.379 543.374 610.641 536.669 607.435L536.756 607.26C543.659 608.506 551.501 609.358 557.863 609.879L576.686 611.668C578.729 607.952 580.859 604.278 583.077 600.64ZM540.074 629.07L512.774 619.627C511.297 623.231 509.883 626.872 508.531 630.524L508.487 630.647L537.937 640.901C546.184 643.768 549.528 647.35 547.982 651.794C546.455 656.175 541.233 656.774 533.369 654.037L503.934 643.794C502.724 647.551 501.573 651.322 500.495 655.115L527.347 664.406C544.079 670.223 553.949 666.95 557.922 655.539C561.974 643.88 556.113 634.649 540.074 629.07ZM548.559 686.227L494.776 677.977C494.038 681.481 493.355 685.01 492.73 688.562L505.52 690.526C513.676 691.779 521.299 692.683 528.578 693.141L528.545 693.334C521.88 694.29 514.228 695.696 508.458 697.254L490.698 701.594C490.077 706.176 489.547 710.788 489.112 715.426L542.903 723.686C543.199 720.086 543.56 716.508 543.995 712.949L531.205 710.985C522.41 709.635 514.158 708.501 506.777 707.631L506.806 707.437C513.742 706.388 521.434 704.666 527.624 703.101L546.1 698.693C546.827 694.506 547.646 690.351 548.559 686.227ZM542.453 729.875L488.184 727.659C487.958 731.579 487.8 735.513 487.713 739.463L541.982 741.687C542.059 737.73 542.212 733.795 542.453 729.875ZM520.681 748.334L487.632 749.624C487.662 753.578 487.757 757.52 487.921 761.44L521.123 760.142C528.553 759.856 530.727 762.255 530.866 766.041C530.939 767.934 530.606 769.771 530.179 771.229L541.814 772.081C542.61 769.831 542.895 766.613 542.8 764.2C542.406 753.63 536.343 747.72 520.681 748.334ZM543.191 774.037L489.503 782.915C489.88 786.5 490.315 790.074 490.808 793.622L503.55 791.514C511.688 790.171 519.212 788.657 526.28 786.835L526.309 787.024C520.265 790.007 513.431 793.719 508.432 796.996L492.898 806.651L493.128 808.049C493.881 812.159 494.711 816.242 495.61 820.3L549.298 811.422C548.483 807.934 547.73 804.412 547.047 800.871L534.326 802.976C525.545 804.427 517.352 805.914 510.066 807.387L510.033 807.19C516.296 804.04 523.079 800.004 528.472 796.594L544.671 786.653C544.087 782.476 543.593 778.269 543.191 774.037ZM550.178 815.078L502.026 844.739C503.558 849.782 505.198 854.773 506.963 859.709L563.165 854.576C561.594 850.779 560.103 846.937 558.696 843.054L546.539 844.587L542.99 833.79L553.569 827.53C552.345 823.417 551.212 819.266 550.178 815.078ZM535.656 846.513L525.753 847.77C522.6 848.116 518.061 848.923 514.754 849.321L514.71 849.198C517.608 847.554 521.609 845.349 524.357 843.765L533.106 838.755L535.656 846.513ZM564.357 857.422L514.86 879.804C516.417 883.422 518.047 887.015 519.724 890.574L569.228 868.196C567.536 864.64 565.913 861.051 564.357 857.422ZM533.281 891.021L522.812 896.919C527.968 907.24 533.643 917.249 539.8 926.933L550.226 921.057L544.708 911.272L581.243 890.656C579.23 887.268 577.289 883.843 575.414 880.373L538.894 900.973L533.281 891.021ZM608.606 982.699C606.274 984.373 611.719 992.142 616.916 994.932C620.285 996.743 625.097 995.999 628.697 995.493C633.67 994.794 638.856 994.032 643.142 991.216C646.694 988.88 650.023 986.125 653.279 983.406C654.847 982.093 656.407 980.787 657.934 979.434C661.644 976.164 666.65 972.207 666.65 972.207C666.65 972.207 658.899 987.56 655.925 994.946C652.95 1002.33 651.934 1013.23 654.269 1016.47C656.604 1019.7 663.357 1019.52 664.611 1019.96C665.86 1020.4 672.445 1022.57 675.866 1023.77C679.29 1024.96 680.244 1022.37 678.764 1021.31C677.291 1020.24 676.852 1019.88 673.918 1017.91C670.98 1015.95 667.037 1012.71 666.814 1012.08C666.588 1011.47 666.65 1007.99 666.803 1005.48C666.957 1002.97 667.22 990.123 667.867 986.11C668.517 982.097 671.415 972.3 671.415 972.3C671.415 972.3 675.833 972.103 682.385 973.234C688.948 974.357 690.373 973.33 691.268 972.594C692.164 971.865 693.114 970.883 690.472 970.18C687.819 969.47 683.507 965.792 683.149 965.502C682.805 965.211 682.155 964.389 680.865 964.356C679.568 964.323 678.698 963.032 678.698 963.032C678.698 963.032 678.391 962.18 679.111 961.306C679.831 960.429 679.527 957.394 679.527 957.394C680.795 959.607 687.976 960.51 691.013 960.213C694.046 959.912 699.914 959.729 702.29 959.335C704.665 958.941 705.564 960.707 708.937 958.919C711.1 957.78 709.583 958.803 711.699 957.435C713.815 956.062 713.358 955.408 712.693 954.151C712.028 952.897 709.868 952.257 708.052 951.194C706.243 950.126 703.865 948.888 702.798 948.296C701.727 947.705 702.235 948.118 699.085 947.649C695.928 947.188 692.043 945.555 688.126 944.466C684.216 943.38 682.568 942.454 681.724 941.754C680.883 941.066 680.412 940.256 678.237 941.014C676.812 941.513 676.86 943.015 677.042 944.257C677.258 945.775 677.112 946.723 677.021 948.237C676.94 949.483 677.839 950.498 677.598 951.796C677.598 951.796 676.82 951.019 675.482 950.063C674.148 949.107 673.026 951.16 672.197 952.176C671.367 953.184 668.886 956.386 667.805 957.189C666.719 957.992 665.627 959.499 664.516 960.853C663.408 962.199 659.681 965.319 659.681 965.319C657.368 965.628 640.694 963.244 637.829 962.801C634.96 962.359 632.819 956.932 632.819 956.932C629.501 958.164 627.937 964.497 628.112 967.636C628.215 969.507 628.755 971.694 629.603 973.371C631.01 976.135 635.673 977.771 640.442 976.968C645.199 976.179 652.442 973.609 652.442 973.609C649.413 978.024 646.833 980.449 635.973 986.363C625.112 992.272 620.373 988.386 617.168 986.928C613.963 985.47 610.038 981.665 608.606 982.699ZM673.301 967.205C674.083 965.728 676.122 964.951 676.122 964.951L676.816 964.65C678.811 965.159 678.519 967.726 677.993 967.517C677.583 967.361 673.301 967.205 673.301 967.205ZM675.866 833.838C722.41 916.616 796.255 954.054 814.716 962.708L823 965.989L831.284 962.708C849.745 954.054 923.587 916.616 970.153 833.838C990.569 797.278 998.312 758.152 999.31 721.897L999.332 721.142H999.346L999.788 705.124C999.788 705.124 979.409 698.868 973.328 694.811C964.021 688.611 961.448 681.284 965.965 671.811C970.273 662.762 994.808 655.153 994.808 655.153L990.7 636.519C990.43 635.314 990.156 634.113 989.878 632.919H989.871C979.77 589.141 965.53 559.491 965.026 558.424L956.76 541.219L939.64 547.262C929.156 550.985 918.796 552.499 908.783 552.499C870.673 552.837 836.813 521.689 835.289 520.309L823 510.859L810.693 520.309H810.714C809.187 521.689 775.331 552.837 737.22 552.499C727.201 552.499 716.859 550.985 706.349 547.262L689.24 541.219L680.967 558.424C680.456 559.513 665.44 590.773 655.303 636.519L651.2 655.153C651.2 655.153 675.727 662.762 680.043 671.811C684.556 681.284 681.983 688.611 672.683 694.811C666.599 698.868 646.219 705.124 646.219 705.124L646.679 721.897C647.695 758.152 655.431 797.278 675.866 833.838ZM685.926 827.311C666.756 792.994 659.396 756.148 658.424 721.514L658.22 714.069L664.768 711.636C674.4 708.077 682.231 702.747 687.34 696.908C692.493 691.032 694.879 685.01 694.882 679.078C694.882 678.729 694.879 678.387 694.853 678.078C694.597 673.038 692.69 668.226 688.889 663.491C685.093 658.805 679.367 654.405 672.168 651.091L664.929 647.729L666.748 639.435C676.535 595.184 691.181 564.731 691.4 564.248L695.087 556.59L702.688 559.29C714.484 563.474 726.093 565.144 737.253 565.144H737.52C779.036 565.144 813.737 533.516 817.263 530.812L817.533 530.608L823 526.439L828.463 530.608L828.763 530.812C832.267 533.52 867.121 565.293 908.769 565.144C919.907 565.144 931.509 563.474 943.323 559.29L950.913 556.59L954.6 564.248C954.816 564.705 968.07 592.268 977.783 633.031C978.002 633.923 978.21 634.82 978.422 635.724C978.502 636.077 978.583 636.434 978.667 636.787C978.784 637.319 978.901 637.847 979.021 638.383C979.105 638.732 979.182 639.082 979.255 639.435L980.103 643.292L981.071 647.729L973.832 651.091C966.637 654.405 960.915 658.805 957.122 663.491C953.317 668.226 951.41 673.038 951.158 678.078C951.136 678.387 951.121 678.729 951.121 679.078C951.136 685.01 953.515 691.032 958.664 696.908C963.776 702.747 971.611 708.077 981.239 711.636L987.784 714.069L987.627 720.172L987.583 721.514C986.597 756.148 979.255 792.994 960.063 827.311C915.803 906.333 843.968 943.056 826.683 951.071L823 952.272L819.32 951.071C802.039 943.056 730.204 906.333 685.926 827.311ZM667.823 721.206C668.762 754.545 675.807 789.546 693.987 822.1C736.438 898.124 806.677 934.268 823.007 941.762C823.007 941.762 899.326 916.427 951.976 822.1C970.174 789.546 977.216 754.545 978.177 721.206C955.853 712.957 940.827 696.183 941.737 677.55C942.45 662.364 953.591 649.418 970.09 641.797C960.586 598.732 946.228 568.908 946.228 568.908C882.023 591.629 823.007 538.842 823.007 538.842C823.007 538.842 763.929 591.629 699.754 568.908C699.754 568.908 685.396 598.732 675.895 641.797C692.372 649.418 703.521 662.364 704.241 677.55C705.096 696.183 690.088 712.957 667.823 721.206ZM840.193 638.409C840.193 645.122 839.422 651.225 838.395 657.142C837.946 659.72 835.702 661.539 833.177 661.539L832.253 661.457C829.366 660.955 827.429 658.206 827.933 655.32C828.905 649.726 829.574 644.315 829.574 638.409C829.567 629.579 828.098 619.534 823.585 606.111C822.649 603.329 824.147 600.317 826.917 599.383C829.695 598.446 832.709 599.941 833.645 602.723C838.457 616.986 840.197 628.345 840.193 638.409ZM857.489 637.661C857.489 643.549 856.867 648.975 855.99 654.39C855.113 659.809 853.992 665.221 852.939 671.22C851.178 681.314 849.57 693.371 849.57 710.524C849.57 727.722 851.2 750.026 856.034 780.289C856.495 783.186 854.525 785.909 851.627 786.374L850.794 786.441C848.229 786.441 845.967 784.573 845.554 781.966C840.654 751.272 838.954 728.402 838.954 710.524C838.954 692.717 840.654 679.844 842.488 669.39C843.577 663.194 844.684 657.797 845.51 652.698C846.34 647.592 846.873 642.794 846.873 637.661C846.866 629.152 845.408 619.575 840.88 606.111C839.945 603.329 841.443 600.317 844.22 599.383C846.997 598.446 850.005 599.941 850.948 602.723C855.746 616.949 857.496 627.865 857.489 637.661ZM874.792 638.409C874.792 645.122 874.02 651.225 872.994 657.142C872.537 659.72 870.297 661.539 867.768 661.539L866.847 661.457C863.964 660.955 862.027 658.206 862.528 655.32C863.504 649.726 864.172 644.315 864.172 638.409C864.165 629.579 862.7 619.534 858.179 606.111C857.244 603.329 858.746 600.317 861.519 599.383C864.297 598.446 867.304 599.941 868.239 602.723C873.052 616.986 874.799 628.345 874.792 638.409ZM905.845 786.686C902.915 786.686 900.536 784.306 900.536 781.382V716.043H883.814C880.814 716.043 878.373 713.671 878.373 710.736C878.373 707.805 880.814 705.429 883.814 705.429H900.536V684.798H883.814C880.814 684.798 878.373 682.418 878.373 679.484C878.373 676.553 880.814 674.18 883.814 674.18H900.536V653.442H883.814C880.814 653.442 878.373 651.065 878.373 648.135C878.373 645.204 880.814 642.824 883.814 642.824H890.395C890.516 641.109 890.596 639.38 890.596 637.609C890.592 629.289 889.142 619.85 884.603 606.249C883.668 603.448 885.162 600.41 887.939 599.469C890.724 598.524 893.731 600.027 894.663 602.831C899.454 617.165 901.215 627.958 901.215 637.609C901.215 639.391 901.142 641.12 901.033 642.824H910.325C910.216 641.12 910.15 639.391 910.15 637.609C910.143 627.958 911.9 617.165 916.691 602.831C917.63 600.027 920.645 598.524 923.418 599.469C926.196 600.41 927.694 603.448 926.755 606.249C922.224 619.85 920.769 629.289 920.769 637.609C920.769 639.38 920.839 641.109 920.963 642.824H927.551C930.552 642.824 932.985 645.204 932.985 648.135C932.985 651.065 930.552 653.442 927.551 653.442H911.151V674.18H927.551C930.552 674.18 932.985 676.553 932.985 679.484C932.985 682.418 930.552 684.798 927.551 684.798H911.151V705.429H927.551C930.552 705.429 932.985 707.805 932.985 710.736C932.985 713.671 930.552 716.043 927.551 716.043H911.151V781.382C911.151 784.306 908.783 786.686 905.845 786.686ZM867.896 866.087C868.685 863.711 871.393 862.405 873.896 863.145C875.61 863.659 877.931 863.889 880.66 864.049C881.102 864.079 881.574 864.079 882.031 864.079C885.4 864.105 888.955 863.309 891.389 861.944C893.845 860.52 895.116 858.98 895.46 856.629C895.511 856.176 895.54 855.744 895.54 855.361C895.409 852.159 894.177 850.969 891.473 849.492C888.802 848.168 884.764 847.599 881.884 847.61C880.583 847.61 879.487 847.729 879.1 847.815V847.804C877.631 848.328 875.965 848.142 874.667 847.309C873.355 846.454 872.566 845.081 872.595 843.56L872.811 824.626C872.877 822.182 875 820.177 877.616 820.177H896.527C899.173 820.177 901.318 822.193 901.318 824.663C901.318 827.151 899.173 829.144 896.527 829.144H882.359L882.228 838.64C886.171 838.703 891.192 839.316 895.88 841.529C900.678 843.694 905.239 848.618 905.129 855.361C905.129 856.12 905.078 856.916 904.99 857.73C904.289 863.183 900.579 867.329 896.257 869.658C891.934 872.038 886.872 873.027 882.031 873.057C881.365 873.057 880.711 873.027 880.032 873.005C877.174 872.808 874.156 872.596 871.05 871.688C868.499 870.956 867.107 868.434 867.896 866.087ZM865.265 768.023C862.638 768.023 860.354 766.07 860.006 763.396C857.266 742.227 856.25 724.72 856.25 710.346C856.25 700.613 856.714 692.315 857.434 685.293H857.441C857.73 682.377 860.339 680.254 863.251 680.555C866.175 680.852 868.294 683.456 867.991 686.372C867.315 693.018 866.862 700.951 866.862 710.346C866.862 724.218 867.848 741.271 870.538 762.031C870.911 764.944 868.861 767.603 865.956 767.978L865.265 768.023ZM823.928 834.474C824.041 825.269 832.826 818.805 842.663 818.79C850.308 818.798 857.295 822.733 860.083 828.802L860.588 829.598C860.752 829.985 862.349 833.541 862.349 839.011C862.484 847.859 857.613 861.572 837.683 872.421C836.926 872.838 836.075 873.057 835.249 873.057C833.619 873.057 832.015 872.272 831.109 870.863C829.779 868.717 830.528 865.979 832.804 864.707C842.663 859.166 847.721 853.643 850.25 848.786C847.915 849.671 845.32 850.147 842.663 850.173C832.826 850.147 824.041 843.694 823.928 834.474ZM821.652 710.346C821.652 700.613 822.116 692.315 822.836 685.293C823.132 682.377 825.741 680.254 828.653 680.555C831.577 680.852 833.696 683.456 833.4 686.372C832.717 693.018 832.267 700.951 832.267 710.346C832.267 724.218 833.246 741.271 835.94 762.031C836.312 764.944 834.262 767.603 831.357 767.978L830.667 768.023C828.036 768.023 825.759 766.07 825.412 763.396C822.667 742.227 821.652 724.72 821.652 710.346ZM774.848 857.135C774.848 852.397 777.476 848.25 781.159 845.524L781.371 845.401C777.943 842.708 775.575 838.74 775.575 834.243C775.575 829.613 778.053 825.555 781.612 822.855C785.212 820.11 789.918 818.56 795.034 818.56C800.135 818.56 804.868 820.11 808.438 822.855C812.023 825.555 814.508 829.613 814.508 834.243C814.508 838.74 812.132 842.708 808.712 845.39L808.909 845.524C812.607 848.25 815.238 852.397 815.238 857.135C815.238 861.866 812.607 866.024 808.909 868.732C805.178 871.484 800.329 873.031 795.034 873.057C789.743 873.031 784.89 871.484 781.159 868.732C777.476 866.024 774.848 861.866 774.848 857.135ZM775.411 602.068L775.422 602.072C776.595 599.38 779.719 598.163 782.405 599.346C785.084 600.525 786.297 603.649 785.127 606.334L785.124 606.342L785.117 606.36L785.043 606.543C784.974 606.714 784.861 606.982 784.718 607.361C784.43 608.112 784.006 609.276 783.487 610.857C782.456 614.011 781.064 618.805 779.69 625.235C779.405 626.574 779.116 627.999 778.839 629.486C780.878 631.376 782.676 633.589 784.298 636.021C786.629 639.536 788.603 643.519 790.342 647.774C793.81 656.287 796.328 665.931 798.199 675.076C801.941 693.349 803.081 709.62 803.095 709.777C803.315 712.871 801.118 715.571 798.199 715.798L797.8 715.817C795.052 715.817 792.721 713.57 792.516 710.613L792.498 710.334C792.48 710.141 792.458 709.847 792.429 709.457C792.363 708.676 792.261 707.538 792.118 706.091C791.829 703.197 791.373 699.088 790.7 694.279C789.366 684.672 787.145 672.228 783.772 661.215C781.769 654.654 779.325 648.611 776.606 644.055C775.301 654.833 774.461 667.884 774.724 683.222C775.181 708.984 778.744 741.152 788.497 779.597C789.213 782.439 787.499 785.332 784.66 786.05C784.254 786.154 783.845 786.206 783.443 786.214C781.035 786.258 778.835 784.64 778.21 782.208C768.271 742.993 764.587 710.003 764.119 683.411C763.191 630.223 775.14 602.667 775.411 602.068ZM753.727 823.822C753.727 821.353 755.89 819.344 758.521 819.344C761.163 819.344 763.326 821.353 763.326 823.822V868.568C763.326 871.06 761.163 873.057 758.521 873.057C755.89 873.057 753.727 871.06 753.727 868.568V823.822ZM713.026 709.777C713.033 709.68 713.526 702.625 714.919 692.635C716.318 682.641 718.598 669.721 722.26 657.741C724.716 649.752 727.752 642.173 731.827 636.021C733.442 633.589 735.24 631.376 737.275 629.486C734.421 614.409 731.118 606.636 730.994 606.342C729.817 603.657 731.034 600.525 733.716 599.346C736.395 598.163 739.523 599.38 740.703 602.072C740.973 602.667 752.926 630.223 751.998 683.411C751.53 710.003 747.851 742.993 737.904 782.208C737.29 784.644 735.079 786.258 732.678 786.214C732.273 786.206 731.867 786.154 731.458 786.05C728.622 785.332 726.905 782.439 727.621 779.597C737.37 741.152 740.94 708.984 741.39 683.222C741.657 667.887 740.82 654.829 739.515 644.055C738.317 646.059 737.166 648.354 736.091 650.857C733.153 657.667 730.789 665.987 728.98 674.191C725.344 690.604 723.919 706.545 723.649 709.944C723.623 710.401 723.605 710.613 723.605 710.613C723.396 713.57 721.069 715.817 718.317 715.817L717.915 715.798C714.999 715.571 712.81 712.871 713.026 709.777ZM784.448 857.135C784.448 858.705 785.263 860.285 787.123 861.721C788.983 863.104 791.826 864.101 795.034 864.101C798.257 864.101 801.1 863.104 802.957 861.721C804.82 860.285 805.65 858.705 805.65 857.135C805.65 855.547 804.82 853.963 802.957 852.546C801.1 851.155 798.257 850.162 795.034 850.162H794.998C791.811 850.162 788.983 851.155 787.123 852.546C785.263 853.963 784.448 855.547 784.448 857.135ZM802.386 838.703C804.148 837.342 804.919 835.805 804.919 834.243C804.919 832.666 804.148 831.134 802.397 829.78C800.651 828.449 798.038 827.519 795.034 827.519H795.02C792.03 827.519 789.41 828.449 787.696 829.78C785.939 831.134 785.164 832.666 785.164 834.243C785.164 835.805 785.939 837.342 787.696 838.703C789.41 840.016 792.056 840.96 795.034 840.96C798.038 840.96 800.651 840.016 802.386 838.703ZM835.914 829.937C834.299 831.276 833.506 832.826 833.484 834.474C833.506 836.133 834.299 837.669 835.914 839C837.522 840.295 839.908 841.198 842.663 841.198C845.368 841.198 847.765 840.295 849.402 839C851.017 837.669 851.81 836.133 851.817 834.474C851.81 832.826 851.017 831.276 849.402 829.937C847.765 828.661 845.368 827.753 842.663 827.753H842.642C839.894 827.753 837.522 828.661 835.914 829.937ZM732.148 1051.73C731.933 1053.8 730.35 1058.11 733.91 1058.21C737.315 1058.3 737.202 1057.28 739.124 1053.87C740.623 1051.21 742.249 1049.81 743.582 1046.88C744.905 1043.95 745.494 1044.06 745.808 1043.12C746.115 1042.18 746.089 1040.86 746.791 1038.2C747.496 1035.56 748.633 1031.34 749.002 1029.82C749.378 1028.3 749.923 1027.14 750.661 1025.27C751.392 1023.39 753.146 1022.65 754.531 1022.4C754.998 1022.32 758.707 1022.7 759.179 1022.74L759.343 1023.25C759.511 1023.5 758.748 1023.42 764.466 1025.47C764.627 1025.53 764.357 1026.72 764.32 1027.26C764.225 1028.33 764.244 1029.46 763.937 1030.5C763.937 1030.5 760.896 1030.95 760.706 1031.88C760.509 1032.81 760.165 1033.56 761.302 1034.07C762.431 1034.57 763.103 1035.22 763.103 1035.22C763.103 1035.22 763.224 1036.3 762.888 1038.03C762.712 1038.92 762.457 1038.86 762.409 1039.07C762.351 1039.37 760.22 1039.46 759.851 1039.66C758.609 1040.34 758.506 1042.12 759.924 1043.81C760.454 1044.45 761.273 1043.92 761.488 1044.6C761.781 1045.55 760.553 1046.83 760.334 1047.1C759.57 1048.06 758.148 1049.56 756.281 1049.89C754.41 1050.22 752.51 1050.9 747.445 1049.71C746.707 1049.54 745.983 1050.21 745.537 1051.01C745.567 1051.58 745.545 1052.17 745.161 1052.9L745.282 1053.09C746.009 1053.81 747.043 1054.69 747.613 1055.7C748.176 1056.7 747.577 1057.19 749.59 1057.75C752.495 1058.55 753.237 1056.41 755.598 1057.13C757.951 1057.85 755.641 1059.49 755.375 1060.46C755.086 1061.47 753.712 1062.31 753.076 1063.11C751.424 1065.17 751.976 1068.47 752.912 1070.71C753.628 1072.42 755.199 1077.24 757.86 1076.15C758.905 1075.72 762.749 1072.16 763.984 1070.81C765.216 1069.45 765.833 1068.52 766.177 1067.31C766.509 1066.1 767.518 1055.69 768.453 1055.16C770.028 1054.27 772.769 1054.69 774.516 1054.51C777.64 1054.18 780.841 1053.68 783.925 1053.1C785.036 1052.9 786.129 1052.63 787.225 1052.38C788.588 1052.07 789.841 1051.4 791.205 1051.06C792.33 1050.77 793.898 1050.59 794.731 1049.68C795.451 1048.9 796.094 1048.36 796.189 1047.54C796.277 1046.72 795.772 1045.73 795.228 1045.13C794.446 1044.24 792.834 1044.26 791.786 1043.83C789.008 1042.7 786.615 1041.03 784.188 1039.3C783.242 1038.64 781.152 1037.81 780.589 1036.78C780.224 1036.91 780.589 1036.78 780.435 1037.35C780.435 1037.68 780.841 1038.57 781.601 1040.91C782.533 1043.81 783.764 1046.39 782.862 1046.65C780.435 1047.34 777.856 1047.25 775.4 1047.89C774.552 1048.12 773.938 1048.27 773.167 1048.51C772.385 1048.75 772.053 1048.92 771.194 1048.69C770.339 1048.45 769.433 1047.61 769.111 1046.48C768.789 1045.35 768.859 1044.84 770.006 1044.57C771.15 1044.3 773.92 1043.25 774.168 1041.88C774.406 1040.52 773.876 1040.53 773.346 1039.6C772.831 1038.68 770.28 1041.46 771.713 1036.58L771.961 1035.72L774.899 1035.54C775.148 1035.47 775.484 1035.4 775.985 1035.28C777.238 1034.99 780.099 1034.46 781.276 1033.61C781.616 1033.36 782.233 1031.7 782.325 1031.41C782.442 1031.04 782.942 1030.35 781.517 1029.6C780.092 1028.86 780.468 1029.72 778.703 1030.02C776.946 1030.31 772.911 1030.37 772.911 1030.37C772.911 1030.37 773.156 1029.1 773.28 1027.9L773.441 1026.94L773.481 1026.82C773.481 1026.82 773.978 1025.56 776.547 1023.74C779.16 1021.87 788.464 1020.23 791.592 1019.84C794.72 1019.44 800.019 1018.86 801.067 1018.79C802.12 1018.72 802.277 1017.37 801.648 1015.82C801.045 1014.33 799.887 1014.98 798.732 1015.16C797.34 1015.38 795.959 1014.93 794.563 1014.99C793.141 1015.05 791.72 1015.36 790.324 1015.58C788.38 1015.88 784.492 1016.71 783.249 1016.79C782.007 1016.87 780.158 1017.54 779.273 1017.72C778.396 1017.89 778.477 1017.57 779.463 1016.26C780.446 1014.96 782.891 1014.97 783.849 1014.99C784.813 1015.01 786.399 1014.33 788.146 1013.56C790.777 1012.42 792.915 1010.51 795.184 1008.8C796.361 1007.92 797.662 1007.13 798.787 1006.21C799.675 1005.48 800.592 1004.61 801.082 1003.55C801.626 1002.38 801.159 1001.7 800.665 1000.62C799.807 998.714 796.54 999.186 794.884 999.131C794.438 999.116 793.821 999.004 793.39 999.164C792.29 999.581 790.437 1001.61 789.056 1000.7C788.617 1000.42 789.359 997.84 789.633 996.297C789.907 994.749 788.402 993.377 786.925 991.61C785.456 989.836 783.648 986.653 781.057 985.979C778.469 985.303 776.478 990.204 775.831 991.949C775.4 993.12 775.122 994.355 774.684 995.534C774.271 996.631 773.598 997.572 773.112 998.628C772.279 1000.47 772.363 1004.61 769.677 1004.94C769.078 1005.02 768.848 1005.88 768.249 1006.48C767.642 1007.06 765.643 1007.81 765.899 1008.8C766.155 1009.79 768.34 1008.57 768.713 1008.61C769.093 1008.66 769.385 1009.77 769.447 1010.01C769.714 1011.06 768.815 1012.75 768.577 1013.77C768.165 1015.54 768.055 1017.55 767.342 1019.24C766.948 1020.18 761.474 1019.55 759.738 1019.63L759.351 1019.73L759.343 1019.73L759.171 1019.39C758.996 1018.83 756.899 1017.99 756.931 1017.41C757.041 1015.74 755.634 1014.76 754.728 1014.49C753.814 1014.23 752.367 1013.07 751.907 1012.63C751.45 1012.2 749.733 1011.3 749.005 1010.43C748.282 1009.57 749.305 1007.49 749.378 1006.77C749.469 1005.87 750.697 1004.76 751.249 1004.12C752.703 1002.41 755.32 1000.99 757.626 1001.15C759.285 1001.27 760.677 1001.6 761.923 1000.18C764.872 996.791 761.2 992.841 758.367 991.075C756.939 990.193 756.332 989.39 755.554 988.94C754.775 988.49 752.294 987.125 751.271 986.403C750.24 985.686 748.304 984.376 747.145 985.001C745.98 985.619 746.955 986.835 748.625 989.349C749.415 990.524 749.831 991.692 749.689 993.105C749.557 994.411 749.451 995.196 750.113 996.393C750.909 997.836 751.64 998.945 751.154 1000.65C750.646 1002.45 748.318 1006.1 747.77 1006.73C747.222 1007.35 746.356 1007.55 745.771 1008.13C743.371 1010.48 743.305 1012.98 744.226 1016C744.956 1018.41 744.792 1022.68 744.544 1024.6C744.291 1026.52 742.282 1030.84 741.613 1032.09C740.94 1033.33 739.486 1035.91 737.513 1040.33C735.55 1044.75 734.98 1045.57 734.491 1045.52C734.016 1045.47 732.737 1047.34 732.28 1048.07C731.739 1048.95 732.262 1050.73 732.148 1051.73ZM786.743 1005.8C787.817 1004.48 790.927 1004.22 790.927 1004.22C791.044 1005.8 788.581 1006.87 788.263 1007.09C787.941 1007.3 787.828 1007.75 787.59 1008.16C787.338 1008.57 786.238 1008.75 786.238 1008.75C786.238 1008.75 785.672 1007.12 786.743 1005.8ZM741.565 1037.63C741.638 1036.94 742.57 1035.42 744.003 1032.31C745.442 1029.22 748.169 1026.94 748.169 1026.94C748.066 1027.94 747.719 1027.98 747.558 1028.74C747.394 1029.49 742.899 1037.22 742.245 1037.77C741.587 1038.32 741.496 1038.31 741.565 1037.63ZM874.134 1041.43C875.212 1048.26 873.191 1052.46 869.61 1055.95C865.839 1059.59 860.251 1062.3 854.788 1065.77L854.558 1065.92L854.496 1066.19C854.474 1066.38 854.28 1066.72 854.412 1067.27L854.503 1067.62L854.858 1067.73C857.112 1068.34 859.992 1067.55 862.152 1067.3C862.941 1067.17 863.686 1067.02 864.421 1066.83C875.373 1063.99 881.45 1053.95 882.444 1045.35C882.659 1040.92 882.871 1036.53 883.116 1032.29C884.263 1031.12 885.4 1029.97 886.562 1028.96L886.591 1028.93L886.631 1028.89C887.72 1027.61 889.745 1026.01 891.744 1024.27L891.323 1023.79L891.758 1024.26C894.722 1021.47 898.467 1017.7 899.286 1014.76L899.319 1014.66L899.308 1014.55L899.257 1014.24C898.796 1012.84 897.265 1012.4 895.584 1011.96C893.881 1011.56 891.893 1011.33 890.373 1011.15C890.22 1011.14 886.989 1011.14 885.813 1011.15H885.736L885.656 1011.17L885.14 1011.64L885.133 1012.13C885.33 1012.73 885.813 1013.29 886.343 1014.06C886.85 1014.78 887.366 1015.6 887.464 1016.02L887.486 1016.21C887.388 1017.44 884.556 1020.53 882.937 1022.01C881.972 1014.67 884.691 1008.03 883.697 1000.57L883.66 1000.34L883.481 1000.18C881.197 998.223 873.995 995.586 870.231 996.304L869.957 996.363L869.811 996.613L869.657 997.219L869.65 997.29L869.595 997.383L869.588 997.542C869.537 998.506 869.687 999.462 869.935 1000.42C870.458 1002.44 871.4 1004.46 871.912 1006.47C872.102 1007.2 872.234 1007.92 872.281 1008.64C872.84 1016.05 873.812 1023.31 873.889 1030.45C870.377 1034.19 866.427 1037.87 861.903 1040.96C860.175 1042.26 857.558 1042.66 855.201 1044.19L854.872 1044.41L854.865 1044.42L854.215 1044.59L854.511 1045.29C855.976 1048.47 858.461 1053.18 862.323 1052.37L863.036 1052.11C865.247 1051.07 867.121 1049.37 868.861 1047.21C870.49 1045.18 872.204 1043.29 874.134 1041.43ZM885.813 1037.01C885.487 1037.9 885.509 1038.83 885.751 1039.74C887.033 1044.48 893.991 1049.4 896.417 1051.47C897.104 1051.98 897.576 1052.62 898.416 1053.26C899.026 1053.75 899.874 1054.26 900.985 1054.33C901.76 1054.38 902.476 1054.3 903.152 1054.12L903.181 1054.12C907.259 1053.03 909.576 1048.8 911.235 1047.05C911.626 1046.54 912.657 1045.73 913.578 1044.87C914.495 1043.98 915.427 1043.11 915.522 1041.92L915.551 1041.24L914.868 1041.25C913.614 1041.26 912.58 1041.37 911.403 1041.38L911.411 1042.03L911.367 1041.38C910.461 1041.44 909.598 1041.6 908.769 1041.82C906.985 1042.28 905.348 1042.96 903.693 1043.38C902.6 1043.66 901.497 1043.84 900.338 1043.79C899.249 1043.8 897.985 1043.42 896.648 1042.87C893.227 1041.56 889.814 1038.85 887.596 1036.59L887.336 1036.33L886.262 1036.6L885.933 1036.69L885.813 1037.01ZM941.982 960.194L941.372 960.566L942.271 961.105C943.641 961.913 945.106 962.846 946.488 963.672C949.864 966.201 954.194 969.306 956.562 973.13L956.584 973.174C956.99 973.833 957.447 974.48 957.838 975.112C958.565 976.302 958.956 977.329 958.528 978.329L958.514 978.363L958.481 978.381C955.082 978.165 951.932 975.595 947.438 978.325C946.933 978.638 946.411 979.017 945.863 979.475L945.717 979.601L945.669 979.794L945.728 980.531L945.845 980.687L945.954 980.81L946.108 980.866C949.148 981.888 954.724 984.812 956.888 987.835C957.286 988.505 957.615 989.319 958.101 990.104C958.514 990.792 959.076 991.469 959.943 991.93L960.041 991.99L960.151 992.005C961.455 992.202 962.753 992.403 964.05 992.607L964.382 992.659L964.616 992.41C965.194 991.737 965.124 990.911 964.993 990.097C964.514 987.646 963.049 984.28 964.861 981.963C966.111 981.371 967.244 981.799 968.833 981.621L968.965 981.602L969.071 981.531C969.433 981.26 969.524 981.078 969.659 981.007L969.992 980.795L969.959 980.408C969.867 979.426 969.685 978.377 969.601 977.459L969.586 977.351L969.546 977.254C969.246 976.596 968.958 975.718 968.559 974.855L969.078 973.55L971.508 967.629L971.87 967.48C972.319 967.692 973.08 968.213 973.365 968.715L973.533 969.291V969.332V969.377L973.518 969.37L972.882 970.24L972.561 970.608L972.922 971.136L973.072 971.356L973.35 971.4C973.931 971.467 974.472 971.277 974.899 971.144C975.608 971.954 976.175 972.709 977.059 973.457L977.096 973.494L977.147 973.52C978.111 974.007 979.77 974.431 979.756 974.643L979.734 974.647L979.697 974.747L979.686 974.844C979.602 976.771 977.26 980.791 975.433 983.543C975.162 984.09 974.936 984.518 974.706 984.789L974.658 984.841L974.622 984.897C970.755 991.77 966.831 998.506 962.906 1005.43C961.488 1008.35 956.259 1012.52 958.696 1016.85L958.97 1017.24L959.102 1017.41L959.31 1017.47C961.455 1018.01 963.652 1018.36 965.888 1018.51C967.32 1018.43 968.673 1017.71 969.246 1018L969.685 1018.16L969.97 1017.77C972.9 1013.82 971.826 1011.61 972.312 1010.18C974.413 1003.79 977.698 997.643 981.667 991.562C982.646 990.301 983.56 988.906 984.532 987.657C986.191 985.336 987.828 982.297 990.466 980.698L991.033 980.375L991.066 980.36C991.318 980.862 991.446 981.431 991.49 981.862C991.592 983.361 990.675 984.89 990.346 986.552C989.988 989.245 989.162 992.06 988.314 994.563C987.897 995.582 986.64 997.089 986.655 998.621C986.743 999.142 986.925 999.51 987.119 999.833C987.371 1000.24 987.645 1000.59 987.828 1000.89L988.073 1001.48L988.091 1001.61L988.106 1001.62L988.073 1001.72C987.591 1002.86 985.106 1005.58 984.338 1006.74C983.275 1008.74 982.135 1010.77 980.848 1012.53C977.951 1016.28 973.123 1019.32 972.133 1023.9L972.056 1024.24L972.312 1024.48C973.233 1025.29 975.29 1025.79 977.651 1026.08C980.001 1026.33 982.504 1026.29 984.104 1025.34L984.576 1025C986.491 1023.07 987.207 1020.36 987.872 1018.48C988.771 1016.01 991.296 1011.47 993.806 1008.98L994.431 1008.4C995.115 1008.95 995.838 1009.88 996.722 1010.68C997.504 1011.43 998.107 1012.16 998.542 1012.86C999.536 1014.5 999.635 1015.94 999.163 1017.4C998.597 1019.41 996.675 1021.44 994.256 1023.41C993.974 1023.63 993.646 1023.86 993.302 1024.07C992.147 1024.78 990.708 1025.42 989.429 1026.2C988.917 1026.52 988.431 1026.86 987.996 1027.25L987.66 1027.9L987.667 1028.02L987.492 1028.84L988.321 1028.79C990.62 1028.61 992.955 1027.52 994.954 1027.52C998.604 1027.46 1001.69 1027.33 1005.31 1027.27H1005.38L1005.45 1027.25L1006.12 1027.01L1006.14 1027L1006.53 1026.51C1007.69 1023.6 1007.37 1016.31 1004.86 1012.1C1004.56 1011.6 1004.21 1011.16 1003.84 1010.77C1001.99 1008.83 999.73 1007.01 998.444 1004.91L997.925 1003.92C997.961 1003.67 998.626 1002.67 999.383 1001.89C1000.18 1001.02 1001.11 1000.19 1001.34 1000.05L1005.84 997.282L1005.91 997.197C1007.42 995.237 1006.76 992.882 1006.9 991.32V991.272V991.209L1006.62 990.372C1006.1 989.535 1005.15 989.639 1005.1 989.602L1005.04 989.591L1004.98 989.595C1003.64 989.635 1002.44 990.134 1001.37 990.788C1000.63 991.253 999.935 991.785 999.295 992.324C998.59 992.919 998.034 993.433 997.475 993.931L991.881 997.371L991.851 997.364C991.669 997.33 991.219 996.947 991.011 996.583L990.872 996.289L990.857 996.248C991.541 993.894 994.179 991.581 995.491 988.851C995.696 988.442 996.054 987.88 996.324 987.359C997.468 984.235 998.243 981.256 999.229 978.34C999.635 976.96 1001.07 973.688 999.715 971.322C999.405 970.82 998.948 970.385 998.352 970.095C996.752 969.094 994.932 969.541 993.445 970.463C991.402 971.731 989.706 973.881 988.851 975.32C988.654 975.737 988.343 976.071 988.157 976.615C985.555 980.661 982.314 984.633 979.153 988.739C978.057 990.402 976.748 992.045 975.828 993.816C975.141 994.842 973.036 998.673 972.02 999.283H971.994C971.355 997.617 973.145 995.028 974.059 993.016L977.757 985.924L983.659 974.342C984.061 973.855 984.93 973.29 985.844 972.735C986.374 972.475 987.002 972.155 987.612 971.783C988.497 971.237 989.337 970.589 989.827 969.689C993.236 963.88 991.46 956.486 991.738 950.461C991.808 948.077 992.451 940.244 989.973 936.116C989.235 934.904 988.135 933.974 986.662 933.777C985.19 933.572 983.472 934.052 981.4 935.316L981.302 935.38L981.225 935.476C979.449 937.935 976.854 947.051 973.427 950.87C973.112 949.096 973.81 946.842 974.508 944.481C975.276 941.792 976.014 938.879 974.443 936.287L974.307 936.083L974.293 936.042C973.81 935.395 973.131 935.279 972.232 935.104C969.557 934.707 964.861 935.071 962.117 936.336L961.697 936.536L961.751 936.998C961.993 938.366 963.286 939.917 963.783 941.13L963.823 941.676L964.485 947.471C964.704 949.383 965.42 951.685 965.552 953.775C965.658 955.887 965.281 957.598 963.41 958.762C962.658 959.227 961.642 959.599 960.286 959.837C959.851 959.9 959.716 959.99 959.453 960.016C956.577 960.272 954.121 958.989 950.968 958.948C949.543 958.747 948.249 959.212 947.01 959.209C945.779 959.242 944.142 958.751 942.424 959.584L941.799 959.897L941.982 960.194ZM979.072 966.562L979.573 966.257L980.742 965.821L981.546 966.331C981.623 966.829 981.799 967.194 981.806 967.398C981.667 967.867 981.386 968.243 981.002 968.484C980.567 968.741 980.001 968.853 979.27 968.622C978.923 967.841 978.945 967.413 979.072 966.562ZM974.139 955.694L974.768 955.72C974.841 951.919 980.589 945.403 983.374 942.063C983.721 941.758 983.819 941.509 984.134 941.327C984.371 941.193 984.612 941.104 985.142 941.256C985.8 941.531 986.213 941.914 986.498 942.376C986.94 943.09 987.046 944.094 986.988 945.213C986.988 947.21 986.856 949.282 986.779 951.179V951.22L986.787 951.283C987.324 954.667 988.983 961.537 985.837 963.251L985.296 963.523C984.225 962.69 983.33 961.879 982.416 961.061L982.27 960.931L982.098 960.908C981.324 960.789 980.618 960.882 980.103 960.797C979.533 960.614 978.459 960.146 977.465 959.484C976.365 958.866 975.532 958.134 975.133 957.475L975.009 957.26L974.987 957.197L974.936 957.13L974.921 957.107C974.757 956.84 974.691 956.382 974.764 955.768L974.139 955.694ZM961.397 965.866C961.887 965.691 962.289 965.591 962.606 965.583C963.502 965.554 964.229 965.632 965.048 965.691C965.091 966.45 964.92 967.677 964.624 968.443L965.208 968.663L964.602 968.495L964.448 969.072C963.41 968.235 962.179 967.216 961.609 966.271L961.397 965.866Z" fill="white"/>
<path d="M897.877 3692.7V3642.32L828.121 3623.35C819.689 3621.18 809.226 3618.68 801.385 3616.82V3615.57C808.943 3613.71 819.689 3610.6 827.83 3608.1L897.877 3585.41V3532.85L767.664 3588.83C764.176 3590.39 762.136 3590.7 760.397 3590.7C758.657 3590.7 756.326 3589.76 754.004 3588.21C747.028 3583.86 731.152 3570.8 727.762 3552.48L689.502 3543.29C689.343 3566.27 697.617 3587.58 710.985 3603.76C725.228 3620.86 747.611 3635.48 804.29 3657.24L897.877 3692.7ZM813.879 3485.8H865.33V3519.7H897.877V3485.8H914.45V3439.46H897.877V3419.25H865.33V3439.46H807.195C787.142 3439.46 773.474 3443.82 765.05 3452.53C757.774 3460.3 752.838 3473.04 752.838 3488.29C752.838 3501.35 753.704 3508.48 755.743 3514.4L791.001 3523.33C790.118 3518.98 788.882 3510.99 788.882 3504.47C788.882 3490.46 796.74 3485.8 813.879 3485.8ZM937.408 3400.22C949.902 3399.9 959.5 3390.58 959.5 3375.35C959.5 3360.1 949.902 3350.15 937.408 3350.15C925.205 3350.15 915.316 3359.79 915.316 3374.71C915.316 3390.58 925.205 3400.22 937.408 3400.22ZM859.22 3260.4C866.195 3260.4 870.557 3266.93 870.557 3278.43C870.557 3291.17 865.904 3304.55 862.425 3311.39L892.932 3319.48C897.294 3310.16 901.365 3294.6 901.365 3276.88C901.365 3239.25 881.303 3214.99 854.575 3214.99C837.711 3214.68 821.72 3226.81 811.848 3258.53C806.321 3275.95 802.842 3280.61 795.274 3280.61C788.016 3280.61 783.654 3274.7 783.654 3260.4C783.654 3246.4 789.173 3228.35 794.118 3219.66L762.728 3211.26C756.918 3222.77 752.556 3240.49 752.556 3260.4C752.556 3303.93 772.026 3326.01 798.771 3326.01C819.397 3325.71 833.349 3313.89 842.655 3284.97C848.757 3266.3 852.253 3260.4 859.22 3260.4ZM859.776 3190.9L899.749 3201.03C900.34 3197.61 901.365 3191.58 901.365 3187.22C901.365 3172.29 892.65 3153.95 871.723 3146.18V3144.93L897.877 3143.06V3102.63C885.665 3103.56 872.014 3103.87 851.088 3103.87H755.743V3151.14H827.83C831.318 3151.14 834.806 3151.46 837.711 3152.08C851.37 3155.18 860.094 3167 860.094 3184.43C860.094 3189.72 860.359 3187.16 859.776 3190.9ZM812.713 3075.99C815.91 3076.6 822.603 3077.53 830.161 3077.53C865.33 3077.53 901.082 3058.88 901.082 3009.74C901.082 2956.87 861.26 2932.93 825.216 2932.93C780.749 2932.93 752.838 2962.47 752.838 3014.1C752.838 3034.62 755.743 3053.58 761.845 3069.15L791.787 3062.91C787.716 3050.17 785.685 3037.1 785.685 3020.94C785.685 2998.86 794.409 2979.26 812.713 2978.02V3075.99ZM842.947 3033.69V2977.7C854.575 2978.94 871.723 2987.04 871.723 3006.93C871.723 3028.71 853.701 3033.69 842.947 3033.69ZM755.743 2872.09L897.877 2928.69V2878.93L831.901 2859.35C819.689 2855.92 808.943 2853.43 797.305 2850.94V2850.01C808.652 2847.53 819.689 2845.04 831.901 2841.3L897.877 2820.77V2769.46L755.743 2824.82V2872.09ZM937.408 2752.46C949.902 2752.14 959.5 2742.82 959.5 2727.58C959.5 2712.34 949.902 2702.39 937.408 2702.39C925.205 2702.39 915.316 2712.03 915.316 2726.95C915.316 2742.82 925.205 2752.46 937.408 2752.46ZM755.743 2622.53V2669.8H839.741C881.603 2669.8 901.082 2646.47 901.082 2615.36C901.082 2589.87 887.413 2574.63 878.116 2568.41V2567.48L897.877 2565.3V2524.26C885.091 2524.87 870.266 2525.48 852.536 2525.48H755.743V2572.76H837.711C841.781 2572.76 845.852 2573.07 848.757 2574.32C856.898 2577.74 865.33 2585.52 865.33 2598.58C865.33 2615.68 852.827 2622.53 834.523 2622.53H755.743ZM841.781 2490.48H951.659V2443.21H839.167C804.29 2443.21 788.016 2429.52 788.016 2404.65C788.016 2380.7 805.155 2366.7 839.167 2366.7H951.659V2319.43H842.364C780.158 2319.43 752.556 2350.22 752.556 2403.09C752.556 2457.83 781.323 2490.48 841.781 2490.48ZM755.743 2171.22L755.743 2218.47H839.741C881.603 2218.47 901.082 2195.15 901.082 2164.06C901.082 2138.56 887.413 2123.32 878.116 2117.11V2116.18L897.877 2113.99V2072.94C885.091 2073.56 870.266 2074.19 852.536 2074.19H755.743V2121.46H837.711C841.781 2121.46 845.852 2121.76 848.757 2123.02C856.898 2126.43 865.33 2134.2 865.33 2147.27C865.33 2164.38 852.827 2171.22 834.523 2171.22H755.743ZM937.408 2041.41C949.902 2041.1 959.5 2031.77 959.5 2016.53C959.5 2001.29 949.902 1991.33 937.408 1991.33C925.205 1991.33 915.316 2000.98 915.316 2015.9C915.316 2031.77 925.205 2041.41 937.408 2041.41ZM937.408 1960.11C949.902 1959.81 959.5 1950.48 959.5 1935.24C959.5 1920 949.902 1910.06 937.408 1910.06C925.205 1910.06 915.316 1919.69 915.316 1934.61C915.316 1950.48 925.205 1960.11 937.408 1960.11ZM783.363 1911.6C762.551 1911.6 750.967 1910.24 743.611 1906.78C734.711 1901.82 729.89 1890.85 727.762 1879.35L689.502 1870.16C689.414 1881.84 694.209 1918.3 710.703 1937.41C722.985 1951.65 741.792 1958.87 772.608 1958.87H897.877V1911.6H783.363ZM755.743 1827.07V1874.34H839.741C881.603 1874.34 901.082 1851.03 901.082 1819.92C901.082 1794.42 887.413 1779.19 878.116 1772.96V1772.02L897.877 1769.86V1728.8C885.091 1729.42 870.266 1730.05 852.536 1730.05H755.743V1777.32H837.711C841.781 1777.32 845.852 1777.63 848.757 1778.87C856.898 1782.29 865.33 1790.07 865.33 1803.12C865.33 1820.24 852.827 1827.07 834.523 1827.07H755.743ZM755.743 1656.41V1699.01C763.593 1697.14 776.679 1696.51 790.047 1696.51H839.741C873.462 1696.51 901.365 1680.66 901.365 1629.97C901.365 1602.29 894.106 1581.46 888.579 1570.88L860.094 1579.58C865.904 1589.54 870.849 1606.03 870.849 1621.57C870.849 1644.89 860.094 1649.25 852.253 1649.25H850.505C850.505 1595.45 833.066 1559.99 796.149 1559.99C773.474 1559.99 752.556 1578.34 752.556 1609.14C752.556 1627.16 758.657 1642.72 769.995 1652.68V1653.61L755.743 1656.41ZM807.486 1650.8C804.872 1650.8 802.25 1650.5 799.928 1649.87C790.921 1646.76 783.654 1636.81 783.654 1625.3C783.654 1614.73 789.173 1606.64 800.511 1606.64C817.358 1606.64 822.894 1625.92 822.894 1650.8H807.486ZM937.408 1537.2C949.902 1536.9 959.5 1527.56 959.5 1512.32C959.5 1497.09 949.902 1487.13 937.408 1487.13C925.205 1487.13 915.316 1496.77 915.316 1511.71C915.316 1527.56 925.205 1537.2 937.408 1537.2ZM914.45 1410.57V1467.78H951.659V1306.7H914.45V1363.29H755.743V1410.57H914.45ZM897.877 1535.64V1488.37H755.743V1535.64H897.877ZM897.877 2039.85V1992.58H755.743V2039.85H897.877ZM897.877 2750.9V2703.63H755.743V2750.9H897.877ZM897.877 3398.66L897.877 3351.38H755.743V3398.66H897.877Z" fill="white"/>
</svg>
