<svg width="1642" height="4047" viewBox="0 0 1642 4047" fill="none" xmlns="http://www.w3.org/2000/svg">
<rect width="1641.8" height="4046.4" fill="#00468C"/>
<path d="M1230.3 748.699C1230.3 521.43 1046.07 337.199 818.801 337.199C591.529 337.199 407.301 521.43 407.301 748.699C407.301 975.969 591.529 1160.2 818.801 1160.2C1046.07 1160.2 1230.3 975.969 1230.3 748.699ZM1193.67 665.248L1213.16 687.187L1201.04 711.998L1217.69 736.136L1202.61 759.247L1216.13 785.281L1198.37 806.339L1208.58 833.821L1188.33 852.58L1195.16 881.114L1172.76 897.233L1176 926.366L1151.75 939.591L1151.4 968.958L1125.75 979.096L1121.77 1008.17L1095.08 1015.11L1087.55 1043.43L1060.22 1047.03L1049.3 1074.26L1021.72 1074.46L1007.52 1100.14L980.121 1096.95L962.869 1120.63L936.073 1114.1L916.04 1135.54L890.245 1125.76L867.713 1144.56L843.317 1131.68L818.702 1147.59L796.046 1131.82L769.677 1144.53L749.125 1126.11L721.361 1135.49L703.254 1114.68L674.539 1120.55L659.125 1097.71L629.913 1100.04L617.438 1075.43L588.127 1074.13L578.794 1048.18L549.893 1043.29L543.805 1016.39L515.693 1008.02L512.945 980.562L486.086 968.787L486.737 941.19L461.508 926.176L465.549 898.873L442.37 880.928L449.756 854.321L428.97 833.612L439.549 808.158L421.454 785.073L435.077 761.062L419.922 735.931L436.389 713.768L424.472 686.986L443.533 667.022L435.007 638.942L456.363 621.525L451.32 592.597L474.678 577.921L473.278 548.595L498.222 536.917L500.411 507.65L526.604 499.063L532.389 470.339L559.478 465.047L568.698 437.216L596.236 435.319L608.792 408.842L636.337 410.334L652.094 385.605L679.238 390.447L697.926 367.857L724.266 375.99L745.606 355.832L770.689 367.217L794.314 349.818L817.913 364.193L843.489 349.83L865.085 366.994L892.2 355.873L911.567 375.548L939.869 367.92L956.642 389.781L985.693 385.69L999.667 409.448L1028.98 408.954L1039.9 434.259L1069.07 437.354L1076.8 463.849L1105.35 470.484L1109.79 497.69L1137.32 507.81L1138.36 535.366L1164.44 548.777L1162.08 576.281L1186.37 592.79L1180.63 619.795L1202.65 639.146L1193.67 665.248ZM1201.87 688.735L1182.92 667.405L1191.63 642.066L1170.21 623.247L1175.78 597.041L1152.17 580.997L1154.46 554.296L1129.11 541.257L1128.1 514.508L1101.34 504.667L1097.03 478.272L1069.26 471.819L1061.76 446.094L1033.4 443.089L1022.8 418.527L994.306 419.007L980.742 395.948L952.487 399.924L936.215 378.706L908.695 386.122L889.909 367.042L863.543 377.858L842.583 361.199L817.719 375.157L794.814 361.21L771.837 378.129L747.485 367.083L726.747 386.665L701.186 378.769L683.009 400.738L656.67 396.033L641.347 420.089L614.624 418.635L602.411 444.383L575.684 446.228L566.724 473.277L540.421 478.417L534.797 506.341L509.382 514.672L507.251 543.143L483.035 554.482L484.394 582.994L461.738 597.231L466.638 625.356L445.911 642.267L454.196 669.558L435.702 688.935L447.285 714.973L431.305 736.482L446.039 760.917L432.818 784.229L450.413 806.682L440.149 831.388L460.357 851.513L453.194 877.332L475.726 894.775L471.802 921.285L496.333 935.883L495.7 962.665L521.814 974.109L524.481 1000.75L551.811 1008.89L557.727 1035.01L585.836 1039.77L594.891 1064.96L623.379 1066.22L635.486 1090.1L663.879 1087.83L678.847 1110.01L706.766 1104.29L724.342 1124.49L751.329 1115.38L771.277 1133.25L796.916 1120.89L818.896 1136.2L842.838 1120.72L866.521 1133.22L888.429 1114.95L913.456 1124.44L932.937 1103.59L958.948 1109.93L975.721 1086.91L1002.31 1090L1016.11 1065.03L1042.88 1064.84L1053.5 1038.37L1080.03 1034.87L1087.35 1007.34L1113.26 1000.6L1117.13 972.327L1142.01 962.494L1142.35 933.93L1165.89 921.095L1162.73 892.781L1184.48 877.142L1177.84 849.4L1197.5 831.18L1187.57 804.461L1204.8 784.02L1191.66 758.704L1206.29 736.281L1190.1 712.816L1201.87 688.735ZM1178.85 748.621C1178.85 947.513 1017.87 1108.75 819.287 1108.75C620.705 1108.75 459.721 947.513 459.721 748.621C459.721 549.722 620.705 388.487 819.287 388.487C1017.87 388.487 1178.85 549.722 1178.85 748.621ZM1076.52 919.73C1086.7 926.157 1095.64 928.266 1101.82 928.723C1103.28 926.44 1104.7 924.138 1106.11 921.824C1099.34 920.831 1090.73 917.964 1081.35 912.05C1071 905.523 1064.25 898.107 1060.63 892.037L1060.47 892.305C1059.15 894.511 1057.81 896.705 1056.44 898.877C1059.3 904.452 1065.19 912.515 1076.52 919.73ZM1086.74 890.498L1108.68 917.48C1110.63 914.133 1112.52 910.752 1114.36 907.338L1115 906.07L1105.57 897.218C1102.69 894.596 1100.4 892.417 1097.79 890.152L1097.86 890.033C1101.43 890.743 1104.26 891.29 1108.25 891.907L1121 894.172L1122.23 891.74C1123.74 888.545 1125.19 885.324 1126.61 882.074L1091.52 879.742L1072.38 870.09C1070.69 873.627 1068.91 877.123 1067.08 880.575L1086.74 890.498ZM1118.06 871.403L1129.43 875.379C1130.32 873.2 1131.18 871.009 1132.02 868.811L1138.62 849.936C1139.37 847.574 1140.09 845.198 1140.79 842.817L1129.43 838.849L1125.73 849.456L1086.17 835.632C1084.95 839.388 1083.65 843.111 1082.28 846.797L1121.83 860.617L1118.06 871.403ZM1090.36 821.469L1143.03 834.475L1145.87 823.005L1093.16 809.992C1092.31 813.845 1091.37 817.668 1090.36 821.469ZM1145.79 810.821C1147.79 808.158 1149.51 804.651 1150.27 799.422C1151.88 788.439 1146.4 781.722 1137.01 780.294C1129.13 779.093 1123.46 783.18 1119.23 790.064C1116.46 794.665 1114.69 796.376 1112.09 795.978C1109.4 795.565 1108.03 793.378 1108.61 789.372C1109.24 785.043 1111.53 780.967 1113.57 778.572L1102.15 774.589C1100.21 776.798 1097.74 781.64 1096.97 786.873C1095.12 799.593 1102.14 806.678 1111.29 808.073C1118.7 809.203 1124.34 806.432 1128.95 799.139C1132.27 794.033 1133.71 791.879 1136.39 792.285C1138.75 792.642 1140.06 794.821 1139.53 798.377C1138.89 802.769 1136.92 805.77 1135.62 807.489L1145.79 810.821ZM1150.09 767.258C1152.15 765.123 1153.97 763.375 1154.02 758.793C1154.07 754.877 1154.14 754.542 1154.16 752.411C1154.2 748.599 1154.17 744.798 1154.08 741.012C1153.97 739.974 1153.83 739.029 1153.68 738.185L1099.65 737.278C1099.8 741.164 1099.87 745.062 1099.87 748.978L1119.86 749.313L1119.83 751.206C1119.76 754.862 1118.35 756.472 1111.72 757.54C1105.64 758.603 1101.61 759.541 1099.63 760.177C1099.47 764.294 1099.21 768.385 1098.88 772.454C1101.11 771.639 1109.02 770.349 1114.62 769.084C1119.38 768.05 1122.91 766.544 1124.51 763.628L1124.84 763.636C1126.33 767.12 1131.16 771.319 1138.02 771.431C1143.4 771.52 1147.35 770.021 1150.09 767.258ZM1143.71 753.698C1143.55 757.614 1141.23 759.73 1137.07 759.656C1132.99 759.593 1130.26 756.997 1130.34 752.556L1130.39 749.484L1143.45 749.707C1143.6 750.295 1143.74 751.477 1143.71 753.698ZM1141.78 726.901L1153.4 725.584C1153.16 722.062 1152.86 718.563 1152.51 715.081L1151.4 705.344C1151.06 702.603 1150.66 699.87 1150.25 697.147L1096.22 703.299C1097.78 712.924 1098.86 722.713 1099.42 732.64L1111.14 731.308L1109.14 713.724L1119.2 712.582L1120.98 728.281L1132.83 726.938L1131.05 711.236L1139.88 710.224L1141.78 726.901ZM1093.53 689.017L1149.06 689.958C1148.33 685.878 1147.53 681.817 1146.67 677.789L1124.3 678.347C1118.28 678.473 1111.79 678.778 1104.95 679.306L1104.92 679.184C1111.57 676.48 1117.16 673.906 1122.77 671.057L1142.69 661.421L1142.47 660.506C1141.42 656.682 1140.32 652.885 1139.15 649.11L1090.15 675.133C1091.38 679.719 1092.51 684.346 1093.53 689.017ZM1086.12 661.599L1137.41 643.71C1136.17 639.957 1134.88 636.234 1133.52 632.545L1082.21 650.438C1083.59 654.127 1084.9 657.843 1086.12 661.599ZM1080.43 645.796L1129.62 622.522C1128.28 619.197 1126.87 615.89 1125.41 612.617L1113.65 618.166C1106.18 621.692 1099.36 625.211 1093.08 628.904L1092.99 628.729C1097.98 624.199 1103.54 618.758 1107.45 614.235L1119.8 600.634C1117.75 596.476 1115.61 592.355 1113.4 588.294L1064.21 611.565C1065.96 614.7 1067.65 617.873 1069.3 621.086L1080.9 615.589C1088.94 611.784 1096.42 608.11 1103.02 604.692L1103.11 604.87C1097.94 609.62 1092.53 615.362 1088.29 620.119L1075.5 634.055C1077.22 637.923 1078.88 641.835 1080.43 645.796ZM1083.71 594.356L1107.71 578.285C1105.73 574.923 1103.68 571.606 1101.58 568.325L1101.51 568.214L1075.57 585.515C1068.3 590.362 1063.43 590.86 1060.82 586.947C1058.24 583.091 1060.92 578.561 1067.84 573.941L1093.77 556.647C1091.52 553.415 1089.2 550.228 1086.82 547.078L1063.21 562.888C1048.48 572.718 1045.13 582.562 1051.84 592.615C1058.69 602.88 1069.58 603.777 1083.71 594.356ZM1056.18 531.301L1065.66 525.078C1065.01 522.486 1062.73 518.388 1058.51 514.2C1048.36 504.121 1033.92 502.544 1020.42 516.067C1014.84 521.687 1011.93 527.332 1011.4 533.707C1010.9 539.873 1013.17 545.928 1019.34 552.043C1023.42 556.093 1029.04 559.143 1032.33 560.456L1052.93 540.045L1040.69 527.898L1032.64 536.017L1036.81 540.149L1030.14 546.877C1029.6 546.683 1028.32 545.753 1027.2 544.645C1022.05 539.535 1022.5 531.583 1029.74 524.283C1037.62 516.342 1045.22 517.209 1050.37 522.315C1053.94 525.859 1055.34 528.627 1056.18 531.301ZM999.119 533.086L1031.12 489.08C1028.34 486.8 1025.53 484.565 1022.67 482.382L1015.1 492.792C1010.25 499.461 1005.95 505.817 1002.2 512.084L1002.05 511.965C1004.25 505.597 1006.51 498.155 1007.77 492.312L1012.05 474.568C1008.26 471.886 1004.41 469.29 1000.51 466.769L968.504 510.771C971.555 512.694 974.555 514.672 977.523 516.703L985.138 506.23C990.371 499.037 995.162 492.223 999.316 486.064L999.47 486.176C997.234 492.818 995.231 500.457 993.784 506.665L989.216 525.164C992.582 527.73 995.878 530.371 999.119 533.086ZM966.648 509.108L980.238 454.667C975.608 452.119 970.912 449.672 966.151 447.343L929.751 489.913C933.544 491.542 937.286 493.242 940.991 495.027L948.639 485.406L958.722 490.642L955.524 502.57C959.284 504.671 962.997 506.847 966.648 509.108ZM968.157 459.855C967.236 463.053 965.917 467.427 965.069 470.484L962.317 480.188L955.067 476.42L961.261 468.602C963.271 466.148 965.961 462.391 968.04 459.795L968.157 459.855ZM930.467 466.914L955.17 442.211C951.19 440.437 947.174 438.741 943.118 437.116L935.221 447.496C932.904 450.627 930.979 453.13 928.991 455.957L928.866 455.912C929.199 452.279 929.462 449.404 929.67 445.376L930.613 432.455L929.173 431.905C925.475 430.618 921.759 429.394 918.002 428.234L919.285 463.258L911.633 483.323C915.338 484.614 919.011 485.986 922.64 487.436L930.467 466.914ZM898.386 479.053L912.722 426.65C908.944 425.549 905.143 424.522 901.313 423.544L886.978 475.955C890.811 476.907 894.619 477.945 898.386 479.053ZM888.966 432.697L891.001 421.112C888.421 420.547 885.827 420.011 883.225 419.505L871.572 417.452C868.663 416.991 865.75 416.571 862.823 416.188L853.392 469.737C863.247 470.945 872.949 472.66 882.461 474.866L884.489 463.332L867.062 460.264L868.816 450.289L884.383 453.034L886.448 441.292L870.888 438.555L872.43 429.792L888.966 432.697ZM849.189 445.283C852.102 442.345 853.878 437.536 854.185 431.987C854.492 426.371 852.741 421.361 849.898 418.423C846.993 415.321 843.006 414.116 836.681 413.77C829.964 413.398 824.874 413.194 821.64 413.666L818.647 467.621H818.801C822.667 467.621 826.519 467.706 830.348 467.862L831.346 449.854C832.055 449.977 833.093 450.114 834.203 450.181C840.138 450.508 845.385 449.08 849.189 445.283ZM842.553 431.674C842.298 436.398 839.261 439.176 834.627 438.923C833.392 438.849 832.614 438.722 831.971 438.611L832.745 424.589C833.341 424.455 834.518 424.362 836.279 424.455C840.715 424.705 842.784 427.594 842.553 431.674ZM815.121 467.55C811.657 461.324 808.514 451.933 808.003 439.697C807.531 428.554 809.369 419.736 811.861 413.395C809.124 413.45 806.406 413.54 803.687 413.655C801.045 419.263 798.553 428.089 799.002 440.072C799.565 453.48 803.669 462.681 807.089 467.866C808.079 467.829 809.081 467.788 810.082 467.758L815.121 467.55ZM770.21 449.471L778.487 415.697C774.639 416.162 770.806 416.686 766.973 417.281L765.58 417.534L764.206 430.402C763.848 434.285 763.494 437.421 763.264 440.861L763.132 440.887C761.535 437.61 760.267 435.018 758.356 431.466L752.465 419.933L749.783 420.42C746.323 421.145 742.873 421.923 739.434 422.756L758.743 452.141L762.595 473.236C766.443 472.452 770.298 471.753 774.164 471.139L770.21 449.471ZM738.053 479.399L725.205 439.514L736.083 436.011L732.396 424.552C730.12 425.155 727.854 425.791 725.592 426.441L706.554 432.571C704.226 433.4 701.898 434.259 699.574 435.137L703.261 446.585L713.953 443.141L726.802 483.033C730.533 481.735 734.278 480.53 738.053 479.399ZM712.981 488.236L691.564 438.38L680.704 443.044L702.128 492.93C705.724 491.286 709.338 489.716 712.981 488.236ZM664.892 462.949C668.78 460.811 672.361 460.573 674.517 460.573L671.045 450.453C667.709 450.467 663.879 451.208 659.246 453.763C649.522 459.104 647.472 467.531 651.989 475.873C655.785 482.884 662.473 484.937 670.515 484.156C675.851 483.591 678.284 483.978 679.538 486.287C680.828 488.679 679.907 491.092 676.366 493.041C672.533 495.146 667.903 495.786 664.76 495.604L668.476 507.122C671.411 507.323 676.761 506.382 681.394 503.834C692.664 497.631 694.071 487.76 689.667 479.626C686.097 473.039 680.481 470.209 671.89 470.934C665.813 471.366 663.222 471.518 661.924 469.134C660.788 467.033 661.745 464.682 664.892 462.949ZM646.054 495.637C647.932 492.338 648.364 485.956 644.315 480.418C641.139 476.067 637.562 473.828 633.706 473.311C630.761 472.954 628.273 472.552 624.582 475.282C621.435 477.61 621.128 477.755 619.415 479.024C616.345 481.289 613.33 483.609 610.363 485.956C609.603 486.685 608.931 487.362 608.357 487.991L640.24 531.624C643.237 529.158 646.31 526.752 649.434 524.387L637.642 508.249L639.169 507.133C642.118 504.976 644.256 505.132 649.105 509.781C653.622 513.977 656.812 516.632 658.504 517.815C661.884 515.468 665.301 513.199 668.747 511.016C666.752 509.737 660.949 504.191 656.556 500.495C652.873 497.322 649.533 495.41 646.248 495.898L646.054 495.637ZM633.904 497.936L631.426 499.747L623.716 489.203C624.099 488.723 624.947 487.894 626.741 486.588C629.957 484.338 633.045 484.915 635.501 488.277C637.909 491.572 637.489 495.31 633.904 497.936ZM594.379 515.859L606.537 504.284L598.48 495.823C595.819 498.137 593.199 500.48 590.634 502.86L583.537 509.621C581.564 511.552 579.616 513.512 577.702 515.487L615.198 554.862C621.932 547.803 629.095 541.038 636.674 534.603L628.536 526.06L615.724 538.263L608.737 530.936L620.186 520.035L611.967 511.407L600.519 522.308L594.379 515.859ZM605.445 565.629L572.695 520.775C569.87 523.818 567.115 526.901 564.422 530.025L578.367 547.524C582.098 552.247 586.252 557.231 590.806 562.371L590.722 562.475C584.553 558.8 579.127 555.896 573.47 553.14L553.77 543.072L553.178 543.801C550.755 546.94 548.391 550.12 546.092 553.326L596.408 576.701C599.316 572.945 602.327 569.255 605.445 565.629ZM588.047 588.078L542.825 557.967C540.582 561.214 538.397 564.495 536.281 567.808L581.509 597.923C583.61 594.605 585.788 591.317 588.047 588.078ZM578.878 602.14L530.628 576.958C528.797 580.041 527.01 583.161 525.274 586.297L536.803 592.337C544.119 596.156 551.037 599.477 557.779 602.256L557.691 602.43C551.069 601.181 543.37 600.039 537.406 599.648L519.106 598.001C517.023 602.148 515.031 606.332 513.128 610.553L561.371 635.743C562.807 632.448 564.32 629.183 565.891 625.939L554.504 620C546.615 615.879 539.175 612.141 532.469 608.935L532.557 608.76C539.46 610.006 547.302 610.858 553.664 611.379L572.487 613.168C574.53 609.452 576.66 605.778 578.878 602.14ZM535.875 630.57L508.574 621.127C507.098 624.731 505.684 628.372 504.332 632.024L504.288 632.147L533.737 642.401C541.985 645.268 545.329 648.85 543.783 653.294C542.255 657.675 537.034 658.274 529.17 655.537L499.735 645.294C498.525 649.051 497.374 652.822 496.296 656.615L523.147 665.906C539.88 671.723 549.75 668.45 553.722 657.039C557.775 645.38 551.914 636.149 535.875 630.57ZM544.36 687.727L490.577 679.477C489.839 682.981 489.156 686.51 488.531 690.062L501.321 692.026C509.477 693.279 517.1 694.183 524.379 694.641L524.346 694.834C517.681 695.79 510.029 697.196 504.259 698.754L486.499 703.094C485.878 707.676 485.348 712.288 484.913 716.926L538.703 725.186C538.999 721.586 539.361 718.008 539.796 714.449L527.006 712.485C518.211 711.135 509.959 710.001 502.578 709.131L502.607 708.937C509.543 707.888 517.235 706.166 523.425 704.601L541.901 700.193C542.628 696.006 543.447 691.851 544.36 687.727ZM538.254 731.375L483.985 729.159C483.758 733.079 483.601 737.013 483.514 740.963L537.783 743.187C537.859 739.23 538.013 735.295 538.254 731.375ZM516.482 749.834L483.433 751.124C483.462 755.078 483.557 759.02 483.722 762.94L516.924 761.642C524.353 761.356 526.528 763.755 526.666 767.541C526.74 769.434 526.407 771.271 525.979 772.729L537.615 773.581C538.411 771.331 538.696 768.113 538.601 765.7C538.207 755.13 532.144 749.22 516.482 749.834ZM538.992 775.537L485.304 784.415C485.681 788 486.115 791.574 486.609 795.122L499.351 793.014C507.489 791.671 515.013 790.157 522.08 788.335L522.11 788.524C516.065 791.507 509.232 795.219 504.233 798.496L488.699 808.151L488.929 809.549C489.682 813.659 490.511 817.742 491.41 821.8L545.098 812.922C544.284 809.434 543.531 805.912 542.847 802.371L530.127 804.476C521.346 805.927 513.153 807.414 505.867 808.887L505.834 808.69C512.097 805.54 518.879 801.504 524.273 798.094L540.472 788.153C539.888 783.976 539.394 779.769 538.992 775.537ZM545.979 816.578L497.827 846.239C499.358 851.282 500.999 856.273 502.764 861.209L558.966 856.076C557.395 852.279 555.904 848.437 554.497 844.554L542.339 846.087L538.791 835.29L549.37 829.03C548.146 824.917 547.013 820.766 545.979 816.578ZM531.457 848.013L521.554 849.27C518.401 849.616 513.862 850.423 510.555 850.821L510.511 850.698C513.409 849.054 517.41 846.849 520.158 845.265L528.906 840.255L531.457 848.013ZM560.158 858.922L510.661 881.304C512.218 884.922 513.847 888.515 515.525 892.074L565.029 869.696C563.337 866.14 561.714 862.551 560.158 858.922ZM529.082 892.521L518.612 898.419C523.769 908.74 529.444 918.749 535.601 928.433L546.027 922.557L540.509 912.772L577.044 892.156C575.03 888.768 573.09 885.343 571.215 881.873L534.695 902.473L529.082 892.521ZM604.407 984.199C602.075 985.873 607.52 993.642 612.716 996.432C616.086 998.243 620.898 997.499 624.498 996.993C629.471 996.294 634.656 995.532 638.943 992.716C642.495 990.38 645.824 987.625 649.08 984.906C650.647 983.593 652.208 982.287 653.735 980.934C657.444 977.664 662.451 973.707 662.451 973.707C662.451 973.707 654.7 989.06 651.725 996.446C648.751 1003.83 647.735 1014.73 650.07 1017.97C652.405 1021.2 659.158 1021.02 660.412 1021.46C661.661 1021.9 668.246 1024.07 671.667 1025.27C675.091 1026.46 676.044 1023.87 674.564 1022.81C673.092 1021.74 672.653 1021.38 669.719 1019.41C666.781 1017.45 662.838 1014.21 662.615 1013.58C662.388 1012.97 662.451 1009.49 662.604 1006.98C662.758 1004.47 663.021 991.623 663.667 987.61C664.318 983.597 667.216 973.8 667.216 973.8C667.216 973.8 671.634 973.603 678.186 974.734C684.749 975.857 686.174 974.83 687.069 974.094C687.964 973.365 688.915 972.383 686.273 971.68C683.62 970.97 679.308 967.292 678.949 967.002C678.606 966.711 677.956 965.889 676.666 965.856C675.368 965.823 674.499 964.532 674.499 964.532C674.499 964.532 674.192 963.68 674.912 962.806C675.631 961.929 675.328 958.894 675.328 958.894C676.596 961.107 683.777 962.01 686.813 961.713C689.846 961.412 695.715 961.229 698.09 960.835C700.466 960.441 701.365 962.207 704.737 960.419C706.901 959.28 705.384 960.303 707.5 958.935C709.616 957.562 709.159 956.908 708.494 955.651C707.829 954.397 705.669 953.757 703.853 952.694C702.044 951.626 699.665 950.388 698.598 949.796C697.528 949.205 698.036 949.618 694.886 949.149C691.728 948.688 687.844 947.055 683.927 945.966C680.016 944.88 678.368 943.954 677.524 943.254C676.684 942.566 676.212 941.756 674.038 942.514C672.613 943.013 672.661 944.515 672.843 945.757C673.059 947.275 672.913 948.223 672.821 949.737C672.741 950.983 673.64 951.998 673.399 953.296C673.399 953.296 672.62 952.519 671.283 951.563C669.949 950.607 668.827 952.66 667.998 953.676C667.168 954.684 664.687 957.886 663.605 958.689C662.52 959.492 661.427 960.999 660.317 962.353C659.209 963.699 655.482 966.819 655.482 966.819C653.169 967.128 636.495 964.744 633.63 964.301C630.761 963.859 628.62 958.432 628.62 958.432C625.302 959.664 623.738 965.997 623.913 969.136C624.015 971.007 624.556 973.194 625.404 974.871C626.811 977.635 631.474 979.271 636.242 978.468C641 977.679 648.243 975.109 648.243 975.109C645.214 979.524 642.634 981.949 631.773 987.863C620.913 993.772 616.173 989.886 612.969 988.428C609.764 986.97 605.839 983.165 604.407 984.199ZM669.101 968.705C669.883 967.228 671.922 966.451 671.922 966.451L672.617 966.15C674.612 966.659 674.32 969.226 673.793 969.017C673.384 968.861 669.101 968.705 669.101 968.705ZM671.667 835.338C718.211 918.116 792.055 955.554 810.517 964.208L818.801 967.489L827.085 964.208C845.546 955.554 919.387 918.116 965.953 835.338C986.37 798.778 994.113 759.652 995.11 723.397L995.132 722.642H995.147L995.589 706.624C995.589 706.624 975.209 700.368 969.129 696.311C959.821 690.111 957.249 682.784 961.765 673.311C966.074 664.262 990.608 656.653 990.608 656.653L986.501 638.019C986.231 636.814 985.957 635.613 985.679 634.419H985.672C975.571 590.641 961.331 560.991 960.826 559.924L952.561 542.719L935.44 548.762C924.956 552.485 914.597 553.999 904.584 553.999C866.474 554.337 832.614 523.189 831.09 521.809L818.801 512.359L806.493 521.809H806.515C804.988 523.189 771.131 554.337 733.021 553.999C723.001 553.999 712.66 552.485 702.15 548.762L685.041 542.719L676.768 559.924C676.256 561.013 661.241 592.273 651.104 638.019L647 656.653C647 656.653 671.528 664.262 675.843 673.311C680.356 682.784 677.784 690.111 668.484 696.311C662.399 700.368 642.02 706.624 642.02 706.624L642.48 723.397C643.496 759.652 651.232 798.778 671.667 835.338ZM681.727 828.811C662.557 794.494 655.197 757.648 654.225 723.014L654.02 715.569L660.569 713.136C670.201 709.577 678.032 704.247 683.141 698.408C688.293 692.532 690.68 686.51 690.683 680.578C690.683 680.229 690.68 679.887 690.654 679.578C690.398 674.538 688.491 669.726 684.69 664.991C680.894 660.305 675.167 655.905 667.969 652.591L660.729 649.229L662.549 640.935C672.335 596.684 686.982 566.231 687.201 565.748L690.888 558.09L698.489 560.79C710.285 564.974 721.894 566.644 733.054 566.644H733.321C774.837 566.644 809.537 535.016 813.064 532.312L813.334 532.108L818.801 527.939L824.264 532.108L824.564 532.312C828.068 535.02 862.922 566.793 904.569 566.644C915.708 566.644 927.31 564.974 939.124 560.79L946.714 558.09L950.401 565.748C950.616 566.205 963.87 593.768 973.583 634.531C973.803 635.423 974.011 636.32 974.223 637.224C974.303 637.577 974.384 637.934 974.468 638.287C974.585 638.819 974.701 639.347 974.822 639.883C974.906 640.232 974.983 640.582 975.056 640.935L975.904 644.792L976.872 649.229L969.633 652.591C962.438 655.905 956.715 660.305 952.922 664.991C949.118 669.726 947.211 674.538 946.959 679.578C946.937 679.887 946.922 680.229 946.922 680.578C946.937 686.51 949.316 692.532 954.464 698.408C959.577 704.247 967.411 709.577 977.04 713.136L983.585 715.569L983.428 721.672L983.384 723.014C982.397 757.648 975.056 794.494 955.864 828.811C911.604 907.833 839.769 944.556 822.484 952.571L818.801 953.772L815.121 952.571C797.84 944.556 726.005 907.833 681.727 828.811ZM663.624 722.706C664.563 756.045 671.608 791.046 689.788 823.6C732.239 899.624 802.477 935.768 818.808 943.262C818.808 943.262 895.127 917.927 947.777 823.6C965.975 791.046 973.017 756.045 973.978 722.706C951.654 714.457 936.628 697.683 937.538 679.05C938.251 663.864 949.392 650.918 965.891 643.297C956.386 600.232 942.029 570.408 942.029 570.408C877.824 593.129 818.808 540.342 818.808 540.342C818.808 540.342 759.73 593.129 695.554 570.408C695.554 570.408 681.197 600.232 671.696 643.297C688.173 650.918 699.322 663.864 700.042 679.05C700.897 697.683 685.889 714.457 663.624 722.706ZM835.994 639.909C835.994 646.622 835.223 652.725 834.196 658.642C833.747 661.22 831.503 663.039 828.978 663.039L828.053 662.957C825.166 662.455 823.23 659.706 823.734 656.82C824.706 651.226 825.375 645.815 825.375 639.909C825.367 631.079 823.898 621.034 819.385 607.611C818.45 604.829 819.948 601.817 822.718 600.883C825.495 599.946 828.51 601.441 829.446 604.223C834.258 618.486 835.998 629.845 835.994 639.909ZM853.289 639.161C853.289 645.049 852.668 650.475 851.791 655.89C850.914 661.309 849.792 666.721 848.74 672.72C846.979 682.814 845.371 694.871 845.371 712.024C845.371 729.222 847.001 751.526 851.835 781.789C852.296 784.686 850.326 787.409 847.428 787.874L846.595 787.941C844.03 787.941 841.768 786.073 841.355 783.466C836.454 752.772 834.755 729.902 834.755 712.024C834.755 694.217 836.454 681.344 838.289 670.89C839.378 664.694 840.485 659.297 841.311 654.198C842.14 649.092 842.674 644.294 842.674 639.161C842.667 630.652 841.209 621.075 836.681 607.611C835.745 604.829 837.244 601.817 840.021 600.883C842.798 599.946 845.806 601.441 846.748 604.223C851.546 618.449 853.297 629.365 853.289 639.161ZM870.592 639.909C870.592 646.622 869.821 652.725 868.794 658.642C868.338 661.22 866.098 663.039 863.569 663.039L862.648 662.957C859.765 662.455 857.828 659.706 858.329 656.82C859.304 651.226 859.973 645.815 859.973 639.909C859.966 631.079 858.5 621.034 853.98 607.611C853.045 604.829 854.547 601.817 857.32 600.883C860.097 599.946 863.105 601.441 864.04 604.223C868.853 618.486 870.6 629.845 870.592 639.909ZM901.646 788.186C898.715 788.186 896.336 785.806 896.336 782.882V717.543H879.615C876.614 717.543 874.173 715.171 874.173 712.236C874.173 709.305 876.614 706.929 879.615 706.929H896.336V686.298H879.615C876.614 686.298 874.173 683.918 874.173 680.984C874.173 678.053 876.614 675.68 879.615 675.68H896.336V654.942H879.615C876.614 654.942 874.173 652.565 874.173 649.635C874.173 646.704 876.614 644.324 879.615 644.324H886.196C886.316 642.609 886.397 640.88 886.397 639.109C886.393 630.789 884.943 621.35 880.404 607.749C879.468 604.948 880.963 601.91 883.74 600.969C886.525 600.024 889.532 601.527 890.464 604.331C895.255 618.665 897.016 629.458 897.016 639.109C897.016 640.891 896.943 642.62 896.833 644.324H906.126C906.017 642.62 905.951 640.891 905.951 639.109C905.943 629.458 907.701 618.665 912.492 604.331C913.431 601.527 916.446 600.024 919.219 600.969C921.996 601.91 923.495 604.948 922.556 607.749C918.024 621.35 916.57 630.789 916.57 639.109C916.57 640.88 916.639 642.609 916.764 644.324H923.352C926.352 644.324 928.786 646.704 928.786 649.635C928.786 652.565 926.352 654.942 923.352 654.942H906.952V675.68H923.352C926.352 675.68 928.786 678.053 928.786 680.984C928.786 683.918 926.352 686.298 923.352 686.298H906.952V706.929H923.352C926.352 706.929 928.786 709.305 928.786 712.236C928.786 715.171 926.352 717.543 923.352 717.543H906.952V782.882C906.952 785.806 904.584 788.186 901.646 788.186ZM863.697 867.587C864.486 865.211 867.194 863.905 869.697 864.645C871.411 865.159 873.731 865.389 876.461 865.549C876.903 865.579 877.375 865.579 877.831 865.579C881.201 865.605 884.756 864.809 887.19 863.444C889.646 862.02 890.917 860.48 891.261 858.129C891.312 857.676 891.341 857.244 891.341 856.861C891.209 853.659 889.978 852.469 887.274 850.992C884.603 849.668 880.565 849.099 877.685 849.11C876.384 849.11 875.288 849.229 874.901 849.315V849.304C873.432 849.828 871.765 849.642 870.468 848.809C869.156 847.954 868.367 846.581 868.396 845.06L868.612 826.126C868.677 823.682 870.801 821.677 873.417 821.677H892.328C894.973 821.677 897.118 823.693 897.118 826.163C897.118 828.651 894.973 830.644 892.328 830.644H878.16L878.029 840.14C881.972 840.203 886.993 840.816 891.681 843.029C896.479 845.194 901.039 850.118 900.93 856.861C900.93 857.62 900.879 858.416 900.791 859.23C900.089 864.683 896.38 868.829 892.057 871.158C887.734 873.538 882.673 874.527 877.831 874.557C877.166 874.557 876.512 874.527 875.832 874.505C872.975 874.308 869.956 874.096 866.85 873.188C864.3 872.456 862.907 869.934 863.697 867.587ZM861.066 769.523C858.438 769.523 856.154 767.57 855.807 764.896C853.067 743.727 852.051 726.22 852.051 711.846C852.051 702.113 852.515 693.815 853.235 686.793H853.242C853.531 683.877 856.14 681.754 859.052 682.055C861.976 682.352 864.095 684.956 863.792 687.872C863.116 694.518 862.663 702.451 862.663 711.846C862.663 725.718 863.649 742.771 866.339 763.531C866.712 766.444 864.661 769.103 861.756 769.478L861.066 769.523ZM819.729 835.974C819.842 826.769 828.627 820.305 838.464 820.29C846.109 820.298 853.096 824.233 855.884 830.302L856.388 831.098C856.553 831.485 858.15 835.041 858.15 840.511C858.285 849.359 853.414 863.072 833.484 873.921C832.727 874.338 831.876 874.557 831.05 874.557C829.42 874.557 827.816 873.772 826.91 872.363C825.579 870.217 826.329 867.479 828.605 866.207C838.464 860.666 843.522 855.143 846.05 850.286C843.715 851.171 841.121 851.647 838.464 851.673C828.627 851.647 819.842 845.194 819.729 835.974ZM817.452 711.846C817.452 702.113 817.916 693.815 818.636 686.793C818.932 683.877 821.541 681.754 824.454 682.055C827.377 682.352 829.497 684.956 829.201 687.872C828.517 694.518 828.068 702.451 828.068 711.846C828.068 725.718 829.047 742.771 831.74 763.531C832.113 766.444 830.063 769.103 827.158 769.478L826.467 769.523C823.836 769.523 821.56 767.57 821.213 764.896C818.468 743.727 817.452 726.22 817.452 711.846ZM770.649 858.635C770.649 853.897 773.276 849.75 776.96 847.024L777.172 846.901C773.744 844.208 771.376 840.24 771.376 835.743C771.376 831.113 773.854 827.055 777.413 824.355C781.012 821.61 785.719 820.06 790.835 820.06C795.936 820.06 800.668 821.61 804.239 824.355C807.823 827.055 810.308 831.113 810.308 835.743C810.308 840.24 807.933 844.208 804.513 846.89L804.71 847.024C808.408 849.75 811.039 853.897 811.039 858.635C811.039 863.366 808.408 867.524 804.71 870.232C800.979 872.984 796.13 874.531 790.835 874.557C785.544 874.531 780.691 872.984 776.96 870.232C773.276 867.524 770.649 863.366 770.649 858.635ZM771.212 603.568L771.223 603.572C772.396 600.88 775.52 599.663 778.206 600.846C780.884 602.025 782.098 605.149 780.928 607.834L780.925 607.842L780.917 607.86L780.844 608.043C780.775 608.214 780.662 608.482 780.519 608.861C780.23 609.612 779.806 610.776 779.288 612.357C778.257 615.511 776.865 620.305 775.491 626.735C775.206 628.074 774.917 629.499 774.639 630.986C776.678 632.876 778.476 635.089 780.099 637.521C782.43 641.036 784.403 645.019 786.143 649.274C789.611 657.787 792.129 667.431 793.999 676.576C797.741 694.849 798.882 711.12 798.896 711.277C799.115 714.371 796.919 717.071 793.999 717.298L793.601 717.317C790.853 717.317 788.522 715.07 788.317 712.113L788.299 711.834C788.281 711.641 788.259 711.347 788.229 710.957C788.164 710.176 788.061 709.038 787.919 707.591C787.63 704.697 787.173 700.588 786.501 695.779C785.167 686.172 782.945 673.728 779.573 662.715C777.57 656.154 775.125 650.111 772.407 645.555C771.102 656.333 770.262 669.384 770.525 684.722C770.981 710.484 774.544 742.652 784.297 781.097C785.014 783.939 783.3 786.832 780.461 787.55C780.055 787.654 779.646 787.706 779.244 787.714C776.836 787.758 774.636 786.14 774.011 783.708C764.071 744.493 760.388 711.503 759.92 684.911C758.992 631.723 770.941 604.167 771.212 603.568ZM749.527 825.322C749.527 822.853 751.691 820.844 754.322 820.844C756.964 820.844 759.127 822.853 759.127 825.322V870.068C759.127 872.56 756.964 874.557 754.322 874.557C751.691 874.557 749.527 872.56 749.527 870.068V825.322ZM708.827 711.277C708.834 711.18 709.327 704.125 710.719 694.135C712.119 684.141 714.399 671.221 718.061 659.241C720.516 651.252 723.553 643.673 727.628 637.521C729.243 635.089 731.041 632.876 733.076 630.986C730.222 615.909 726.919 608.136 726.794 607.842C725.618 605.157 726.835 602.025 729.517 600.846C732.195 599.663 735.323 600.88 736.504 603.572C736.774 604.167 748.727 631.723 747.799 684.911C747.331 711.503 743.651 744.493 733.705 783.708C733.091 786.144 730.88 787.758 728.479 787.714C728.073 787.706 727.668 787.654 727.258 787.55C724.423 786.832 722.705 783.939 723.422 781.097C733.171 742.652 736.741 710.484 737.191 684.722C737.457 669.387 736.621 656.329 735.316 645.555C734.117 647.559 732.966 649.854 731.892 652.357C728.954 659.167 726.59 667.487 724.781 675.691C721.145 692.104 719.72 708.045 719.449 711.444C719.424 711.901 719.406 712.113 719.406 712.113C719.197 715.07 716.87 717.317 714.118 717.317L713.716 717.298C710.8 717.071 708.611 714.371 708.827 711.277ZM780.249 858.635C780.249 860.205 781.063 861.785 782.923 863.221C784.783 864.604 787.626 865.601 790.835 865.601C794.058 865.601 796.901 864.604 798.757 863.221C800.621 861.785 801.45 860.205 801.45 858.635C801.45 857.047 800.621 855.463 798.757 854.046C796.901 852.655 794.058 851.662 790.835 851.662H790.798C787.612 851.662 784.783 852.655 782.923 854.046C781.063 855.463 780.249 857.047 780.249 858.635ZM798.187 840.203C799.949 838.842 800.72 837.305 800.72 835.743C800.72 834.166 799.949 832.634 798.198 831.28C796.451 829.949 793.839 829.019 790.835 829.019H790.82C787.831 829.019 785.211 829.949 783.497 831.28C781.74 832.634 780.965 834.166 780.965 835.743C780.965 837.305 781.74 838.842 783.497 840.203C785.211 841.516 787.857 842.46 790.835 842.46C793.839 842.46 796.451 841.516 798.187 840.203ZM831.715 831.437C830.1 832.776 829.307 834.326 829.285 835.974C829.307 837.633 830.1 839.169 831.715 840.5C833.323 841.795 835.709 842.698 838.464 842.698C841.168 842.698 843.566 841.795 845.203 840.5C846.818 839.169 847.611 837.633 847.618 835.974C847.611 834.326 846.818 832.776 845.203 831.437C843.566 830.161 841.168 829.253 838.464 829.253H838.442C835.694 829.253 833.323 830.161 831.715 831.437ZM727.949 1053.23C727.734 1055.3 726.151 1059.61 729.71 1059.71C733.116 1059.8 733.003 1058.78 734.925 1055.37C736.423 1052.71 738.049 1051.31 739.383 1048.38C740.706 1045.45 741.294 1045.56 741.609 1044.62C741.916 1043.68 741.89 1042.36 742.592 1039.7C743.297 1037.06 744.433 1032.84 744.803 1031.32C745.179 1029.8 745.723 1028.64 746.462 1026.77C747.192 1024.89 748.946 1024.15 750.331 1023.9C750.799 1023.82 754.508 1024.2 754.98 1024.24L755.144 1024.75C755.312 1025 754.548 1024.92 760.267 1026.97C760.428 1027.03 760.158 1028.22 760.121 1028.76C760.026 1029.83 760.044 1030.96 759.737 1032C759.737 1032 756.697 1032.45 756.507 1033.38C756.31 1034.31 755.966 1035.06 757.103 1035.57C758.232 1036.07 758.904 1036.72 758.904 1036.72C758.904 1036.72 759.025 1037.8 758.689 1039.53C758.513 1040.42 758.257 1040.36 758.21 1040.57C758.151 1040.87 756.021 1040.96 755.652 1041.16C754.409 1041.84 754.307 1043.62 755.725 1045.31C756.255 1045.95 757.073 1045.42 757.289 1046.1C757.581 1047.05 756.354 1048.33 756.134 1048.6C755.371 1049.56 753.949 1051.06 752.082 1051.39C750.211 1051.72 748.311 1052.4 743.246 1051.21C742.508 1051.04 741.784 1051.71 741.338 1052.51C741.367 1053.08 741.346 1053.67 740.962 1054.4L741.082 1054.59C741.81 1055.31 742.844 1056.19 743.414 1057.2C743.977 1058.2 743.377 1058.69 745.391 1059.25C748.296 1060.05 749.038 1057.91 751.398 1058.63C753.752 1059.35 751.442 1060.99 751.175 1061.96C750.887 1062.97 749.513 1063.81 748.877 1064.61C747.225 1066.67 747.777 1069.97 748.713 1072.21C749.429 1073.92 751 1078.74 753.66 1077.65C754.705 1077.22 758.55 1073.66 759.785 1072.31C761.016 1070.95 761.634 1070.02 761.977 1068.81C762.31 1067.6 763.318 1057.19 764.254 1056.66C765.829 1055.77 768.57 1056.19 770.316 1056.01C773.441 1055.68 776.642 1055.18 779.726 1054.6C780.837 1054.4 781.93 1054.13 783.026 1053.88C784.389 1053.57 785.642 1052.9 787.005 1052.56C788.131 1052.27 789.698 1052.09 790.532 1051.18C791.251 1050.4 791.895 1049.86 791.99 1049.04C792.077 1048.22 791.573 1047.23 791.029 1046.63C790.247 1045.74 788.635 1045.76 787.586 1045.33C784.809 1044.2 782.416 1042.53 779.989 1040.8C779.043 1040.14 776.952 1039.31 776.39 1038.28C776.024 1038.41 776.39 1038.28 776.236 1038.85C776.236 1039.18 776.642 1040.07 777.402 1042.41C778.334 1045.31 779.565 1047.89 778.663 1048.15C776.236 1048.84 773.656 1048.75 771.201 1049.39C770.353 1049.62 769.739 1049.77 768.968 1050.01C768.186 1050.25 767.853 1050.42 766.995 1050.19C766.14 1049.95 765.233 1049.11 764.912 1047.98C764.59 1046.85 764.66 1046.34 765.807 1046.07C766.951 1045.8 769.721 1044.75 769.969 1043.38C770.207 1042.02 769.677 1042.03 769.147 1041.1C768.632 1040.18 766.081 1042.96 767.514 1038.08L767.762 1037.22L770.7 1037.04C770.949 1036.97 771.285 1036.9 771.785 1036.78C773.039 1036.49 775.9 1035.96 777.077 1035.11C777.417 1034.86 778.034 1033.2 778.125 1032.91C778.242 1032.54 778.743 1031.85 777.318 1031.1C775.893 1030.36 776.269 1031.22 774.504 1031.52C772.746 1031.81 768.712 1031.87 768.712 1031.87C768.712 1031.87 768.957 1030.6 769.081 1029.4L769.242 1028.44L769.282 1028.32C769.282 1028.32 769.779 1027.06 772.348 1025.24C774.961 1023.37 784.265 1021.73 787.393 1021.34C790.521 1020.94 795.819 1020.36 796.868 1020.29C797.92 1020.22 798.078 1018.87 797.449 1017.32C796.846 1015.83 795.688 1016.48 794.533 1016.66C793.141 1016.88 791.759 1016.43 790.364 1016.49C788.942 1016.55 787.521 1016.86 786.125 1017.08C784.181 1017.38 780.292 1018.21 779.05 1018.29C777.808 1018.37 775.959 1019.04 775.074 1019.22C774.197 1019.39 774.278 1019.07 775.264 1017.76C776.247 1016.46 778.692 1016.47 779.649 1016.49C780.614 1016.51 782.2 1015.83 783.947 1015.06C786.578 1013.92 788.715 1012.01 790.985 1010.3C792.161 1009.42 793.462 1008.63 794.588 1007.71C795.476 1006.98 796.393 1006.11 796.883 1005.05C797.427 1003.88 796.959 1003.2 796.466 1002.12C795.607 1000.21 792.34 1000.69 790.685 1000.63C790.239 1000.62 789.622 1000.5 789.191 1000.66C788.091 1001.08 786.238 1003.11 784.857 1002.2C784.418 1001.92 785.16 999.34 785.434 997.797C785.708 996.249 784.202 994.877 782.726 993.11C781.257 991.336 779.448 988.153 776.857 987.479C774.27 986.803 772.279 991.704 771.632 993.449C771.201 994.62 770.923 995.855 770.484 997.034C770.072 998.131 769.399 999.072 768.913 1000.13C768.08 1001.97 768.164 1006.11 765.478 1006.44C764.879 1006.52 764.649 1007.38 764.049 1007.98C763.443 1008.56 761.444 1009.31 761.7 1010.3C761.955 1011.29 764.141 1010.07 764.513 1010.11C764.893 1010.16 765.186 1011.27 765.248 1011.51C765.515 1012.56 764.616 1014.25 764.378 1015.27C763.965 1017.04 763.856 1019.05 763.143 1020.74C762.748 1021.68 757.274 1021.05 755.539 1021.13L755.151 1021.23L755.144 1021.23L754.972 1020.89C754.797 1020.33 752.699 1019.49 752.732 1018.91C752.842 1017.24 751.435 1016.26 750.529 1015.99C749.615 1015.73 748.168 1014.57 747.708 1014.13C747.251 1013.7 745.533 1012.8 744.806 1011.93C744.083 1011.07 745.106 1008.99 745.179 1008.27C745.27 1007.37 746.498 1006.26 747.05 1005.62C748.504 1003.91 751.121 1002.49 753.427 1002.65C755.086 1002.77 756.478 1003.1 757.724 1001.68C760.673 998.291 757 994.341 754.168 992.575C752.739 991.693 752.133 990.89 751.355 990.44C750.576 989.99 748.095 988.625 747.072 987.903C746.041 987.186 744.105 985.876 742.946 986.501C741.78 987.119 742.756 988.335 744.426 990.849C745.215 992.024 745.632 993.192 745.489 994.605C745.358 995.911 745.252 996.696 745.913 997.893C746.71 999.336 747.441 1000.44 746.955 1002.15C746.447 1003.95 744.119 1007.6 743.571 1008.23C743.023 1008.85 742.157 1009.05 741.572 1009.63C739.171 1011.98 739.106 1014.48 740.026 1017.5C740.757 1019.91 740.593 1024.18 740.344 1026.1C740.092 1028.02 738.082 1032.34 737.414 1033.59C736.741 1034.83 735.287 1037.41 733.314 1041.83C731.351 1046.25 730.781 1047.07 730.292 1047.02C729.816 1046.97 728.537 1048.84 728.081 1049.57C727.54 1050.45 728.062 1052.23 727.949 1053.23ZM782.543 1007.3C783.618 1005.98 786.728 1005.72 786.728 1005.72C786.844 1007.3 784.382 1008.37 784.064 1008.59C783.742 1008.8 783.629 1009.25 783.391 1009.66C783.139 1010.07 782.039 1010.25 782.039 1010.25C782.039 1010.25 781.473 1008.62 782.543 1007.3ZM737.366 1039.13C737.439 1038.44 738.371 1036.92 739.803 1033.81C741.243 1030.72 743.969 1028.44 743.969 1028.44C743.867 1029.44 743.52 1029.48 743.359 1030.24C743.195 1030.99 738.7 1038.72 738.046 1039.27C737.388 1039.82 737.297 1039.81 737.366 1039.13ZM869.935 1042.93C871.013 1049.76 868.992 1053.96 865.411 1057.45C861.639 1061.09 856.052 1063.8 850.589 1067.27L850.359 1067.42L850.297 1067.69C850.275 1067.88 850.081 1068.22 850.213 1068.77L850.304 1069.12L850.658 1069.23C852.913 1069.84 855.793 1069.05 857.952 1068.8C858.742 1068.67 859.487 1068.52 860.222 1068.33C871.173 1065.49 877.25 1055.45 878.244 1046.85C878.46 1042.42 878.672 1038.03 878.917 1033.79C880.064 1032.62 881.201 1031.47 882.363 1030.46L882.392 1030.43L882.432 1030.39C883.521 1029.11 885.545 1027.51 887.544 1025.77L887.124 1025.29L887.559 1025.76C890.523 1022.97 894.268 1019.2 895.087 1016.26L895.12 1016.16L895.109 1016.05L895.057 1015.74C894.597 1014.34 893.066 1013.9 891.385 1013.46C889.682 1013.06 887.694 1012.83 886.174 1012.65C886.02 1012.64 882.79 1012.64 881.613 1012.65H881.537L881.456 1012.67L880.941 1013.14L880.934 1013.63C881.131 1014.23 881.613 1014.79 882.143 1015.56C882.651 1016.28 883.167 1017.1 883.265 1017.52L883.287 1017.71C883.188 1018.94 880.356 1022.03 878.738 1023.51C877.773 1016.17 880.492 1009.53 879.498 1002.07L879.461 1001.84L879.282 1001.68C876.998 999.723 869.796 997.086 866.032 997.804L865.758 997.863L865.612 998.113L865.458 998.719L865.451 998.79L865.396 998.883L865.389 999.042C865.338 1000.01 865.487 1000.96 865.736 1001.92C866.258 1003.94 867.201 1005.96 867.713 1007.97C867.903 1008.7 868.034 1009.42 868.082 1010.14C868.641 1017.55 869.613 1024.81 869.69 1031.95C866.178 1035.69 862.228 1039.37 857.704 1042.46C855.975 1043.76 853.359 1044.16 851.002 1045.69L850.673 1045.91L850.666 1045.92L850.015 1046.09L850.311 1046.79C851.777 1049.97 854.262 1054.68 858.124 1053.87L858.837 1053.61C861.047 1052.57 862.922 1050.87 864.661 1048.71C866.291 1046.68 868.005 1044.79 869.935 1042.93ZM881.613 1038.51C881.288 1039.4 881.31 1040.33 881.551 1041.24C882.834 1045.98 889.792 1050.9 892.218 1052.97C892.905 1053.48 893.376 1054.12 894.217 1054.76C894.827 1055.25 895.675 1055.76 896.786 1055.83C897.561 1055.88 898.277 1055.8 898.953 1055.62L898.982 1055.62C903.06 1054.53 905.377 1050.3 907.036 1048.55C907.427 1048.04 908.457 1047.23 909.378 1046.37C910.296 1045.48 911.227 1044.61 911.322 1043.42L911.352 1042.74L910.668 1042.75C909.415 1042.76 908.381 1042.87 907.204 1042.88L907.211 1043.53L907.168 1042.88C906.261 1042.94 905.399 1043.1 904.569 1043.32C902.786 1043.78 901.149 1044.46 899.494 1044.88C898.401 1045.16 897.297 1045.34 896.139 1045.29C895.05 1045.3 893.786 1044.92 892.448 1044.37C889.028 1043.06 885.615 1040.35 883.397 1038.09L883.137 1037.83L882.063 1038.1L881.734 1038.19L881.613 1038.51ZM937.783 961.694L937.172 962.066L938.071 962.605C939.442 963.413 940.907 964.346 942.288 965.172C945.665 967.701 949.995 970.806 952.363 974.63L952.385 974.674C952.791 975.333 953.247 975.98 953.638 976.612C954.366 977.802 954.757 978.829 954.329 979.829L954.314 979.863L954.282 979.881C950.883 979.665 947.733 977.095 943.239 979.825C942.734 980.138 942.212 980.517 941.664 980.975L941.517 981.101L941.47 981.294L941.528 982.031L941.645 982.187L941.755 982.31L941.908 982.366C944.949 983.388 950.525 986.312 952.688 989.335C953.087 990.005 953.416 990.819 953.902 991.604C954.315 992.292 954.877 992.969 955.743 993.43L955.842 993.49L955.952 993.505C957.256 993.702 958.553 993.903 959.851 994.107L960.183 994.159L960.417 993.91C960.994 993.237 960.925 992.411 960.793 991.597C960.315 989.146 958.849 985.78 960.662 983.463C961.912 982.871 963.044 983.299 964.634 983.121L964.766 983.102L964.872 983.031C965.233 982.76 965.325 982.578 965.46 982.507L965.792 982.295L965.76 981.908C965.668 980.926 965.486 979.877 965.401 978.959L965.387 978.851L965.347 978.754C965.047 978.096 964.758 977.218 964.36 976.355L964.879 975.05L967.309 969.129L967.671 968.98C968.12 969.192 968.88 969.713 969.165 970.215L969.333 970.791V970.832V970.877L969.319 970.87L968.683 971.74L968.361 972.108L968.723 972.636L968.873 972.856L969.151 972.9C969.732 972.967 970.273 972.777 970.7 972.644C971.409 973.454 971.975 974.209 972.86 974.957L972.896 974.994L972.947 975.02C973.912 975.507 975.571 975.931 975.557 976.143L975.535 976.147L975.498 976.247L975.487 976.344C975.403 978.271 973.061 982.291 971.234 985.043C970.963 985.59 970.737 986.018 970.506 986.289L970.459 986.341L970.422 986.397C966.556 993.27 962.632 1000.01 958.707 1006.93C957.289 1009.85 952.06 1014.02 954.497 1018.35L954.771 1018.74L954.903 1018.91L955.111 1018.97C957.256 1019.51 959.452 1019.86 961.689 1020.01C963.121 1019.93 964.473 1019.21 965.047 1019.5L965.486 1019.66L965.771 1019.27C968.701 1015.32 967.627 1013.11 968.113 1011.68C970.214 1005.29 973.499 999.143 977.468 993.062C978.447 991.801 979.361 990.406 980.333 989.157C981.992 986.836 983.629 983.797 986.267 982.198L986.834 981.875L986.867 981.86C987.119 982.362 987.247 982.931 987.29 983.362C987.393 984.861 986.475 986.39 986.147 988.052C985.788 990.745 984.963 993.56 984.115 996.063C983.698 997.082 982.441 998.589 982.456 1000.12C982.544 1000.64 982.726 1001.01 982.92 1001.33C983.172 1001.74 983.446 1002.09 983.629 1002.39L983.874 1002.98L983.892 1003.11L983.907 1003.12L983.874 1003.22C983.391 1004.36 980.906 1007.08 980.139 1008.24C979.076 1010.24 977.935 1012.27 976.649 1014.03C973.751 1017.78 968.924 1020.82 967.934 1025.4L967.857 1025.74L968.113 1025.98C969.034 1026.79 971.091 1027.29 973.452 1027.58C975.801 1027.83 978.305 1027.79 979.905 1026.84L980.377 1026.5C982.291 1024.57 983.008 1021.86 983.673 1019.98C984.572 1017.51 987.097 1012.97 989.607 1010.48L990.232 1009.9C990.915 1010.45 991.639 1011.38 992.523 1012.18C993.305 1012.93 993.908 1013.66 994.343 1014.36C995.337 1016 995.436 1017.44 994.964 1018.9C994.398 1020.91 992.476 1022.94 990.057 1024.91C989.775 1025.13 989.446 1025.36 989.103 1025.57C987.948 1026.28 986.508 1026.92 985.229 1027.7C984.718 1028.02 984.232 1028.36 983.797 1028.75L983.461 1029.4L983.468 1029.52L983.293 1030.34L984.122 1030.29C986.421 1030.11 988.756 1029.02 990.755 1029.02C994.405 1028.96 997.489 1028.83 1001.11 1028.77H1001.18L1001.25 1028.75L1001.93 1028.51L1001.94 1028.5L1002.33 1028.01C1003.49 1025.1 1003.18 1017.81 1000.66 1013.6C1000.36 1013.1 1000.01 1012.66 999.638 1012.27C997.793 1010.33 995.531 1008.51 994.244 1006.41L993.725 1005.42C993.762 1005.17 994.427 1004.17 995.184 1003.39C995.98 1002.52 996.908 1001.69 997.139 1001.55L1001.64 998.782L1001.71 998.697C1003.22 996.737 1002.56 994.382 1002.7 992.82V992.772V992.709L1002.42 991.872C1001.9 991.035 1000.95 991.139 1000.9 991.102L1000.84 991.091L1000.78 991.095C999.444 991.135 998.238 991.634 997.175 992.288C996.43 992.753 995.735 993.285 995.096 993.824C994.391 994.419 993.835 994.933 993.276 995.431L987.681 998.871L987.652 998.864C987.469 998.83 987.02 998.447 986.812 998.083L986.673 997.789L986.658 997.748C987.342 995.394 989.98 993.081 991.292 990.351C991.496 989.942 991.855 989.38 992.125 988.859C993.269 985.735 994.043 982.756 995.03 979.84C995.436 978.46 996.868 975.188 995.516 972.822C995.205 972.32 994.749 971.885 994.153 971.595C992.552 970.594 990.733 971.041 989.245 971.963C987.203 973.231 985.507 975.381 984.652 976.82C984.455 977.237 984.144 977.571 983.958 978.115C981.356 982.161 978.115 986.133 974.954 990.239C973.857 991.902 972.549 993.545 971.628 995.316C970.941 996.342 968.836 1000.17 967.821 1000.78H967.795C967.156 999.117 968.946 996.528 969.86 994.516L973.558 987.424L979.459 975.842C979.861 975.355 980.731 974.79 981.645 974.235C982.174 973.975 982.803 973.655 983.413 973.283C984.298 972.737 985.138 972.089 985.628 971.189C989.037 965.38 987.261 957.986 987.539 951.961C987.608 949.577 988.251 941.744 985.774 937.616C985.036 936.404 983.936 935.474 982.463 935.277C980.99 935.072 979.273 935.552 977.201 936.816L977.102 936.88L977.026 936.976C975.25 939.435 972.655 948.551 969.227 952.37C968.913 950.596 969.611 948.342 970.309 945.981C971.077 943.292 971.815 940.379 970.243 937.787L970.108 937.583L970.094 937.542C969.611 936.895 968.931 936.779 968.032 936.604C965.358 936.207 960.662 936.571 957.918 937.836L957.497 938.036L957.552 938.498C957.793 939.866 959.087 941.417 959.584 942.63L959.624 943.176L960.286 948.971C960.505 950.883 961.221 953.185 961.353 955.275C961.459 957.387 961.082 959.098 959.211 960.262C958.458 960.727 957.443 961.099 956.087 961.337C955.652 961.4 955.517 961.49 955.254 961.516C952.378 961.772 949.922 960.489 946.769 960.448C945.343 960.247 944.05 960.712 942.811 960.709C941.58 960.742 939.942 960.251 938.225 961.084L937.6 961.397L937.783 961.694ZM974.873 968.062L975.374 967.757L976.543 967.321L977.347 967.831C977.424 968.329 977.599 968.694 977.607 968.898C977.468 969.367 977.186 969.743 976.803 969.984C976.368 970.241 975.801 970.353 975.071 970.122C974.723 969.341 974.745 968.913 974.873 968.062ZM969.94 957.194L970.569 957.22C970.642 953.419 976.39 946.903 979.174 943.563C979.521 943.258 979.62 943.009 979.934 942.827C980.172 942.693 980.413 942.604 980.943 942.756C981.601 943.031 982.014 943.414 982.299 943.876C982.741 944.59 982.847 945.594 982.788 946.713C982.788 948.71 982.657 950.782 982.58 952.679V952.72L982.587 952.783C983.125 956.167 984.784 963.037 981.637 964.751L981.096 965.023C980.026 964.19 979.13 963.379 978.217 962.561L978.071 962.431L977.899 962.408C977.124 962.289 976.419 962.382 975.904 962.297C975.334 962.114 974.259 961.646 973.265 960.984C972.165 960.366 971.332 959.634 970.934 958.975L970.81 958.76L970.788 958.697L970.737 958.63L970.722 958.607C970.558 958.34 970.492 957.882 970.565 957.268L969.94 957.194ZM957.198 967.366C957.687 967.191 958.089 967.091 958.407 967.083C959.303 967.054 960.03 967.132 960.848 967.191C960.892 967.95 960.72 969.177 960.424 969.943L961.009 970.163L960.403 969.995L960.249 970.572C959.211 969.735 957.98 968.716 957.41 967.771L957.198 967.366Z" fill="white"/>
<path d="M971.879 1480.82C971.879 1480.82 973.022 1477.56 973.873 1476.99C984.508 1472.01 992.569 1484.37 989.47 1485.37C987.102 1486.14 967.592 1500.92 967.592 1500.92C965.701 1491.59 971.879 1480.82 971.879 1480.82ZM1188.05 1719.41C1177.65 1720.07 1174.41 1720.07 1154.29 1721.99C1134.17 1723.93 1104.95 1723.93 1101.7 1721.99C1098.47 1720.07 1086.13 1704.56 1077.69 1692.94C1069.25 1681.31 1023.82 1623.83 1012.13 1603.8C1000.44 1583.79 977.721 1530.18 977.721 1530.18C977.721 1530.18 996.557 1513.39 1029.65 1494.66C1062.75 1475.92 1065.36 1466.24 1066.66 1459.78C1067.96 1453.33 1068.6 1445.57 1054.33 1452.03C1040.04 1458.49 1007.59 1457.84 1004.98 1457.84C1002.39 1457.84 996.557 1456.54 990.706 1461.07C984.864 1465.59 976.336 1463.05 976.336 1463.05C976.336 1463.05 971.879 1460.43 971.879 1453.96C971.879 1447.5 959.55 1435.24 959.55 1435.24C973.181 1440.4 1008.24 1418.44 1020.56 1406.17C1032.9 1393.89 1058.21 1371.93 1067.3 1361.6C1076.39 1351.28 1086.78 1355.8 1095.22 1335.78C1100.63 1322.94 1097.66 1332.93 1102.04 1319.25C1106.41 1305.56 1102.04 1304.32 1094.54 1301.2C1087.03 1298.09 1075.15 1303.06 1063.26 1304.94C1051.38 1306.8 1036.37 1309.9 1029.5 1311.17C1022.61 1312.4 1026.37 1312.4 1010.73 1321.73C995.097 1331.07 971.964 1337.91 950.694 1347.25C929.442 1356.58 918.807 1358.45 912.554 1358.45C906.3 1358.45 901.301 1356.58 894.42 1367.78C889.917 1375.11 895.571 1381.57 900.879 1386.39C907.358 1392.28 910.157 1396.96 915.212 1403.97C919.388 1409.76 927.046 1410.97 930.687 1417.56C930.687 1417.56 924.443 1416.93 915.062 1417.56C905.673 1418.17 908.172 1431.24 908.172 1438.72C908.172 1446.17 908.799 1469.2 906.918 1476.67C905.055 1484.13 905.673 1494.7 905.673 1504.66C905.673 1514.62 900.477 1541.8 900.477 1541.8C891.386 1551.49 808.956 1601.22 794.669 1609.62C780.383 1618.01 751.184 1601.87 751.174 1601.87C740.979 1619.27 757.054 1652.79 769.205 1665.98C776.451 1673.84 786.787 1681.53 796.617 1685.83C812.85 1692.94 839.41 1683.3 857.628 1662.58C875.808 1641.9 898.53 1604.45 898.53 1604.45C901.123 1634.8 898.53 1654.82 871.914 1720.07C845.298 1785.3 810.248 1785.3 790.775 1790.46C771.302 1795.62 740.146 1793.04 737.544 1802.73C733.303 1818.54 785.579 1833.09 818.692 1826.63C840.159 1822.44 858.77 1801.78 872.85 1786.56C892.341 1765.52 912.516 1743.44 921.269 1715.55C928.525 1692.44 933.224 1668.29 937.765 1644.55C939.946 1633.14 942.099 1621.72 943.972 1610.26C948.512 1582.48 956.301 1546.98 956.301 1546.98C956.301 1546.98 977.721 1642.56 991.352 1685.83C1004.98 1729.1 1040.04 1780.77 1062.12 1786.58C1084.17 1792.4 1113.4 1767.21 1120.54 1764.63C1127.67 1762.04 1164.68 1747.82 1184.14 1740.73C1203.62 1733.62 1198.44 1718.76 1188.05 1719.41Z" fill="white"/>
<path d="M1146.19 2276.8C1145.51 2272.19 1141.36 2267.54 1137.56 2265C1131.99 2261.3 1123.29 2263.7 1116.96 2262.84C1100.21 2260.6 1084.8 2254.93 1069.13 2249C1063.04 2246.71 1050.51 2245.19 1045.92 2240.33C1044.16 2241.6 1045.92 2240.33 1045.92 2243.72C1046.39 2245.47 1049.88 2249.75 1057.34 2261.43C1066.56 2275.87 1076.87 2288.17 1072.36 2290.84C1060.11 2298.07 1045.92 2301.24 1033.48 2308.24C1029.2 2310.65 1026.08 2312.36 1022.19 2314.78C1018.28 2317.2 1016.73 2318.59 1011.72 2318.51C1006.71 2318.43 1000.59 2315.15 997.233 2309.45C993.872 2303.73 993.55 2300.9 999.379 2297.81C1005.24 2294.71 1018.84 2285.07 1018.21 2277.27C1017.58 2269.5 1014.72 2270.33 1010.55 2266.02C1006.4 2261.74 996.469 2280.48 997.344 2251.9C997.39 2250.55 996.856 2247.42 997.445 2246.85C998.007 2245.12 1011.67 2242.29 1013.23 2241.69C1014.47 2240.98 1016.18 2240.07 1018.74 2238.75C1025.15 2235.42 1039.99 2228.39 1045.17 2222.13C1046.68 2220.3 1047.7 2210.36 1047.78 2208.67C1047.89 2206.52 1049.63 2202.02 1040.81 2199.98C1032 2197.96 1035.27 2202.15 1026.09 2206.23C1016.91 2210.31 995.032 2216.4 995.032 2216.4C995.032 2216.4 994.563 2209.12 993.522 2202.38C993.274 2200.73 992.961 2198.69 993.043 2196.97L993.08 2196.26C993.08 2196.26 994.02 2188.7 1005.41 2175.11C1016.97 2161.27 1065.33 2139.11 1081.81 2132.51C1098.28 2125.92 1126.31 2115.24 1131.92 2113.36C1137.53 2111.46 1136.47 2103.93 1130.87 2096.39C1125.47 2089.13 1120.06 2094.32 1114.04 2096.93C1106.79 2100.1 1098.58 2099.61 1091.09 2101.92C1083.45 2104.28 1076.14 2107.99 1068.84 2111.15C1058.67 2115.55 1038.68 2125.6 1032.04 2127.8C1025.38 2130.01 1016.27 2136.29 1011.72 2138.48C1007.16 2140.69 1007.16 2138.81 1010.66 2130.31C1014.17 2121.84 1027.49 2118.39 1032.74 2117.13C1037.99 2115.86 1045.69 2109.9 1054.12 2103.3C1066.81 2093.33 1075.72 2079.84 1085.68 2067.36C1090.83 2060.92 1096.78 2054.76 1101.6 2048.13C1105.42 2042.88 1109.17 2036.84 1110.34 2030.37C1111.63 2023.28 1108.11 2020.23 1103.89 2015.02C1096.5 2005.89 1079.41 2013.11 1070.31 2015.14C1067.83 2015.7 1064.34 2015.96 1062.21 2017.47C1056.83 2021.3 1049.59 2034.95 1040.79 2031.99C1037.99 2031.05 1038.34 2015.97 1037.64 2007.17C1036.94 1998.38 1026.79 1993.04 1016.27 1985.5C1005.76 1977.96 991.386 1963.2 976.32 1963.2C961.246 1963.2 957.387 1992.72 956.337 2003.1C955.619 2010.14 955.914 2017.24 955.177 2024.27C954.496 2030.81 952.157 2036.91 951.033 2043.34C949.081 2054.53 955.417 2076.96 941.272 2082.57C938.113 2083.83 938.113 2088.85 935.673 2092.94C933.214 2097.02 923.398 2103.93 926.207 2108.96C929.015 2113.98 939.163 2104.24 941.272 2103.93C943.372 2103.61 946.53 2109.26 947.23 2110.52C950.195 2115.83 947.663 2126.29 947.819 2132.16C948.105 2142.42 950.37 2153.5 948.906 2163.69C948.086 2169.38 917.348 2173.73 908.029 2176.63C897.245 2180.64 907.752 2191.23 911.031 2196.9C912.283 2198.02 908.029 2198.65 942.082 2201.71C943.031 2201.8 943.28 2208.65 943.823 2211.64C944.817 2217.6 946.53 2223.77 946.346 2229.83C946.346 2229.83 930.406 2236.63 930.691 2241.94C930.977 2247.25 930.129 2251.82 937.045 2252.99C943.952 2254.16 948.528 2256.71 948.528 2256.71C948.528 2256.71 950.702 2262.42 951.319 2272.31C951.65 2277.44 950.168 2277.43 950.214 2278.64C950.324 2280.38 938.822 2283.91 937.11 2285.5C931.299 2290.97 933.288 2300.78 943.418 2308.01C947.193 2310.7 950.914 2306.68 953.041 2310.1C955.997 2314.82 951.125 2323.49 950.315 2325.31C947.506 2331.63 941.917 2341.78 932.201 2346.23C922.486 2350.67 913.084 2357.08 883.819 2357.84C879.564 2357.94 876.59 2362.61 875.301 2367.6C876.277 2370.67 876.986 2373.93 875.936 2378.41L876.875 2379.28C881.821 2382.19 888.699 2385.48 893.249 2390.15C897.752 2394.82 895.164 2398.31 906.942 2398.5C923.886 2398.77 924.908 2386.06 938.767 2386.64C952.626 2387.21 942.368 2399.41 942.267 2405.06C942.147 2410.99 935.876 2417.48 933.527 2422.73C927.459 2436.3 935.139 2453.48 943.436 2464.35C949.753 2472.6 965.159 2496.62 978.107 2486.93C983.19 2483.12 999.075 2458.27 1003.85 2449.16C1008.66 2440.04 1010.7 2434.08 1010.83 2426.99C1010.96 2419.92 1001.65 2361.82 1005.97 2357.64C1013.3 2350.56 1028.78 2348.98 1038.07 2345.48C1054.62 2339.26 1071.35 2331.99 1087.34 2324.47C1093.07 2321.78 1098.65 2318.77 1104.27 2315.87C1111.26 2312.24 1117.13 2306.82 1124.05 2303.01C1129.77 2299.85 1138.07 2296.63 1141.3 2290.49C1144.12 2285.25 1146.88 2281.4 1146.19 2276.8ZM1035.45 2063.02C1039.42 2054.3 1055.99 2048.49 1055.99 2048.49C1058.88 2056.88 1046.99 2066.25 1045.55 2067.87C1044.11 2069.49 1044.11 2072.07 1043.39 2074.65C1042.66 2077.25 1036.89 2079.81 1036.89 2079.81C1036.89 2079.81 1031.48 2071.74 1035.45 2063.02Z" fill="white"/>
<path d="M906.164 2178.76L905.535 2178.17L904.082 2176.58C902.324 2173.78 889.639 2172.2 889.028 2169.01C887.206 2159.76 878.129 2156.38 872.772 2156.27C867.415 2156.13 857.838 2151.89 854.72 2150.15C851.593 2148.4 840.879 2145.92 835.67 2142.28C830.479 2138.63 833.107 2125.83 832.468 2121.8C831.691 2116.77 836.845 2109.02 838.926 2104.74C844.469 2093.39 856.737 2081.91 869.589 2079.54C878.842 2077.82 886.947 2077.65 891.702 2068.15C903.037 2045.5 877.287 2029.25 859.254 2023.66C850.205 2020.87 845.727 2017.37 840.814 2016.03C835.901 2014.69 820.403 2010.79 813.75 2008.32C807.089 2005.86 794.644 2001.48 789.176 2006.52C783.689 2011.56 790.777 2016.76 803.499 2028.08C809.485 2033.4 813.427 2039.11 814.676 2047C815.841 2054.3 816.369 2058.74 821.68 2064.29C828.11 2071.01 833.671 2076.02 833.467 2085.99C833.245 2096.49 825.751 2119.68 823.623 2123.87C821.513 2128 817.072 2130.35 814.666 2134.33C804.905 2150.53 808.116 2164.23 817.461 2179.36C824.909 2191.44 830.109 2214.88 831.478 2225.69C832.848 2236.49 828.008 2262.84 826.13 2270.59C824.243 2278.32 819.959 2294.4 815.499 2321.26C811.049 2348.13 809.096 2353.37 806.367 2353.79C803.656 2354.21 799.344 2366.17 797.91 2370.81C796.208 2376.35 801.556 2385.31 802.425 2390.97C804.174 2402.47 801.694 2428.18 821.291 2423.67C840.055 2419.33 837.992 2413.94 843.636 2392.68C848.04 2376.09 854.924 2366.13 858.023 2348.31C861.105 2330.48 864.472 2330.23 864.833 2324.66C865.194 2319.11 863.159 2311.97 863.223 2296.54C863.288 2281.11 863.473 2256.56 863.334 2247.77C863.205 2238.97 864.565 2231.88 865.897 2220.66C867.239 2209.42 875.797 2202.87 882.996 2199.56C885.429 2198.43 906.284 2195.22 908.903 2194.82C910.032 2194.63 908.32 2192.21 909.088 2191.36L906.543 2189.76C906.201 2186.86 907.617 2183.65 907.543 2183.5L907.126 2181.7C906.904 2180.52 906.839 2179.57 906.164 2178.76ZM853.878 2243.92C854.063 2248.26 840.518 2296.72 837.714 2300.65C834.883 2304.58 834.411 2304.65 833.81 2300.81C833.208 2296.97 836.123 2287.33 839.537 2268.44C842.988 2249.54 854.665 2233.29 854.665 2233.29C855.525 2238.85 853.684 2239.56 853.878 2243.92Z" fill="white"/>
<path d="M1004.29 2821.21L1004.54 2821.05C1012.4 2815.53 1025.81 2809.58 1039.32 2802.81L1037.67 2799.52L1039.41 2802.77C1059.73 2791.56 1085.71 2776.12 1094.44 2761.01L1094.74 2760.48L1094.86 2759.88L1095 2758.06C1094.46 2749.64 1086.65 2745.03 1078.03 2740.18C1069.23 2735.51 1058.59 2731.44 1050.47 2728.25C1049.65 2727.99 1031.84 2723.33 1025.36 2721.7L1024.92 2721.59H1024.47C1023.36 2721.47 1021.59 2722.3 1020.94 2723.49C1020.22 2724.62 1020.22 2725.49 1020.21 2726.16C1020.4 2729.78 1022.29 2733.55 1024.08 2738.58C1025.89 2743.31 1027.55 2748.58 1027.49 2751.02L1027.36 2752.11C1025.06 2758.81 1005.02 2771.85 993.992 2777.7C999.189 2735.69 1023.58 2702.86 1028.73 2660.15L1028.89 2658.79L1028.14 2657.67C1018.31 2643.61 982.37 2618.72 960.651 2617.27L959.012 2617.2L957.848 2618.38C956.6 2619.73 956.404 2620.88 956.162 2621.5L956.023 2621.91L955.594 2622.33L955.315 2623.21C953.657 2628.47 953.117 2633.99 953.117 2639.61C953.135 2651.54 955.436 2664.07 955.408 2675.93C955.408 2680.24 955.11 2684.43 954.355 2688.51C946.868 2730.26 941.866 2771.8 932.116 2811.48C907.435 2827.12 880.409 2841.81 851.063 2852.45C839.71 2857.17 824.716 2855.6 809.563 2860.74C808.417 2860.9 807.793 2861.34 807.43 2861.48L807.384 2861.51H803.528L804.208 2865.79C807.719 2885.57 814.713 2915.13 837.177 2916.17C838.592 2916.17 840.008 2916.02 841.442 2915.78C855.105 2913.18 867.845 2906.48 880.511 2897.02C892.432 2888.08 904.52 2880.1 917.801 2872.51C914.011 2911.9 896.902 2932.25 872.185 2946.4C846.248 2961.16 811.575 2968.15 776.501 2979.59L775.002 2980.07L774.322 2981.48C773.912 2982.52 772.357 2984.13 772.301 2987.32V2989.42L774.117 2990.5C785.675 2997.12 802.653 2996.82 814.909 2998.56C819.454 2998.99 823.803 2999.2 828.096 2999.2C892.46 2999.12 940.293 2952.28 958.034 2906.11C965.55 2881.92 972.945 2857.94 980.358 2834.8C988.349 2830.01 996.246 2825.27 1004.07 2821.33L1004.29 2821.21ZM1142.58 2929.83C1135.63 2928.08 1129.76 2927.25 1123.28 2925.62L1122.38 2929.21L1123.07 2925.58C1118 2924.6 1113.01 2924.27 1108.11 2924.27C1097.66 2924.27 1087.65 2925.69 1077.91 2925.68C1071.5 2925.68 1065.18 2925.06 1058.85 2923.14C1052.83 2921.64 1046.41 2917.71 1039.86 2912.78C1022.86 2900.59 1007.92 2880.7 998.891 2865.03L997.848 2863.19H991.534H989.587L988.488 2864.8C985.452 2869.25 984.223 2874.46 984.223 2879.81C984.549 2907.92 1015.91 2945.05 1026.29 2959.98C1029.38 2963.82 1031.05 2968.03 1034.79 2972.78C1037.45 2976.35 1041.39 2980.39 1047.39 2982.4C1051.6 2983.71 1055.69 2984.3 1059.66 2984.3H1059.81C1083.85 2984.14 1102.64 2964.07 1114.31 2956.73C1117.18 2954.51 1123.99 2951.46 1130.31 2948.03C1136.62 2944.43 1142.98 2940.91 1145.19 2934.49L1146.3 2930.78L1142.58 2929.83Z" fill="white"/>
<path d="M934.368 3292.11L936.703 3294.98L934.116 3292.32C933.266 3293.16 932.406 3294.02 931.668 3294.75C928.931 3287.48 925.746 3278.7 925.69 3272.26C925.671 3271.31 925.699 3270.4 925.821 3269.59C928.819 3270.18 931.136 3270.84 932.743 3271.74C937.329 3274.25 940.739 3276.82 944.681 3279.55C942.626 3283.51 938.114 3289.13 934.368 3292.11ZM1012.44 3325.49L1015.89 3325.43L1023.03 3326.73C1023.71 3328.22 1024.51 3329.83 1025.58 3331.65C1024.45 3334.4 1024.27 3336.74 1023.71 3337.79C1021.63 3339.74 1019.06 3340.79 1016.43 3340.86C1013.49 3340.88 1010.35 3339.73 1007.36 3336.45C1007.9 3331.48 1009.29 3329.37 1012.44 3325.49ZM1019.62 3266.74L1019.68 3266.32L1019.63 3265.85V3265.71C1019.56 3263.88 1020.59 3261.37 1022.8 3258.52L1019.89 3256.26L1022.99 3258.27C1034.57 3239.43 1082.71 3223.73 1106.59 3215.22C1109.22 3214.72 1110.46 3213.77 1112.58 3213.77C1114.15 3213.81 1115.62 3214.08 1117.83 3216.42C1120.32 3219.75 1121.27 3222.87 1121.34 3226.03C1121.45 3230.93 1118.97 3236.3 1115.39 3241.76C1109.49 3251.77 1102.68 3261.79 1096.68 3271.07L1096.55 3271.29L1096.4 3271.63C1089.08 3290.24 1077.08 3329.63 1056.19 3328.9C1055.06 3328.92 1053.89 3328.85 1052.67 3328.66C1049.82 3321.32 1047.68 3314.59 1045.52 3307.74L1045.18 3306.7L1044.35 3306.04C1040.82 3303.14 1037.03 3301.55 1034.71 3299.57C1032.37 3296.97 1028.39 3291.43 1025.33 3285.21C1021.64 3278.83 1019.64 3272.67 1019.57 3268.17L1019.62 3266.74ZM908.969 3443.48L948.511 3418.82L1012.43 3378.18C1015.88 3376.89 1021.92 3376.65 1028.12 3376.56C1031.55 3376.83 1035.69 3377.09 1039.86 3377.03C1045.89 3376.91 1052.02 3376.13 1057.17 3373.08C1091.47 3354.01 1104.46 3311.59 1123.64 3282.17C1131.09 3270.41 1157.53 3232.98 1157.3 3204.9C1157.2 3196.64 1154.4 3188.72 1147.61 3183.34C1140.85 3177.97 1130.81 3175.27 1116.67 3175.5L1115.97 3175.52L1115.32 3175.79C1099.12 3182.85 1059.11 3220.92 1030.59 3229.95C1034.25 3220.12 1044.47 3210.88 1054.95 3201.09C1066.75 3189.86 1079.07 3177.43 1078.86 3159.76L1078.81 3158.33L1078.83 3158.05C1078.38 3153.39 1075.26 3150.76 1071.29 3147.26C1059.06 3137.33 1034.4 3125.25 1016.88 3123.45L1014.16 3123.2L1013.12 3125.7C1010.25 3133.28 1012.17 3144.9 1011.05 3152.47L1009.64 3155.34L995.815 3186.37C991.247 3196.65 988.015 3210.32 982.467 3221.2C976.787 3232.14 969.818 3239.6 956.965 3239.92C951.836 3240 945.615 3238.87 938.114 3236.03C935.732 3235.08 934.816 3235.1 933.443 3234.49C918.235 3227.24 909.679 3213.52 894.004 3203.96C887.418 3198.72 879.59 3197.24 873.388 3193.54C867.11 3190.06 860.328 3182.75 849.231 3181.85L845.205 3181.56L845.242 3183.58L841.076 3183.65L843.99 3189.01C848.456 3197.14 853.033 3206.17 857.554 3214.43C866.989 3237.11 879.525 3265.54 880.048 3291.76V3292.04C880.123 3296.56 880.524 3301.16 880.599 3305.49C880.73 3313.64 879.656 3319.93 874.527 3323.69L874.368 3323.82H874.182C857.769 3312.66 849.539 3290.4 818.9 3290.81C815.425 3290.86 811.679 3291.22 807.643 3291.91L806.494 3292.12L805.682 3292.92C805.336 3293.13 803.682 3294.89 803.795 3296.84L803.897 3297.95L804.084 3298.88L804.71 3299.62C816.919 3313.76 836.256 3344.97 838.18 3366.56C838.199 3371.13 837.414 3376.2 837.498 3381.57C837.545 3386.25 838.395 3391.3 841.365 3396.2L841.674 3396.74L842.197 3397.16C848.129 3402.02 854.051 3406.88 859.983 3411.75L861.496 3413.02L863.392 3412.44C868.315 3410.76 870.38 3406.42 872.117 3401.94C876.965 3388.21 879.609 3366.96 895.573 3360.71C903.551 3361.43 908.007 3366.96 916.479 3370.76L917.189 3371.05L917.983 3371.04C920.58 3370.76 921.542 3370.07 922.467 3370.12L924.765 3370.08L925.727 3368C928.165 3362.83 930.398 3356.99 932.658 3352.12L932.92 3351.55L932.976 3350.95C933.415 3346.75 934.564 3341.49 935.143 3335.95L941.626 3330.97L971.36 3308.43L973.592 3308.74C975.246 3311.17 977.497 3316.03 977.432 3319.37C977.441 3320.87 977.151 3321.96 976.572 3322.76L976.441 3322.95L976.32 3323.19L976.273 3323.13C975.292 3323.87 972.341 3325.06 970.538 3325.62L967.791 3326.5L968.044 3330.23L968.146 3331.79L969.398 3332.82C972.116 3334.84 975.433 3335.54 977.973 3336.13C979.113 3342.31 979.702 3347.78 981.934 3354.13L982.028 3354.42L982.205 3354.7C985.596 3360.02 992.658 3367.06 991.929 3368.1L991.836 3368.07L991.36 3368.44L991.051 3368.9C984.886 3378.33 961.252 3391.61 943.915 3399.98C940.926 3401.94 938.553 3403.42 936.563 3404.08L936.171 3404.2L935.863 3404.38C896.087 3427.42 856.47 3449.62 816.237 3472.71C800.506 3483.23 761.861 3488.67 761.301 3517.59C761.31 3518.41 761.357 3519.37 761.497 3520.4L761.665 3521.63L762.562 3522.54C771.726 3531.63 781.721 3539.86 792.492 3547.28C799.946 3551.07 808.839 3551.52 810.829 3554.64L812.585 3556.76L815.126 3555.67C841.552 3544.48 842.711 3530.23 849.38 3524.48C878.815 3498.67 913.509 3477.49 951.444 3458.71C960.094 3455.28 968.809 3450.98 977.394 3447.61C992.593 3440.88 1009.79 3430.48 1027.75 3430.23C1029.04 3430.2 1030.28 3430.23 1031.55 3430.31L1031.79 3430.33C1031.55 3433.58 1030.52 3436.83 1029.44 3439.13C1025.51 3446.92 1016.43 3451.91 1009.81 3459.31C1000.07 3471.73 987.595 3483.44 975.9 3493.49C970.781 3497.37 960.057 3501.19 955.545 3508.97C954.443 3511.81 954.265 3514.21 954.302 3516.43C954.349 3519.21 954.704 3521.76 954.741 3523.81C954.769 3525.45 954.583 3526.66 954.228 3527.49L953.919 3528.21V3528.3L953.546 3528.72C947.689 3533.01 927.194 3539.27 919.88 3542.84C908.651 3549.79 896.928 3556.54 885.223 3561.59C859.59 3571.82 826.382 3572.77 807.839 3592.82L806.466 3594.32L807.017 3596.31C809.241 3603.08 818.087 3611.67 829.091 3620.17C840.151 3628.36 852.818 3635.61 863.654 3635.56C864.84 3635.56 865.943 3635.42 867.036 3635.24C882.346 3631.21 893.957 3619.73 902.869 3612.26C914.667 3602.53 940.813 3587.23 960.804 3582.18C962.168 3581.69 963.784 3581.5 965.643 3581.13C967.408 3585.91 968.305 3592.71 970.37 3599.35C972.088 3605.4 972.938 3610.86 973.022 3615.67C973.163 3626.86 969.417 3634.39 962.719 3640.3C953.966 3648.74 938.273 3653.24 920.291 3655.96C918.235 3656.24 915.956 3656.39 913.565 3656.44C905.671 3656.6 896.554 3655.51 887.829 3655.66C884.317 3655.72 880.842 3656 877.507 3656.66C875.854 3656.71 874.07 3658.37 873.911 3658.98L873.602 3659.53L870.268 3663.13L874.621 3665.36C886.634 3671.31 901.608 3672.72 911.64 3678.66C930.146 3689.15 945.989 3697.65 964.27 3708.06L964.69 3708.29L965.12 3708.41C965.979 3708.61 967.212 3709.19 969.193 3709.2H969.258C970.267 3709.18 971.612 3708.84 972.667 3707.9C987.128 3696.73 1007.15 3659.18 1006.97 3630.6C1006.91 3627.21 1006.56 3623.96 1005.83 3620.9C1002.28 3605.69 996.32 3589.82 996.114 3575.46C996.077 3573.2 996.152 3571.03 996.423 3568.94C997.357 3567.83 1003.65 3564.75 1009.77 3563.07C1016.31 3561.07 1023.43 3559.65 1025.01 3559.63L1055.81 3559.09L1056.39 3558.87C1069.77 3553.49 1073.43 3539.71 1078.75 3532.26L1078.92 3532.03L1079.07 3531.73C1079.84 3530 1080.22 3528.29 1080.2 3526.71C1080.02 3520.93 1074.93 3518.65 1074.82 3518.35L1074.53 3518.1L1074.2 3517.93C1067.41 3514.19 1059.91 3513.13 1052.6 3513.26C1047.49 3513.35 1042.43 3513.98 1037.62 3514.79C1032.36 3515.7 1028.01 3516.61 1023.73 3517.49L985.465 3518.15L985.372 3518.03C984.54 3517.32 983.429 3514.05 983.466 3511.64L983.634 3509.74L983.709 3509.49C994.087 3499.69 1014.17 3495.89 1028.85 3486.07C1031.07 3484.61 1034.54 3482.88 1037.42 3481.01C1052.41 3468.78 1065.13 3456.1 1078.71 3444.37C1084.82 3438.68 1101.73 3426.48 1101.91 3410.57C1101.87 3407.13 1100.84 3403.6 1098.72 3400.35C1093.67 3390.6 1083.18 3387.44 1073.01 3387.69C1059.04 3387.98 1044.13 3393.77 1035.57 3398.45C1033.36 3399.97 1030.81 3400.71 1028.26 3402.88C1003.23 3415.51 975.208 3425.86 947.203 3437.1C936.778 3442.22 925.344 3446.57 915.47 3452.75C908.969 3455.85 887.091 3468.83 880.188 3468.92L880.048 3468.79C881.795 3458.57 898.404 3450.88 908.969 3443.48Z" fill="white"/>
<path d="M553.678 3694.2V3643.82L483.922 3624.85C475.49 3622.68 465.026 3620.18 457.185 3618.32V3617.07C464.744 3615.21 475.49 3612.1 483.631 3609.6L553.678 3586.91V3534.35L423.464 3590.33C419.977 3591.89 417.937 3592.2 416.198 3592.2C414.458 3592.2 412.127 3591.26 409.805 3589.71C402.829 3585.36 386.953 3572.3 383.563 3553.98L345.303 3544.79C345.144 3567.77 353.418 3589.08 366.786 3605.26C381.028 3622.36 403.412 3636.98 460.09 3658.74L553.678 3694.2ZM469.68 3487.3H521.131V3521.2H553.678V3487.3H570.251V3440.96H553.678V3420.75H521.131V3440.96H462.995C442.943 3440.96 429.274 3445.32 420.851 3454.03C413.575 3461.8 408.639 3474.54 408.639 3489.79C408.639 3502.85 409.505 3509.98 411.544 3515.9L446.802 3524.83C445.919 3520.48 444.682 3512.49 444.682 3505.97C444.682 3491.96 452.541 3487.3 469.68 3487.3ZM593.209 3401.72C605.703 3401.4 615.301 3392.08 615.301 3376.85C615.301 3361.6 605.703 3351.65 593.209 3351.65C581.006 3351.65 571.116 3361.29 571.116 3376.21C571.116 3392.08 581.006 3401.72 593.209 3401.72ZM515.021 3261.9C521.996 3261.9 526.358 3268.43 526.358 3279.93C526.358 3292.67 521.705 3306.05 518.226 3312.89L548.733 3320.98C553.095 3311.66 557.165 3296.1 557.165 3278.38C557.165 3240.75 537.104 3216.49 510.376 3216.49C493.511 3216.18 477.521 3228.31 467.649 3260.03C462.121 3277.45 458.642 3282.11 451.075 3282.11C443.817 3282.11 439.455 3276.2 439.455 3261.9C439.455 3247.9 444.974 3229.85 449.919 3221.16L418.529 3212.76C412.719 3224.27 408.357 3241.99 408.357 3261.9C408.357 3305.43 427.826 3327.51 454.572 3327.51C475.198 3327.21 489.149 3315.39 498.456 3286.47C504.557 3267.8 508.054 3261.9 515.021 3261.9ZM515.577 3192.4L555.549 3202.53C556.141 3199.11 557.165 3193.08 557.165 3188.72C557.165 3173.79 548.45 3155.45 527.524 3147.68V3146.43L553.678 3144.56V3104.13C541.466 3105.06 527.815 3105.37 506.888 3105.37H411.544V3152.64H483.631C487.119 3152.64 490.606 3152.96 493.511 3153.58C507.171 3156.68 515.895 3168.5 515.895 3185.93C515.895 3191.22 516.16 3188.66 515.577 3192.4ZM468.514 3077.49C471.711 3078.1 478.403 3079.03 485.962 3079.03C521.131 3079.03 556.883 3060.38 556.883 3011.24C556.883 2958.37 517.06 2934.43 481.017 2934.43C436.55 2934.43 408.639 2963.97 408.639 3015.6C408.639 3036.12 411.544 3055.08 417.646 3070.65L447.587 3064.41C443.517 3051.67 441.486 3038.6 441.486 3022.44C441.486 3000.36 450.21 2980.76 468.514 2979.52V3077.49ZM498.747 3035.19V2979.2C510.376 2980.44 527.524 2988.54 527.524 3008.43C527.524 3030.21 509.502 3035.19 498.747 3035.19ZM411.544 2873.59L553.678 2930.19V2880.43L487.701 2860.85C475.49 2857.42 464.744 2854.93 453.106 2852.44V2851.51C464.452 2849.03 475.49 2846.54 487.701 2842.8L553.678 2822.27V2770.96L411.544 2826.32V2873.59ZM593.209 2753.96C605.703 2753.64 615.301 2744.32 615.301 2729.08C615.301 2713.84 605.703 2703.89 593.209 2703.89C581.006 2703.89 571.116 2713.53 571.116 2728.45C571.116 2744.32 581.006 2753.96 593.209 2753.96ZM411.544 2624.03V2671.3H495.542C537.404 2671.3 556.883 2647.97 556.883 2616.86C556.883 2591.37 543.214 2576.13 533.916 2569.91V2568.98L553.678 2566.8V2525.76C540.892 2526.37 526.067 2526.98 508.337 2526.98H411.544V2574.26H493.511C497.582 2574.26 501.652 2574.57 504.557 2575.82C512.698 2579.24 521.131 2587.02 521.131 2600.08C521.131 2617.18 508.628 2624.03 490.324 2624.03H411.544ZM497.582 2491.98H607.46V2444.71H494.968C460.09 2444.71 443.817 2431.02 443.817 2406.15C443.817 2382.2 460.956 2368.2 494.968 2368.2H607.46V2320.93H498.165C435.959 2320.93 408.357 2351.72 408.357 2404.59C408.357 2459.33 437.124 2491.98 497.582 2491.98ZM411.544 2172.72V2219.97H495.542C537.404 2219.97 556.883 2196.65 556.883 2165.56C556.883 2140.06 543.214 2124.82 533.916 2118.61V2117.68L553.678 2115.49V2074.44C540.892 2075.06 526.067 2075.69 508.337 2075.69H411.544L411.544 2122.96H493.511C497.582 2122.96 501.652 2123.26 504.557 2124.52C512.698 2127.93 521.131 2135.7 521.131 2148.77C521.131 2165.88 508.628 2172.72 490.324 2172.72H411.544ZM593.209 2042.91C605.703 2042.6 615.301 2033.27 615.301 2018.03C615.301 2002.79 605.703 1992.83 593.209 1992.83C581.006 1992.83 571.116 2002.48 571.116 2017.4C571.116 2033.27 581.006 2042.91 593.209 2042.91ZM593.209 1961.61C605.703 1961.31 615.301 1951.98 615.301 1936.74C615.301 1921.5 605.703 1911.56 593.209 1911.56C581.006 1911.56 571.116 1921.19 571.116 1936.11C571.116 1951.98 581.006 1961.61 593.209 1961.61ZM439.164 1913.1C418.352 1913.1 406.767 1911.74 399.412 1908.28C390.512 1903.32 385.691 1892.35 383.563 1880.85L345.303 1871.66C345.215 1883.34 350.009 1919.8 366.503 1938.91C378.786 1953.15 397.593 1960.37 428.409 1960.37H553.678V1913.1H439.164ZM411.544 1828.57V1875.84H495.542C537.404 1875.84 556.883 1852.53 556.883 1821.42C556.883 1795.92 543.214 1780.69 533.916 1774.46V1773.52L553.678 1771.36V1730.3C540.892 1730.92 526.067 1731.55 508.337 1731.55H411.544L411.544 1778.82H493.511C497.582 1778.82 501.652 1779.13 504.557 1780.37C512.698 1783.79 521.131 1791.57 521.131 1804.62C521.131 1821.74 508.628 1828.57 490.324 1828.57H411.544ZM411.544 1657.91V1700.51C419.394 1698.64 432.48 1698.01 445.848 1698.01H495.542C529.263 1698.01 557.165 1682.16 557.165 1631.47C557.165 1603.79 549.907 1582.96 544.38 1572.38L515.895 1581.08C521.705 1591.04 526.65 1607.53 526.65 1623.07C526.65 1646.39 515.895 1650.75 508.054 1650.75H506.306C506.306 1596.95 488.867 1561.49 451.949 1561.49C429.274 1561.49 408.357 1579.84 408.357 1610.64C408.357 1628.66 414.458 1644.22 425.796 1654.18V1655.11L411.544 1657.91ZM463.287 1652.3C460.673 1652.3 458.051 1652 455.729 1651.37C446.722 1648.26 439.455 1638.31 439.455 1626.8C439.455 1616.23 444.974 1608.14 456.311 1608.14C473.159 1608.14 478.695 1627.42 478.695 1652.3H463.287ZM593.209 1538.7C605.703 1538.4 615.301 1529.06 615.301 1513.82C615.301 1498.59 605.703 1488.63 593.209 1488.63C581.006 1488.63 571.116 1498.27 571.116 1513.21C571.116 1529.06 581.006 1538.7 593.209 1538.7ZM570.251 1412.07V1469.28H607.46V1308.2H570.251V1364.79H411.544V1412.07H570.251ZM553.678 1537.14V1489.87H411.544L411.544 1537.14H553.678ZM553.678 2041.35V1994.08H411.544V2041.35H553.678ZM553.678 2752.4V2705.13H411.544L411.544 2752.4H553.678ZM553.678 3400.16L553.678 3352.88H411.544L411.544 3400.16H553.678Z" fill="white"/>
</svg>
