<svg width="5079" height="1916" viewBox="0 0 5079 1916" fill="none" xmlns="http://www.w3.org/2000/svg">
<rect width="5079" height="1915.4" fill="#00468C"/>
<path d="M1669.5 991.35C1669.5 764.08 1485.26 579.85 1258 579.85C1030.73 579.85 846.5 764.08 846.5 991.35C846.5 1218.62 1030.73 1402.85 1258 1402.85C1485.26 1402.85 1669.5 1218.62 1669.5 991.35ZM1632.87 907.898L1652.36 929.838L1640.24 954.649L1656.89 978.786L1641.81 1001.9L1655.33 1027.93L1637.57 1048.99L1647.78 1076.47L1627.53 1095.23L1634.36 1123.76L1611.96 1139.88L1615.2 1169.02L1590.95 1182.24L1590.6 1211.61L1564.95 1221.75L1560.97 1250.82L1534.28 1257.76L1526.75 1286.08L1499.42 1289.68L1488.5 1316.91L1460.92 1317.11L1446.72 1342.79L1419.32 1339.6L1402.07 1363.28L1375.27 1356.75L1355.24 1378.19L1329.44 1368.41L1306.91 1387.21L1282.52 1374.33L1257.9 1390.24L1235.25 1374.47L1208.88 1387.18L1188.32 1368.76L1160.56 1378.14L1142.45 1357.33L1113.74 1363.2L1098.32 1340.36L1069.11 1342.7L1056.64 1318.08L1027.33 1316.78L1017.99 1290.83L989.092 1285.94L983.004 1259.04L954.892 1250.67L952.144 1223.21L925.285 1211.44L925.936 1183.84L900.707 1168.83L904.749 1141.52L881.57 1123.58L888.955 1096.97L868.17 1076.26L878.749 1050.81L860.653 1027.72L874.276 1003.71L859.122 978.582L875.588 956.419L863.671 929.637L882.732 909.672L874.206 881.592L895.562 864.175L890.519 835.247L913.877 820.571L912.477 791.245L937.421 779.567L939.61 750.301L965.804 741.713L971.588 712.99L998.677 707.697L1007.9 679.866L1035.44 677.97L1047.99 651.493L1075.54 652.984L1091.29 628.255L1118.44 633.097L1137.13 610.507L1163.46 618.641L1184.81 598.483L1209.89 609.867L1233.51 592.469L1257.11 606.844L1282.69 592.48L1304.28 609.644L1331.4 598.524L1350.77 618.198L1379.07 610.57L1395.84 632.432L1424.89 628.341L1438.87 652.099L1468.18 651.604L1479.1 676.91L1508.27 680.004L1516 706.5L1544.55 713.135L1548.99 740.341L1576.51 750.461L1577.56 778.016L1603.64 791.428L1601.28 818.931L1625.57 835.441L1619.82 862.446L1641.84 881.797L1632.87 907.898ZM1641.07 931.385L1622.12 910.055L1630.83 884.716L1609.41 865.897L1614.98 839.692L1591.37 823.647L1593.66 796.947L1568.31 783.907L1567.29 757.159L1540.54 747.318L1536.23 720.923L1508.46 714.47L1500.96 688.744L1472.6 685.739L1462 661.177L1433.51 661.657L1419.94 638.598L1391.69 642.574L1375.41 621.356L1347.89 628.772L1329.11 609.693L1302.74 620.508L1281.78 603.85L1256.92 617.808L1234.01 603.861L1211.04 620.779L1186.68 609.733L1165.95 629.315L1140.38 621.419L1122.21 643.388L1095.87 638.684L1080.55 662.739L1053.82 661.285L1041.61 687.033L1014.88 688.878L1005.92 715.928L979.62 721.068L973.996 748.991L948.581 757.323L946.451 785.793L922.234 797.133L923.593 825.644L900.937 839.881L905.838 868.006L885.111 884.917L893.395 912.209L874.901 931.586L886.485 957.624L870.505 979.132L885.239 1003.57L872.018 1026.88L889.613 1049.33L879.348 1074.04L899.556 1094.16L892.394 1119.98L914.926 1137.43L911.001 1163.94L935.532 1178.53L934.9 1205.32L961.013 1216.76L963.68 1243.4L991.01 1251.54L996.927 1277.66L1025.04 1282.42L1034.09 1307.61L1062.58 1308.87L1074.69 1332.75L1103.08 1330.48L1118.05 1352.66L1145.96 1346.94L1163.54 1367.14L1190.53 1358.03L1210.48 1375.9L1236.11 1363.54L1258.1 1378.85L1282.04 1363.37L1305.72 1375.87L1327.63 1357.6L1352.66 1367.09L1372.14 1346.24L1398.15 1352.58L1414.92 1329.56L1441.5 1332.65L1455.31 1307.68L1482.08 1307.49L1492.7 1281.02L1519.23 1277.52L1526.55 1249.99L1552.46 1243.25L1556.33 1214.98L1581.21 1205.14L1581.55 1176.58L1605.09 1163.75L1601.93 1135.43L1623.68 1119.79L1617.04 1092.05L1636.7 1073.83L1626.77 1047.11L1644 1026.67L1630.86 1001.35L1645.48 978.931L1629.3 955.467L1641.07 931.385ZM1618.05 991.271C1618.05 1190.16 1457.06 1351.4 1258.49 1351.4C1059.9 1351.4 898.92 1190.16 898.92 991.271C898.92 792.372 1059.9 631.137 1258.49 631.137C1457.06 631.137 1618.05 792.372 1618.05 991.271ZM1515.72 1162.38C1525.9 1168.81 1534.84 1170.92 1541.02 1171.37C1542.48 1169.09 1543.9 1166.79 1545.31 1164.47C1538.54 1163.48 1529.93 1160.61 1520.55 1154.7C1510.2 1148.17 1503.45 1140.76 1499.83 1134.69L1499.67 1134.96C1498.35 1137.16 1497.01 1139.36 1495.64 1141.53C1498.5 1147.1 1504.39 1155.17 1515.72 1162.38ZM1525.94 1133.15L1547.88 1160.13C1549.83 1156.78 1551.72 1153.4 1553.56 1149.99L1554.2 1148.72L1544.77 1139.87C1541.89 1137.25 1539.6 1135.07 1536.99 1132.8L1537.06 1132.68C1540.63 1133.39 1543.46 1133.94 1547.44 1134.56L1560.2 1136.82L1561.43 1134.39C1562.94 1131.2 1564.39 1127.97 1565.81 1124.72L1530.72 1122.39L1511.58 1112.74C1509.89 1116.28 1508.11 1119.77 1506.28 1123.23L1525.94 1133.15ZM1557.26 1114.05L1568.63 1118.03C1569.52 1115.85 1570.38 1113.66 1571.22 1111.46L1577.82 1092.59C1578.56 1090.22 1579.29 1087.85 1579.99 1085.47L1568.63 1081.5L1564.93 1092.11L1525.37 1078.28C1524.15 1082.04 1522.85 1085.76 1521.48 1089.45L1561.03 1103.27L1557.26 1114.05ZM1529.56 1064.12L1582.23 1077.13L1585.07 1065.66L1532.36 1052.64C1531.51 1056.5 1530.57 1060.32 1529.56 1064.12ZM1584.99 1053.47C1586.99 1050.81 1588.71 1047.3 1589.47 1042.07C1591.08 1031.09 1585.6 1024.37 1576.21 1022.94C1568.33 1021.74 1562.66 1025.83 1558.43 1032.71C1555.66 1037.32 1553.89 1039.03 1551.29 1038.63C1548.6 1038.22 1547.23 1036.03 1547.81 1032.02C1548.44 1027.69 1550.73 1023.62 1552.77 1021.22L1541.35 1017.24C1539.41 1019.45 1536.94 1024.29 1536.17 1029.52C1534.32 1042.24 1541.34 1049.33 1550.49 1050.72C1557.9 1051.85 1563.54 1049.08 1568.15 1041.79C1571.47 1036.68 1572.91 1034.53 1575.59 1034.93C1577.95 1035.29 1579.25 1037.47 1578.73 1041.03C1578.09 1045.42 1576.12 1048.42 1574.82 1050.14L1584.99 1053.47ZM1589.29 1009.91C1591.35 1007.77 1593.17 1006.03 1593.22 1001.44C1593.27 997.527 1593.33 997.192 1593.36 995.061C1593.4 991.249 1593.37 987.448 1593.28 983.662C1593.17 982.624 1593.03 981.68 1592.88 980.835L1538.85 979.928C1539 983.815 1539.07 987.712 1539.07 991.629L1559.05 991.963L1559.03 993.856C1558.96 997.512 1557.55 999.123 1550.92 1000.19C1544.84 1001.25 1540.81 1002.19 1538.83 1002.83C1538.67 1006.94 1538.41 1011.04 1538.08 1015.1C1540.3 1014.29 1548.22 1013 1553.82 1011.73C1558.58 1010.7 1562.11 1009.19 1563.71 1006.28L1564.04 1006.29C1565.53 1009.77 1570.36 1013.97 1577.22 1014.08C1582.6 1014.17 1586.55 1012.67 1589.29 1009.91ZM1582.91 996.348C1582.75 1000.26 1580.43 1002.38 1576.27 1002.31C1572.19 1002.24 1569.45 999.647 1569.53 995.206L1569.59 992.134L1582.65 992.358C1582.8 992.945 1582.94 994.128 1582.91 996.348ZM1580.98 969.551L1592.6 968.235C1592.36 964.713 1592.06 961.213 1591.71 957.732L1590.6 947.995C1590.26 945.254 1589.86 942.52 1589.45 939.798L1535.42 945.949C1536.98 955.575 1538.06 965.364 1538.62 975.29L1550.34 973.959L1548.34 956.374L1558.4 955.232L1560.18 970.931L1572.03 969.589L1570.25 953.886L1579.08 952.874L1580.98 969.551ZM1532.73 931.668L1588.26 932.609C1587.53 928.529 1586.73 924.467 1585.87 920.439L1563.5 920.997C1557.48 921.124 1550.99 921.429 1544.15 921.957L1544.12 921.834C1550.77 919.13 1556.36 916.556 1561.97 913.708L1581.89 904.071L1581.67 903.156C1580.62 899.333 1579.51 895.535 1578.35 891.76L1529.35 917.784C1530.58 922.37 1531.71 926.996 1532.73 931.668ZM1525.32 904.25L1576.61 886.36C1575.37 882.608 1574.08 878.885 1572.72 875.195L1521.41 893.088C1522.79 896.778 1524.09 900.493 1525.32 904.25ZM1519.63 888.447L1568.82 865.172C1567.48 861.847 1566.07 858.541 1564.61 855.268L1552.85 860.817C1545.38 864.343 1538.56 867.861 1532.28 871.554L1532.19 871.379C1537.18 866.849 1542.73 861.408 1546.65 856.886L1559 843.284C1556.95 839.126 1554.81 835.006 1552.6 830.944L1503.41 854.215C1505.16 857.35 1506.85 860.523 1508.5 863.736L1520.1 858.239C1528.14 854.435 1535.62 850.76 1542.22 847.342L1542.31 847.521C1537.14 852.27 1531.73 858.013 1527.49 862.769L1514.7 876.705C1516.42 880.573 1518.08 884.486 1519.63 888.447ZM1522.91 837.006L1546.91 820.936C1544.93 817.574 1542.88 814.256 1540.78 810.976L1540.71 810.864L1514.76 828.166C1507.5 833.012 1502.63 833.51 1500.02 829.598C1497.44 825.741 1500.12 821.211 1507.04 816.592L1532.97 799.297C1530.72 796.065 1528.4 792.878 1526.02 789.728L1502.41 805.538C1487.68 815.368 1484.33 825.213 1491.03 835.266C1497.89 845.531 1508.78 846.427 1522.91 837.006ZM1495.38 773.951L1504.85 767.729C1504.21 765.137 1501.93 761.038 1497.71 756.85C1487.56 746.771 1473.12 745.194 1459.62 758.717C1454.04 764.337 1451.13 769.983 1450.6 776.357C1450.1 782.524 1452.37 788.579 1458.54 794.693C1462.62 798.743 1468.24 801.793 1471.53 803.106L1492.13 782.695L1479.89 770.548L1471.84 778.667L1476.01 782.799L1469.34 789.527C1468.8 789.334 1467.52 788.404 1466.4 787.296C1461.25 782.185 1461.7 774.234 1468.94 766.933C1476.82 758.992 1484.42 759.859 1489.57 764.965C1493.14 768.51 1494.54 771.277 1495.38 773.951ZM1438.32 775.736L1470.32 731.731C1467.54 729.451 1464.73 727.216 1461.87 725.032L1454.3 735.442C1449.45 742.111 1445.14 748.467 1441.4 754.734L1441.25 754.615C1443.45 748.248 1445.71 740.806 1446.97 734.963L1451.25 717.218C1447.46 714.537 1443.61 711.941 1439.71 709.419L1407.7 753.421C1410.75 755.344 1413.75 757.323 1416.72 759.353L1424.34 748.88C1429.57 741.687 1434.36 734.873 1438.52 728.714L1438.67 728.826C1436.43 735.468 1434.43 743.108 1432.98 749.315L1428.42 767.814C1431.78 770.381 1435.08 773.021 1438.32 775.736ZM1405.85 751.759L1419.44 697.317C1414.81 694.769 1410.11 692.322 1405.35 689.994L1368.95 732.564C1372.74 734.193 1376.48 735.892 1380.19 737.678L1387.84 728.056L1397.92 733.293L1394.72 745.22C1398.48 747.322 1402.2 749.497 1405.85 751.759ZM1407.36 702.505C1406.44 705.704 1405.12 710.078 1404.27 713.135L1401.52 722.838L1394.27 719.071L1400.46 711.253C1402.47 708.798 1405.16 705.042 1407.24 702.446L1407.36 702.505ZM1369.67 709.564L1394.37 684.861C1390.39 683.087 1386.37 681.391 1382.32 679.766L1374.42 690.146C1372.1 693.278 1370.18 695.781 1368.19 698.607L1368.07 698.563C1368.4 694.929 1368.66 692.054 1368.87 688.026L1369.81 675.106L1368.37 674.555C1364.67 673.269 1360.96 672.045 1357.2 670.884L1358.48 705.908L1350.83 725.973C1354.54 727.264 1358.21 728.636 1361.84 730.087L1369.67 709.564ZM1337.59 721.704L1351.92 669.3C1348.14 668.199 1344.34 667.173 1340.51 666.195L1326.18 718.606C1330.01 719.558 1333.82 720.595 1337.59 721.704ZM1328.17 675.348L1330.2 663.762C1327.62 663.197 1325.03 662.661 1322.42 662.156L1310.77 660.103C1307.86 659.641 1304.95 659.221 1302.02 658.838L1292.59 712.387C1302.45 713.596 1312.15 715.31 1321.66 717.516L1323.69 705.983L1306.26 702.914L1308.02 692.939L1323.58 695.684L1325.65 683.943L1310.09 681.205L1311.63 672.443L1328.17 675.348ZM1288.39 687.933C1291.3 684.995 1293.08 680.186 1293.38 674.637C1293.69 669.021 1291.94 664.011 1289.1 661.073C1286.19 657.971 1282.21 656.766 1275.88 656.421C1269.16 656.049 1264.07 655.844 1260.84 656.316L1257.85 710.271H1258C1261.87 710.271 1265.72 710.356 1269.55 710.513L1270.55 692.504C1271.25 692.627 1272.29 692.765 1273.4 692.832C1279.34 693.159 1284.58 691.731 1288.39 687.933ZM1281.75 674.325C1281.5 679.048 1278.46 681.826 1273.83 681.574C1272.59 681.499 1271.81 681.373 1271.17 681.261L1271.94 667.24C1272.54 667.106 1273.72 667.013 1275.48 667.106C1279.91 667.355 1281.98 670.245 1281.75 674.325ZM1254.32 710.2C1250.86 703.974 1247.71 694.583 1247.2 682.347C1246.73 671.204 1248.57 662.386 1251.06 656.045C1248.32 656.101 1245.6 656.19 1242.89 656.305C1240.24 661.914 1237.75 670.739 1238.2 682.723C1238.76 696.13 1242.87 705.332 1246.29 710.516C1247.28 710.479 1248.28 710.438 1249.28 710.409L1254.32 710.2ZM1209.41 692.121L1217.69 658.347C1213.84 658.812 1210.01 659.336 1206.17 659.931L1204.78 660.184L1203.41 673.053C1203.05 676.936 1202.69 680.071 1202.46 683.511L1202.33 683.537C1200.73 680.261 1199.47 677.668 1197.56 674.117L1191.66 662.583L1188.98 663.071C1185.52 663.796 1182.07 664.573 1178.63 665.406L1197.94 694.792L1201.79 715.887C1205.64 715.102 1209.5 714.403 1213.36 713.789L1209.41 692.121ZM1177.25 722.05L1164.4 682.165L1175.28 678.661L1171.6 667.203C1169.32 667.805 1167.05 668.441 1164.79 669.092L1145.75 675.221C1143.43 676.051 1141.1 676.91 1138.77 677.787L1142.46 689.235L1153.15 685.791L1166 725.683C1169.73 724.385 1173.48 723.18 1177.25 722.05ZM1152.18 730.886L1130.76 681.031L1119.9 685.694L1141.33 735.58C1144.92 733.936 1148.54 732.367 1152.18 730.886ZM1104.09 705.6C1107.98 703.461 1111.56 703.223 1113.72 703.223L1110.24 693.103C1106.91 693.118 1103.08 693.858 1098.45 696.413C1088.72 701.754 1086.67 710.182 1091.19 718.524C1094.98 725.534 1101.67 727.587 1109.71 726.806C1115.05 726.241 1117.48 726.628 1118.74 728.938C1120.03 731.329 1119.11 733.743 1115.57 735.692C1111.73 737.797 1107.1 738.436 1103.96 738.254L1107.68 749.772C1110.61 749.973 1115.96 749.032 1120.59 746.485C1131.86 740.281 1133.27 730.41 1128.87 722.276C1125.3 715.69 1119.68 712.859 1111.09 713.585C1105.01 714.016 1102.42 714.169 1101.12 711.785C1099.99 709.683 1100.94 707.333 1104.09 705.6ZM1085.25 738.288C1087.13 734.989 1087.56 728.607 1083.51 723.069C1080.34 718.717 1076.76 716.478 1072.91 715.961C1069.96 715.604 1067.47 715.203 1063.78 717.932C1060.63 720.261 1060.33 720.406 1058.61 721.674C1055.54 723.939 1052.53 726.26 1049.56 728.607C1048.8 729.336 1048.13 730.012 1047.56 730.641L1079.44 774.275C1082.44 771.809 1085.51 769.402 1088.63 767.037L1076.84 750.899L1078.37 749.784C1081.32 747.627 1083.46 747.783 1088.3 752.432C1092.82 756.627 1096.01 759.283 1097.7 760.465C1101.08 758.118 1104.5 755.85 1107.95 753.667C1105.95 752.387 1100.15 746.842 1095.76 743.145C1092.07 739.972 1088.73 738.061 1085.45 738.548L1085.25 738.288ZM1073.1 740.586L1070.63 742.397L1062.91 731.853C1063.3 731.374 1064.15 730.544 1065.94 729.239C1069.16 726.989 1072.24 727.565 1074.7 730.927C1077.11 734.223 1076.69 737.96 1073.1 740.586ZM1033.58 758.509L1045.74 746.935L1037.68 738.474C1035.02 740.787 1032.4 743.13 1029.83 745.51L1022.74 752.272C1020.76 754.202 1018.82 756.162 1016.9 758.137L1054.4 797.512C1061.13 790.453 1068.29 783.688 1075.87 777.254L1067.73 768.711L1054.92 780.913L1047.94 773.587L1059.38 762.686L1051.17 754.057L1039.72 764.958L1033.58 758.509ZM1044.64 808.279L1011.89 763.426C1009.07 766.468 1006.31 769.551 1003.62 772.675L1017.57 790.174C1021.3 794.898 1025.45 799.881 1030 805.021L1029.92 805.125C1023.75 801.451 1018.33 798.546 1012.67 795.79L992.969 785.722L992.377 786.451C989.954 789.59 987.59 792.77 985.292 795.976L1035.61 819.351C1038.52 815.595 1041.53 811.906 1044.64 808.279ZM1027.25 830.728L982.025 800.618C979.781 803.865 977.596 807.145 975.48 810.459L1020.71 840.573C1022.81 837.256 1024.99 833.968 1027.25 830.728ZM1018.08 844.791L969.827 819.608C967.996 822.691 966.209 825.812 964.473 828.947L976.002 834.987C983.318 838.807 990.236 842.128 996.978 844.906L996.89 845.081C990.269 843.831 982.569 842.689 976.605 842.299L958.305 840.651C956.222 844.798 954.231 848.982 952.327 853.204L1000.57 878.394C1002.01 875.098 1003.52 871.833 1005.09 868.59L993.704 862.65C985.814 858.529 978.374 854.792 971.669 851.586L971.756 851.411C978.659 852.657 986.501 853.509 992.863 854.029L1011.69 855.818C1013.73 852.103 1015.86 848.428 1018.08 844.791ZM975.074 873.22L947.774 863.777C946.297 867.381 944.883 871.022 943.531 874.675L943.487 874.797L972.937 885.051C981.184 887.919 984.528 891.5 982.982 895.945C981.455 900.326 976.233 900.925 968.369 898.187L938.934 887.945C937.724 891.701 936.573 895.472 935.495 899.266L962.347 908.556C979.079 914.373 988.949 911.1 992.922 899.69C996.974 888.03 991.113 878.799 975.074 873.22ZM983.559 930.377L929.776 922.128C929.038 925.631 928.355 929.161 927.73 932.713L940.52 934.676C948.676 935.93 956.299 936.834 963.578 937.291L963.545 937.484C956.88 938.44 949.228 939.846 943.458 941.404L925.698 945.745C925.077 950.327 924.547 954.939 924.112 959.576L977.903 967.837C978.199 964.237 978.56 960.659 978.995 957.099L966.205 955.136C957.41 953.786 949.158 952.651 941.777 951.781L941.806 951.588C948.742 950.539 956.434 948.817 962.624 947.251L981.1 942.844C981.827 938.656 982.646 934.502 983.559 930.377ZM977.453 974.026L923.184 971.809C922.958 975.729 922.8 979.664 922.713 983.614L976.982 985.838C977.059 981.881 977.212 977.946 977.453 974.026ZM955.681 992.484L922.632 993.775C922.662 997.728 922.757 1001.67 922.921 1005.59L956.123 1004.29C963.553 1004.01 965.727 1006.4 965.866 1010.19C965.939 1012.08 965.606 1013.92 965.179 1015.38L976.814 1016.23C977.61 1013.98 977.895 1010.76 977.8 1008.35C977.406 997.78 971.343 991.87 955.681 992.484ZM978.191 1018.19L924.503 1027.07C924.88 1030.65 925.315 1034.22 925.808 1037.77L938.55 1035.66C946.688 1034.32 954.212 1032.81 961.28 1030.99L961.309 1031.17C955.265 1034.16 948.431 1037.87 943.432 1041.15L927.898 1050.8L928.128 1052.2C928.881 1056.31 929.711 1060.39 930.61 1064.45L984.298 1055.57C983.483 1052.08 982.73 1048.56 982.047 1045.02L969.326 1047.13C960.545 1048.58 952.352 1050.06 945.066 1051.54L945.033 1051.34C951.296 1048.19 958.079 1044.15 963.472 1040.74L979.671 1030.8C979.087 1026.63 978.593 1022.42 978.191 1018.19ZM985.178 1059.23L937.026 1088.89C938.558 1093.93 940.198 1098.92 941.963 1103.86L998.165 1098.73C996.594 1094.93 995.103 1091.09 993.696 1087.2L981.539 1088.74L977.99 1077.94L988.569 1071.68C987.345 1067.57 986.212 1063.42 985.178 1059.23ZM970.656 1090.66L960.753 1091.92C957.6 1092.27 953.061 1093.07 949.754 1093.47L949.71 1093.35C952.608 1091.7 956.609 1089.5 959.357 1087.92L968.106 1082.91L970.656 1090.66ZM999.357 1101.57L949.86 1123.95C951.417 1127.57 953.047 1131.17 954.724 1134.72L1004.23 1112.35C1002.54 1108.79 1000.91 1105.2 999.357 1101.57ZM968.281 1135.17L957.812 1141.07C962.968 1151.39 968.643 1161.4 974.8 1171.08L985.226 1165.21L979.708 1155.42L1016.24 1134.81C1014.23 1131.42 1012.29 1127.99 1010.41 1124.52L973.894 1145.12L968.281 1135.17ZM1043.61 1226.85C1041.27 1228.52 1046.72 1236.29 1051.92 1239.08C1055.28 1240.89 1060.1 1240.15 1063.7 1239.64C1068.67 1238.94 1073.86 1238.18 1078.14 1235.37C1081.69 1233.03 1085.02 1230.27 1088.28 1227.56C1089.85 1226.24 1091.41 1224.94 1092.93 1223.58C1096.64 1220.31 1101.65 1216.36 1101.65 1216.36C1101.65 1216.36 1093.9 1231.71 1090.92 1239.1C1087.95 1246.48 1086.93 1257.38 1089.27 1260.62C1091.6 1263.85 1098.36 1263.67 1099.61 1264.11C1100.86 1264.55 1107.45 1266.72 1110.87 1267.92C1114.29 1269.11 1115.24 1266.52 1113.76 1265.46C1112.29 1264.39 1111.85 1264.03 1108.92 1262.06C1105.98 1260.1 1102.04 1256.86 1101.81 1256.23C1101.59 1255.62 1101.65 1252.14 1101.8 1249.63C1101.96 1247.12 1102.22 1234.27 1102.87 1230.26C1103.52 1226.25 1106.41 1216.45 1106.41 1216.45C1106.41 1216.45 1110.83 1216.25 1117.38 1217.38C1123.95 1218.51 1125.37 1217.48 1126.27 1216.74C1127.16 1216.02 1128.11 1215.03 1125.47 1214.33C1122.82 1213.62 1118.51 1209.94 1118.15 1209.65C1117.81 1209.36 1117.15 1208.54 1115.86 1208.51C1114.57 1208.47 1113.7 1207.18 1113.7 1207.18C1113.7 1207.18 1113.39 1206.33 1114.11 1205.46C1114.83 1204.58 1114.53 1201.54 1114.53 1201.54C1115.8 1203.76 1122.98 1204.66 1126.01 1204.36C1129.05 1204.06 1134.91 1203.88 1137.29 1203.49C1139.66 1203.09 1140.56 1204.86 1143.94 1203.07C1146.1 1201.93 1144.58 1202.95 1146.7 1201.58C1148.82 1200.21 1148.36 1199.56 1147.69 1198.3C1147.03 1197.05 1144.87 1196.41 1143.05 1195.34C1141.24 1194.28 1138.86 1193.04 1137.8 1192.45C1136.73 1191.86 1137.23 1192.27 1134.08 1191.8C1130.93 1191.34 1127.04 1189.71 1123.13 1188.62C1119.22 1187.53 1117.57 1186.6 1116.72 1185.9C1115.88 1185.22 1115.41 1184.41 1113.24 1185.16C1111.81 1185.66 1111.86 1187.17 1112.04 1188.41C1112.26 1189.93 1112.11 1190.87 1112.02 1192.39C1111.94 1193.63 1112.84 1194.65 1112.6 1195.95C1112.6 1195.95 1111.82 1195.17 1110.48 1194.21C1109.15 1193.26 1108.03 1195.31 1107.2 1196.33C1106.37 1197.33 1103.89 1200.54 1102.8 1201.34C1101.72 1202.14 1100.63 1203.65 1099.52 1205C1098.41 1206.35 1094.68 1209.47 1094.68 1209.47C1092.37 1209.78 1075.69 1207.39 1072.83 1206.95C1069.96 1206.51 1067.82 1201.08 1067.82 1201.08C1064.5 1202.31 1062.94 1208.65 1063.11 1211.79C1063.21 1213.66 1063.76 1215.84 1064.6 1217.52C1066.01 1220.29 1070.67 1221.92 1075.44 1221.12C1080.2 1220.33 1087.44 1217.76 1087.44 1217.76C1084.41 1222.17 1081.83 1224.6 1070.97 1230.51C1060.11 1236.42 1055.37 1232.54 1052.17 1231.08C1048.96 1229.62 1045.04 1225.82 1043.61 1226.85ZM1108.3 1211.36C1109.08 1209.88 1111.12 1209.1 1111.12 1209.1L1111.82 1208.8C1113.81 1209.31 1113.52 1211.88 1112.99 1211.67C1112.58 1211.51 1108.3 1211.36 1108.3 1211.36ZM1110.87 1077.99C1157.41 1160.77 1231.25 1198.2 1249.72 1206.86L1258 1210.14L1266.28 1206.86C1284.75 1198.2 1358.59 1160.77 1405.15 1077.99C1425.57 1041.43 1433.31 1002.3 1434.31 966.048L1434.33 965.293H1434.35L1434.79 949.274C1434.79 949.274 1414.41 943.019 1408.33 938.961C1399.02 932.761 1396.45 925.434 1400.96 915.961C1405.27 906.913 1429.81 899.303 1429.81 899.303L1425.7 880.67C1425.43 879.465 1425.16 878.264 1424.88 877.07H1424.87C1414.77 833.291 1400.53 803.641 1400.03 802.574L1391.76 785.369L1374.64 791.413C1364.16 795.136 1353.8 796.649 1343.78 796.649C1305.67 796.988 1271.81 765.839 1270.29 764.46L1258 755.009L1245.69 764.46H1245.71C1244.19 765.839 1210.33 796.988 1172.22 796.649C1162.2 796.649 1151.86 795.136 1141.35 791.413L1124.24 785.369L1115.97 802.574C1115.46 803.664 1100.44 834.924 1090.3 880.67L1086.2 899.303C1086.2 899.303 1110.73 906.913 1115.04 915.961C1119.56 925.434 1116.98 932.761 1107.68 938.961C1101.6 943.019 1081.22 949.274 1081.22 949.274L1081.68 966.048C1082.7 1002.3 1090.43 1041.43 1110.87 1077.99ZM1120.93 1071.46C1101.76 1037.14 1094.4 1000.3 1093.42 965.665L1093.22 958.219L1099.77 955.787C1109.4 952.227 1117.23 946.898 1122.34 941.059C1127.49 935.182 1129.88 929.161 1129.88 923.229C1129.88 922.879 1129.88 922.537 1129.85 922.228C1129.6 917.189 1127.69 912.376 1123.89 907.642C1120.09 902.955 1114.37 898.555 1107.17 895.242L1099.93 891.88L1101.75 883.586C1111.53 839.335 1126.18 808.882 1126.4 808.398L1130.09 800.74L1137.69 803.441C1149.48 807.625 1161.09 809.295 1172.25 809.295H1172.52C1214.04 809.295 1248.74 777.667 1252.26 774.963L1252.53 774.758L1258 770.589L1263.46 774.758L1263.76 774.963C1267.27 777.67 1302.12 809.443 1343.77 809.295C1354.91 809.295 1366.51 807.625 1378.32 803.441L1385.91 800.74L1389.6 808.398C1389.82 808.856 1403.07 836.419 1412.78 877.181C1413 878.074 1413.21 878.97 1413.42 879.874C1413.5 880.227 1413.58 880.584 1413.67 880.938C1413.78 881.47 1413.9 881.998 1414.02 882.533C1414.11 882.883 1414.18 883.232 1414.26 883.586L1415.1 887.443L1416.07 891.88L1408.83 895.242C1401.64 898.555 1395.91 902.955 1392.12 907.642C1388.32 912.376 1386.41 917.189 1386.16 922.228C1386.14 922.537 1386.12 922.879 1386.12 923.229C1386.14 929.161 1388.51 935.182 1393.66 941.059C1398.78 946.898 1406.61 952.227 1416.24 955.787L1422.78 958.219L1422.63 964.322L1422.58 965.665C1421.6 1000.3 1414.26 1037.14 1395.06 1071.46C1350.8 1150.48 1278.97 1187.21 1261.68 1195.22L1258 1196.42L1254.32 1195.22C1237.04 1187.21 1165.2 1150.48 1120.93 1071.46ZM1102.82 965.356C1103.76 998.695 1110.81 1033.7 1128.99 1066.25C1171.44 1142.27 1241.68 1178.42 1258.01 1185.91C1258.01 1185.91 1334.33 1160.58 1386.98 1066.25C1405.17 1033.7 1412.22 998.695 1413.18 965.356C1390.85 957.107 1375.83 940.333 1376.74 921.7C1377.45 906.515 1388.59 893.568 1405.09 885.947C1395.59 842.883 1381.23 813.058 1381.23 813.058C1317.02 835.779 1258.01 782.992 1258.01 782.992C1258.01 782.992 1198.93 835.779 1134.75 813.058C1134.75 813.058 1120.4 842.883 1110.9 885.947C1127.37 893.568 1138.52 906.515 1139.24 921.7C1140.1 940.333 1125.09 957.107 1102.82 965.356ZM1275.19 882.559C1275.19 889.272 1274.42 895.376 1273.4 901.293C1272.95 903.87 1270.7 905.689 1268.18 905.689L1267.25 905.607C1264.37 905.105 1262.43 902.357 1262.93 899.47C1263.91 893.877 1264.57 888.465 1264.57 882.559C1264.57 873.73 1263.1 863.684 1258.58 850.262C1257.65 847.48 1259.15 844.467 1261.92 843.534C1264.69 842.596 1267.71 844.091 1268.64 846.873C1273.46 861.137 1275.2 872.495 1275.19 882.559ZM1292.49 881.812C1292.49 887.699 1291.87 893.125 1290.99 898.541C1290.11 903.96 1288.99 909.371 1287.94 915.37C1286.18 925.464 1284.57 937.522 1284.57 954.675C1284.57 971.872 1286.2 994.176 1291.03 1024.44C1291.49 1027.34 1289.53 1030.06 1286.63 1030.52L1285.79 1030.59C1283.23 1030.59 1280.97 1028.72 1280.55 1026.12C1275.65 995.422 1273.95 972.553 1273.95 954.675C1273.95 936.867 1275.65 923.995 1277.49 913.54C1278.58 907.344 1279.68 901.947 1280.51 896.848C1281.34 891.742 1281.87 886.944 1281.87 881.812C1281.87 873.302 1280.41 863.725 1275.88 850.262C1274.94 847.48 1276.44 844.467 1279.22 843.534C1282 842.596 1285 844.091 1285.95 846.873C1290.75 861.099 1292.5 872.015 1292.49 881.812ZM1309.79 882.559C1309.79 889.272 1309.02 895.376 1307.99 901.293C1307.54 903.87 1305.3 905.689 1302.77 905.689L1301.85 905.607C1298.96 905.105 1297.03 902.357 1297.53 899.47C1298.5 893.877 1299.17 888.465 1299.17 882.559C1299.16 873.73 1297.7 863.684 1293.18 850.262C1292.24 847.48 1293.75 844.467 1296.52 843.534C1299.3 842.596 1302.3 844.091 1303.24 846.873C1308.05 861.137 1309.8 872.495 1309.79 882.559ZM1340.85 1030.84C1337.91 1030.84 1335.54 1028.46 1335.54 1025.53V960.194H1318.81C1315.81 960.194 1313.37 957.821 1313.37 954.887C1313.37 951.956 1315.81 949.579 1318.81 949.579H1335.54V928.949H1318.81C1315.81 928.949 1313.37 926.569 1313.37 923.634C1313.37 920.703 1315.81 918.331 1318.81 918.331H1335.54V897.592H1318.81C1315.81 897.592 1313.37 895.216 1313.37 892.285C1313.37 889.354 1315.81 886.974 1318.81 886.974H1325.4C1325.52 885.259 1325.6 883.53 1325.6 881.76C1325.59 873.44 1324.14 864 1319.6 850.399C1318.67 847.599 1320.16 844.56 1322.94 843.619C1325.72 842.674 1328.73 844.177 1329.66 846.981C1334.45 861.315 1336.22 872.108 1336.22 881.76C1336.22 883.541 1336.14 885.271 1336.03 886.974H1345.33C1345.22 885.271 1345.15 883.541 1345.15 881.76C1345.14 872.108 1346.9 861.315 1351.69 846.981C1352.63 844.177 1355.64 842.674 1358.42 843.619C1361.2 844.56 1362.69 847.599 1361.75 850.399C1357.22 864 1355.77 873.44 1355.77 881.76C1355.77 883.53 1355.84 885.259 1355.96 886.974H1362.55C1365.55 886.974 1367.99 889.354 1367.99 892.285C1367.99 895.216 1365.55 897.592 1362.55 897.592H1346.15V918.331H1362.55C1365.55 918.331 1367.99 920.703 1367.99 923.634C1367.99 926.569 1365.55 928.949 1362.55 928.949H1346.15V949.579H1362.55C1365.55 949.579 1367.99 951.956 1367.99 954.887C1367.99 957.821 1365.55 960.194 1362.55 960.194H1346.15V1025.53C1346.15 1028.46 1343.78 1030.84 1340.85 1030.84ZM1302.9 1110.24C1303.69 1107.86 1306.39 1106.56 1308.9 1107.3C1310.61 1107.81 1312.93 1108.04 1315.66 1108.2C1316.1 1108.23 1316.57 1108.23 1317.03 1108.23C1320.4 1108.26 1323.96 1107.46 1326.39 1106.09C1328.84 1104.67 1330.12 1103.13 1330.46 1100.78C1330.51 1100.33 1330.54 1099.89 1330.54 1099.51C1330.41 1096.31 1329.18 1095.12 1326.47 1093.64C1323.8 1092.32 1319.76 1091.75 1316.88 1091.76C1315.58 1091.76 1314.49 1091.88 1314.1 1091.97V1091.95C1312.63 1092.48 1310.96 1092.29 1309.67 1091.46C1308.36 1090.6 1307.57 1089.23 1307.6 1087.71L1307.81 1068.78C1307.88 1066.33 1310 1064.33 1312.62 1064.33H1331.53C1334.17 1064.33 1336.32 1066.34 1336.32 1068.81C1336.32 1071.3 1334.17 1073.29 1331.53 1073.29H1317.36L1317.23 1082.79C1321.17 1082.85 1326.19 1083.47 1330.88 1085.68C1335.68 1087.84 1340.24 1092.77 1340.13 1099.51C1340.13 1100.27 1340.08 1101.07 1339.99 1101.88C1339.29 1107.33 1335.58 1111.48 1331.26 1113.81C1326.93 1116.19 1321.87 1117.18 1317.03 1117.21C1316.37 1117.21 1315.71 1117.18 1315.03 1117.16C1312.17 1116.96 1309.16 1116.75 1306.05 1115.84C1303.5 1115.11 1302.11 1112.58 1302.9 1110.24ZM1300.26 1012.17C1297.64 1012.17 1295.35 1010.22 1295.01 1007.55C1292.27 986.377 1291.25 968.871 1291.25 954.496C1291.25 944.763 1291.71 936.465 1292.43 929.443H1292.44C1292.73 926.528 1295.34 924.404 1298.25 924.705C1301.17 925.003 1303.29 927.606 1302.99 930.522C1302.31 937.168 1301.86 945.101 1301.86 954.496C1301.86 968.369 1302.85 985.421 1305.54 1006.18C1305.91 1009.09 1303.86 1011.75 1300.96 1012.13L1300.26 1012.17ZM1258.93 1078.62C1259.04 1069.42 1267.83 1062.96 1277.66 1062.94C1285.31 1062.95 1292.3 1066.88 1295.08 1072.95L1295.59 1073.75C1295.75 1074.14 1297.35 1077.69 1297.35 1083.16C1297.48 1092.01 1292.61 1105.72 1272.68 1116.57C1271.93 1116.99 1271.07 1117.21 1270.25 1117.21C1268.62 1117.21 1267.02 1116.42 1266.11 1115.01C1264.78 1112.87 1265.53 1110.13 1267.8 1108.86C1277.66 1103.32 1282.72 1097.79 1285.25 1092.94C1282.91 1093.82 1280.32 1094.3 1277.66 1094.32C1267.83 1094.3 1259.04 1087.84 1258.93 1078.62ZM1256.65 954.496C1256.65 944.763 1257.12 936.465 1257.84 929.443C1258.13 926.528 1260.74 924.404 1263.65 924.705C1266.58 925.003 1268.7 927.606 1268.4 930.522C1267.72 937.168 1267.27 945.101 1267.27 954.496C1267.27 968.369 1268.25 985.421 1270.94 1006.18C1271.31 1009.09 1269.26 1011.75 1266.36 1012.13L1265.67 1012.17C1263.04 1012.17 1260.76 1010.22 1260.41 1007.55C1257.67 986.377 1256.65 968.871 1256.65 954.496ZM1209.85 1101.29C1209.85 1096.55 1212.48 1092.4 1216.16 1089.67L1216.37 1089.55C1212.94 1086.86 1210.58 1082.89 1210.58 1078.39C1210.58 1073.76 1213.05 1069.71 1216.61 1067.01C1220.21 1064.26 1224.92 1062.71 1230.03 1062.71C1235.14 1062.71 1239.87 1064.26 1243.44 1067.01C1247.02 1069.71 1249.51 1073.76 1249.51 1078.39C1249.51 1082.89 1247.13 1086.86 1243.71 1089.54L1243.91 1089.67C1247.61 1092.4 1250.24 1096.55 1250.24 1101.29C1250.24 1106.02 1247.61 1110.17 1243.91 1112.88C1240.18 1115.63 1235.33 1117.18 1230.03 1117.21C1224.74 1117.18 1219.89 1115.63 1216.16 1112.88C1212.48 1110.17 1209.85 1106.02 1209.85 1101.29ZM1210.41 846.219L1210.42 846.223C1211.59 843.53 1214.72 842.314 1217.41 843.496C1220.08 844.675 1221.3 847.8 1220.13 850.485L1220.12 850.492L1220.12 850.511L1220.04 850.693C1219.97 850.864 1219.86 851.132 1219.72 851.511C1219.43 852.263 1219.01 853.427 1218.49 855.007C1217.46 858.161 1216.06 862.955 1214.69 869.386C1214.4 870.725 1214.12 872.149 1213.84 873.637C1215.88 875.526 1217.68 877.739 1219.3 880.171C1221.63 883.686 1223.6 887.669 1225.34 891.924C1228.81 900.437 1231.33 910.081 1233.2 919.227C1236.94 937.499 1238.08 953.771 1238.1 953.927C1238.31 957.021 1236.12 959.722 1233.2 959.948L1232.8 959.967C1230.05 959.967 1227.72 957.721 1227.52 954.764L1227.5 954.485C1227.48 954.291 1227.46 953.998 1227.43 953.607C1227.36 952.826 1227.26 951.688 1227.12 950.241C1226.83 947.348 1226.37 943.238 1225.7 938.429C1224.37 928.822 1222.14 916.378 1218.77 905.365C1216.77 898.805 1214.32 892.761 1211.61 888.205C1210.3 898.983 1209.46 912.034 1209.72 927.372C1210.18 953.135 1213.74 985.302 1223.5 1023.75C1224.21 1026.59 1222.5 1029.48 1219.66 1030.2C1219.25 1030.3 1218.84 1030.36 1218.44 1030.36C1216.03 1030.41 1213.83 1028.79 1213.21 1026.36C1203.27 987.143 1199.59 954.154 1199.12 927.562C1198.19 874.373 1210.14 846.818 1210.41 846.219ZM1188.73 1067.97C1188.73 1065.5 1190.89 1063.49 1193.52 1063.49C1196.16 1063.49 1198.33 1065.5 1198.33 1067.97V1112.72C1198.33 1115.21 1196.16 1117.21 1193.52 1117.21C1190.89 1117.21 1188.73 1115.21 1188.73 1112.72V1067.97ZM1148.03 953.927C1148.03 953.83 1148.53 946.775 1149.92 936.785C1151.32 926.792 1153.6 913.871 1157.26 901.892C1159.72 893.903 1162.75 886.323 1166.83 880.171C1168.44 877.739 1170.24 875.526 1172.28 873.637C1169.42 858.559 1166.12 850.786 1165.99 850.492C1164.82 847.807 1166.03 844.675 1168.72 843.496C1171.39 842.314 1174.52 843.53 1175.7 846.223C1175.97 846.818 1187.93 874.373 1187 927.562C1186.53 954.154 1182.85 987.143 1172.9 1026.36C1172.29 1028.79 1170.08 1030.41 1167.68 1030.36C1167.27 1030.36 1166.87 1030.3 1166.46 1030.2C1163.62 1029.48 1161.9 1026.59 1162.62 1023.75C1172.37 985.302 1175.94 953.135 1176.39 927.372C1176.66 912.038 1175.82 898.979 1174.52 888.205C1173.32 890.21 1172.17 892.504 1171.09 895.007C1168.15 901.817 1165.79 910.137 1163.98 918.342C1160.34 934.754 1158.92 950.695 1158.65 954.094C1158.62 954.552 1158.6 954.764 1158.6 954.764C1158.4 957.721 1156.07 959.967 1153.32 959.967L1152.92 959.948C1150 959.722 1147.81 957.021 1148.03 953.927ZM1219.45 1101.29C1219.45 1102.86 1220.26 1104.44 1222.12 1105.87C1223.98 1107.25 1226.83 1108.25 1230.03 1108.25C1233.26 1108.25 1236.1 1107.25 1237.96 1105.87C1239.82 1104.44 1240.65 1102.86 1240.65 1101.29C1240.65 1099.7 1239.82 1098.11 1237.96 1096.7C1236.1 1095.31 1233.26 1094.31 1230.03 1094.31H1230C1226.81 1094.31 1223.98 1095.31 1222.12 1096.7C1220.26 1098.11 1219.45 1099.7 1219.45 1101.29ZM1237.39 1082.85C1239.15 1081.49 1239.92 1079.96 1239.92 1078.39C1239.92 1076.82 1239.15 1075.28 1237.4 1073.93C1235.65 1072.6 1233.04 1071.67 1230.03 1071.67H1230.02C1227.03 1071.67 1224.41 1072.6 1222.7 1073.93C1220.94 1075.28 1220.16 1076.82 1220.16 1078.39C1220.16 1079.96 1220.94 1081.49 1222.7 1082.85C1224.41 1084.17 1227.06 1085.11 1230.03 1085.11C1233.04 1085.11 1235.65 1084.17 1237.39 1082.85ZM1270.91 1074.09C1269.3 1075.43 1268.51 1076.98 1268.48 1078.62C1268.51 1080.28 1269.3 1081.82 1270.91 1083.15C1272.52 1084.44 1274.91 1085.35 1277.66 1085.35C1280.37 1085.35 1282.76 1084.44 1284.4 1083.15C1286.02 1081.82 1286.81 1080.28 1286.82 1078.62C1286.81 1076.98 1286.02 1075.43 1284.4 1074.09C1282.76 1072.81 1280.37 1071.9 1277.66 1071.9H1277.64C1274.89 1071.9 1272.52 1072.81 1270.91 1074.09ZM1167.15 1295.89C1166.93 1297.95 1165.35 1302.26 1168.91 1302.36C1172.32 1302.45 1172.2 1301.43 1174.12 1298.02C1175.62 1295.36 1177.25 1293.96 1178.58 1291.03C1179.91 1288.1 1180.49 1288.21 1180.81 1287.27C1181.11 1286.33 1181.09 1285.01 1181.79 1282.35C1182.5 1279.71 1183.63 1275.49 1184 1273.97C1184.38 1272.45 1184.92 1271.29 1185.66 1269.42C1186.39 1267.55 1188.15 1266.8 1189.53 1266.55C1190 1266.47 1193.71 1266.85 1194.18 1266.89L1194.34 1267.4C1194.51 1267.65 1193.75 1267.57 1199.47 1269.62C1199.63 1269.68 1199.36 1270.87 1199.32 1271.41C1199.23 1272.48 1199.24 1273.61 1198.94 1274.65C1198.94 1274.65 1195.9 1275.1 1195.71 1276.03C1195.51 1276.96 1195.17 1277.71 1196.3 1278.22C1197.43 1278.72 1198.1 1279.37 1198.1 1279.37C1198.1 1279.37 1198.22 1280.45 1197.89 1282.18C1197.71 1283.07 1197.46 1283.01 1197.41 1283.22C1197.35 1283.52 1195.22 1283.61 1194.85 1283.81C1193.61 1284.49 1193.51 1286.27 1194.92 1287.96C1195.45 1288.6 1196.27 1288.07 1196.49 1288.75C1196.78 1289.7 1195.55 1290.98 1195.33 1291.25C1194.57 1292.21 1193.15 1293.71 1191.28 1294.04C1189.41 1294.37 1187.51 1295.05 1182.44 1293.86C1181.71 1293.69 1180.98 1294.36 1180.54 1295.16C1180.57 1295.73 1180.54 1296.32 1180.16 1297.05L1180.28 1297.24C1181.01 1297.96 1182.04 1298.84 1182.61 1299.85C1183.18 1300.85 1182.58 1301.34 1184.59 1301.9C1187.5 1302.7 1188.24 1300.56 1190.6 1301.28C1192.95 1302 1190.64 1303.64 1190.37 1304.61C1190.09 1305.62 1188.71 1306.46 1188.08 1307.26C1186.42 1309.32 1186.98 1312.62 1187.91 1314.86C1188.63 1316.57 1190.2 1321.39 1192.86 1320.3C1193.9 1319.87 1197.75 1316.31 1198.98 1314.96C1200.22 1313.6 1200.83 1312.67 1201.18 1311.46C1201.51 1310.25 1202.52 1299.84 1203.45 1299.31C1205.03 1298.42 1207.77 1298.84 1209.52 1298.66C1212.64 1298.33 1215.84 1297.83 1218.93 1297.25C1220.04 1297.05 1221.13 1296.78 1222.23 1296.53C1223.59 1296.22 1224.84 1295.55 1226.2 1295.21C1227.33 1294.92 1228.9 1294.74 1229.73 1293.83C1230.45 1293.06 1231.09 1292.51 1231.19 1291.69C1231.28 1290.87 1230.77 1289.88 1230.23 1289.28C1229.45 1288.39 1227.83 1288.41 1226.79 1287.98C1224.01 1286.85 1221.61 1285.18 1219.19 1283.45C1218.24 1282.79 1216.15 1281.96 1215.59 1280.93C1215.22 1281.06 1215.59 1280.93 1215.44 1281.5C1215.44 1281.83 1215.84 1282.72 1216.6 1285.06C1217.53 1287.96 1218.76 1290.54 1217.86 1290.8C1215.44 1291.49 1212.86 1291.4 1210.4 1292.04C1209.55 1292.27 1208.94 1292.42 1208.17 1292.66C1207.39 1292.9 1207.05 1293.07 1206.19 1292.84C1205.34 1292.6 1204.43 1291.76 1204.11 1290.63C1203.79 1289.5 1203.86 1288.99 1205.01 1288.72C1206.15 1288.45 1208.92 1287.4 1209.17 1286.03C1209.41 1284.67 1208.88 1284.68 1208.35 1283.75C1207.83 1282.83 1205.28 1285.61 1206.71 1280.73L1206.96 1279.87L1209.9 1279.69C1210.15 1279.62 1210.48 1279.55 1210.98 1279.43C1212.24 1279.15 1215.1 1278.61 1216.28 1277.76C1216.62 1277.51 1217.23 1275.85 1217.32 1275.56C1217.44 1275.19 1217.94 1274.5 1216.52 1273.75C1215.09 1273.01 1215.47 1273.88 1213.7 1274.17C1211.95 1274.46 1207.91 1274.52 1207.91 1274.52C1207.91 1274.52 1208.16 1273.25 1208.28 1272.05L1208.44 1271.09L1208.48 1270.97C1208.48 1270.97 1208.98 1269.71 1211.55 1267.89C1214.16 1266.02 1223.46 1264.38 1226.59 1263.99C1229.72 1263.59 1235.02 1263.01 1236.07 1262.94C1237.12 1262.87 1237.28 1261.52 1236.65 1259.97C1236.05 1258.49 1234.89 1259.13 1233.73 1259.31C1232.34 1259.53 1230.96 1259.08 1229.56 1259.14C1228.14 1259.2 1226.72 1259.51 1225.32 1259.73C1223.38 1260.03 1219.49 1260.86 1218.25 1260.94C1217.01 1261.02 1215.16 1261.69 1214.27 1261.87C1213.4 1262.04 1213.48 1261.72 1214.46 1260.42C1215.45 1259.11 1217.89 1259.12 1218.85 1259.14C1219.81 1259.16 1221.4 1258.48 1223.15 1257.72C1225.78 1256.57 1227.91 1254.66 1230.18 1252.95C1231.36 1252.07 1232.66 1251.28 1233.79 1250.36C1234.68 1249.63 1235.59 1248.76 1236.08 1247.7C1236.63 1246.54 1236.16 1245.85 1235.67 1244.77C1234.81 1242.86 1231.54 1243.34 1229.88 1243.28C1229.44 1243.27 1228.82 1243.15 1228.39 1243.31C1227.29 1243.73 1225.44 1245.76 1224.06 1244.85C1223.62 1244.57 1224.36 1241.99 1224.63 1240.45C1224.91 1238.9 1223.4 1237.53 1221.93 1235.76C1220.46 1233.99 1218.65 1230.8 1216.06 1230.13C1213.47 1229.45 1211.48 1234.35 1210.83 1236.1C1210.4 1237.27 1210.12 1238.51 1209.68 1239.68C1209.27 1240.78 1208.6 1241.72 1208.11 1242.78C1207.28 1244.62 1207.36 1248.76 1204.68 1249.09C1204.08 1249.17 1203.85 1250.03 1203.25 1250.63C1202.64 1251.21 1200.64 1251.96 1200.9 1252.95C1201.15 1253.94 1203.34 1252.72 1203.71 1252.76C1204.09 1252.81 1204.39 1253.92 1204.45 1254.16C1204.71 1255.21 1203.81 1256.9 1203.58 1257.92C1203.16 1259.69 1203.05 1261.7 1202.34 1263.39C1201.95 1264.33 1196.47 1263.7 1194.74 1263.78L1194.35 1263.89L1194.34 1263.88L1194.17 1263.54C1194 1262.98 1191.9 1262.14 1191.93 1261.56C1192.04 1259.89 1190.63 1258.91 1189.73 1258.64C1188.81 1258.38 1187.37 1257.22 1186.91 1256.79C1186.45 1256.35 1184.73 1255.45 1184.01 1254.58C1183.28 1253.72 1184.31 1251.64 1184.38 1250.92C1184.47 1250.02 1185.7 1248.91 1186.25 1248.27C1187.7 1246.57 1190.32 1245.14 1192.63 1245.3C1194.28 1245.42 1195.68 1245.75 1196.92 1244.33C1199.87 1240.94 1196.2 1236.99 1193.37 1235.23C1191.94 1234.34 1191.33 1233.54 1190.55 1233.09C1189.78 1232.64 1187.29 1231.28 1186.27 1230.55C1185.24 1229.84 1183.3 1228.53 1182.15 1229.15C1180.98 1229.77 1181.96 1230.99 1183.63 1233.5C1184.41 1234.67 1184.83 1235.84 1184.69 1237.26C1184.56 1238.56 1184.45 1239.35 1185.11 1240.54C1185.91 1241.99 1186.64 1243.1 1186.15 1244.8C1185.65 1246.6 1183.32 1250.25 1182.77 1250.88C1182.22 1251.5 1181.36 1251.7 1180.77 1252.28C1178.37 1254.63 1178.3 1257.13 1179.23 1260.15C1179.96 1262.57 1179.79 1266.83 1179.54 1268.75C1179.29 1270.67 1177.28 1274.99 1176.61 1276.24C1175.94 1277.48 1174.49 1280.06 1172.51 1284.48C1170.55 1288.9 1169.98 1289.72 1169.49 1289.67C1169.02 1289.62 1167.74 1291.49 1167.28 1292.22C1166.74 1293.1 1167.26 1294.88 1167.15 1295.89ZM1221.74 1249.95C1222.82 1248.63 1225.93 1248.37 1225.93 1248.37C1226.04 1249.95 1223.58 1251.02 1223.26 1251.24C1222.94 1251.45 1222.83 1251.9 1222.59 1252.31C1222.34 1252.72 1221.24 1252.9 1221.24 1252.9C1221.24 1252.9 1220.67 1251.27 1221.74 1249.95ZM1176.57 1281.78C1176.64 1281.09 1177.57 1279.57 1179 1276.46C1180.44 1273.37 1183.17 1271.09 1183.17 1271.09C1183.07 1272.09 1182.72 1272.13 1182.56 1272.89C1182.39 1273.64 1177.9 1281.37 1177.25 1281.92C1176.59 1282.47 1176.5 1282.46 1176.57 1281.78ZM1309.13 1285.58C1310.21 1292.41 1308.19 1296.61 1304.61 1300.1C1300.84 1303.74 1295.25 1306.45 1289.79 1309.93L1289.56 1310.07L1289.5 1310.34C1289.47 1310.54 1289.28 1310.87 1289.41 1311.42L1289.5 1311.77L1289.86 1311.89C1292.11 1312.5 1294.99 1311.7 1297.15 1311.45C1297.94 1311.32 1298.69 1311.17 1299.42 1310.98C1310.37 1308.14 1316.45 1298.1 1317.44 1289.5C1317.66 1285.07 1317.87 1280.68 1318.12 1276.44C1319.26 1275.27 1320.4 1274.12 1321.56 1273.11L1321.59 1273.08L1321.63 1273.04C1322.72 1271.76 1324.74 1270.16 1326.74 1268.42L1326.32 1267.94L1326.76 1268.41C1329.72 1265.62 1333.47 1261.85 1334.29 1258.91L1334.32 1258.81L1334.31 1258.7L1334.26 1258.39C1333.8 1256.99 1332.27 1256.55 1330.58 1256.11C1328.88 1255.71 1326.89 1255.48 1325.37 1255.3C1325.22 1255.29 1321.99 1255.29 1320.81 1255.3H1320.74L1320.66 1255.32L1320.14 1255.79L1320.13 1256.28C1320.33 1256.88 1320.81 1257.44 1321.34 1258.21C1321.85 1258.93 1322.37 1259.75 1322.46 1260.17L1322.49 1260.36C1322.39 1261.59 1319.56 1264.68 1317.94 1266.16C1316.97 1258.82 1319.69 1252.18 1318.7 1244.72L1318.66 1244.49L1318.48 1244.33C1316.2 1242.37 1308.99 1239.74 1305.23 1240.45L1304.96 1240.51L1304.81 1240.76L1304.66 1241.37L1304.65 1241.44L1304.6 1241.53L1304.59 1241.69C1304.54 1242.66 1304.69 1243.61 1304.94 1244.57C1305.46 1246.59 1306.4 1248.61 1306.91 1250.62C1307.1 1251.35 1307.23 1252.07 1307.28 1252.79C1307.84 1260.2 1308.81 1267.46 1308.89 1274.6C1305.38 1278.34 1301.43 1282.02 1296.9 1285.11C1295.17 1286.41 1292.56 1286.81 1290.2 1288.34L1289.87 1288.56L1289.86 1288.57L1289.21 1288.74L1289.51 1289.44C1290.98 1292.62 1293.46 1297.33 1297.32 1296.52L1298.04 1296.26C1300.25 1295.22 1302.12 1293.52 1303.86 1291.36C1305.49 1289.33 1307.2 1287.44 1309.13 1285.58ZM1320.81 1281.16C1320.49 1282.05 1320.51 1282.98 1320.75 1283.89C1322.03 1288.63 1328.99 1293.55 1331.42 1295.62C1332.1 1296.13 1332.58 1296.77 1333.42 1297.41C1334.03 1297.9 1334.87 1298.41 1335.99 1298.49C1336.76 1298.53 1337.48 1298.45 1338.15 1298.27L1338.18 1298.27C1342.26 1297.18 1344.58 1292.95 1346.24 1291.2C1346.63 1290.69 1347.66 1289.88 1348.58 1289.02C1349.49 1288.13 1350.43 1287.26 1350.52 1286.07L1350.55 1285.39L1349.87 1285.4C1348.61 1285.41 1347.58 1285.52 1346.4 1285.53L1346.41 1286.18L1346.37 1285.53C1345.46 1285.59 1344.6 1285.75 1343.77 1285.97C1341.99 1286.43 1340.35 1287.11 1338.69 1287.53C1337.6 1287.81 1336.5 1287.99 1335.34 1287.94C1334.25 1287.95 1332.98 1287.57 1331.65 1287.02C1328.23 1285.71 1324.81 1283 1322.6 1280.74L1322.34 1280.48L1321.26 1280.75L1320.93 1280.84L1320.81 1281.16ZM1376.98 1204.34L1376.37 1204.72L1377.27 1205.26C1378.64 1206.06 1380.11 1207 1381.49 1207.82C1384.86 1210.35 1389.19 1213.46 1391.56 1217.28L1391.58 1217.32C1391.99 1217.98 1392.45 1218.63 1392.84 1219.26C1393.56 1220.45 1393.96 1221.48 1393.53 1222.48L1393.51 1222.51L1393.48 1222.53C1390.08 1222.32 1386.93 1219.75 1382.44 1222.48C1381.93 1222.79 1381.41 1223.17 1380.86 1223.62L1380.72 1223.75L1380.67 1223.94L1380.73 1224.68L1380.84 1224.84L1380.95 1224.96L1381.11 1225.02C1384.15 1226.04 1389.72 1228.96 1391.89 1231.99C1392.29 1232.66 1392.61 1233.47 1393.1 1234.25C1393.51 1234.94 1394.08 1235.62 1394.94 1236.08L1395.04 1236.14L1395.15 1236.15C1396.46 1236.35 1397.75 1236.55 1399.05 1236.76L1399.38 1236.81L1399.62 1236.56C1400.19 1235.89 1400.12 1235.06 1399.99 1234.25C1399.51 1231.8 1398.05 1228.43 1399.86 1226.11C1401.11 1225.52 1402.24 1225.95 1403.83 1225.77L1403.96 1225.75L1404.07 1225.68C1404.43 1225.41 1404.52 1225.23 1404.66 1225.16L1404.99 1224.95L1404.96 1224.56C1404.87 1223.58 1404.68 1222.53 1404.6 1221.61L1404.59 1221.5L1404.55 1221.4C1404.25 1220.75 1403.96 1219.87 1403.56 1219.01L1404.08 1217.7L1406.51 1211.78L1406.87 1211.63C1407.32 1211.84 1408.08 1212.36 1408.36 1212.87L1408.53 1213.44V1213.48V1213.53L1408.52 1213.52L1407.88 1214.39L1407.56 1214.76L1407.92 1215.29L1408.07 1215.51L1408.35 1215.55C1408.93 1215.62 1409.47 1215.43 1409.9 1215.29C1410.61 1216.1 1411.17 1216.86 1412.06 1217.61L1412.1 1217.64L1412.15 1217.67C1413.11 1218.16 1414.77 1218.58 1414.76 1218.79L1414.73 1218.8L1414.7 1218.9L1414.69 1218.99C1414.6 1220.92 1412.26 1224.94 1410.43 1227.69C1410.16 1228.24 1409.94 1228.67 1409.71 1228.94L1409.66 1228.99L1409.62 1229.05C1405.76 1235.92 1401.83 1242.66 1397.91 1249.58C1396.49 1252.5 1391.26 1256.67 1393.7 1261L1393.97 1261.39L1394.1 1261.56L1394.31 1261.62C1396.46 1262.16 1398.65 1262.51 1400.89 1262.66C1402.32 1262.58 1403.67 1261.86 1404.25 1262.15L1404.68 1262.31L1404.97 1261.92C1407.9 1257.97 1406.83 1255.76 1407.31 1254.33C1409.41 1247.94 1412.7 1241.79 1416.67 1235.71C1417.65 1234.45 1418.56 1233.06 1419.53 1231.81C1421.19 1229.49 1422.83 1226.45 1425.47 1224.85L1426.03 1224.53L1426.07 1224.51C1426.32 1225.01 1426.45 1225.58 1426.49 1226.01C1426.59 1227.51 1425.67 1229.04 1425.35 1230.7C1424.99 1233.4 1424.16 1236.21 1423.31 1238.71C1422.9 1239.73 1421.64 1241.24 1421.66 1242.77C1421.74 1243.29 1421.93 1243.66 1422.12 1243.98C1422.37 1244.39 1422.65 1244.74 1422.83 1245.04L1423.07 1245.63L1423.09 1245.76L1423.11 1245.77L1423.07 1245.87C1422.59 1247.01 1420.11 1249.73 1419.34 1250.89C1418.27 1252.9 1417.13 1254.92 1415.85 1256.68C1412.95 1260.43 1408.12 1263.47 1407.13 1268.05L1407.06 1268.39L1407.31 1268.63C1408.23 1269.44 1410.29 1269.94 1412.65 1270.23C1415 1270.48 1417.5 1270.44 1419.1 1269.49L1419.58 1269.15C1421.49 1267.22 1422.21 1264.51 1422.87 1262.63C1423.77 1260.16 1426.3 1255.62 1428.81 1253.13L1429.43 1252.55C1430.11 1253.1 1430.84 1254.03 1431.72 1254.83C1432.5 1255.58 1433.11 1256.31 1433.54 1257.01C1434.54 1258.65 1434.63 1260.09 1434.16 1261.55C1433.6 1263.56 1431.67 1265.59 1429.26 1267.56C1428.97 1267.78 1428.65 1268.01 1428.3 1268.22C1427.15 1268.93 1425.71 1269.57 1424.43 1270.35C1423.92 1270.67 1423.43 1271.01 1423 1271.4L1422.66 1272.05L1422.67 1272.17L1422.49 1272.99L1423.32 1272.94C1425.62 1272.76 1427.95 1271.67 1429.95 1271.67C1433.6 1271.61 1436.69 1271.48 1440.31 1271.42H1440.38L1440.45 1271.4L1441.12 1271.16L1441.14 1271.15L1441.53 1270.66C1442.69 1267.75 1442.37 1260.46 1439.86 1256.25C1439.56 1255.76 1439.21 1255.31 1438.84 1254.92C1436.99 1252.98 1434.73 1251.16 1433.44 1249.06L1432.92 1248.07C1432.96 1247.82 1433.63 1246.82 1434.38 1246.04C1435.18 1245.17 1436.11 1244.34 1436.34 1244.2L1440.84 1241.43L1440.91 1241.35C1442.42 1239.39 1441.76 1237.03 1441.9 1235.47V1235.42V1235.36L1441.62 1234.52C1441.1 1233.69 1440.15 1233.79 1440.1 1233.75L1440.04 1233.74L1439.98 1233.74C1438.64 1233.79 1437.44 1234.28 1436.37 1234.94C1435.63 1235.4 1434.93 1235.94 1434.3 1236.47C1433.59 1237.07 1433.03 1237.58 1432.48 1238.08L1426.88 1241.52L1426.85 1241.51C1426.67 1241.48 1426.22 1241.1 1426.01 1240.73L1425.87 1240.44L1425.86 1240.4C1426.54 1238.04 1429.18 1235.73 1430.49 1233C1430.7 1232.59 1431.05 1232.03 1431.32 1231.51C1432.47 1228.39 1433.24 1225.41 1434.23 1222.49C1434.63 1221.11 1436.07 1217.84 1434.72 1215.47C1434.4 1214.97 1433.95 1214.54 1433.35 1214.25C1431.75 1213.24 1429.93 1213.69 1428.44 1214.61C1426.4 1215.88 1424.71 1218.03 1423.85 1219.47C1423.65 1219.89 1423.34 1220.22 1423.16 1220.76C1420.56 1224.81 1417.31 1228.78 1414.15 1232.89C1413.06 1234.55 1411.75 1236.2 1410.83 1237.97C1410.14 1238.99 1408.04 1242.82 1407.02 1243.43H1406.99C1406.35 1241.77 1408.15 1239.18 1409.06 1237.17L1412.76 1230.07L1418.66 1218.49C1419.06 1218.01 1419.93 1217.44 1420.84 1216.89C1421.37 1216.63 1422 1216.31 1422.61 1215.93C1423.5 1215.39 1424.34 1214.74 1424.83 1213.84C1428.24 1208.03 1426.46 1200.64 1426.74 1194.61C1426.81 1192.23 1427.45 1184.39 1424.97 1180.27C1424.23 1179.05 1423.13 1178.12 1421.66 1177.93C1420.19 1177.72 1418.47 1178.2 1416.4 1179.47L1416.3 1179.53L1416.22 1179.63C1414.45 1182.09 1411.85 1191.2 1408.43 1195.02C1408.11 1193.25 1408.81 1190.99 1409.51 1188.63C1410.28 1185.94 1411.01 1183.03 1409.44 1180.44L1409.31 1180.23L1409.29 1180.19C1408.81 1179.54 1408.13 1179.43 1407.23 1179.25C1404.56 1178.86 1399.86 1179.22 1397.12 1180.49L1396.7 1180.69L1396.75 1181.15C1396.99 1182.52 1398.29 1184.07 1398.78 1185.28L1398.82 1185.83L1399.48 1191.62C1399.7 1193.53 1400.42 1195.84 1400.55 1197.93C1400.66 1200.04 1400.28 1201.75 1398.41 1202.91C1397.66 1203.38 1396.64 1203.75 1395.29 1203.99C1394.85 1204.05 1394.72 1204.14 1394.45 1204.17C1391.58 1204.42 1389.12 1203.14 1385.97 1203.1C1384.54 1202.9 1383.25 1203.36 1382.01 1203.36C1380.78 1203.39 1379.14 1202.9 1377.42 1203.73L1376.8 1204.05L1376.98 1204.34ZM1414.07 1210.71L1414.57 1210.41L1415.74 1209.97L1416.55 1210.48C1416.62 1210.98 1416.8 1211.34 1416.81 1211.55C1416.67 1212.02 1416.39 1212.39 1416 1212.63C1415.57 1212.89 1415 1213 1414.27 1212.77C1413.92 1211.99 1413.94 1211.56 1414.07 1210.71ZM1409.14 1199.84L1409.77 1199.87C1409.84 1196.07 1415.59 1189.55 1418.37 1186.21C1418.72 1185.91 1418.82 1185.66 1419.13 1185.48C1419.37 1185.34 1419.61 1185.25 1420.14 1185.41C1420.8 1185.68 1421.21 1186.06 1421.5 1186.53C1421.94 1187.24 1422.05 1188.24 1421.99 1189.36C1421.99 1191.36 1421.86 1193.43 1421.78 1195.33V1195.37L1421.79 1195.43C1422.32 1198.82 1423.98 1205.69 1420.84 1207.4L1420.3 1207.67C1419.22 1206.84 1418.33 1206.03 1417.42 1205.21L1417.27 1205.08L1417.1 1205.06C1416.32 1204.94 1415.62 1205.03 1415.1 1204.95C1414.53 1204.76 1413.46 1204.3 1412.46 1203.63C1411.36 1203.02 1410.53 1202.28 1410.13 1201.63L1410.01 1201.41L1409.99 1201.35L1409.94 1201.28L1409.92 1201.26C1409.76 1200.99 1409.69 1200.53 1409.76 1199.92L1409.14 1199.84ZM1396.4 1210.02C1396.89 1209.84 1397.29 1209.74 1397.61 1209.73C1398.5 1209.7 1399.23 1209.78 1400.05 1209.84C1400.09 1210.6 1399.92 1211.83 1399.62 1212.59L1400.21 1212.81L1399.6 1212.65L1399.45 1213.22C1398.41 1212.39 1397.18 1211.37 1396.61 1210.42L1396.4 1210.02Z" fill="white"/>
<path d="M2117.74 711.812C2117.74 711.812 2119.04 708.076 2120.02 707.424C2132.18 701.713 2141.39 715.88 2137.85 717.022C2135.14 717.908 2112.83 734.841 2112.83 734.841C2110.67 724.154 2117.74 711.812 2117.74 711.812ZM2364.93 985.199C2353.03 985.947 2349.33 985.947 2326.31 988.157C2303.31 990.377 2269.9 990.377 2266.18 988.157C2262.49 985.947 2248.38 968.181 2238.72 954.868C2229.08 941.544 2177.13 875.672 2163.76 852.728C2150.4 829.796 2124.42 768.364 2124.42 768.364C2124.42 768.364 2145.95 749.126 2183.8 727.667C2221.65 706.197 2224.63 695.104 2226.11 687.705C2227.6 680.307 2228.33 671.424 2212.01 678.823C2195.68 686.221 2158.58 685.485 2155.59 685.485C2152.62 685.485 2145.95 683.99 2139.26 689.179C2132.58 694.357 2122.83 691.453 2122.83 691.453C2122.83 691.453 2117.74 688.442 2117.74 681.033C2117.74 673.634 2103.64 659.584 2103.64 659.584C2119.22 665.499 2159.31 640.335 2173.4 626.274C2187.51 612.203 2216.46 587.039 2226.85 575.199C2237.25 563.38 2249.12 568.558 2258.77 545.615C2264.96 530.903 2261.56 542.359 2266.57 526.675C2271.57 510.992 2266.57 509.572 2257.99 505.995C2249.41 502.43 2235.82 508.131 2222.23 510.277C2208.64 512.412 2191.48 515.967 2183.63 517.419C2175.75 518.828 2180.05 518.828 2162.16 529.515C2144.28 540.224 2117.83 548.06 2093.51 558.757C2069.21 569.455 2057.05 571.59 2049.9 571.59C2042.75 571.59 2037.03 569.455 2029.16 582.288C2024.01 590.68 2030.48 598.089 2036.55 603.608C2043.96 610.356 2047.16 615.726 2052.94 623.755C2057.71 630.384 2066.47 631.772 2070.63 639.321C2070.63 639.321 2063.49 638.605 2052.77 639.321C2042.03 640.025 2044.89 655.004 2044.89 663.566C2044.89 672.107 2045.6 698.499 2043.45 707.051C2041.32 715.602 2042.03 727.72 2042.03 739.133C2042.03 750.535 2036.09 781.688 2036.09 781.688C2025.69 792.792 1931.44 849.771 1915.1 859.39C1898.76 869.01 1865.37 850.518 1865.36 850.518C1853.71 870.451 1872.09 908.864 1885.98 923.971C1894.27 932.982 1906.09 941.79 1917.33 946.722C1935.89 954.868 1966.26 943.818 1987.09 920.074C2007.88 896.383 2033.86 853.465 2033.86 853.465C2036.83 888.248 2033.86 911.191 2003.43 985.947C1972.99 1060.69 1932.91 1060.69 1910.65 1066.61C1888.38 1072.52 1852.75 1069.56 1849.78 1080.67C1844.93 1098.78 1904.71 1115.45 1942.57 1108.05C1967.12 1103.25 1988.4 1079.58 2004.5 1062.14C2026.79 1038.03 2049.85 1012.73 2059.86 980.769C2068.16 954.291 2073.53 926.619 2078.73 899.416C2081.22 886.348 2083.68 873.259 2085.82 860.127C2091.02 828.301 2099.92 787.614 2099.92 787.614C2099.92 787.614 2124.42 897.141 2140 946.722C2155.59 996.303 2195.68 1055.5 2220.92 1062.16C2246.14 1068.83 2279.56 1039.97 2287.72 1037.01C2295.88 1034.04 2338.2 1017.75 2360.45 1009.63C2382.73 1001.48 2376.8 984.452 2364.93 985.199Z" fill="white"/>
<path d="M3444.99 838.701L3445.28 838.52C3454.26 832.212 3469.61 825.424 3485.07 817.697L3483.19 813.94L3485.18 817.654C3508.43 804.857 3538.16 787.236 3548.16 769.989L3548.5 769.38L3548.64 768.697L3548.8 766.627C3548.18 757.01 3539.24 751.749 3529.38 746.22C3519.31 740.884 3507.12 736.241 3497.83 732.601C3496.89 732.303 3476.51 726.987 3469.1 725.12L3468.6 724.992H3468.07C3466.81 724.863 3464.78 725.803 3464.03 727.169C3463.21 728.46 3463.21 729.453 3463.2 730.211C3463.42 734.341 3465.58 738.642 3467.64 744.384C3469.7 749.785 3471.6 755.804 3471.54 758.59L3471.39 759.828C3468.76 767.481 3445.82 782.359 3433.2 789.04C3439.15 741.086 3467.06 703.624 3472.95 654.87L3473.14 653.323L3472.28 652.042C3461.03 635.99 3419.9 607.589 3395.05 605.935L3393.17 605.85L3391.84 607.194C3390.41 608.742 3390.19 610.055 3389.91 610.759L3389.75 611.229L3389.26 611.709L3388.94 612.712C3387.04 618.71 3386.42 625.018 3386.42 631.433C3386.44 645.041 3389.08 659.342 3389.04 672.886C3389.04 677.807 3388.7 682.588 3387.84 687.241C3379.27 734.896 3373.55 782.305 3362.39 827.59C3334.15 845.446 3303.22 862.213 3269.63 874.359C3256.64 879.738 3239.48 877.956 3222.14 883.815C3220.83 883.997 3220.12 884.499 3219.7 884.659L3219.65 884.701H3215.24L3216.01 889.579C3220.03 912.152 3228.04 945.9 3253.74 947.085C3255.36 947.085 3256.98 946.914 3258.62 946.636C3274.26 943.669 3288.84 936.027 3303.33 925.226C3316.98 915.023 3330.81 905.919 3346.01 897.253C3341.67 942.207 3322.09 965.442 3293.81 981.59C3264.12 998.432 3224.44 1006.42 3184.31 1019.47L3182.59 1020.01L3181.81 1021.62C3181.34 1022.81 3179.56 1024.64 3179.5 1028.29V1030.69L3181.58 1031.92C3194.8 1039.48 3214.23 1039.14 3228.26 1041.12C3233.46 1041.61 3238.44 1041.85 3243.35 1041.85C3317.01 1041.75 3371.75 988.293 3392.05 935.601C3400.65 907.99 3409.11 880.624 3417.6 854.209C3426.74 848.744 3435.78 843.333 3444.73 838.84L3444.99 838.701ZM3603.25 962.678C3595.29 960.682 3588.57 959.732 3581.15 957.864L3580.13 961.963L3580.92 957.822C3575.11 956.701 3569.4 956.327 3563.79 956.327C3551.83 956.327 3540.38 957.95 3529.24 957.939C3521.9 957.939 3514.67 957.235 3507.42 955.036C3500.54 953.328 3493.18 948.846 3485.69 943.21C3466.24 929.304 3449.13 906.602 3438.81 888.714L3437.61 886.612H3430.39H3428.16L3426.9 888.448C3423.43 893.528 3422.02 899.473 3422.02 905.588C3422.39 937.671 3458.28 980.043 3470.16 997.087C3473.7 1001.47 3475.61 1006.28 3479.89 1011.7C3482.93 1015.76 3487.44 1020.39 3494.3 1022.67C3499.13 1024.18 3503.81 1024.85 3508.35 1024.85H3508.52C3536.03 1024.67 3557.54 1001.75 3570.89 993.373C3574.17 990.844 3581.96 987.364 3589.2 983.447C3596.42 979.338 3603.7 975.325 3606.23 967.993L3607.5 963.756L3603.25 962.678Z" fill="white"/>
<path d="M3977.48 671.97L3980.15 675.252L3977.19 672.216C3976.22 673.178 3975.23 674.151 3974.39 674.995C3971.26 666.679 3967.62 656.641 3967.55 649.276C3967.53 648.186 3967.56 647.149 3967.7 646.229C3971.13 646.903 3973.78 647.651 3975.62 648.688C3980.87 651.553 3984.77 654.493 3989.28 657.614C3986.92 662.136 3981.76 668.571 3977.48 671.97ZM4066.79 710.143L4070.73 710.068L4078.9 711.554C4079.68 713.254 4080.6 715.103 4081.82 717.177C4080.52 720.32 4080.32 723.003 4079.68 724.2C4077.3 726.434 4074.36 727.632 4071.35 727.706C4067.99 727.739 4064.4 726.424 4060.98 722.672C4061.6 716.985 4063.19 714.579 4066.79 710.143ZM4075 642.969L4075.07 642.488L4075.01 641.953V641.793C4074.93 639.698 4076.11 636.822 4078.64 633.573L4075.31 630.986L4078.86 633.284C4092.11 611.744 4147.17 593.796 4174.48 584.058C4177.5 583.491 4178.92 582.401 4181.34 582.401C4183.14 582.444 4184.82 582.754 4187.35 585.437C4190.19 589.242 4191.28 592.813 4191.36 596.415C4191.49 602.027 4188.65 608.163 4184.56 614.406C4177.81 625.855 4170.02 637.303 4163.16 647.918L4163.01 648.164L4162.84 648.56C4154.46 669.832 4140.73 714.868 4116.83 714.034C4115.54 714.056 4114.2 713.981 4112.81 713.767C4109.55 705.376 4107.1 697.679 4104.63 689.843L4104.23 688.657L4103.29 687.898C4099.26 684.584 4094.92 682.767 4092.27 680.501C4089.58 677.529 4085.03 671.201 4081.54 664.081C4077.32 656.791 4075.02 649.746 4074.94 644.604L4075 642.969ZM3948.42 845.037L3993.66 816.848L4066.78 770.38C4070.72 768.905 4077.63 768.627 4084.72 768.531C4088.64 768.841 4093.39 769.14 4098.15 769.065C4105.06 768.926 4112.07 768.039 4117.96 764.554C4157.19 742.747 4172.05 694.248 4194 660.607C4202.51 647.159 4232.77 604.368 4232.5 572.267C4232.38 562.817 4229.19 553.763 4221.42 547.606C4213.68 541.47 4202.19 538.381 4186.03 538.648L4185.22 538.669L4184.48 538.979C4165.95 547.05 4120.18 590.579 4087.55 600.905C4091.73 589.659 4103.42 579.098 4115.41 567.906C4128.92 555.067 4143.01 540.85 4142.77 520.646L4142.72 519.011L4142.74 518.701C4142.22 513.367 4138.65 510.363 4134.11 506.354C4120.11 495.002 4091.9 481.191 4071.87 479.138L4068.76 478.85L4067.56 481.714C4064.28 490.373 4066.48 503.66 4065.2 512.319L4063.59 515.601L4047.77 551.08C4042.55 562.828 4038.85 578.456 4032.5 590.899C4026 603.406 4018.03 611.937 4003.33 612.3C3997.46 612.396 3990.34 611.103 3981.76 607.853C3979.04 606.763 3977.99 606.795 3976.42 606.089C3959.02 597.805 3949.24 582.112 3931.3 571.187C3923.77 565.201 3914.82 563.502 3907.72 559.268C3900.54 555.292 3892.78 546.932 3880.09 545.906L3875.48 545.575L3875.52 547.884L3870.76 547.969L3874.09 554.095C3879.2 563.384 3884.44 573.71 3889.61 583.16C3900.4 609.093 3914.74 641.59 3915.34 671.575V671.895C3915.43 677.059 3915.88 682.318 3915.97 687.267C3916.12 696.589 3914.89 703.783 3909.02 708.08L3908.84 708.23H3908.63C3889.85 695.466 3880.44 670.014 3845.39 670.484C3841.41 670.548 3837.13 670.955 3832.51 671.746L3831.2 671.981L3830.27 672.9C3829.87 673.135 3827.98 675.156 3828.11 677.379L3828.23 678.651L3828.44 679.71L3829.16 680.554C3843.12 696.728 3865.24 732.41 3867.45 757.093C3867.47 762.32 3866.57 768.114 3866.67 774.26C3866.72 779.605 3867.69 785.378 3871.09 790.979L3871.44 791.599L3872.04 792.08C3878.83 797.639 3885.6 803.197 3892.39 808.767L3894.12 810.21L3896.29 809.547C3901.92 807.634 3904.28 802.674 3906.27 797.542C3911.81 781.85 3914.84 757.552 3933.1 750.411C3942.23 751.224 3947.32 757.552 3957.01 761.892L3957.83 762.224L3958.74 762.213C3961.71 761.892 3962.81 761.112 3963.86 761.165L3966.49 761.123L3967.59 758.739C3970.38 752.827 3972.94 746.157 3975.52 740.588L3975.82 739.936L3975.89 739.251C3976.39 734.441 3977.7 728.433 3978.37 722.094L3985.78 716.407L4019.79 690.634L4022.35 690.987C4024.24 693.767 4026.82 699.325 4026.74 703.141C4026.75 704.852 4026.42 706.103 4025.76 707.011L4025.61 707.236L4025.47 707.503L4025.42 707.439C4024.29 708.283 4020.92 709.651 4018.85 710.282L4015.71 711.298L4016 715.552L4016.12 717.337L4017.55 718.513C4020.66 720.833 4024.45 721.624 4027.36 722.308C4028.66 729.363 4029.34 735.628 4031.89 742.886L4032 743.217L4032.2 743.538C4036.08 749.62 4044.16 757.67 4043.33 758.856L4043.22 758.824L4042.67 759.241L4042.32 759.776C4035.27 770.551 4008.23 785.73 3988.4 795.308C3984.98 797.542 3982.27 799.242 3979.99 799.99L3979.54 800.129L3979.19 800.332C3933.69 826.683 3888.37 852.06 3842.34 878.464C3824.35 890.49 3780.14 896.711 3779.5 929.774C3779.51 930.715 3779.56 931.805 3779.72 932.992L3779.92 934.392L3780.94 935.429C3791.43 945.83 3802.86 955.237 3815.18 963.725C3823.71 968.054 3833.88 968.567 3836.16 972.138L3838.17 974.554L3841.07 973.314C3871.3 960.518 3872.63 944.227 3880.26 937.653C3913.93 908.138 3953.62 883.926 3997.01 862.45C4006.91 858.538 4016.88 853.621 4026.7 849.762C4044.08 842.065 4063.76 830.178 4084.31 829.89C4085.78 829.857 4087.2 829.89 4088.64 829.986L4088.92 830.007C4088.64 833.727 4087.47 837.436 4086.24 840.066C4081.74 848.971 4071.35 854.679 4063.78 863.145C4052.63 877.341 4038.37 890.725 4024.99 902.216C4019.13 906.652 4006.86 911.025 4001.7 919.918C4000.44 923.168 4000.24 925.915 4000.28 928.449C4000.34 931.624 4000.74 934.542 4000.78 936.883C4000.82 938.764 4000.6 940.143 4000.2 941.095L3999.84 941.918V942.025L3999.42 942.495C3992.72 947.402 3969.27 954.564 3960.9 958.647C3948.06 966.59 3934.65 974.308 3921.26 980.08C3891.94 991.775 3853.95 992.865 3832.74 1015.78L3831.17 1017.5L3831.8 1019.78C3834.34 1027.52 3844.46 1037.35 3857.05 1047.06C3869.7 1056.43 3884.19 1064.71 3896.59 1064.66C3897.94 1064.66 3899.2 1064.5 3900.45 1064.28C3917.97 1059.68 3931.25 1046.56 3941.45 1038.02C3954.94 1026.89 3984.85 1009.39 4007.72 1003.62C4009.28 1003.06 4011.13 1002.85 4013.25 1002.42C4015.27 1007.88 4016.3 1015.67 4018.66 1023.26C4020.63 1030.17 4021.6 1036.42 4021.7 1041.91C4021.86 1054.71 4017.57 1063.32 4009.91 1070.08C3999.9 1079.72 3981.95 1084.87 3961.37 1087.98C3959.02 1088.3 3956.42 1088.47 3953.68 1088.53C3944.65 1088.71 3934.22 1087.47 3924.24 1087.64C3920.22 1087.7 3916.25 1088.03 3912.43 1088.78C3910.54 1088.84 3908.5 1090.73 3908.32 1091.44L3907.97 1092.07L3904.15 1096.18L3909.13 1098.73C3922.87 1105.52 3940 1107.14 3951.48 1113.94C3972.65 1125.93 3990.77 1135.65 4011.68 1147.55L4012.16 1147.81L4012.66 1147.95C4013.64 1148.18 4015.05 1148.84 4017.32 1148.85H4017.39C4018.54 1148.83 4020.08 1148.44 4021.29 1147.36C4037.83 1134.59 4060.73 1091.66 4060.53 1058.98C4060.47 1055.11 4060.06 1051.39 4059.23 1047.9C4055.17 1030.5 4048.35 1012.35 4048.11 995.944C4048.07 993.357 4048.16 990.877 4048.47 988.482C4049.53 987.221 4056.74 983.693 4063.74 981.769C4071.22 979.482 4079.36 977.867 4081.16 977.835L4116.4 977.226L4117.07 976.969C4132.37 970.823 4136.56 955.066 4142.64 946.547L4142.83 946.279L4143 945.937C4143.89 943.96 4144.33 942.003 4144.3 940.197C4144.09 933.591 4138.27 930.982 4138.15 930.64L4137.82 930.362L4137.44 930.159C4129.67 925.883 4121.09 924.675 4112.73 924.825C4106.89 924.921 4101.09 925.648 4095.59 926.578C4089.57 927.615 4084.6 928.652 4079.7 929.657L4035.93 930.416L4035.82 930.277C4034.87 929.464 4033.6 925.723 4033.64 922.976L4033.84 920.795L4033.92 920.517C4045.79 909.304 4068.77 904.963 4085.56 893.739C4088.1 892.061 4092.07 890.083 4095.37 887.956C4112.52 873.963 4127.06 859.468 4142.6 846.063C4149.59 839.553 4168.93 825.603 4169.14 807.409C4169.09 803.475 4167.91 799.445 4165.49 795.725C4159.71 784.576 4147.72 780.963 4136.08 781.251C4120.09 781.583 4103.04 788.2 4093.25 793.555C4090.72 795.298 4087.8 796.142 4084.88 798.622C4056.26 813.064 4024.2 824.897 3992.16 837.746C3980.24 843.604 3967.16 848.575 3955.86 855.641C3948.42 859.179 3923.4 874.027 3915.5 874.124L3915.34 873.985C3917.34 862.29 3936.34 853.503 3948.42 845.037Z" fill="white"/>
<path d="M2990.38 878.168C2989.6 872.9 2984.85 867.59 2980.5 864.687C2974.13 860.45 2964.18 863.194 2956.93 862.216C2937.77 859.65 2920.15 853.173 2902.22 846.401C2895.26 843.782 2880.93 842.047 2875.67 836.495C2873.66 837.946 2875.67 836.495 2875.67 840.365C2876.21 842.373 2880.2 847.263 2888.74 860.607C2899.28 877.106 2911.08 891.155 2905.92 894.205C2891.91 902.47 2875.67 906.087 2861.44 914.09C2856.54 916.845 2852.98 918.801 2848.53 921.556C2844.06 924.321 2842.28 925.909 2836.55 925.825C2830.82 925.73 2823.82 921.987 2819.98 915.467C2816.14 908.937 2815.77 905.698 2822.43 902.175C2829.13 898.632 2844.69 887.611 2843.98 878.705C2843.26 869.819 2839.98 870.776 2835.21 865.844C2830.46 860.954 2819.11 882.375 2820.11 849.713C2820.16 848.178 2819.55 844.592 2820.22 843.94C2820.86 841.963 2836.5 838.735 2838.28 838.051C2839.7 837.242 2841.65 836.201 2844.59 834.686C2851.92 830.89 2868.89 822.856 2874.82 815.706C2876.55 813.613 2877.71 802.256 2877.8 800.321C2877.93 797.861 2879.92 792.719 2869.83 790.395C2859.75 788.081 2863.49 792.876 2852.99 797.535C2842.49 802.193 2817.46 809.155 2817.46 809.155C2817.46 809.155 2816.93 800.837 2815.73 793.139C2815.45 791.247 2815.09 788.923 2815.19 786.956L2815.23 786.136C2815.23 786.136 2816.3 777.503 2829.33 761.971C2842.55 746.166 2897.88 720.845 2916.72 713.305C2935.57 705.776 2967.63 693.567 2974.05 691.422C2980.46 689.256 2979.25 680.644 2972.85 672.031C2966.68 663.734 2960.48 669.665 2953.59 672.652C2945.3 676.269 2935.92 675.712 2927.34 678.351C2918.61 681.043 2910.25 685.281 2901.89 688.898C2890.26 693.925 2867.39 705.408 2859.8 707.921C2852.18 710.445 2841.75 717.616 2836.55 720.119C2831.34 722.643 2831.34 720.498 2835.34 710.792C2839.35 701.107 2854.59 697.164 2860.6 695.733C2866.6 694.282 2875.41 687.468 2885.05 679.928C2899.57 668.54 2909.76 653.124 2921.16 638.865C2927.05 631.504 2933.85 624.469 2939.37 616.887C2943.73 610.894 2948.02 603.995 2949.37 596.603C2950.84 588.495 2946.81 585.015 2941.98 579.063C2933.54 568.631 2913.99 576.876 2903.58 579.2C2900.73 579.831 2896.74 580.136 2894.31 581.86C2888.16 586.235 2879.88 601.829 2869.81 598.454C2866.6 597.371 2867 580.146 2866.2 570.093C2865.4 560.051 2853.79 553.941 2841.75 545.329C2829.73 536.717 2813.29 519.85 2796.06 519.85C2778.81 519.85 2774.4 553.584 2773.2 565.435C2772.38 573.479 2772.71 581.597 2771.87 589.631C2771.09 597.097 2768.42 604.069 2767.13 611.419C2764.9 624.206 2772.15 649.833 2755.97 656.237C2752.35 657.677 2752.35 663.419 2749.56 668.088C2746.75 672.746 2735.52 680.644 2738.73 686.396C2741.94 692.127 2753.55 681.001 2755.97 680.644C2758.37 680.286 2761.98 686.732 2762.78 688.173C2766.17 694.24 2763.28 706.196 2763.45 712.905C2763.78 724.62 2766.37 737.281 2764.7 748.932C2763.76 755.43 2728.6 760.394 2717.94 763.717C2705.6 768.291 2717.62 780.394 2721.37 786.872C2722.8 788.155 2717.94 788.87 2756.89 792.372C2757.98 792.466 2758.26 800.3 2758.88 803.718C2760.02 810.522 2761.98 817.578 2761.77 824.497C2761.77 824.497 2743.54 832.268 2743.86 838.335C2744.19 844.403 2743.22 849.629 2751.13 850.965C2759.03 852.3 2764.27 855.213 2764.27 855.213C2764.27 855.213 2766.75 861.732 2767.46 873.037C2767.84 878.894 2766.14 878.883 2766.19 880.271C2766.32 882.259 2753.16 886.286 2751.2 888.106C2744.56 894.352 2746.83 905.561 2758.42 913.827C2762.74 916.897 2766.99 912.302 2769.43 916.214C2772.81 921.608 2767.24 931.514 2766.31 933.596C2763.1 940.81 2756.7 952.408 2745.59 957.498C2734.48 962.566 2723.72 969.896 2690.24 970.758C2685.38 970.874 2681.97 976.216 2680.5 981.915C2681.62 985.417 2682.43 989.139 2681.23 994.26L2682.3 995.259C2687.96 998.582 2695.83 1002.35 2701.03 1007.68C2706.18 1013.01 2703.22 1017.01 2716.69 1017.22C2736.08 1017.53 2737.25 1003 2753.1 1003.66C2768.95 1004.31 2757.22 1018.26 2757.1 1024.71C2756.97 1031.49 2749.79 1038.91 2747.11 1044.9C2740.16 1060.4 2748.95 1080.04 2758.44 1092.46C2765.67 1101.89 2783.29 1129.33 2798.1 1118.26C2803.92 1113.91 2822.09 1085.51 2827.55 1075.1C2833.05 1064.68 2835.38 1057.87 2835.53 1049.77C2835.69 1041.7 2825.04 975.311 2829.98 970.537C2838.36 962.44 2856.07 960.632 2866.7 956.636C2885.63 949.527 2904.76 941.22 2923.05 932.629C2929.61 929.558 2935.99 926.119 2942.42 922.807C2950.41 918.664 2957.13 912.47 2965.04 908.117C2971.6 904.499 2981.09 900.819 2984.78 893.805C2988.01 887.822 2991.17 883.416 2990.38 878.168ZM2863.7 633.902C2868.24 623.943 2887.2 617.298 2887.2 617.298C2890.49 626.888 2876.9 637.593 2875.25 639.443C2873.61 641.294 2873.61 644.239 2872.78 647.193C2871.94 650.159 2865.34 653.093 2865.34 653.093C2865.34 653.093 2859.16 643.87 2863.7 633.902Z" fill="white"/>
<path d="M2715.93 765.767L2715.21 765.092L2713.55 763.269C2711.55 760.055 2697.1 758.254 2696.4 754.597C2694.33 744.007 2683.98 740.129 2677.88 740.003C2671.78 739.845 2660.87 734.987 2657.31 732.996C2653.75 730.994 2641.54 728.159 2635.61 723.986C2629.69 719.803 2632.69 705.146 2631.96 700.53C2631.08 694.766 2636.95 685.894 2639.32 680.994C2645.63 667.991 2659.61 654.851 2674.25 652.132C2684.8 650.162 2694.03 649.972 2699.45 639.087C2712.36 613.144 2683.03 594.535 2662.48 588.139C2652.17 584.946 2647.07 580.932 2641.47 579.404C2635.87 577.865 2618.21 573.398 2610.64 570.574C2603.05 567.75 2588.87 562.734 2582.64 568.508C2576.39 574.283 2584.46 580.236 2598.95 593.197C2605.78 599.288 2610.27 605.831 2611.69 614.872C2613.02 623.228 2613.62 628.307 2619.67 634.672C2627 642.364 2633.33 648.107 2633.1 659.519C2632.85 671.542 2624.31 698.107 2621.88 702.901C2619.48 707.632 2614.42 710.319 2611.68 714.882C2600.56 733.428 2604.22 749.118 2614.86 766.452C2623.35 780.287 2629.27 807.126 2630.83 819.507C2632.39 831.878 2626.88 862.057 2624.74 870.929C2622.59 879.78 2617.71 898.2 2612.63 928.958C2607.56 959.727 2605.33 965.733 2602.22 966.218C2599.13 966.692 2594.22 980.391 2592.59 985.702C2590.65 992.056 2596.74 1002.31 2597.73 1008.79C2599.72 1021.96 2596.9 1051.41 2619.23 1046.25C2640.61 1041.28 2638.25 1035.1 2644.69 1010.75C2649.7 991.75 2657.55 980.349 2661.08 959.938C2664.59 939.516 2668.43 939.232 2668.84 932.857C2669.25 926.492 2666.93 918.326 2667 900.644C2667.08 882.973 2667.29 854.86 2667.13 844.797C2666.98 834.723 2668.53 826.599 2670.05 813.743C2671.58 800.877 2681.33 793.374 2689.53 789.581C2692.3 788.295 2716.06 784.618 2719.05 784.154C2720.33 783.944 2718.38 781.162 2719.26 780.192L2716.36 778.359C2715.97 775.04 2717.58 771.362 2717.5 771.193L2717.02 769.128C2716.77 767.779 2716.7 766.694 2715.93 765.767ZM2656.35 840.381C2656.57 845.355 2641.13 900.855 2637.94 905.354C2634.71 909.854 2634.17 909.938 2633.49 905.544C2632.8 901.14 2636.13 890.107 2640.02 868.463C2643.95 846.82 2657.25 828.211 2657.25 828.211C2658.23 834.575 2656.13 835.397 2656.35 840.381Z" fill="white"/>
<path d="M4232.5 1294.47H4182.12L4163.15 1364.23C4160.98 1372.66 4158.49 1383.12 4156.62 1390.96H4155.37C4153.51 1383.41 4150.4 1372.66 4147.91 1364.52L4125.21 1294.47H4072.65L4128.63 1424.69C4130.19 1428.17 4130.5 1430.21 4130.5 1431.95C4130.5 1433.69 4129.56 1436.02 4128.01 1438.35C4123.67 1445.32 4110.6 1461.2 4092.28 1464.59L4083.09 1502.85C4106.07 1503.01 4127.38 1494.73 4143.56 1481.36C4160.66 1467.12 4175.28 1444.74 4197.04 1388.06L4232.5 1294.47ZM4025.6 1378.47V1327.02H4059.5V1294.47H4025.6V1277.9H3979.26V1294.47H3959.05V1327.02H3979.26V1385.15C3979.26 1405.21 3983.62 1418.88 3992.33 1427.3C4000.1 1434.58 4012.84 1439.51 4028.09 1439.51C4041.15 1439.51 4048.28 1438.65 4054.2 1436.61L4063.13 1401.35C4058.78 1402.23 4050.79 1403.47 4044.27 1403.47C4030.26 1403.47 4025.6 1395.61 4025.6 1378.47ZM3940.02 1254.94C3939.7 1242.45 3930.38 1232.85 3915.15 1232.85C3899.9 1232.85 3889.95 1242.45 3889.95 1254.94C3889.95 1267.14 3899.59 1277.03 3914.51 1277.03C3930.38 1277.03 3940.02 1267.14 3940.02 1254.94ZM3800.2 1333.13C3800.2 1326.15 3806.73 1321.79 3818.24 1321.79C3830.97 1321.79 3844.36 1326.45 3851.19 1329.92L3859.28 1299.42C3849.96 1295.06 3834.4 1290.99 3816.68 1290.99C3779.05 1290.99 3754.79 1311.05 3754.79 1337.77C3754.48 1354.64 3766.61 1370.63 3798.33 1380.5C3815.75 1386.03 3820.41 1389.51 3820.41 1397.08C3820.41 1404.33 3814.5 1408.7 3800.2 1408.7C3786.2 1408.7 3768.15 1403.18 3759.46 1398.23L3751.06 1429.62C3762.57 1435.43 3780.29 1439.79 3800.2 1439.79C3843.73 1439.79 3865.81 1420.32 3865.81 1393.58C3865.51 1372.95 3853.69 1359 3824.77 1349.69C3806.1 1343.59 3800.2 1340.1 3800.2 1333.13ZM3730.71 1332.57L3740.83 1292.6C3737.41 1292.01 3731.38 1290.99 3727.02 1290.99C3712.09 1290.99 3693.76 1299.7 3685.98 1320.63H3684.73L3682.86 1294.47H3642.43C3643.36 1306.68 3643.67 1320.34 3643.67 1341.26V1436.61H3690.94V1364.52C3690.94 1361.03 3691.26 1357.54 3691.89 1354.64C3694.98 1340.98 3706.8 1332.26 3724.23 1332.26C3729.52 1332.26 3726.96 1331.99 3730.71 1332.57ZM3615.79 1379.64C3616.4 1376.44 3617.33 1369.75 3617.33 1362.19C3617.33 1327.02 3598.68 1291.27 3549.54 1291.27C3496.67 1291.27 3472.73 1331.09 3472.73 1367.13C3472.73 1411.6 3502.27 1439.51 3553.9 1439.51C3574.42 1439.51 3593.38 1436.61 3608.95 1430.5L3602.71 1400.56C3589.97 1404.63 3576.9 1406.66 3560.74 1406.66C3538.66 1406.66 3519.06 1397.94 3517.82 1379.64H3615.79ZM3573.49 1349.4H3517.51C3518.74 1337.77 3526.84 1320.63 3546.73 1320.63C3568.51 1320.63 3573.49 1338.65 3573.49 1349.4ZM3411.89 1436.61L3468.49 1294.47H3418.73L3399.15 1360.45C3395.72 1372.66 3393.23 1383.41 3390.74 1395.04H3389.81C3387.33 1383.7 3384.84 1372.66 3381.1 1360.45L3360.58 1294.47H3309.27L3364.62 1436.61H3411.89ZM3292.26 1254.94C3291.94 1242.45 3282.62 1232.85 3267.39 1232.85C3252.14 1232.85 3242.19 1242.45 3242.19 1254.94C3242.19 1267.14 3251.83 1277.03 3266.75 1277.03C3282.62 1277.03 3292.26 1267.14 3292.26 1254.94ZM3162.33 1436.61H3209.6V1352.61C3209.6 1310.75 3186.27 1291.27 3155.16 1291.27C3129.67 1291.27 3114.43 1304.94 3108.21 1314.23H3107.28L3105.1 1294.47H3064.06C3064.67 1307.26 3065.28 1322.08 3065.28 1339.81V1436.61H3112.56V1354.64C3112.56 1350.57 3112.87 1346.5 3114.12 1343.59C3117.54 1335.45 3125.32 1327.02 3138.38 1327.02C3155.48 1327.02 3162.33 1339.52 3162.33 1357.83V1436.61ZM3030.28 1350.57V1240.69H2983.01V1353.18C2983.01 1388.06 2969.32 1404.33 2944.45 1404.33C2920.5 1404.33 2906.5 1387.19 2906.5 1353.18V1240.69H2859.23V1349.99C2859.23 1412.19 2890.02 1439.79 2942.89 1439.79C2997.63 1439.79 3030.28 1411.03 3030.28 1350.57ZM2711.02 1436.61H2758.27V1352.61C2758.27 1310.75 2734.95 1291.27 2703.86 1291.27C2678.36 1291.27 2663.13 1304.94 2656.91 1314.23H2655.98L2653.79 1294.47H2612.74C2613.36 1307.26 2613.99 1322.08 2613.99 1339.81V1436.61H2661.26V1354.64C2661.26 1350.57 2661.56 1346.5 2662.82 1343.59C2666.23 1335.45 2674 1327.02 2687.07 1327.02C2704.18 1327.02 2711.02 1339.52 2711.02 1357.83V1436.61ZM2581.21 1254.94C2580.9 1242.45 2571.57 1232.85 2556.33 1232.85C2541.09 1232.85 2531.13 1242.45 2531.13 1254.94C2531.13 1267.14 2540.78 1277.03 2555.7 1277.03C2571.57 1277.03 2581.21 1267.14 2581.21 1254.94ZM2499.91 1254.94C2499.61 1242.45 2490.28 1232.85 2475.04 1232.85C2459.8 1232.85 2449.86 1242.45 2449.86 1254.94C2449.86 1267.14 2459.49 1277.03 2474.41 1277.03C2490.28 1277.03 2499.91 1267.14 2499.91 1254.94ZM2451.4 1408.99C2451.4 1429.8 2450.04 1441.38 2446.58 1448.74C2441.62 1457.64 2430.65 1462.46 2419.15 1464.59L2409.96 1502.85C2421.64 1502.94 2458.1 1498.14 2477.21 1481.65C2491.45 1469.36 2498.67 1450.56 2498.67 1419.74V1294.47H2451.4V1408.99ZM2366.88 1436.61H2414.14V1352.61C2414.14 1310.75 2390.83 1291.27 2359.72 1291.27C2334.22 1291.27 2318.99 1304.94 2312.76 1314.23H2311.82L2309.66 1294.47H2268.6C2269.23 1307.26 2269.85 1322.08 2269.85 1339.81V1436.61H2317.12V1354.64C2317.12 1350.57 2317.43 1346.5 2318.67 1343.59C2322.09 1335.45 2329.87 1327.02 2342.92 1327.02C2360.04 1327.02 2366.88 1339.52 2366.88 1357.83V1436.61ZM2196.21 1436.61H2238.81C2236.94 1428.76 2236.31 1415.67 2236.31 1402.3V1352.61C2236.31 1318.89 2220.46 1290.99 2169.77 1290.99C2142.09 1290.99 2121.26 1298.24 2110.68 1303.77L2119.38 1332.26C2129.34 1326.45 2145.83 1321.5 2161.37 1321.5C2184.69 1321.5 2189.05 1332.26 2189.05 1340.1V1341.84C2135.25 1341.84 2099.8 1359.28 2099.8 1396.2C2099.8 1418.88 2118.15 1439.79 2148.94 1439.79C2166.96 1439.79 2182.52 1433.69 2192.48 1422.35H2193.41L2196.21 1436.61ZM2190.6 1384.86C2190.6 1387.48 2190.3 1390.1 2189.67 1392.42C2186.56 1401.43 2176.61 1408.7 2165.1 1408.7C2154.53 1408.7 2146.44 1403.18 2146.44 1391.84C2146.44 1374.99 2165.72 1369.46 2190.6 1369.46V1384.86ZM2077 1254.94C2076.7 1242.45 2067.36 1232.85 2052.12 1232.85C2036.89 1232.85 2026.93 1242.45 2026.93 1254.94C2026.93 1267.14 2036.57 1277.03 2051.51 1277.03C2067.36 1277.03 2077 1267.14 2077 1254.94ZM1950.37 1277.9H2007.58V1240.69H1846.5V1277.9H1903.09V1436.61H1950.37V1277.9ZM2075.44 1294.47H2028.17V1436.61H2075.44V1294.47ZM2579.65 1294.47H2532.38V1436.61H2579.65V1294.47ZM3290.7 1294.47H3243.43V1436.61H3290.7V1294.47ZM3938.46 1294.47H3891.19V1436.61H3938.46V1294.47Z" fill="white"/>
</svg>
