<svg width="3183" height="612" viewBox="0 0 3183 612" fill="none" xmlns="http://www.w3.org/2000/svg">
<rect width="3182.92" height="612" fill="#00468C"/>
<path d="M2784.46 265.623H2734.08L2715.11 335.379C2712.94 343.811 2710.45 354.274 2708.59 362.115H2707.33C2705.47 354.557 2702.36 343.811 2699.87 335.67L2677.17 265.623H2624.61L2680.6 395.836C2682.15 399.324 2682.47 401.364 2682.47 403.103C2682.47 404.843 2681.53 407.174 2679.97 409.496C2675.63 416.472 2662.56 432.348 2644.24 435.738L2635.05 473.998C2658.03 474.157 2679.34 465.883 2695.52 452.515C2712.62 438.272 2727.24 415.889 2749 359.21L2784.46 265.623ZM2577.56 349.621V298.17H2611.46V265.623H2577.56V249.05H2531.22V265.623H2511.01V298.17H2531.22V356.305C2531.22 376.358 2535.58 390.026 2544.29 398.45C2552.06 405.726 2564.81 410.662 2580.05 410.662C2593.11 410.662 2600.24 409.796 2606.16 407.757L2615.09 372.499C2610.74 373.382 2602.75 374.618 2596.23 374.618C2582.23 374.618 2577.56 366.76 2577.56 349.621ZM2491.98 226.092C2491.67 213.598 2482.34 204 2467.11 204C2451.87 204 2441.91 213.598 2441.91 226.092C2441.91 238.295 2451.55 248.184 2466.48 248.184C2482.34 248.184 2491.98 238.295 2491.98 226.092ZM2352.16 304.28C2352.16 297.305 2358.7 292.943 2370.2 292.943C2382.94 292.943 2396.32 297.596 2403.16 301.075L2411.24 270.568C2401.92 266.206 2386.36 262.135 2368.64 262.135C2331.01 262.135 2306.75 282.197 2306.75 308.925C2306.45 325.789 2318.57 341.78 2350.29 351.652C2367.71 357.179 2372.37 360.658 2372.37 368.226C2372.37 375.484 2366.47 379.846 2352.16 379.846C2338.16 379.846 2320.12 374.327 2311.43 369.382L2303.02 400.772C2314.53 406.582 2332.25 410.944 2352.16 410.944C2395.69 410.944 2417.78 391.474 2417.78 364.729C2417.47 344.103 2405.65 330.151 2376.73 320.845C2358.06 314.743 2352.16 311.247 2352.16 304.28ZM2282.67 303.724L2292.8 263.751C2289.37 263.16 2283.34 262.135 2278.98 262.135C2264.05 262.135 2245.72 270.85 2237.94 291.777H2236.69L2234.82 265.623H2194.39C2195.32 277.835 2195.64 291.486 2195.64 312.412V407.757H2242.91V335.67C2242.91 332.182 2243.22 328.694 2243.85 325.789C2246.95 312.13 2258.76 303.406 2276.19 303.406C2281.48 303.406 2278.93 303.141 2282.67 303.724ZM2167.75 350.787C2168.36 347.59 2169.3 340.897 2169.3 333.339C2169.3 298.17 2150.64 262.418 2101.51 262.418C2048.63 262.418 2024.69 302.24 2024.69 338.284C2024.69 382.751 2054.23 410.662 2105.86 410.662C2126.38 410.662 2145.34 407.757 2160.91 401.655L2154.68 371.713C2141.93 375.784 2128.86 377.815 2112.7 377.815C2090.62 377.815 2071.02 369.091 2069.78 350.787H2167.75ZM2125.45 320.553H2069.47C2070.71 308.925 2078.8 291.777 2098.7 291.777C2120.47 291.777 2125.45 309.799 2125.45 320.553ZM1963.86 407.757L2020.45 265.623H1970.7L1951.11 331.6C1947.68 343.811 1945.19 354.557 1942.7 366.195H1941.77C1939.29 354.848 1936.81 343.811 1933.06 331.6L1912.54 265.623H1861.23L1916.58 407.757H1963.86ZM1844.22 226.092C1843.9 213.598 1834.58 204 1819.35 204C1804.11 204 1794.15 213.598 1794.15 226.092C1794.15 238.295 1803.79 248.184 1818.71 248.184C1834.58 248.184 1844.22 238.295 1844.22 226.092ZM1714.29 407.757H1761.56V323.759C1761.56 281.897 1738.23 262.418 1707.13 262.418C1681.63 262.418 1666.39 276.087 1660.17 285.384H1659.24L1657.06 265.623H1616.02C1616.63 278.409 1617.25 293.234 1617.25 310.964V407.757H1664.53V325.789C1664.53 321.719 1664.83 317.648 1666.08 314.743C1669.51 306.602 1677.28 298.17 1690.34 298.17C1707.44 298.17 1714.29 310.673 1714.29 328.977V407.757ZM1582.24 321.719V211.841H1534.97V324.333C1534.97 359.21 1521.28 375.484 1496.41 375.484C1472.46 375.484 1458.46 358.345 1458.46 324.333V211.841H1411.19V321.136C1411.19 383.342 1441.98 410.944 1494.85 410.944C1549.59 410.944 1582.24 382.177 1582.24 321.719ZM1262.98 407.757H1310.23V323.759C1310.23 281.897 1286.91 262.418 1255.83 262.418C1230.32 262.418 1215.09 276.087 1208.87 285.384H1207.94L1205.75 265.623H1164.7C1165.32 278.409 1165.96 293.234 1165.96 310.964V407.757H1213.23V325.789C1213.23 321.719 1213.52 317.648 1214.78 314.743C1218.19 306.602 1225.96 298.17 1239.03 298.17C1256.14 298.17 1262.98 310.673 1262.98 328.977V407.757ZM1133.17 226.092C1132.86 213.598 1123.53 204 1108.3 204C1093.05 204 1083.1 213.598 1083.1 226.092C1083.1 238.295 1092.75 248.184 1107.66 248.184C1123.53 248.184 1133.17 238.295 1133.17 226.092ZM1051.87 226.092C1051.58 213.598 1042.24 204 1027 204C1011.76 204 1001.82 213.598 1001.82 226.092C1001.82 238.295 1011.45 248.184 1026.38 248.184C1042.24 248.184 1051.87 238.295 1051.87 226.092ZM1003.36 380.137C1003.36 400.949 1002 412.533 998.54 419.889C993.581 428.789 982.617 433.61 971.115 435.738L961.926 473.998C973.6 474.086 1010.06 469.291 1029.17 452.797C1043.41 440.515 1050.64 421.708 1050.64 390.892V265.623H1003.36V380.137ZM918.837 407.757H966.099V323.759C966.099 281.897 942.789 262.418 911.681 262.418C886.185 262.418 870.952 276.087 864.727 285.384H863.787L861.619 265.623H820.564C821.187 278.409 821.811 293.234 821.811 310.964V407.757H869.082V325.789C869.082 321.719 869.388 317.648 870.635 314.743C874.05 306.602 881.83 298.17 894.885 298.17C911.998 298.17 918.837 310.673 918.837 328.977V407.757ZM748.17 407.757H790.77C788.899 399.907 788.276 386.821 788.276 373.453V323.759C788.276 290.038 772.42 262.135 721.734 262.135C694.05 262.135 673.225 269.394 662.645 274.921L671.345 303.406C681.302 297.596 697.791 292.651 713.331 292.651C736.65 292.651 741.014 303.406 741.014 311.247V312.995C687.211 312.995 651.757 330.434 651.757 367.351C651.757 390.026 670.108 410.944 700.899 410.944C718.923 410.944 734.482 404.843 744.439 393.505H745.369L748.17 407.757ZM742.559 356.014C742.559 358.628 742.261 361.25 741.628 363.572C738.52 372.579 728.573 379.846 717.062 379.846C706.491 379.846 698.405 374.327 698.405 362.989C698.405 346.142 717.686 340.606 742.559 340.606V356.014ZM628.966 226.092C628.659 213.598 619.326 204 604.083 204C588.851 204 578.894 213.598 578.894 226.092C578.894 238.295 588.534 248.184 603.47 248.184C619.326 248.184 628.966 238.295 628.966 226.092ZM502.328 249.05H559.546V211.841H398.462V249.05H455.057V407.757H502.328V249.05ZM627.402 265.623H580.131V407.757H627.402V265.623ZM1131.61 265.623H1084.34V407.757H1131.61V265.623ZM1842.67 265.623H1795.4V407.757H1842.67V265.623ZM2490.42 265.623H2443.15V407.757H2490.42V265.623Z" fill="white"/>
</svg>
