<svg width="5087" height="1811" viewBox="0 0 5087 1811" fill="none" xmlns="http://www.w3.org/2000/svg">
<rect width="5086.5" height="1810.6" fill="white"/>
<path d="M1670.75 905.301C1670.75 678.031 1486.51 493.801 1259.25 493.801C1031.98 493.801 847.75 678.031 847.75 905.301C847.75 1132.57 1031.98 1316.8 1259.25 1316.8C1486.51 1316.8 1670.75 1132.57 1670.75 905.301ZM1634.12 821.849L1653.61 843.789L1641.49 868.6L1658.14 892.737L1643.06 915.848L1656.58 941.883L1638.82 962.941L1649.03 990.422L1628.78 1009.18L1635.61 1037.72L1613.21 1053.83L1616.45 1082.97L1592.2 1096.19L1591.85 1125.56L1566.2 1135.7L1562.22 1164.77L1535.53 1171.71L1528 1200.03L1500.67 1203.63L1489.75 1230.86L1462.17 1231.06L1447.97 1256.74L1420.57 1253.55L1403.32 1277.23L1376.52 1270.7L1356.49 1292.14L1330.69 1282.36L1308.16 1301.16L1283.77 1288.29L1259.15 1304.19L1236.5 1288.42L1210.13 1301.13L1189.57 1282.71L1161.81 1292.09L1143.7 1271.28L1114.99 1277.15L1099.57 1254.31L1070.36 1256.65L1057.89 1232.03L1028.58 1230.73L1019.24 1204.78L990.342 1199.89L984.254 1172.99L956.142 1164.62L953.394 1137.16L926.535 1125.39L927.186 1097.79L901.957 1082.78L905.999 1055.47L882.82 1037.53L890.205 1010.92L869.42 990.214L879.999 964.76L861.903 941.675L875.526 917.663L860.372 892.533L876.838 870.37L864.921 843.588L883.982 823.623L875.456 795.543L896.812 778.126L891.769 749.198L915.127 734.522L913.727 705.196L938.671 693.518L940.86 664.252L967.054 655.664L972.838 626.941L999.927 621.648L1009.15 593.818L1036.69 591.921L1049.24 565.444L1076.79 566.935L1092.54 542.206L1119.69 547.049L1138.38 524.458L1164.71 532.592L1186.06 512.434L1211.14 523.818L1234.76 506.42L1258.36 520.795L1283.94 506.431L1305.53 523.595L1332.65 512.475L1352.02 532.149L1380.32 524.521L1397.09 546.383L1426.14 542.292L1440.12 566.05L1469.43 565.555L1480.35 590.861L1509.52 593.955L1517.25 620.451L1545.8 627.086L1550.24 654.292L1577.76 664.412L1578.81 691.967L1604.89 705.379L1602.53 732.882L1626.82 749.392L1621.07 776.397L1643.09 795.748L1634.12 821.849ZM1642.32 845.336L1623.37 824.006L1632.08 798.668L1610.66 779.848L1616.23 753.643L1592.62 737.598L1594.91 710.898L1569.56 697.859L1568.54 671.11L1541.79 661.269L1537.48 634.874L1509.71 628.421L1502.21 602.695L1473.85 599.69L1463.25 575.129L1434.76 575.608L1421.19 552.549L1392.94 556.525L1376.66 535.307L1349.14 542.723L1330.36 523.644L1303.99 534.459L1283.03 517.801L1258.17 531.759L1235.26 517.812L1212.29 534.731L1187.93 523.685L1167.2 543.266L1141.63 535.37L1123.46 557.34L1097.12 552.635L1081.8 576.691L1055.07 575.236L1042.86 600.984L1016.13 602.829L1007.17 629.879L980.87 635.019L975.246 662.943L949.831 671.274L947.701 699.744L923.484 711.084L924.843 739.595L902.187 753.833L907.088 781.957L886.361 798.868L894.645 826.16L876.151 845.537L887.735 871.575L871.755 893.083L886.489 917.518L873.268 940.83L890.863 963.283L880.598 987.99L900.806 1008.11L893.644 1033.93L916.176 1051.38L912.251 1077.89L936.782 1092.48L936.15 1119.27L962.263 1130.71L964.93 1157.35L992.26 1165.49L998.177 1191.62L1026.29 1196.37L1035.34 1221.56L1063.83 1222.82L1075.94 1246.7L1104.33 1244.43L1119.3 1266.61L1147.21 1260.89L1164.79 1281.09L1191.78 1271.98L1211.73 1289.85L1237.36 1277.49L1259.35 1292.8L1283.29 1277.33L1306.97 1289.82L1328.88 1271.55L1353.91 1281.04L1373.39 1260.19L1399.4 1266.54L1416.17 1243.51L1442.75 1246.6L1456.56 1221.63L1483.33 1221.44L1493.95 1194.97L1520.48 1191.47L1527.8 1163.95L1553.71 1157.2L1557.58 1128.93L1582.46 1119.1L1582.8 1090.53L1606.34 1077.7L1603.18 1049.38L1624.93 1033.74L1618.29 1006L1637.95 987.782L1628.02 961.063L1645.25 940.622L1632.11 915.305L1646.73 892.882L1630.55 869.418L1642.32 845.336ZM1619.3 905.223C1619.3 1104.11 1458.31 1265.35 1259.74 1265.35C1061.15 1265.35 900.17 1104.11 900.17 905.223C900.17 706.323 1061.15 545.089 1259.74 545.089C1458.31 545.089 1619.3 706.323 1619.3 905.223ZM1516.97 1076.33C1527.15 1082.76 1536.09 1084.87 1542.27 1085.33C1543.73 1083.04 1545.15 1080.74 1546.56 1078.43C1539.79 1077.43 1531.18 1074.57 1521.8 1068.65C1511.45 1062.12 1504.7 1054.71 1501.08 1048.64L1500.92 1048.91C1499.6 1051.11 1498.26 1053.31 1496.89 1055.48C1499.75 1061.05 1505.64 1069.12 1516.97 1076.33ZM1527.19 1047.1L1549.13 1074.08C1551.08 1070.73 1552.97 1067.35 1554.81 1063.94L1555.45 1062.67L1546.02 1053.82C1543.14 1051.2 1540.85 1049.02 1538.24 1046.75L1538.31 1046.63C1541.88 1047.34 1544.71 1047.89 1548.69 1048.51L1561.45 1050.77L1562.68 1048.34C1564.19 1045.15 1565.64 1041.93 1567.06 1038.68L1531.97 1036.34L1512.83 1026.69C1511.14 1030.23 1509.36 1033.72 1507.53 1037.18L1527.19 1047.1ZM1558.51 1028L1569.88 1031.98C1570.77 1029.8 1571.63 1027.61 1572.47 1025.41L1579.07 1006.54C1579.81 1004.18 1580.54 1001.8 1581.24 999.419L1569.88 995.451L1566.18 1006.06L1526.62 992.233C1525.4 995.99 1524.1 999.713 1522.73 1003.4L1562.28 1017.22L1558.51 1028ZM1530.81 978.071L1583.48 991.077L1586.32 979.607L1533.61 966.593C1532.76 970.446 1531.82 974.27 1530.81 978.071ZM1586.24 967.423C1588.24 964.76 1589.96 961.252 1590.72 956.023C1592.33 945.04 1586.85 938.324 1577.46 936.895C1569.58 935.694 1563.91 939.782 1559.68 946.666C1556.91 951.266 1555.14 952.977 1552.54 952.579C1549.85 952.166 1548.48 949.98 1549.06 945.974C1549.69 941.645 1551.98 937.569 1554.02 935.173L1542.6 931.19C1540.66 933.399 1538.19 938.242 1537.42 943.475C1535.57 956.194 1542.59 963.279 1551.74 964.674C1559.15 965.805 1564.79 963.034 1569.4 955.741C1572.72 950.634 1574.16 948.481 1576.84 948.886C1579.2 949.243 1580.5 951.423 1579.98 954.978C1579.34 959.371 1577.37 962.372 1576.07 964.09L1586.24 967.423ZM1590.54 923.86C1592.6 921.725 1594.42 919.977 1594.47 915.395C1594.52 911.478 1594.58 911.144 1594.61 909.013C1594.65 905.2 1594.62 901.399 1594.53 897.613C1594.42 896.576 1594.28 895.631 1594.13 894.787L1540.1 893.879C1540.25 897.766 1540.32 901.663 1540.32 905.58L1560.3 905.914L1560.28 907.808C1560.21 911.464 1558.8 913.074 1552.17 914.141C1546.09 915.205 1542.06 916.142 1540.08 916.778C1539.92 920.895 1539.66 924.987 1539.33 929.055C1541.55 928.241 1549.47 926.95 1555.07 925.686C1559.83 924.652 1563.36 923.146 1564.96 920.23L1565.29 920.237C1566.78 923.722 1571.61 927.921 1578.47 928.033C1583.85 928.122 1587.8 926.623 1590.54 923.86ZM1584.16 910.299C1584 914.216 1581.68 916.332 1577.52 916.258C1573.44 916.194 1570.7 913.598 1570.78 909.158L1570.84 906.086L1583.9 906.309C1584.05 906.896 1584.19 908.079 1584.16 910.299ZM1582.23 883.503L1593.85 882.186C1593.61 878.664 1593.31 875.164 1592.96 871.683L1591.85 861.946C1591.51 859.205 1591.11 856.471 1590.7 853.749L1536.67 859.9C1538.23 869.526 1539.31 879.315 1539.87 889.241L1551.59 887.91L1549.59 870.325L1559.65 869.184L1561.43 884.882L1573.28 883.54L1571.5 867.837L1580.33 866.826L1582.23 883.503ZM1533.98 845.619L1589.51 846.56C1588.78 842.48 1587.98 838.418 1587.12 834.39L1564.75 834.948C1558.73 835.075 1552.24 835.38 1545.4 835.908L1545.37 835.785C1552.02 833.081 1557.61 830.508 1563.22 827.659L1583.14 818.022L1582.92 817.107C1581.87 813.284 1580.76 809.487 1579.6 805.712L1530.6 831.735C1531.83 836.321 1532.96 840.947 1533.98 845.619ZM1526.57 818.201L1577.86 800.311C1576.62 796.559 1575.33 792.836 1573.97 789.146L1522.66 807.039C1524.04 810.729 1525.34 814.444 1526.57 818.201ZM1520.88 802.398L1570.07 779.123C1568.73 775.798 1567.32 772.492 1565.86 769.219L1554.1 774.768C1546.63 778.294 1539.81 781.812 1533.53 785.505L1533.44 785.33C1538.43 780.8 1543.98 775.359 1547.9 770.837L1560.25 757.236C1558.2 753.078 1556.06 748.957 1553.85 744.895L1504.66 768.166C1506.41 771.302 1508.1 774.474 1509.75 777.688L1521.35 772.19C1529.39 768.386 1536.87 764.711 1543.47 761.293L1543.56 761.472C1538.39 766.221 1532.98 771.964 1528.74 776.721L1515.95 790.656C1517.67 794.524 1519.33 798.437 1520.88 802.398ZM1524.16 750.958L1548.16 734.887C1546.18 731.525 1544.13 728.207 1542.03 724.927L1541.96 724.815L1516.01 742.117C1508.75 746.963 1503.88 747.462 1501.27 743.549C1498.69 739.692 1501.37 735.162 1508.29 730.543L1534.22 713.249C1531.97 710.017 1529.65 706.829 1527.27 703.679L1503.66 719.489C1488.93 729.319 1485.58 739.164 1492.28 749.217C1499.14 759.482 1510.03 760.378 1524.16 750.958ZM1496.63 687.902L1506.1 681.68C1505.46 679.088 1503.18 674.989 1498.96 670.801C1488.81 660.722 1474.37 659.145 1460.87 672.668C1455.29 678.288 1452.38 683.934 1451.85 690.309C1451.35 696.475 1453.62 702.53 1459.79 708.644C1463.87 712.694 1469.49 715.744 1472.78 717.057L1493.38 696.646L1481.14 684.499L1473.09 692.618L1477.26 696.75L1470.59 703.478C1470.05 703.285 1468.77 702.355 1467.65 701.247C1462.5 696.137 1462.95 688.185 1470.19 680.884C1478.07 672.944 1485.67 673.81 1490.82 678.917C1494.39 682.461 1495.79 685.228 1496.63 687.902ZM1439.57 689.687L1471.57 645.682C1468.79 643.402 1465.98 641.167 1463.12 638.984L1455.55 649.394C1450.7 656.062 1446.39 662.418 1442.65 668.685L1442.5 668.566C1444.7 662.199 1446.96 654.757 1448.22 648.914L1452.5 631.17C1448.71 628.488 1444.86 625.892 1440.96 623.37L1408.95 667.372C1412 669.295 1415 671.274 1417.97 673.304L1425.59 662.831C1430.82 655.638 1435.61 648.825 1439.77 642.666L1439.92 642.777C1437.68 649.42 1435.68 657.059 1434.23 663.266L1429.67 681.766C1433.03 684.332 1436.33 686.972 1439.57 689.687ZM1407.1 665.71L1420.69 611.268C1416.06 608.72 1411.36 606.273 1406.6 603.945L1370.2 646.515C1373.99 648.144 1377.73 649.844 1381.44 651.629L1389.09 642.007L1399.17 647.244L1395.97 659.171C1399.73 661.273 1403.45 663.448 1407.1 665.71ZM1408.61 616.456C1407.69 619.655 1406.37 624.029 1405.52 627.086L1402.77 636.789L1395.52 633.022L1401.71 625.204C1403.72 622.749 1406.41 618.993 1408.49 616.397L1408.61 616.456ZM1370.92 623.515L1395.62 598.812C1391.64 597.038 1387.62 595.342 1383.57 593.717L1375.67 604.097C1373.35 607.229 1371.43 609.732 1369.44 612.559L1369.32 612.514C1369.65 608.88 1369.91 606.005 1370.12 601.978L1371.06 589.057L1369.62 588.507C1365.92 587.22 1362.21 585.996 1358.45 584.836L1359.73 619.859L1352.08 639.925C1355.79 641.215 1359.46 642.587 1363.09 644.038L1370.92 623.515ZM1338.84 635.655L1353.17 583.251C1349.39 582.15 1345.59 581.124 1341.76 580.146L1327.43 632.557C1331.26 633.509 1335.07 634.547 1338.84 635.655ZM1329.42 589.299L1331.45 577.713C1328.87 577.148 1326.28 576.613 1323.67 576.107L1312.02 574.054C1309.11 573.593 1306.2 573.172 1303.27 572.789L1293.84 626.338C1303.7 627.547 1313.4 629.262 1322.91 631.467L1324.94 619.934L1307.51 616.865L1309.27 606.891L1324.83 609.635L1326.9 597.894L1311.34 595.156L1312.88 586.394L1329.42 589.299ZM1289.64 601.885C1292.55 598.946 1294.33 594.137 1294.63 588.588C1294.94 582.972 1293.19 577.963 1290.35 575.024C1287.44 571.923 1283.46 570.718 1277.13 570.372C1270.41 570 1265.32 569.795 1262.09 570.268L1259.1 624.222H1259.25C1263.12 624.222 1266.97 624.308 1270.8 624.464L1271.8 606.455C1272.5 606.578 1273.54 606.716 1274.65 606.783C1280.59 607.11 1285.83 605.682 1289.64 601.885ZM1283 588.276C1282.75 592.999 1279.71 595.778 1275.08 595.525C1273.84 595.45 1273.06 595.324 1272.42 595.212L1273.19 581.191C1273.79 581.057 1274.97 580.964 1276.73 581.057C1281.16 581.306 1283.23 584.196 1283 588.276ZM1255.57 624.151C1252.11 617.925 1248.96 608.534 1248.45 596.298C1247.98 585.156 1249.82 576.337 1252.31 569.996C1249.57 570.052 1246.85 570.141 1244.14 570.256C1241.49 575.865 1239 584.691 1239.45 596.674C1240.01 610.082 1244.12 619.283 1247.54 624.468C1248.53 624.43 1249.53 624.389 1250.53 624.36L1255.57 624.151ZM1210.66 606.072L1218.94 572.298C1215.09 572.763 1211.26 573.288 1207.42 573.883L1206.03 574.136L1204.66 587.004C1204.3 590.887 1203.94 594.022 1203.71 597.462L1203.58 597.488C1201.98 594.212 1200.72 591.62 1198.81 588.068L1192.91 576.534L1190.23 577.022C1186.77 577.747 1183.32 578.524 1179.88 579.357L1199.19 608.743L1203.04 629.838C1206.89 629.053 1210.75 628.354 1214.61 627.74L1210.66 606.072ZM1178.5 636.001L1165.65 596.116L1176.53 592.613L1172.85 581.154C1170.57 581.756 1168.3 582.392 1166.04 583.043L1147 589.172C1144.68 590.002 1142.35 590.861 1140.02 591.739L1143.71 603.186L1154.4 599.742L1167.25 639.634C1170.98 638.336 1174.73 637.131 1178.5 636.001ZM1153.43 644.838L1132.01 594.982L1121.15 599.646L1142.58 649.531C1146.17 647.887 1149.79 646.318 1153.43 644.838ZM1105.34 619.551C1109.23 617.412 1112.81 617.174 1114.97 617.174L1111.49 607.054C1108.16 607.069 1104.33 607.809 1099.7 610.364C1089.97 615.705 1087.92 624.133 1092.44 632.475C1096.23 639.486 1102.92 641.539 1110.96 640.758C1116.3 640.192 1118.73 640.579 1119.99 642.889C1121.28 645.28 1120.36 647.694 1116.82 649.643C1112.98 651.748 1108.35 652.388 1105.21 652.205L1108.93 663.724C1111.86 663.925 1117.21 662.984 1121.84 660.436C1133.11 654.232 1134.52 644.362 1130.12 636.228C1126.55 629.641 1120.93 626.811 1112.34 627.536C1106.26 627.967 1103.67 628.12 1102.37 625.736C1101.24 623.634 1102.19 621.284 1105.34 619.551ZM1086.5 652.239C1088.38 648.94 1088.81 642.558 1084.76 637.02C1081.59 632.668 1078.01 630.429 1074.16 629.912C1071.21 629.555 1068.72 629.154 1065.03 631.884C1061.88 634.212 1061.58 634.357 1059.86 635.625C1056.79 637.89 1053.78 640.211 1050.81 642.558C1050.05 643.287 1049.38 643.964 1048.81 644.592L1080.69 688.226C1083.69 685.76 1086.76 683.354 1089.88 680.988L1078.09 664.851L1079.62 663.735C1082.57 661.578 1084.71 661.734 1089.55 666.383C1094.07 670.578 1097.26 673.234 1098.95 674.416C1102.33 672.07 1105.75 669.801 1109.2 667.618C1107.2 666.338 1101.4 660.793 1097.01 657.096C1093.32 653.924 1089.98 652.012 1086.7 652.499L1086.5 652.239ZM1074.35 654.537L1071.88 656.349L1064.16 645.805C1064.55 645.325 1065.4 644.495 1067.19 643.19C1070.41 640.94 1073.49 641.516 1075.95 644.879C1078.36 648.174 1077.94 651.911 1074.35 654.537ZM1034.83 672.46L1046.99 660.886L1038.93 652.425C1036.27 654.738 1033.65 657.081 1031.08 659.461L1023.99 666.223C1022.01 668.153 1020.07 670.113 1018.15 672.088L1055.65 711.463C1062.38 704.404 1069.54 697.639 1077.12 691.205L1068.98 682.662L1056.17 694.865L1049.19 687.538L1060.63 676.637L1052.42 668.008L1040.97 678.909L1034.83 672.46ZM1045.89 722.231L1013.14 677.377C1010.32 680.419 1007.56 683.502 1004.87 686.627L1018.82 704.125C1022.55 708.849 1026.7 713.833 1031.25 718.972L1031.17 719.077C1025 715.402 1019.58 712.497 1013.92 709.741L994.219 699.674L993.627 700.402C991.204 703.542 988.84 706.721 986.542 709.927L1036.86 733.303C1039.77 729.546 1042.78 725.857 1045.89 722.231ZM1028.5 744.68L983.275 714.569C981.031 717.816 978.846 721.096 976.73 724.41L1021.96 754.524C1024.06 751.207 1026.24 747.919 1028.5 744.68ZM1019.33 758.742L971.077 733.559C969.246 736.642 967.459 739.763 965.723 742.898L977.252 748.938C984.568 752.758 991.486 756.079 998.228 758.857L998.14 759.032C991.519 757.782 983.819 756.641 977.855 756.25L959.555 754.602C957.472 758.749 955.481 762.933 953.577 767.155L1001.82 792.345C1003.26 789.05 1004.77 785.784 1006.34 782.541L994.954 776.601C987.064 772.481 979.624 768.743 972.919 765.537L973.006 765.362C979.909 766.608 987.751 767.46 994.113 767.98L1012.94 769.769C1014.98 766.054 1017.11 762.379 1019.33 758.742ZM976.324 787.171L949.024 777.728C947.547 781.332 946.133 784.973 944.781 788.626L944.737 788.748L974.187 799.002C982.434 801.87 985.778 805.451 984.232 809.896C982.705 814.277 977.483 814.876 969.619 812.138L940.184 801.896C938.974 805.652 937.823 809.423 936.745 813.217L963.597 822.508C980.329 828.324 990.199 825.052 994.172 813.641C998.224 801.981 992.363 792.75 976.324 787.171ZM984.809 844.328L931.026 836.079C930.288 839.582 929.605 843.112 928.98 846.664L941.77 848.628C949.926 849.881 957.549 850.785 964.828 851.242L964.795 851.436C958.13 852.391 950.478 853.797 944.708 855.356L926.948 859.696C926.327 864.278 925.797 868.89 925.362 873.528L979.153 881.788C979.449 878.188 979.81 874.61 980.245 871.051L967.455 869.087C958.66 867.737 950.408 866.602 943.027 865.732L943.056 865.539C949.992 864.49 957.684 862.768 963.874 861.202L982.35 856.795C983.077 852.607 983.896 848.453 984.809 844.328ZM978.703 887.977L924.434 885.76C924.208 889.68 924.05 893.615 923.963 897.565L978.232 899.789C978.309 895.832 978.462 891.897 978.703 887.977ZM956.931 906.435L923.882 907.726C923.912 911.679 924.007 915.622 924.171 919.542L957.373 918.244C964.803 917.957 966.977 920.356 967.116 924.142C967.189 926.035 966.856 927.873 966.429 929.331L978.064 930.182C978.86 927.932 979.145 924.715 979.05 922.301C978.656 911.731 972.593 905.821 956.931 906.435ZM979.441 932.139L925.753 941.016C926.13 944.602 926.565 948.176 927.058 951.724L939.8 949.615C947.938 948.272 955.462 946.759 962.53 944.936L962.559 945.126C956.515 948.109 949.681 951.821 944.682 955.097L929.148 964.752L929.378 966.151C930.131 970.26 930.961 974.344 931.86 978.402L985.548 969.524C984.733 966.035 983.98 962.513 983.297 958.973L970.576 961.078C961.795 962.528 953.602 964.016 946.316 965.489L946.283 965.292C952.546 962.141 959.329 958.106 964.722 954.696L980.921 944.754C980.337 940.577 979.843 936.371 979.441 932.139ZM986.428 973.18L938.276 1002.84C939.808 1007.88 941.448 1012.87 943.213 1017.81L999.415 1012.68C997.844 1008.88 996.353 1005.04 994.946 1001.16L982.789 1002.69L979.24 991.891L989.819 985.632C988.595 981.518 987.462 977.368 986.428 973.18ZM971.906 1004.61L962.003 1005.87C958.85 1006.22 954.311 1007.02 951.004 1007.42L950.96 1007.3C953.858 1005.66 957.859 1003.45 960.607 1001.87L969.356 996.856L971.906 1004.61ZM1000.61 1015.52L951.11 1037.91C952.667 1041.52 954.297 1045.12 955.974 1048.68L1005.48 1026.3C1003.79 1022.74 1002.16 1019.15 1000.61 1015.52ZM969.531 1049.12L959.062 1055.02C964.218 1065.34 969.893 1075.35 976.05 1085.03L986.476 1079.16L980.958 1069.37L1017.49 1048.76C1015.48 1045.37 1013.54 1041.94 1011.66 1038.47L975.144 1059.07L969.531 1049.12ZM1044.86 1140.8C1042.52 1142.47 1047.97 1150.24 1053.17 1153.03C1056.53 1154.84 1061.35 1154.1 1064.95 1153.59C1069.92 1152.9 1075.11 1152.13 1079.39 1149.32C1082.94 1146.98 1086.27 1144.23 1089.53 1141.51C1091.1 1140.19 1092.66 1138.89 1094.18 1137.54C1097.89 1134.27 1102.9 1130.31 1102.9 1130.31C1102.9 1130.31 1095.15 1145.66 1092.17 1153.05C1089.2 1160.43 1088.18 1171.34 1090.52 1174.57C1092.85 1177.8 1099.61 1177.62 1100.86 1178.06C1102.11 1178.5 1108.7 1180.67 1112.12 1181.87C1115.54 1183.06 1116.49 1180.47 1115.01 1179.41C1113.54 1178.34 1113.1 1177.98 1110.17 1176.01C1107.23 1174.05 1103.29 1170.81 1103.06 1170.19C1102.84 1169.57 1102.9 1166.09 1103.05 1163.58C1103.21 1161.07 1103.47 1148.22 1104.12 1144.21C1104.77 1140.2 1107.66 1130.4 1107.66 1130.4C1107.66 1130.4 1112.08 1130.2 1118.63 1131.34C1125.2 1132.46 1126.62 1131.43 1127.52 1130.7C1128.41 1129.97 1129.36 1128.98 1126.72 1128.28C1124.07 1127.57 1119.76 1123.89 1119.4 1123.6C1119.06 1123.31 1118.4 1122.49 1117.11 1122.46C1115.82 1122.42 1114.95 1121.13 1114.95 1121.13C1114.95 1121.13 1114.64 1120.28 1115.36 1119.41C1116.08 1118.53 1115.78 1115.5 1115.78 1115.5C1117.05 1117.71 1124.23 1118.61 1127.26 1118.31C1130.3 1118.01 1136.16 1117.83 1138.54 1117.44C1140.91 1117.04 1141.81 1118.81 1145.19 1117.02C1147.35 1115.88 1145.83 1116.9 1147.95 1115.54C1150.07 1114.16 1149.61 1113.51 1148.94 1112.25C1148.28 1111 1146.12 1110.36 1144.3 1109.3C1142.49 1108.23 1140.11 1106.99 1139.05 1106.4C1137.98 1105.81 1138.48 1106.22 1135.33 1105.75C1132.18 1105.29 1128.29 1103.66 1124.38 1102.57C1120.47 1101.48 1118.82 1100.56 1117.97 1099.86C1117.13 1099.17 1116.66 1098.36 1114.49 1099.12C1113.06 1099.61 1113.11 1101.12 1113.29 1102.36C1113.51 1103.88 1113.36 1104.82 1113.27 1106.34C1113.19 1107.58 1114.09 1108.6 1113.85 1109.9C1113.85 1109.9 1113.07 1109.12 1111.73 1108.16C1110.4 1107.21 1109.28 1109.26 1108.45 1110.28C1107.62 1111.29 1105.14 1114.49 1104.05 1115.29C1102.97 1116.09 1101.88 1117.6 1100.77 1118.95C1099.66 1120.3 1095.93 1123.42 1095.93 1123.42C1093.62 1123.73 1076.94 1121.35 1074.08 1120.9C1071.21 1120.46 1069.07 1115.03 1069.07 1115.03C1065.75 1116.27 1064.19 1122.6 1064.36 1125.74C1064.46 1127.61 1065.01 1129.8 1065.85 1131.47C1067.26 1134.24 1071.92 1135.87 1076.69 1135.07C1081.45 1134.28 1088.69 1131.71 1088.69 1131.71C1085.66 1136.13 1083.08 1138.55 1072.22 1144.46C1061.36 1150.37 1056.62 1146.49 1053.42 1145.03C1050.21 1143.57 1046.29 1139.77 1044.86 1140.8ZM1109.55 1125.31C1110.33 1123.83 1112.37 1123.05 1112.37 1123.05L1113.07 1122.75C1115.06 1123.26 1114.77 1125.83 1114.24 1125.62C1113.83 1125.46 1109.55 1125.31 1109.55 1125.31ZM1112.12 991.94C1158.66 1074.72 1232.5 1112.16 1250.97 1120.81L1259.25 1124.09L1267.53 1120.81C1286 1112.16 1359.84 1074.72 1406.4 991.94C1426.82 955.38 1434.56 916.254 1435.56 879.999L1435.58 879.244H1435.6L1436.04 863.225C1436.04 863.225 1415.66 856.97 1409.58 852.912C1400.27 846.712 1397.7 839.385 1402.21 829.913C1406.52 820.864 1431.06 813.254 1431.06 813.254L1426.95 794.621C1426.68 793.416 1426.41 792.215 1426.13 791.021H1426.12C1416.02 747.242 1401.78 717.593 1401.28 716.525L1393.01 699.32L1375.89 705.364C1365.41 709.087 1355.05 710.601 1345.03 710.601C1306.92 710.939 1273.06 679.791 1271.54 678.411L1259.25 668.96L1246.94 678.411H1246.96C1245.44 679.791 1211.58 710.939 1173.47 710.601C1163.45 710.601 1153.11 709.087 1142.6 705.364L1125.49 699.32L1117.22 716.525C1116.71 717.615 1101.69 748.875 1091.55 794.621L1087.45 813.254C1087.45 813.254 1111.98 820.864 1116.29 829.913C1120.81 839.385 1118.23 846.712 1108.93 852.912C1102.85 856.97 1082.47 863.225 1082.47 863.225L1082.93 879.999C1083.95 916.254 1091.68 955.38 1112.12 991.94ZM1122.18 985.412C1103.01 951.095 1095.65 914.249 1094.67 879.616L1094.47 872.17L1101.02 869.738C1110.65 866.179 1118.48 860.849 1123.59 855.01C1128.74 849.133 1131.13 843.112 1131.13 837.18C1131.13 836.83 1131.13 836.488 1131.1 836.179C1130.85 831.14 1128.94 826.327 1125.14 821.593C1121.34 816.906 1115.62 812.507 1108.42 809.193L1101.18 805.831L1103 797.537C1112.78 753.286 1127.43 722.833 1127.65 722.349L1131.34 714.692L1138.94 717.392C1150.73 721.576 1162.34 723.246 1173.5 723.246H1173.77C1215.29 723.246 1249.99 691.618 1253.51 688.914L1253.78 688.709L1259.25 684.54L1264.71 688.709L1265.01 688.914C1268.52 691.621 1303.37 723.395 1345.02 723.246C1356.16 723.246 1367.76 721.576 1379.57 717.392L1387.16 714.692L1390.85 722.349C1391.07 722.807 1404.32 750.37 1414.03 791.132C1414.25 792.025 1414.46 792.921 1414.67 793.825C1414.75 794.178 1414.83 794.536 1414.92 794.889C1415.03 795.421 1415.15 795.949 1415.27 796.484C1415.36 796.834 1415.43 797.184 1415.51 797.537L1416.35 801.394L1417.32 805.831L1410.08 809.193C1402.89 812.507 1397.16 816.906 1393.37 821.593C1389.57 826.327 1387.66 831.14 1387.41 836.179C1387.39 836.488 1387.37 836.83 1387.37 837.18C1387.39 843.112 1389.76 849.133 1394.91 855.01C1400.03 860.849 1407.86 866.179 1417.49 869.738L1424.03 872.17L1423.88 878.273L1423.83 879.616C1422.85 914.249 1415.51 951.095 1396.31 985.412C1352.05 1064.43 1280.22 1101.16 1262.93 1109.17L1259.25 1110.37L1255.57 1109.17C1238.29 1101.16 1166.45 1064.43 1122.18 985.412ZM1104.07 879.307C1105.01 912.646 1112.06 947.648 1130.24 980.202C1172.69 1056.23 1242.93 1092.37 1259.26 1099.86C1259.26 1099.86 1335.58 1074.53 1388.23 980.202C1406.42 947.648 1413.47 912.646 1414.43 879.307C1392.1 871.058 1377.08 854.284 1377.99 835.651C1378.7 820.466 1389.84 807.519 1406.34 799.899C1396.84 756.834 1382.48 727.01 1382.48 727.01C1318.27 749.73 1259.26 696.944 1259.26 696.944C1259.26 696.944 1200.18 749.73 1136 727.01C1136 727.01 1121.65 756.834 1112.15 799.899C1128.62 807.519 1139.77 820.466 1140.49 835.651C1141.35 854.284 1126.34 871.058 1104.07 879.307ZM1276.44 796.51C1276.44 803.224 1275.67 809.327 1274.65 815.244C1274.2 817.821 1271.95 819.64 1269.43 819.64L1268.5 819.558C1265.62 819.056 1263.68 816.308 1264.18 813.422C1265.16 807.828 1265.82 802.416 1265.82 796.51C1265.82 787.681 1264.35 777.635 1259.83 764.213C1258.9 761.431 1260.4 758.418 1263.17 757.485C1265.94 756.548 1268.96 758.043 1269.89 760.825C1274.71 775.088 1276.45 786.446 1276.44 796.51ZM1293.74 795.763C1293.74 801.65 1293.12 807.077 1292.24 812.492C1291.36 817.911 1290.24 823.322 1289.19 829.321C1287.43 839.415 1285.82 851.473 1285.82 868.626C1285.82 885.823 1287.45 908.127 1292.28 938.391C1292.74 941.288 1290.78 944.01 1287.88 944.475L1287.04 944.542C1284.48 944.542 1282.22 942.675 1281.8 940.068C1276.9 909.373 1275.2 886.504 1275.2 868.626C1275.2 850.818 1276.9 837.946 1278.74 827.491C1279.83 821.295 1280.93 815.899 1281.76 810.8C1282.59 805.693 1283.12 800.895 1283.12 795.763C1283.12 787.253 1281.66 777.676 1277.13 764.213C1276.19 761.431 1277.69 758.418 1280.47 757.485C1283.25 756.548 1286.25 758.043 1287.2 760.825C1292 775.051 1293.75 785.966 1293.74 795.763ZM1311.04 796.51C1311.04 803.224 1310.27 809.327 1309.24 815.244C1308.79 817.821 1306.55 819.64 1304.02 819.64L1303.1 819.558C1300.21 819.056 1298.28 816.308 1298.78 813.422C1299.75 807.828 1300.42 802.416 1300.42 796.51C1300.41 787.681 1298.95 777.635 1294.43 764.213C1293.49 761.431 1295 758.418 1297.77 757.485C1300.55 756.548 1303.55 758.043 1304.49 760.825C1309.3 775.088 1311.05 786.446 1311.04 796.51ZM1342.1 944.788C1339.16 944.788 1336.79 942.407 1336.79 939.484V874.145H1320.06C1317.06 874.145 1314.62 871.772 1314.62 868.838C1314.62 865.907 1317.06 863.53 1320.06 863.53H1336.79V842.9H1320.06C1317.06 842.9 1314.62 840.52 1314.62 837.585C1314.62 834.655 1317.06 832.282 1320.06 832.282H1336.79V811.543H1320.06C1317.06 811.543 1314.62 809.167 1314.62 806.236C1314.62 803.305 1317.06 800.925 1320.06 800.925H1326.65C1326.77 799.211 1326.85 797.481 1326.85 795.711C1326.84 787.391 1325.39 777.952 1320.85 764.35C1319.92 761.55 1321.41 758.511 1324.19 757.57C1326.97 756.626 1329.98 758.128 1330.91 760.932C1335.7 775.266 1337.47 786.059 1337.47 795.711C1337.47 797.492 1337.39 799.222 1337.28 800.925H1346.58C1346.47 799.222 1346.4 797.492 1346.4 795.711C1346.39 786.059 1348.15 775.266 1352.94 760.932C1353.88 758.128 1356.89 756.626 1359.67 757.57C1362.45 758.511 1363.94 761.55 1363 764.35C1358.47 777.952 1357.02 787.391 1357.02 795.711C1357.02 797.481 1357.09 799.211 1357.21 800.925H1363.8C1366.8 800.925 1369.24 803.305 1369.24 806.236C1369.24 809.167 1366.8 811.543 1363.8 811.543H1347.4V832.282H1363.8C1366.8 832.282 1369.24 834.655 1369.24 837.585C1369.24 840.52 1366.8 842.9 1363.8 842.9H1347.4V863.53H1363.8C1366.8 863.53 1369.24 865.907 1369.24 868.838C1369.24 871.772 1366.8 874.145 1363.8 874.145H1347.4V939.484C1347.4 942.407 1345.03 944.788 1342.1 944.788ZM1304.15 1024.19C1304.94 1021.81 1307.64 1020.51 1310.15 1021.25C1311.86 1021.76 1314.18 1021.99 1316.91 1022.15C1317.35 1022.18 1317.82 1022.18 1318.28 1022.18C1321.65 1022.21 1325.21 1021.41 1327.64 1020.05C1330.09 1018.62 1331.37 1017.08 1331.71 1014.73C1331.76 1014.28 1331.79 1013.85 1331.79 1013.46C1331.66 1010.26 1330.43 1009.07 1327.72 1007.59C1325.05 1006.27 1321.01 1005.7 1318.13 1005.71C1316.83 1005.71 1315.74 1005.83 1315.35 1005.92V1005.91C1313.88 1006.43 1312.21 1006.24 1310.92 1005.41C1309.61 1004.56 1308.82 1003.18 1308.85 1001.66L1309.06 982.727C1309.13 980.284 1311.25 978.279 1313.87 978.279H1332.78C1335.42 978.279 1337.57 980.295 1337.57 982.764C1337.57 985.252 1335.42 987.246 1332.78 987.246H1318.61L1318.48 996.741C1322.42 996.804 1327.44 997.418 1332.13 999.631C1336.93 1001.8 1341.49 1006.72 1341.38 1013.46C1341.38 1014.22 1341.33 1015.02 1341.24 1015.83C1340.54 1021.28 1336.83 1025.43 1332.51 1027.76C1328.18 1030.14 1323.12 1031.13 1318.28 1031.16C1317.62 1031.16 1316.96 1031.13 1316.28 1031.11C1313.42 1030.91 1310.41 1030.7 1307.3 1029.79C1304.75 1029.06 1303.36 1026.54 1304.15 1024.19ZM1301.51 926.125C1298.89 926.125 1296.6 924.172 1296.26 921.498C1293.52 900.328 1292.5 882.822 1292.5 868.447C1292.5 858.714 1292.96 850.416 1293.68 843.395H1293.69C1293.98 840.479 1296.59 838.355 1299.5 838.656C1302.42 838.954 1304.54 841.557 1304.24 844.473C1303.56 851.119 1303.11 859.053 1303.11 868.447C1303.11 882.32 1304.1 899.372 1306.79 920.133C1307.16 923.045 1305.11 925.704 1302.21 926.08L1301.51 926.125ZM1260.18 992.576C1260.29 983.371 1269.08 976.907 1278.91 976.892C1286.56 976.899 1293.55 980.834 1296.33 986.904L1296.84 987.7C1297 988.087 1298.6 991.642 1298.6 997.113C1298.73 1005.96 1293.86 1019.67 1273.93 1030.52C1273.18 1030.94 1272.32 1031.16 1271.5 1031.16C1269.87 1031.16 1268.27 1030.37 1267.36 1028.96C1266.03 1026.82 1266.78 1024.08 1269.05 1022.81C1278.91 1017.27 1283.97 1011.74 1286.5 1006.89C1284.16 1007.77 1281.57 1008.25 1278.91 1008.27C1269.08 1008.25 1260.29 1001.8 1260.18 992.576ZM1257.9 868.447C1257.9 858.714 1258.37 850.416 1259.09 843.395C1259.38 840.479 1261.99 838.355 1264.9 838.656C1267.83 838.954 1269.95 841.557 1269.65 844.473C1268.97 851.119 1268.52 859.053 1268.52 868.447C1268.52 882.32 1269.5 899.372 1272.19 920.133C1272.56 923.045 1270.51 925.704 1267.61 926.08L1266.92 926.125C1264.29 926.125 1262.01 924.172 1261.66 921.498C1258.92 900.328 1257.9 882.822 1257.9 868.447ZM1211.1 1015.24C1211.1 1010.5 1213.73 1006.35 1217.41 1003.63L1217.62 1003.5C1214.19 1000.81 1211.83 996.842 1211.83 992.345C1211.83 987.715 1214.3 983.657 1217.86 980.957C1221.46 978.212 1226.17 976.661 1231.28 976.661C1236.39 976.661 1241.12 978.212 1244.69 980.957C1248.27 983.657 1250.76 987.715 1250.76 992.345C1250.76 996.842 1248.38 1000.81 1244.96 1003.49L1245.16 1003.63C1248.86 1006.35 1251.49 1010.5 1251.49 1015.24C1251.49 1019.97 1248.86 1024.13 1245.16 1026.83C1241.43 1029.59 1236.58 1031.13 1231.28 1031.16C1225.99 1031.13 1221.14 1029.59 1217.41 1026.83C1213.73 1024.13 1211.1 1019.97 1211.1 1015.24ZM1211.66 760.17L1211.67 760.174C1212.84 757.481 1215.97 756.265 1218.66 757.448C1221.33 758.627 1222.55 761.751 1221.38 764.436L1221.37 764.443L1221.37 764.462L1221.29 764.644C1221.22 764.815 1221.11 765.083 1220.97 765.462C1220.68 766.214 1220.26 767.378 1219.74 768.959C1218.71 772.112 1217.31 776.906 1215.94 783.337C1215.65 784.676 1215.37 786.1 1215.09 787.588C1217.13 789.477 1218.93 791.69 1220.55 794.123C1222.88 797.637 1224.85 801.621 1226.59 805.875C1230.06 814.389 1232.58 824.032 1234.45 833.178C1238.19 851.45 1239.33 867.722 1239.35 867.878C1239.56 870.973 1237.37 873.673 1234.45 873.9L1234.05 873.918C1231.3 873.918 1228.97 871.672 1228.77 868.715L1228.75 868.436C1228.73 868.243 1228.71 867.949 1228.68 867.558C1228.61 866.777 1228.51 865.639 1228.37 864.192C1228.08 861.299 1227.62 857.189 1226.95 852.38C1225.62 842.774 1223.39 830.329 1220.02 819.317C1218.02 812.756 1215.57 806.712 1212.86 802.156C1211.55 812.934 1210.71 825.985 1210.97 841.323C1211.43 867.086 1214.99 899.253 1224.75 937.699C1225.46 940.54 1223.75 943.434 1220.91 944.152C1220.5 944.256 1220.09 944.308 1219.69 944.315C1217.28 944.36 1215.08 942.742 1214.46 940.31C1204.52 901.094 1200.84 868.105 1200.37 841.513C1199.44 788.324 1211.39 760.769 1211.66 760.17ZM1189.98 981.924C1189.98 979.454 1192.14 977.446 1194.77 977.446C1197.41 977.446 1199.58 979.454 1199.58 981.924V1026.67C1199.58 1029.16 1197.41 1031.16 1194.77 1031.16C1192.14 1031.16 1189.98 1029.16 1189.98 1026.67V981.924ZM1149.28 867.878C1149.28 867.781 1149.78 860.726 1151.17 850.736C1152.57 840.743 1154.85 827.822 1158.51 815.843C1160.97 807.854 1164 800.274 1168.08 794.123C1169.69 791.69 1171.49 789.477 1173.53 787.588C1170.67 772.51 1167.37 764.737 1167.24 764.443C1166.07 761.758 1167.28 758.627 1169.97 757.448C1172.64 756.265 1175.77 757.481 1176.95 760.174C1177.22 760.769 1189.18 788.324 1188.25 841.513C1187.78 868.105 1184.1 901.094 1174.15 940.31C1173.54 942.746 1171.33 944.36 1168.93 944.315C1168.52 944.308 1168.12 944.256 1167.71 944.152C1164.87 943.434 1163.15 940.54 1163.87 937.699C1173.62 899.253 1177.19 867.086 1177.64 841.323C1177.91 825.989 1177.07 812.931 1175.77 802.156C1174.57 804.161 1173.42 806.456 1172.34 808.959C1169.4 815.768 1167.04 824.088 1165.23 832.293C1161.59 848.706 1160.17 864.646 1159.9 868.046C1159.87 868.503 1159.85 868.715 1159.85 868.715C1159.65 871.672 1157.32 873.918 1154.57 873.918L1154.17 873.9C1151.25 873.673 1149.06 870.973 1149.28 867.878ZM1220.7 1015.24C1220.7 1016.81 1221.51 1018.39 1223.37 1019.82C1225.23 1021.21 1228.08 1022.2 1231.28 1022.2C1234.51 1022.2 1237.35 1021.21 1239.21 1019.82C1241.07 1018.39 1241.9 1016.81 1241.9 1015.24C1241.9 1013.65 1241.07 1012.06 1239.21 1010.65C1237.35 1009.26 1234.51 1008.26 1231.28 1008.26H1231.25C1228.06 1008.26 1225.23 1009.26 1223.37 1010.65C1221.51 1012.06 1220.7 1013.65 1220.7 1015.24ZM1238.64 996.804C1240.4 995.443 1241.17 993.907 1241.17 992.345C1241.17 990.768 1240.4 989.236 1238.65 987.882C1236.9 986.55 1234.29 985.621 1231.28 985.621H1231.27C1228.28 985.621 1225.66 986.55 1223.95 987.882C1222.19 989.236 1221.41 990.768 1221.41 992.345C1221.41 993.907 1222.19 995.443 1223.95 996.804C1225.66 998.117 1228.31 999.062 1231.28 999.062C1234.29 999.062 1236.9 998.117 1238.64 996.804ZM1272.16 988.038C1270.55 989.377 1269.76 990.928 1269.73 992.576C1269.76 994.234 1270.55 995.77 1272.16 997.102C1273.77 998.396 1276.16 999.3 1278.91 999.3C1281.62 999.3 1284.01 998.396 1285.65 997.102C1287.27 995.77 1288.06 994.234 1288.07 992.576C1288.06 990.928 1287.27 989.377 1285.65 988.038C1284.01 986.762 1281.62 985.855 1278.91 985.855H1278.89C1276.14 985.855 1273.77 986.762 1272.16 988.038ZM1168.4 1209.84C1168.18 1211.9 1166.6 1216.21 1170.16 1216.31C1173.57 1216.4 1173.45 1215.38 1175.37 1211.98C1176.87 1209.32 1178.5 1207.91 1179.83 1204.98C1181.16 1202.05 1181.74 1202.16 1182.06 1201.22C1182.36 1200.28 1182.34 1198.96 1183.04 1196.31C1183.75 1193.66 1184.88 1189.44 1185.25 1187.92C1185.63 1186.41 1186.17 1185.24 1186.91 1183.37C1187.64 1181.5 1189.4 1180.75 1190.78 1180.5C1191.25 1180.42 1194.96 1180.8 1195.43 1180.85L1195.59 1181.35C1195.76 1181.6 1195 1181.52 1200.72 1183.57C1200.88 1183.63 1200.61 1184.82 1200.57 1185.36C1200.48 1186.43 1200.49 1187.57 1200.19 1188.6C1200.19 1188.6 1197.15 1189.05 1196.96 1189.98C1196.76 1190.91 1196.42 1191.66 1197.55 1192.17C1198.68 1192.68 1199.35 1193.32 1199.35 1193.32C1199.35 1193.32 1199.47 1194.4 1199.14 1196.13C1198.96 1197.02 1198.71 1196.96 1198.66 1197.17C1198.6 1197.47 1196.47 1197.56 1196.1 1197.76C1194.86 1198.44 1194.76 1200.22 1196.17 1201.91C1196.7 1202.55 1197.52 1202.02 1197.74 1202.7C1198.03 1203.66 1196.8 1204.93 1196.58 1205.2C1195.82 1206.16 1194.4 1207.66 1192.53 1207.99C1190.66 1208.32 1188.76 1209 1183.69 1207.81C1182.96 1207.65 1182.23 1208.32 1181.79 1209.12C1181.82 1209.68 1181.79 1210.28 1181.41 1211L1181.53 1211.19C1182.26 1211.91 1183.29 1212.79 1183.86 1213.8C1184.43 1214.8 1183.83 1215.29 1185.84 1215.85C1188.75 1216.65 1189.49 1214.51 1191.85 1215.23C1194.2 1215.95 1191.89 1217.59 1191.62 1218.56C1191.34 1219.57 1189.96 1220.41 1189.33 1221.21C1187.67 1223.27 1188.23 1226.57 1189.16 1228.81C1189.88 1230.52 1191.45 1235.34 1194.11 1234.25C1195.15 1233.82 1199 1230.26 1200.23 1228.91C1201.47 1227.55 1202.08 1226.63 1202.43 1225.41C1202.76 1224.2 1203.77 1213.79 1204.7 1213.26C1206.28 1212.37 1209.02 1212.79 1210.77 1212.61C1213.89 1212.28 1217.09 1211.78 1220.18 1211.21C1221.29 1211 1222.38 1210.73 1223.48 1210.48C1224.84 1210.17 1226.09 1209.51 1227.45 1209.16C1228.58 1208.87 1230.15 1208.69 1230.98 1207.78C1231.7 1207.01 1232.34 1206.46 1232.44 1205.64C1232.53 1204.82 1232.02 1203.83 1231.48 1203.23C1230.7 1202.34 1229.08 1202.36 1228.04 1201.93C1225.26 1200.8 1222.86 1199.13 1220.44 1197.4C1219.49 1196.74 1217.4 1195.92 1216.84 1194.88C1216.47 1195.02 1216.84 1194.88 1216.69 1195.45C1216.69 1195.78 1217.09 1196.67 1217.85 1199.01C1218.78 1201.91 1220.01 1204.5 1219.11 1204.75C1216.69 1205.44 1214.11 1205.35 1211.65 1205.99C1210.8 1206.22 1210.19 1206.37 1209.42 1206.61C1208.64 1206.85 1208.3 1207.02 1207.44 1206.79C1206.59 1206.55 1205.68 1205.71 1205.36 1204.58C1205.04 1203.45 1205.11 1202.94 1206.26 1202.67C1207.4 1202.4 1210.17 1201.35 1210.42 1199.98C1210.66 1198.62 1210.13 1198.63 1209.6 1197.7C1209.08 1196.78 1206.53 1199.56 1207.96 1194.68L1208.21 1193.82L1211.15 1193.64C1211.4 1193.57 1211.73 1193.5 1212.23 1193.38C1213.49 1193.1 1216.35 1192.56 1217.53 1191.71C1217.87 1191.46 1218.48 1189.8 1218.57 1189.51C1218.69 1189.14 1219.19 1188.45 1217.77 1187.7C1216.34 1186.96 1216.72 1187.83 1214.95 1188.12C1213.2 1188.41 1209.16 1188.47 1209.16 1188.47C1209.16 1188.47 1209.41 1187.2 1209.53 1186L1209.69 1185.04L1209.73 1184.92C1209.73 1184.92 1210.23 1183.66 1212.8 1181.84C1215.41 1179.98 1224.71 1178.33 1227.84 1177.94C1230.97 1177.54 1236.27 1176.96 1237.32 1176.89C1238.37 1176.82 1238.53 1175.47 1237.9 1173.92C1237.3 1172.44 1236.14 1173.08 1234.98 1173.26C1233.59 1173.48 1232.21 1173.03 1230.81 1173.09C1229.39 1173.15 1227.97 1173.46 1226.57 1173.68C1224.63 1173.98 1220.74 1174.81 1219.5 1174.89C1218.26 1174.97 1216.41 1175.64 1215.52 1175.82C1214.65 1175.99 1214.73 1175.67 1215.71 1174.37C1216.7 1173.06 1219.14 1173.07 1220.1 1173.09C1221.06 1173.11 1222.65 1172.43 1224.4 1171.67C1227.03 1170.52 1229.16 1168.61 1231.43 1166.91C1232.61 1166.02 1233.91 1165.24 1235.04 1164.31C1235.93 1163.58 1236.84 1162.71 1237.33 1161.65C1237.88 1160.49 1237.41 1159.81 1236.92 1158.72C1236.06 1156.82 1232.79 1157.29 1231.13 1157.23C1230.69 1157.22 1230.07 1157.11 1229.64 1157.27C1228.54 1157.68 1226.69 1159.71 1225.31 1158.81C1224.87 1158.52 1225.61 1155.94 1225.88 1154.4C1226.16 1152.85 1224.65 1151.48 1223.18 1149.71C1221.71 1147.94 1219.9 1144.75 1217.31 1144.08C1214.72 1143.4 1212.73 1148.31 1212.08 1150.05C1211.65 1151.22 1211.37 1152.46 1210.93 1153.64C1210.52 1154.73 1209.85 1155.67 1209.36 1156.73C1208.53 1158.57 1208.61 1162.71 1205.93 1163.04C1205.33 1163.12 1205.1 1163.98 1204.5 1164.58C1203.89 1165.17 1201.89 1165.91 1202.15 1166.91C1202.4 1167.9 1204.59 1166.68 1204.96 1166.71C1205.34 1166.76 1205.64 1167.87 1205.7 1168.11C1205.96 1169.16 1205.06 1170.85 1204.83 1171.87C1204.41 1173.64 1204.3 1175.65 1203.59 1177.34C1203.2 1178.28 1197.72 1177.65 1195.99 1177.73L1195.6 1177.84L1195.59 1177.83L1195.42 1177.49C1195.25 1176.93 1193.15 1176.09 1193.18 1175.52C1193.29 1173.84 1191.88 1172.86 1190.98 1172.6C1190.06 1172.34 1188.62 1171.18 1188.16 1170.74C1187.7 1170.3 1185.98 1169.4 1185.26 1168.53C1184.53 1167.68 1185.56 1165.59 1185.63 1164.87C1185.72 1163.97 1186.95 1162.86 1187.5 1162.22C1188.95 1160.52 1191.57 1159.09 1193.88 1159.26C1195.53 1159.37 1196.93 1159.71 1198.17 1158.28C1201.12 1154.89 1197.45 1150.94 1194.62 1149.18C1193.19 1148.29 1192.58 1147.49 1191.8 1147.04C1191.03 1146.59 1188.54 1145.23 1187.52 1144.51C1186.49 1143.79 1184.55 1142.48 1183.4 1143.1C1182.23 1143.72 1183.21 1144.94 1184.88 1147.45C1185.66 1148.63 1186.08 1149.79 1185.94 1151.21C1185.81 1152.51 1185.7 1153.3 1186.36 1154.49C1187.16 1155.94 1187.89 1157.05 1187.4 1158.75C1186.9 1160.55 1184.57 1164.21 1184.02 1164.83C1183.47 1165.45 1182.61 1165.65 1182.02 1166.23C1179.62 1168.58 1179.55 1171.08 1180.48 1174.1C1181.21 1176.52 1181.04 1180.78 1180.79 1182.7C1180.54 1184.62 1178.53 1188.94 1177.86 1190.19C1177.19 1191.43 1175.74 1194.01 1173.76 1198.43C1171.8 1202.85 1171.23 1203.67 1170.74 1203.62C1170.27 1203.57 1168.99 1205.44 1168.53 1206.17C1167.99 1207.05 1168.51 1208.83 1168.4 1209.84ZM1222.99 1163.9C1224.07 1162.58 1227.18 1162.32 1227.18 1162.32C1227.29 1163.9 1224.83 1164.98 1224.51 1165.19C1224.19 1165.4 1224.08 1165.85 1223.84 1166.26C1223.59 1166.67 1222.49 1166.85 1222.49 1166.85C1222.49 1166.85 1221.92 1165.22 1222.99 1163.9ZM1177.82 1195.73C1177.89 1195.05 1178.82 1193.52 1180.25 1190.41C1181.69 1187.32 1184.42 1185.04 1184.42 1185.04C1184.32 1186.04 1183.97 1186.08 1183.81 1186.84C1183.64 1187.59 1179.15 1195.32 1178.5 1195.87C1177.84 1196.43 1177.75 1196.41 1177.82 1195.73ZM1310.38 1199.53C1311.46 1206.36 1309.44 1210.56 1305.86 1214.05C1302.09 1217.69 1296.5 1220.4 1291.04 1223.88L1290.81 1224.03L1290.75 1224.29C1290.72 1224.49 1290.53 1224.82 1290.66 1225.37L1290.75 1225.72L1291.11 1225.84C1293.36 1226.45 1296.24 1225.65 1298.4 1225.4C1299.19 1225.27 1299.94 1225.12 1300.67 1224.93C1311.62 1222.09 1317.7 1212.05 1318.69 1203.45C1318.91 1199.02 1319.12 1194.63 1319.37 1190.39C1320.51 1189.22 1321.65 1188.07 1322.81 1187.06L1322.84 1187.03L1322.88 1186.99C1323.97 1185.71 1325.99 1184.11 1327.99 1182.37L1327.57 1181.89L1328.01 1182.36C1330.97 1179.57 1334.72 1175.81 1335.54 1172.86L1335.57 1172.76L1335.56 1172.66L1335.51 1172.34C1335.05 1170.94 1333.52 1170.5 1331.83 1170.06C1330.13 1169.66 1328.14 1169.43 1326.62 1169.25C1326.47 1169.25 1323.24 1169.24 1322.06 1169.25H1321.99L1321.91 1169.27L1321.39 1169.74L1321.38 1170.23C1321.58 1170.83 1322.06 1171.39 1322.59 1172.16C1323.1 1172.88 1323.62 1173.7 1323.71 1174.12L1323.74 1174.31C1323.64 1175.55 1320.81 1178.64 1319.19 1180.11C1318.22 1172.77 1320.94 1166.14 1319.95 1158.68L1319.91 1158.44L1319.73 1158.28C1317.45 1156.32 1310.24 1153.69 1306.48 1154.41L1306.21 1154.47L1306.06 1154.71L1305.91 1155.32L1305.9 1155.39L1305.85 1155.48L1305.84 1155.64C1305.79 1156.61 1305.94 1157.56 1306.19 1158.52C1306.71 1160.54 1307.65 1162.56 1308.16 1164.57C1308.35 1165.3 1308.48 1166.02 1308.53 1166.75C1309.09 1174.15 1310.06 1181.41 1310.14 1188.56C1306.63 1192.29 1302.68 1195.97 1298.15 1199.07C1296.42 1200.36 1293.81 1200.76 1291.45 1202.29L1291.12 1202.51L1291.11 1202.52L1290.46 1202.69L1290.76 1203.39C1292.23 1206.57 1294.71 1211.28 1298.57 1210.47L1299.29 1210.22C1301.5 1209.17 1303.37 1207.47 1305.11 1205.31C1306.74 1203.28 1308.45 1201.39 1310.38 1199.53ZM1322.06 1195.11C1321.74 1196 1321.76 1196.93 1322 1197.84C1323.28 1202.58 1330.24 1207.5 1332.67 1209.57C1333.35 1210.09 1333.83 1210.72 1334.67 1211.36C1335.28 1211.85 1336.12 1212.37 1337.24 1212.44C1338.01 1212.48 1338.73 1212.4 1339.4 1212.22L1339.43 1212.22C1343.51 1211.13 1345.83 1206.9 1347.49 1205.15C1347.88 1204.64 1348.91 1203.83 1349.83 1202.97C1350.74 1202.08 1351.68 1201.21 1351.77 1200.02L1351.8 1199.34L1351.12 1199.35C1349.86 1199.36 1348.83 1199.47 1347.65 1199.49L1347.66 1200.13L1347.62 1199.49C1346.71 1199.55 1345.85 1199.71 1345.02 1199.92C1343.24 1200.38 1341.6 1201.06 1339.94 1201.48C1338.85 1201.77 1337.75 1201.94 1336.59 1201.9C1335.5 1201.9 1334.23 1201.52 1332.9 1200.97C1329.48 1199.66 1326.06 1196.95 1323.85 1194.69L1323.59 1194.43L1322.51 1194.7L1322.18 1194.79L1322.06 1195.11ZM1378.23 1118.3L1377.62 1118.67L1378.52 1119.21C1379.89 1120.01 1381.36 1120.95 1382.74 1121.77C1386.11 1124.3 1390.44 1127.41 1392.81 1131.23L1392.83 1131.28C1393.24 1131.93 1393.7 1132.58 1394.09 1133.21C1394.81 1134.4 1395.21 1135.43 1394.78 1136.43L1394.76 1136.46L1394.73 1136.48C1391.33 1136.27 1388.18 1133.7 1383.69 1136.43C1383.18 1136.74 1382.66 1137.12 1382.11 1137.58L1381.97 1137.7L1381.92 1137.9L1381.98 1138.63L1382.09 1138.79L1382.2 1138.91L1382.36 1138.97C1385.4 1139.99 1390.97 1142.91 1393.14 1145.94C1393.54 1146.61 1393.86 1147.42 1394.35 1148.21C1394.76 1148.89 1395.33 1149.57 1396.19 1150.03L1396.29 1150.09L1396.4 1150.11C1397.71 1150.3 1399 1150.5 1400.3 1150.71L1400.63 1150.76L1400.87 1150.51C1401.44 1149.84 1401.37 1149.01 1401.24 1148.2C1400.76 1145.75 1399.3 1142.38 1401.11 1140.06C1402.36 1139.47 1403.49 1139.9 1405.08 1139.72L1405.21 1139.7L1405.32 1139.63C1405.68 1139.36 1405.77 1139.18 1405.91 1139.11L1406.24 1138.9L1406.21 1138.51C1406.12 1137.53 1405.93 1136.48 1405.85 1135.56L1405.84 1135.45L1405.8 1135.36C1405.5 1134.7 1405.21 1133.82 1404.81 1132.96L1405.33 1131.65L1407.76 1125.73L1408.12 1125.58C1408.57 1125.79 1409.33 1126.31 1409.61 1126.82L1409.78 1127.39V1127.43V1127.48L1409.77 1127.47L1409.13 1128.34L1408.81 1128.71L1409.17 1129.24L1409.32 1129.46L1409.6 1129.5C1410.18 1129.57 1410.72 1129.38 1411.15 1129.25C1411.86 1130.06 1412.42 1130.81 1413.31 1131.56L1413.35 1131.6L1413.4 1131.62C1414.36 1132.11 1416.02 1132.53 1416.01 1132.74L1415.98 1132.75L1415.95 1132.85L1415.94 1132.95C1415.85 1134.87 1413.51 1138.89 1411.68 1141.64C1411.41 1142.19 1411.19 1142.62 1410.96 1142.89L1410.91 1142.94L1410.87 1143C1407.01 1149.87 1403.08 1156.61 1399.16 1163.53C1397.74 1166.45 1392.51 1170.62 1394.95 1174.95L1395.22 1175.34L1395.35 1175.51L1395.56 1175.57C1397.71 1176.11 1399.9 1176.46 1402.14 1176.61C1403.57 1176.53 1404.92 1175.81 1405.5 1176.1L1405.93 1176.26L1406.22 1175.87C1409.15 1171.92 1408.08 1169.71 1408.56 1168.28C1410.66 1161.9 1413.95 1155.74 1417.92 1149.66C1418.9 1148.4 1419.81 1147.01 1420.78 1145.76C1422.44 1143.44 1424.08 1140.4 1426.72 1138.8L1427.28 1138.48L1427.32 1138.46C1427.57 1138.96 1427.7 1139.53 1427.74 1139.96C1427.84 1141.46 1426.92 1142.99 1426.6 1144.65C1426.24 1147.35 1425.41 1150.16 1424.56 1152.66C1424.15 1153.68 1422.89 1155.19 1422.91 1156.72C1422.99 1157.24 1423.18 1157.61 1423.37 1157.94C1423.62 1158.34 1423.9 1158.69 1424.08 1158.99L1424.32 1159.58L1424.34 1159.71L1424.36 1159.72L1424.32 1159.82C1423.84 1160.96 1421.36 1163.68 1420.59 1164.84C1419.52 1166.85 1418.38 1168.87 1417.1 1170.63C1414.2 1174.38 1409.37 1177.42 1408.38 1182L1408.31 1182.34L1408.56 1182.59C1409.48 1183.39 1411.54 1183.89 1413.9 1184.19C1416.25 1184.43 1418.75 1184.39 1420.35 1183.44L1420.83 1183.1C1422.74 1181.17 1423.46 1178.46 1424.12 1176.58C1425.02 1174.11 1427.55 1169.57 1430.06 1167.08L1430.68 1166.5C1431.36 1167.05 1432.09 1167.98 1432.97 1168.78C1433.75 1169.53 1434.36 1170.26 1434.79 1170.96C1435.79 1172.6 1435.88 1174.04 1435.41 1175.5C1434.85 1177.51 1432.92 1179.54 1430.51 1181.51C1430.22 1181.73 1429.9 1181.96 1429.55 1182.17C1428.4 1182.88 1426.96 1183.52 1425.68 1184.3C1425.17 1184.62 1424.68 1184.96 1424.25 1185.35L1423.91 1186L1423.92 1186.12L1423.74 1186.94L1424.57 1186.89C1426.87 1186.71 1429.2 1185.62 1431.2 1185.62C1434.85 1185.56 1437.94 1185.43 1441.56 1185.37H1441.63L1441.7 1185.35L1442.37 1185.11L1442.39 1185.1L1442.78 1184.61C1443.94 1181.7 1443.62 1174.41 1441.11 1170.2C1440.81 1169.71 1440.46 1169.26 1440.09 1168.87C1438.24 1166.94 1435.98 1165.11 1434.69 1163.01L1434.17 1162.02C1434.21 1161.77 1434.88 1160.77 1435.63 1159.99C1436.43 1159.12 1437.36 1158.29 1437.59 1158.15L1442.09 1155.38L1442.16 1155.3C1443.67 1153.34 1443.01 1150.98 1443.15 1149.42V1149.37V1149.31L1442.87 1148.47C1442.35 1147.64 1441.4 1147.74 1441.35 1147.7L1441.29 1147.69L1441.23 1147.7C1439.89 1147.74 1438.69 1148.24 1437.62 1148.89C1436.88 1149.35 1436.18 1149.89 1435.55 1150.43C1434.84 1151.02 1434.28 1151.53 1433.73 1152.03L1428.13 1155.47L1428.1 1155.47C1427.92 1155.43 1427.47 1155.05 1427.26 1154.68L1427.12 1154.39L1427.11 1154.35C1427.79 1152 1430.43 1149.68 1431.74 1146.95C1431.95 1146.54 1432.3 1145.98 1432.57 1145.46C1433.72 1142.34 1434.49 1139.36 1435.48 1136.44C1435.88 1135.06 1437.32 1131.79 1435.97 1129.42C1435.65 1128.92 1435.2 1128.49 1434.6 1128.2C1433 1127.2 1431.18 1127.64 1429.69 1128.56C1427.65 1129.83 1425.96 1131.98 1425.1 1133.42C1424.9 1133.84 1424.59 1134.17 1424.41 1134.72C1421.81 1138.76 1418.56 1142.73 1415.4 1146.84C1414.31 1148.5 1413 1150.15 1412.08 1151.92C1411.39 1152.94 1409.29 1156.77 1408.27 1157.38H1408.24C1407.6 1155.72 1409.4 1153.13 1410.31 1151.12L1414.01 1144.03L1419.91 1132.44C1420.31 1131.96 1421.18 1131.39 1422.09 1130.84C1422.62 1130.58 1423.25 1130.26 1423.86 1129.88C1424.75 1129.34 1425.59 1128.69 1426.08 1127.79C1429.49 1121.98 1427.71 1114.59 1427.99 1108.56C1428.06 1106.18 1428.7 1098.35 1426.22 1094.22C1425.48 1093.01 1424.38 1092.08 1422.91 1091.88C1421.44 1091.67 1419.72 1092.15 1417.65 1093.42L1417.55 1093.48L1417.47 1093.58C1415.7 1096.04 1413.1 1105.15 1409.68 1108.97C1409.36 1107.2 1410.06 1104.94 1410.76 1102.58C1411.53 1099.89 1412.26 1096.98 1410.69 1094.39L1410.56 1094.18L1410.54 1094.14C1410.06 1093.5 1409.38 1093.38 1408.48 1093.21C1405.81 1092.81 1401.11 1093.17 1398.37 1094.44L1397.95 1094.64L1398 1095.1C1398.24 1096.47 1399.54 1098.02 1400.03 1099.23L1400.07 1099.78L1400.73 1105.57C1400.95 1107.48 1401.67 1109.79 1401.8 1111.88C1401.91 1113.99 1401.53 1115.7 1399.66 1116.86C1398.91 1117.33 1397.89 1117.7 1396.54 1117.94C1396.1 1118 1395.97 1118.09 1395.7 1118.12C1392.83 1118.37 1390.37 1117.09 1387.22 1117.05C1385.79 1116.85 1384.5 1117.31 1383.26 1117.31C1382.03 1117.34 1380.39 1116.85 1378.67 1117.69L1378.05 1118L1378.23 1118.3ZM1415.32 1124.66L1415.82 1124.36L1416.99 1123.92L1417.8 1124.43C1417.87 1124.93 1418.05 1125.3 1418.06 1125.5C1417.92 1125.97 1417.64 1126.34 1417.25 1126.59C1416.82 1126.84 1416.25 1126.95 1415.52 1126.72C1415.17 1125.94 1415.19 1125.51 1415.32 1124.66ZM1410.39 1113.8L1411.02 1113.82C1411.09 1110.02 1416.84 1103.5 1419.62 1100.16C1419.97 1099.86 1420.07 1099.61 1420.38 1099.43C1420.62 1099.29 1420.86 1099.21 1421.39 1099.36C1422.05 1099.63 1422.46 1100.02 1422.75 1100.48C1423.19 1101.19 1423.3 1102.2 1423.24 1103.31C1423.24 1105.31 1423.11 1107.38 1423.03 1109.28V1109.32L1423.04 1109.38C1423.57 1112.77 1425.23 1119.64 1422.09 1121.35L1421.55 1121.62C1420.47 1120.79 1419.58 1119.98 1418.67 1119.16L1418.52 1119.03L1418.35 1119.01C1417.57 1118.89 1416.87 1118.98 1416.35 1118.9C1415.78 1118.72 1414.71 1118.25 1413.71 1117.59C1412.61 1116.97 1411.78 1116.24 1411.38 1115.58L1411.26 1115.36L1411.24 1115.3L1411.19 1115.23L1411.17 1115.21C1411.01 1114.94 1410.94 1114.48 1411.01 1113.87L1410.39 1113.8ZM1397.65 1123.97C1398.14 1123.79 1398.54 1123.69 1398.86 1123.68C1399.75 1123.66 1400.48 1123.73 1401.3 1123.79C1401.34 1124.55 1401.17 1125.78 1400.87 1126.54L1401.46 1126.76L1400.85 1126.6L1400.7 1127.17C1399.66 1126.34 1398.43 1125.32 1397.86 1124.37L1397.65 1123.97Z" fill="#00468C"/>
<path d="M2123.99 803.764C2123.99 803.764 2125.29 800.027 2126.27 799.376C2138.43 793.664 2147.64 807.831 2144.1 808.974C2141.39 809.86 2119.08 826.792 2119.08 826.792C2116.92 816.105 2123.99 803.764 2123.99 803.764ZM2371.18 1077.15C2359.28 1077.9 2355.58 1077.9 2332.56 1080.11C2309.56 1082.33 2276.15 1082.33 2272.43 1080.11C2268.74 1077.9 2254.63 1060.13 2244.97 1046.82C2235.33 1033.5 2183.38 967.623 2170.01 944.679C2156.65 921.747 2130.67 860.316 2130.67 860.316C2130.67 860.316 2152.2 841.077 2190.05 819.618C2227.9 798.148 2230.88 787.055 2232.36 779.657C2233.85 772.258 2234.58 763.375 2218.26 770.774C2201.93 778.173 2164.83 777.436 2161.84 777.436C2158.87 777.436 2152.2 775.941 2145.51 781.13C2138.83 786.308 2129.08 783.404 2129.08 783.404C2129.08 783.404 2123.99 780.393 2123.99 772.984C2123.99 765.585 2109.89 751.535 2109.89 751.535C2125.47 757.45 2165.56 732.286 2179.65 718.225C2193.76 704.154 2222.71 678.99 2233.1 667.15C2243.5 655.331 2255.37 660.509 2265.02 637.566C2271.21 622.854 2267.81 634.31 2272.82 618.627C2277.82 602.943 2272.82 601.523 2264.24 597.947C2255.66 594.381 2242.07 600.082 2228.48 602.228C2214.89 604.363 2197.73 607.918 2189.88 609.37C2182 610.779 2186.3 610.779 2168.41 621.466C2150.53 632.175 2124.08 640.011 2099.76 650.709C2075.46 661.406 2063.3 663.542 2056.15 663.542C2049 663.542 2043.28 661.406 2035.41 674.239C2030.26 682.631 2036.73 690.04 2042.8 695.56C2050.21 702.307 2053.41 707.677 2059.19 715.706C2063.96 722.336 2072.72 723.724 2076.88 731.272C2076.88 731.272 2069.74 730.556 2059.02 731.272C2048.28 731.976 2051.14 746.955 2051.14 755.517C2051.14 764.058 2051.85 790.45 2049.7 799.002C2047.57 807.554 2048.28 819.671 2048.28 831.084C2048.28 842.486 2042.34 873.64 2042.34 873.64C2031.94 884.743 1937.69 941.722 1921.35 951.341C1905.01 960.961 1871.62 942.469 1871.61 942.469C1859.96 962.402 1878.34 1000.82 1892.23 1015.92C1900.52 1024.93 1912.34 1033.74 1923.58 1038.67C1942.14 1046.82 1972.51 1035.77 1993.34 1012.03C2014.13 988.335 2040.11 945.416 2040.11 945.416C2043.08 980.199 2040.11 1003.14 2009.68 1077.9C1979.24 1152.64 1939.16 1152.64 1916.9 1158.56C1894.63 1164.47 1859 1161.51 1856.03 1172.62C1851.18 1190.74 1910.96 1207.4 1948.82 1200C1973.37 1195.2 1994.65 1171.53 2010.75 1154.09C2033.04 1129.98 2056.1 1104.68 2066.11 1072.72C2074.41 1046.24 2079.78 1018.57 2084.98 991.367C2087.47 978.299 2089.93 965.21 2092.07 952.078C2097.27 920.252 2106.17 879.565 2106.17 879.565C2106.17 879.565 2130.67 989.093 2146.25 1038.67C2161.84 1088.25 2201.93 1147.45 2227.17 1154.12C2252.39 1160.78 2285.81 1131.92 2293.97 1128.96C2302.13 1125.99 2344.45 1109.7 2366.7 1101.58C2388.98 1093.43 2383.05 1076.4 2371.18 1077.15Z" fill="#00468C"/>
<path d="M3451.24 930.652L3451.53 930.471C3460.51 924.163 3475.86 917.375 3491.32 909.648L3489.44 905.891L3491.43 909.605C3514.68 896.808 3544.41 879.187 3554.41 861.94L3554.75 861.331L3554.89 860.648L3555.05 858.578C3554.43 848.962 3545.49 843.7 3535.63 838.171C3525.56 832.835 3513.37 828.192 3504.08 824.553C3503.14 824.254 3482.76 818.939 3475.35 817.071L3474.85 816.943H3474.32C3473.06 816.815 3471.03 817.754 3470.28 819.12C3469.46 820.411 3469.46 821.404 3469.45 822.162C3469.67 826.292 3471.83 830.593 3473.89 836.335C3475.95 841.736 3477.85 847.755 3477.79 850.541L3477.64 851.779C3475.01 859.432 3452.07 874.31 3439.45 880.991C3445.4 833.038 3473.31 795.575 3479.2 746.822L3479.39 745.274L3478.53 743.993C3467.28 727.941 3426.15 699.54 3401.3 697.886L3399.42 697.801L3398.09 699.146C3396.66 700.693 3396.44 702.006 3396.16 702.71L3396 703.18L3395.51 703.66L3395.19 704.663C3393.29 710.662 3392.67 716.969 3392.67 723.384C3392.69 736.992 3395.33 751.294 3395.29 764.837C3395.29 769.758 3394.95 774.539 3394.09 779.193C3385.52 826.847 3379.8 874.256 3368.64 919.542C3340.4 937.397 3309.47 954.165 3275.88 966.31C3262.89 971.69 3245.73 969.907 3228.39 975.767C3227.08 975.948 3226.37 976.45 3225.95 976.61L3225.9 976.652H3221.49L3222.26 981.53C3226.28 1004.1 3234.29 1037.85 3259.99 1039.04C3261.61 1039.04 3263.23 1038.87 3264.87 1038.59C3280.51 1035.62 3295.09 1027.98 3309.58 1017.18C3323.23 1006.97 3337.06 997.87 3352.26 989.204C3347.92 1034.16 3328.34 1057.39 3300.06 1073.54C3270.37 1090.38 3230.69 1098.37 3190.56 1111.42L3188.84 1111.96L3188.06 1113.58C3187.59 1114.76 3185.81 1116.6 3185.75 1120.25V1122.64L3187.83 1123.87C3201.05 1131.43 3220.48 1131.09 3234.51 1133.08C3239.71 1133.57 3244.69 1133.8 3249.6 1133.8C3323.26 1133.7 3378 1080.24 3398.3 1027.55C3406.9 999.941 3415.36 972.575 3423.85 946.16C3432.99 940.695 3442.03 935.284 3450.98 930.791L3451.24 930.652ZM3609.5 1054.63C3601.54 1052.63 3594.82 1051.68 3587.4 1049.82L3586.38 1053.91L3587.17 1049.77C3581.36 1048.65 3575.65 1048.28 3570.04 1048.28C3558.08 1048.28 3546.63 1049.9 3535.49 1049.89C3528.15 1049.89 3520.92 1049.19 3513.67 1046.99C3506.79 1045.28 3499.43 1040.8 3491.94 1035.16C3472.49 1021.25 3455.38 998.553 3445.06 980.666L3443.86 978.563H3436.64H3434.41L3433.15 980.399C3429.68 985.479 3428.27 991.424 3428.27 997.539C3428.64 1029.62 3464.53 1071.99 3476.41 1089.04C3479.95 1093.43 3481.86 1098.23 3486.14 1103.65C3489.18 1107.72 3493.69 1112.34 3500.55 1114.62C3505.38 1116.13 3510.06 1116.8 3514.6 1116.8H3514.77C3542.28 1116.62 3563.79 1093.7 3577.14 1085.32C3580.42 1082.79 3588.21 1079.32 3595.45 1075.4C3602.67 1071.29 3609.95 1067.28 3612.48 1059.94L3613.75 1055.71L3609.5 1054.63Z" fill="#00468C"/>
<path d="M3983.73 763.921L3986.4 767.203L3983.44 764.167C3982.47 765.129 3981.48 766.102 3980.64 766.947C3977.51 758.63 3973.87 748.592 3973.8 741.227C3973.78 740.137 3973.81 739.1 3973.95 738.181C3977.38 738.854 3980.03 739.602 3981.87 740.639C3987.12 743.504 3991.02 746.444 3995.53 749.565C3993.17 754.087 3988.01 760.522 3983.73 763.921ZM4073.04 802.094L4076.98 802.02L4085.15 803.505C4085.93 805.205 4086.85 807.054 4088.07 809.128C4086.77 812.271 4086.57 814.954 4085.93 816.151C4083.55 818.386 4080.61 819.583 4077.6 819.658C4074.24 819.69 4070.65 818.375 4067.23 814.623C4067.85 808.936 4069.44 806.531 4073.04 802.094ZM4081.25 734.92L4081.32 734.439L4081.26 733.905V733.744C4081.18 731.649 4082.36 728.774 4084.89 725.524L4081.56 722.937L4085.11 725.235C4098.36 703.695 4153.42 685.747 4180.73 676.009C4183.75 675.443 4185.17 674.352 4187.59 674.352C4189.39 674.395 4191.07 674.705 4193.6 677.388C4196.44 681.194 4197.53 684.764 4197.61 688.366C4197.74 693.978 4194.9 700.114 4190.81 706.357C4184.06 717.806 4176.27 729.255 4169.41 739.869L4169.26 740.115L4169.09 740.511C4160.71 761.783 4146.98 806.819 4123.08 805.985C4121.79 806.007 4120.45 805.932 4119.06 805.718C4115.8 797.327 4113.35 789.63 4110.88 781.795L4110.48 780.608L4109.54 779.849C4105.51 776.535 4101.17 774.718 4098.52 772.452C4095.83 769.48 4091.28 763.152 4087.79 756.032C4083.57 748.742 4081.27 741.697 4081.19 736.556L4081.25 734.92ZM3954.67 936.988L3999.91 908.799L4073.03 862.331C4076.97 860.856 4083.88 860.578 4090.97 860.482C4094.89 860.792 4099.64 861.091 4104.4 861.016C4111.31 860.877 4118.32 859.99 4124.21 856.505C4163.44 834.698 4178.3 786.199 4200.25 752.558C4208.76 739.111 4239.02 696.32 4238.75 664.218C4238.63 654.769 4235.44 645.714 4227.67 639.557C4219.93 633.421 4208.44 630.332 4192.28 630.599L4191.47 630.62L4190.73 630.93C4172.2 639.001 4126.43 682.53 4093.8 692.856C4097.98 681.61 4109.67 671.049 4121.66 659.857C4135.17 647.019 4149.26 632.801 4149.02 612.598L4148.97 610.962L4148.99 610.652C4148.47 605.318 4144.9 602.314 4140.36 598.305C4126.36 586.953 4098.15 573.142 4078.12 571.089L4075.01 570.801L4073.81 573.666C4070.53 582.324 4072.73 595.612 4071.45 604.27L4069.84 607.552L4054.02 643.031C4048.8 654.779 4045.1 670.408 4038.75 682.85C4032.25 695.357 4024.28 703.888 4009.58 704.251C4003.71 704.348 3996.59 703.054 3988.01 699.804C3985.29 698.714 3984.24 698.746 3982.67 698.041C3965.27 689.756 3955.49 674.064 3937.55 663.139C3930.02 657.152 3921.07 655.453 3913.97 651.22C3906.79 647.243 3899.03 638.884 3886.34 637.857L3881.73 637.526L3881.77 639.835L3877.01 639.921L3880.34 646.046C3885.45 655.335 3890.69 665.661 3895.86 675.111C3906.65 701.044 3920.99 733.541 3921.59 763.526V763.847C3921.68 769.01 3922.13 774.269 3922.22 779.218C3922.37 788.54 3921.14 795.734 3915.27 800.031L3915.09 800.181H3914.88C3896.1 787.417 3886.69 761.965 3851.64 762.436C3847.66 762.5 3843.38 762.906 3838.76 763.697L3837.45 763.932L3836.52 764.851C3836.12 765.087 3834.23 767.107 3834.36 769.33L3834.48 770.602L3834.69 771.661L3835.41 772.505C3849.37 788.679 3871.49 824.361 3873.7 849.044C3873.72 854.271 3872.82 860.065 3872.92 866.211C3872.97 871.556 3873.94 877.329 3877.34 882.93L3877.69 883.55L3878.29 884.031C3885.08 889.59 3891.85 895.148 3898.64 900.718L3900.37 902.161L3902.54 901.498C3908.17 899.585 3910.53 894.625 3912.52 889.494C3918.06 873.801 3921.09 849.503 3939.35 842.363C3948.48 843.175 3953.57 849.503 3963.26 853.843L3964.08 854.175L3964.99 854.164C3967.96 853.843 3969.06 853.063 3970.11 853.116L3972.74 853.074L3973.84 850.69C3976.63 844.778 3979.19 838.108 3981.77 832.539L3982.07 831.887L3982.14 831.203C3982.64 826.392 3983.95 820.385 3984.62 814.045L3992.03 808.359L4026.04 782.586L4028.6 782.938C4030.49 785.718 4033.07 791.276 4032.99 795.093C4033 796.803 4032.67 798.054 4032.01 798.962L4031.86 799.187L4031.72 799.454L4031.67 799.39C4030.54 800.234 4027.17 801.603 4025.1 802.233L4021.96 803.249L4022.25 807.503L4022.37 809.289L4023.8 810.464C4026.91 812.784 4030.7 813.575 4033.61 814.259C4034.91 821.315 4035.59 827.579 4038.14 834.837L4038.25 835.168L4038.45 835.489C4042.33 841.572 4050.41 849.621 4049.58 850.807L4049.47 850.775L4048.92 851.192L4048.57 851.727C4041.52 862.502 4014.48 877.681 3994.65 887.259C3991.23 889.494 3988.52 891.193 3986.24 891.942L3985.79 892.08L3985.44 892.284C3939.94 918.634 3894.62 944.011 3848.59 970.415C3830.6 982.441 3786.39 988.662 3785.75 1021.73C3785.76 1022.67 3785.81 1023.76 3785.97 1024.94L3786.17 1026.34L3787.19 1027.38C3797.68 1037.78 3809.11 1047.19 3821.43 1055.68C3829.96 1060.01 3840.13 1060.52 3842.41 1064.09L3844.42 1066.5L3847.32 1065.26C3877.55 1052.47 3878.88 1036.18 3886.51 1029.6C3920.18 1000.09 3959.87 975.877 4003.26 954.402C4013.16 950.489 4023.13 945.572 4032.95 941.713C4050.33 934.016 4070.01 922.129 4090.56 921.841C4092.03 921.809 4093.45 921.841 4094.89 921.937L4095.17 921.958C4094.89 925.678 4093.72 929.388 4092.49 932.017C4087.99 940.922 4077.6 946.63 4070.03 955.096C4058.88 969.292 4044.62 982.676 4031.24 994.167C4025.38 998.604 4013.11 1002.98 4007.95 1011.87C4006.69 1015.12 4006.49 1017.87 4006.53 1020.4C4006.59 1023.57 4006.99 1026.49 4007.03 1028.83C4007.07 1030.72 4006.85 1032.09 4006.45 1033.05L4006.09 1033.87V1033.98L4005.67 1034.45C3998.97 1039.35 3975.52 1046.52 3967.15 1050.6C3954.31 1058.54 3940.9 1066.26 3927.51 1072.03C3898.19 1083.73 3860.2 1084.82 3838.99 1107.74L3837.42 1109.46L3838.05 1111.73C3840.59 1119.47 3850.71 1129.3 3863.3 1139.01C3875.95 1148.38 3890.44 1156.66 3902.84 1156.61C3904.19 1156.61 3905.45 1156.45 3906.7 1156.23C3924.22 1151.63 3937.5 1138.51 3947.7 1129.97C3961.19 1118.84 3991.1 1101.34 4013.97 1095.57C4015.53 1095.01 4017.38 1094.8 4019.5 1094.37C4021.52 1099.84 4022.55 1107.62 4024.91 1115.21C4026.88 1122.12 4027.85 1128.37 4027.95 1133.86C4028.11 1146.66 4023.82 1155.27 4016.16 1162.03C4006.15 1171.67 3988.2 1176.82 3967.62 1179.93C3965.27 1180.25 3962.67 1180.43 3959.93 1180.48C3950.9 1180.66 3940.47 1179.42 3930.49 1179.59C3926.47 1179.66 3922.5 1179.98 3918.68 1180.74C3916.79 1180.79 3914.75 1182.68 3914.57 1183.39L3914.22 1184.02L3910.4 1188.13L3915.38 1190.68C3929.12 1197.48 3946.25 1199.09 3957.73 1205.89C3978.9 1217.88 3997.02 1227.6 4017.93 1239.5L4018.41 1239.76L4018.91 1239.9C4019.89 1240.13 4021.3 1240.79 4023.57 1240.8H4023.64C4024.79 1240.78 4026.33 1240.39 4027.54 1239.31C4044.08 1226.54 4066.98 1183.61 4066.78 1150.93C4066.72 1147.06 4066.31 1143.34 4065.48 1139.85C4061.42 1122.45 4054.6 1104.3 4054.36 1087.89C4054.32 1085.31 4054.41 1082.83 4054.72 1080.43C4055.78 1079.17 4062.99 1075.64 4069.99 1073.72C4077.47 1071.43 4085.61 1069.82 4087.41 1069.79L4122.65 1069.18L4123.32 1068.92C4138.62 1062.77 4142.81 1047.02 4148.89 1038.5L4149.08 1038.23L4149.25 1037.89C4150.14 1035.91 4150.58 1033.95 4150.55 1032.15C4150.34 1025.54 4144.52 1022.93 4144.4 1022.59L4144.07 1022.31L4143.69 1022.11C4135.92 1017.83 4127.34 1016.63 4118.98 1016.78C4113.14 1016.87 4107.34 1017.6 4101.84 1018.53C4095.82 1019.57 4090.85 1020.6 4085.95 1021.61L4042.18 1022.37L4042.07 1022.23C4041.12 1021.42 4039.85 1017.67 4039.89 1014.93L4040.09 1012.75L4040.17 1012.47C4052.04 1001.25 4075.02 996.915 4091.81 985.69C4094.35 984.012 4098.32 982.035 4101.62 979.907C4118.77 965.914 4133.31 951.419 4148.85 938.014C4155.84 931.504 4175.18 917.554 4175.39 899.36C4175.34 895.426 4174.16 891.396 4171.74 887.676C4165.96 876.527 4153.97 872.914 4142.33 873.202C4126.34 873.534 4109.29 880.151 4099.5 885.506C4096.97 887.249 4094.05 888.093 4091.13 890.573C4062.51 905.015 4030.45 916.849 3998.41 929.698C3986.49 935.556 3973.41 940.526 3962.11 947.592C3954.67 951.131 3929.65 965.979 3921.75 966.075L3921.59 965.936C3923.59 954.241 3942.59 945.454 3954.67 936.988Z" fill="#00468C"/>
<path d="M2996.63 970.12C2995.85 964.851 2991.1 959.541 2986.75 956.639C2980.38 952.401 2970.43 955.145 2963.18 954.167C2944.02 951.602 2926.4 945.124 2908.47 938.352C2901.51 935.734 2887.18 933.999 2881.92 928.446C2879.91 929.897 2881.92 928.446 2881.92 932.316C2882.46 934.324 2886.45 939.214 2894.99 952.559C2905.53 969.057 2917.33 983.106 2912.17 986.156C2898.16 994.421 2881.92 998.038 2867.69 1006.04C2862.79 1008.8 2859.23 1010.75 2854.78 1013.51C2850.31 1016.27 2848.53 1017.86 2842.8 1017.78C2837.07 1017.68 2830.07 1013.94 2826.23 1007.42C2822.39 1000.89 2822.02 997.649 2828.68 994.127C2835.38 990.583 2850.94 979.563 2850.23 970.656C2849.51 961.77 2846.23 962.727 2841.46 957.795C2836.71 952.906 2825.36 974.326 2826.36 941.664C2826.41 940.129 2825.8 936.543 2826.47 935.891C2827.11 933.914 2842.75 930.686 2844.53 930.003C2845.95 929.193 2847.9 928.152 2850.84 926.638C2858.17 922.841 2875.14 914.808 2881.07 907.657C2882.8 905.564 2883.96 894.208 2884.05 892.273C2884.18 889.812 2886.17 884.67 2876.08 882.346C2866 880.032 2869.74 884.828 2859.24 889.486C2848.74 894.144 2823.71 901.106 2823.71 901.106C2823.71 901.106 2823.18 892.788 2821.98 885.09C2821.7 883.198 2821.34 880.874 2821.44 878.907L2821.48 878.087C2821.48 878.087 2822.55 869.454 2835.58 853.922C2848.8 838.117 2904.13 812.796 2922.97 805.256C2941.82 797.727 2973.88 785.518 2980.3 783.373C2986.71 781.207 2985.5 772.595 2979.1 763.982C2972.93 755.686 2966.73 761.616 2959.84 764.603C2951.55 768.22 2942.17 767.663 2933.59 770.302C2924.86 772.994 2916.5 777.232 2908.14 780.849C2896.51 785.876 2873.64 797.359 2866.05 799.872C2858.43 802.396 2848 809.568 2842.8 812.07C2837.59 814.594 2837.59 812.449 2841.59 802.743C2845.6 793.058 2860.84 789.115 2866.85 787.685C2872.85 786.233 2881.66 779.419 2891.3 771.88C2905.82 760.491 2916.01 745.075 2927.41 730.816C2933.3 723.455 2940.1 716.42 2945.62 708.839C2949.98 702.845 2954.27 695.947 2955.62 688.554C2957.09 680.447 2953.06 676.966 2948.23 671.014C2939.79 660.583 2920.24 668.827 2909.83 671.151C2906.98 671.782 2902.99 672.087 2900.56 673.811C2894.41 678.186 2886.13 693.78 2876.06 690.405C2872.85 689.322 2873.25 672.097 2872.45 662.044C2871.65 652.002 2860.04 645.892 2848 637.28C2835.98 628.668 2819.54 611.801 2802.31 611.801C2785.06 611.801 2780.65 645.535 2779.45 657.386C2778.63 665.43 2778.96 673.548 2778.12 681.582C2777.34 689.048 2774.67 696.02 2773.38 703.371C2771.15 716.158 2778.4 741.784 2762.22 748.188C2758.6 749.629 2758.6 755.37 2755.81 760.039C2753 764.697 2741.77 772.595 2744.98 778.347C2748.19 784.078 2759.8 772.952 2762.22 772.595C2764.62 772.237 2768.23 778.683 2769.03 780.124C2772.42 786.191 2769.53 798.148 2769.7 804.857C2770.03 816.571 2772.62 829.232 2770.95 840.883C2770.01 847.382 2734.85 852.345 2724.19 855.668C2711.85 860.242 2723.87 872.346 2727.62 878.823C2729.05 880.106 2724.19 880.821 2763.14 884.323C2764.23 884.417 2764.51 892.252 2765.13 895.669C2766.27 902.473 2768.23 909.529 2768.02 916.448C2768.02 916.448 2749.79 924.219 2750.11 930.286C2750.44 936.354 2749.47 941.58 2757.38 942.916C2765.28 944.251 2770.52 947.164 2770.52 947.164C2770.52 947.164 2773 953.684 2773.71 964.988C2774.09 970.845 2772.39 970.835 2772.44 972.223C2772.57 974.21 2759.41 978.238 2757.45 980.057C2750.81 986.303 2753.08 997.513 2764.67 1005.78C2768.99 1008.85 2773.24 1004.25 2775.68 1008.16C2779.06 1013.56 2773.49 1023.47 2772.56 1025.55C2769.35 1032.76 2762.95 1044.36 2751.84 1049.45C2740.73 1054.52 2729.97 1061.85 2696.49 1062.71C2691.63 1062.82 2688.22 1068.17 2686.75 1073.87C2687.87 1077.37 2688.68 1081.09 2687.48 1086.21L2688.55 1087.21C2694.21 1090.53 2702.08 1094.3 2707.28 1099.63C2712.43 1104.96 2709.47 1108.96 2722.94 1109.17C2742.33 1109.48 2743.5 1094.95 2759.35 1095.61C2775.2 1096.26 2763.47 1110.21 2763.35 1116.66C2763.22 1123.44 2756.04 1130.86 2753.36 1136.85C2746.41 1152.35 2755.2 1171.99 2764.69 1184.41C2771.92 1193.84 2789.54 1221.28 2804.35 1210.21C2810.17 1205.86 2828.34 1177.47 2833.8 1167.06C2839.3 1156.63 2841.63 1149.82 2841.78 1141.72C2841.94 1133.65 2831.29 1067.26 2836.23 1062.49C2844.61 1054.39 2862.32 1052.58 2872.95 1048.59C2891.88 1041.48 2911.01 1033.17 2929.3 1024.58C2935.86 1021.51 2942.24 1018.07 2948.67 1014.76C2956.66 1010.62 2963.38 1004.42 2971.29 1000.07C2977.85 996.451 2987.34 992.77 2991.03 985.756C2994.26 979.773 2997.42 975.367 2996.63 970.12ZM2869.95 725.853C2874.49 715.895 2893.45 709.249 2893.45 709.249C2896.74 718.839 2883.15 729.544 2881.5 731.395C2879.86 733.245 2879.86 736.19 2879.03 739.145C2878.19 742.11 2871.59 745.044 2871.59 745.044C2871.59 745.044 2865.41 735.822 2869.95 725.853Z" fill="#00468C"/>
<path d="M2722.18 857.718L2721.46 857.043L2719.8 855.221C2717.8 852.007 2703.35 850.205 2702.65 846.548C2700.58 835.958 2690.23 832.081 2684.13 831.954C2678.03 831.796 2667.12 826.938 2663.56 824.947C2660 822.945 2647.79 820.11 2641.86 815.937C2635.94 811.754 2638.94 797.097 2638.21 792.481C2637.33 786.717 2643.2 777.845 2645.57 772.945C2651.88 759.942 2665.86 746.802 2680.5 744.083C2691.05 742.113 2700.28 741.923 2705.7 731.038C2718.61 705.095 2689.28 686.487 2668.73 680.09C2658.42 676.898 2653.32 672.883 2647.72 671.355C2642.12 669.816 2624.46 665.349 2616.89 662.525C2609.3 659.701 2595.12 654.685 2588.89 660.459C2582.64 666.234 2590.71 672.187 2605.2 685.148C2612.03 691.239 2616.52 697.783 2617.94 706.824C2619.27 715.18 2619.87 720.259 2625.92 726.623C2633.25 734.315 2639.58 740.058 2639.35 751.47C2639.1 763.493 2630.56 790.058 2628.13 794.852C2625.73 799.584 2620.67 802.271 2617.93 806.833C2606.81 825.379 2610.47 841.069 2621.11 858.403C2629.6 872.238 2635.52 899.077 2637.08 911.458C2638.64 923.829 2633.13 954.008 2630.99 962.88C2628.84 971.732 2623.96 990.151 2618.88 1020.91C2613.81 1051.68 2611.58 1057.68 2608.47 1058.17C2605.38 1058.64 2600.47 1072.34 2598.84 1077.65C2596.9 1084.01 2602.99 1094.26 2603.98 1100.74C2605.97 1113.91 2603.15 1143.36 2625.48 1138.2C2646.86 1133.23 2644.5 1127.05 2650.94 1102.7C2655.95 1083.7 2663.8 1072.3 2667.33 1051.89C2670.84 1031.47 2674.68 1031.18 2675.09 1024.81C2675.5 1018.44 2673.18 1010.28 2673.25 992.595C2673.33 974.924 2673.54 946.811 2673.38 936.748C2673.23 926.674 2674.78 918.55 2676.3 905.694C2677.83 892.828 2687.58 885.326 2695.78 881.532C2698.55 880.247 2722.31 876.569 2725.3 876.105C2726.58 875.895 2724.63 873.113 2725.51 872.143L2722.61 870.31C2722.22 866.991 2723.83 863.313 2723.75 863.145L2723.27 861.079C2723.02 859.731 2722.95 858.645 2722.18 857.718ZM2662.6 932.333C2662.82 937.306 2647.38 992.806 2644.19 997.306C2640.96 1001.81 2640.42 1001.89 2639.74 997.495C2639.05 993.091 2642.38 982.058 2646.27 960.415C2650.2 938.771 2663.5 920.162 2663.5 920.162C2664.48 926.527 2662.38 927.348 2662.6 932.333Z" fill="#00468C"/>
</svg>
