<svg width="5079" height="1811" viewBox="0 0 5079 1811" fill="none" xmlns="http://www.w3.org/2000/svg">
<path d="M1669.5 905.301C1669.5 678.031 1485.26 493.801 1258 493.801C1030.73 493.801 846.5 678.031 846.5 905.301C846.5 1132.57 1030.73 1316.8 1258 1316.8C1485.26 1316.8 1669.5 1132.57 1669.5 905.301ZM1632.87 821.849L1652.36 843.789L1640.24 868.6L1656.89 892.737L1641.81 915.848L1655.33 941.883L1637.57 962.941L1647.78 990.422L1627.53 1009.18L1634.36 1037.72L1611.96 1053.83L1615.2 1082.97L1590.95 1096.19L1590.6 1125.56L1564.95 1135.7L1560.97 1164.77L1534.28 1171.71L1526.75 1200.03L1499.42 1203.63L1488.5 1230.86L1460.92 1231.06L1446.72 1256.74L1419.32 1253.55L1402.07 1277.23L1375.27 1270.7L1355.24 1292.14L1329.44 1282.36L1306.91 1301.16L1282.52 1288.29L1257.9 1304.19L1235.25 1288.42L1208.88 1301.13L1188.32 1282.71L1160.56 1292.09L1142.45 1271.28L1113.74 1277.15L1098.32 1254.31L1069.11 1256.65L1056.64 1232.03L1027.33 1230.73L1017.99 1204.78L989.092 1199.89L983.004 1172.99L954.892 1164.62L952.144 1137.16L925.285 1125.39L925.936 1097.79L900.707 1082.78L904.749 1055.47L881.57 1037.53L888.955 1010.92L868.17 990.214L878.749 964.76L860.653 941.675L874.276 917.663L859.122 892.533L875.588 870.37L863.671 843.588L882.732 823.623L874.206 795.543L895.562 778.126L890.519 749.198L913.877 734.522L912.477 705.196L937.421 693.518L939.61 664.252L965.804 655.664L971.588 626.941L998.677 621.648L1007.9 593.818L1035.44 591.921L1047.99 565.444L1075.54 566.935L1091.29 542.206L1118.44 547.049L1137.13 524.458L1163.46 532.592L1184.81 512.434L1209.89 523.818L1233.51 506.42L1257.11 520.795L1282.69 506.431L1304.28 523.595L1331.4 512.475L1350.77 532.149L1379.07 524.521L1395.84 546.383L1424.89 542.292L1438.87 566.05L1468.18 565.555L1479.1 590.861L1508.27 593.955L1516 620.451L1544.55 627.086L1548.99 654.292L1576.51 664.412L1577.56 691.967L1603.64 705.379L1601.28 732.882L1625.57 749.392L1619.82 776.397L1641.84 795.748L1632.87 821.849ZM1641.07 845.336L1622.12 824.006L1630.83 798.668L1609.41 779.848L1614.98 753.643L1591.37 737.598L1593.66 710.898L1568.31 697.859L1567.29 671.11L1540.54 661.269L1536.23 634.874L1508.46 628.421L1500.96 602.695L1472.6 599.69L1462 575.129L1433.51 575.608L1419.94 552.549L1391.69 556.525L1375.41 535.307L1347.89 542.723L1329.11 523.644L1302.74 534.459L1281.78 517.801L1256.92 531.759L1234.01 517.812L1211.04 534.731L1186.68 523.685L1165.95 543.266L1140.38 535.37L1122.21 557.34L1095.87 552.635L1080.55 576.691L1053.82 575.236L1041.61 600.984L1014.88 602.829L1005.92 629.879L979.62 635.019L973.996 662.943L948.581 671.274L946.451 699.744L922.234 711.084L923.593 739.595L900.937 753.833L905.838 781.957L885.111 798.868L893.395 826.16L874.901 845.537L886.485 871.575L870.505 893.083L885.239 917.518L872.018 940.83L889.613 963.283L879.348 987.99L899.556 1008.11L892.394 1033.93L914.926 1051.38L911.001 1077.89L935.532 1092.48L934.9 1119.27L961.013 1130.71L963.68 1157.35L991.01 1165.49L996.927 1191.62L1025.04 1196.37L1034.09 1221.56L1062.58 1222.82L1074.69 1246.7L1103.08 1244.43L1118.05 1266.61L1145.96 1260.89L1163.54 1281.09L1190.53 1271.98L1210.48 1289.85L1236.11 1277.49L1258.1 1292.8L1282.04 1277.33L1305.72 1289.82L1327.63 1271.55L1352.66 1281.04L1372.14 1260.19L1398.15 1266.54L1414.92 1243.51L1441.5 1246.6L1455.31 1221.63L1482.08 1221.44L1492.7 1194.97L1519.23 1191.47L1526.55 1163.95L1552.46 1157.2L1556.33 1128.93L1581.21 1119.1L1581.55 1090.53L1605.09 1077.7L1601.93 1049.38L1623.68 1033.74L1617.04 1006L1636.7 987.782L1626.77 961.063L1644 940.622L1630.86 915.305L1645.48 892.882L1629.3 869.418L1641.07 845.336ZM1618.05 905.223C1618.05 1104.11 1457.06 1265.35 1258.49 1265.35C1059.9 1265.35 898.92 1104.11 898.92 905.223C898.92 706.323 1059.9 545.089 1258.49 545.089C1457.06 545.089 1618.05 706.323 1618.05 905.223ZM1515.72 1076.33C1525.9 1082.76 1534.84 1084.87 1541.02 1085.33C1542.48 1083.04 1543.9 1080.74 1545.31 1078.43C1538.54 1077.43 1529.93 1074.57 1520.55 1068.65C1510.2 1062.12 1503.45 1054.71 1499.83 1048.64L1499.67 1048.91C1498.35 1051.11 1497.01 1053.31 1495.64 1055.48C1498.5 1061.05 1504.39 1069.12 1515.72 1076.33ZM1525.94 1047.1L1547.88 1074.08C1549.83 1070.73 1551.72 1067.35 1553.56 1063.94L1554.2 1062.67L1544.77 1053.82C1541.89 1051.2 1539.6 1049.02 1536.99 1046.75L1537.06 1046.63C1540.63 1047.34 1543.46 1047.89 1547.44 1048.51L1560.2 1050.77L1561.43 1048.34C1562.94 1045.15 1564.39 1041.93 1565.81 1038.68L1530.72 1036.34L1511.58 1026.69C1509.89 1030.23 1508.11 1033.72 1506.28 1037.18L1525.94 1047.1ZM1557.26 1028L1568.63 1031.98C1569.52 1029.8 1570.38 1027.61 1571.22 1025.41L1577.82 1006.54C1578.56 1004.18 1579.29 1001.8 1579.99 999.419L1568.63 995.451L1564.93 1006.06L1525.37 992.233C1524.15 995.99 1522.85 999.713 1521.48 1003.4L1561.03 1017.22L1557.26 1028ZM1529.56 978.071L1582.23 991.077L1585.07 979.607L1532.36 966.593C1531.51 970.446 1530.57 974.27 1529.56 978.071ZM1584.99 967.423C1586.99 964.76 1588.71 961.252 1589.47 956.023C1591.08 945.04 1585.6 938.324 1576.21 936.895C1568.33 935.694 1562.66 939.782 1558.43 946.666C1555.66 951.266 1553.89 952.977 1551.29 952.579C1548.6 952.166 1547.23 949.98 1547.81 945.974C1548.44 941.645 1550.73 937.569 1552.77 935.173L1541.35 931.19C1539.41 933.399 1536.94 938.242 1536.17 943.475C1534.32 956.194 1541.34 963.279 1550.49 964.674C1557.9 965.805 1563.54 963.034 1568.15 955.741C1571.47 950.634 1572.91 948.481 1575.59 948.886C1577.95 949.243 1579.25 951.423 1578.73 954.978C1578.09 959.371 1576.12 962.372 1574.82 964.09L1584.99 967.423ZM1589.29 923.86C1591.35 921.725 1593.17 919.977 1593.22 915.395C1593.27 911.478 1593.33 911.144 1593.36 909.013C1593.4 905.2 1593.37 901.399 1593.28 897.613C1593.17 896.576 1593.03 895.631 1592.88 894.787L1538.85 893.879C1539 897.766 1539.07 901.663 1539.07 905.58L1559.05 905.914L1559.03 907.808C1558.96 911.464 1557.55 913.074 1550.92 914.141C1544.84 915.205 1540.81 916.142 1538.83 916.778C1538.67 920.895 1538.41 924.987 1538.08 929.055C1540.3 928.241 1548.22 926.95 1553.82 925.686C1558.58 924.652 1562.11 923.146 1563.71 920.23L1564.04 920.237C1565.53 923.722 1570.36 927.921 1577.22 928.033C1582.6 928.122 1586.55 926.623 1589.29 923.86ZM1582.91 910.299C1582.75 914.216 1580.43 916.332 1576.27 916.258C1572.19 916.194 1569.45 913.598 1569.53 909.158L1569.59 906.086L1582.65 906.309C1582.8 906.896 1582.94 908.079 1582.91 910.299ZM1580.98 883.503L1592.6 882.186C1592.36 878.664 1592.06 875.164 1591.71 871.683L1590.6 861.946C1590.26 859.205 1589.86 856.471 1589.45 853.749L1535.42 859.9C1536.98 869.526 1538.06 879.315 1538.62 889.241L1550.34 887.91L1548.34 870.325L1558.4 869.184L1560.18 884.882L1572.03 883.54L1570.25 867.837L1579.08 866.826L1580.98 883.503ZM1532.73 845.619L1588.26 846.56C1587.53 842.48 1586.73 838.418 1585.87 834.39L1563.5 834.948C1557.48 835.075 1550.99 835.38 1544.15 835.908L1544.12 835.785C1550.77 833.081 1556.36 830.508 1561.97 827.659L1581.89 818.022L1581.67 817.107C1580.62 813.284 1579.51 809.487 1578.35 805.712L1529.35 831.735C1530.58 836.321 1531.71 840.947 1532.73 845.619ZM1525.32 818.201L1576.61 800.311C1575.37 796.559 1574.08 792.836 1572.72 789.146L1521.41 807.039C1522.79 810.729 1524.09 814.444 1525.32 818.201ZM1519.63 802.398L1568.82 779.123C1567.48 775.798 1566.07 772.492 1564.61 769.219L1552.85 774.768C1545.38 778.294 1538.56 781.812 1532.28 785.505L1532.19 785.33C1537.18 780.8 1542.73 775.359 1546.65 770.837L1559 757.236C1556.95 753.078 1554.81 748.957 1552.6 744.895L1503.41 768.166C1505.16 771.302 1506.85 774.474 1508.5 777.688L1520.1 772.19C1528.14 768.386 1535.62 764.711 1542.22 761.293L1542.31 761.472C1537.14 766.221 1531.73 771.964 1527.49 776.721L1514.7 790.656C1516.42 794.524 1518.08 798.437 1519.63 802.398ZM1522.91 750.958L1546.91 734.887C1544.93 731.525 1542.88 728.207 1540.78 724.927L1540.71 724.815L1514.76 742.117C1507.5 746.963 1502.63 747.462 1500.02 743.549C1497.44 739.692 1500.12 735.162 1507.04 730.543L1532.97 713.249C1530.72 710.017 1528.4 706.829 1526.02 703.679L1502.41 719.489C1487.68 729.319 1484.33 739.164 1491.03 749.217C1497.89 759.482 1508.78 760.378 1522.91 750.958ZM1495.38 687.902L1504.85 681.68C1504.21 679.088 1501.93 674.989 1497.71 670.801C1487.56 660.722 1473.12 659.145 1459.62 672.668C1454.04 678.288 1451.13 683.934 1450.6 690.309C1450.1 696.475 1452.37 702.53 1458.54 708.644C1462.62 712.694 1468.24 715.744 1471.53 717.057L1492.13 696.646L1479.89 684.499L1471.84 692.618L1476.01 696.75L1469.34 703.478C1468.8 703.285 1467.52 702.355 1466.4 701.247C1461.25 696.137 1461.7 688.185 1468.94 680.884C1476.82 672.944 1484.42 673.81 1489.57 678.917C1493.14 682.461 1494.54 685.228 1495.38 687.902ZM1438.32 689.687L1470.32 645.682C1467.54 643.402 1464.73 641.167 1461.87 638.984L1454.3 649.394C1449.45 656.062 1445.14 662.418 1441.4 668.685L1441.25 668.566C1443.45 662.199 1445.71 654.757 1446.97 648.914L1451.25 631.17C1447.46 628.488 1443.61 625.892 1439.71 623.37L1407.7 667.372C1410.75 669.295 1413.75 671.274 1416.72 673.304L1424.34 662.831C1429.57 655.638 1434.36 648.825 1438.52 642.666L1438.67 642.777C1436.43 649.42 1434.43 657.059 1432.98 663.266L1428.42 681.766C1431.78 684.332 1435.08 686.972 1438.32 689.687ZM1405.85 665.71L1419.44 611.268C1414.81 608.72 1410.11 606.273 1405.35 603.945L1368.95 646.515C1372.74 648.144 1376.48 649.844 1380.19 651.629L1387.84 642.007L1397.92 647.244L1394.72 659.171C1398.48 661.273 1402.2 663.448 1405.85 665.71ZM1407.36 616.456C1406.44 619.655 1405.12 624.029 1404.27 627.086L1401.52 636.789L1394.27 633.022L1400.46 625.204C1402.47 622.749 1405.16 618.993 1407.24 616.397L1407.36 616.456ZM1369.67 623.515L1394.37 598.812C1390.39 597.038 1386.37 595.342 1382.32 593.717L1374.42 604.097C1372.1 607.229 1370.18 609.732 1368.19 612.559L1368.07 612.514C1368.4 608.88 1368.66 606.005 1368.87 601.978L1369.81 589.057L1368.37 588.507C1364.67 587.22 1360.96 585.996 1357.2 584.836L1358.48 619.859L1350.83 639.925C1354.54 641.215 1358.21 642.587 1361.84 644.038L1369.67 623.515ZM1337.59 635.655L1351.92 583.251C1348.14 582.15 1344.34 581.124 1340.51 580.146L1326.18 632.557C1330.01 633.509 1333.82 634.547 1337.59 635.655ZM1328.17 589.299L1330.2 577.713C1327.62 577.148 1325.03 576.613 1322.42 576.107L1310.77 574.054C1307.86 573.593 1304.95 573.172 1302.02 572.789L1292.59 626.338C1302.45 627.547 1312.15 629.262 1321.66 631.467L1323.69 619.934L1306.26 616.865L1308.02 606.891L1323.58 609.635L1325.65 597.894L1310.09 595.156L1311.63 586.394L1328.17 589.299ZM1288.39 601.885C1291.3 598.946 1293.08 594.137 1293.38 588.588C1293.69 582.972 1291.94 577.963 1289.1 575.024C1286.19 571.923 1282.21 570.718 1275.88 570.372C1269.16 570 1264.07 569.795 1260.84 570.268L1257.85 624.222H1258C1261.87 624.222 1265.72 624.308 1269.55 624.464L1270.55 606.455C1271.25 606.578 1272.29 606.716 1273.4 606.783C1279.34 607.11 1284.58 605.682 1288.39 601.885ZM1281.75 588.276C1281.5 592.999 1278.46 595.778 1273.83 595.525C1272.59 595.45 1271.81 595.324 1271.17 595.212L1271.94 581.191C1272.54 581.057 1273.72 580.964 1275.48 581.057C1279.91 581.306 1281.98 584.196 1281.75 588.276ZM1254.32 624.151C1250.86 617.925 1247.71 608.534 1247.2 596.298C1246.73 585.156 1248.57 576.337 1251.06 569.996C1248.32 570.052 1245.6 570.141 1242.89 570.256C1240.24 575.865 1237.75 584.691 1238.2 596.674C1238.76 610.082 1242.87 619.283 1246.29 624.468C1247.28 624.43 1248.28 624.389 1249.28 624.36L1254.32 624.151ZM1209.41 606.072L1217.69 572.298C1213.84 572.763 1210.01 573.288 1206.17 573.883L1204.78 574.136L1203.41 587.004C1203.05 590.887 1202.69 594.022 1202.46 597.462L1202.33 597.488C1200.73 594.212 1199.47 591.62 1197.56 588.068L1191.66 576.534L1188.98 577.022C1185.52 577.747 1182.07 578.524 1178.63 579.357L1197.94 608.743L1201.79 629.838C1205.64 629.053 1209.5 628.354 1213.36 627.74L1209.41 606.072ZM1177.25 636.001L1164.4 596.116L1175.28 592.613L1171.6 581.154C1169.32 581.756 1167.05 582.392 1164.79 583.043L1145.75 589.172C1143.43 590.002 1141.1 590.861 1138.77 591.739L1142.46 603.186L1153.15 599.742L1166 639.634C1169.73 638.336 1173.48 637.131 1177.25 636.001ZM1152.18 644.838L1130.76 594.982L1119.9 599.646L1141.33 649.531C1144.92 647.887 1148.54 646.318 1152.18 644.838ZM1104.09 619.551C1107.98 617.412 1111.56 617.174 1113.72 617.174L1110.24 607.054C1106.91 607.069 1103.08 607.809 1098.45 610.364C1088.72 615.705 1086.67 624.133 1091.19 632.475C1094.98 639.486 1101.67 641.539 1109.71 640.758C1115.05 640.192 1117.48 640.579 1118.74 642.889C1120.03 645.28 1119.11 647.694 1115.57 649.643C1111.73 651.748 1107.1 652.388 1103.96 652.205L1107.68 663.724C1110.61 663.925 1115.96 662.984 1120.59 660.436C1131.86 654.232 1133.27 644.362 1128.87 636.228C1125.3 629.641 1119.68 626.811 1111.09 627.536C1105.01 627.967 1102.42 628.12 1101.12 625.736C1099.99 623.634 1100.94 621.284 1104.09 619.551ZM1085.25 652.239C1087.13 648.94 1087.56 642.558 1083.51 637.02C1080.34 632.668 1076.76 630.429 1072.91 629.912C1069.96 629.555 1067.47 629.154 1063.78 631.884C1060.63 634.212 1060.33 634.357 1058.61 635.625C1055.54 637.89 1052.53 640.211 1049.56 642.558C1048.8 643.287 1048.13 643.964 1047.56 644.592L1079.44 688.226C1082.44 685.76 1085.51 683.354 1088.63 680.988L1076.84 664.851L1078.37 663.735C1081.32 661.578 1083.46 661.734 1088.3 666.383C1092.82 670.578 1096.01 673.234 1097.7 674.416C1101.08 672.07 1104.5 669.801 1107.95 667.618C1105.95 666.338 1100.15 660.793 1095.76 657.096C1092.07 653.924 1088.73 652.012 1085.45 652.499L1085.25 652.239ZM1073.1 654.537L1070.63 656.349L1062.91 645.805C1063.3 645.325 1064.15 644.495 1065.94 643.19C1069.16 640.94 1072.24 641.516 1074.7 644.879C1077.11 648.174 1076.69 651.911 1073.1 654.537ZM1033.58 672.46L1045.74 660.886L1037.68 652.425C1035.02 654.738 1032.4 657.081 1029.83 659.461L1022.74 666.223C1020.76 668.153 1018.82 670.113 1016.9 672.088L1054.4 711.463C1061.13 704.404 1068.29 697.639 1075.87 691.205L1067.73 682.662L1054.92 694.865L1047.94 687.538L1059.38 676.637L1051.17 668.008L1039.72 678.909L1033.58 672.46ZM1044.64 722.231L1011.89 677.377C1009.07 680.419 1006.31 683.502 1003.62 686.627L1017.57 704.125C1021.3 708.849 1025.45 713.833 1030 718.972L1029.92 719.077C1023.75 715.402 1018.33 712.497 1012.67 709.741L992.969 699.674L992.377 700.402C989.954 703.542 987.59 706.721 985.292 709.927L1035.61 733.303C1038.52 729.546 1041.53 725.857 1044.64 722.231ZM1027.25 744.68L982.025 714.569C979.781 717.816 977.596 721.096 975.48 724.41L1020.71 754.524C1022.81 751.207 1024.99 747.919 1027.25 744.68ZM1018.08 758.742L969.827 733.559C967.996 736.642 966.209 739.763 964.473 742.898L976.002 748.938C983.318 752.758 990.236 756.079 996.978 758.857L996.89 759.032C990.269 757.782 982.569 756.641 976.605 756.25L958.305 754.602C956.222 758.749 954.231 762.933 952.327 767.155L1000.57 792.345C1002.01 789.05 1003.52 785.784 1005.09 782.541L993.704 776.601C985.814 772.481 978.374 768.743 971.669 765.537L971.756 765.362C978.659 766.608 986.501 767.46 992.863 767.98L1011.69 769.769C1013.73 766.054 1015.86 762.379 1018.08 758.742ZM975.074 787.171L947.774 777.728C946.297 781.332 944.883 784.973 943.531 788.626L943.487 788.748L972.937 799.002C981.184 801.87 984.528 805.451 982.982 809.896C981.455 814.277 976.233 814.876 968.369 812.138L938.934 801.896C937.724 805.652 936.573 809.423 935.495 813.217L962.347 822.508C979.079 828.324 988.949 825.052 992.922 813.641C996.974 801.981 991.113 792.75 975.074 787.171ZM983.559 844.328L929.776 836.079C929.038 839.582 928.355 843.112 927.73 846.664L940.52 848.628C948.676 849.881 956.299 850.785 963.578 851.242L963.545 851.436C956.88 852.391 949.228 853.797 943.458 855.356L925.698 859.696C925.077 864.278 924.547 868.89 924.112 873.528L977.903 881.788C978.199 878.188 978.56 874.61 978.995 871.051L966.205 869.087C957.41 867.737 949.158 866.602 941.777 865.732L941.806 865.539C948.742 864.49 956.434 862.768 962.624 861.202L981.1 856.795C981.827 852.607 982.646 848.453 983.559 844.328ZM977.453 887.977L923.184 885.76C922.958 889.68 922.8 893.615 922.713 897.565L976.982 899.789C977.059 895.832 977.212 891.897 977.453 887.977ZM955.681 906.435L922.632 907.726C922.662 911.679 922.757 915.622 922.921 919.542L956.123 918.244C963.553 917.957 965.727 920.356 965.866 924.142C965.939 926.035 965.606 927.873 965.179 929.331L976.814 930.182C977.61 927.932 977.895 924.715 977.8 922.301C977.406 911.731 971.343 905.821 955.681 906.435ZM978.191 932.139L924.503 941.016C924.88 944.602 925.315 948.176 925.808 951.724L938.55 949.615C946.688 948.272 954.212 946.759 961.28 944.936L961.309 945.126C955.265 948.109 948.431 951.821 943.432 955.097L927.898 964.752L928.128 966.151C928.881 970.26 929.711 974.344 930.61 978.402L984.298 969.524C983.483 966.035 982.73 962.513 982.047 958.973L969.326 961.078C960.545 962.528 952.352 964.016 945.066 965.489L945.033 965.292C951.296 962.141 958.079 958.106 963.472 954.696L979.671 944.754C979.087 940.577 978.593 936.371 978.191 932.139ZM985.178 973.18L937.026 1002.84C938.558 1007.88 940.198 1012.87 941.963 1017.81L998.165 1012.68C996.594 1008.88 995.103 1005.04 993.696 1001.16L981.539 1002.69L977.99 991.891L988.569 985.632C987.345 981.518 986.212 977.368 985.178 973.18ZM970.656 1004.61L960.753 1005.87C957.6 1006.22 953.061 1007.02 949.754 1007.42L949.71 1007.3C952.608 1005.66 956.609 1003.45 959.357 1001.87L968.106 996.856L970.656 1004.61ZM999.357 1015.52L949.86 1037.91C951.417 1041.52 953.047 1045.12 954.724 1048.68L1004.23 1026.3C1002.54 1022.74 1000.91 1019.15 999.357 1015.52ZM968.281 1049.12L957.812 1055.02C962.968 1065.34 968.643 1075.35 974.8 1085.03L985.226 1079.16L979.708 1069.37L1016.24 1048.76C1014.23 1045.37 1012.29 1041.94 1010.41 1038.47L973.894 1059.07L968.281 1049.12ZM1043.61 1140.8C1041.27 1142.47 1046.72 1150.24 1051.92 1153.03C1055.28 1154.84 1060.1 1154.1 1063.7 1153.59C1068.67 1152.9 1073.86 1152.13 1078.14 1149.32C1081.69 1146.98 1085.02 1144.23 1088.28 1141.51C1089.85 1140.19 1091.41 1138.89 1092.93 1137.54C1096.64 1134.27 1101.65 1130.31 1101.65 1130.31C1101.65 1130.31 1093.9 1145.66 1090.92 1153.05C1087.95 1160.43 1086.93 1171.34 1089.27 1174.57C1091.6 1177.8 1098.36 1177.62 1099.61 1178.06C1100.86 1178.5 1107.45 1180.67 1110.87 1181.87C1114.29 1183.06 1115.24 1180.47 1113.76 1179.41C1112.29 1178.34 1111.85 1177.98 1108.92 1176.01C1105.98 1174.05 1102.04 1170.81 1101.81 1170.19C1101.59 1169.57 1101.65 1166.09 1101.8 1163.58C1101.96 1161.07 1102.22 1148.22 1102.87 1144.21C1103.52 1140.2 1106.41 1130.4 1106.41 1130.4C1106.41 1130.4 1110.83 1130.2 1117.38 1131.34C1123.95 1132.46 1125.37 1131.43 1126.27 1130.7C1127.16 1129.97 1128.11 1128.98 1125.47 1128.28C1122.82 1127.57 1118.51 1123.89 1118.15 1123.6C1117.81 1123.31 1117.15 1122.49 1115.86 1122.46C1114.57 1122.42 1113.7 1121.13 1113.7 1121.13C1113.7 1121.13 1113.39 1120.28 1114.11 1119.41C1114.83 1118.53 1114.53 1115.5 1114.53 1115.5C1115.8 1117.71 1122.98 1118.61 1126.01 1118.31C1129.05 1118.01 1134.91 1117.83 1137.29 1117.44C1139.66 1117.04 1140.56 1118.81 1143.94 1117.02C1146.1 1115.88 1144.58 1116.9 1146.7 1115.54C1148.82 1114.16 1148.36 1113.51 1147.69 1112.25C1147.03 1111 1144.87 1110.36 1143.05 1109.3C1141.24 1108.23 1138.86 1106.99 1137.8 1106.4C1136.73 1105.81 1137.23 1106.22 1134.08 1105.75C1130.93 1105.29 1127.04 1103.66 1123.13 1102.57C1119.22 1101.48 1117.57 1100.56 1116.72 1099.86C1115.88 1099.17 1115.41 1098.36 1113.24 1099.12C1111.81 1099.61 1111.86 1101.12 1112.04 1102.36C1112.26 1103.88 1112.11 1104.82 1112.02 1106.34C1111.94 1107.58 1112.84 1108.6 1112.6 1109.9C1112.6 1109.9 1111.82 1109.12 1110.48 1108.16C1109.15 1107.21 1108.03 1109.26 1107.2 1110.28C1106.37 1111.29 1103.89 1114.49 1102.8 1115.29C1101.72 1116.09 1100.63 1117.6 1099.52 1118.95C1098.41 1120.3 1094.68 1123.42 1094.68 1123.42C1092.37 1123.73 1075.69 1121.35 1072.83 1120.9C1069.96 1120.46 1067.82 1115.03 1067.82 1115.03C1064.5 1116.27 1062.94 1122.6 1063.11 1125.74C1063.21 1127.61 1063.76 1129.8 1064.6 1131.47C1066.01 1134.24 1070.67 1135.87 1075.44 1135.07C1080.2 1134.28 1087.44 1131.71 1087.44 1131.71C1084.41 1136.13 1081.83 1138.55 1070.97 1144.46C1060.11 1150.37 1055.37 1146.49 1052.17 1145.03C1048.96 1143.57 1045.04 1139.77 1043.61 1140.8ZM1108.3 1125.31C1109.08 1123.83 1111.12 1123.05 1111.12 1123.05L1111.82 1122.75C1113.81 1123.26 1113.52 1125.83 1112.99 1125.62C1112.58 1125.46 1108.3 1125.31 1108.3 1125.31ZM1110.87 991.94C1157.41 1074.72 1231.25 1112.16 1249.72 1120.81L1258 1124.09L1266.28 1120.81C1284.75 1112.16 1358.59 1074.72 1405.15 991.94C1425.57 955.38 1433.31 916.254 1434.31 879.999L1434.33 879.244H1434.35L1434.79 863.225C1434.79 863.225 1414.41 856.97 1408.33 852.912C1399.02 846.712 1396.45 839.385 1400.96 829.913C1405.27 820.864 1429.81 813.254 1429.81 813.254L1425.7 794.621C1425.43 793.416 1425.16 792.215 1424.88 791.021H1424.87C1414.77 747.242 1400.53 717.593 1400.03 716.525L1391.76 699.32L1374.64 705.364C1364.16 709.087 1353.8 710.601 1343.78 710.601C1305.67 710.939 1271.81 679.791 1270.29 678.411L1258 668.96L1245.69 678.411H1245.71C1244.19 679.791 1210.33 710.939 1172.22 710.601C1162.2 710.601 1151.86 709.087 1141.35 705.364L1124.24 699.32L1115.97 716.525C1115.46 717.615 1100.44 748.875 1090.3 794.621L1086.2 813.254C1086.2 813.254 1110.73 820.864 1115.04 829.913C1119.56 839.385 1116.98 846.712 1107.68 852.912C1101.6 856.97 1081.22 863.225 1081.22 863.225L1081.68 879.999C1082.7 916.254 1090.43 955.38 1110.87 991.94ZM1120.93 985.412C1101.76 951.095 1094.4 914.249 1093.42 879.616L1093.22 872.17L1099.77 869.738C1109.4 866.179 1117.23 860.849 1122.34 855.01C1127.49 849.133 1129.88 843.112 1129.88 837.18C1129.88 836.83 1129.88 836.488 1129.85 836.179C1129.6 831.14 1127.69 826.327 1123.89 821.593C1120.09 816.906 1114.37 812.507 1107.17 809.193L1099.93 805.831L1101.75 797.537C1111.53 753.286 1126.18 722.833 1126.4 722.349L1130.09 714.692L1137.69 717.392C1149.48 721.576 1161.09 723.246 1172.25 723.246H1172.52C1214.04 723.246 1248.74 691.618 1252.26 688.914L1252.53 688.709L1258 684.54L1263.46 688.709L1263.76 688.914C1267.27 691.621 1302.12 723.395 1343.77 723.246C1354.91 723.246 1366.51 721.576 1378.32 717.392L1385.91 714.692L1389.6 722.349C1389.82 722.807 1403.07 750.37 1412.78 791.132C1413 792.025 1413.21 792.921 1413.42 793.825C1413.5 794.178 1413.58 794.536 1413.67 794.889C1413.78 795.421 1413.9 795.949 1414.02 796.484C1414.11 796.834 1414.18 797.184 1414.26 797.537L1415.1 801.394L1416.07 805.831L1408.83 809.193C1401.64 812.507 1395.91 816.906 1392.12 821.593C1388.32 826.327 1386.41 831.14 1386.16 836.179C1386.14 836.488 1386.12 836.83 1386.12 837.18C1386.14 843.112 1388.51 849.133 1393.66 855.01C1398.78 860.849 1406.61 866.179 1416.24 869.738L1422.78 872.17L1422.63 878.273L1422.58 879.616C1421.6 914.249 1414.26 951.095 1395.06 985.412C1350.8 1064.43 1278.97 1101.16 1261.68 1109.17L1258 1110.37L1254.32 1109.17C1237.04 1101.16 1165.2 1064.43 1120.93 985.412ZM1102.82 879.307C1103.76 912.646 1110.81 947.648 1128.99 980.202C1171.44 1056.23 1241.68 1092.37 1258.01 1099.86C1258.01 1099.86 1334.33 1074.53 1386.98 980.202C1405.17 947.648 1412.22 912.646 1413.18 879.307C1390.85 871.058 1375.83 854.284 1376.74 835.651C1377.45 820.466 1388.59 807.519 1405.09 799.899C1395.59 756.834 1381.23 727.01 1381.23 727.01C1317.02 749.73 1258.01 696.944 1258.01 696.944C1258.01 696.944 1198.93 749.73 1134.75 727.01C1134.75 727.01 1120.4 756.834 1110.9 799.899C1127.37 807.519 1138.52 820.466 1139.24 835.651C1140.1 854.284 1125.09 871.058 1102.82 879.307ZM1275.19 796.51C1275.19 803.224 1274.42 809.327 1273.4 815.244C1272.95 817.821 1270.7 819.64 1268.18 819.64L1267.25 819.558C1264.37 819.056 1262.43 816.308 1262.93 813.422C1263.91 807.828 1264.57 802.416 1264.57 796.51C1264.57 787.681 1263.1 777.635 1258.58 764.213C1257.65 761.431 1259.15 758.418 1261.92 757.485C1264.69 756.548 1267.71 758.043 1268.64 760.825C1273.46 775.088 1275.2 786.446 1275.19 796.51ZM1292.49 795.763C1292.49 801.65 1291.87 807.077 1290.99 812.492C1290.11 817.911 1288.99 823.322 1287.94 829.321C1286.18 839.415 1284.57 851.473 1284.57 868.626C1284.57 885.823 1286.2 908.127 1291.03 938.391C1291.49 941.288 1289.53 944.01 1286.63 944.475L1285.79 944.542C1283.23 944.542 1280.97 942.675 1280.55 940.068C1275.65 909.373 1273.95 886.504 1273.95 868.626C1273.95 850.818 1275.65 837.946 1277.49 827.491C1278.58 821.295 1279.68 815.899 1280.51 810.8C1281.34 805.693 1281.87 800.895 1281.87 795.763C1281.87 787.253 1280.41 777.676 1275.88 764.213C1274.94 761.431 1276.44 758.418 1279.22 757.485C1282 756.548 1285 758.043 1285.95 760.825C1290.75 775.051 1292.5 785.966 1292.49 795.763ZM1309.79 796.51C1309.79 803.224 1309.02 809.327 1307.99 815.244C1307.54 817.821 1305.3 819.64 1302.77 819.64L1301.85 819.558C1298.96 819.056 1297.03 816.308 1297.53 813.422C1298.5 807.828 1299.17 802.416 1299.17 796.51C1299.16 787.681 1297.7 777.635 1293.18 764.213C1292.24 761.431 1293.75 758.418 1296.52 757.485C1299.3 756.548 1302.3 758.043 1303.24 760.825C1308.05 775.088 1309.8 786.446 1309.79 796.51ZM1340.85 944.788C1337.91 944.788 1335.54 942.407 1335.54 939.484V874.145H1318.81C1315.81 874.145 1313.37 871.772 1313.37 868.838C1313.37 865.907 1315.81 863.53 1318.81 863.53H1335.54V842.9H1318.81C1315.81 842.9 1313.37 840.52 1313.37 837.585C1313.37 834.655 1315.81 832.282 1318.81 832.282H1335.54V811.543H1318.81C1315.81 811.543 1313.37 809.167 1313.37 806.236C1313.37 803.305 1315.81 800.925 1318.81 800.925H1325.4C1325.52 799.211 1325.6 797.481 1325.6 795.711C1325.59 787.391 1324.14 777.952 1319.6 764.35C1318.67 761.55 1320.16 758.511 1322.94 757.57C1325.72 756.626 1328.73 758.128 1329.66 760.932C1334.45 775.266 1336.22 786.059 1336.22 795.711C1336.22 797.492 1336.14 799.222 1336.03 800.925H1345.33C1345.22 799.222 1345.15 797.492 1345.15 795.711C1345.14 786.059 1346.9 775.266 1351.69 760.932C1352.63 758.128 1355.64 756.626 1358.42 757.57C1361.2 758.511 1362.69 761.55 1361.75 764.35C1357.22 777.952 1355.77 787.391 1355.77 795.711C1355.77 797.481 1355.84 799.211 1355.96 800.925H1362.55C1365.55 800.925 1367.99 803.305 1367.99 806.236C1367.99 809.167 1365.55 811.543 1362.55 811.543H1346.15V832.282H1362.55C1365.55 832.282 1367.99 834.655 1367.99 837.585C1367.99 840.52 1365.55 842.9 1362.55 842.9H1346.15V863.53H1362.55C1365.55 863.53 1367.99 865.907 1367.99 868.838C1367.99 871.772 1365.55 874.145 1362.55 874.145H1346.15V939.484C1346.15 942.407 1343.78 944.788 1340.85 944.788ZM1302.9 1024.19C1303.69 1021.81 1306.39 1020.51 1308.9 1021.25C1310.61 1021.76 1312.93 1021.99 1315.66 1022.15C1316.1 1022.18 1316.57 1022.18 1317.03 1022.18C1320.4 1022.21 1323.96 1021.41 1326.39 1020.05C1328.84 1018.62 1330.12 1017.08 1330.46 1014.73C1330.51 1014.28 1330.54 1013.85 1330.54 1013.46C1330.41 1010.26 1329.18 1009.07 1326.47 1007.59C1323.8 1006.27 1319.76 1005.7 1316.88 1005.71C1315.58 1005.71 1314.49 1005.83 1314.1 1005.92V1005.91C1312.63 1006.43 1310.96 1006.24 1309.67 1005.41C1308.36 1004.56 1307.57 1003.18 1307.6 1001.66L1307.81 982.727C1307.88 980.284 1310 978.279 1312.62 978.279H1331.53C1334.17 978.279 1336.32 980.295 1336.32 982.764C1336.32 985.252 1334.17 987.246 1331.53 987.246H1317.36L1317.23 996.741C1321.17 996.804 1326.19 997.418 1330.88 999.631C1335.68 1001.8 1340.24 1006.72 1340.13 1013.46C1340.13 1014.22 1340.08 1015.02 1339.99 1015.83C1339.29 1021.28 1335.58 1025.43 1331.26 1027.76C1326.93 1030.14 1321.87 1031.13 1317.03 1031.16C1316.37 1031.16 1315.71 1031.13 1315.03 1031.11C1312.17 1030.91 1309.16 1030.7 1306.05 1029.79C1303.5 1029.06 1302.11 1026.54 1302.9 1024.19ZM1300.26 926.125C1297.64 926.125 1295.35 924.172 1295.01 921.498C1292.27 900.328 1291.25 882.822 1291.25 868.447C1291.25 858.714 1291.71 850.416 1292.43 843.395H1292.44C1292.73 840.479 1295.34 838.355 1298.25 838.656C1301.17 838.954 1303.29 841.557 1302.99 844.473C1302.31 851.119 1301.86 859.053 1301.86 868.447C1301.86 882.32 1302.85 899.372 1305.54 920.133C1305.91 923.045 1303.86 925.704 1300.96 926.08L1300.26 926.125ZM1258.93 992.576C1259.04 983.371 1267.83 976.907 1277.66 976.892C1285.31 976.899 1292.3 980.834 1295.08 986.904L1295.59 987.7C1295.75 988.087 1297.35 991.642 1297.35 997.113C1297.48 1005.96 1292.61 1019.67 1272.68 1030.52C1271.93 1030.94 1271.07 1031.16 1270.25 1031.16C1268.62 1031.16 1267.02 1030.37 1266.11 1028.96C1264.78 1026.82 1265.53 1024.08 1267.8 1022.81C1277.66 1017.27 1282.72 1011.74 1285.25 1006.89C1282.91 1007.77 1280.32 1008.25 1277.66 1008.27C1267.83 1008.25 1259.04 1001.8 1258.93 992.576ZM1256.65 868.447C1256.65 858.714 1257.12 850.416 1257.84 843.395C1258.13 840.479 1260.74 838.355 1263.65 838.656C1266.58 838.954 1268.7 841.557 1268.4 844.473C1267.72 851.119 1267.27 859.053 1267.27 868.447C1267.27 882.32 1268.25 899.372 1270.94 920.133C1271.31 923.045 1269.26 925.704 1266.36 926.08L1265.67 926.125C1263.04 926.125 1260.76 924.172 1260.41 921.498C1257.67 900.328 1256.65 882.822 1256.65 868.447ZM1209.85 1015.24C1209.85 1010.5 1212.48 1006.35 1216.16 1003.63L1216.37 1003.5C1212.94 1000.81 1210.58 996.842 1210.58 992.345C1210.58 987.715 1213.05 983.657 1216.61 980.957C1220.21 978.212 1224.92 976.661 1230.03 976.661C1235.14 976.661 1239.87 978.212 1243.44 980.957C1247.02 983.657 1249.51 987.715 1249.51 992.345C1249.51 996.842 1247.13 1000.81 1243.71 1003.49L1243.91 1003.63C1247.61 1006.35 1250.24 1010.5 1250.24 1015.24C1250.24 1019.97 1247.61 1024.13 1243.91 1026.83C1240.18 1029.59 1235.33 1031.13 1230.03 1031.16C1224.74 1031.13 1219.89 1029.59 1216.16 1026.83C1212.48 1024.13 1209.85 1019.97 1209.85 1015.24ZM1210.41 760.17L1210.42 760.174C1211.59 757.481 1214.72 756.265 1217.41 757.448C1220.08 758.627 1221.3 761.751 1220.13 764.436L1220.12 764.443L1220.12 764.462L1220.04 764.644C1219.97 764.815 1219.86 765.083 1219.72 765.462C1219.43 766.214 1219.01 767.378 1218.49 768.959C1217.46 772.112 1216.06 776.906 1214.69 783.337C1214.4 784.676 1214.12 786.1 1213.84 787.588C1215.88 789.477 1217.68 791.69 1219.3 794.123C1221.63 797.637 1223.6 801.621 1225.34 805.875C1228.81 814.389 1231.33 824.032 1233.2 833.178C1236.94 851.45 1238.08 867.722 1238.1 867.878C1238.31 870.973 1236.12 873.673 1233.2 873.9L1232.8 873.918C1230.05 873.918 1227.72 871.672 1227.52 868.715L1227.5 868.436C1227.48 868.243 1227.46 867.949 1227.43 867.558C1227.36 866.777 1227.26 865.639 1227.12 864.192C1226.83 861.299 1226.37 857.189 1225.7 852.38C1224.37 842.774 1222.14 830.329 1218.77 819.317C1216.77 812.756 1214.32 806.712 1211.61 802.156C1210.3 812.934 1209.46 825.985 1209.72 841.323C1210.18 867.086 1213.74 899.253 1223.5 937.699C1224.21 940.54 1222.5 943.434 1219.66 944.152C1219.25 944.256 1218.84 944.308 1218.44 944.315C1216.03 944.36 1213.83 942.742 1213.21 940.31C1203.27 901.094 1199.59 868.105 1199.12 841.513C1198.19 788.324 1210.14 760.769 1210.41 760.17ZM1188.73 981.924C1188.73 979.454 1190.89 977.446 1193.52 977.446C1196.16 977.446 1198.33 979.454 1198.33 981.924V1026.67C1198.33 1029.16 1196.16 1031.16 1193.52 1031.16C1190.89 1031.16 1188.73 1029.16 1188.73 1026.67V981.924ZM1148.03 867.878C1148.03 867.781 1148.53 860.726 1149.92 850.736C1151.32 840.743 1153.6 827.822 1157.26 815.843C1159.72 807.854 1162.75 800.274 1166.83 794.123C1168.44 791.69 1170.24 789.477 1172.28 787.588C1169.42 772.51 1166.12 764.737 1165.99 764.443C1164.82 761.758 1166.03 758.627 1168.72 757.448C1171.39 756.265 1174.52 757.481 1175.7 760.174C1175.97 760.769 1187.93 788.324 1187 841.513C1186.53 868.105 1182.85 901.094 1172.9 940.31C1172.29 942.746 1170.08 944.36 1167.68 944.315C1167.27 944.308 1166.87 944.256 1166.46 944.152C1163.62 943.434 1161.9 940.54 1162.62 937.699C1172.37 899.253 1175.94 867.086 1176.39 841.323C1176.66 825.989 1175.82 812.931 1174.52 802.156C1173.32 804.161 1172.17 806.456 1171.09 808.959C1168.15 815.768 1165.79 824.088 1163.98 832.293C1160.34 848.706 1158.92 864.646 1158.65 868.046C1158.62 868.503 1158.6 868.715 1158.6 868.715C1158.4 871.672 1156.07 873.918 1153.32 873.918L1152.92 873.9C1150 873.673 1147.81 870.973 1148.03 867.878ZM1219.45 1015.24C1219.45 1016.81 1220.26 1018.39 1222.12 1019.82C1223.98 1021.21 1226.83 1022.2 1230.03 1022.2C1233.26 1022.2 1236.1 1021.21 1237.96 1019.82C1239.82 1018.39 1240.65 1016.81 1240.65 1015.24C1240.65 1013.65 1239.82 1012.06 1237.96 1010.65C1236.1 1009.26 1233.26 1008.26 1230.03 1008.26H1230C1226.81 1008.26 1223.98 1009.26 1222.12 1010.65C1220.26 1012.06 1219.45 1013.65 1219.45 1015.24ZM1237.39 996.804C1239.15 995.443 1239.92 993.907 1239.92 992.345C1239.92 990.768 1239.15 989.236 1237.4 987.882C1235.65 986.55 1233.04 985.621 1230.03 985.621H1230.02C1227.03 985.621 1224.41 986.55 1222.7 987.882C1220.94 989.236 1220.16 990.768 1220.16 992.345C1220.16 993.907 1220.94 995.443 1222.7 996.804C1224.41 998.117 1227.06 999.062 1230.03 999.062C1233.04 999.062 1235.65 998.117 1237.39 996.804ZM1270.91 988.038C1269.3 989.377 1268.51 990.928 1268.48 992.576C1268.51 994.234 1269.3 995.77 1270.91 997.102C1272.52 998.396 1274.91 999.3 1277.66 999.3C1280.37 999.3 1282.76 998.396 1284.4 997.102C1286.02 995.77 1286.81 994.234 1286.82 992.576C1286.81 990.928 1286.02 989.377 1284.4 988.038C1282.76 986.762 1280.37 985.855 1277.66 985.855H1277.64C1274.89 985.855 1272.52 986.762 1270.91 988.038ZM1167.15 1209.84C1166.93 1211.9 1165.35 1216.21 1168.91 1216.31C1172.32 1216.4 1172.2 1215.38 1174.12 1211.98C1175.62 1209.32 1177.25 1207.91 1178.58 1204.98C1179.91 1202.05 1180.49 1202.16 1180.81 1201.22C1181.11 1200.28 1181.09 1198.96 1181.79 1196.31C1182.5 1193.66 1183.63 1189.44 1184 1187.92C1184.38 1186.41 1184.92 1185.24 1185.66 1183.37C1186.39 1181.5 1188.15 1180.75 1189.53 1180.5C1190 1180.42 1193.71 1180.8 1194.18 1180.85L1194.34 1181.35C1194.51 1181.6 1193.75 1181.52 1199.47 1183.57C1199.63 1183.63 1199.36 1184.82 1199.32 1185.36C1199.23 1186.43 1199.24 1187.57 1198.94 1188.6C1198.94 1188.6 1195.9 1189.05 1195.71 1189.98C1195.51 1190.91 1195.17 1191.66 1196.3 1192.17C1197.43 1192.68 1198.1 1193.32 1198.1 1193.32C1198.1 1193.32 1198.22 1194.4 1197.89 1196.13C1197.71 1197.02 1197.46 1196.96 1197.41 1197.17C1197.35 1197.47 1195.22 1197.56 1194.85 1197.76C1193.61 1198.44 1193.51 1200.22 1194.92 1201.91C1195.45 1202.55 1196.27 1202.02 1196.49 1202.7C1196.78 1203.66 1195.55 1204.93 1195.33 1205.2C1194.57 1206.16 1193.15 1207.66 1191.28 1207.99C1189.41 1208.32 1187.51 1209 1182.44 1207.81C1181.71 1207.65 1180.98 1208.32 1180.54 1209.12C1180.57 1209.68 1180.54 1210.28 1180.16 1211L1180.28 1211.19C1181.01 1211.91 1182.04 1212.79 1182.61 1213.8C1183.18 1214.8 1182.58 1215.29 1184.59 1215.85C1187.5 1216.65 1188.24 1214.51 1190.6 1215.23C1192.95 1215.95 1190.64 1217.59 1190.37 1218.56C1190.09 1219.57 1188.71 1220.41 1188.08 1221.21C1186.42 1223.27 1186.98 1226.57 1187.91 1228.81C1188.63 1230.52 1190.2 1235.34 1192.86 1234.25C1193.9 1233.82 1197.75 1230.26 1198.98 1228.91C1200.22 1227.55 1200.83 1226.63 1201.18 1225.41C1201.51 1224.2 1202.52 1213.79 1203.45 1213.26C1205.03 1212.37 1207.77 1212.79 1209.52 1212.61C1212.64 1212.28 1215.84 1211.78 1218.93 1211.21C1220.04 1211 1221.13 1210.73 1222.23 1210.48C1223.59 1210.17 1224.84 1209.51 1226.2 1209.16C1227.33 1208.87 1228.9 1208.69 1229.73 1207.78C1230.45 1207.01 1231.09 1206.46 1231.19 1205.64C1231.28 1204.82 1230.77 1203.83 1230.23 1203.23C1229.45 1202.34 1227.83 1202.36 1226.79 1201.93C1224.01 1200.8 1221.61 1199.13 1219.19 1197.4C1218.24 1196.74 1216.15 1195.92 1215.59 1194.88C1215.22 1195.02 1215.59 1194.88 1215.44 1195.45C1215.44 1195.78 1215.84 1196.67 1216.6 1199.01C1217.53 1201.91 1218.76 1204.5 1217.86 1204.75C1215.44 1205.44 1212.86 1205.35 1210.4 1205.99C1209.55 1206.22 1208.94 1206.37 1208.17 1206.61C1207.39 1206.85 1207.05 1207.02 1206.19 1206.79C1205.34 1206.55 1204.43 1205.71 1204.11 1204.58C1203.79 1203.45 1203.86 1202.94 1205.01 1202.67C1206.15 1202.4 1208.92 1201.35 1209.17 1199.98C1209.41 1198.62 1208.88 1198.63 1208.35 1197.7C1207.83 1196.78 1205.28 1199.56 1206.71 1194.68L1206.96 1193.82L1209.9 1193.64C1210.15 1193.57 1210.48 1193.5 1210.98 1193.38C1212.24 1193.1 1215.1 1192.56 1216.28 1191.71C1216.62 1191.46 1217.23 1189.8 1217.32 1189.51C1217.44 1189.14 1217.94 1188.45 1216.52 1187.7C1215.09 1186.96 1215.47 1187.83 1213.7 1188.12C1211.95 1188.41 1207.91 1188.47 1207.91 1188.47C1207.91 1188.47 1208.16 1187.2 1208.28 1186L1208.44 1185.04L1208.48 1184.92C1208.48 1184.92 1208.98 1183.66 1211.55 1181.84C1214.16 1179.98 1223.46 1178.33 1226.59 1177.94C1229.72 1177.54 1235.02 1176.96 1236.07 1176.89C1237.12 1176.82 1237.28 1175.47 1236.65 1173.92C1236.05 1172.44 1234.89 1173.08 1233.73 1173.26C1232.34 1173.48 1230.96 1173.03 1229.56 1173.09C1228.14 1173.15 1226.72 1173.46 1225.32 1173.68C1223.38 1173.98 1219.49 1174.81 1218.25 1174.89C1217.01 1174.97 1215.16 1175.64 1214.27 1175.82C1213.4 1175.99 1213.48 1175.67 1214.46 1174.37C1215.45 1173.06 1217.89 1173.07 1218.85 1173.09C1219.81 1173.11 1221.4 1172.43 1223.15 1171.67C1225.78 1170.52 1227.91 1168.61 1230.18 1166.91C1231.36 1166.02 1232.66 1165.24 1233.79 1164.31C1234.68 1163.58 1235.59 1162.71 1236.08 1161.65C1236.63 1160.49 1236.16 1159.81 1235.67 1158.72C1234.81 1156.82 1231.54 1157.29 1229.88 1157.23C1229.44 1157.22 1228.82 1157.11 1228.39 1157.27C1227.29 1157.68 1225.44 1159.71 1224.06 1158.81C1223.62 1158.52 1224.36 1155.94 1224.63 1154.4C1224.91 1152.85 1223.4 1151.48 1221.93 1149.71C1220.46 1147.94 1218.65 1144.75 1216.06 1144.08C1213.47 1143.4 1211.48 1148.31 1210.83 1150.05C1210.4 1151.22 1210.12 1152.46 1209.68 1153.64C1209.27 1154.73 1208.6 1155.67 1208.11 1156.73C1207.28 1158.57 1207.36 1162.71 1204.68 1163.04C1204.08 1163.12 1203.85 1163.98 1203.25 1164.58C1202.64 1165.17 1200.64 1165.91 1200.9 1166.91C1201.15 1167.9 1203.34 1166.68 1203.71 1166.71C1204.09 1166.76 1204.39 1167.87 1204.45 1168.11C1204.71 1169.16 1203.81 1170.85 1203.58 1171.87C1203.16 1173.64 1203.05 1175.65 1202.34 1177.34C1201.95 1178.28 1196.47 1177.65 1194.74 1177.73L1194.35 1177.84L1194.34 1177.83L1194.17 1177.49C1194 1176.93 1191.9 1176.09 1191.93 1175.52C1192.04 1173.84 1190.63 1172.86 1189.73 1172.6C1188.81 1172.34 1187.37 1171.18 1186.91 1170.74C1186.45 1170.3 1184.73 1169.4 1184.01 1168.53C1183.28 1167.68 1184.31 1165.59 1184.38 1164.87C1184.47 1163.97 1185.7 1162.86 1186.25 1162.22C1187.7 1160.52 1190.32 1159.09 1192.63 1159.26C1194.28 1159.37 1195.68 1159.71 1196.92 1158.28C1199.87 1154.89 1196.2 1150.94 1193.37 1149.18C1191.94 1148.29 1191.33 1147.49 1190.55 1147.04C1189.78 1146.59 1187.29 1145.23 1186.27 1144.51C1185.24 1143.79 1183.3 1142.48 1182.15 1143.1C1180.98 1143.72 1181.96 1144.94 1183.63 1147.45C1184.41 1148.63 1184.83 1149.79 1184.69 1151.21C1184.56 1152.51 1184.45 1153.3 1185.11 1154.49C1185.91 1155.94 1186.64 1157.05 1186.15 1158.75C1185.65 1160.55 1183.32 1164.21 1182.77 1164.83C1182.22 1165.45 1181.36 1165.65 1180.77 1166.23C1178.37 1168.58 1178.3 1171.08 1179.23 1174.1C1179.96 1176.52 1179.79 1180.78 1179.54 1182.7C1179.29 1184.62 1177.28 1188.94 1176.61 1190.19C1175.94 1191.43 1174.49 1194.01 1172.51 1198.43C1170.55 1202.85 1169.98 1203.67 1169.49 1203.62C1169.02 1203.57 1167.74 1205.44 1167.28 1206.17C1166.74 1207.05 1167.26 1208.83 1167.15 1209.84ZM1221.74 1163.9C1222.82 1162.58 1225.93 1162.32 1225.93 1162.32C1226.04 1163.9 1223.58 1164.98 1223.26 1165.19C1222.94 1165.4 1222.83 1165.85 1222.59 1166.26C1222.34 1166.67 1221.24 1166.85 1221.24 1166.85C1221.24 1166.85 1220.67 1165.22 1221.74 1163.9ZM1176.57 1195.73C1176.64 1195.05 1177.57 1193.52 1179 1190.41C1180.44 1187.32 1183.17 1185.04 1183.17 1185.04C1183.07 1186.04 1182.72 1186.08 1182.56 1186.84C1182.39 1187.59 1177.9 1195.32 1177.25 1195.87C1176.59 1196.43 1176.5 1196.41 1176.57 1195.73ZM1309.13 1199.53C1310.21 1206.36 1308.19 1210.56 1304.61 1214.05C1300.84 1217.69 1295.25 1220.4 1289.79 1223.88L1289.56 1224.03L1289.5 1224.29C1289.47 1224.49 1289.28 1224.82 1289.41 1225.37L1289.5 1225.72L1289.86 1225.84C1292.11 1226.45 1294.99 1225.65 1297.15 1225.4C1297.94 1225.27 1298.69 1225.12 1299.42 1224.93C1310.37 1222.09 1316.45 1212.05 1317.44 1203.45C1317.66 1199.02 1317.87 1194.63 1318.12 1190.39C1319.26 1189.22 1320.4 1188.07 1321.56 1187.06L1321.59 1187.03L1321.63 1186.99C1322.72 1185.71 1324.74 1184.11 1326.74 1182.37L1326.32 1181.89L1326.76 1182.36C1329.72 1179.57 1333.47 1175.81 1334.29 1172.86L1334.32 1172.76L1334.31 1172.66L1334.26 1172.34C1333.8 1170.94 1332.27 1170.5 1330.58 1170.06C1328.88 1169.66 1326.89 1169.43 1325.37 1169.25C1325.22 1169.25 1321.99 1169.24 1320.81 1169.25H1320.74L1320.66 1169.27L1320.14 1169.74L1320.13 1170.23C1320.33 1170.83 1320.81 1171.39 1321.34 1172.16C1321.85 1172.88 1322.37 1173.7 1322.46 1174.12L1322.49 1174.31C1322.39 1175.55 1319.56 1178.64 1317.94 1180.11C1316.97 1172.77 1319.69 1166.14 1318.7 1158.68L1318.66 1158.44L1318.48 1158.28C1316.2 1156.32 1308.99 1153.69 1305.23 1154.41L1304.96 1154.47L1304.81 1154.71L1304.66 1155.32L1304.65 1155.39L1304.6 1155.48L1304.59 1155.64C1304.54 1156.61 1304.69 1157.56 1304.94 1158.52C1305.46 1160.54 1306.4 1162.56 1306.91 1164.57C1307.1 1165.3 1307.23 1166.02 1307.28 1166.75C1307.84 1174.15 1308.81 1181.41 1308.89 1188.56C1305.38 1192.29 1301.43 1195.97 1296.9 1199.07C1295.17 1200.36 1292.56 1200.76 1290.2 1202.29L1289.87 1202.51L1289.86 1202.52L1289.21 1202.69L1289.51 1203.39C1290.98 1206.57 1293.46 1211.28 1297.32 1210.47L1298.04 1210.22C1300.25 1209.17 1302.12 1207.47 1303.86 1205.31C1305.49 1203.28 1307.2 1201.39 1309.13 1199.53ZM1320.81 1195.11C1320.49 1196 1320.51 1196.93 1320.75 1197.84C1322.03 1202.58 1328.99 1207.5 1331.42 1209.57C1332.1 1210.09 1332.58 1210.72 1333.42 1211.36C1334.03 1211.85 1334.87 1212.37 1335.99 1212.44C1336.76 1212.48 1337.48 1212.4 1338.15 1212.22L1338.18 1212.22C1342.26 1211.13 1344.58 1206.9 1346.24 1205.15C1346.63 1204.64 1347.66 1203.83 1348.58 1202.97C1349.49 1202.08 1350.43 1201.21 1350.52 1200.02L1350.55 1199.34L1349.87 1199.35C1348.61 1199.36 1347.58 1199.47 1346.4 1199.49L1346.41 1200.13L1346.37 1199.49C1345.46 1199.55 1344.6 1199.71 1343.77 1199.92C1341.99 1200.38 1340.35 1201.06 1338.69 1201.48C1337.6 1201.77 1336.5 1201.94 1335.34 1201.9C1334.25 1201.9 1332.98 1201.52 1331.65 1200.97C1328.23 1199.66 1324.81 1196.95 1322.6 1194.69L1322.34 1194.43L1321.26 1194.7L1320.93 1194.79L1320.81 1195.11ZM1376.98 1118.3L1376.37 1118.67L1377.27 1119.21C1378.64 1120.01 1380.11 1120.95 1381.49 1121.77C1384.86 1124.3 1389.19 1127.41 1391.56 1131.23L1391.58 1131.28C1391.99 1131.93 1392.45 1132.58 1392.84 1133.21C1393.56 1134.4 1393.96 1135.43 1393.53 1136.43L1393.51 1136.46L1393.48 1136.48C1390.08 1136.27 1386.93 1133.7 1382.44 1136.43C1381.93 1136.74 1381.41 1137.12 1380.86 1137.58L1380.72 1137.7L1380.67 1137.9L1380.73 1138.63L1380.84 1138.79L1380.95 1138.91L1381.11 1138.97C1384.15 1139.99 1389.72 1142.91 1391.89 1145.94C1392.29 1146.61 1392.61 1147.42 1393.1 1148.21C1393.51 1148.89 1394.08 1149.57 1394.94 1150.03L1395.04 1150.09L1395.15 1150.11C1396.46 1150.3 1397.75 1150.5 1399.05 1150.71L1399.38 1150.76L1399.62 1150.51C1400.19 1149.84 1400.12 1149.01 1399.99 1148.2C1399.51 1145.75 1398.05 1142.38 1399.86 1140.06C1401.11 1139.47 1402.24 1139.9 1403.83 1139.72L1403.96 1139.7L1404.07 1139.63C1404.43 1139.36 1404.52 1139.18 1404.66 1139.11L1404.99 1138.9L1404.96 1138.51C1404.87 1137.53 1404.68 1136.48 1404.6 1135.56L1404.59 1135.45L1404.55 1135.36C1404.25 1134.7 1403.96 1133.82 1403.56 1132.96L1404.08 1131.65L1406.51 1125.73L1406.87 1125.58C1407.32 1125.79 1408.08 1126.31 1408.36 1126.82L1408.53 1127.39V1127.43V1127.48L1408.52 1127.47L1407.88 1128.34L1407.56 1128.71L1407.92 1129.24L1408.07 1129.46L1408.35 1129.5C1408.93 1129.57 1409.47 1129.38 1409.9 1129.25C1410.61 1130.06 1411.17 1130.81 1412.06 1131.56L1412.1 1131.6L1412.15 1131.62C1413.11 1132.11 1414.77 1132.53 1414.76 1132.74L1414.73 1132.75L1414.7 1132.85L1414.69 1132.95C1414.6 1134.87 1412.26 1138.89 1410.43 1141.64C1410.16 1142.19 1409.94 1142.62 1409.71 1142.89L1409.66 1142.94L1409.62 1143C1405.76 1149.87 1401.83 1156.61 1397.91 1163.53C1396.49 1166.45 1391.26 1170.62 1393.7 1174.95L1393.97 1175.34L1394.1 1175.51L1394.31 1175.57C1396.46 1176.11 1398.65 1176.46 1400.89 1176.61C1402.32 1176.53 1403.67 1175.81 1404.25 1176.1L1404.68 1176.26L1404.97 1175.87C1407.9 1171.92 1406.83 1169.71 1407.31 1168.28C1409.41 1161.9 1412.7 1155.74 1416.67 1149.66C1417.65 1148.4 1418.56 1147.01 1419.53 1145.76C1421.19 1143.44 1422.83 1140.4 1425.47 1138.8L1426.03 1138.48L1426.07 1138.46C1426.32 1138.96 1426.45 1139.53 1426.49 1139.96C1426.59 1141.46 1425.67 1142.99 1425.35 1144.65C1424.99 1147.35 1424.16 1150.16 1423.31 1152.66C1422.9 1153.68 1421.64 1155.19 1421.66 1156.72C1421.74 1157.24 1421.93 1157.61 1422.12 1157.94C1422.37 1158.34 1422.65 1158.69 1422.83 1158.99L1423.07 1159.58L1423.09 1159.71L1423.11 1159.72L1423.07 1159.82C1422.59 1160.96 1420.11 1163.68 1419.34 1164.84C1418.27 1166.85 1417.13 1168.87 1415.85 1170.63C1412.95 1174.38 1408.12 1177.42 1407.13 1182L1407.06 1182.34L1407.31 1182.59C1408.23 1183.39 1410.29 1183.89 1412.65 1184.19C1415 1184.43 1417.5 1184.39 1419.1 1183.44L1419.58 1183.1C1421.49 1181.17 1422.21 1178.46 1422.87 1176.58C1423.77 1174.11 1426.3 1169.57 1428.81 1167.08L1429.43 1166.5C1430.11 1167.05 1430.84 1167.98 1431.72 1168.78C1432.5 1169.53 1433.11 1170.26 1433.54 1170.96C1434.54 1172.6 1434.63 1174.04 1434.16 1175.5C1433.6 1177.51 1431.67 1179.54 1429.26 1181.51C1428.97 1181.73 1428.65 1181.96 1428.3 1182.17C1427.15 1182.88 1425.71 1183.52 1424.43 1184.3C1423.92 1184.62 1423.43 1184.96 1423 1185.35L1422.66 1186L1422.67 1186.12L1422.49 1186.94L1423.32 1186.89C1425.62 1186.71 1427.95 1185.62 1429.95 1185.62C1433.6 1185.56 1436.69 1185.43 1440.31 1185.37H1440.38L1440.45 1185.35L1441.12 1185.11L1441.14 1185.1L1441.53 1184.61C1442.69 1181.7 1442.37 1174.41 1439.86 1170.2C1439.56 1169.71 1439.21 1169.26 1438.84 1168.87C1436.99 1166.94 1434.73 1165.11 1433.44 1163.01L1432.92 1162.02C1432.96 1161.77 1433.63 1160.77 1434.38 1159.99C1435.18 1159.12 1436.11 1158.29 1436.34 1158.15L1440.84 1155.38L1440.91 1155.3C1442.42 1153.34 1441.76 1150.98 1441.9 1149.42V1149.37V1149.31L1441.62 1148.47C1441.1 1147.64 1440.15 1147.74 1440.1 1147.7L1440.04 1147.69L1439.98 1147.7C1438.64 1147.74 1437.44 1148.24 1436.37 1148.89C1435.63 1149.35 1434.93 1149.89 1434.3 1150.43C1433.59 1151.02 1433.03 1151.53 1432.48 1152.03L1426.88 1155.47L1426.85 1155.47C1426.67 1155.43 1426.22 1155.05 1426.01 1154.68L1425.87 1154.39L1425.86 1154.35C1426.54 1152 1429.18 1149.68 1430.49 1146.95C1430.7 1146.54 1431.05 1145.98 1431.32 1145.46C1432.47 1142.34 1433.24 1139.36 1434.23 1136.44C1434.63 1135.06 1436.07 1131.79 1434.72 1129.42C1434.4 1128.92 1433.95 1128.49 1433.35 1128.2C1431.75 1127.2 1429.93 1127.64 1428.44 1128.56C1426.4 1129.83 1424.71 1131.98 1423.85 1133.42C1423.65 1133.84 1423.34 1134.17 1423.16 1134.72C1420.56 1138.76 1417.31 1142.73 1414.15 1146.84C1413.06 1148.5 1411.75 1150.15 1410.83 1151.92C1410.14 1152.94 1408.04 1156.77 1407.02 1157.38H1406.99C1406.35 1155.72 1408.15 1153.13 1409.06 1151.12L1412.76 1144.03L1418.66 1132.44C1419.06 1131.96 1419.93 1131.39 1420.84 1130.84C1421.37 1130.58 1422 1130.26 1422.61 1129.88C1423.5 1129.34 1424.34 1128.69 1424.83 1127.79C1428.24 1121.98 1426.46 1114.59 1426.74 1108.56C1426.81 1106.18 1427.45 1098.35 1424.97 1094.22C1424.23 1093.01 1423.13 1092.08 1421.66 1091.88C1420.19 1091.67 1418.47 1092.15 1416.4 1093.42L1416.3 1093.48L1416.22 1093.58C1414.45 1096.04 1411.85 1105.15 1408.43 1108.97C1408.11 1107.2 1408.81 1104.94 1409.51 1102.58C1410.28 1099.89 1411.01 1096.98 1409.44 1094.39L1409.31 1094.18L1409.29 1094.14C1408.81 1093.5 1408.13 1093.38 1407.23 1093.21C1404.56 1092.81 1399.86 1093.17 1397.12 1094.44L1396.7 1094.64L1396.75 1095.1C1396.99 1096.47 1398.29 1098.02 1398.78 1099.23L1398.82 1099.78L1399.48 1105.57C1399.7 1107.48 1400.42 1109.79 1400.55 1111.88C1400.66 1113.99 1400.28 1115.7 1398.41 1116.86C1397.66 1117.33 1396.64 1117.7 1395.29 1117.94C1394.85 1118 1394.72 1118.09 1394.45 1118.12C1391.58 1118.37 1389.12 1117.09 1385.97 1117.05C1384.54 1116.85 1383.25 1117.31 1382.01 1117.31C1380.78 1117.34 1379.14 1116.85 1377.42 1117.69L1376.8 1118L1376.98 1118.3ZM1414.07 1124.66L1414.57 1124.36L1415.74 1123.92L1416.55 1124.43C1416.62 1124.93 1416.8 1125.3 1416.81 1125.5C1416.67 1125.97 1416.39 1126.34 1416 1126.59C1415.57 1126.84 1415 1126.95 1414.27 1126.72C1413.92 1125.94 1413.94 1125.51 1414.07 1124.66ZM1409.14 1113.8L1409.77 1113.82C1409.84 1110.02 1415.59 1103.5 1418.37 1100.16C1418.72 1099.86 1418.82 1099.61 1419.13 1099.43C1419.37 1099.29 1419.61 1099.21 1420.14 1099.36C1420.8 1099.63 1421.21 1100.02 1421.5 1100.48C1421.94 1101.19 1422.05 1102.2 1421.99 1103.31C1421.99 1105.31 1421.86 1107.38 1421.78 1109.28V1109.32L1421.79 1109.38C1422.32 1112.77 1423.98 1119.64 1420.84 1121.35L1420.3 1121.62C1419.22 1120.79 1418.33 1119.98 1417.42 1119.16L1417.27 1119.03L1417.1 1119.01C1416.32 1118.89 1415.62 1118.98 1415.1 1118.9C1414.53 1118.72 1413.46 1118.25 1412.46 1117.59C1411.36 1116.97 1410.53 1116.24 1410.13 1115.58L1410.01 1115.36L1409.99 1115.3L1409.94 1115.23L1409.92 1115.21C1409.76 1114.94 1409.69 1114.48 1409.76 1113.87L1409.14 1113.8ZM1396.4 1123.97C1396.89 1123.79 1397.29 1123.69 1397.61 1123.68C1398.5 1123.66 1399.23 1123.73 1400.05 1123.79C1400.09 1124.55 1399.92 1125.78 1399.62 1126.54L1400.21 1126.76L1399.6 1126.6L1399.45 1127.17C1398.41 1126.34 1397.18 1125.32 1396.61 1124.37L1396.4 1123.97Z" fill="#00468C"/>
<path d="M4232.5 832.424H4182.12L4163.15 902.179C4160.98 910.612 4158.49 921.075 4156.62 928.916H4155.37C4153.51 921.358 4150.4 910.612 4147.91 902.471L4125.21 832.424H4072.65L4128.63 962.637C4130.19 966.125 4130.5 968.165 4130.5 969.904C4130.5 971.644 4129.56 973.975 4128.01 976.297C4123.67 983.272 4110.6 999.148 4092.28 1002.54L4083.09 1040.8C4106.07 1040.96 4127.38 1032.68 4143.56 1019.32C4160.66 1005.07 4175.28 982.69 4197.04 926.011L4232.5 832.424ZM4025.6 916.422V864.971H4059.5V832.424H4025.6V815.85H3979.26V832.424H3959.05V864.971H3979.26V923.106C3979.26 943.159 3983.62 956.827 3992.33 965.251C4000.1 972.526 4012.84 977.462 4028.09 977.462C4041.15 977.462 4048.28 976.597 4054.2 974.557L4063.13 939.3C4058.78 940.183 4050.79 941.419 4044.27 941.419C4030.26 941.419 4025.6 933.561 4025.6 916.422ZM3940.02 792.893C3939.7 780.399 3930.38 770.801 3915.15 770.801C3899.9 770.801 3889.95 780.399 3889.95 792.893C3889.95 805.096 3899.59 814.985 3914.51 814.985C3930.38 814.985 3940.02 805.096 3940.02 792.893ZM3800.2 871.081C3800.2 864.105 3806.73 859.743 3818.24 859.743C3830.97 859.743 3844.36 864.397 3851.19 867.876L3859.28 837.369C3849.96 833.007 3834.4 828.936 3816.68 828.936C3779.05 828.936 3754.79 848.998 3754.79 875.725C3754.48 892.59 3766.61 908.581 3798.33 918.453C3815.75 923.98 3820.41 927.459 3820.41 935.026C3820.41 942.284 3814.5 946.646 3800.2 946.646C3786.2 946.646 3768.15 941.128 3759.46 936.183L3751.06 967.573C3762.57 973.383 3780.29 977.745 3800.2 977.745C3843.73 977.745 3865.81 958.275 3865.81 931.53C3865.51 910.903 3853.69 896.952 3824.77 887.646C3806.1 881.544 3800.2 878.048 3800.2 871.081ZM3730.71 870.525L3740.83 830.552C3737.41 829.96 3731.38 828.936 3727.02 828.936C3712.09 828.936 3693.76 837.651 3685.98 858.578H3684.73L3682.86 832.424H3642.43C3643.36 844.636 3643.67 858.286 3643.67 879.213V974.557H3690.94V902.471C3690.94 898.983 3691.26 895.495 3691.89 892.59C3694.98 878.931 3706.8 870.207 3724.23 870.207C3729.52 870.207 3726.96 869.942 3730.71 870.525ZM3615.79 917.587C3616.4 914.391 3617.33 907.698 3617.33 900.14C3617.33 864.971 3598.68 829.219 3549.54 829.219C3496.67 829.219 3472.73 869.041 3472.73 905.084C3472.73 949.551 3502.27 977.462 3553.9 977.462C3574.42 977.462 3593.38 974.557 3608.95 968.456L3602.71 938.514C3589.97 942.585 3576.9 944.615 3560.74 944.615C3538.66 944.615 3519.06 935.892 3517.82 917.587H3615.79ZM3573.49 887.354H3517.51C3518.74 875.725 3526.84 858.578 3546.73 858.578C3568.51 858.578 3573.49 876.599 3573.49 887.354ZM3411.89 974.557L3468.49 832.424H3418.73L3399.15 898.4C3395.72 910.612 3393.23 921.358 3390.74 932.995H3389.81C3387.33 921.649 3384.84 910.612 3381.1 898.4L3360.58 832.424H3309.27L3364.62 974.557H3411.89ZM3292.26 792.893C3291.94 780.399 3282.62 770.801 3267.39 770.801C3252.14 770.801 3242.19 780.399 3242.19 792.893C3242.19 805.096 3251.83 814.985 3266.75 814.985C3282.62 814.985 3292.26 805.096 3292.26 792.893ZM3162.33 974.557H3209.6V890.559C3209.6 848.697 3186.27 829.219 3155.16 829.219C3129.67 829.219 3114.43 842.887 3108.21 852.185H3107.28L3105.1 832.424H3064.06C3064.67 845.21 3065.28 860.035 3065.28 877.765V974.557H3112.56V892.59C3112.56 888.52 3112.87 884.449 3114.12 881.544C3117.54 873.403 3125.32 864.971 3138.38 864.971C3155.48 864.971 3162.33 877.474 3162.33 895.778V974.557ZM3030.28 888.52V778.642H2983.01V891.133C2983.01 926.011 2969.32 942.284 2944.45 942.284C2920.5 942.284 2906.5 925.146 2906.5 891.133V778.642H2859.23V887.937C2859.23 950.143 2890.02 977.745 2942.89 977.745C2997.63 977.745 3030.28 948.977 3030.28 888.52ZM2711.02 974.557H2758.27V890.559C2758.27 848.697 2734.95 829.219 2703.86 829.219C2678.36 829.219 2663.13 842.887 2656.91 852.185H2655.98L2653.79 832.424H2612.74C2613.36 845.21 2613.99 860.035 2613.99 877.765V974.557H2661.26V892.59C2661.26 888.52 2661.56 884.449 2662.82 881.544C2666.23 873.403 2674 864.971 2687.07 864.971C2704.18 864.971 2711.02 877.474 2711.02 895.778V974.557ZM2581.21 792.893C2580.9 780.399 2571.57 770.801 2556.33 770.801C2541.09 770.801 2531.13 780.399 2531.13 792.893C2531.13 805.096 2540.78 814.985 2555.7 814.985C2571.57 814.985 2581.21 805.096 2581.21 792.893ZM2499.91 792.893C2499.61 780.399 2490.28 770.801 2475.04 770.801C2459.8 770.801 2449.86 780.399 2449.86 792.893C2449.86 805.096 2459.49 814.985 2474.41 814.985C2490.28 814.985 2499.91 805.096 2499.91 792.893ZM2451.4 946.938C2451.4 967.75 2450.04 979.334 2446.58 986.689C2441.62 995.59 2430.65 1000.41 2419.15 1002.54L2409.96 1040.8C2421.64 1040.89 2458.1 1036.09 2477.21 1019.6C2491.45 1007.32 2498.67 988.508 2498.67 957.692V832.424H2451.4V946.938ZM2366.88 974.557H2414.14V890.559C2414.14 848.697 2390.83 829.219 2359.72 829.219C2334.22 829.219 2318.99 842.887 2312.76 852.185H2311.82L2309.66 832.424H2268.6C2269.23 845.21 2269.85 860.035 2269.85 877.765V974.557H2317.12V892.59C2317.12 888.52 2317.43 884.449 2318.67 881.544C2322.09 873.403 2329.87 864.971 2342.92 864.971C2360.04 864.971 2366.88 877.474 2366.88 895.778V974.557ZM2196.21 974.557H2238.81C2236.94 966.708 2236.31 953.622 2236.31 940.254V890.559C2236.31 856.838 2220.46 828.936 2169.77 828.936C2142.09 828.936 2121.26 836.194 2110.68 841.722L2119.38 870.207C2129.34 864.397 2145.83 859.452 2161.37 859.452C2184.69 859.452 2189.05 870.207 2189.05 878.048V879.796C2135.25 879.796 2099.8 897.235 2099.8 934.152C2099.8 956.827 2118.15 977.745 2148.94 977.745C2166.96 977.745 2182.52 971.644 2192.48 960.306H2193.41L2196.21 974.557ZM2190.6 922.815C2190.6 925.428 2190.3 928.051 2189.67 930.373C2186.56 939.379 2176.61 946.646 2165.1 946.646C2154.53 946.646 2146.44 941.128 2146.44 929.79C2146.44 912.943 2165.72 907.407 2190.6 907.407V922.815ZM2077 792.893C2076.7 780.399 2067.36 770.801 2052.12 770.801C2036.89 770.801 2026.93 780.399 2026.93 792.893C2026.93 805.096 2036.57 814.985 2051.51 814.985C2067.36 814.985 2077 805.096 2077 792.893ZM1950.37 815.85H2007.58V778.642H1846.5V815.85H1903.09V974.557H1950.37V815.85ZM2075.44 832.424H2028.17V974.557H2075.44V832.424ZM2579.65 832.424H2532.38V974.557H2579.65V832.424ZM3290.7 832.424H3243.43V974.557H3290.7V832.424ZM3938.46 832.424H3891.19V974.557H3938.46V832.424Z" fill="#00468C"/>
</svg>
