<svg width="1646" height="4047" viewBox="0 0 1646 4047" fill="none" xmlns="http://www.w3.org/2000/svg">
<rect width="1646" height="4046.4" fill="white"/>
<path d="M1234.5 748.699C1234.5 521.43 1050.26 337.199 823 337.199C595.728 337.199 411.5 521.43 411.5 748.699C411.5 975.969 595.728 1160.2 823 1160.2C1050.26 1160.2 1234.5 975.969 1234.5 748.699ZM1197.87 665.248L1217.36 687.187L1205.24 711.998L1221.89 736.136L1206.81 759.247L1220.33 785.281L1202.57 806.339L1212.78 833.821L1192.53 852.58L1199.36 881.114L1176.96 897.233L1180.2 926.366L1155.95 939.591L1155.6 968.958L1129.95 979.096L1125.97 1008.17L1099.28 1015.11L1091.75 1043.43L1064.42 1047.03L1053.5 1074.26L1025.92 1074.46L1011.72 1100.14L984.32 1096.95L967.068 1120.63L940.272 1114.1L920.239 1135.54L894.444 1125.76L871.912 1144.56L847.516 1131.68L822.901 1147.59L800.245 1131.82L773.876 1144.53L753.325 1126.11L725.56 1135.49L707.453 1114.68L678.738 1120.55L663.324 1097.71L634.113 1100.04L621.637 1075.43L592.326 1074.13L582.993 1048.18L554.092 1043.29L548.004 1016.39L519.892 1008.02L517.144 980.562L490.285 968.787L490.936 941.19L465.707 926.176L469.749 898.873L446.57 880.928L453.955 854.321L433.17 833.612L443.749 808.158L425.653 785.073L439.276 761.062L424.122 735.931L440.588 713.768L428.671 686.986L447.732 667.022L439.206 638.942L460.562 621.525L455.519 592.597L478.877 577.921L477.477 548.595L502.421 536.917L504.61 507.65L530.804 499.063L536.588 470.339L563.677 465.047L572.897 437.216L600.435 435.319L612.991 408.842L640.537 410.334L656.294 385.605L683.437 390.447L702.125 367.857L728.465 375.99L749.806 355.832L774.888 367.217L798.513 349.818L822.112 364.193L847.688 349.83L869.285 366.994L896.399 355.873L915.766 375.548L944.069 367.92L960.841 389.781L989.893 385.69L1003.87 409.448L1033.18 408.954L1044.1 434.259L1073.27 437.354L1081 463.849L1109.55 470.484L1113.99 497.69L1141.51 507.81L1142.56 535.366L1168.64 548.777L1166.28 576.281L1190.57 592.79L1184.82 619.795L1206.84 639.146L1197.87 665.248ZM1206.07 688.735L1187.12 667.405L1195.83 642.066L1174.41 623.247L1179.98 597.041L1156.37 580.997L1158.66 554.296L1133.31 541.257L1132.29 514.508L1105.54 504.667L1101.23 478.272L1073.46 471.819L1065.96 446.094L1037.6 443.089L1027 418.527L998.506 419.007L984.941 395.948L956.687 399.924L940.414 378.706L912.894 386.122L894.108 367.042L867.743 377.858L846.782 361.199L821.918 375.157L799.014 361.21L776.036 378.129L751.684 367.083L730.946 386.665L705.385 378.769L687.209 400.738L660.869 396.033L645.547 420.089L618.823 418.635L606.611 444.383L579.884 446.228L570.923 473.277L544.62 478.417L538.996 506.341L513.581 514.672L511.451 543.143L487.234 554.482L488.593 582.994L465.937 597.231L470.838 625.356L450.111 642.267L458.395 669.558L439.901 688.935L451.485 714.973L435.505 736.482L450.239 760.917L437.018 784.229L454.613 806.682L444.348 831.388L464.556 851.513L457.394 877.332L479.926 894.775L476.001 921.285L500.532 935.883L499.9 962.665L526.013 974.109L528.68 1000.75L556.01 1008.89L561.927 1035.01L590.035 1039.77L599.09 1064.96L627.579 1066.22L639.685 1090.1L668.079 1087.83L683.046 1110.01L710.965 1104.29L728.542 1124.49L755.528 1115.38L775.477 1133.25L801.115 1120.89L823.095 1136.2L847.038 1120.72L870.721 1133.22L892.628 1114.95L917.656 1124.44L937.136 1103.59L963.147 1109.93L979.92 1086.91L1006.5 1090L1020.31 1065.03L1047.08 1064.84L1057.7 1038.37L1084.23 1034.87L1091.55 1007.34L1117.46 1000.6L1121.33 972.327L1146.21 962.494L1146.55 933.93L1170.09 921.095L1166.93 892.781L1188.68 877.142L1182.04 849.4L1201.7 831.18L1191.77 804.461L1209 784.02L1195.86 758.704L1210.48 736.281L1194.3 712.816L1206.07 688.735ZM1183.05 748.621C1183.05 947.513 1022.06 1108.75 823.486 1108.75C624.904 1108.75 463.92 947.513 463.92 748.621C463.92 549.722 624.904 388.487 823.486 388.487C1022.06 388.487 1183.05 549.722 1183.05 748.621ZM1080.72 919.73C1090.9 926.157 1099.84 928.266 1106.02 928.723C1107.48 926.44 1108.9 924.138 1110.31 921.824C1103.54 920.831 1094.93 917.964 1085.55 912.05C1075.2 905.523 1068.45 898.107 1064.83 892.037L1064.67 892.305C1063.35 894.511 1062.01 896.705 1060.64 898.877C1063.5 904.452 1069.39 912.515 1080.72 919.73ZM1090.94 890.498L1112.88 917.48C1114.83 914.133 1116.72 910.752 1118.56 907.338L1119.2 906.07L1109.77 897.218C1106.89 894.596 1104.6 892.417 1101.99 890.152L1102.06 890.033C1105.63 890.743 1108.46 891.29 1112.44 891.907L1125.2 894.172L1126.43 891.74C1127.94 888.545 1129.39 885.324 1130.81 882.074L1095.72 879.742L1076.58 870.09C1074.89 873.627 1073.11 877.123 1071.28 880.575L1090.94 890.498ZM1122.26 871.403L1133.63 875.379C1134.52 873.2 1135.38 871.009 1136.22 868.811L1142.82 849.936C1143.56 847.574 1144.29 845.198 1144.99 842.817L1133.63 838.849L1129.93 849.456L1090.37 835.632C1089.15 839.388 1087.85 843.111 1086.48 846.797L1126.03 860.617L1122.26 871.403ZM1094.56 821.469L1147.23 834.475L1150.07 823.005L1097.36 809.992C1096.51 813.845 1095.57 817.668 1094.56 821.469ZM1149.99 810.821C1151.99 808.158 1153.71 804.651 1154.47 799.422C1156.08 788.439 1150.6 781.722 1141.21 780.294C1133.33 779.093 1127.66 783.18 1123.43 790.064C1120.66 794.665 1118.89 796.376 1116.29 795.978C1113.6 795.565 1112.23 793.378 1112.81 789.372C1113.44 785.043 1115.73 780.967 1117.77 778.572L1106.35 774.589C1104.41 776.798 1101.94 781.64 1101.17 786.873C1099.32 799.593 1106.34 806.678 1115.49 808.073C1122.9 809.203 1128.54 806.432 1133.15 799.139C1136.47 794.033 1137.91 791.879 1140.59 792.285C1142.95 792.642 1144.25 794.821 1143.73 798.377C1143.09 802.769 1141.12 805.77 1139.82 807.489L1149.99 810.821ZM1154.29 767.258C1156.35 765.123 1158.17 763.375 1158.22 758.793C1158.27 754.877 1158.33 754.542 1158.36 752.411C1158.4 748.599 1158.37 744.798 1158.28 741.012C1158.17 739.974 1158.03 739.029 1157.88 738.185L1103.85 737.278C1104 741.164 1104.07 745.062 1104.07 748.978L1124.05 749.313L1124.03 751.206C1123.96 754.862 1122.55 756.472 1115.92 757.54C1109.84 758.603 1105.81 759.541 1103.83 760.177C1103.67 764.294 1103.41 768.385 1103.08 772.454C1105.3 771.639 1113.22 770.349 1118.82 769.084C1123.58 768.05 1127.11 766.544 1128.71 763.628L1129.04 763.636C1130.53 767.12 1135.36 771.319 1142.22 771.431C1147.6 771.52 1151.55 770.021 1154.29 767.258ZM1147.91 753.698C1147.75 757.614 1145.43 759.73 1141.27 759.656C1137.19 759.593 1134.45 756.997 1134.53 752.556L1134.59 749.484L1147.65 749.707C1147.8 750.295 1147.94 751.477 1147.91 753.698ZM1145.98 726.901L1157.6 725.584C1157.36 722.062 1157.06 718.563 1156.71 715.081L1155.6 705.344C1155.26 702.603 1154.86 699.87 1154.45 697.147L1100.42 703.299C1101.98 712.924 1103.06 722.713 1103.62 732.64L1115.34 731.308L1113.34 713.724L1123.4 712.582L1125.18 728.281L1137.03 726.938L1135.25 711.236L1144.08 710.224L1145.98 726.901ZM1097.73 689.017L1153.26 689.958C1152.53 685.878 1151.73 681.817 1150.87 677.789L1128.5 678.347C1122.48 678.473 1115.99 678.778 1109.15 679.306L1109.12 679.184C1115.77 676.48 1121.36 673.906 1126.97 671.057L1146.89 661.421L1146.67 660.506C1145.62 656.682 1144.51 652.885 1143.35 649.11L1094.35 675.133C1095.58 679.719 1096.71 684.346 1097.73 689.017ZM1090.32 661.599L1141.61 643.71C1140.37 639.957 1139.08 636.234 1137.72 632.545L1086.41 650.438C1087.79 654.127 1089.09 657.843 1090.32 661.599ZM1084.63 645.796L1133.82 622.522C1132.48 619.197 1131.07 615.89 1129.61 612.617L1117.85 618.166C1110.38 621.692 1103.56 625.211 1097.28 628.904L1097.19 628.729C1102.18 624.199 1107.73 618.758 1111.65 614.235L1124 600.634C1121.95 596.476 1119.81 592.355 1117.6 588.294L1068.41 611.565C1070.16 614.7 1071.85 617.873 1073.5 621.086L1085.1 615.589C1093.14 611.784 1100.62 608.11 1107.22 604.692L1107.31 604.87C1102.14 609.62 1096.73 615.362 1092.49 620.119L1079.7 634.055C1081.42 637.923 1083.08 641.835 1084.63 645.796ZM1087.91 594.356L1111.91 578.285C1109.93 574.923 1107.88 571.606 1105.78 568.325L1105.71 568.214L1079.76 585.515C1072.5 590.362 1067.63 590.86 1065.02 586.947C1062.44 583.091 1065.12 578.561 1072.04 573.941L1097.97 556.647C1095.72 553.415 1093.4 550.228 1091.02 547.078L1067.41 562.888C1052.68 572.718 1049.33 582.562 1056.03 592.615C1062.89 602.88 1073.78 603.777 1087.91 594.356ZM1060.38 531.301L1069.85 525.078C1069.21 522.486 1066.93 518.388 1062.71 514.2C1052.56 504.121 1038.12 502.544 1024.62 516.067C1019.04 521.687 1016.13 527.332 1015.6 533.707C1015.1 539.873 1017.37 545.928 1023.54 552.043C1027.62 556.093 1033.24 559.143 1036.53 560.456L1057.13 540.045L1044.89 527.898L1036.84 536.017L1041.01 540.149L1034.34 546.877C1033.8 546.683 1032.52 545.753 1031.4 544.645C1026.25 539.535 1026.7 531.583 1033.94 524.283C1041.82 516.342 1049.42 517.209 1054.57 522.315C1058.14 525.859 1059.54 528.627 1060.38 531.301ZM1003.32 533.086L1035.32 489.08C1032.54 486.8 1029.73 484.565 1026.87 482.382L1019.3 492.792C1014.45 499.461 1010.14 505.817 1006.4 512.084L1006.25 511.965C1008.45 505.597 1010.71 498.155 1011.97 492.312L1016.25 474.568C1012.46 471.886 1008.61 469.29 1004.71 466.769L972.703 510.771C975.754 512.694 978.755 514.672 981.722 516.703L989.337 506.23C994.57 499.037 999.361 492.223 1003.52 486.064L1003.67 486.176C1001.43 492.818 999.43 500.457 997.983 506.665L993.415 525.164C996.781 527.73 1000.08 530.371 1003.32 533.086ZM970.847 509.108L984.437 454.667C979.807 452.119 975.111 449.672 970.35 447.343L933.95 489.913C937.743 491.542 941.485 493.242 945.19 495.027L952.839 485.406L962.921 490.642L959.723 502.57C963.484 504.671 967.196 506.847 970.847 509.108ZM972.356 459.855C971.435 463.053 970.116 467.427 969.268 470.484L966.517 480.188L959.267 476.42L965.46 468.602C967.47 466.148 970.16 462.391 972.239 459.795L972.356 459.855ZM934.666 466.914L959.369 442.211C955.389 440.437 951.373 438.741 947.317 437.116L939.42 447.496C937.104 450.627 935.178 453.13 933.19 455.957L933.066 455.912C933.398 452.279 933.661 449.404 933.87 445.376L934.812 432.455L933.373 431.905C929.675 430.618 925.958 429.394 922.202 428.234L923.484 463.258L915.832 483.323C919.538 484.614 923.21 485.986 926.839 487.436L934.666 466.914ZM902.586 479.053L916.921 426.65C913.143 425.549 909.342 424.522 905.513 423.544L891.177 475.955C895.01 476.907 898.818 477.945 902.586 479.053ZM893.165 432.697L895.2 421.112C892.621 420.547 890.026 420.011 887.424 419.505L875.771 417.452C872.862 416.991 869.95 416.571 867.023 416.188L857.591 469.737C867.447 470.945 877.148 472.66 886.66 474.866L888.689 463.332L871.262 460.264L873.016 450.289L888.583 453.034L890.647 441.292L875.087 438.555L876.63 429.792L893.165 432.697ZM853.389 445.283C856.301 442.345 858.077 437.536 858.384 431.987C858.691 426.371 856.941 421.361 854.098 418.423C851.192 415.321 847.206 414.116 840.88 413.77C834.164 413.398 829.073 413.194 825.839 413.666L822.847 467.621H823C826.866 467.621 830.718 467.706 834.547 467.862L835.545 449.854C836.254 449.977 837.292 450.114 838.403 450.181C844.337 450.508 849.585 449.08 853.389 445.283ZM846.753 431.674C846.497 436.398 843.46 439.176 838.827 438.923C837.591 438.849 836.813 438.722 836.17 438.611L836.945 424.589C837.54 424.455 838.717 424.362 840.478 424.455C844.914 424.705 846.983 427.594 846.753 431.674ZM819.32 467.55C815.856 461.324 812.713 451.933 812.202 439.697C811.73 428.554 813.568 419.736 816.061 413.395C813.324 413.45 810.605 413.54 807.886 413.655C805.244 419.263 802.752 428.089 803.201 440.072C803.764 453.48 807.868 462.681 811.288 467.866C812.278 467.829 813.28 467.788 814.281 467.758L819.32 467.55ZM774.41 449.471L782.686 415.697C778.839 416.162 775.005 416.686 771.172 417.281L769.78 417.534L768.406 430.402C768.048 434.285 767.693 437.421 767.463 440.861L767.331 440.887C765.734 437.61 764.466 435.018 762.555 431.466L756.665 419.933L753.982 420.42C750.522 421.145 747.072 421.923 743.634 422.756L762.943 452.141L766.794 473.236C770.642 472.452 774.497 471.753 778.364 471.139L774.41 449.471ZM742.252 479.399L729.404 439.514L740.283 436.011L736.596 424.552C734.319 425.155 732.053 425.791 729.791 426.441L710.753 432.571C708.425 433.4 706.097 434.259 703.773 435.137L707.46 446.585L718.153 443.141L731.001 483.033C734.732 481.735 738.478 480.53 742.252 479.399ZM717.181 488.236L695.763 438.38L684.903 443.044L706.328 492.93C709.923 491.286 713.537 489.716 717.181 488.236ZM669.091 462.949C672.979 460.811 676.56 460.573 678.716 460.573L675.245 450.453C671.908 450.467 668.079 451.208 663.445 453.763C653.721 459.104 651.671 467.531 656.188 475.873C659.985 482.884 666.672 484.937 674.715 484.156C680.05 483.591 682.484 483.978 683.737 486.287C685.027 488.679 684.106 491.092 680.565 493.041C676.732 495.146 672.102 495.786 668.959 495.604L672.676 507.122C675.61 507.323 680.96 506.382 685.593 503.834C696.863 497.631 698.27 487.76 693.867 479.626C690.296 473.039 684.68 470.209 676.089 470.934C670.012 471.366 667.421 471.518 666.124 469.134C664.987 467.033 665.945 464.682 669.091 462.949ZM650.253 495.637C652.132 492.338 652.563 485.956 648.514 480.418C645.338 476.067 641.761 473.828 637.906 473.311C634.96 472.954 632.472 472.552 628.781 475.282C625.635 477.61 625.328 477.755 623.614 479.024C620.544 481.289 617.53 483.609 614.562 485.956C613.802 486.685 613.13 487.362 612.556 487.991L644.439 531.624C647.436 529.158 650.509 526.752 653.633 524.387L641.841 508.249L643.369 507.133C646.318 504.976 648.455 505.132 653.305 509.781C657.821 513.977 661.011 516.632 662.703 517.815C666.083 515.468 669.5 513.199 672.946 511.016C670.951 509.737 665.148 504.191 660.756 500.495C657.072 497.322 653.732 495.41 650.447 495.898L650.253 495.637ZM638.103 497.936L635.625 499.747L627.915 489.203C628.299 488.723 629.146 487.894 630.941 486.588C634.156 484.338 637.244 484.915 639.7 488.277C642.108 491.572 641.688 495.31 638.103 497.936ZM598.579 515.859L610.736 504.284L602.679 495.823C600.018 498.137 597.398 500.48 594.833 502.86L587.737 509.621C585.763 511.552 583.816 513.512 581.901 515.487L619.397 554.862C626.132 547.803 633.294 541.038 640.873 534.603L632.735 526.06L619.923 538.263L612.936 530.936L624.385 520.035L616.167 511.407L604.718 522.308L598.579 515.859ZM609.644 565.629L576.894 520.775C574.07 523.818 571.314 526.901 568.621 530.025L582.566 547.524C586.297 552.247 590.452 557.231 595.005 562.371L594.921 562.475C588.752 558.8 583.326 555.896 577.669 553.14L557.969 543.072L557.377 543.801C554.954 546.94 552.59 550.12 550.292 553.326L600.607 576.701C603.516 572.945 606.527 569.255 609.644 565.629ZM592.246 588.078L547.025 557.967C544.781 561.214 542.596 564.495 540.48 567.808L585.708 597.923C587.81 594.605 589.988 591.317 592.246 588.078ZM583.077 602.14L534.827 576.958C532.996 580.041 531.209 583.161 529.473 586.297L541.002 592.337C548.318 596.156 555.236 599.477 561.978 602.256L561.89 602.43C555.269 601.181 547.569 600.039 541.605 599.648L523.305 598.001C521.222 602.148 519.231 606.332 517.327 610.553L565.57 635.743C567.006 632.448 568.519 629.183 570.09 625.939L558.704 620C550.814 615.879 543.374 612.141 536.669 608.935L536.756 608.76C543.659 610.006 551.501 610.858 557.863 611.379L576.686 613.168C578.729 609.452 580.859 605.778 583.077 602.14ZM540.074 630.57L512.774 621.127C511.297 624.731 509.883 628.372 508.531 632.024L508.487 632.147L537.937 642.401C546.184 645.268 549.528 648.85 547.982 653.294C546.455 657.675 541.233 658.274 533.369 655.537L503.934 645.294C502.724 649.051 501.573 652.822 500.495 656.615L527.347 665.906C544.079 671.723 553.949 668.45 557.922 657.039C561.974 645.38 556.113 636.149 540.074 630.57ZM548.559 687.727L494.776 679.477C494.038 682.981 493.355 686.51 492.73 690.062L505.52 692.026C513.676 693.279 521.299 694.183 528.578 694.641L528.545 694.834C521.88 695.79 514.228 697.196 508.458 698.754L490.698 703.094C490.077 707.676 489.547 712.288 489.112 716.926L542.903 725.186C543.199 721.586 543.56 718.008 543.995 714.449L531.205 712.485C522.41 711.135 514.158 710.001 506.777 709.131L506.806 708.937C513.742 707.888 521.434 706.166 527.624 704.601L546.1 700.193C546.827 696.006 547.646 691.851 548.559 687.727ZM542.453 731.375L488.184 729.159C487.958 733.079 487.8 737.013 487.713 740.963L541.982 743.187C542.059 739.23 542.212 735.295 542.453 731.375ZM520.681 749.834L487.632 751.124C487.662 755.078 487.757 759.02 487.921 762.94L521.123 761.642C528.553 761.356 530.727 763.755 530.866 767.541C530.939 769.434 530.606 771.271 530.179 772.729L541.814 773.581C542.61 771.331 542.895 768.113 542.8 765.7C542.406 755.13 536.343 749.22 520.681 749.834ZM543.191 775.537L489.503 784.415C489.88 788 490.315 791.574 490.808 795.122L503.55 793.014C511.688 791.671 519.212 790.157 526.28 788.335L526.309 788.524C520.265 791.507 513.431 795.219 508.432 798.496L492.898 808.151L493.128 809.549C493.881 813.659 494.711 817.742 495.61 821.8L549.298 812.922C548.483 809.434 547.73 805.912 547.047 802.371L534.326 804.476C525.545 805.927 517.352 807.414 510.066 808.887L510.033 808.69C516.296 805.54 523.079 801.504 528.472 798.094L544.671 788.153C544.087 783.976 543.593 779.769 543.191 775.537ZM550.178 816.578L502.026 846.239C503.558 851.282 505.198 856.273 506.963 861.209L563.165 856.076C561.594 852.279 560.103 848.437 558.696 844.554L546.539 846.087L542.99 835.29L553.569 829.03C552.345 824.917 551.212 820.766 550.178 816.578ZM535.656 848.013L525.753 849.27C522.6 849.616 518.061 850.423 514.754 850.821L514.71 850.698C517.608 849.054 521.609 846.849 524.357 845.265L533.106 840.255L535.656 848.013ZM564.357 858.922L514.86 881.304C516.417 884.922 518.047 888.515 519.724 892.074L569.228 869.696C567.536 866.14 565.913 862.551 564.357 858.922ZM533.281 892.521L522.812 898.419C527.968 908.74 533.643 918.749 539.8 928.433L550.226 922.557L544.708 912.772L581.243 892.156C579.23 888.768 577.289 885.343 575.414 881.873L538.894 902.473L533.281 892.521ZM608.606 984.199C606.274 985.873 611.719 993.642 616.916 996.432C620.285 998.243 625.097 997.499 628.697 996.993C633.67 996.294 638.856 995.532 643.142 992.716C646.694 990.38 650.023 987.625 653.279 984.906C654.847 983.593 656.407 982.287 657.934 980.934C661.644 977.664 666.65 973.707 666.65 973.707C666.65 973.707 658.899 989.06 655.925 996.446C652.95 1003.83 651.934 1014.73 654.269 1017.97C656.604 1021.2 663.357 1021.02 664.611 1021.46C665.86 1021.9 672.445 1024.07 675.866 1025.27C679.29 1026.46 680.244 1023.87 678.764 1022.81C677.291 1021.74 676.852 1021.38 673.918 1019.41C670.98 1017.45 667.037 1014.21 666.814 1013.58C666.588 1012.97 666.65 1009.49 666.803 1006.98C666.957 1004.47 667.22 991.623 667.867 987.61C668.517 983.597 671.415 973.8 671.415 973.8C671.415 973.8 675.833 973.603 682.385 974.734C688.948 975.857 690.373 974.83 691.268 974.094C692.164 973.365 693.114 972.383 690.472 971.68C687.819 970.97 683.507 967.292 683.149 967.002C682.805 966.711 682.155 965.889 680.865 965.856C679.568 965.823 678.698 964.532 678.698 964.532C678.698 964.532 678.391 963.68 679.111 962.806C679.831 961.929 679.527 958.894 679.527 958.894C680.795 961.107 687.976 962.01 691.013 961.713C694.046 961.412 699.914 961.229 702.29 960.835C704.665 960.441 705.564 962.207 708.937 960.419C711.1 959.28 709.583 960.303 711.699 958.935C713.815 957.562 713.358 956.908 712.693 955.651C712.028 954.397 709.868 953.757 708.052 952.694C706.243 951.626 703.865 950.388 702.798 949.796C701.727 949.205 702.235 949.618 699.085 949.149C695.928 948.688 692.043 947.055 688.126 945.966C684.216 944.88 682.568 943.954 681.724 943.254C680.883 942.566 680.412 941.756 678.237 942.514C676.812 943.013 676.86 944.515 677.042 945.757C677.258 947.275 677.112 948.223 677.021 949.737C676.94 950.983 677.839 951.998 677.598 953.296C677.598 953.296 676.82 952.519 675.482 951.563C674.148 950.607 673.026 952.66 672.197 953.676C671.367 954.684 668.886 957.886 667.805 958.689C666.719 959.492 665.627 960.999 664.516 962.353C663.408 963.699 659.681 966.819 659.681 966.819C657.368 967.128 640.694 964.744 637.829 964.301C634.96 963.859 632.819 958.432 632.819 958.432C629.501 959.664 627.937 965.997 628.112 969.136C628.215 971.007 628.755 973.194 629.603 974.871C631.01 977.635 635.673 979.271 640.442 978.468C645.199 977.679 652.442 975.109 652.442 975.109C649.413 979.524 646.833 981.949 635.973 987.863C625.112 993.772 620.373 989.886 617.168 988.428C613.963 986.97 610.038 983.165 608.606 984.199ZM673.301 968.705C674.083 967.228 676.122 966.451 676.122 966.451L676.816 966.15C678.811 966.659 678.519 969.226 677.993 969.017C677.583 968.861 673.301 968.705 673.301 968.705ZM675.866 835.338C722.41 918.116 796.255 955.554 814.716 964.208L823 967.489L831.284 964.208C849.745 955.554 923.587 918.116 970.153 835.338C990.569 798.778 998.312 759.652 999.31 723.397L999.332 722.642H999.346L999.788 706.624C999.788 706.624 979.409 700.368 973.328 696.311C964.021 690.111 961.448 682.784 965.965 673.311C970.273 664.262 994.808 656.653 994.808 656.653L990.7 638.019C990.43 636.814 990.156 635.613 989.878 634.419H989.871C979.77 590.641 965.53 560.991 965.026 559.924L956.76 542.719L939.64 548.762C929.156 552.485 918.796 553.999 908.783 553.999C870.673 554.337 836.813 523.189 835.289 521.809L823 512.359L810.693 521.809H810.714C809.187 523.189 775.331 554.337 737.22 553.999C727.201 553.999 716.859 552.485 706.349 548.762L689.24 542.719L680.967 559.924C680.456 561.013 665.44 592.273 655.303 638.019L651.2 656.653C651.2 656.653 675.727 664.262 680.043 673.311C684.556 682.784 681.983 690.111 672.683 696.311C666.599 700.368 646.219 706.624 646.219 706.624L646.679 723.397C647.695 759.652 655.431 798.778 675.866 835.338ZM685.926 828.811C666.756 794.494 659.396 757.648 658.424 723.014L658.22 715.569L664.768 713.136C674.4 709.577 682.231 704.247 687.34 698.408C692.493 692.532 694.879 686.51 694.882 680.578C694.882 680.229 694.879 679.887 694.853 679.578C694.597 674.538 692.69 669.726 688.889 664.991C685.093 660.305 679.367 655.905 672.168 652.591L664.929 649.229L666.748 640.935C676.535 596.684 691.181 566.231 691.4 565.748L695.087 558.09L702.688 560.79C714.484 564.974 726.093 566.644 737.253 566.644H737.52C779.036 566.644 813.737 535.016 817.263 532.312L817.533 532.108L823 527.939L828.463 532.108L828.763 532.312C832.267 535.02 867.121 566.793 908.769 566.644C919.907 566.644 931.509 564.974 943.323 560.79L950.913 558.09L954.6 565.748C954.816 566.205 968.07 593.768 977.783 634.531C978.002 635.423 978.21 636.32 978.422 637.224C978.502 637.577 978.583 637.934 978.667 638.287C978.784 638.819 978.901 639.347 979.021 639.883C979.105 640.232 979.182 640.582 979.255 640.935L980.103 644.792L981.071 649.229L973.832 652.591C966.637 655.905 960.915 660.305 957.122 664.991C953.317 669.726 951.41 674.538 951.158 679.578C951.136 679.887 951.121 680.229 951.121 680.578C951.136 686.51 953.515 692.532 958.664 698.408C963.776 704.247 971.611 709.577 981.239 713.136L987.784 715.569L987.627 721.672L987.583 723.014C986.597 757.648 979.255 794.494 960.063 828.811C915.803 907.833 843.968 944.556 826.683 952.571L823 953.772L819.32 952.571C802.039 944.556 730.204 907.833 685.926 828.811ZM667.823 722.706C668.762 756.045 675.807 791.046 693.987 823.6C736.438 899.624 806.677 935.768 823.007 943.262C823.007 943.262 899.326 917.927 951.976 823.6C970.174 791.046 977.216 756.045 978.177 722.706C955.853 714.457 940.827 697.683 941.737 679.05C942.45 663.864 953.591 650.918 970.09 643.297C960.586 600.232 946.228 570.408 946.228 570.408C882.023 593.129 823.007 540.342 823.007 540.342C823.007 540.342 763.929 593.129 699.754 570.408C699.754 570.408 685.396 600.232 675.895 643.297C692.372 650.918 703.521 663.864 704.241 679.05C705.096 697.683 690.088 714.457 667.823 722.706ZM840.193 639.909C840.193 646.622 839.422 652.725 838.395 658.642C837.946 661.22 835.702 663.039 833.177 663.039L832.253 662.957C829.366 662.455 827.429 659.706 827.933 656.82C828.905 651.226 829.574 645.815 829.574 639.909C829.567 631.079 828.098 621.034 823.585 607.611C822.649 604.829 824.147 601.817 826.917 600.883C829.695 599.946 832.709 601.441 833.645 604.223C838.457 618.486 840.197 629.845 840.193 639.909ZM857.489 639.161C857.489 645.049 856.867 650.475 855.99 655.89C855.113 661.309 853.992 666.721 852.939 672.72C851.178 682.814 849.57 694.871 849.57 712.024C849.57 729.222 851.2 751.526 856.034 781.789C856.495 784.686 854.525 787.409 851.627 787.874L850.794 787.941C848.229 787.941 845.967 786.073 845.554 783.466C840.654 752.772 838.954 729.902 838.954 712.024C838.954 694.217 840.654 681.344 842.488 670.89C843.577 664.694 844.684 659.297 845.51 654.198C846.34 649.092 846.873 644.294 846.873 639.161C846.866 630.652 845.408 621.075 840.88 607.611C839.945 604.829 841.443 601.817 844.22 600.883C846.997 599.946 850.005 601.441 850.948 604.223C855.746 618.449 857.496 629.365 857.489 639.161ZM874.792 639.909C874.792 646.622 874.02 652.725 872.994 658.642C872.537 661.22 870.297 663.039 867.768 663.039L866.847 662.957C863.964 662.455 862.027 659.706 862.528 656.82C863.504 651.226 864.172 645.815 864.172 639.909C864.165 631.079 862.7 621.034 858.179 607.611C857.244 604.829 858.746 601.817 861.519 600.883C864.297 599.946 867.304 601.441 868.239 604.223C873.052 618.486 874.799 629.845 874.792 639.909ZM905.845 788.186C902.915 788.186 900.536 785.806 900.536 782.882V717.543H883.814C880.814 717.543 878.373 715.171 878.373 712.236C878.373 709.305 880.814 706.929 883.814 706.929H900.536V686.298H883.814C880.814 686.298 878.373 683.918 878.373 680.984C878.373 678.053 880.814 675.68 883.814 675.68H900.536V654.942H883.814C880.814 654.942 878.373 652.565 878.373 649.635C878.373 646.704 880.814 644.324 883.814 644.324H890.395C890.516 642.609 890.596 640.88 890.596 639.109C890.592 630.789 889.142 621.35 884.603 607.749C883.668 604.948 885.162 601.91 887.939 600.969C890.724 600.024 893.731 601.527 894.663 604.331C899.454 618.665 901.215 629.458 901.215 639.109C901.215 640.891 901.142 642.62 901.033 644.324H910.325C910.216 642.62 910.15 640.891 910.15 639.109C910.143 629.458 911.9 618.665 916.691 604.331C917.63 601.527 920.645 600.024 923.418 600.969C926.196 601.91 927.694 604.948 926.755 607.749C922.224 621.35 920.769 630.789 920.769 639.109C920.769 640.88 920.839 642.609 920.963 644.324H927.551C930.552 644.324 932.985 646.704 932.985 649.635C932.985 652.565 930.552 654.942 927.551 654.942H911.151V675.68H927.551C930.552 675.68 932.985 678.053 932.985 680.984C932.985 683.918 930.552 686.298 927.551 686.298H911.151V706.929H927.551C930.552 706.929 932.985 709.305 932.985 712.236C932.985 715.171 930.552 717.543 927.551 717.543H911.151V782.882C911.151 785.806 908.783 788.186 905.845 788.186ZM867.896 867.587C868.685 865.211 871.393 863.905 873.896 864.645C875.61 865.159 877.931 865.389 880.66 865.549C881.102 865.579 881.574 865.579 882.031 865.579C885.4 865.605 888.955 864.809 891.389 863.444C893.845 862.02 895.116 860.48 895.46 858.129C895.511 857.676 895.54 857.244 895.54 856.861C895.409 853.659 894.177 852.469 891.473 850.992C888.802 849.668 884.764 849.099 881.884 849.11C880.583 849.11 879.487 849.229 879.1 849.315V849.304C877.631 849.828 875.965 849.642 874.667 848.809C873.355 847.954 872.566 846.581 872.595 845.06L872.811 826.126C872.877 823.682 875 821.677 877.616 821.677H896.527C899.173 821.677 901.318 823.693 901.318 826.163C901.318 828.651 899.173 830.644 896.527 830.644H882.359L882.228 840.14C886.171 840.203 891.192 840.816 895.88 843.029C900.678 845.194 905.239 850.118 905.129 856.861C905.129 857.62 905.078 858.416 904.99 859.23C904.289 864.683 900.579 868.829 896.257 871.158C891.934 873.538 886.872 874.527 882.031 874.557C881.365 874.557 880.711 874.527 880.032 874.505C877.174 874.308 874.156 874.096 871.05 873.188C868.499 872.456 867.107 869.934 867.896 867.587ZM865.265 769.523C862.638 769.523 860.354 767.57 860.006 764.896C857.266 743.727 856.25 726.22 856.25 711.846C856.25 702.113 856.714 693.815 857.434 686.793H857.441C857.73 683.877 860.339 681.754 863.251 682.055C866.175 682.352 868.294 684.956 867.991 687.872C867.315 694.518 866.862 702.451 866.862 711.846C866.862 725.718 867.848 742.771 870.538 763.531C870.911 766.444 868.861 769.103 865.956 769.478L865.265 769.523ZM823.928 835.974C824.041 826.769 832.826 820.305 842.663 820.29C850.308 820.298 857.295 824.233 860.083 830.302L860.588 831.098C860.752 831.485 862.349 835.041 862.349 840.511C862.484 849.359 857.613 863.072 837.683 873.921C836.926 874.338 836.075 874.557 835.249 874.557C833.619 874.557 832.015 873.772 831.109 872.363C829.779 870.217 830.528 867.479 832.804 866.207C842.663 860.666 847.721 855.143 850.25 850.286C847.915 851.171 845.32 851.647 842.663 851.673C832.826 851.647 824.041 845.194 823.928 835.974ZM821.652 711.846C821.652 702.113 822.116 693.815 822.836 686.793C823.132 683.877 825.741 681.754 828.653 682.055C831.577 682.352 833.696 684.956 833.4 687.872C832.717 694.518 832.267 702.451 832.267 711.846C832.267 725.718 833.246 742.771 835.94 763.531C836.312 766.444 834.262 769.103 831.357 769.478L830.667 769.523C828.036 769.523 825.759 767.57 825.412 764.896C822.667 743.727 821.652 726.22 821.652 711.846ZM774.848 858.635C774.848 853.897 777.476 849.75 781.159 847.024L781.371 846.901C777.943 844.208 775.575 840.24 775.575 835.743C775.575 831.113 778.053 827.055 781.612 824.355C785.212 821.61 789.918 820.06 795.034 820.06C800.135 820.06 804.868 821.61 808.438 824.355C812.023 827.055 814.508 831.113 814.508 835.743C814.508 840.24 812.132 844.208 808.712 846.89L808.909 847.024C812.607 849.75 815.238 853.897 815.238 858.635C815.238 863.366 812.607 867.524 808.909 870.232C805.178 872.984 800.329 874.531 795.034 874.557C789.743 874.531 784.89 872.984 781.159 870.232C777.476 867.524 774.848 863.366 774.848 858.635ZM775.411 603.568L775.422 603.572C776.595 600.88 779.719 599.663 782.405 600.846C785.084 602.025 786.297 605.149 785.127 607.834L785.124 607.842L785.117 607.86L785.043 608.043C784.974 608.214 784.861 608.482 784.718 608.861C784.43 609.612 784.006 610.776 783.487 612.357C782.456 615.511 781.064 620.305 779.69 626.735C779.405 628.074 779.116 629.499 778.839 630.986C780.878 632.876 782.676 635.089 784.298 637.521C786.629 641.036 788.603 645.019 790.342 649.274C793.81 657.787 796.328 667.431 798.199 676.576C801.941 694.849 803.081 711.12 803.095 711.277C803.315 714.371 801.118 717.071 798.199 717.298L797.8 717.317C795.052 717.317 792.721 715.07 792.516 712.113L792.498 711.834C792.48 711.641 792.458 711.347 792.429 710.957C792.363 710.176 792.261 709.038 792.118 707.591C791.829 704.697 791.373 700.588 790.7 695.779C789.366 686.172 787.145 673.728 783.772 662.715C781.769 656.154 779.325 650.111 776.606 645.555C775.301 656.333 774.461 669.384 774.724 684.722C775.181 710.484 778.744 742.652 788.497 781.097C789.213 783.939 787.499 786.832 784.66 787.55C784.254 787.654 783.845 787.706 783.443 787.714C781.035 787.758 778.835 786.14 778.21 783.708C768.271 744.493 764.587 711.503 764.119 684.911C763.191 631.723 775.14 604.167 775.411 603.568ZM753.727 825.322C753.727 822.853 755.89 820.844 758.521 820.844C761.163 820.844 763.326 822.853 763.326 825.322V870.068C763.326 872.56 761.163 874.557 758.521 874.557C755.89 874.557 753.727 872.56 753.727 870.068V825.322ZM713.026 711.277C713.033 711.18 713.526 704.125 714.919 694.135C716.318 684.141 718.598 671.221 722.26 659.241C724.716 651.252 727.752 643.673 731.827 637.521C733.442 635.089 735.24 632.876 737.275 630.986C734.421 615.909 731.118 608.136 730.994 607.842C729.817 605.157 731.034 602.025 733.716 600.846C736.395 599.663 739.523 600.88 740.703 603.572C740.973 604.167 752.926 631.723 751.998 684.911C751.53 711.503 747.851 744.493 737.904 783.708C737.29 786.144 735.079 787.758 732.678 787.714C732.273 787.706 731.867 787.654 731.458 787.55C728.622 786.832 726.905 783.939 727.621 781.097C737.37 742.652 740.94 710.484 741.39 684.722C741.657 669.387 740.82 656.329 739.515 645.555C738.317 647.559 737.166 649.854 736.091 652.357C733.153 659.167 730.789 667.487 728.98 675.691C725.344 692.104 723.919 708.045 723.649 711.444C723.623 711.901 723.605 712.113 723.605 712.113C723.396 715.07 721.069 717.317 718.317 717.317L717.915 717.298C714.999 717.071 712.81 714.371 713.026 711.277ZM784.448 858.635C784.448 860.205 785.263 861.785 787.123 863.221C788.983 864.604 791.826 865.601 795.034 865.601C798.257 865.601 801.1 864.604 802.957 863.221C804.82 861.785 805.65 860.205 805.65 858.635C805.65 857.047 804.82 855.463 802.957 854.046C801.1 852.655 798.257 851.662 795.034 851.662H794.998C791.811 851.662 788.983 852.655 787.123 854.046C785.263 855.463 784.448 857.047 784.448 858.635ZM802.386 840.203C804.148 838.842 804.919 837.305 804.919 835.743C804.919 834.166 804.148 832.634 802.397 831.28C800.651 829.949 798.038 829.019 795.034 829.019H795.02C792.03 829.019 789.41 829.949 787.696 831.28C785.939 832.634 785.164 834.166 785.164 835.743C785.164 837.305 785.939 838.842 787.696 840.203C789.41 841.516 792.056 842.46 795.034 842.46C798.038 842.46 800.651 841.516 802.386 840.203ZM835.914 831.437C834.299 832.776 833.506 834.326 833.484 835.974C833.506 837.633 834.299 839.169 835.914 840.5C837.522 841.795 839.908 842.698 842.663 842.698C845.368 842.698 847.765 841.795 849.402 840.5C851.017 839.169 851.81 837.633 851.817 835.974C851.81 834.326 851.017 832.776 849.402 831.437C847.765 830.161 845.368 829.253 842.663 829.253H842.642C839.894 829.253 837.522 830.161 835.914 831.437ZM732.148 1053.23C731.933 1055.3 730.35 1059.61 733.91 1059.71C737.315 1059.8 737.202 1058.78 739.124 1055.37C740.623 1052.71 742.249 1051.31 743.582 1048.38C744.905 1045.45 745.494 1045.56 745.808 1044.62C746.115 1043.68 746.089 1042.36 746.791 1039.7C747.496 1037.06 748.633 1032.84 749.002 1031.32C749.378 1029.8 749.923 1028.64 750.661 1026.77C751.392 1024.89 753.146 1024.15 754.531 1023.9C754.998 1023.82 758.707 1024.2 759.179 1024.24L759.343 1024.75C759.511 1025 758.748 1024.92 764.466 1026.97C764.627 1027.03 764.357 1028.22 764.32 1028.76C764.225 1029.83 764.244 1030.96 763.937 1032C763.937 1032 760.896 1032.45 760.706 1033.38C760.509 1034.31 760.165 1035.06 761.302 1035.57C762.431 1036.07 763.103 1036.72 763.103 1036.72C763.103 1036.72 763.224 1037.8 762.888 1039.53C762.712 1040.42 762.457 1040.36 762.409 1040.57C762.351 1040.87 760.22 1040.96 759.851 1041.16C758.609 1041.84 758.506 1043.62 759.924 1045.31C760.454 1045.95 761.273 1045.42 761.488 1046.1C761.781 1047.05 760.553 1048.33 760.334 1048.6C759.57 1049.56 758.148 1051.06 756.281 1051.39C754.41 1051.72 752.51 1052.4 747.445 1051.21C746.707 1051.04 745.983 1051.71 745.537 1052.51C745.567 1053.08 745.545 1053.67 745.161 1054.4L745.282 1054.59C746.009 1055.31 747.043 1056.19 747.613 1057.2C748.176 1058.2 747.577 1058.69 749.59 1059.25C752.495 1060.05 753.237 1057.91 755.598 1058.63C757.951 1059.35 755.641 1060.99 755.375 1061.96C755.086 1062.97 753.712 1063.81 753.076 1064.61C751.424 1066.67 751.976 1069.97 752.912 1072.21C753.628 1073.92 755.199 1078.74 757.86 1077.65C758.905 1077.22 762.749 1073.66 763.984 1072.31C765.216 1070.95 765.833 1070.02 766.177 1068.81C766.509 1067.6 767.518 1057.19 768.453 1056.66C770.028 1055.77 772.769 1056.19 774.516 1056.01C777.64 1055.68 780.841 1055.18 783.925 1054.6C785.036 1054.4 786.129 1054.13 787.225 1053.88C788.588 1053.57 789.841 1052.9 791.205 1052.56C792.33 1052.27 793.898 1052.09 794.731 1051.18C795.451 1050.4 796.094 1049.86 796.189 1049.04C796.277 1048.22 795.772 1047.23 795.228 1046.63C794.446 1045.74 792.834 1045.76 791.786 1045.33C789.008 1044.2 786.615 1042.53 784.188 1040.8C783.242 1040.14 781.152 1039.31 780.589 1038.28C780.224 1038.41 780.589 1038.28 780.435 1038.85C780.435 1039.18 780.841 1040.07 781.601 1042.41C782.533 1045.31 783.764 1047.89 782.862 1048.15C780.435 1048.84 777.856 1048.75 775.4 1049.39C774.552 1049.62 773.938 1049.77 773.167 1050.01C772.385 1050.25 772.053 1050.42 771.194 1050.19C770.339 1049.95 769.433 1049.11 769.111 1047.98C768.789 1046.85 768.859 1046.34 770.006 1046.07C771.15 1045.8 773.92 1044.75 774.168 1043.38C774.406 1042.02 773.876 1042.03 773.346 1041.1C772.831 1040.18 770.28 1042.96 771.713 1038.08L771.961 1037.22L774.899 1037.04C775.148 1036.97 775.484 1036.9 775.985 1036.78C777.238 1036.49 780.099 1035.96 781.276 1035.11C781.616 1034.86 782.233 1033.2 782.325 1032.91C782.442 1032.54 782.942 1031.85 781.517 1031.1C780.092 1030.36 780.468 1031.22 778.703 1031.52C776.946 1031.81 772.911 1031.87 772.911 1031.87C772.911 1031.87 773.156 1030.6 773.28 1029.4L773.441 1028.44L773.481 1028.32C773.481 1028.32 773.978 1027.06 776.547 1025.24C779.16 1023.37 788.464 1021.73 791.592 1021.34C794.72 1020.94 800.019 1020.36 801.067 1020.29C802.12 1020.22 802.277 1018.87 801.648 1017.32C801.045 1015.83 799.887 1016.48 798.732 1016.66C797.34 1016.88 795.959 1016.43 794.563 1016.49C793.141 1016.55 791.72 1016.86 790.324 1017.08C788.38 1017.38 784.492 1018.21 783.249 1018.29C782.007 1018.37 780.158 1019.04 779.273 1019.22C778.396 1019.39 778.477 1019.07 779.463 1017.76C780.446 1016.46 782.891 1016.47 783.849 1016.49C784.813 1016.51 786.399 1015.83 788.146 1015.06C790.777 1013.92 792.915 1012.01 795.184 1010.3C796.361 1009.42 797.662 1008.63 798.787 1007.71C799.675 1006.98 800.592 1006.11 801.082 1005.05C801.626 1003.88 801.159 1003.2 800.665 1002.12C799.807 1000.21 796.54 1000.69 794.884 1000.63C794.438 1000.62 793.821 1000.5 793.39 1000.66C792.29 1001.08 790.437 1003.11 789.056 1002.2C788.617 1001.92 789.359 999.34 789.633 997.797C789.907 996.249 788.402 994.877 786.925 993.11C785.456 991.336 783.648 988.153 781.057 987.479C778.469 986.803 776.478 991.704 775.831 993.449C775.4 994.62 775.122 995.855 774.684 997.034C774.271 998.131 773.598 999.072 773.112 1000.13C772.279 1001.97 772.363 1006.11 769.677 1006.44C769.078 1006.52 768.848 1007.38 768.249 1007.98C767.642 1008.56 765.643 1009.31 765.899 1010.3C766.155 1011.29 768.34 1010.07 768.713 1010.11C769.093 1010.16 769.385 1011.27 769.447 1011.51C769.714 1012.56 768.815 1014.25 768.577 1015.27C768.165 1017.04 768.055 1019.05 767.342 1020.74C766.948 1021.68 761.474 1021.05 759.738 1021.13L759.351 1021.23L759.343 1021.23L759.171 1020.89C758.996 1020.33 756.899 1019.49 756.931 1018.91C757.041 1017.24 755.634 1016.26 754.728 1015.99C753.814 1015.73 752.367 1014.57 751.907 1014.13C751.45 1013.7 749.733 1012.8 749.005 1011.93C748.282 1011.07 749.305 1008.99 749.378 1008.27C749.469 1007.37 750.697 1006.26 751.249 1005.62C752.703 1003.91 755.32 1002.49 757.626 1002.65C759.285 1002.77 760.677 1003.1 761.923 1001.68C764.872 998.291 761.2 994.341 758.367 992.575C756.939 991.693 756.332 990.89 755.554 990.44C754.775 989.99 752.294 988.625 751.271 987.903C750.24 987.186 748.304 985.876 747.145 986.501C745.98 987.119 746.955 988.335 748.625 990.849C749.415 992.024 749.831 993.192 749.689 994.605C749.557 995.911 749.451 996.696 750.113 997.893C750.909 999.336 751.64 1000.44 751.154 1002.15C750.646 1003.95 748.318 1007.6 747.77 1008.23C747.222 1008.85 746.356 1009.05 745.771 1009.63C743.371 1011.98 743.305 1014.48 744.226 1017.5C744.956 1019.91 744.792 1024.18 744.544 1026.1C744.291 1028.02 742.282 1032.34 741.613 1033.59C740.94 1034.83 739.486 1037.41 737.513 1041.83C735.55 1046.25 734.98 1047.07 734.491 1047.02C734.016 1046.97 732.737 1048.84 732.28 1049.57C731.739 1050.45 732.262 1052.23 732.148 1053.23ZM786.743 1007.3C787.817 1005.98 790.927 1005.72 790.927 1005.72C791.044 1007.3 788.581 1008.37 788.263 1008.59C787.941 1008.8 787.828 1009.25 787.59 1009.66C787.338 1010.07 786.238 1010.25 786.238 1010.25C786.238 1010.25 785.672 1008.62 786.743 1007.3ZM741.565 1039.13C741.638 1038.44 742.57 1036.92 744.003 1033.81C745.442 1030.72 748.169 1028.44 748.169 1028.44C748.066 1029.44 747.719 1029.48 747.558 1030.24C747.394 1030.99 742.899 1038.72 742.245 1039.27C741.587 1039.82 741.496 1039.81 741.565 1039.13ZM874.134 1042.93C875.212 1049.76 873.191 1053.96 869.61 1057.45C865.839 1061.09 860.251 1063.8 854.788 1067.27L854.558 1067.42L854.496 1067.69C854.474 1067.88 854.28 1068.22 854.412 1068.77L854.503 1069.12L854.858 1069.23C857.112 1069.84 859.992 1069.05 862.152 1068.8C862.941 1068.67 863.686 1068.52 864.421 1068.33C875.373 1065.49 881.45 1055.45 882.444 1046.85C882.659 1042.42 882.871 1038.03 883.116 1033.79C884.263 1032.62 885.4 1031.47 886.562 1030.46L886.591 1030.43L886.631 1030.39C887.72 1029.11 889.745 1027.51 891.744 1025.77L891.323 1025.29L891.758 1025.76C894.722 1022.97 898.467 1019.2 899.286 1016.26L899.319 1016.16L899.308 1016.05L899.257 1015.74C898.796 1014.34 897.265 1013.9 895.584 1013.46C893.881 1013.06 891.893 1012.83 890.373 1012.65C890.22 1012.64 886.989 1012.64 885.813 1012.65H885.736L885.656 1012.67L885.14 1013.14L885.133 1013.63C885.33 1014.23 885.813 1014.79 886.343 1015.56C886.85 1016.28 887.366 1017.1 887.464 1017.52L887.486 1017.71C887.388 1018.94 884.556 1022.03 882.937 1023.51C881.972 1016.17 884.691 1009.53 883.697 1002.07L883.66 1001.84L883.481 1001.68C881.197 999.723 873.995 997.086 870.231 997.804L869.957 997.863L869.811 998.113L869.657 998.719L869.65 998.79L869.595 998.883L869.588 999.042C869.537 1000.01 869.687 1000.96 869.935 1001.92C870.458 1003.94 871.4 1005.96 871.912 1007.97C872.102 1008.7 872.234 1009.42 872.281 1010.14C872.84 1017.55 873.812 1024.81 873.889 1031.95C870.377 1035.69 866.427 1039.37 861.903 1042.46C860.175 1043.76 857.558 1044.16 855.201 1045.69L854.872 1045.91L854.865 1045.92L854.215 1046.09L854.511 1046.79C855.976 1049.97 858.461 1054.68 862.323 1053.87L863.036 1053.61C865.247 1052.57 867.121 1050.87 868.861 1048.71C870.49 1046.68 872.204 1044.79 874.134 1042.93ZM885.813 1038.51C885.487 1039.4 885.509 1040.33 885.751 1041.24C887.033 1045.98 893.991 1050.9 896.417 1052.97C897.104 1053.48 897.576 1054.12 898.416 1054.76C899.026 1055.25 899.874 1055.76 900.985 1055.83C901.76 1055.88 902.476 1055.8 903.152 1055.62L903.181 1055.62C907.259 1054.53 909.576 1050.3 911.235 1048.55C911.626 1048.04 912.657 1047.23 913.578 1046.37C914.495 1045.48 915.427 1044.61 915.522 1043.42L915.551 1042.74L914.868 1042.75C913.614 1042.76 912.58 1042.87 911.403 1042.88L911.411 1043.53L911.367 1042.88C910.461 1042.94 909.598 1043.1 908.769 1043.32C906.985 1043.78 905.348 1044.46 903.693 1044.88C902.6 1045.16 901.497 1045.34 900.338 1045.29C899.249 1045.3 897.985 1044.92 896.648 1044.37C893.227 1043.06 889.814 1040.35 887.596 1038.09L887.336 1037.83L886.262 1038.1L885.933 1038.19L885.813 1038.51ZM941.982 961.694L941.372 962.066L942.271 962.605C943.641 963.413 945.106 964.346 946.488 965.172C949.864 967.701 954.194 970.806 956.562 974.63L956.584 974.674C956.99 975.333 957.447 975.98 957.838 976.612C958.565 977.802 958.956 978.829 958.528 979.829L958.514 979.863L958.481 979.881C955.082 979.665 951.932 977.095 947.438 979.825C946.933 980.138 946.411 980.517 945.863 980.975L945.717 981.101L945.669 981.294L945.728 982.031L945.845 982.187L945.954 982.31L946.108 982.366C949.148 983.388 954.724 986.312 956.888 989.335C957.286 990.005 957.615 990.819 958.101 991.604C958.514 992.292 959.076 992.969 959.943 993.43L960.041 993.49L960.151 993.505C961.455 993.702 962.753 993.903 964.05 994.107L964.382 994.159L964.616 993.91C965.194 993.237 965.124 992.411 964.993 991.597C964.514 989.146 963.049 985.78 964.861 983.463C966.111 982.871 967.244 983.299 968.833 983.121L968.965 983.102L969.071 983.031C969.433 982.76 969.524 982.578 969.659 982.507L969.992 982.295L969.959 981.908C969.867 980.926 969.685 979.877 969.601 978.959L969.586 978.851L969.546 978.754C969.246 978.096 968.958 977.218 968.559 976.355L969.078 975.05L971.508 969.129L971.87 968.98C972.319 969.192 973.08 969.713 973.365 970.215L973.533 970.791V970.832V970.877L973.518 970.87L972.882 971.74L972.561 972.108L972.922 972.636L973.072 972.856L973.35 972.9C973.931 972.967 974.472 972.777 974.899 972.644C975.608 973.454 976.175 974.209 977.059 974.957L977.096 974.994L977.147 975.02C978.111 975.507 979.77 975.931 979.756 976.143L979.734 976.147L979.697 976.247L979.686 976.344C979.602 978.271 977.26 982.291 975.433 985.043C975.162 985.59 974.936 986.018 974.706 986.289L974.658 986.341L974.622 986.397C970.755 993.27 966.831 1000.01 962.906 1006.93C961.488 1009.85 956.259 1014.02 958.696 1018.35L958.97 1018.74L959.102 1018.91L959.31 1018.97C961.455 1019.51 963.652 1019.86 965.888 1020.01C967.32 1019.93 968.673 1019.21 969.246 1019.5L969.685 1019.66L969.97 1019.27C972.9 1015.32 971.826 1013.11 972.312 1011.68C974.413 1005.29 977.698 999.143 981.667 993.062C982.646 991.801 983.56 990.406 984.532 989.157C986.191 986.836 987.828 983.797 990.466 982.198L991.033 981.875L991.066 981.86C991.318 982.362 991.446 982.931 991.49 983.362C991.592 984.861 990.675 986.39 990.346 988.052C989.988 990.745 989.162 993.56 988.314 996.063C987.897 997.082 986.64 998.589 986.655 1000.12C986.743 1000.64 986.925 1001.01 987.119 1001.33C987.371 1001.74 987.645 1002.09 987.828 1002.39L988.073 1002.98L988.091 1003.11L988.106 1003.12L988.073 1003.22C987.591 1004.36 985.106 1007.08 984.338 1008.24C983.275 1010.24 982.135 1012.27 980.848 1014.03C977.951 1017.78 973.123 1020.82 972.133 1025.4L972.056 1025.74L972.312 1025.98C973.233 1026.79 975.29 1027.29 977.651 1027.58C980.001 1027.83 982.504 1027.79 984.104 1026.84L984.576 1026.5C986.491 1024.57 987.207 1021.86 987.872 1019.98C988.771 1017.51 991.296 1012.97 993.806 1010.48L994.431 1009.9C995.115 1010.45 995.838 1011.38 996.722 1012.18C997.504 1012.93 998.107 1013.66 998.542 1014.36C999.536 1016 999.635 1017.44 999.163 1018.9C998.597 1020.91 996.675 1022.94 994.256 1024.91C993.974 1025.13 993.646 1025.36 993.302 1025.57C992.147 1026.28 990.708 1026.92 989.429 1027.7C988.917 1028.02 988.431 1028.36 987.996 1028.75L987.66 1029.4L987.667 1029.52L987.492 1030.34L988.321 1030.29C990.62 1030.11 992.955 1029.02 994.954 1029.02C998.604 1028.96 1001.69 1028.83 1005.31 1028.77H1005.38L1005.45 1028.75L1006.12 1028.51L1006.14 1028.5L1006.53 1028.01C1007.69 1025.1 1007.37 1017.81 1004.86 1013.6C1004.56 1013.1 1004.21 1012.66 1003.84 1012.27C1001.99 1010.33 999.73 1008.51 998.444 1006.41L997.925 1005.42C997.961 1005.17 998.626 1004.17 999.383 1003.39C1000.18 1002.52 1001.11 1001.69 1001.34 1001.55L1005.84 998.782L1005.91 998.697C1007.42 996.737 1006.76 994.382 1006.9 992.82V992.772V992.709L1006.62 991.872C1006.1 991.035 1005.15 991.139 1005.1 991.102L1005.04 991.091L1004.98 991.095C1003.64 991.135 1002.44 991.634 1001.37 992.288C1000.63 992.753 999.935 993.285 999.295 993.824C998.59 994.419 998.034 994.933 997.475 995.431L991.881 998.871L991.851 998.864C991.669 998.83 991.219 998.447 991.011 998.083L990.872 997.789L990.857 997.748C991.541 995.394 994.179 993.081 995.491 990.351C995.696 989.942 996.054 989.38 996.324 988.859C997.468 985.735 998.243 982.756 999.229 979.84C999.635 978.46 1001.07 975.188 999.715 972.822C999.405 972.32 998.948 971.885 998.352 971.595C996.752 970.594 994.932 971.041 993.445 971.963C991.402 973.231 989.706 975.381 988.851 976.82C988.654 977.237 988.343 977.571 988.157 978.115C985.555 982.161 982.314 986.133 979.153 990.239C978.057 991.902 976.748 993.545 975.828 995.316C975.141 996.342 973.036 1000.17 972.02 1000.78H971.994C971.355 999.117 973.145 996.528 974.059 994.516L977.757 987.424L983.659 975.842C984.061 975.355 984.93 974.79 985.844 974.235C986.374 973.975 987.002 973.655 987.612 973.283C988.497 972.737 989.337 972.089 989.827 971.189C993.236 965.38 991.46 957.986 991.738 951.961C991.808 949.577 992.451 941.744 989.973 937.616C989.235 936.404 988.135 935.474 986.662 935.277C985.19 935.072 983.472 935.552 981.4 936.816L981.302 936.88L981.225 936.976C979.449 939.435 976.854 948.551 973.427 952.37C973.112 950.596 973.81 948.342 974.508 945.981C975.276 943.292 976.014 940.379 974.443 937.787L974.307 937.583L974.293 937.542C973.81 936.895 973.131 936.779 972.232 936.604C969.557 936.207 964.861 936.571 962.117 937.836L961.697 938.036L961.751 938.498C961.993 939.866 963.286 941.417 963.783 942.63L963.823 943.176L964.485 948.971C964.704 950.883 965.42 953.185 965.552 955.275C965.658 957.387 965.281 959.098 963.41 960.262C962.658 960.727 961.642 961.099 960.286 961.337C959.851 961.4 959.716 961.49 959.453 961.516C956.577 961.772 954.121 960.489 950.968 960.448C949.543 960.247 948.249 960.712 947.01 960.709C945.779 960.742 944.142 960.251 942.424 961.084L941.799 961.397L941.982 961.694ZM979.072 968.062L979.573 967.757L980.742 967.321L981.546 967.831C981.623 968.329 981.799 968.694 981.806 968.898C981.667 969.367 981.386 969.743 981.002 969.984C980.567 970.241 980.001 970.353 979.27 970.122C978.923 969.341 978.945 968.913 979.072 968.062ZM974.139 957.194L974.768 957.22C974.841 953.419 980.589 946.903 983.374 943.563C983.721 943.258 983.819 943.009 984.134 942.827C984.371 942.693 984.612 942.604 985.142 942.756C985.8 943.031 986.213 943.414 986.498 943.876C986.94 944.59 987.046 945.594 986.988 946.713C986.988 948.71 986.856 950.782 986.779 952.679V952.72L986.787 952.783C987.324 956.167 988.983 963.037 985.837 964.751L985.296 965.023C984.225 964.19 983.33 963.379 982.416 962.561L982.27 962.431L982.098 962.408C981.324 962.289 980.618 962.382 980.103 962.297C979.533 962.114 978.459 961.646 977.465 960.984C976.365 960.366 975.532 959.634 975.133 958.975L975.009 958.76L974.987 958.697L974.936 958.63L974.921 958.607C974.757 958.34 974.691 957.882 974.764 957.268L974.139 957.194ZM961.397 967.366C961.887 967.191 962.289 967.091 962.606 967.083C963.502 967.054 964.229 967.132 965.048 967.191C965.091 967.95 964.92 969.177 964.624 969.943L965.208 970.163L964.602 969.995L964.448 970.572C963.41 969.735 962.179 968.716 961.609 967.771L961.397 967.366Z" fill="#00468C"/>
<path d="M823.079 1480.82C823.079 1480.82 824.221 1477.56 825.073 1476.99C835.708 1472.01 843.768 1484.37 840.669 1485.37C838.301 1486.14 818.791 1500.92 818.791 1500.92C816.9 1491.59 823.079 1480.82 823.079 1480.82ZM1039.25 1719.41C1028.85 1720.07 1025.61 1720.07 1005.48 1721.99C985.366 1723.93 956.148 1723.93 952.899 1721.99C949.669 1720.07 937.33 1704.56 928.886 1692.94C920.451 1681.31 875.018 1623.83 863.325 1603.8C851.642 1583.79 828.92 1530.18 828.92 1530.18C828.92 1530.18 847.756 1513.39 880.85 1494.66C913.954 1475.92 916.556 1466.24 917.858 1459.78C919.159 1453.33 919.796 1445.57 905.528 1452.03C891.242 1458.49 858.794 1457.84 856.182 1457.84C853.589 1457.84 847.756 1456.54 841.905 1461.07C836.063 1465.59 827.535 1463.05 827.535 1463.05C827.535 1463.05 823.079 1460.43 823.079 1453.96C823.079 1447.5 810.749 1435.24 810.749 1435.24C824.38 1440.4 859.44 1418.44 871.76 1406.17C884.099 1393.89 909.413 1371.93 918.504 1361.6C927.594 1351.28 937.976 1355.8 946.421 1335.78C951.832 1322.94 948.855 1332.93 953.236 1319.25C957.608 1305.56 953.236 1304.32 945.737 1301.2C938.229 1298.09 926.349 1303.06 914.459 1304.94C902.579 1306.8 887.572 1309.9 880.701 1311.17C873.81 1312.4 877.574 1312.4 861.93 1321.73C846.296 1331.07 823.163 1337.91 801.893 1347.25C780.641 1356.58 770.006 1358.45 763.753 1358.45C757.499 1358.45 752.5 1356.58 745.619 1367.78C741.116 1375.11 746.77 1381.57 752.079 1386.39C758.557 1392.28 761.356 1396.96 766.412 1403.97C770.587 1409.76 778.245 1410.97 781.887 1417.56C781.887 1417.56 775.642 1416.93 766.262 1417.56C756.872 1418.17 759.371 1431.24 759.371 1438.72C759.371 1446.17 759.999 1469.2 758.117 1476.67C756.254 1484.13 756.872 1494.7 756.872 1504.66C756.872 1514.62 751.676 1541.8 751.676 1541.8C742.586 1551.49 660.155 1601.22 645.869 1609.62C631.583 1618.01 602.383 1601.87 602.374 1601.87C592.179 1619.27 608.253 1652.79 620.405 1665.98C627.651 1673.84 637.986 1681.53 647.816 1685.83C664.049 1692.94 690.609 1683.3 708.827 1662.58C727.008 1641.9 749.729 1604.45 749.729 1604.45C752.322 1634.8 749.729 1654.82 723.113 1720.07C696.497 1785.3 661.447 1785.3 641.974 1790.46C622.502 1795.62 591.345 1793.04 588.743 1802.73C584.502 1818.54 636.778 1833.09 669.891 1826.63C691.358 1822.44 709.969 1801.78 724.049 1786.56C743.541 1765.52 763.715 1743.44 772.469 1715.55C779.724 1692.44 784.424 1668.29 788.964 1644.55C791.145 1633.14 793.299 1621.72 795.171 1610.26C799.712 1582.48 807.501 1546.98 807.501 1546.98C807.501 1546.98 828.92 1642.56 842.551 1685.83C856.182 1729.1 891.242 1780.77 913.317 1786.58C935.374 1792.4 964.601 1767.21 971.735 1764.63C978.869 1762.04 1015.88 1747.82 1035.34 1740.73C1054.82 1733.62 1049.63 1718.76 1039.25 1719.41Z" fill="#00468C"/>
<path d="M997.393 2276.8C996.711 2272.19 992.558 2267.54 988.755 2265C983.193 2261.3 974.491 2263.7 968.155 2262.84C951.404 2260.6 935.998 2254.93 920.325 2249C914.238 2246.71 901.714 2245.19 897.119 2240.33C895.36 2241.6 897.119 2240.33 897.119 2243.72C897.589 2245.47 901.079 2249.75 908.538 2261.43C917.756 2275.87 928.07 2288.17 923.557 2290.84C911.31 2298.07 897.119 2301.24 884.678 2308.24C880.396 2310.65 877.283 2312.36 873.388 2314.78C869.484 2317.2 867.927 2318.59 862.918 2318.51C857.908 2318.43 851.794 2315.15 848.433 2309.45C845.071 2303.73 844.749 2300.9 850.578 2297.81C856.435 2294.71 870.036 2285.07 869.41 2277.27C868.784 2269.5 865.92 2270.33 861.748 2266.02C857.595 2261.74 847.668 2280.48 848.543 2251.9C848.589 2250.55 848.055 2247.42 848.644 2246.85C849.206 2245.12 862.872 2242.29 864.428 2241.69C865.671 2240.98 867.375 2240.07 869.944 2238.75C876.353 2235.42 891.189 2228.39 896.373 2222.13C897.883 2220.3 898.896 2210.36 898.979 2208.67C899.09 2206.52 900.83 2202.02 892.008 2199.98C883.195 2197.96 886.465 2202.15 877.293 2206.23C868.112 2210.31 846.232 2216.4 846.232 2216.4C846.232 2216.4 845.762 2209.12 844.721 2202.38C844.473 2200.73 844.16 2198.69 844.243 2196.97L844.279 2196.26C844.279 2196.26 845.219 2188.7 856.61 2175.11C868.167 2161.27 916.531 2139.11 933.005 2132.51C949.48 2125.92 977.511 2115.24 983.119 2113.36C988.727 2111.46 987.668 2103.93 982.069 2096.39C976.673 2089.13 971.258 2094.32 965.236 2096.93C957.989 2100.1 949.784 2099.61 942.288 2101.92C934.654 2104.28 927.342 2107.99 920.04 2111.15C909.873 2115.55 889.881 2125.6 883.242 2127.8C876.584 2130.01 867.467 2136.29 862.918 2138.48C858.36 2140.69 858.36 2138.81 861.859 2130.31C865.367 2121.84 878.692 2118.39 883.941 2117.13C889.19 2115.86 896.889 2109.9 905.315 2103.3C918.014 2093.33 926.918 2079.84 936.882 2067.36C942.03 2060.92 947.979 2054.76 952.804 2048.13C956.617 2042.88 960.364 2036.84 961.543 2030.37C962.832 2023.28 959.305 2020.23 955.088 2015.02C947.703 2005.89 930.611 2013.11 921.513 2015.14C919.027 2015.7 915.536 2015.96 913.409 2017.47C908.031 2021.3 900.793 2034.95 891.99 2031.99C889.19 2031.05 889.54 2015.97 888.84 2007.17C888.141 1998.38 877.993 1993.04 867.467 1985.5C856.96 1977.96 842.585 1963.2 827.52 1963.2C812.445 1963.2 808.586 1992.72 807.537 2003.1C806.818 2010.14 807.113 2017.24 806.376 2024.27C805.695 2030.81 803.356 2036.91 802.232 2043.34C800.28 2054.53 806.616 2076.96 792.471 2082.57C789.313 2083.83 789.313 2088.85 786.872 2092.94C784.414 2097.02 774.597 2103.93 777.406 2108.96C780.214 2113.98 790.362 2104.24 792.471 2103.93C794.571 2103.61 797.729 2109.26 798.429 2110.52C801.394 2115.83 798.862 2126.29 799.019 2132.16C799.304 2142.42 801.569 2153.5 800.105 2163.69C799.286 2169.38 768.547 2173.73 759.228 2176.63C748.444 2180.64 758.951 2191.23 762.23 2196.9C763.482 2198.02 759.228 2198.65 793.282 2201.71C794.23 2201.8 794.479 2208.65 795.022 2211.64C796.017 2217.6 797.729 2223.77 797.545 2229.83C797.545 2229.83 781.605 2236.63 781.89 2241.94C782.176 2247.25 781.329 2251.82 788.244 2252.99C795.151 2254.16 799.728 2256.71 799.728 2256.71C799.728 2256.71 801.901 2262.42 802.518 2272.31C802.849 2277.44 801.367 2277.43 801.413 2278.64C801.523 2280.38 790.022 2283.91 788.309 2285.5C782.498 2290.97 784.487 2300.78 794.617 2308.01C798.392 2310.7 802.113 2306.68 804.24 2310.1C807.196 2314.82 802.325 2323.49 801.514 2325.31C798.706 2331.63 793.116 2341.78 783.401 2346.23C773.685 2350.67 764.283 2357.08 735.018 2357.84C730.764 2357.94 727.789 2362.61 726.5 2367.6C727.476 2370.67 728.185 2373.93 727.135 2378.41L728.075 2379.28C733.02 2382.19 739.899 2385.48 744.448 2390.15C748.951 2394.82 746.363 2398.31 758.141 2398.5C775.085 2398.77 776.107 2386.06 789.966 2386.64C803.826 2387.21 793.567 2399.41 793.466 2405.06C793.346 2410.99 787.075 2417.48 784.727 2422.73C778.658 2436.3 786.338 2453.48 794.635 2464.35C800.952 2472.6 816.359 2496.62 829.306 2486.93C834.389 2483.12 850.274 2458.27 855.054 2449.16C859.861 2440.04 861.896 2434.08 862.025 2426.99C862.163 2419.92 852.853 2361.82 857.172 2357.64C864.502 2350.56 879.982 2348.98 889.273 2345.48C905.821 2339.26 922.544 2331.99 938.54 2324.47C944.268 2321.78 949.848 2318.77 955.465 2315.87C962.455 2312.24 968.33 2306.82 975.246 2303.01C980.974 2299.85 989.271 2296.63 992.503 2290.49C995.321 2285.25 998.083 2281.4 997.393 2276.8ZM886.649 2063.02C890.618 2054.3 907.193 2048.49 907.193 2048.49C910.076 2056.88 898.187 2066.25 896.751 2067.87C895.314 2069.49 895.314 2072.07 894.587 2074.65C893.859 2077.25 888.085 2079.81 888.085 2079.81C888.085 2079.81 882.68 2071.74 886.649 2063.02Z" fill="#00468C"/>
<path d="M757.363 2178.76L756.734 2178.17L755.281 2176.58C753.524 2173.78 740.838 2172.2 740.228 2169.01C738.405 2159.76 729.328 2156.38 723.971 2156.27C718.614 2156.13 709.038 2151.89 705.92 2150.15C702.792 2148.4 692.078 2145.92 686.869 2142.28C681.678 2138.63 684.306 2125.83 683.667 2121.8C682.89 2116.77 688.044 2109.02 690.126 2104.74C695.668 2093.39 707.937 2081.91 720.788 2079.54C730.041 2077.82 738.146 2077.65 742.902 2068.15C754.236 2045.5 728.486 2029.25 710.453 2023.66C701.404 2020.87 696.926 2017.37 692.013 2016.03C687.1 2014.69 671.602 2010.79 664.95 2008.32C658.288 2005.86 645.843 2001.48 640.375 2006.52C634.888 2011.56 641.976 2016.76 654.698 2028.08C660.684 2033.4 664.626 2039.11 665.875 2047C667.041 2054.3 667.568 2058.74 672.879 2064.29C679.309 2071.01 684.87 2076.02 684.667 2085.99C684.445 2096.49 676.95 2119.68 674.822 2123.87C672.712 2128 668.271 2130.35 665.866 2134.33C656.104 2150.53 659.315 2164.23 668.66 2179.36C676.108 2191.44 681.308 2214.88 682.677 2225.69C684.047 2236.49 679.208 2262.84 677.329 2270.59C675.442 2278.32 671.158 2294.4 666.698 2321.26C662.248 2348.13 660.296 2353.37 657.566 2353.79C654.855 2354.21 650.544 2366.17 649.109 2370.81C647.407 2376.35 652.755 2385.31 653.625 2390.97C655.373 2402.47 652.894 2428.18 672.49 2423.67C691.254 2419.33 689.191 2413.94 694.835 2392.68C699.239 2376.09 706.123 2366.13 709.223 2348.31C712.304 2330.48 715.672 2330.23 716.033 2324.66C716.393 2319.11 714.358 2311.97 714.423 2296.54C714.487 2281.11 714.672 2256.56 714.534 2247.77C714.404 2238.97 715.764 2231.88 717.097 2220.66C718.438 2209.42 726.997 2202.87 734.195 2199.56C736.629 2198.43 757.484 2195.22 760.102 2194.82C761.231 2194.63 759.519 2192.21 760.287 2191.36L757.743 2189.76C757.4 2186.86 758.816 2183.65 758.742 2183.5L758.326 2181.7C758.103 2180.52 758.039 2179.57 757.363 2178.76ZM705.078 2243.92C705.263 2248.26 691.717 2296.72 688.914 2300.65C686.082 2304.58 685.61 2304.65 685.009 2300.81C684.408 2296.97 687.322 2287.33 690.736 2268.44C694.187 2249.54 705.864 2233.29 705.864 2233.29C706.725 2238.85 704.883 2239.56 705.078 2243.92Z" fill="#00468C"/>
<path d="M855.492 2821.21L855.744 2821.05C863.595 2815.53 877.006 2809.58 890.519 2802.81L888.871 2799.52L890.612 2802.77C910.934 2791.56 936.908 2776.12 945.644 2761.01L945.942 2760.48L946.063 2759.88L946.203 2758.06C945.663 2749.64 937.849 2745.03 929.234 2740.18C920.433 2735.51 909.788 2731.44 901.667 2728.25C900.847 2727.99 883.041 2723.33 876.559 2721.7L876.121 2721.59H875.665C874.556 2721.47 872.787 2722.3 872.135 2723.49C871.418 2724.62 871.418 2725.49 871.408 2726.16C871.595 2729.78 873.485 2733.55 875.283 2738.58C877.089 2743.31 878.747 2748.58 878.691 2751.02L878.561 2752.11C876.261 2758.81 856.219 2771.85 845.192 2777.7C850.388 2735.69 874.78 2702.86 879.93 2660.15L880.088 2658.79L879.343 2657.67C869.509 2643.61 833.569 2618.72 811.85 2617.27L810.211 2617.2L809.047 2618.38C807.799 2619.73 807.604 2620.88 807.361 2621.5L807.222 2621.91L806.793 2622.33L806.514 2623.21C804.856 2628.47 804.316 2633.99 804.316 2639.61C804.335 2651.54 806.635 2664.07 806.607 2675.93C806.607 2680.24 806.309 2684.43 805.555 2688.51C798.067 2730.26 793.066 2771.8 783.315 2811.48C758.635 2827.12 731.608 2841.81 702.262 2852.45C690.909 2857.17 675.915 2855.6 660.762 2860.74C659.617 2860.9 658.993 2861.34 658.629 2861.48L658.583 2861.51H654.727L655.407 2865.79C658.918 2885.57 665.912 2915.13 688.376 2916.17C689.791 2916.17 691.207 2916.02 692.641 2915.78C706.304 2913.18 719.044 2906.48 731.71 2897.02C743.631 2888.08 755.72 2880.1 769 2872.51C765.21 2911.9 748.101 2932.25 723.384 2946.4C697.447 2961.16 662.774 2968.15 627.7 2979.59L626.201 2980.07L625.521 2981.48C625.111 2982.52 623.556 2984.13 623.5 2987.32V2989.42L625.316 2990.5C636.874 2997.12 653.852 2996.82 666.108 2998.56C670.653 2998.99 675.002 2999.2 679.295 2999.2C743.659 2999.12 791.492 2952.28 809.233 2906.11C816.749 2881.92 824.144 2857.94 831.557 2834.8C839.548 2830.01 847.446 2825.27 855.269 2821.33L855.492 2821.21ZM993.784 2929.83C986.827 2928.08 980.96 2927.25 974.478 2925.62L973.584 2929.21L974.273 2925.58C969.197 2924.6 964.205 2924.27 959.306 2924.27C948.857 2924.27 938.845 2925.69 929.113 2925.68C922.696 2925.68 916.382 2925.06 910.049 2923.14C904.033 2921.64 897.606 2917.71 891.059 2912.78C874.063 2900.59 859.115 2880.7 850.09 2865.03L849.047 2863.19H842.733H840.787L839.688 2864.8C836.651 2869.25 835.422 2874.46 835.422 2879.81C835.748 2907.92 867.106 2945.05 877.49 2959.98C880.582 2963.82 882.249 2968.03 885.993 2972.78C888.647 2976.35 892.587 2980.39 898.584 2982.4C902.803 2983.71 906.892 2984.3 910.859 2984.3H911.008C935.046 2984.14 953.84 2964.07 965.509 2956.73C968.378 2954.51 975.186 2951.46 981.509 2948.03C987.814 2944.43 994.175 2940.91 996.392 2934.49L997.5 2930.78L993.784 2929.83Z" fill="#00468C"/>
<path d="M785.567 3292.11L787.903 3294.98L785.315 3292.32C784.465 3293.16 783.605 3294.02 782.868 3294.75C780.131 3287.48 776.945 3278.7 776.889 3272.26C776.87 3271.31 776.898 3270.4 777.02 3269.59C780.018 3270.18 782.335 3270.84 783.942 3271.74C788.528 3274.25 791.938 3276.82 795.88 3279.55C793.825 3283.51 789.313 3289.13 785.567 3292.11ZM863.642 3325.49L867.089 3325.43L874.226 3326.73C874.908 3328.22 875.711 3329.83 876.776 3331.65C875.646 3334.4 875.468 3336.74 874.908 3337.79C872.825 3339.74 870.256 3340.79 867.631 3340.86C864.688 3340.88 861.55 3339.73 858.56 3336.45C859.102 3331.48 860.494 3329.37 863.642 3325.49ZM870.816 3266.74L870.882 3266.32L870.826 3265.85V3265.71C870.76 3263.88 871.788 3261.37 874.002 3258.52L871.087 3256.26L874.189 3258.27C885.772 3239.43 933.908 3223.73 957.784 3215.22C960.419 3214.72 961.661 3213.77 963.781 3213.77C965.351 3213.81 966.817 3214.08 969.031 3216.42C971.516 3219.75 972.469 3222.87 972.534 3226.03C972.646 3230.93 970.171 3236.3 966.593 3241.76C960.689 3251.77 953.88 3261.79 947.882 3271.07L947.752 3271.29L947.602 3271.63C940.279 3290.24 928.275 3329.63 907.388 3328.9C906.257 3328.92 905.09 3328.85 903.866 3328.66C901.017 3321.32 898.878 3314.59 896.72 3307.74L896.374 3306.7L895.552 3306.04C892.021 3303.14 888.229 3301.55 885.912 3299.57C883.567 3296.97 879.588 3291.43 876.533 3285.21C872.843 3278.83 870.835 3272.67 870.77 3268.17L870.816 3266.74ZM760.168 3443.48L799.71 3418.82L863.633 3378.18C867.08 3376.89 873.114 3376.65 879.317 3376.56C882.745 3376.83 886.893 3377.09 891.059 3377.03C897.094 3376.91 903.221 3376.13 908.369 3373.08C942.67 3354.01 955.654 3311.59 974.842 3282.17C982.287 3270.41 1008.73 3232.98 1008.5 3204.9C1008.4 3196.64 1005.6 3188.72 998.811 3183.34C992.048 3177.97 982.006 3175.27 967.873 3175.5L967.172 3175.52L966.518 3175.79C950.321 3182.85 910.312 3220.92 881.792 3229.95C885.445 3220.12 895.664 3210.88 906.145 3201.09C917.953 3189.86 930.274 3177.43 930.059 3159.76L930.012 3158.33L930.031 3158.05C929.583 3153.39 926.463 3150.76 922.493 3147.26C910.256 3137.33 885.594 3125.25 868.079 3123.45L865.361 3123.2L864.315 3125.7C861.447 3133.28 863.371 3144.9 862.25 3152.47L860.84 3155.34L847.015 3186.37C842.447 3196.65 839.215 3210.32 833.666 3221.2C827.986 3232.14 821.018 3239.6 808.164 3239.92C803.035 3240 796.814 3238.87 789.313 3236.03C786.931 3235.08 786.016 3235.1 784.642 3234.49C769.435 3227.24 760.878 3213.52 745.203 3203.96C738.618 3198.72 730.79 3197.24 724.587 3193.54C718.309 3190.06 711.528 3182.75 700.43 3181.85L696.404 3181.56L696.441 3183.58L692.275 3183.65L695.19 3189.01C699.655 3197.14 704.232 3206.17 708.753 3214.43C718.188 3237.11 730.724 3265.54 731.247 3291.76V3292.04C731.322 3296.56 731.724 3301.16 731.798 3305.49C731.929 3313.64 730.855 3319.93 725.726 3323.69L725.568 3323.82H725.381C708.968 3312.66 700.738 3290.4 670.099 3290.81C666.624 3290.86 662.878 3291.22 658.842 3291.91L657.693 3292.12L656.881 3292.92C656.535 3293.13 654.882 3294.89 654.994 3296.84L655.097 3297.95L655.283 3298.88L655.909 3299.62C668.118 3313.76 687.455 3344.97 689.379 3366.56C689.398 3371.13 688.613 3376.2 688.697 3381.57C688.744 3386.25 689.594 3391.3 692.565 3396.2L692.873 3396.74L693.396 3397.16C699.328 3402.02 705.25 3406.88 711.182 3411.75L712.695 3413.02L714.592 3412.44C719.514 3410.76 721.579 3406.42 723.316 3401.94C728.165 3388.21 730.808 3366.96 746.773 3360.71C754.75 3361.43 759.206 3366.96 767.678 3370.76L768.388 3371.05L769.182 3371.04C771.779 3370.76 772.741 3370.07 773.666 3370.12L775.964 3370.08L776.926 3368C779.365 3362.83 781.597 3356.99 783.858 3352.12L784.119 3351.55L784.175 3350.95C784.614 3346.75 785.763 3341.49 786.343 3335.95L792.825 3330.97L822.559 3308.43L824.791 3308.74C826.445 3311.17 828.696 3316.03 828.631 3319.37C828.64 3320.87 828.351 3321.96 827.771 3322.76L827.641 3322.95L827.519 3323.19L827.472 3323.13C826.492 3323.87 823.54 3325.06 821.737 3325.62L818.991 3326.5L819.243 3330.23L819.345 3331.79L820.597 3332.82C823.316 3334.84 826.632 3335.54 829.173 3336.13C830.312 3342.31 830.901 3347.78 833.133 3354.13L833.227 3354.42L833.404 3354.7C836.795 3360.02 843.857 3367.06 843.129 3368.1L843.035 3368.07L842.559 3368.44L842.25 3368.9C836.085 3378.33 812.452 3391.61 795.114 3399.98C792.125 3401.94 789.752 3403.42 787.762 3404.08L787.37 3404.2L787.062 3404.38C747.286 3427.42 707.67 3449.62 667.436 3472.71C651.706 3483.23 613.06 3488.67 612.5 3517.59C612.509 3518.41 612.556 3519.37 612.696 3520.4L612.864 3521.63L613.761 3522.54C622.925 3531.63 632.92 3539.86 643.691 3547.28C651.145 3551.07 660.038 3551.52 662.028 3554.64L663.784 3556.76L666.325 3555.67C692.752 3544.48 693.91 3530.23 700.58 3524.48C730.014 3498.67 764.708 3477.49 802.643 3458.71C811.293 3455.28 820.009 3450.98 828.593 3447.61C843.792 3440.88 860.989 3430.48 878.953 3430.23C880.242 3430.2 881.484 3430.23 882.745 3430.31L882.988 3430.33C882.745 3433.58 881.718 3436.83 880.643 3439.13C876.711 3446.92 867.631 3451.91 861.008 3459.31C851.265 3471.73 838.794 3483.44 827.099 3493.49C821.98 3497.37 811.256 3501.19 806.744 3508.97C805.642 3511.81 805.464 3514.21 805.502 3516.43C805.548 3519.21 805.903 3521.76 805.941 3523.81C805.969 3525.45 805.782 3526.66 805.427 3527.49L805.119 3528.21V3528.3L804.745 3528.72C798.888 3533.01 778.393 3539.27 771.079 3542.84C759.85 3549.79 748.127 3556.54 736.422 3561.59C710.79 3571.82 677.581 3572.77 659.039 3592.82L657.665 3594.32L658.217 3596.31C660.44 3603.08 669.286 3611.67 680.29 3620.17C691.35 3628.36 704.017 3635.61 714.853 3635.56C716.04 3635.56 717.142 3635.42 718.235 3635.24C733.545 3631.21 745.156 3619.73 754.068 3612.26C765.866 3602.53 792.013 3587.23 812.003 3582.18C813.367 3581.69 814.983 3581.5 816.842 3581.13C818.608 3585.91 819.504 3592.71 821.569 3599.35C823.288 3605.4 824.138 3610.86 824.222 3615.67C824.362 3626.86 820.616 3634.39 813.918 3640.3C805.165 3648.74 789.472 3653.24 771.49 3655.96C769.435 3656.24 767.155 3656.39 764.764 3656.44C756.871 3656.6 747.753 3655.51 739.029 3655.66C735.516 3655.72 732.041 3656 728.706 3656.66C727.053 3656.71 725.269 3658.37 725.11 3658.98L724.802 3659.53L721.467 3663.13L725.82 3665.36C737.833 3671.31 752.807 3672.72 762.84 3678.66C781.345 3689.15 797.188 3697.65 815.469 3708.06L815.889 3708.29L816.319 3708.41C817.178 3708.61 818.411 3709.19 820.392 3709.2H820.457C821.466 3709.18 822.811 3708.84 823.867 3707.9C838.327 3696.73 858.346 3659.18 858.168 3630.6C858.112 3627.21 857.757 3623.96 857.028 3620.9C853.479 3605.69 847.519 3589.82 847.313 3575.46C847.276 3573.2 847.351 3571.03 847.622 3568.94C848.556 3567.83 854.852 3564.75 860.971 3563.07C867.509 3561.07 874.628 3559.65 876.206 3559.63L907.005 3559.09L907.593 3558.87C920.97 3553.49 924.632 3539.71 929.947 3532.26L930.115 3532.03L930.265 3531.73C931.04 3530 931.423 3528.29 931.395 3526.71C931.217 3520.93 926.126 3518.65 926.024 3518.35L925.734 3518.1L925.398 3517.93C918.607 3514.19 911.106 3513.13 903.801 3513.26C898.691 3513.35 893.628 3513.98 888.817 3514.79C883.558 3515.7 879.214 3516.61 874.927 3517.49L836.664 3518.15L836.571 3518.03C835.74 3517.32 834.628 3514.05 834.665 3511.64L834.833 3509.74L834.908 3509.49C845.286 3499.69 865.37 3495.89 880.046 3486.07C882.269 3484.61 885.744 3482.88 888.621 3481.01C903.614 3468.78 916.327 3456.1 929.91 3444.37C936.019 3438.68 952.927 3426.48 953.114 3410.57C953.067 3407.13 952.039 3403.6 949.919 3400.35C944.865 3390.6 934.384 3387.44 924.211 3387.69C910.237 3387.98 895.328 3393.77 886.771 3398.45C884.557 3399.97 882.007 3400.71 879.457 3402.88C854.432 3415.51 826.408 3425.86 798.402 3437.1C787.977 3442.22 776.543 3446.57 766.67 3452.75C760.168 3455.85 738.291 3468.83 731.387 3468.92L731.247 3468.79C732.994 3458.57 749.603 3450.88 760.168 3443.48Z" fill="#00468C"/>
</svg>
