<svg width="1578" height="4190" viewBox="0 0 1578 4190" fill="none" xmlns="http://www.w3.org/2000/svg">
<rect width="1578" height="4189.12" fill="#00468C"/>
<path d="M794.236 923.523C794.236 923.523 795.542 919.787 796.516 919.135C808.677 913.424 817.894 927.591 814.35 928.733C811.642 929.619 789.333 946.552 789.333 946.552C787.17 935.865 794.236 923.523 794.236 923.523ZM1041.43 1196.91C1029.53 1197.66 1025.83 1197.66 1002.81 1199.87C979.807 1202.09 946.397 1202.09 942.682 1199.87C938.989 1197.66 924.88 1179.89 915.224 1166.58C905.579 1153.25 853.627 1087.38 840.257 1064.44C826.897 1041.51 800.916 980.075 800.916 980.075C800.916 980.075 822.454 960.837 860.296 939.378C898.149 917.908 901.125 906.815 902.613 899.416C904.101 892.018 904.829 883.135 888.515 890.534C872.179 897.932 835.075 897.196 832.089 897.196C829.123 897.196 822.454 895.701 815.763 900.89C809.083 906.068 799.331 903.164 799.331 903.164C799.331 903.164 794.236 900.153 794.236 892.744C794.236 885.345 780.137 871.295 780.137 871.295C795.724 877.21 835.814 852.046 849.902 837.985C864.011 823.914 892.957 798.75 903.352 786.91C913.747 775.091 925.619 780.269 935.274 757.326C941.462 742.614 938.058 754.07 943.068 738.386C948.067 722.703 943.068 721.283 934.493 717.706C925.908 714.14 912.323 719.842 898.727 721.988C885.143 724.123 867.983 727.678 860.125 729.13C852.246 730.539 856.55 730.539 838.661 741.226C820.784 751.934 794.332 759.771 770.01 770.468C745.71 781.166 733.549 783.301 726.398 783.301C719.247 783.301 713.53 781.166 705.662 793.999C700.513 802.39 706.979 809.8 713.049 815.319C720.456 822.067 723.657 827.437 729.438 835.465C734.212 842.095 742.969 843.483 747.133 851.031C747.133 851.031 739.993 850.316 729.267 851.031C718.529 851.736 721.388 866.715 721.388 875.277C721.388 883.818 722.105 910.21 719.953 918.762C717.823 927.313 718.529 939.431 718.529 950.844C718.529 962.246 712.588 993.399 712.588 993.399C702.194 1004.5 607.936 1061.48 591.6 1071.1C575.264 1080.72 541.875 1062.23 541.864 1062.23C530.206 1082.16 548.587 1120.57 562.482 1135.68C570.768 1144.69 582.586 1153.5 593.826 1158.43C612.389 1166.58 642.759 1155.53 663.591 1131.79C684.38 1108.09 710.362 1065.18 710.362 1065.18C713.327 1099.96 710.362 1122.9 679.927 1197.66C649.493 1272.4 609.413 1272.4 587.147 1278.32C564.88 1284.23 529.254 1281.27 526.278 1292.38C521.428 1310.49 581.205 1327.16 619.069 1319.76C643.616 1314.96 664.897 1291.29 680.998 1273.85C703.286 1249.74 726.355 1224.44 736.364 1192.48C744.661 1166 750.034 1138.33 755.226 1111.13C757.721 1098.06 760.183 1084.97 762.324 1071.84C767.516 1040.01 776.422 999.325 776.422 999.325C776.422 999.325 800.915 1108.85 816.502 1158.43C832.089 1208.01 872.179 1267.21 897.421 1273.88C922.643 1280.54 956.064 1251.68 964.221 1248.72C972.378 1245.75 1014.7 1229.46 1036.95 1221.34C1059.23 1213.19 1053.3 1196.16 1041.43 1196.91Z" fill="white"/>
<path d="M993.877 1833.88C993.098 1828.61 988.347 1823.3 983.996 1820.4C977.634 1816.16 967.679 1818.91 960.432 1817.93C941.271 1815.36 923.647 1808.88 905.719 1802.11C898.756 1799.49 884.43 1797.76 879.173 1792.21C877.161 1793.66 879.173 1792.21 879.173 1796.08C879.71 1798.08 883.703 1802.97 892.235 1816.32C902.78 1832.82 914.578 1846.87 909.416 1849.92C895.406 1858.18 879.173 1861.8 864.942 1869.8C860.043 1872.56 856.483 1874.51 852.027 1877.27C847.561 1880.03 845.78 1881.62 840.05 1881.54C834.32 1881.44 827.325 1877.7 823.48 1871.18C819.635 1864.65 819.266 1861.41 825.934 1857.89C832.634 1854.34 848.193 1843.32 847.476 1834.42C846.76 1825.53 843.484 1826.49 838.712 1821.56C833.961 1816.67 822.606 1838.09 823.606 1805.42C823.659 1803.89 823.048 1800.3 823.722 1799.65C824.365 1797.67 839.997 1794.45 841.778 1793.76C843.2 1792.95 845.148 1791.91 848.087 1790.4C855.419 1786.6 872.389 1778.57 878.32 1771.42C880.047 1769.32 881.206 1757.97 881.301 1756.03C881.427 1753.57 883.418 1748.43 873.327 1746.11C863.246 1743.79 866.985 1748.59 856.493 1753.25C845.991 1757.9 820.962 1764.87 820.962 1764.87C820.962 1764.87 820.425 1756.55 819.235 1748.85C818.95 1746.96 818.592 1744.63 818.687 1742.67L818.729 1741.85C818.729 1741.85 819.804 1733.21 832.834 1717.68C846.054 1701.88 901.379 1676.56 920.224 1669.02C939.069 1661.49 971.134 1649.28 977.55 1647.13C983.965 1644.97 982.753 1636.35 976.349 1627.74C970.176 1619.45 963.982 1625.38 957.093 1628.36C948.802 1631.98 939.417 1631.42 930.842 1634.06C922.109 1636.75 913.746 1640.99 905.392 1644.61C893.763 1649.64 870.893 1661.12 863.298 1663.63C855.682 1666.16 845.254 1673.33 840.05 1675.83C834.836 1678.35 834.836 1676.21 838.839 1666.5C842.852 1656.82 858.095 1652.87 864.099 1651.44C870.103 1649.99 878.91 1643.18 888.548 1635.64C903.075 1624.25 913.261 1608.84 924.659 1594.58C930.547 1587.22 937.352 1580.18 942.872 1572.6C947.233 1566.6 951.52 1559.71 952.869 1552.31C954.343 1544.21 950.309 1540.73 945.484 1534.77C937.036 1524.34 917.485 1532.59 907.078 1534.91C904.233 1535.54 900.241 1535.85 897.808 1537.57C891.656 1541.95 883.376 1557.54 873.306 1554.16C870.103 1553.08 870.504 1535.86 869.703 1525.8C868.902 1515.76 857.294 1509.65 845.254 1501.04C833.235 1492.43 816.791 1475.56 799.557 1475.56C782.313 1475.56 777.9 1509.29 776.699 1521.15C775.877 1529.19 776.214 1537.31 775.372 1545.34C774.592 1552.81 771.916 1559.78 770.631 1567.13C768.398 1579.92 775.645 1605.54 759.465 1611.95C755.852 1613.39 755.852 1619.13 753.061 1623.8C750.248 1628.46 739.019 1636.35 742.232 1642.11C745.445 1647.84 757.053 1636.71 759.465 1636.35C761.867 1636 765.48 1642.44 766.281 1643.88C769.673 1649.95 766.776 1661.91 766.955 1668.62C767.281 1680.33 769.873 1692.99 768.198 1704.64C767.26 1711.14 732.098 1716.1 721.438 1719.43C709.102 1724 721.122 1736.11 724.872 1742.58C726.304 1743.87 721.438 1744.58 760.392 1748.08C761.477 1748.18 761.762 1756.01 762.383 1759.43C763.521 1766.23 765.48 1773.29 765.269 1780.21C765.269 1780.21 747.035 1787.98 747.362 1794.05C747.688 1800.11 746.719 1805.34 754.63 1806.68C762.531 1808.01 767.766 1810.92 767.766 1810.92C767.766 1810.92 770.252 1817.44 770.958 1828.75C771.337 1834.6 769.641 1834.59 769.694 1835.98C769.82 1837.97 756.663 1842 754.704 1843.82C748.057 1850.06 750.332 1861.27 761.92 1869.54C766.239 1872.61 770.494 1868.01 772.928 1871.92C776.309 1877.32 770.737 1887.22 769.81 1889.31C766.597 1896.52 760.203 1908.12 749.089 1913.21C737.976 1918.28 727.221 1925.61 693.744 1926.47C688.877 1926.58 685.475 1931.93 684 1937.63C685.117 1941.13 685.928 1944.85 684.727 1949.97L685.801 1950.97C691.458 1954.29 699.327 1958.06 704.531 1963.39C709.682 1968.72 706.722 1972.72 720.195 1972.93C739.577 1973.24 740.746 1958.71 756.6 1959.37C772.454 1960.02 760.719 1973.97 760.603 1980.42C760.466 1987.2 753.292 1994.62 750.606 2000.61C743.664 2016.11 752.45 2035.75 761.941 2048.17C769.167 2057.6 786.79 2085.04 801.601 2073.97C807.416 2069.62 825.587 2041.23 831.054 2030.82C836.553 2020.39 838.881 2013.58 839.028 2005.48C839.186 1997.41 828.536 1931.02 833.477 1926.25C841.862 1918.15 859.569 1916.34 870.198 1912.35C889.128 1905.24 908.257 1896.93 926.555 1888.34C933.107 1885.27 939.49 1881.83 945.916 1878.52C953.911 1874.37 960.632 1868.18 968.543 1863.83C975.095 1860.21 984.586 1856.53 988.284 1849.52C991.507 1843.53 994.667 1839.13 993.877 1833.88ZM867.196 1589.61C871.736 1579.65 890.697 1573.01 890.697 1573.01C893.994 1582.6 880.395 1593.3 878.752 1595.15C877.108 1597.01 877.108 1599.95 876.276 1602.9C875.444 1605.87 868.839 1608.8 868.839 1608.8C868.839 1608.8 862.656 1599.58 867.196 1589.61Z" fill="white"/>
<path d="M719.426 1721.48L718.709 1720.8L717.054 1718.98C715.051 1715.77 700.599 1713.96 699.903 1710.31C697.826 1699.72 687.485 1695.84 681.381 1695.71C675.277 1695.56 664.367 1690.7 660.814 1688.71C657.251 1686.7 645.044 1683.87 639.109 1679.7C633.195 1675.51 636.189 1660.86 635.461 1656.24C634.576 1650.48 640.447 1641.6 642.819 1636.7C649.134 1623.7 663.112 1610.56 677.755 1607.84C688.296 1605.87 697.531 1605.68 702.949 1594.8C715.863 1568.86 686.525 1550.25 665.98 1543.85C655.67 1540.66 650.568 1536.64 644.97 1535.11C639.372 1533.58 621.715 1529.11 614.135 1526.28C606.545 1523.46 592.367 1518.44 586.136 1524.22C579.885 1529.99 587.96 1535.95 602.455 1548.91C609.276 1555 613.766 1561.54 615.189 1570.58C616.518 1578.94 617.119 1584.02 623.17 1590.38C630.496 1598.08 636.832 1603.82 636.6 1615.23C636.347 1627.25 627.808 1653.82 625.383 1658.61C622.98 1663.34 617.92 1666.03 615.179 1670.59C604.057 1689.14 607.715 1704.83 618.362 1722.16C626.849 1736 632.773 1762.84 634.333 1775.22C635.893 1787.59 630.38 1817.77 628.24 1826.64C626.09 1835.49 621.209 1853.91 616.128 1884.67C611.057 1915.44 608.833 1921.44 605.723 1921.93C602.634 1922.4 597.722 1936.1 596.088 1941.41C594.148 1947.77 600.241 1958.02 601.232 1964.5C603.225 1977.67 600.399 2007.12 622.727 2001.96C644.105 1996.99 641.755 1990.81 648.185 1966.46C653.203 1947.46 661.046 1936.06 664.577 1915.65C668.088 1895.23 671.925 1894.94 672.336 1888.57C672.747 1882.2 670.428 1874.04 670.502 1856.36C670.576 1838.68 670.787 1810.57 670.628 1800.51C670.481 1790.43 672.031 1782.31 673.549 1769.45C675.077 1756.59 684.828 1749.09 693.03 1745.29C695.802 1744.01 719.563 1740.33 722.547 1739.87C723.833 1739.65 721.882 1736.87 722.757 1735.9L719.858 1734.07C719.468 1730.75 721.081 1727.07 720.997 1726.9L720.523 1724.84C720.27 1723.49 720.196 1722.4 719.426 1721.48ZM659.855 1796.09C660.066 1801.07 644.633 1856.57 641.438 1861.07C638.213 1865.56 637.675 1865.65 636.99 1861.26C636.305 1856.85 639.625 1845.82 643.515 1824.17C647.447 1802.53 660.751 1783.92 660.751 1783.92C661.731 1790.29 659.633 1791.11 659.855 1796.09Z" fill="white"/>
<path d="M831.488 2455.41L831.776 2455.23C840.761 2448.92 856.108 2442.13 871.573 2434.41L869.686 2430.65L871.679 2434.36C894.935 2421.57 924.66 2403.95 934.657 2386.7L934.998 2386.09L935.136 2385.41L935.296 2383.34C934.678 2373.72 925.736 2368.46 915.878 2362.93C905.806 2357.59 893.624 2352.95 884.33 2349.31C883.392 2349.01 863.014 2343.7 855.596 2341.83L855.096 2341.7H854.573C853.305 2341.57 851.28 2342.51 850.534 2343.88C849.713 2345.17 849.713 2346.16 849.703 2346.92C849.916 2351.05 852.079 2355.35 854.136 2361.1C856.204 2366.5 858.101 2372.52 858.037 2375.3L857.888 2376.54C855.255 2384.19 832.32 2399.07 819.701 2405.75C825.648 2357.8 853.561 2320.34 859.455 2271.58L859.636 2270.03L858.783 2268.75C847.528 2252.7 806.4 2224.3 781.545 2222.65L779.67 2222.56L778.337 2223.91C776.909 2225.45 776.685 2226.77 776.408 2227.47L776.248 2227.94L775.758 2228.42L775.438 2229.42C773.541 2235.42 772.923 2241.73 772.923 2248.14C772.944 2261.75 775.577 2276.05 775.545 2289.6C775.545 2294.52 775.204 2299.3 774.341 2303.95C765.772 2351.61 760.048 2399.02 748.89 2444.3C720.646 2462.16 689.717 2478.92 656.134 2491.07C643.142 2496.45 625.983 2494.67 608.642 2500.53C607.331 2500.71 606.617 2501.21 606.202 2501.37L606.148 2501.41H601.736L602.514 2506.29C606.532 2528.86 614.536 2562.61 640.243 2563.8C641.863 2563.8 643.483 2563.62 645.124 2563.35C660.759 2560.38 675.339 2552.74 689.834 2541.94C703.476 2531.73 717.31 2522.63 732.508 2513.96C728.171 2558.92 708.592 2582.15 680.306 2598.3C650.624 2615.14 610.944 2623.13 570.807 2636.18L569.091 2636.72L568.313 2638.34C567.844 2639.52 566.064 2641.36 566 2645.01V2647.4L568.078 2648.63C581.305 2656.19 600.734 2655.85 614.76 2657.83C619.961 2658.33 624.938 2658.56 629.851 2658.56C703.508 2658.46 758.247 2605 778.551 2552.31C787.151 2524.7 795.614 2497.34 804.098 2470.92C813.242 2465.46 822.28 2460.04 831.233 2455.55L831.488 2455.41ZM989.747 2579.39C981.786 2577.39 975.072 2576.44 967.654 2574.58L966.63 2578.67L967.419 2574.53C961.611 2573.41 955.898 2573.04 950.292 2573.04C938.334 2573.04 926.877 2574.66 915.739 2574.65C908.396 2574.65 901.17 2573.95 893.922 2571.75C887.037 2570.04 879.683 2565.56 872.191 2559.92C852.74 2546.01 835.634 2523.31 825.307 2505.43L824.113 2503.32H816.887H814.659L813.402 2505.16C809.927 2510.24 808.521 2516.18 808.521 2522.3C808.894 2554.38 844.779 2596.75 856.662 2613.8C860.201 2618.18 862.108 2622.99 866.393 2628.41C869.43 2632.48 873.939 2637.1 880.802 2639.38C885.63 2640.89 890.309 2641.56 894.85 2641.56H895.02C922.528 2641.38 944.036 2618.46 957.39 2610.08C960.673 2607.55 968.464 2604.08 975.7 2600.16C982.916 2596.05 990.195 2592.04 992.732 2584.7L994 2580.47L989.747 2579.39Z" fill="white"/>
<path d="M750.978 2995.68L753.65 2998.96L750.69 2995.93C749.717 2996.89 748.734 2997.86 747.89 2998.71C744.759 2990.39 741.115 2980.35 741.051 2972.99C741.03 2971.9 741.062 2970.86 741.201 2969.94C744.631 2970.61 747.281 2971.36 749.119 2972.4C754.366 2975.26 758.266 2978.2 762.776 2981.32C760.425 2985.85 755.263 2992.28 750.978 2995.68ZM840.291 3033.85L844.235 3033.78L852.399 3035.27C853.179 3036.96 854.098 3038.81 855.316 3040.89C854.023 3044.03 853.82 3046.71 853.179 3047.91C850.796 3050.15 847.857 3051.34 844.854 3051.42C841.488 3051.45 837.898 3050.13 834.478 3046.38C835.098 3040.7 836.69 3038.29 840.291 3033.85ZM848.498 2966.68L848.573 2966.2L848.509 2965.66V2965.5C848.434 2963.41 849.61 2960.53 852.142 2957.28L848.808 2954.7L852.356 2957C865.606 2935.46 920.671 2917.51 947.984 2907.77C950.998 2907.2 952.419 2906.11 954.845 2906.11C956.64 2906.15 958.318 2906.46 960.85 2909.15C963.693 2912.95 964.783 2916.52 964.857 2920.13C964.986 2925.74 962.154 2931.87 958.061 2938.12C951.308 2949.57 943.518 2961.01 936.657 2971.63L936.508 2971.88L936.337 2972.27C927.959 2993.54 914.227 3038.58 890.334 3037.75C889.041 3037.77 887.705 3037.69 886.305 3037.48C883.046 3029.09 880.599 3021.39 878.13 3013.55L877.735 3012.37L876.795 3011.61C872.755 3008.3 868.417 3006.48 865.767 3004.21C863.085 3001.24 858.532 2994.91 855.038 2987.79C850.817 2980.5 848.52 2973.46 848.445 2968.32L848.498 2966.68ZM721.923 3168.75L767.157 3140.56L840.281 3094.09C844.224 3092.62 851.127 3092.34 858.222 3092.24C862.144 3092.55 866.889 3092.85 871.655 3092.78C878.558 3092.64 885.568 3091.75 891.456 3088.26C930.694 3066.46 945.548 3017.96 967.497 2984.32C976.014 2970.87 1006.27 2928.08 1006 2895.98C1005.88 2886.53 1002.69 2877.47 994.917 2871.32C987.18 2865.18 975.693 2862.09 959.525 2862.36L958.724 2862.38L957.976 2862.69C939.446 2870.76 893.678 2914.29 861.054 2924.62C865.232 2913.37 876.923 2902.81 888.912 2891.62C902.419 2878.78 916.514 2864.56 916.268 2844.36L916.215 2842.72L916.236 2842.41C915.723 2837.08 912.154 2834.07 907.613 2830.07C893.614 2818.71 865.403 2804.9 845.367 2802.85L842.258 2802.56L841.061 2805.43C837.78 2814.08 839.982 2827.37 838.699 2836.03L837.086 2839.31L821.27 2874.79C816.045 2886.54 812.348 2902.17 806 2914.61C799.503 2927.12 791.531 2935.65 776.828 2936.01C770.961 2936.11 763.844 2934.81 755.263 2931.56C752.538 2930.47 751.491 2930.51 749.92 2929.8C732.524 2921.52 722.735 2905.82 704.804 2894.9C697.271 2888.91 688.316 2887.21 681.221 2882.98C674.04 2879 666.282 2870.64 653.587 2869.62L648.981 2869.29L649.024 2871.59L644.258 2871.68L647.592 2877.81C652.7 2887.09 657.936 2897.42 663.108 2906.87C673.901 2932.8 688.241 2965.3 688.84 2995.29V2995.61C688.925 3000.77 689.385 3006.03 689.47 3010.98C689.62 3020.3 688.391 3027.49 682.524 3031.79L682.343 3031.94H682.129C663.354 3019.18 653.939 2993.72 618.889 2994.2C614.914 2994.26 610.629 2994.67 606.013 2995.46L604.699 2995.69L603.769 2996.61C603.374 2996.85 601.482 2998.87 601.61 3001.09L601.728 3002.36L601.942 3003.42L602.658 3004.27C616.624 3020.44 638.744 3056.12 640.945 3080.8C640.967 3086.03 640.069 3091.82 640.165 3097.97C640.219 3103.32 641.191 3109.09 644.589 3114.69L644.942 3115.31L645.54 3115.79C652.326 3121.35 659.101 3126.91 665.886 3132.48L667.617 3133.92L669.787 3133.26C675.418 3131.34 677.78 3126.38 679.767 3121.25C685.313 3105.56 688.337 3081.26 706.6 3074.12C715.725 3074.93 720.823 3081.26 730.515 3085.6L731.327 3085.93L732.235 3085.92C735.206 3085.6 736.307 3084.82 737.364 3084.88L739.993 3084.83L741.094 3082.45C743.883 3076.54 746.437 3069.87 749.023 3064.3L749.322 3063.65L749.386 3062.96C749.888 3058.15 751.203 3052.14 751.865 3045.81L759.281 3040.12L793.295 3014.35L795.849 3014.7C797.74 3017.48 800.315 3023.04 800.241 3026.85C800.251 3028.56 799.92 3029.81 799.257 3030.72L799.108 3030.95L798.969 3031.21L798.915 3031.15C797.793 3031.99 794.417 3033.36 792.354 3033.99L789.213 3035.01L789.501 3039.26L789.619 3041.05L791.051 3042.22C794.16 3044.54 797.954 3045.33 800.86 3046.02C802.164 3053.07 802.837 3059.34 805.391 3066.6L805.498 3066.93L805.701 3067.25C809.58 3073.33 817.659 3081.38 816.825 3082.57L816.718 3082.54L816.173 3082.95L815.821 3083.49C808.768 3094.26 781.732 3109.44 761.899 3119.02C758.48 3121.25 755.766 3122.95 753.49 3123.7L753.041 3123.84L752.688 3124.04C707.187 3150.39 661.868 3175.77 615.844 3202.17C597.849 3214.2 553.641 3220.42 553 3253.49C553.011 3254.43 553.064 3255.52 553.224 3256.7L553.417 3258.1L554.443 3259.14C564.926 3269.54 576.359 3278.95 588.68 3287.44C597.208 3291.77 607.381 3292.28 609.657 3295.85L611.666 3298.26L614.572 3297.02C644.803 3284.23 646.128 3267.94 653.758 3261.36C687.429 3231.85 727.117 3207.64 770.512 3186.16C780.407 3182.25 790.377 3177.33 800.198 3173.47C817.584 3165.78 837.257 3153.89 857.806 3153.6C859.28 3153.57 860.702 3153.6 862.144 3153.7L862.422 3153.72C862.144 3157.44 860.969 3161.15 859.74 3163.78C855.241 3172.68 844.854 3178.39 837.278 3186.86C826.133 3201.05 811.867 3214.44 798.488 3225.93C792.632 3230.36 780.365 3234.74 775.203 3243.63C773.942 3246.88 773.739 3249.63 773.782 3252.16C773.836 3255.33 774.242 3258.25 774.284 3260.59C774.316 3262.48 774.103 3263.85 773.697 3264.81L773.344 3265.63V3265.74L772.917 3266.21C766.216 3271.11 742.772 3278.27 734.404 3282.36C721.56 3290.3 708.149 3298.02 694.76 3303.79C665.437 3315.49 627.449 3316.58 606.237 3339.49L604.667 3341.22L605.297 3343.49C607.84 3351.23 617.96 3361.06 630.548 3370.77C643.2 3380.14 657.69 3388.42 670.086 3388.37C671.443 3388.37 672.704 3388.21 673.954 3387.99C691.468 3383.39 704.751 3370.27 714.945 3361.73C728.442 3350.6 758.352 3333.1 781.22 3327.33C782.78 3326.77 784.628 3326.56 786.755 3326.13C788.775 3331.6 789.8 3339.38 792.162 3346.97C794.128 3353.88 795.101 3360.13 795.197 3365.62C795.357 3378.42 791.072 3387.03 783.41 3393.79C773.397 3403.43 755.445 3408.58 734.875 3411.69C732.524 3412.01 729.916 3412.18 727.181 3412.24C718.151 3412.42 707.722 3411.18 697.741 3411.35C693.723 3411.42 689.748 3411.74 685.933 3412.49C684.042 3412.55 682.001 3414.44 681.819 3415.15L681.466 3415.78L677.651 3419.89L682.631 3422.44C696.373 3429.24 713.503 3430.85 724.979 3437.65C746.148 3449.64 764.272 3459.36 785.184 3471.26L785.665 3471.52L786.156 3471.66C787.14 3471.89 788.55 3472.55 790.816 3472.56H790.89C792.044 3472.54 793.583 3472.15 794.791 3471.07C811.333 3458.3 834.232 3415.37 834.029 3382.69C833.965 3378.82 833.559 3375.1 832.726 3371.61C828.665 3354.21 821.847 3336.06 821.612 3319.65C821.57 3317.07 821.655 3314.59 821.965 3312.19C823.034 3310.93 830.236 3307.4 837.235 3305.48C844.715 3303.19 852.858 3301.58 854.664 3301.55L889.896 3300.94L890.569 3300.68C905.871 3294.53 910.06 3278.78 916.14 3270.26L916.333 3269.99L916.503 3269.65C917.39 3267.67 917.829 3265.71 917.797 3263.91C917.593 3257.3 911.77 3254.69 911.652 3254.35L911.321 3254.07L910.936 3253.87C903.167 3249.59 894.587 3248.39 886.23 3248.54C880.385 3248.63 874.593 3249.36 869.09 3250.29C863.074 3251.33 858.105 3252.36 853.2 3253.37L809.43 3254.13L809.324 3253.99C808.373 3253.18 807.101 3249.43 807.144 3246.69L807.336 3244.51L807.421 3244.23C819.294 3233.01 842.268 3228.67 859.056 3217.45C861.599 3215.77 865.574 3213.79 868.866 3211.67C886.017 3197.67 900.56 3183.18 916.097 3169.77C923.086 3163.26 942.428 3149.31 942.641 3131.12C942.588 3127.19 941.412 3123.16 938.987 3119.44C933.206 3108.29 921.216 3104.67 909.579 3104.96C893.593 3105.29 876.538 3111.91 866.75 3117.27C864.217 3119.01 861.3 3119.85 858.383 3122.33C829.755 3136.77 797.697 3148.61 765.661 3161.46C753.735 3167.32 740.656 3172.29 729.361 3179.35C721.923 3182.89 696.897 3197.74 689 3197.83L688.84 3197.7C690.838 3186 709.838 3177.21 721.923 3168.75Z" fill="white"/>
</svg>
