<svg width="1642" height="4047" viewBox="0 0 1642 4047" fill="none" xmlns="http://www.w3.org/2000/svg">
<rect width="1641.8" height="4046.4" fill="white"/>
<path d="M1230.3 748.699C1230.3 521.43 1046.06 337.199 818.8 337.199C591.528 337.199 407.3 521.43 407.3 748.699C407.3 975.969 591.528 1160.2 818.8 1160.2C1046.06 1160.2 1230.3 975.969 1230.3 748.699ZM1193.67 665.248L1213.16 687.187L1201.04 711.998L1217.69 736.136L1202.61 759.247L1216.13 785.281L1198.37 806.339L1208.58 833.821L1188.33 852.58L1195.16 881.114L1172.76 897.233L1176 926.366L1151.75 939.591L1151.4 968.958L1125.75 979.096L1121.77 1008.17L1095.08 1015.11L1087.55 1043.43L1060.22 1047.03L1049.3 1074.26L1021.72 1074.46L1007.52 1100.14L980.12 1096.95L962.868 1120.63L936.072 1114.1L916.039 1135.54L890.244 1125.76L867.712 1144.56L843.316 1131.68L818.701 1147.59L796.045 1131.82L769.676 1144.53L749.124 1126.11L721.36 1135.49L703.253 1114.68L674.538 1120.55L659.124 1097.71L629.912 1100.04L617.437 1075.43L588.126 1074.13L578.793 1048.18L549.892 1043.29L543.804 1016.39L515.692 1008.02L512.944 980.562L486.085 968.787L486.736 941.19L461.507 926.176L465.548 898.873L442.37 880.928L449.755 854.321L428.969 833.612L439.548 808.158L421.453 785.073L435.076 761.062L419.922 735.931L436.388 713.768L424.471 686.986L443.532 667.022L435.006 638.942L456.362 621.525L451.319 592.597L474.677 577.921L473.277 548.595L498.221 536.917L500.41 507.65L526.603 499.063L532.388 470.339L559.477 465.047L568.697 437.216L596.235 435.319L608.791 408.842L636.336 410.334L652.093 385.605L679.237 390.447L697.925 367.857L724.265 375.99L745.605 355.832L770.688 367.217L794.313 349.818L817.912 364.193L843.488 349.83L865.084 366.994L892.199 355.873L911.566 375.548L939.868 367.92L956.641 389.781L985.692 385.69L999.666 409.448L1028.98 408.954L1039.9 434.259L1069.07 437.354L1076.8 463.849L1105.35 470.484L1109.79 497.69L1137.31 507.81L1138.36 535.366L1164.44 548.777L1162.08 576.281L1186.36 592.79L1180.62 619.795L1202.64 639.146L1193.67 665.248ZM1201.87 688.735L1182.92 667.405L1191.63 642.066L1170.21 623.247L1175.78 597.041L1152.17 580.997L1154.46 554.296L1129.11 541.257L1128.09 514.508L1101.34 504.667L1097.03 478.272L1069.26 471.819L1061.76 446.094L1033.4 443.089L1022.8 418.527L994.305 419.007L980.741 395.948L952.486 399.924L936.214 378.706L908.694 386.122L889.908 367.042L863.542 377.858L842.582 361.199L817.718 375.157L794.813 361.21L771.836 378.129L747.484 367.083L726.746 386.665L701.185 378.769L683.008 400.738L656.669 396.033L641.346 420.089L614.623 418.635L602.411 444.383L575.683 446.228L566.723 473.277L540.42 478.417L534.796 506.341L509.381 514.672L507.251 543.143L483.034 554.482L484.393 582.994L461.737 597.231L466.637 625.356L445.911 642.267L454.195 669.558L435.701 688.935L447.284 714.973L431.304 736.482L446.038 760.917L432.817 784.229L450.413 806.682L440.148 831.388L460.356 851.513L453.193 877.332L475.725 894.775L471.801 921.285L496.332 935.883L495.699 962.665L521.813 974.109L524.48 1000.75L551.81 1008.89L557.727 1035.01L585.835 1039.77L594.89 1064.96L623.378 1066.22L635.485 1090.1L663.878 1087.83L678.846 1110.01L706.765 1104.29L724.341 1124.49L751.328 1115.38L771.276 1133.25L796.915 1120.89L818.895 1136.2L842.837 1120.72L866.52 1133.22L888.428 1114.95L913.455 1124.44L932.936 1103.59L958.947 1109.93L975.72 1086.91L1002.3 1090L1016.11 1065.03L1042.88 1064.84L1053.5 1038.37L1080.03 1034.87L1087.35 1007.34L1113.26 1000.6L1117.13 972.327L1142.01 962.494L1142.35 933.93L1165.89 921.095L1162.73 892.781L1184.48 877.142L1177.84 849.4L1197.5 831.18L1187.57 804.461L1204.8 784.02L1191.66 758.704L1206.28 736.281L1190.1 712.816L1201.87 688.735ZM1178.85 748.621C1178.85 947.513 1017.86 1108.75 819.286 1108.75C620.704 1108.75 459.72 947.513 459.72 748.621C459.72 549.722 620.704 388.487 819.286 388.487C1017.86 388.487 1178.85 549.722 1178.85 748.621ZM1076.51 919.73C1086.7 926.157 1095.64 928.266 1101.82 928.723C1103.27 926.44 1104.7 924.138 1106.11 921.824C1099.34 920.831 1090.73 917.964 1081.35 912.05C1071 905.523 1064.25 898.107 1060.63 892.037L1060.47 892.305C1059.15 894.511 1057.81 896.705 1056.43 898.877C1059.3 904.452 1065.19 912.515 1076.51 919.73ZM1086.74 890.498L1108.68 917.48C1110.63 914.133 1112.52 910.752 1114.36 907.338L1115 906.07L1105.57 897.218C1102.69 894.596 1100.4 892.417 1097.79 890.152L1097.86 890.033C1101.43 890.743 1104.26 891.29 1108.24 891.907L1121 894.172L1122.23 891.74C1123.74 888.545 1125.19 885.324 1126.61 882.074L1091.52 879.742L1072.38 870.09C1070.69 873.627 1068.91 877.123 1067.08 880.575L1086.74 890.498ZM1118.06 871.403L1129.43 875.379C1130.32 873.2 1131.18 871.009 1132.02 868.811L1138.62 849.936C1139.36 847.574 1140.09 845.198 1140.79 842.817L1129.43 838.849L1125.73 849.456L1086.17 835.632C1084.95 839.388 1083.65 843.111 1082.28 846.797L1121.83 860.617L1118.06 871.403ZM1090.36 821.469L1143.03 834.475L1145.87 823.005L1093.16 809.992C1092.31 813.845 1091.37 817.668 1090.36 821.469ZM1145.79 810.821C1147.79 808.158 1149.51 804.651 1150.27 799.422C1151.88 788.439 1146.39 781.722 1137.01 780.294C1129.13 779.093 1123.46 783.18 1119.23 790.064C1116.46 794.665 1114.69 796.376 1112.09 795.978C1109.4 795.565 1108.03 793.378 1108.61 789.372C1109.24 785.043 1111.53 780.967 1113.57 778.572L1102.15 774.589C1100.21 776.798 1097.74 781.64 1096.97 786.873C1095.12 799.593 1102.14 806.678 1111.29 808.073C1118.7 809.203 1124.34 806.432 1128.95 799.139C1132.27 794.033 1133.71 791.879 1136.39 792.285C1138.75 792.642 1140.05 794.821 1139.53 798.377C1138.89 802.769 1136.92 805.77 1135.62 807.489L1145.79 810.821ZM1150.09 767.258C1152.15 765.123 1153.97 763.375 1154.02 758.793C1154.07 754.877 1154.13 754.542 1154.16 752.411C1154.2 748.599 1154.17 744.798 1154.08 741.012C1153.97 739.974 1153.83 739.029 1153.68 738.185L1099.65 737.278C1099.8 741.164 1099.87 745.062 1099.87 748.978L1119.85 749.313L1119.82 751.206C1119.76 754.862 1118.34 756.472 1111.72 757.54C1105.64 758.603 1101.6 759.541 1099.63 760.177C1099.47 764.294 1099.21 768.385 1098.88 772.454C1101.1 771.639 1109.02 770.349 1114.62 769.084C1119.38 768.05 1122.91 766.544 1124.51 763.628L1124.84 763.636C1126.33 767.12 1131.16 771.319 1138.02 771.431C1143.4 771.52 1147.35 770.021 1150.09 767.258ZM1143.71 753.698C1143.55 757.614 1141.23 759.73 1137.07 759.656C1132.99 759.593 1130.25 756.997 1130.33 752.556L1130.39 749.484L1143.45 749.707C1143.6 750.295 1143.74 751.477 1143.71 753.698ZM1141.78 726.901L1153.4 725.584C1153.16 722.062 1152.86 718.563 1152.51 715.081L1151.4 705.344C1151.06 702.603 1150.66 699.87 1150.25 697.147L1096.22 703.299C1097.78 712.924 1098.86 722.713 1099.42 732.64L1111.14 731.308L1109.14 713.724L1119.2 712.582L1120.98 728.281L1132.83 726.938L1131.05 711.236L1139.88 710.224L1141.78 726.901ZM1093.53 689.017L1149.06 689.958C1148.33 685.878 1147.53 681.817 1146.67 677.789L1124.3 678.347C1118.28 678.473 1111.79 678.778 1104.95 679.306L1104.92 679.184C1111.57 676.48 1117.16 673.906 1122.77 671.057L1142.69 661.421L1142.47 660.506C1141.42 656.682 1140.31 652.885 1139.14 649.11L1090.15 675.133C1091.38 679.719 1092.51 684.346 1093.53 689.017ZM1086.12 661.599L1137.41 643.71C1136.17 639.957 1134.88 636.234 1133.52 632.545L1082.21 650.438C1083.59 654.127 1084.89 657.843 1086.12 661.599ZM1080.43 645.796L1129.62 622.522C1128.28 619.197 1126.87 615.89 1125.41 612.617L1113.65 618.166C1106.18 621.692 1099.36 625.211 1093.08 628.904L1092.99 628.729C1097.98 624.199 1103.53 618.758 1107.45 614.235L1119.8 600.634C1117.75 596.476 1115.61 592.355 1113.4 588.294L1064.21 611.565C1065.96 614.7 1067.65 617.873 1069.3 621.086L1080.9 615.589C1088.94 611.784 1096.42 608.11 1103.02 604.692L1103.11 604.87C1097.94 609.62 1092.53 615.362 1088.29 620.119L1075.5 634.055C1077.22 637.923 1078.88 641.835 1080.43 645.796ZM1083.71 594.356L1107.71 578.285C1105.73 574.923 1103.68 571.606 1101.58 568.325L1101.51 568.214L1075.56 585.515C1068.3 590.362 1063.43 590.86 1060.82 586.947C1058.24 583.091 1060.92 578.561 1067.84 573.941L1093.77 556.647C1091.52 553.415 1089.2 550.228 1086.82 547.078L1063.21 562.888C1048.48 572.718 1045.13 582.562 1051.83 592.615C1058.69 602.88 1069.58 603.777 1083.71 594.356ZM1056.18 531.301L1065.65 525.078C1065.01 522.486 1062.73 518.388 1058.51 514.2C1048.36 504.121 1033.92 502.544 1020.42 516.067C1014.84 521.687 1011.93 527.332 1011.4 533.707C1010.9 539.873 1013.17 545.928 1019.34 552.043C1023.42 556.093 1029.04 559.143 1032.33 560.456L1052.93 540.045L1040.69 527.898L1032.63 536.017L1036.81 540.149L1030.14 546.877C1029.6 546.683 1028.32 545.753 1027.2 544.645C1022.05 539.535 1022.5 531.583 1029.74 524.283C1037.62 516.342 1045.22 517.209 1050.37 522.315C1053.94 525.859 1055.33 528.627 1056.18 531.301ZM999.118 533.086L1031.12 489.08C1028.34 486.8 1025.53 484.565 1022.67 482.382L1015.1 492.792C1010.25 499.461 1005.94 505.817 1002.2 512.084L1002.05 511.965C1004.25 505.597 1006.51 498.155 1007.77 492.312L1012.05 474.568C1008.26 471.886 1004.41 469.29 1000.51 466.769L968.503 510.771C971.554 512.694 974.554 514.672 977.522 516.703L985.137 506.23C990.37 499.037 995.161 492.223 999.315 486.064L999.469 486.176C997.233 492.818 995.23 500.457 993.783 506.665L989.215 525.164C992.581 527.73 995.877 530.371 999.118 533.086ZM966.647 509.108L980.237 454.667C975.607 452.119 970.911 449.672 966.15 447.343L929.75 489.913C933.543 491.542 937.285 493.242 940.99 495.027L948.639 485.406L958.721 490.642L955.523 502.57C959.283 504.671 962.996 506.847 966.647 509.108ZM968.156 459.855C967.235 463.053 965.916 467.427 965.068 470.484L962.316 480.188L955.066 476.42L961.26 468.602C963.27 466.148 965.96 462.391 968.039 459.795L968.156 459.855ZM930.466 466.914L955.169 442.211C951.189 440.437 947.173 438.741 943.117 437.116L935.22 447.496C932.903 450.627 930.978 453.13 928.99 455.957L928.865 455.912C929.198 452.279 929.461 449.404 929.669 445.376L930.612 432.455L929.172 431.905C925.474 430.618 921.758 429.394 918.001 428.234L919.284 463.258L911.632 483.323C915.337 484.614 919.01 485.986 922.639 487.436L930.466 466.914ZM898.385 479.053L912.721 426.65C908.943 425.549 905.142 424.522 901.312 423.544L886.977 475.955C890.81 476.907 894.618 477.945 898.385 479.053ZM888.965 432.697L891 421.112C888.42 420.547 885.826 420.011 883.224 419.505L871.571 417.452C868.662 416.991 865.749 416.571 862.822 416.188L853.391 469.737C863.246 470.945 872.948 472.66 882.46 474.866L884.488 463.332L867.061 460.264L868.815 450.289L884.382 453.034L886.447 441.292L870.887 438.555L872.429 429.792L888.965 432.697ZM849.188 445.283C852.101 442.345 853.877 437.536 854.184 431.987C854.491 426.371 852.74 421.361 849.897 418.423C846.992 415.321 843.005 414.116 836.68 413.77C829.964 413.398 824.873 413.194 821.639 413.666L818.646 467.621H818.8C822.666 467.621 826.518 467.706 830.347 467.862L831.345 449.854C832.054 449.977 833.092 450.114 834.202 450.181C840.137 450.508 845.384 449.08 849.188 445.283ZM842.552 431.674C842.297 436.398 839.26 439.176 834.626 438.923C833.391 438.849 832.613 438.722 831.97 438.611L832.744 424.589C833.34 424.455 834.517 424.362 836.278 424.455C840.714 424.705 842.783 427.594 842.552 431.674ZM815.12 467.55C811.656 461.324 808.513 451.933 808.002 439.697C807.53 428.554 809.368 419.736 811.86 413.395C809.123 413.45 806.405 413.54 803.686 413.655C801.044 419.263 798.552 428.089 799.001 440.072C799.564 453.48 803.668 462.681 807.088 467.866C808.078 467.829 809.08 467.788 810.081 467.758L815.12 467.55ZM770.209 449.471L778.486 415.697C774.638 416.162 770.805 416.686 766.972 417.281L765.58 417.534L764.205 430.402C763.847 434.285 763.493 437.421 763.263 440.861L763.131 440.887C761.534 437.61 760.266 435.018 758.355 431.466L752.464 419.933L749.782 420.42C746.322 421.145 742.872 421.923 739.433 422.756L758.742 452.141L762.594 473.236C766.442 472.452 770.297 471.753 774.163 471.139L770.209 449.471ZM738.052 479.399L725.204 439.514L736.083 436.011L732.395 424.552C730.119 425.155 727.853 425.791 725.591 426.441L706.553 432.571C704.225 433.4 701.897 434.259 699.573 435.137L703.26 446.585L713.952 443.141L726.801 483.033C730.532 481.735 734.277 480.53 738.052 479.399ZM712.98 488.236L691.563 438.38L680.703 443.044L702.127 492.93C705.723 491.286 709.337 489.716 712.98 488.236ZM664.891 462.949C668.779 460.811 672.36 460.573 674.516 460.573L671.044 450.453C667.708 450.467 663.878 451.208 659.245 453.763C649.521 459.104 647.471 467.531 651.988 475.873C655.784 482.884 662.472 484.937 670.515 484.156C675.85 483.591 678.283 483.978 679.537 486.287C680.827 488.679 679.906 491.092 676.365 493.041C672.532 495.146 667.902 495.786 664.759 495.604L668.475 507.122C671.41 507.323 676.76 506.382 681.393 503.834C692.663 497.631 694.07 487.76 689.666 479.626C686.096 473.039 680.48 470.209 671.889 470.934C665.812 471.366 663.221 471.518 661.923 469.134C660.787 467.033 661.744 464.682 664.891 462.949ZM646.053 495.637C647.931 492.338 648.363 485.956 644.314 480.418C641.138 476.067 637.561 473.828 633.705 473.311C630.76 472.954 628.272 472.552 624.581 475.282C621.434 477.61 621.128 477.755 619.414 479.024C616.344 481.289 613.329 483.609 610.362 485.956C609.602 486.685 608.93 487.362 608.356 487.991L640.239 531.624C643.236 529.158 646.309 526.752 649.433 524.387L637.641 508.249L639.168 507.133C642.117 504.976 644.255 505.132 649.104 509.781C653.621 513.977 656.811 516.632 658.503 517.815C661.883 515.468 665.3 513.199 668.746 511.016C666.751 509.737 660.948 504.191 656.555 500.495C652.872 497.322 649.532 495.41 646.247 495.898L646.053 495.637ZM633.903 497.936L631.425 499.747L623.715 489.203C624.098 488.723 624.946 487.894 626.74 486.588C629.956 484.338 633.044 484.915 635.5 488.277C637.908 491.572 637.488 495.31 633.903 497.936ZM594.379 515.859L606.536 504.284L598.479 495.823C595.818 498.137 593.198 500.48 590.633 502.86L583.536 509.621C581.563 511.552 579.615 513.512 577.701 515.487L615.197 554.862C621.931 547.803 629.094 541.038 636.673 534.603L628.535 526.06L615.723 538.263L608.736 530.936L620.185 520.035L611.966 511.407L600.518 522.308L594.379 515.859ZM605.444 565.629L572.694 520.775C569.87 523.818 567.114 526.901 564.421 530.025L578.366 547.524C582.097 552.247 586.251 557.231 590.805 562.371L590.721 562.475C584.552 558.8 579.126 555.896 573.469 553.14L553.769 543.072L553.177 543.801C550.754 546.94 548.39 550.12 546.091 553.326L596.407 576.701C599.315 572.945 602.326 569.255 605.444 565.629ZM588.046 588.078L542.825 557.967C540.581 561.214 538.396 564.495 536.28 567.808L581.508 597.923C583.609 594.605 585.787 591.317 588.046 588.078ZM578.877 602.14L530.627 576.958C528.796 580.041 527.009 583.161 525.273 586.297L536.802 592.337C544.118 596.156 551.036 599.477 557.778 602.256L557.69 602.43C551.068 601.181 543.369 600.039 537.405 599.648L519.105 598.001C517.022 602.148 515.03 606.332 513.127 610.553L561.37 635.743C562.806 632.448 564.319 629.183 565.89 625.939L554.503 620C546.614 615.879 539.174 612.141 532.468 608.935L532.556 608.76C539.459 610.006 547.301 610.858 553.663 611.379L572.486 613.168C574.529 609.452 576.659 605.778 578.877 602.14ZM535.874 630.57L508.573 621.127C507.097 624.731 505.683 628.372 504.331 632.024L504.287 632.147L533.736 642.401C541.984 645.268 545.328 648.85 543.782 653.294C542.254 657.675 537.033 658.274 529.169 655.537L499.734 645.294C498.524 649.051 497.373 652.822 496.295 656.615L523.146 665.906C539.879 671.723 549.749 668.45 553.721 657.039C557.774 645.38 551.913 636.149 535.874 630.57ZM544.359 687.727L490.576 679.477C489.838 682.981 489.155 686.51 488.53 690.062L501.32 692.026C509.476 693.279 517.099 694.183 524.378 694.641L524.345 694.834C517.68 695.79 510.028 697.196 504.258 698.754L486.498 703.094C485.877 707.676 485.347 712.288 484.912 716.926L538.703 725.186C538.999 721.586 539.36 718.008 539.795 714.449L527.005 712.485C518.21 711.135 509.958 710.001 502.577 709.131L502.606 708.937C509.542 707.888 517.234 706.166 523.424 704.601L541.9 700.193C542.627 696.006 543.446 691.851 544.359 687.727ZM538.253 731.375L483.984 729.159C483.757 733.079 483.6 737.013 483.513 740.963L537.782 743.187C537.858 739.23 538.012 735.295 538.253 731.375ZM516.481 749.834L483.432 751.124C483.461 755.078 483.556 759.02 483.721 762.94L516.923 761.642C524.352 761.356 526.527 763.755 526.665 767.541C526.739 769.434 526.406 771.271 525.978 772.729L537.614 773.581C538.41 771.331 538.695 768.113 538.6 765.7C538.206 755.13 532.143 749.22 516.481 749.834ZM538.991 775.537L485.303 784.415C485.68 788 486.114 791.574 486.608 795.122L499.35 793.014C507.488 791.671 515.012 790.157 522.079 788.335L522.109 788.524C516.065 791.507 509.231 795.219 504.232 798.496L488.698 808.151L488.928 809.549C489.681 813.659 490.51 817.742 491.409 821.8L545.097 812.922C544.283 809.434 543.53 805.912 542.846 802.371L530.126 804.476C521.345 805.927 513.152 807.414 505.866 808.887L505.833 808.69C512.096 805.54 518.878 801.504 524.272 798.094L540.471 788.153C539.887 783.976 539.393 779.769 538.991 775.537ZM545.978 816.578L497.826 846.239C499.357 851.282 500.998 856.273 502.763 861.209L558.965 856.076C557.394 852.279 555.903 848.437 554.496 844.554L542.338 846.087L538.79 835.29L549.369 829.03C548.145 824.917 547.012 820.766 545.978 816.578ZM531.456 848.013L521.553 849.27C518.4 849.616 513.861 850.423 510.554 850.821L510.51 850.698C513.408 849.054 517.409 846.849 520.157 845.265L528.906 840.255L531.456 848.013ZM560.157 858.922L510.66 881.304C512.217 884.922 513.846 888.515 515.524 892.074L565.028 869.696C563.336 866.14 561.713 862.551 560.157 858.922ZM529.081 892.521L518.612 898.419C523.768 908.74 529.443 918.749 535.6 928.433L546.026 922.557L540.508 912.772L577.043 892.156C575.029 888.768 573.089 885.343 571.214 881.873L534.694 902.473L529.081 892.521ZM604.406 984.199C602.074 985.873 607.519 993.642 612.715 996.432C616.085 998.243 620.897 997.499 624.497 996.993C629.47 996.294 634.655 995.532 638.942 992.716C642.494 990.38 645.823 987.625 649.079 984.906C650.646 983.593 652.207 982.287 653.734 980.934C657.443 977.664 662.45 973.707 662.45 973.707C662.45 973.707 654.699 989.06 651.724 996.446C648.75 1003.83 647.734 1014.73 650.069 1017.97C652.404 1021.2 659.157 1021.02 660.411 1021.46C661.66 1021.9 668.245 1024.07 671.666 1025.27C675.09 1026.46 676.043 1023.87 674.563 1022.81C673.091 1021.74 672.652 1021.38 669.718 1019.41C666.78 1017.45 662.837 1014.21 662.614 1013.58C662.387 1012.97 662.45 1009.49 662.603 1006.98C662.757 1004.47 663.02 991.623 663.666 987.61C664.317 983.597 667.215 973.8 667.215 973.8C667.215 973.8 671.633 973.603 678.185 974.734C684.748 975.857 686.173 974.83 687.068 974.094C687.963 973.365 688.914 972.383 686.272 971.68C683.619 970.97 679.307 967.292 678.948 967.002C678.605 966.711 677.955 965.889 676.665 965.856C675.367 965.823 674.498 964.532 674.498 964.532C674.498 964.532 674.191 963.68 674.911 962.806C675.63 961.929 675.327 958.894 675.327 958.894C676.595 961.107 683.776 962.01 686.812 961.713C689.845 961.412 695.714 961.229 698.089 960.835C700.465 960.441 701.364 962.207 704.736 960.419C706.9 959.28 705.383 960.303 707.499 958.935C709.615 957.562 709.158 956.908 708.493 955.651C707.828 954.397 705.668 953.757 703.852 952.694C702.043 951.626 699.664 950.388 698.597 949.796C697.527 949.205 698.035 949.618 694.885 949.149C691.727 948.688 687.843 947.055 683.926 945.966C680.016 944.88 678.367 943.954 677.523 943.254C676.683 942.566 676.211 941.756 674.037 942.514C672.612 943.013 672.66 944.515 672.842 945.757C673.058 947.275 672.912 948.223 672.82 949.737C672.74 950.983 673.639 951.998 673.398 953.296C673.398 953.296 672.619 952.519 671.282 951.563C669.948 950.607 668.826 952.66 667.997 953.676C667.167 954.684 664.686 957.886 663.604 958.689C662.519 959.492 661.426 960.999 660.316 962.353C659.208 963.699 655.481 966.819 655.481 966.819C653.168 967.128 636.494 964.744 633.629 964.301C630.76 963.859 628.619 958.432 628.619 958.432C625.301 959.664 623.737 965.997 623.912 969.136C624.014 971.007 624.555 973.194 625.403 974.871C626.81 977.635 631.473 979.271 636.241 978.468C640.999 977.679 648.242 975.109 648.242 975.109C645.213 979.524 642.633 981.949 631.772 987.863C620.912 993.772 616.172 989.886 612.968 988.428C609.763 986.97 605.838 983.165 604.406 984.199ZM669.1 968.705C669.882 967.228 671.921 966.451 671.921 966.451L672.616 966.15C674.611 966.659 674.319 969.226 673.792 969.017C673.383 968.861 669.1 968.705 669.1 968.705ZM671.666 835.338C718.21 918.116 792.054 955.554 810.516 964.208L818.8 967.489L827.084 964.208C845.545 955.554 919.386 918.116 965.952 835.338C986.369 798.778 994.112 759.652 995.109 723.397L995.131 722.642H995.146L995.588 706.624C995.588 706.624 975.209 700.368 969.128 696.311C959.821 690.111 957.248 682.784 961.765 673.311C966.073 664.262 990.607 656.653 990.607 656.653L986.5 638.019C986.23 636.814 985.956 635.613 985.678 634.419H985.671C975.57 590.641 961.33 560.991 960.825 559.924L952.56 542.719L935.439 548.762C924.955 552.485 914.596 553.999 904.583 553.999C866.473 554.337 832.613 523.189 831.089 521.809L818.8 512.359L806.492 521.809H806.514C804.987 523.189 771.13 554.337 733.02 553.999C723 553.999 712.659 552.485 702.149 548.762L685.04 542.719L676.767 559.924C676.255 561.013 661.24 592.273 651.103 638.019L647 656.653C647 656.653 671.527 664.262 675.842 673.311C680.355 682.784 677.783 690.111 668.483 696.311C662.398 700.368 642.019 706.624 642.019 706.624L642.479 723.397C643.495 759.652 651.231 798.778 671.666 835.338ZM681.726 828.811C662.556 794.494 655.196 757.648 654.224 723.014L654.019 715.569L660.568 713.136C670.2 709.577 678.031 704.247 683.14 698.408C688.292 692.532 690.679 686.51 690.682 680.578C690.682 680.229 690.679 679.887 690.653 679.578C690.397 674.538 688.49 669.726 684.689 664.991C680.893 660.305 675.166 655.905 667.968 652.591L660.728 649.229L662.548 640.935C672.334 596.684 686.981 566.231 687.2 565.748L690.887 558.09L698.488 560.79C710.284 564.974 721.893 566.644 733.053 566.644H733.32C774.836 566.644 809.536 535.016 813.063 532.312L813.333 532.108L818.8 527.939L824.263 532.108L824.563 532.312C828.067 535.02 862.921 566.793 904.568 566.644C915.707 566.644 927.309 564.974 939.123 560.79L946.713 558.09L950.4 565.748C950.615 566.205 963.869 593.768 973.582 634.531C973.802 635.423 974.01 636.32 974.222 637.224C974.302 637.577 974.383 637.934 974.467 638.287C974.584 638.819 974.701 639.347 974.821 639.883C974.905 640.232 974.982 640.582 975.055 640.935L975.903 644.792L976.871 649.229L969.632 652.591C962.437 655.905 956.714 660.305 952.921 664.991C949.117 669.726 947.21 674.538 946.958 679.578C946.936 679.887 946.921 680.229 946.921 680.578C946.936 686.51 949.315 692.532 954.463 698.408C959.576 704.247 967.41 709.577 977.039 713.136L983.584 715.569L983.427 721.672L983.383 723.014C982.396 757.648 975.055 794.494 955.863 828.811C911.603 907.833 839.768 944.556 822.483 952.571L818.8 953.772L815.12 952.571C797.839 944.556 726.004 907.833 681.726 828.811ZM663.623 722.706C664.562 756.045 671.607 791.046 689.787 823.6C732.238 899.624 802.476 935.768 818.807 943.262C818.807 943.262 895.126 917.927 947.776 823.6C965.974 791.046 973.016 756.045 973.977 722.706C951.653 714.457 936.627 697.683 937.537 679.05C938.25 663.864 949.391 650.918 965.89 643.297C956.385 600.232 942.028 570.408 942.028 570.408C877.823 593.129 818.807 540.342 818.807 540.342C818.807 540.342 759.729 593.129 695.553 570.408C695.553 570.408 681.196 600.232 671.695 643.297C688.172 650.918 699.321 663.864 700.041 679.05C700.896 697.683 685.888 714.457 663.623 722.706ZM835.993 639.909C835.993 646.622 835.222 652.725 834.195 658.642C833.746 661.22 831.502 663.039 828.977 663.039L828.052 662.957C825.165 662.455 823.229 659.706 823.733 656.82C824.705 651.226 825.374 645.815 825.374 639.909C825.366 631.079 823.897 621.034 819.385 607.611C818.449 604.829 819.947 601.817 822.717 600.883C825.494 599.946 828.509 601.441 829.445 604.223C834.257 618.486 835.997 629.845 835.993 639.909ZM853.289 639.161C853.289 645.049 852.667 650.475 851.79 655.89C850.913 661.309 849.791 666.721 848.739 672.72C846.978 682.814 845.37 694.871 845.37 712.024C845.37 729.222 847 751.526 851.834 781.789C852.295 784.686 850.325 787.409 847.427 787.874L846.594 787.941C844.029 787.941 841.767 786.073 841.354 783.466C836.453 752.772 834.754 729.902 834.754 712.024C834.754 694.217 836.453 681.344 838.288 670.89C839.377 664.694 840.484 659.297 841.31 654.198C842.139 649.092 842.673 644.294 842.673 639.161C842.666 630.652 841.208 621.075 836.68 607.611C835.745 604.829 837.243 601.817 840.02 600.883C842.797 599.946 845.805 601.441 846.747 604.223C851.545 618.449 853.296 629.365 853.289 639.161ZM870.591 639.909C870.591 646.622 869.82 652.725 868.793 658.642C868.337 661.22 866.097 663.039 863.568 663.039L862.647 662.957C859.764 662.455 857.827 659.706 858.328 656.82C859.303 651.226 859.972 645.815 859.972 639.909C859.965 631.079 858.499 621.034 853.979 607.611C853.044 604.829 854.546 601.817 857.319 600.883C860.096 599.946 863.104 601.441 864.039 604.223C868.852 618.486 870.599 629.845 870.591 639.909ZM901.645 788.186C898.714 788.186 896.335 785.806 896.335 782.882V717.543H879.614C876.614 717.543 874.172 715.171 874.172 712.236C874.172 709.305 876.614 706.929 879.614 706.929H896.335V686.298H879.614C876.614 686.298 874.172 683.918 874.172 680.984C874.172 678.053 876.614 675.68 879.614 675.68H896.335V654.942H879.614C876.614 654.942 874.172 652.565 874.172 649.635C874.172 646.704 876.614 644.324 879.614 644.324H886.195C886.316 642.609 886.396 640.88 886.396 639.109C886.392 630.789 884.942 621.35 880.403 607.749C879.467 604.948 880.962 601.91 883.739 600.969C886.524 600.024 889.531 601.527 890.463 604.331C895.254 618.665 897.015 629.458 897.015 639.109C897.015 640.891 896.942 642.62 896.832 644.324H906.125C906.016 642.62 905.95 640.891 905.95 639.109C905.942 629.458 907.7 618.665 912.491 604.331C913.43 601.527 916.445 600.024 919.218 600.969C921.995 601.91 923.494 604.948 922.555 607.749C918.023 621.35 916.569 630.789 916.569 639.109C916.569 640.88 916.638 642.609 916.763 644.324H923.351C926.351 644.324 928.785 646.704 928.785 649.635C928.785 652.565 926.351 654.942 923.351 654.942H906.951V675.68H923.351C926.351 675.68 928.785 678.053 928.785 680.984C928.785 683.918 926.351 686.298 923.351 686.298H906.951V706.929H923.351C926.351 706.929 928.785 709.305 928.785 712.236C928.785 715.171 926.351 717.543 923.351 717.543H906.951V782.882C906.951 785.806 904.583 788.186 901.645 788.186ZM863.696 867.587C864.485 865.211 867.193 863.905 869.696 864.645C871.41 865.159 873.73 865.389 876.46 865.549C876.902 865.579 877.374 865.579 877.83 865.579C881.2 865.605 884.755 864.809 887.189 863.444C889.645 862.02 890.916 860.48 891.26 858.129C891.311 857.676 891.34 857.244 891.34 856.861C891.208 853.659 889.977 852.469 887.273 850.992C884.602 849.668 880.564 849.099 877.684 849.11C876.383 849.11 875.287 849.229 874.9 849.315V849.304C873.431 849.828 871.764 849.642 870.467 848.809C869.155 847.954 868.366 846.581 868.395 845.06L868.611 826.126C868.677 823.682 870.8 821.677 873.416 821.677H892.327C894.972 821.677 897.117 823.693 897.117 826.163C897.117 828.651 894.972 830.644 892.327 830.644H878.159L878.028 840.14C881.971 840.203 886.992 840.816 891.68 843.029C896.478 845.194 901.038 850.118 900.929 856.861C900.929 857.62 900.878 858.416 900.79 859.23C900.088 864.683 896.379 868.829 892.056 871.158C887.733 873.538 882.672 874.527 877.83 874.557C877.165 874.557 876.511 874.527 875.832 874.505C872.974 874.308 869.955 874.096 866.849 873.188C864.299 872.456 862.906 869.934 863.696 867.587ZM861.065 769.523C858.437 769.523 856.153 767.57 855.806 764.896C853.066 743.727 852.05 726.22 852.05 711.846C852.05 702.113 852.514 693.815 853.234 686.793H853.241C853.53 683.877 856.139 681.754 859.051 682.055C861.975 682.352 864.094 684.956 863.791 687.872C863.115 694.518 862.662 702.451 862.662 711.846C862.662 725.718 863.648 742.771 866.338 763.531C866.711 766.444 864.661 769.103 861.755 769.478L861.065 769.523ZM819.728 835.974C819.841 826.769 828.626 820.305 838.463 820.29C846.108 820.298 853.095 824.233 855.883 830.302L856.387 831.098C856.552 831.485 858.149 835.041 858.149 840.511C858.284 849.359 853.413 863.072 833.483 873.921C832.726 874.338 831.875 874.557 831.049 874.557C829.419 874.557 827.815 873.772 826.909 872.363C825.578 870.217 826.328 867.479 828.604 866.207C838.463 860.666 843.521 855.143 846.049 850.286C843.714 851.171 841.12 851.647 838.463 851.673C828.626 851.647 819.841 845.194 819.728 835.974ZM817.451 711.846C817.451 702.113 817.915 693.815 818.635 686.793C818.931 683.877 821.541 681.754 824.453 682.055C827.376 682.352 829.496 684.956 829.2 687.872C828.516 694.518 828.067 702.451 828.067 711.846C828.067 725.718 829.046 742.771 831.739 763.531C832.112 766.444 830.062 769.103 827.157 769.478L826.466 769.523C823.835 769.523 821.559 767.57 821.212 764.896C818.467 743.727 817.451 726.22 817.451 711.846ZM770.648 858.635C770.648 853.897 773.275 849.75 776.959 847.024L777.171 846.901C773.743 844.208 771.375 840.24 771.375 835.743C771.375 831.113 773.853 827.055 777.412 824.355C781.011 821.61 785.718 820.06 790.834 820.06C795.935 820.06 800.667 821.61 804.238 824.355C807.822 827.055 810.307 831.113 810.307 835.743C810.307 840.24 807.932 844.208 804.512 846.89L804.709 847.024C808.407 849.75 811.038 853.897 811.038 858.635C811.038 863.366 808.407 867.524 804.709 870.232C800.978 872.984 796.129 874.531 790.834 874.557C785.543 874.531 780.69 872.984 776.959 870.232C773.275 867.524 770.648 863.366 770.648 858.635ZM771.211 603.568L771.222 603.572C772.395 600.88 775.519 599.663 778.205 600.846C780.883 602.025 782.097 605.149 780.927 607.834L780.924 607.842L780.916 607.86L780.843 608.043C780.774 608.214 780.661 608.482 780.518 608.861C780.229 609.612 779.805 610.776 779.287 612.357C778.256 615.511 776.864 620.305 775.49 626.735C775.205 628.074 774.916 629.499 774.638 630.986C776.677 632.876 778.475 635.089 780.098 637.521C782.429 641.036 784.402 645.019 786.142 649.274C789.61 657.787 792.128 667.431 793.998 676.576C797.74 694.849 798.881 711.12 798.895 711.277C799.114 714.371 796.918 717.071 793.998 717.298L793.6 717.317C790.852 717.317 788.521 715.07 788.316 712.113L788.298 711.834C788.28 711.641 788.258 711.347 788.228 710.957C788.163 710.176 788.06 709.038 787.918 707.591C787.629 704.697 787.172 700.588 786.5 695.779C785.166 686.172 782.944 673.728 779.572 662.715C777.569 656.154 775.124 650.111 772.406 645.555C771.101 656.333 770.261 669.384 770.524 684.722C770.98 710.484 774.543 742.652 784.297 781.097C785.013 783.939 783.299 786.832 780.46 787.55C780.054 787.654 779.645 787.706 779.243 787.714C776.835 787.758 774.635 786.14 774.01 783.708C764.07 744.493 760.387 711.503 759.919 684.911C758.991 631.723 770.94 604.167 771.211 603.568ZM749.526 825.322C749.526 822.853 751.69 820.844 754.321 820.844C756.963 820.844 759.126 822.853 759.126 825.322V870.068C759.126 872.56 756.963 874.557 754.321 874.557C751.69 874.557 749.526 872.56 749.526 870.068V825.322ZM708.826 711.277C708.833 711.18 709.326 704.125 710.718 694.135C712.118 684.141 714.398 671.221 718.06 659.241C720.515 651.252 723.552 643.673 727.627 637.521C729.242 635.089 731.04 632.876 733.075 630.986C730.221 615.909 726.918 608.136 726.793 607.842C725.617 605.157 726.834 602.025 729.516 600.846C732.194 599.663 735.322 600.88 736.503 603.572C736.773 604.167 748.726 631.723 747.798 684.911C747.33 711.503 743.65 744.493 733.704 783.708C733.09 786.144 730.879 787.758 728.478 787.714C728.072 787.706 727.667 787.654 727.258 787.55C724.422 786.832 722.704 783.939 723.421 781.097C733.17 742.652 736.74 710.484 737.19 684.722C737.456 669.387 736.62 656.329 735.315 645.555C734.117 647.559 732.965 649.854 731.891 652.357C728.953 659.167 726.589 667.487 724.78 675.691C721.144 692.104 719.719 708.045 719.448 711.444C719.423 711.901 719.405 712.113 719.405 712.113C719.196 715.07 716.869 717.317 714.117 717.317L713.715 717.298C710.799 717.071 708.61 714.371 708.826 711.277ZM780.248 858.635C780.248 860.205 781.063 861.785 782.923 863.221C784.783 864.604 787.626 865.601 790.834 865.601C794.057 865.601 796.9 864.604 798.756 863.221C800.62 861.785 801.449 860.205 801.449 858.635C801.449 857.047 800.62 855.463 798.756 854.046C796.9 852.655 794.057 851.662 790.834 851.662H790.797C787.611 851.662 784.783 852.655 782.923 854.046C781.063 855.463 780.248 857.047 780.248 858.635ZM798.186 840.203C799.948 838.842 800.719 837.305 800.719 835.743C800.719 834.166 799.948 832.634 798.197 831.28C796.45 829.949 793.838 829.019 790.834 829.019H790.819C787.83 829.019 785.21 829.949 783.496 831.28C781.739 832.634 780.964 834.166 780.964 835.743C780.964 837.305 781.739 838.842 783.496 840.203C785.21 841.516 787.856 842.46 790.834 842.46C793.838 842.46 796.451 841.516 798.186 840.203ZM831.714 831.437C830.099 832.776 829.306 834.326 829.284 835.974C829.306 837.633 830.099 839.169 831.714 840.5C833.322 841.795 835.708 842.698 838.463 842.698C841.167 842.698 843.565 841.795 845.202 840.5C846.817 839.169 847.61 837.633 847.617 835.974C847.61 834.326 846.817 832.776 845.202 831.437C843.565 830.161 841.167 829.253 838.463 829.253H838.441C835.693 829.253 833.322 830.161 831.714 831.437ZM727.948 1053.23C727.733 1055.3 726.15 1059.61 729.71 1059.71C733.115 1059.8 733.002 1058.78 734.924 1055.37C736.422 1052.71 738.049 1051.31 739.382 1048.38C740.705 1045.45 741.293 1045.56 741.608 1044.62C741.915 1043.68 741.889 1042.36 742.591 1039.7C743.296 1037.06 744.432 1032.84 744.802 1031.32C745.178 1029.8 745.722 1028.64 746.461 1026.77C747.191 1024.89 748.945 1024.15 750.33 1023.9C750.798 1023.82 754.507 1024.2 754.979 1024.24L755.143 1024.75C755.311 1025 754.547 1024.92 760.266 1026.97C760.427 1027.03 760.157 1028.22 760.12 1028.76C760.025 1029.83 760.043 1030.96 759.736 1032C759.736 1032 756.696 1032.45 756.506 1033.38C756.309 1034.31 755.965 1035.06 757.102 1035.57C758.231 1036.07 758.903 1036.72 758.903 1036.72C758.903 1036.72 759.024 1037.8 758.688 1039.53C758.512 1040.42 758.256 1040.36 758.209 1040.57C758.15 1040.87 756.02 1040.96 755.651 1041.16C754.409 1041.84 754.306 1043.62 755.724 1045.31C756.254 1045.95 757.072 1045.42 757.288 1046.1C757.58 1047.05 756.353 1048.33 756.133 1048.6C755.37 1049.56 753.948 1051.06 752.081 1051.39C750.21 1051.72 748.31 1052.4 743.245 1051.21C742.507 1051.04 741.783 1051.71 741.337 1052.51C741.367 1053.08 741.345 1053.67 740.961 1054.4L741.082 1054.59C741.809 1055.31 742.843 1056.19 743.413 1057.2C743.976 1058.2 743.376 1058.69 745.39 1059.25C748.295 1060.05 749.037 1057.91 751.397 1058.63C753.751 1059.35 751.441 1060.99 751.174 1061.96C750.886 1062.97 749.512 1063.81 748.876 1064.61C747.224 1066.67 747.776 1069.97 748.712 1072.21C749.428 1073.92 750.999 1078.74 753.659 1077.65C754.705 1077.22 758.549 1073.66 759.784 1072.31C761.015 1070.95 761.633 1070.02 761.976 1068.81C762.309 1067.6 763.318 1057.19 764.253 1056.66C765.828 1055.77 768.569 1056.19 770.315 1056.01C773.44 1055.68 776.641 1055.18 779.725 1054.6C780.836 1054.4 781.929 1054.13 783.025 1053.88C784.388 1053.57 785.641 1052.9 787.004 1052.56C788.13 1052.27 789.697 1052.09 790.531 1051.18C791.251 1050.4 791.894 1049.86 791.989 1049.04C792.076 1048.22 791.572 1047.23 791.028 1046.63C790.246 1045.74 788.634 1045.76 787.585 1045.33C784.808 1044.2 782.415 1042.53 779.988 1040.8C779.042 1040.14 776.952 1039.31 776.389 1038.28C776.023 1038.41 776.389 1038.28 776.235 1038.85C776.235 1039.18 776.641 1040.07 777.401 1042.41C778.333 1045.31 779.564 1047.89 778.662 1048.15C776.235 1048.84 773.655 1048.75 771.2 1049.39C770.352 1049.62 769.738 1049.77 768.967 1050.01C768.185 1050.25 767.852 1050.42 766.994 1050.19C766.139 1049.95 765.232 1049.11 764.911 1047.98C764.589 1046.85 764.659 1046.34 765.806 1046.07C766.95 1045.8 769.72 1044.75 769.968 1043.38C770.206 1042.02 769.676 1042.03 769.146 1041.1C768.631 1040.18 766.08 1042.96 767.513 1038.08L767.761 1037.22L770.699 1037.04C770.948 1036.97 771.284 1036.9 771.784 1036.78C773.038 1036.49 775.899 1035.96 777.076 1035.11C777.416 1034.86 778.033 1033.2 778.125 1032.91C778.241 1032.54 778.742 1031.85 777.317 1031.1C775.892 1030.36 776.268 1031.22 774.503 1031.52C772.745 1031.81 768.711 1031.87 768.711 1031.87C768.711 1031.87 768.956 1030.6 769.08 1029.4L769.241 1028.44L769.281 1028.32C769.281 1028.32 769.778 1027.06 772.347 1025.24C774.96 1023.37 784.264 1021.73 787.392 1021.34C790.52 1020.94 795.818 1020.36 796.867 1020.29C797.92 1020.22 798.077 1018.87 797.448 1017.32C796.845 1015.83 795.687 1016.48 794.532 1016.66C793.14 1016.88 791.758 1016.43 790.363 1016.49C788.941 1016.55 787.52 1016.86 786.124 1017.08C784.18 1017.38 780.291 1018.21 779.049 1018.29C777.807 1018.37 775.958 1019.04 775.073 1019.22C774.196 1019.39 774.277 1019.07 775.263 1017.76C776.246 1016.46 778.691 1016.47 779.648 1016.49C780.613 1016.51 782.199 1015.83 783.946 1015.06C786.577 1013.92 788.714 1012.01 790.984 1010.3C792.16 1009.42 793.461 1008.63 794.587 1007.71C795.475 1006.98 796.392 1006.11 796.882 1005.05C797.426 1003.88 796.958 1003.2 796.465 1002.12C795.606 1000.21 792.339 1000.69 790.684 1000.63C790.238 1000.62 789.621 1000.5 789.19 1000.66C788.09 1001.08 786.237 1003.11 784.856 1002.2C784.417 1001.92 785.159 999.34 785.433 997.797C785.707 996.249 784.201 994.877 782.725 993.11C781.256 991.336 779.447 988.153 776.856 987.479C774.269 986.803 772.278 991.704 771.631 993.449C771.2 994.62 770.922 995.855 770.483 997.034C770.071 998.131 769.398 999.072 768.912 1000.13C768.079 1001.97 768.163 1006.11 765.477 1006.44C764.878 1006.52 764.648 1007.38 764.048 1007.98C763.442 1008.56 761.443 1009.31 761.699 1010.3C761.955 1011.29 764.14 1010.07 764.512 1010.11C764.893 1010.16 765.185 1011.27 765.247 1011.51C765.514 1012.56 764.615 1014.25 764.377 1015.27C763.964 1017.04 763.855 1019.05 763.142 1020.74C762.747 1021.68 757.273 1021.05 755.538 1021.13L755.15 1021.23L755.143 1021.23L754.971 1020.89C754.796 1020.33 752.698 1019.49 752.731 1018.91C752.841 1017.24 751.434 1016.26 750.528 1015.99C749.614 1015.73 748.167 1014.57 747.707 1014.13C747.25 1013.7 745.532 1012.8 744.805 1011.93C744.082 1011.07 745.105 1008.99 745.178 1008.27C745.269 1007.37 746.497 1006.26 747.049 1005.62C748.503 1003.91 751.12 1002.49 753.426 1002.65C755.085 1002.77 756.477 1003.1 757.723 1001.68C760.672 998.291 756.999 994.341 754.167 992.575C752.738 991.693 752.132 990.89 751.354 990.44C750.575 989.99 748.094 988.625 747.071 987.903C746.04 987.186 744.104 985.876 742.945 986.501C741.779 987.119 742.755 988.335 744.425 990.849C745.214 992.024 745.631 993.192 745.488 994.605C745.357 995.911 745.251 996.696 745.912 997.893C746.709 999.336 747.44 1000.44 746.954 1002.15C746.446 1003.95 744.118 1007.6 743.57 1008.23C743.022 1008.85 742.156 1009.05 741.571 1009.63C739.17 1011.98 739.105 1014.48 740.025 1017.5C740.756 1019.91 740.592 1024.18 740.343 1026.1C740.091 1028.02 738.081 1032.34 737.413 1033.59C736.74 1034.83 735.286 1037.41 733.313 1041.83C731.35 1046.25 730.78 1047.07 730.291 1047.02C729.815 1046.97 728.537 1048.84 728.08 1049.57C727.539 1050.45 728.061 1052.23 727.948 1053.23ZM782.542 1007.3C783.617 1005.98 786.727 1005.72 786.727 1005.72C786.844 1007.3 784.381 1008.37 784.063 1008.59C783.741 1008.8 783.628 1009.25 783.39 1009.66C783.138 1010.07 782.038 1010.25 782.038 1010.25C782.038 1010.25 781.472 1008.62 782.542 1007.3ZM737.365 1039.13C737.438 1038.44 738.37 1036.92 739.802 1033.81C741.242 1030.72 743.968 1028.44 743.968 1028.44C743.866 1029.44 743.519 1029.48 743.358 1030.24C743.194 1030.99 738.699 1038.72 738.045 1039.27C737.387 1039.82 737.296 1039.81 737.365 1039.13ZM869.934 1042.93C871.012 1049.76 868.991 1053.96 865.41 1057.45C861.638 1061.09 856.051 1063.8 850.588 1067.27L850.358 1067.42L850.296 1067.69C850.274 1067.88 850.08 1068.22 850.212 1068.77L850.303 1069.12L850.657 1069.23C852.912 1069.84 855.792 1069.05 857.951 1068.8C858.741 1068.67 859.486 1068.52 860.221 1068.33C871.172 1065.49 877.249 1055.45 878.243 1046.85C878.459 1042.42 878.671 1038.03 878.916 1033.79C880.063 1032.62 881.2 1031.47 882.362 1030.46L882.391 1030.43L882.431 1030.39C883.52 1029.11 885.544 1027.51 887.543 1025.77L887.123 1025.29L887.558 1025.76C890.522 1022.97 894.267 1019.2 895.086 1016.26L895.119 1016.16L895.108 1016.05L895.056 1015.74C894.596 1014.34 893.065 1013.9 891.384 1013.46C889.681 1013.06 887.693 1012.83 886.173 1012.65C886.02 1012.64 882.789 1012.64 881.613 1012.65H881.536L881.455 1012.67L880.94 1013.14L880.933 1013.63C881.13 1014.23 881.612 1014.79 882.142 1015.56C882.65 1016.28 883.166 1017.1 883.264 1017.52L883.286 1017.71C883.188 1018.94 880.355 1022.03 878.737 1023.51C877.772 1016.17 880.491 1009.53 879.497 1002.07L879.46 1001.84L879.281 1001.68C876.997 999.723 869.795 997.086 866.031 997.804L865.757 997.863L865.611 998.113L865.457 998.719L865.45 998.79L865.395 998.883L865.388 999.042C865.337 1000.01 865.486 1000.96 865.735 1001.92C866.257 1003.94 867.2 1005.96 867.712 1007.97C867.902 1008.7 868.033 1009.42 868.081 1010.14C868.64 1017.55 869.612 1024.81 869.689 1031.95C866.177 1035.69 862.227 1039.37 857.703 1042.46C855.974 1043.76 853.358 1044.16 851.001 1045.69L850.672 1045.91L850.665 1045.92L850.014 1046.09L850.31 1046.79C851.776 1049.97 854.261 1054.68 858.123 1053.87L858.836 1053.61C861.046 1052.57 862.921 1050.87 864.661 1048.71C866.29 1046.68 868.004 1044.79 869.934 1042.93ZM881.613 1038.51C881.287 1039.4 881.309 1040.33 881.55 1041.24C882.833 1045.98 889.791 1050.9 892.217 1052.97C892.904 1053.48 893.376 1054.12 894.216 1054.76C894.826 1055.25 895.674 1055.76 896.785 1055.83C897.56 1055.88 898.276 1055.8 898.952 1055.62L898.981 1055.62C903.059 1054.53 905.376 1050.3 907.035 1048.55C907.426 1048.04 908.457 1047.23 909.377 1046.37C910.295 1045.48 911.226 1044.61 911.321 1043.42L911.351 1042.74L910.667 1042.75C909.414 1042.76 908.38 1042.87 907.203 1042.88L907.21 1043.53L907.167 1042.88C906.26 1042.94 905.398 1043.1 904.568 1043.32C902.785 1043.78 901.148 1044.46 899.493 1044.88C898.4 1045.16 897.297 1045.34 896.138 1045.29C895.049 1045.3 893.785 1044.92 892.447 1044.37C889.027 1043.06 885.614 1040.35 883.396 1038.09L883.136 1037.83L882.062 1038.1L881.733 1038.19L881.613 1038.51ZM937.782 961.694L937.172 962.066L938.07 962.605C939.441 963.413 940.906 964.346 942.287 965.172C945.664 967.701 949.994 970.806 952.362 974.63L952.384 974.674C952.79 975.333 953.246 975.98 953.637 976.612C954.365 977.802 954.756 978.829 954.328 979.829L954.314 979.863L954.281 979.881C950.882 979.665 947.732 977.095 943.238 979.825C942.733 980.138 942.211 980.517 941.663 980.975L941.516 981.101L941.469 981.294L941.527 982.031L941.644 982.187L941.754 982.31L941.907 982.366C944.948 983.388 950.524 986.312 952.687 989.335C953.086 990.005 953.415 990.819 953.901 991.604C954.314 992.292 954.876 992.969 955.742 993.43L955.841 993.49L955.951 993.505C957.255 993.702 958.552 993.903 959.85 994.107L960.182 994.159L960.416 993.91C960.994 993.237 960.924 992.411 960.793 991.597C960.314 989.146 958.848 985.78 960.661 983.463C961.911 982.871 963.044 983.299 964.633 983.121L964.765 983.102L964.871 983.031C965.232 982.76 965.324 982.578 965.459 982.507L965.792 982.295L965.759 981.908C965.667 980.926 965.485 979.877 965.401 978.959L965.386 978.851L965.346 978.754C965.046 978.096 964.757 977.218 964.359 976.355L964.878 975.05L967.308 969.129L967.67 968.98C968.119 969.192 968.879 969.713 969.164 970.215L969.332 970.791V970.832V970.877L969.318 970.87L968.682 971.74L968.36 972.108L968.722 972.636L968.872 972.856L969.15 972.9C969.731 972.967 970.272 972.777 970.699 972.644C971.408 973.454 971.974 974.209 972.859 974.957L972.895 974.994L972.946 975.02C973.911 975.507 975.57 975.931 975.556 976.143L975.534 976.147L975.497 976.247L975.486 976.344C975.402 978.271 973.06 982.291 971.233 985.043C970.962 985.59 970.736 986.018 970.505 986.289L970.458 986.341L970.421 986.397C966.555 993.27 962.631 1000.01 958.706 1006.93C957.288 1009.85 952.059 1014.02 954.496 1018.35L954.77 1018.74L954.902 1018.91L955.11 1018.97C957.255 1019.51 959.451 1019.86 961.688 1020.01C963.12 1019.93 964.472 1019.21 965.046 1019.5L965.485 1019.66L965.77 1019.27C968.7 1015.32 967.626 1013.11 968.112 1011.68C970.213 1005.29 973.498 999.143 977.467 993.062C978.446 991.801 979.36 990.406 980.332 989.157C981.991 986.836 983.628 983.797 986.266 982.198L986.833 981.875L986.866 981.86C987.118 982.362 987.246 982.931 987.289 983.362C987.392 984.861 986.474 986.39 986.146 988.052C985.787 990.745 984.962 993.56 984.114 996.063C983.697 997.082 982.44 998.589 982.455 1000.12C982.543 1000.64 982.725 1001.01 982.919 1001.33C983.171 1001.74 983.445 1002.09 983.628 1002.39L983.873 1002.98L983.891 1003.11L983.906 1003.12L983.873 1003.22C983.39 1004.36 980.905 1007.08 980.138 1008.24C979.075 1010.24 977.935 1012.27 976.648 1014.03C973.75 1017.78 968.923 1020.82 967.933 1025.4L967.856 1025.74L968.112 1025.98C969.033 1026.79 971.09 1027.29 973.451 1027.58C975.8 1027.83 978.304 1027.79 979.904 1026.84L980.376 1026.5C982.29 1024.57 983.007 1021.86 983.672 1019.98C984.571 1017.51 987.096 1012.97 989.606 1010.48L990.231 1009.9C990.914 1010.45 991.638 1011.38 992.522 1012.18C993.304 1012.93 993.907 1013.66 994.342 1014.36C995.336 1016 995.435 1017.44 994.963 1018.9C994.397 1020.91 992.475 1022.94 990.056 1024.91C989.774 1025.13 989.445 1025.36 989.102 1025.57C987.947 1026.28 986.507 1026.92 985.228 1027.7C984.717 1028.02 984.231 1028.36 983.796 1028.75L983.46 1029.4L983.467 1029.52L983.292 1030.34L984.121 1030.29C986.42 1030.11 988.755 1029.02 990.754 1029.02C994.404 1028.96 997.488 1028.83 1001.11 1028.77H1001.18L1001.25 1028.75L1001.92 1028.51L1001.94 1028.5L1002.33 1028.01C1003.49 1025.1 1003.17 1017.81 1000.66 1013.6C1000.36 1013.1 1000.01 1012.66 999.637 1012.27C997.792 1010.33 995.53 1008.51 994.243 1006.41L993.724 1005.42C993.761 1005.17 994.426 1004.17 995.183 1003.39C995.979 1002.52 996.907 1001.69 997.138 1001.55L1001.64 998.782L1001.71 998.697C1003.22 996.737 1002.56 994.382 1002.7 992.82V992.772V992.709L1002.42 991.872C1001.9 991.035 1000.95 991.139 1000.9 991.102L1000.84 991.091L1000.78 991.095C999.443 991.135 998.237 991.634 997.174 992.288C996.429 992.753 995.734 993.285 995.095 993.824C994.39 994.419 993.834 994.933 993.275 995.431L987.68 998.871L987.651 998.864C987.468 998.83 987.019 998.447 986.811 998.083L986.672 997.789L986.657 997.748C987.341 995.394 989.979 993.081 991.291 990.351C991.495 989.942 991.854 989.38 992.124 988.859C993.268 985.735 994.042 982.756 995.029 979.84C995.435 978.46 996.867 975.188 995.515 972.822C995.204 972.32 994.748 971.885 994.152 971.595C992.551 970.594 990.732 971.041 989.244 971.963C987.202 973.231 985.506 975.381 984.651 976.82C984.454 977.237 984.143 977.571 983.957 978.115C981.355 982.161 978.114 986.133 974.953 990.239C973.856 991.902 972.548 993.545 971.627 995.316C970.94 996.342 968.836 1000.17 967.82 1000.78H967.794C967.155 999.117 968.945 996.528 969.859 994.516L973.557 987.424L979.458 975.842C979.86 975.355 980.73 974.79 981.644 974.235C982.173 973.975 982.802 973.655 983.412 973.283C984.297 972.737 985.137 972.089 985.627 971.189C989.036 965.38 987.26 957.986 987.538 951.961C987.607 949.577 988.25 941.744 985.773 937.616C985.035 936.404 983.935 935.474 982.462 935.277C980.989 935.072 979.272 935.552 977.2 936.816L977.101 936.88L977.025 936.976C975.249 939.435 972.654 948.551 969.226 952.37C968.912 950.596 969.61 948.342 970.308 945.981C971.076 943.292 971.814 940.379 970.242 937.787L970.107 937.583L970.093 937.542C969.61 936.895 968.93 936.779 968.032 936.604C965.357 936.207 960.661 936.571 957.917 937.836L957.496 938.036L957.551 938.498C957.792 939.866 959.086 941.417 959.583 942.63L959.623 943.176L960.285 948.971C960.504 950.883 961.22 953.185 961.352 955.275C961.458 957.387 961.081 959.098 959.21 960.262C958.457 960.727 957.442 961.099 956.086 961.337C955.651 961.4 955.516 961.49 955.253 961.516C952.377 961.772 949.921 960.489 946.768 960.448C945.342 960.247 944.049 960.712 942.81 960.709C941.579 960.742 939.941 960.251 938.224 961.084L937.599 961.397L937.782 961.694ZM974.872 968.062L975.373 967.757L976.542 967.321L977.346 967.831C977.423 968.329 977.598 968.694 977.606 968.898C977.467 969.367 977.185 969.743 976.802 969.984C976.367 970.241 975.8 970.353 975.07 970.122C974.722 969.341 974.744 968.913 974.872 968.062ZM969.939 957.194L970.568 957.22C970.641 953.419 976.389 946.903 979.173 943.563C979.52 943.258 979.619 943.009 979.933 942.827C980.171 942.693 980.412 942.604 980.942 942.756C981.6 943.031 982.013 943.414 982.298 943.876C982.74 944.59 982.846 945.594 982.787 946.713C982.787 948.71 982.656 950.782 982.579 952.679V952.72L982.586 952.783C983.124 956.167 984.783 963.037 981.636 964.751L981.095 965.023C980.025 964.19 979.13 963.379 978.216 962.561L978.07 962.431L977.898 962.408C977.123 962.289 976.418 962.382 975.903 962.297C975.333 962.114 974.258 961.646 973.264 960.984C972.164 960.366 971.331 959.634 970.933 958.975L970.809 958.76L970.787 958.697L970.736 958.63L970.721 958.607C970.557 958.34 970.491 957.882 970.564 957.268L969.939 957.194ZM957.197 967.366C957.686 967.191 958.088 967.091 958.406 967.083C959.302 967.054 960.029 967.132 960.847 967.191C960.891 967.95 960.719 969.177 960.423 969.943L961.008 970.163L960.402 969.995L960.248 970.572C959.21 969.735 957.979 968.716 957.409 967.771L957.197 967.366Z" fill="#00468C"/>
<path d="M971.879 1480.82C971.879 1480.82 973.022 1477.56 973.873 1476.99C984.508 1472.01 992.569 1484.37 989.47 1485.37C987.102 1486.14 967.592 1500.92 967.592 1500.92C965.701 1491.59 971.879 1480.82 971.879 1480.82ZM1188.05 1719.41C1177.65 1720.07 1174.41 1720.07 1154.29 1721.99C1134.17 1723.93 1104.95 1723.93 1101.7 1721.99C1098.47 1720.07 1086.13 1704.56 1077.69 1692.94C1069.25 1681.31 1023.82 1623.83 1012.13 1603.8C1000.44 1583.79 977.721 1530.18 977.721 1530.18C977.721 1530.18 996.557 1513.39 1029.65 1494.66C1062.75 1475.92 1065.36 1466.24 1066.66 1459.78C1067.96 1453.33 1068.6 1445.57 1054.33 1452.03C1040.04 1458.49 1007.59 1457.84 1004.98 1457.84C1002.39 1457.84 996.557 1456.54 990.706 1461.07C984.864 1465.59 976.336 1463.05 976.336 1463.05C976.336 1463.05 971.879 1460.43 971.879 1453.96C971.879 1447.5 959.55 1435.24 959.55 1435.24C973.181 1440.4 1008.24 1418.44 1020.56 1406.17C1032.9 1393.89 1058.21 1371.93 1067.3 1361.6C1076.39 1351.28 1086.78 1355.8 1095.22 1335.78C1100.63 1322.94 1097.66 1332.93 1102.04 1319.25C1106.41 1305.56 1102.04 1304.32 1094.54 1301.2C1087.03 1298.09 1075.15 1303.06 1063.26 1304.94C1051.38 1306.8 1036.37 1309.9 1029.5 1311.17C1022.61 1312.4 1026.37 1312.4 1010.73 1321.73C995.097 1331.07 971.964 1337.91 950.694 1347.25C929.442 1356.58 918.807 1358.45 912.554 1358.45C906.3 1358.45 901.301 1356.58 894.42 1367.78C889.917 1375.11 895.571 1381.57 900.879 1386.39C907.358 1392.28 910.157 1396.96 915.212 1403.97C919.388 1409.76 927.046 1410.97 930.687 1417.56C930.687 1417.56 924.443 1416.93 915.062 1417.56C905.673 1418.17 908.172 1431.24 908.172 1438.72C908.172 1446.17 908.799 1469.2 906.918 1476.67C905.055 1484.13 905.673 1494.7 905.673 1504.66C905.673 1514.62 900.477 1541.8 900.477 1541.8C891.386 1551.49 808.956 1601.22 794.669 1609.62C780.383 1618.01 751.184 1601.87 751.174 1601.87C740.979 1619.27 757.054 1652.79 769.205 1665.98C776.451 1673.84 786.787 1681.53 796.617 1685.83C812.85 1692.94 839.41 1683.3 857.628 1662.58C875.808 1641.9 898.53 1604.45 898.53 1604.45C901.123 1634.8 898.53 1654.82 871.914 1720.07C845.298 1785.3 810.248 1785.3 790.775 1790.46C771.302 1795.62 740.146 1793.04 737.544 1802.73C733.303 1818.54 785.579 1833.09 818.692 1826.63C840.159 1822.44 858.77 1801.78 872.85 1786.56C892.341 1765.52 912.516 1743.44 921.269 1715.55C928.525 1692.44 933.224 1668.29 937.765 1644.55C939.946 1633.14 942.099 1621.72 943.972 1610.26C948.512 1582.48 956.301 1546.98 956.301 1546.98C956.301 1546.98 977.721 1642.56 991.352 1685.83C1004.98 1729.1 1040.04 1780.77 1062.12 1786.58C1084.17 1792.4 1113.4 1767.21 1120.54 1764.63C1127.67 1762.04 1164.68 1747.82 1184.14 1740.73C1203.62 1733.62 1198.44 1718.76 1188.05 1719.41Z" fill="#00468C"/>
<path d="M1146.19 2276.8C1145.51 2272.19 1141.36 2267.54 1137.56 2265C1131.99 2261.3 1123.29 2263.7 1116.96 2262.84C1100.21 2260.6 1084.8 2254.93 1069.13 2249C1063.04 2246.71 1050.51 2245.19 1045.92 2240.33C1044.16 2241.6 1045.92 2240.33 1045.92 2243.72C1046.39 2245.47 1049.88 2249.75 1057.34 2261.43C1066.56 2275.87 1076.87 2288.17 1072.36 2290.84C1060.11 2298.07 1045.92 2301.24 1033.48 2308.24C1029.2 2310.65 1026.08 2312.36 1022.19 2314.78C1018.28 2317.2 1016.73 2318.59 1011.72 2318.51C1006.71 2318.43 1000.59 2315.15 997.233 2309.45C993.872 2303.73 993.55 2300.9 999.379 2297.81C1005.24 2294.71 1018.84 2285.07 1018.21 2277.27C1017.58 2269.5 1014.72 2270.33 1010.55 2266.02C1006.4 2261.74 996.469 2280.48 997.344 2251.9C997.39 2250.55 996.856 2247.42 997.445 2246.85C998.007 2245.12 1011.67 2242.29 1013.23 2241.69C1014.47 2240.98 1016.18 2240.07 1018.74 2238.75C1025.15 2235.42 1039.99 2228.39 1045.17 2222.13C1046.68 2220.3 1047.7 2210.36 1047.78 2208.67C1047.89 2206.52 1049.63 2202.02 1040.81 2199.98C1032 2197.96 1035.27 2202.15 1026.09 2206.23C1016.91 2210.31 995.032 2216.4 995.032 2216.4C995.032 2216.4 994.563 2209.12 993.522 2202.38C993.274 2200.73 992.961 2198.69 993.043 2196.97L993.08 2196.26C993.08 2196.26 994.02 2188.7 1005.41 2175.11C1016.97 2161.27 1065.33 2139.11 1081.81 2132.51C1098.28 2125.92 1126.31 2115.24 1131.92 2113.36C1137.53 2111.46 1136.47 2103.93 1130.87 2096.39C1125.47 2089.13 1120.06 2094.32 1114.04 2096.93C1106.79 2100.1 1098.58 2099.61 1091.09 2101.92C1083.45 2104.28 1076.14 2107.99 1068.84 2111.15C1058.67 2115.55 1038.68 2125.6 1032.04 2127.8C1025.38 2130.01 1016.27 2136.29 1011.72 2138.48C1007.16 2140.69 1007.16 2138.81 1010.66 2130.31C1014.17 2121.84 1027.49 2118.39 1032.74 2117.13C1037.99 2115.86 1045.69 2109.9 1054.12 2103.3C1066.81 2093.33 1075.72 2079.84 1085.68 2067.36C1090.83 2060.92 1096.78 2054.76 1101.6 2048.13C1105.42 2042.88 1109.17 2036.84 1110.34 2030.37C1111.63 2023.28 1108.11 2020.23 1103.89 2015.02C1096.5 2005.89 1079.41 2013.11 1070.31 2015.14C1067.83 2015.7 1064.34 2015.96 1062.21 2017.47C1056.83 2021.3 1049.59 2034.95 1040.79 2031.99C1037.99 2031.05 1038.34 2015.97 1037.64 2007.17C1036.94 1998.38 1026.79 1993.04 1016.27 1985.5C1005.76 1977.96 991.386 1963.2 976.32 1963.2C961.246 1963.2 957.387 1992.72 956.337 2003.1C955.619 2010.14 955.914 2017.24 955.177 2024.27C954.496 2030.81 952.157 2036.91 951.033 2043.34C949.081 2054.53 955.417 2076.96 941.272 2082.57C938.113 2083.83 938.113 2088.85 935.673 2092.94C933.214 2097.02 923.398 2103.93 926.207 2108.96C929.015 2113.98 939.163 2104.24 941.272 2103.93C943.372 2103.61 946.53 2109.26 947.23 2110.52C950.195 2115.83 947.663 2126.29 947.819 2132.16C948.105 2142.42 950.37 2153.5 948.906 2163.69C948.086 2169.38 917.348 2173.73 908.029 2176.63C897.245 2180.64 907.752 2191.23 911.031 2196.9C912.283 2198.02 908.029 2198.65 942.082 2201.71C943.031 2201.8 943.28 2208.65 943.823 2211.64C944.817 2217.6 946.53 2223.77 946.346 2229.83C946.346 2229.83 930.406 2236.63 930.691 2241.94C930.977 2247.25 930.129 2251.82 937.045 2252.99C943.952 2254.16 948.528 2256.71 948.528 2256.71C948.528 2256.71 950.702 2262.42 951.319 2272.31C951.65 2277.44 950.168 2277.43 950.214 2278.64C950.324 2280.38 938.822 2283.91 937.11 2285.5C931.299 2290.97 933.288 2300.78 943.418 2308.01C947.193 2310.7 950.914 2306.68 953.041 2310.1C955.997 2314.82 951.125 2323.49 950.315 2325.31C947.506 2331.63 941.917 2341.78 932.201 2346.23C922.486 2350.67 913.084 2357.08 883.819 2357.84C879.564 2357.94 876.59 2362.61 875.301 2367.6C876.277 2370.67 876.986 2373.93 875.936 2378.41L876.875 2379.28C881.821 2382.19 888.699 2385.48 893.249 2390.15C897.752 2394.82 895.164 2398.31 906.942 2398.5C923.886 2398.77 924.908 2386.06 938.767 2386.64C952.626 2387.21 942.368 2399.41 942.267 2405.06C942.147 2410.99 935.876 2417.48 933.527 2422.73C927.459 2436.3 935.139 2453.48 943.436 2464.35C949.753 2472.6 965.159 2496.62 978.107 2486.93C983.19 2483.12 999.075 2458.27 1003.85 2449.16C1008.66 2440.04 1010.7 2434.08 1010.83 2426.99C1010.96 2419.92 1001.65 2361.82 1005.97 2357.64C1013.3 2350.56 1028.78 2348.98 1038.07 2345.48C1054.62 2339.26 1071.35 2331.99 1087.34 2324.47C1093.07 2321.78 1098.65 2318.77 1104.27 2315.87C1111.26 2312.24 1117.13 2306.82 1124.05 2303.01C1129.77 2299.85 1138.07 2296.63 1141.3 2290.49C1144.12 2285.25 1146.88 2281.4 1146.19 2276.8ZM1035.45 2063.02C1039.42 2054.3 1055.99 2048.49 1055.99 2048.49C1058.88 2056.88 1046.99 2066.25 1045.55 2067.87C1044.11 2069.49 1044.11 2072.07 1043.39 2074.65C1042.66 2077.25 1036.89 2079.81 1036.89 2079.81C1036.89 2079.81 1031.48 2071.74 1035.45 2063.02Z" fill="#00468C"/>
<path d="M906.164 2178.76L905.535 2178.17L904.082 2176.58C902.324 2173.78 889.639 2172.2 889.028 2169.01C887.206 2159.76 878.129 2156.38 872.772 2156.27C867.415 2156.13 857.838 2151.89 854.72 2150.15C851.593 2148.4 840.879 2145.92 835.67 2142.28C830.479 2138.63 833.107 2125.83 832.468 2121.8C831.691 2116.77 836.845 2109.02 838.926 2104.74C844.469 2093.39 856.737 2081.91 869.589 2079.54C878.842 2077.82 886.947 2077.65 891.702 2068.15C903.037 2045.5 877.287 2029.25 859.254 2023.66C850.205 2020.87 845.727 2017.37 840.814 2016.03C835.901 2014.69 820.403 2010.79 813.75 2008.32C807.089 2005.86 794.644 2001.48 789.176 2006.52C783.689 2011.56 790.777 2016.76 803.499 2028.08C809.485 2033.4 813.427 2039.11 814.676 2047C815.841 2054.3 816.369 2058.74 821.68 2064.29C828.11 2071.01 833.671 2076.02 833.467 2085.99C833.245 2096.49 825.751 2119.68 823.623 2123.87C821.513 2128 817.072 2130.35 814.666 2134.33C804.905 2150.53 808.116 2164.23 817.461 2179.36C824.909 2191.44 830.109 2214.88 831.478 2225.69C832.848 2236.49 828.008 2262.84 826.13 2270.59C824.243 2278.32 819.959 2294.4 815.499 2321.26C811.049 2348.13 809.096 2353.37 806.367 2353.79C803.656 2354.21 799.344 2366.17 797.91 2370.81C796.208 2376.35 801.556 2385.31 802.425 2390.97C804.174 2402.47 801.694 2428.18 821.291 2423.67C840.055 2419.33 837.992 2413.94 843.636 2392.68C848.04 2376.09 854.924 2366.13 858.023 2348.31C861.105 2330.48 864.472 2330.23 864.833 2324.66C865.194 2319.11 863.159 2311.97 863.223 2296.54C863.288 2281.11 863.473 2256.56 863.334 2247.77C863.205 2238.97 864.565 2231.88 865.897 2220.66C867.239 2209.42 875.797 2202.87 882.996 2199.56C885.429 2198.43 906.284 2195.22 908.903 2194.82C910.032 2194.63 908.32 2192.21 909.088 2191.36L906.543 2189.76C906.201 2186.86 907.617 2183.65 907.543 2183.5L907.126 2181.7C906.904 2180.52 906.839 2179.57 906.164 2178.76ZM853.878 2243.92C854.063 2248.26 840.518 2296.72 837.714 2300.65C834.883 2304.58 834.411 2304.65 833.81 2300.81C833.208 2296.97 836.123 2287.33 839.537 2268.44C842.988 2249.54 854.665 2233.29 854.665 2233.29C855.525 2238.85 853.684 2239.56 853.878 2243.92Z" fill="#00468C"/>
<path d="M1004.29 2821.21L1004.54 2821.05C1012.4 2815.53 1025.81 2809.58 1039.32 2802.81L1037.67 2799.52L1039.41 2802.77C1059.73 2791.56 1085.71 2776.12 1094.44 2761.01L1094.74 2760.48L1094.86 2759.88L1095 2758.06C1094.46 2749.64 1086.65 2745.03 1078.03 2740.18C1069.23 2735.51 1058.59 2731.44 1050.47 2728.25C1049.65 2727.99 1031.84 2723.33 1025.36 2721.7L1024.92 2721.59H1024.47C1023.36 2721.47 1021.59 2722.3 1020.94 2723.49C1020.22 2724.62 1020.22 2725.49 1020.21 2726.16C1020.4 2729.78 1022.29 2733.55 1024.08 2738.58C1025.89 2743.31 1027.55 2748.58 1027.49 2751.02L1027.36 2752.11C1025.06 2758.81 1005.02 2771.85 993.992 2777.7C999.189 2735.69 1023.58 2702.86 1028.73 2660.15L1028.89 2658.79L1028.14 2657.67C1018.31 2643.61 982.37 2618.72 960.651 2617.27L959.012 2617.2L957.848 2618.38C956.6 2619.73 956.404 2620.88 956.162 2621.5L956.023 2621.91L955.594 2622.33L955.315 2623.21C953.657 2628.47 953.117 2633.99 953.117 2639.61C953.135 2651.54 955.436 2664.07 955.408 2675.93C955.408 2680.24 955.11 2684.43 954.355 2688.51C946.868 2730.26 941.866 2771.8 932.116 2811.48C907.435 2827.12 880.409 2841.81 851.063 2852.45C839.71 2857.17 824.716 2855.6 809.563 2860.74C808.417 2860.9 807.793 2861.34 807.43 2861.48L807.384 2861.51H803.528L804.208 2865.79C807.719 2885.57 814.713 2915.13 837.177 2916.17C838.592 2916.17 840.008 2916.02 841.442 2915.78C855.105 2913.18 867.845 2906.48 880.511 2897.02C892.432 2888.08 904.52 2880.1 917.801 2872.51C914.011 2911.9 896.902 2932.25 872.185 2946.4C846.248 2961.16 811.575 2968.15 776.501 2979.59L775.002 2980.07L774.322 2981.48C773.912 2982.52 772.357 2984.13 772.301 2987.32V2989.42L774.117 2990.5C785.675 2997.12 802.653 2996.82 814.909 2998.56C819.454 2998.99 823.803 2999.2 828.096 2999.2C892.46 2999.12 940.293 2952.28 958.034 2906.11C965.55 2881.92 972.945 2857.94 980.358 2834.8C988.349 2830.01 996.246 2825.27 1004.07 2821.33L1004.29 2821.21ZM1142.58 2929.83C1135.63 2928.08 1129.76 2927.25 1123.28 2925.62L1122.38 2929.21L1123.07 2925.58C1118 2924.6 1113.01 2924.27 1108.11 2924.27C1097.66 2924.27 1087.65 2925.69 1077.91 2925.68C1071.5 2925.68 1065.18 2925.06 1058.85 2923.14C1052.83 2921.64 1046.41 2917.71 1039.86 2912.78C1022.86 2900.59 1007.92 2880.7 998.891 2865.03L997.848 2863.19H991.534H989.587L988.488 2864.8C985.452 2869.25 984.223 2874.46 984.223 2879.81C984.549 2907.92 1015.91 2945.05 1026.29 2959.98C1029.38 2963.82 1031.05 2968.03 1034.79 2972.78C1037.45 2976.35 1041.39 2980.39 1047.39 2982.4C1051.6 2983.71 1055.69 2984.3 1059.66 2984.3H1059.81C1083.85 2984.14 1102.64 2964.07 1114.31 2956.73C1117.18 2954.51 1123.99 2951.46 1130.31 2948.03C1136.62 2944.43 1142.98 2940.91 1145.19 2934.49L1146.3 2930.78L1142.58 2929.83Z" fill="#00468C"/>
<path d="M934.368 3292.11L936.703 3294.98L934.116 3292.32C933.266 3293.16 932.406 3294.02 931.668 3294.75C928.931 3287.48 925.746 3278.7 925.69 3272.26C925.671 3271.31 925.699 3270.4 925.821 3269.59C928.819 3270.18 931.136 3270.84 932.743 3271.74C937.329 3274.25 940.739 3276.82 944.681 3279.55C942.626 3283.51 938.114 3289.13 934.368 3292.11ZM1012.44 3325.49L1015.89 3325.43L1023.03 3326.73C1023.71 3328.22 1024.51 3329.83 1025.58 3331.65C1024.45 3334.4 1024.27 3336.74 1023.71 3337.79C1021.63 3339.74 1019.06 3340.79 1016.43 3340.86C1013.49 3340.88 1010.35 3339.73 1007.36 3336.45C1007.9 3331.48 1009.29 3329.37 1012.44 3325.49ZM1019.62 3266.74L1019.68 3266.32L1019.63 3265.85V3265.71C1019.56 3263.88 1020.59 3261.37 1022.8 3258.52L1019.89 3256.26L1022.99 3258.27C1034.57 3239.43 1082.71 3223.73 1106.59 3215.22C1109.22 3214.72 1110.46 3213.77 1112.58 3213.77C1114.15 3213.81 1115.62 3214.08 1117.83 3216.42C1120.32 3219.75 1121.27 3222.87 1121.34 3226.03C1121.45 3230.93 1118.97 3236.3 1115.39 3241.76C1109.49 3251.77 1102.68 3261.79 1096.68 3271.07L1096.55 3271.29L1096.4 3271.63C1089.08 3290.24 1077.08 3329.63 1056.19 3328.9C1055.06 3328.92 1053.89 3328.85 1052.67 3328.66C1049.82 3321.32 1047.68 3314.59 1045.52 3307.74L1045.18 3306.7L1044.35 3306.04C1040.82 3303.14 1037.03 3301.55 1034.71 3299.57C1032.37 3296.97 1028.39 3291.43 1025.33 3285.21C1021.64 3278.83 1019.64 3272.67 1019.57 3268.17L1019.62 3266.74ZM908.969 3443.48L948.511 3418.82L1012.43 3378.18C1015.88 3376.89 1021.92 3376.65 1028.12 3376.56C1031.55 3376.83 1035.69 3377.09 1039.86 3377.03C1045.89 3376.91 1052.02 3376.13 1057.17 3373.08C1091.47 3354.01 1104.46 3311.59 1123.64 3282.17C1131.09 3270.41 1157.53 3232.98 1157.3 3204.9C1157.2 3196.64 1154.4 3188.72 1147.61 3183.34C1140.85 3177.97 1130.81 3175.27 1116.67 3175.5L1115.97 3175.52L1115.32 3175.79C1099.12 3182.85 1059.11 3220.92 1030.59 3229.95C1034.25 3220.12 1044.47 3210.88 1054.95 3201.09C1066.75 3189.86 1079.07 3177.43 1078.86 3159.76L1078.81 3158.33L1078.83 3158.05C1078.38 3153.39 1075.26 3150.76 1071.29 3147.26C1059.06 3137.33 1034.4 3125.25 1016.88 3123.45L1014.16 3123.2L1013.12 3125.7C1010.25 3133.28 1012.17 3144.9 1011.05 3152.47L1009.64 3155.34L995.815 3186.37C991.247 3196.65 988.015 3210.32 982.467 3221.2C976.787 3232.14 969.818 3239.6 956.965 3239.92C951.836 3240 945.615 3238.87 938.114 3236.03C935.732 3235.08 934.816 3235.1 933.443 3234.49C918.235 3227.24 909.679 3213.52 894.004 3203.96C887.418 3198.72 879.59 3197.24 873.388 3193.54C867.11 3190.06 860.328 3182.75 849.231 3181.85L845.205 3181.56L845.242 3183.58L841.076 3183.65L843.99 3189.01C848.456 3197.14 853.033 3206.17 857.554 3214.43C866.989 3237.11 879.525 3265.54 880.048 3291.76V3292.04C880.123 3296.56 880.524 3301.16 880.599 3305.49C880.73 3313.64 879.656 3319.93 874.527 3323.69L874.368 3323.82H874.182C857.769 3312.66 849.539 3290.4 818.9 3290.81C815.425 3290.86 811.679 3291.22 807.643 3291.91L806.494 3292.12L805.682 3292.92C805.336 3293.13 803.682 3294.89 803.795 3296.84L803.897 3297.95L804.084 3298.88L804.71 3299.62C816.919 3313.76 836.256 3344.97 838.18 3366.56C838.199 3371.13 837.414 3376.2 837.498 3381.57C837.545 3386.25 838.395 3391.3 841.365 3396.2L841.674 3396.74L842.197 3397.16C848.129 3402.02 854.051 3406.88 859.983 3411.75L861.496 3413.02L863.392 3412.44C868.315 3410.76 870.38 3406.42 872.117 3401.94C876.965 3388.21 879.609 3366.96 895.573 3360.71C903.551 3361.43 908.007 3366.96 916.479 3370.76L917.189 3371.05L917.983 3371.04C920.58 3370.76 921.542 3370.07 922.467 3370.12L924.765 3370.08L925.727 3368C928.165 3362.83 930.398 3356.99 932.658 3352.12L932.92 3351.55L932.976 3350.95C933.415 3346.75 934.564 3341.49 935.143 3335.95L941.626 3330.97L971.36 3308.43L973.592 3308.74C975.246 3311.17 977.497 3316.03 977.432 3319.37C977.441 3320.87 977.151 3321.96 976.572 3322.76L976.441 3322.95L976.32 3323.19L976.273 3323.13C975.292 3323.87 972.341 3325.06 970.538 3325.62L967.791 3326.5L968.044 3330.23L968.146 3331.79L969.398 3332.82C972.116 3334.84 975.433 3335.54 977.973 3336.13C979.113 3342.31 979.702 3347.78 981.934 3354.13L982.028 3354.42L982.205 3354.7C985.596 3360.02 992.658 3367.06 991.929 3368.1L991.836 3368.07L991.36 3368.44L991.051 3368.9C984.886 3378.33 961.252 3391.61 943.915 3399.98C940.926 3401.94 938.553 3403.42 936.563 3404.08L936.171 3404.2L935.863 3404.38C896.087 3427.42 856.47 3449.62 816.237 3472.71C800.506 3483.23 761.861 3488.67 761.301 3517.59C761.31 3518.41 761.357 3519.37 761.497 3520.4L761.665 3521.63L762.562 3522.54C771.726 3531.63 781.721 3539.86 792.492 3547.28C799.946 3551.07 808.839 3551.52 810.829 3554.64L812.585 3556.76L815.126 3555.67C841.552 3544.48 842.711 3530.23 849.38 3524.48C878.815 3498.67 913.509 3477.49 951.444 3458.71C960.094 3455.28 968.809 3450.98 977.394 3447.61C992.593 3440.88 1009.79 3430.48 1027.75 3430.23C1029.04 3430.2 1030.28 3430.23 1031.55 3430.31L1031.79 3430.33C1031.55 3433.58 1030.52 3436.83 1029.44 3439.13C1025.51 3446.92 1016.43 3451.91 1009.81 3459.31C1000.07 3471.73 987.595 3483.44 975.9 3493.49C970.781 3497.37 960.057 3501.19 955.545 3508.97C954.443 3511.81 954.265 3514.21 954.302 3516.43C954.349 3519.21 954.704 3521.76 954.741 3523.81C954.769 3525.45 954.583 3526.66 954.228 3527.49L953.919 3528.21V3528.3L953.546 3528.72C947.689 3533.01 927.194 3539.27 919.88 3542.84C908.651 3549.79 896.928 3556.54 885.223 3561.59C859.59 3571.82 826.382 3572.77 807.839 3592.82L806.466 3594.32L807.017 3596.31C809.241 3603.08 818.087 3611.67 829.091 3620.17C840.151 3628.36 852.818 3635.61 863.654 3635.56C864.84 3635.56 865.943 3635.42 867.036 3635.24C882.346 3631.21 893.957 3619.73 902.869 3612.26C914.667 3602.53 940.813 3587.23 960.804 3582.18C962.168 3581.69 963.784 3581.5 965.643 3581.13C967.408 3585.91 968.305 3592.71 970.37 3599.35C972.088 3605.4 972.938 3610.86 973.022 3615.67C973.163 3626.86 969.417 3634.39 962.719 3640.3C953.966 3648.74 938.273 3653.24 920.291 3655.96C918.235 3656.24 915.956 3656.39 913.565 3656.44C905.671 3656.6 896.554 3655.51 887.829 3655.66C884.317 3655.72 880.842 3656 877.507 3656.66C875.854 3656.71 874.07 3658.37 873.911 3658.98L873.602 3659.53L870.268 3663.13L874.621 3665.36C886.634 3671.31 901.608 3672.72 911.64 3678.66C930.146 3689.15 945.989 3697.65 964.27 3708.06L964.69 3708.29L965.12 3708.41C965.979 3708.61 967.212 3709.19 969.193 3709.2H969.258C970.267 3709.18 971.612 3708.84 972.667 3707.9C987.128 3696.73 1007.15 3659.18 1006.97 3630.6C1006.91 3627.21 1006.56 3623.96 1005.83 3620.9C1002.28 3605.69 996.32 3589.82 996.114 3575.46C996.077 3573.2 996.152 3571.03 996.423 3568.94C997.357 3567.83 1003.65 3564.75 1009.77 3563.07C1016.31 3561.07 1023.43 3559.65 1025.01 3559.63L1055.81 3559.09L1056.39 3558.87C1069.77 3553.49 1073.43 3539.71 1078.75 3532.26L1078.92 3532.03L1079.07 3531.73C1079.84 3530 1080.22 3528.29 1080.2 3526.71C1080.02 3520.93 1074.93 3518.65 1074.82 3518.35L1074.53 3518.1L1074.2 3517.93C1067.41 3514.19 1059.91 3513.13 1052.6 3513.26C1047.49 3513.35 1042.43 3513.98 1037.62 3514.79C1032.36 3515.7 1028.01 3516.61 1023.73 3517.49L985.465 3518.15L985.372 3518.03C984.54 3517.32 983.429 3514.05 983.466 3511.64L983.634 3509.74L983.709 3509.49C994.087 3499.69 1014.17 3495.89 1028.85 3486.07C1031.07 3484.61 1034.54 3482.88 1037.42 3481.01C1052.41 3468.78 1065.13 3456.1 1078.71 3444.37C1084.82 3438.68 1101.73 3426.48 1101.91 3410.57C1101.87 3407.13 1100.84 3403.6 1098.72 3400.35C1093.67 3390.6 1083.18 3387.44 1073.01 3387.69C1059.04 3387.98 1044.13 3393.77 1035.57 3398.45C1033.36 3399.97 1030.81 3400.71 1028.26 3402.88C1003.23 3415.51 975.208 3425.86 947.203 3437.1C936.778 3442.22 925.344 3446.57 915.47 3452.75C908.969 3455.85 887.091 3468.83 880.188 3468.92L880.048 3468.79C881.795 3458.57 898.404 3450.88 908.969 3443.48Z" fill="#00468C"/>
<path d="M553.677 3694.2V3643.82L483.921 3624.85C475.489 3622.68 465.025 3620.18 457.184 3618.32V3617.07C464.743 3615.21 475.489 3612.1 483.63 3609.6L553.677 3586.91V3534.35L423.463 3590.33C419.976 3591.89 417.936 3592.2 416.197 3592.2C414.457 3592.2 412.126 3591.26 409.804 3589.71C402.828 3585.36 386.952 3572.3 383.562 3553.98L345.302 3544.79C345.143 3567.77 353.417 3589.08 366.785 3605.26C381.027 3622.36 403.411 3636.98 460.09 3658.74L553.677 3694.2ZM469.679 3487.3H521.13V3521.2H553.677V3487.3H570.25V3440.96H553.677V3420.75H521.13V3440.96H462.995C442.942 3440.96 429.273 3445.32 420.85 3454.03C413.574 3461.8 408.638 3474.54 408.638 3489.79C408.638 3502.85 409.504 3509.98 411.543 3515.9L446.801 3524.83C445.918 3520.48 444.682 3512.49 444.682 3505.97C444.682 3491.96 452.54 3487.3 469.679 3487.3ZM593.208 3401.72C605.702 3401.4 615.3 3392.08 615.3 3376.85C615.3 3361.6 605.702 3351.65 593.208 3351.65C581.005 3351.65 571.115 3361.29 571.115 3376.21C571.115 3392.08 581.005 3401.72 593.208 3401.72ZM515.02 3261.9C521.995 3261.9 526.357 3268.43 526.357 3279.93C526.357 3292.67 521.704 3306.05 518.225 3312.89L548.732 3320.98C553.094 3311.66 557.164 3296.1 557.164 3278.38C557.164 3240.75 537.103 3216.49 510.375 3216.49C493.51 3216.18 477.52 3228.31 467.648 3260.03C462.12 3277.45 458.641 3282.11 451.074 3282.11C443.816 3282.11 439.454 3276.2 439.454 3261.9C439.454 3247.9 444.973 3229.85 449.918 3221.16L418.528 3212.76C412.718 3224.27 408.356 3241.99 408.356 3261.9C408.356 3305.43 427.825 3327.51 454.571 3327.51C475.197 3327.21 489.148 3315.39 498.455 3286.47C504.556 3267.8 508.053 3261.9 515.02 3261.9ZM515.576 3192.4L555.549 3202.53C556.14 3199.11 557.164 3193.08 557.164 3188.72C557.164 3173.79 548.449 3155.45 527.523 3147.68V3146.43L553.677 3144.56V3104.13C541.465 3105.06 527.814 3105.37 506.887 3105.37H411.543V3152.64H483.63C487.118 3152.64 490.605 3152.96 493.51 3153.58C507.17 3156.68 515.894 3168.5 515.894 3185.93C515.894 3191.22 516.159 3188.66 515.576 3192.4ZM468.513 3077.49C471.71 3078.1 478.403 3079.03 485.961 3079.03C521.13 3079.03 556.882 3060.38 556.882 3011.24C556.882 2958.37 517.059 2934.43 481.016 2934.43C436.549 2934.43 408.638 2963.97 408.638 3015.6C408.638 3036.12 411.543 3055.08 417.645 3070.65L447.587 3064.41C443.516 3051.67 441.485 3038.6 441.485 3022.44C441.485 3000.36 450.209 2980.76 468.513 2979.52V3077.49ZM498.746 3035.19V2979.2C510.375 2980.44 527.523 2988.54 527.523 3008.43C527.523 3030.21 509.501 3035.19 498.746 3035.19ZM411.543 2873.59L553.677 2930.19V2880.43L487.7 2860.85C475.489 2857.42 464.743 2854.93 453.105 2852.44V2851.51C464.451 2849.03 475.489 2846.54 487.7 2842.8L553.677 2822.27V2770.96L411.543 2826.32V2873.59ZM593.208 2753.96C605.702 2753.64 615.3 2744.32 615.3 2729.08C615.3 2713.84 605.702 2703.89 593.208 2703.89C581.005 2703.89 571.115 2713.53 571.115 2728.45C571.115 2744.32 581.005 2753.96 593.208 2753.96ZM411.543 2624.03V2671.3H495.541C537.403 2671.3 556.882 2647.97 556.882 2616.86C556.882 2591.37 543.213 2576.13 533.915 2569.91V2568.98L553.677 2566.8V2525.76C540.891 2526.37 526.066 2526.98 508.336 2526.98H411.543V2574.26H493.51C497.581 2574.26 501.651 2574.57 504.556 2575.82C512.697 2579.24 521.13 2587.02 521.13 2600.08C521.13 2617.18 508.627 2624.03 490.323 2624.03H411.543ZM497.581 2491.98H607.459V2444.71H494.967C460.09 2444.71 443.816 2431.02 443.816 2406.15C443.816 2382.2 460.955 2368.2 494.967 2368.2H607.459V2320.93H498.164C435.958 2320.93 408.356 2351.72 408.356 2404.59C408.356 2459.33 437.123 2491.98 497.581 2491.98ZM411.543 2172.72V2219.97H495.541C537.403 2219.97 556.882 2196.65 556.882 2165.56C556.882 2140.06 543.213 2124.82 533.915 2118.61V2117.68L553.677 2115.49V2074.44C540.891 2075.06 526.066 2075.69 508.336 2075.69H411.543L411.543 2122.96H493.51C497.581 2122.96 501.651 2123.26 504.556 2124.52C512.697 2127.93 521.13 2135.7 521.13 2148.77C521.13 2165.88 508.627 2172.72 490.323 2172.72H411.543ZM593.208 2042.91C605.702 2042.6 615.3 2033.27 615.3 2018.03C615.3 2002.79 605.702 1992.83 593.208 1992.83C581.005 1992.83 571.115 2002.48 571.115 2017.4C571.115 2033.27 581.005 2042.91 593.208 2042.91ZM593.208 1961.61C605.702 1961.31 615.3 1951.98 615.3 1936.74C615.3 1921.5 605.702 1911.56 593.208 1911.56C581.005 1911.56 571.115 1921.19 571.115 1936.11C571.115 1951.98 581.005 1961.61 593.208 1961.61ZM439.163 1913.1C418.351 1913.1 406.766 1911.74 399.411 1908.28C390.511 1903.32 385.69 1892.35 383.562 1880.85L345.302 1871.66C345.214 1883.34 350.008 1919.8 366.502 1938.91C378.785 1953.15 397.592 1960.37 428.408 1960.37H553.677V1913.1H439.163ZM411.543 1828.57V1875.84H495.541C537.403 1875.84 556.882 1852.53 556.882 1821.42C556.882 1795.92 543.213 1780.69 533.915 1774.46V1773.52L553.677 1771.36V1730.3C540.891 1730.92 526.066 1731.55 508.336 1731.55H411.543L411.543 1778.82H493.51C497.581 1778.82 501.651 1779.13 504.556 1780.37C512.697 1783.79 521.13 1791.57 521.13 1804.62C521.13 1821.74 508.627 1828.57 490.323 1828.57H411.543ZM411.543 1657.91V1700.51C419.393 1698.64 432.479 1698.01 445.847 1698.01H495.541C529.262 1698.01 557.164 1682.16 557.164 1631.47C557.164 1603.79 549.906 1582.96 544.379 1572.38L515.894 1581.08C521.704 1591.04 526.649 1607.53 526.649 1623.07C526.649 1646.39 515.894 1650.75 508.053 1650.75H506.305C506.305 1596.95 488.866 1561.49 451.948 1561.49C429.273 1561.49 408.356 1579.84 408.356 1610.64C408.356 1628.66 414.457 1644.22 425.795 1654.18V1655.11L411.543 1657.91ZM463.286 1652.3C460.672 1652.3 458.05 1652 455.728 1651.37C446.721 1648.26 439.454 1638.31 439.454 1626.8C439.454 1616.23 444.973 1608.14 456.31 1608.14C473.158 1608.14 478.694 1627.42 478.694 1652.3H463.286ZM593.208 1538.7C605.702 1538.4 615.3 1529.06 615.3 1513.82C615.3 1498.59 605.702 1488.63 593.208 1488.63C581.005 1488.63 571.115 1498.27 571.115 1513.21C571.115 1529.06 581.005 1538.7 593.208 1538.7ZM570.25 1412.07V1469.28H607.459V1308.2H570.25V1364.79H411.543V1412.07H570.25ZM553.677 1537.14V1489.87H411.543L411.543 1537.14H553.677ZM553.677 2041.35V1994.08H411.543V2041.35H553.677ZM553.677 2752.4V2705.13H411.543L411.543 2752.4H553.677ZM553.677 3400.16L553.677 3352.88H411.543L411.543 3400.16H553.677Z" fill="#00468C"/>
</svg>
