<svg width="612" height="3183" viewBox="0 0 612 3183" fill="none" xmlns="http://www.w3.org/2000/svg">
<g clip-path="url(#clip0_72_544)">
<rect width="3182.92" height="612" transform="matrix(0 1 -1 0 612 0)" fill="#00468C"/>
<path d="M346.377 2784.46V2734.08L276.621 2715.11C268.189 2712.94 257.726 2710.45 249.885 2708.59V2707.33C257.443 2705.47 268.189 2702.36 276.33 2699.87L346.377 2677.17L346.377 2624.62L216.164 2680.6C212.676 2682.15 210.636 2682.47 208.897 2682.47C207.157 2682.47 204.826 2681.53 202.504 2679.97C195.528 2675.63 179.652 2662.56 176.262 2644.24L138.002 2635.05C137.843 2658.04 146.117 2679.34 159.485 2695.52C173.728 2712.63 196.111 2727.24 252.79 2749L346.377 2784.46ZM262.379 2577.57H313.83V2611.46H346.377V2577.57H362.95V2531.23H346.377V2511.01H313.83V2531.23H255.695C235.642 2531.23 221.974 2535.58 213.55 2544.29C206.274 2552.06 201.338 2564.81 201.338 2580.05C201.338 2593.11 202.204 2600.24 204.243 2606.16L239.501 2615.09C238.618 2610.75 237.382 2602.75 237.382 2596.23C237.382 2582.23 245.24 2577.57 262.379 2577.57ZM385.908 2491.98C398.402 2491.67 408 2482.34 408 2467.11C408 2451.87 398.402 2441.91 385.908 2441.91C373.705 2441.91 363.816 2451.55 363.816 2466.48C363.816 2482.34 373.705 2491.98 385.908 2491.98ZM307.72 2352.16C314.695 2352.16 319.057 2358.7 319.057 2370.2C319.057 2382.94 314.404 2396.32 310.925 2403.16L341.432 2411.24C345.794 2401.92 349.865 2386.36 349.865 2368.64C349.865 2331.01 329.803 2306.75 303.075 2306.75C286.211 2306.45 270.22 2318.57 260.348 2350.29C254.821 2367.71 251.342 2372.38 243.774 2372.38C236.516 2372.38 232.154 2366.47 232.154 2352.16C232.154 2338.16 237.673 2320.12 242.618 2311.43L211.228 2303.02C205.418 2314.53 201.056 2332.25 201.056 2352.16C201.056 2395.69 220.526 2417.78 247.271 2417.78C267.897 2417.47 281.849 2405.65 291.155 2376.73C297.257 2358.06 300.753 2352.16 307.72 2352.16ZM308.276 2282.67L348.249 2292.8C348.84 2289.37 349.865 2283.34 349.865 2278.98C349.865 2264.05 341.15 2245.72 320.223 2237.94V2236.69L346.377 2234.82V2194.39C334.165 2195.32 320.514 2195.64 299.588 2195.64H204.243V2242.91H276.33C279.818 2242.91 283.306 2243.22 286.211 2243.85C299.87 2246.95 308.594 2258.76 308.594 2276.19C308.594 2281.48 308.859 2278.93 308.276 2282.67ZM261.213 2167.75C264.41 2168.37 271.103 2169.3 278.661 2169.3C313.83 2169.3 349.582 2150.64 349.582 2101.51C349.582 2048.63 309.76 2024.69 273.716 2024.69C229.249 2024.69 201.338 2054.24 201.338 2105.86C201.338 2126.38 204.243 2145.34 210.345 2160.91L240.287 2154.68C236.216 2141.93 234.185 2128.86 234.185 2112.7C234.185 2090.62 242.909 2071.02 261.213 2069.79V2167.75ZM291.447 2125.45V2069.47C303.075 2070.71 320.223 2078.8 320.223 2098.7C320.223 2120.47 302.201 2125.45 291.447 2125.45ZM204.243 1963.86L346.377 2020.45V1970.7L280.4 1951.11C268.189 1947.68 257.443 1945.19 245.805 1942.71V1941.78C257.152 1939.29 268.189 1936.81 280.4 1933.07L346.377 1912.54L346.377 1861.23L204.243 1916.59V1963.86ZM385.908 1844.22C398.402 1843.9 408 1834.58 408 1819.35C408 1804.11 398.402 1794.15 385.908 1794.15C373.705 1794.15 363.816 1803.79 363.816 1818.72C363.816 1834.58 373.705 1844.22 385.908 1844.22ZM204.243 1714.29L204.243 1761.56H288.241C330.103 1761.56 349.582 1738.24 349.582 1707.13C349.582 1681.63 335.913 1666.39 326.616 1660.17V1659.24L346.377 1657.07V1616.02C333.591 1616.63 318.766 1617.25 301.036 1617.25H204.243V1664.53H286.211C290.281 1664.53 294.352 1664.83 297.257 1666.08C305.398 1669.51 313.83 1677.29 313.83 1690.34C313.83 1707.44 301.327 1714.29 283.023 1714.29H204.243ZM290.281 1582.24H400.159V1534.97H287.667C252.79 1534.97 236.516 1521.29 236.516 1496.41C236.516 1472.46 253.655 1458.47 287.667 1458.47H400.159V1411.19H290.864C228.658 1411.19 201.056 1441.99 201.056 1494.85C201.056 1549.59 229.823 1582.24 290.281 1582.24ZM204.243 1262.98V1310.23H288.241C330.103 1310.23 349.582 1286.92 349.582 1255.83C349.582 1230.32 335.913 1215.09 326.616 1208.87V1207.94L346.377 1205.75V1164.7C333.591 1165.32 318.766 1165.96 301.036 1165.96H204.243L204.243 1213.23H286.211C290.281 1213.23 294.352 1213.52 297.257 1214.78C305.398 1218.2 313.83 1225.97 313.83 1239.03C313.83 1256.14 301.327 1262.98 283.023 1262.98H204.243ZM385.908 1133.17C398.402 1132.86 408 1123.53 408 1108.3C408 1093.05 398.402 1083.1 385.908 1083.1C373.705 1083.1 363.816 1092.75 363.816 1107.66C363.816 1123.53 373.705 1133.17 385.908 1133.17ZM385.908 1051.87C398.402 1051.58 408 1042.24 408 1027C408 1011.76 398.402 1001.82 385.908 1001.82C373.705 1001.82 363.816 1011.45 363.816 1026.38C363.816 1042.24 373.705 1051.87 385.908 1051.87ZM231.863 1003.37C211.051 1003.37 199.467 1002 192.111 998.541C183.211 993.582 178.39 982.618 176.262 971.116L138.002 961.927C137.914 973.601 142.709 1010.06 159.203 1029.17C171.485 1043.41 190.292 1050.64 221.108 1050.64H346.377V1003.37H231.863ZM204.243 918.838V966.1H288.241C330.103 966.1 349.582 942.79 349.582 911.682C349.582 886.186 335.913 870.953 326.616 864.728V863.788L346.377 861.62V820.565C333.591 821.188 318.766 821.811 301.036 821.811H204.243L204.243 869.083H286.211C290.281 869.083 294.352 869.389 297.257 870.636C305.398 874.051 313.83 881.831 313.83 894.886C313.83 911.999 301.327 918.838 283.023 918.838H204.243ZM204.243 748.171V790.771C212.093 788.9 225.179 788.277 238.547 788.277H288.241C321.962 788.277 349.865 772.421 349.865 721.735C349.865 694.051 342.606 673.226 337.079 662.646L308.594 671.346C314.404 681.303 319.349 697.792 319.349 713.332C319.349 736.651 308.594 741.015 300.753 741.015H299.005C299.005 687.212 281.566 651.758 244.649 651.758C221.974 651.758 201.056 670.109 201.056 700.9C201.056 718.924 207.157 734.483 218.495 744.44V745.37L204.243 748.171ZM255.986 742.56C253.372 742.56 250.75 742.262 248.428 741.629C239.421 738.521 232.154 728.574 232.154 717.063C232.154 706.492 237.673 698.406 249.011 698.406C265.858 698.406 271.394 717.687 271.394 742.56H255.986ZM385.908 628.967C398.402 628.66 408 619.327 408 604.084C408 588.852 398.402 578.895 385.908 578.895C373.705 578.895 363.816 588.535 363.816 603.471C363.816 619.327 373.705 628.967 385.908 628.967ZM362.95 502.329V559.547H400.159L400.159 398.463H362.95V455.058L204.243 455.058V502.329L362.95 502.329ZM346.377 627.403V580.132H204.243L204.243 627.403H346.377ZM346.377 1131.62V1084.34H204.243V1131.62H346.377ZM346.377 1842.67V1795.4H204.243L204.243 1842.67H346.377ZM346.377 2490.42L346.377 2443.15H204.243L204.243 2490.42H346.377Z" fill="white"/>
</g>
<defs>
<clipPath id="clip0_72_544">
<rect width="3182.92" height="612" fill="white" transform="matrix(0 1 -1 0 612 0)"/>
</clipPath>
</defs>
</svg>
