<svg width="2938" height="2124" viewBox="0 0 2938 2124" fill="none" xmlns="http://www.w3.org/2000/svg">
<path d="M1882.8 680.88C1882.8 453.611 1698.56 269.38 1471.3 269.38C1244.03 269.38 1059.8 453.611 1059.8 680.88C1059.8 908.149 1244.03 1092.38 1471.3 1092.38C1698.56 1092.38 1882.8 908.149 1882.8 680.88ZM1846.17 597.428L1865.66 619.368L1853.54 644.179L1870.19 668.316L1855.11 691.428L1868.63 717.462L1850.87 738.52L1861.08 766.001L1840.83 784.761L1847.66 813.295L1825.26 829.414L1828.5 858.546L1804.25 871.772L1803.9 901.138L1778.25 911.277L1774.27 940.35L1747.58 947.294L1740.05 975.612L1712.72 979.208L1701.8 1006.44L1674.22 1006.64L1660.02 1032.32L1632.62 1029.13L1615.37 1052.81L1588.57 1046.28L1568.54 1067.72L1542.74 1057.94L1520.21 1076.74L1495.82 1063.86L1471.2 1079.77L1448.54 1064L1422.18 1076.71L1401.62 1058.29L1373.86 1067.67L1355.75 1046.86L1327.04 1052.73L1311.62 1029.89L1282.41 1032.23L1269.94 1007.61L1240.63 1006.31L1231.29 980.358L1202.39 975.47L1196.3 948.566L1168.19 940.198L1165.44 912.742L1138.59 900.967L1139.24 873.371L1114.01 858.357L1118.05 831.054L1094.87 813.109L1102.25 786.502L1081.47 765.793L1092.05 740.339L1073.95 717.254L1087.58 693.243L1072.42 668.112L1088.89 645.949L1076.97 619.167L1096.03 599.202L1087.51 571.122L1108.86 553.705L1103.82 524.778L1127.18 510.102L1125.78 480.776L1150.72 469.097L1152.91 439.831L1179.1 431.243L1184.89 402.52L1211.98 397.227L1221.2 369.397L1248.73 367.5L1261.29 341.023L1288.84 342.514L1304.59 317.785L1331.74 322.628L1350.42 300.037L1376.76 308.171L1398.11 288.013L1423.19 299.398L1446.81 281.999L1470.41 296.374L1495.99 282.01L1517.58 299.174L1544.7 288.054L1564.07 307.729L1592.37 300.1L1609.14 321.962L1638.19 317.871L1652.17 341.629L1681.48 341.134L1692.4 366.44L1721.57 369.534L1729.3 396.03L1757.85 402.665L1762.29 429.871L1789.81 439.991L1790.86 467.546L1816.94 480.958L1814.58 508.461L1838.86 524.971L1833.12 551.976L1855.14 571.327L1846.17 597.428ZM1854.37 620.915L1835.42 599.586L1844.13 574.247L1822.71 555.427L1828.28 529.222L1804.67 513.177L1806.96 486.477L1781.61 473.438L1780.59 446.689L1753.84 436.848L1749.53 410.453L1721.76 404L1714.26 378.274L1685.9 375.269L1675.3 350.708L1646.81 351.187L1633.24 328.128L1604.99 332.104L1588.71 310.886L1561.19 318.302L1542.41 299.223L1516.04 310.038L1495.08 293.38L1470.22 307.338L1447.31 293.391L1424.34 310.31L1399.98 299.264L1379.25 318.845L1353.68 310.949L1335.51 332.919L1309.17 328.214L1293.85 352.27L1267.12 350.816L1254.91 376.564L1228.18 378.408L1219.22 405.458L1192.92 410.598L1187.3 438.522L1161.88 446.853L1159.75 475.323L1135.53 486.663L1136.89 515.175L1114.24 529.412L1119.14 557.536L1098.41 574.447L1106.69 601.739L1088.2 621.116L1099.78 647.154L1083.8 668.662L1098.54 693.097L1085.32 716.409L1102.91 738.862L1092.65 763.569L1112.86 783.694L1105.69 809.512L1128.23 826.955L1124.3 853.466L1148.83 868.064L1148.2 894.846L1174.31 906.29L1176.98 932.934L1204.31 941.072L1210.23 967.195L1238.33 971.948L1247.39 997.139L1275.88 998.399L1287.98 1022.28L1316.38 1020.01L1331.35 1042.19L1359.26 1036.47L1376.84 1056.67L1403.83 1047.56L1423.78 1065.43L1449.41 1053.07L1471.39 1068.38L1495.34 1052.9L1519.02 1065.4L1540.93 1047.13L1565.96 1056.62L1585.44 1035.77L1611.45 1042.11L1628.22 1019.09L1654.8 1022.18L1668.61 997.209L1695.38 997.016L1706 970.546L1732.53 967.054L1739.85 939.524L1765.76 932.781L1769.63 904.508L1794.51 894.675L1794.85 866.111L1818.39 853.276L1815.23 824.962L1836.98 809.323L1830.34 781.581L1850 763.361L1840.07 736.642L1857.3 716.201L1844.16 690.885L1858.78 668.461L1842.6 644.997L1854.37 620.915ZM1831.35 680.802C1831.35 879.694 1670.36 1040.93 1471.79 1040.93C1273.2 1040.93 1112.22 879.694 1112.22 680.802C1112.22 481.903 1273.2 320.668 1471.79 320.668C1670.36 320.668 1831.35 481.903 1831.35 680.802ZM1729.01 851.911C1739.2 858.338 1748.14 860.447 1754.32 860.904C1755.77 858.621 1757.2 856.318 1758.61 854.005C1751.84 853.012 1743.23 850.145 1733.85 844.231C1723.5 837.704 1716.75 830.288 1713.13 824.218L1712.97 824.486C1711.65 826.691 1710.31 828.886 1708.93 831.058C1711.8 836.633 1717.69 844.696 1729.01 851.911ZM1739.24 822.678L1761.18 849.661C1763.13 846.314 1765.02 842.933 1766.86 839.519L1767.5 838.251L1758.07 829.399C1755.19 826.777 1752.9 824.597 1750.29 822.332L1750.36 822.213C1753.93 822.924 1756.76 823.47 1760.74 824.088L1773.5 826.353L1774.73 823.92C1776.24 820.726 1777.69 817.505 1779.11 814.254L1744.02 811.922L1724.88 802.271C1723.19 805.808 1721.41 809.304 1719.58 812.755L1739.24 822.678ZM1770.56 803.584L1781.93 807.56C1782.82 805.38 1783.68 803.19 1784.52 800.992L1791.12 782.117C1791.86 779.755 1792.59 777.378 1793.29 774.998L1781.93 771.03L1778.23 781.637L1738.67 767.813C1737.45 771.569 1736.15 775.292 1734.78 778.978L1774.33 792.798L1770.56 803.584ZM1742.86 753.65L1795.53 766.656L1798.37 755.186L1745.66 742.172C1744.81 746.025 1743.87 749.849 1742.86 753.65ZM1798.29 743.002C1800.29 740.339 1802.01 736.832 1802.77 731.602C1804.38 720.62 1798.89 713.903 1789.51 712.475C1781.63 711.273 1775.96 715.361 1771.73 722.245C1768.96 726.846 1767.19 728.556 1764.59 728.158C1761.9 727.746 1760.53 725.559 1761.11 721.553C1761.74 717.224 1764.03 713.148 1766.07 710.753L1754.65 706.769C1752.71 708.978 1750.24 713.821 1749.47 719.054C1747.62 731.773 1754.64 738.859 1763.79 740.253C1771.2 741.384 1776.84 738.613 1781.45 731.32C1784.77 726.213 1786.21 724.06 1788.89 724.465C1791.25 724.822 1792.55 727.002 1792.03 730.557C1791.39 734.95 1789.42 737.951 1788.12 739.669L1798.29 743.002ZM1802.59 699.439C1804.65 697.304 1806.47 695.556 1806.52 690.974C1806.57 687.057 1806.63 686.723 1806.66 684.592C1806.7 680.779 1806.67 676.978 1806.58 673.192C1806.47 672.155 1806.33 671.21 1806.18 670.366L1752.15 669.458C1752.3 673.345 1752.37 677.242 1752.37 681.159L1772.35 681.494L1772.32 683.387C1772.26 687.043 1770.84 688.653 1764.22 689.72C1758.14 690.784 1754.1 691.721 1752.13 692.357C1751.97 696.474 1751.71 700.566 1751.38 704.634C1753.6 703.82 1761.52 702.529 1767.12 701.265C1771.88 700.231 1775.41 698.725 1777.01 695.809L1777.34 695.816C1778.83 699.301 1783.66 703.5 1790.52 703.612C1795.9 703.701 1799.85 702.202 1802.59 699.439ZM1796.21 685.878C1796.05 689.795 1793.73 691.911 1789.57 691.837C1785.49 691.773 1782.75 689.177 1782.83 684.737L1782.89 681.665L1795.95 681.888C1796.1 682.475 1796.24 683.658 1796.21 685.878ZM1794.28 659.082L1805.9 657.765C1805.66 654.243 1805.36 650.743 1805.01 647.262L1803.9 637.525C1803.56 634.784 1803.16 632.05 1802.75 629.328L1748.72 635.48C1750.28 645.105 1751.36 654.894 1751.92 664.82L1763.64 663.489L1761.64 645.905L1771.7 644.763L1773.48 660.461L1785.33 659.119L1783.55 643.416L1792.38 642.405L1794.28 659.082ZM1746.03 621.198L1801.56 622.139C1800.83 618.059 1800.03 613.997 1799.17 609.97L1776.8 610.527C1770.78 610.654 1764.29 610.959 1757.45 611.487L1757.42 611.364C1764.07 608.66 1769.66 606.087 1775.27 603.238L1795.19 593.601L1794.97 592.686C1793.92 588.863 1792.81 585.066 1791.64 581.291L1742.65 607.314C1743.88 611.9 1745.01 616.527 1746.03 621.198ZM1738.62 593.78L1789.91 575.891C1788.67 572.138 1787.38 568.415 1786.02 564.725L1734.71 582.619C1736.09 586.308 1737.39 590.023 1738.62 593.78ZM1732.93 577.977L1782.12 554.702C1780.78 551.377 1779.37 548.071 1777.91 544.798L1766.15 550.347C1758.68 553.873 1751.86 557.391 1745.58 561.084L1745.49 560.91C1750.48 556.38 1756.03 550.938 1759.95 546.416L1772.3 532.815C1770.25 528.657 1768.11 524.536 1765.9 520.474L1716.71 543.745C1718.46 546.881 1720.15 550.053 1721.8 553.267L1733.4 547.77C1741.44 543.965 1748.92 540.29 1755.52 536.872L1755.61 537.051C1750.44 541.8 1745.03 547.543 1740.79 552.3L1728 566.235C1729.72 570.103 1731.38 574.016 1732.93 577.977ZM1736.21 526.537L1760.21 510.466C1758.23 507.104 1756.18 503.786 1754.08 500.506L1754.01 500.394L1728.06 517.696C1720.8 522.542 1715.93 523.041 1713.32 519.128C1710.74 515.271 1713.42 510.741 1720.34 506.122L1746.27 488.828C1744.02 485.596 1741.7 482.408 1739.32 479.258L1715.71 495.069C1700.98 504.898 1697.63 514.743 1704.33 524.796C1711.19 535.061 1722.08 535.957 1736.21 526.537ZM1708.68 463.481L1718.15 457.259C1717.51 454.667 1715.23 450.568 1711.01 446.38C1700.86 436.301 1686.42 434.724 1672.92 448.248C1667.34 453.867 1664.43 459.513 1663.9 465.888C1663.4 472.054 1665.67 478.109 1671.84 484.223C1675.92 488.274 1681.54 491.323 1684.83 492.636L1705.43 472.225L1693.19 460.078L1685.13 468.197L1689.31 472.329L1682.64 479.057C1682.1 478.864 1680.82 477.934 1679.7 476.826C1674.55 471.716 1675 463.764 1682.24 456.463C1690.12 448.523 1697.72 449.389 1702.87 454.496C1706.44 458.04 1707.83 460.807 1708.68 463.481ZM1651.62 465.267L1683.62 421.261C1680.84 418.981 1678.03 416.746 1675.17 414.563L1667.6 424.973C1662.75 431.641 1658.44 437.997 1654.7 444.264L1654.55 444.145C1656.75 437.778 1659.01 430.336 1660.27 424.493L1664.55 406.749C1660.76 404.067 1656.91 401.471 1653.01 398.949L1621 442.951C1624.05 444.874 1627.05 446.853 1630.02 448.884L1637.64 438.41C1642.87 431.217 1647.66 424.404 1651.82 418.245L1651.97 418.356C1649.73 424.999 1647.73 432.638 1646.28 438.845L1641.72 457.345C1645.08 459.911 1648.38 462.552 1651.62 465.267ZM1619.15 441.289L1632.74 386.847C1628.11 384.3 1623.41 381.852 1618.65 379.524L1582.25 422.094C1586.04 423.723 1589.78 425.423 1593.49 427.208L1601.14 417.586L1611.22 422.823L1608.02 434.75C1611.78 436.852 1615.5 439.028 1619.15 441.289ZM1620.66 392.035C1619.73 395.234 1618.42 399.608 1617.57 402.665L1614.82 412.368L1607.57 408.601L1613.76 400.783C1615.77 398.328 1618.46 394.572 1620.54 391.976L1620.66 392.035ZM1582.97 399.095L1607.67 374.392C1603.69 372.618 1599.67 370.922 1595.62 369.296L1587.72 379.677C1585.4 382.808 1583.48 385.311 1581.49 388.138L1581.37 388.093C1581.7 384.459 1581.96 381.585 1582.17 377.557L1583.11 364.636L1581.67 364.086C1577.97 362.799 1574.26 361.575 1570.5 360.415L1571.78 395.439L1564.13 415.504C1567.84 416.794 1571.51 418.167 1575.14 419.617L1582.97 399.095ZM1550.89 411.234L1565.22 358.83C1561.44 357.73 1557.64 356.703 1553.81 355.725L1539.48 408.136C1543.31 409.088 1547.12 410.126 1550.89 411.234ZM1541.46 364.878L1543.5 353.293C1540.92 352.727 1538.33 352.192 1535.72 351.686L1524.07 349.633C1521.16 349.172 1518.25 348.751 1515.32 348.368L1505.89 401.917C1515.75 403.126 1525.45 404.841 1534.96 407.046L1536.99 395.513L1519.56 392.445L1521.32 382.47L1536.88 385.214L1538.95 373.473L1523.39 370.736L1524.93 361.973L1541.46 364.878ZM1501.69 377.464C1504.6 374.525 1506.38 369.717 1506.68 364.167C1506.99 358.551 1505.24 353.542 1502.4 350.604C1499.49 347.502 1495.51 346.297 1489.18 345.951C1482.46 345.579 1477.37 345.374 1474.14 345.847L1471.15 399.801H1471.3C1475.17 399.801 1479.02 399.887 1482.85 400.043L1483.84 382.035C1484.55 382.157 1485.59 382.295 1486.7 382.362C1492.64 382.689 1497.88 381.261 1501.69 377.464ZM1495.05 363.855C1494.8 368.578 1491.76 371.357 1487.13 371.104C1485.89 371.029 1485.11 370.903 1484.47 370.791L1485.24 356.77C1485.84 356.636 1487.02 356.543 1488.78 356.636C1493.21 356.885 1495.28 359.775 1495.05 363.855ZM1467.62 399.731C1464.16 393.505 1461.01 384.114 1460.5 371.877C1460.03 360.735 1461.87 351.916 1464.36 345.575C1461.62 345.631 1458.9 345.72 1456.19 345.836C1453.54 351.444 1451.05 360.27 1451.5 372.253C1452.06 385.661 1456.17 394.862 1459.59 400.047C1460.58 400.009 1461.58 399.969 1462.58 399.939L1467.62 399.731ZM1422.71 381.651L1430.99 347.877C1427.14 348.342 1423.31 348.867 1419.47 349.462L1418.08 349.715L1416.71 362.583C1416.35 366.466 1415.99 369.601 1415.76 373.042L1415.63 373.068C1414.03 369.791 1412.77 367.199 1410.86 363.647L1404.96 352.114L1402.28 352.601C1398.82 353.326 1395.37 354.103 1391.93 354.936L1411.24 384.322L1415.09 405.417C1418.94 404.632 1422.8 403.933 1426.66 403.32L1422.71 381.651ZM1390.55 411.58L1377.7 371.695L1388.58 368.192L1384.9 356.733C1382.62 357.335 1380.35 357.971 1378.09 358.622L1359.05 364.751C1356.72 365.581 1354.4 366.44 1352.07 367.318L1355.76 378.765L1366.45 375.321L1379.3 415.214C1383.03 413.916 1386.78 412.711 1390.55 411.58ZM1365.48 420.417L1344.06 370.561L1333.2 375.225L1354.63 425.11C1358.22 423.466 1361.84 421.897 1365.48 420.417ZM1317.39 395.13C1321.28 392.991 1324.86 392.753 1327.02 392.753L1323.54 382.633C1320.21 382.648 1316.38 383.388 1311.74 385.943C1302.02 391.284 1299.97 399.712 1304.49 408.054C1308.28 415.065 1314.97 417.118 1323.01 416.337C1328.35 415.771 1330.78 416.158 1332.04 418.468C1333.33 420.859 1332.41 423.273 1328.86 425.222C1325.03 427.327 1320.4 427.967 1317.26 427.784L1320.98 439.303C1323.91 439.504 1329.26 438.563 1333.89 436.015C1345.16 429.811 1346.57 419.941 1342.17 411.807C1338.6 405.22 1332.98 402.39 1324.39 403.115C1318.31 403.546 1315.72 403.699 1314.42 401.315C1313.29 399.214 1314.24 396.863 1317.39 395.13ZM1298.55 427.818C1300.43 424.519 1300.86 418.137 1296.81 412.599C1293.64 408.247 1290.06 406.009 1286.21 405.492C1283.26 405.134 1280.77 404.733 1277.08 407.463C1273.93 409.791 1273.63 409.936 1271.91 411.204C1268.84 413.469 1265.83 415.79 1262.86 418.137C1262.1 418.866 1261.43 419.543 1260.86 420.171L1292.74 463.805C1295.74 461.339 1298.81 458.933 1301.93 456.567L1290.14 440.43L1291.67 439.314C1294.62 437.157 1296.76 437.313 1301.6 441.962C1306.12 446.157 1309.31 448.813 1311 449.996C1314.38 447.649 1317.8 445.38 1321.25 443.197C1319.25 441.917 1313.45 436.372 1309.06 432.675C1305.37 429.503 1302.03 427.591 1298.75 428.078L1298.55 427.818ZM1286.4 430.116L1283.93 431.928L1276.21 421.384C1276.6 420.904 1277.45 420.075 1279.24 418.769C1282.46 416.519 1285.54 417.095 1288 420.458C1290.41 423.753 1289.99 427.491 1286.4 430.116ZM1246.88 448.039L1259.04 436.465L1250.98 428.004C1248.32 430.317 1245.7 432.66 1243.13 435.041L1236.04 441.802C1234.06 443.732 1232.12 445.692 1230.2 447.667L1267.7 487.043C1274.43 479.983 1281.59 473.218 1289.17 466.784L1281.03 458.241L1268.22 470.444L1261.24 463.117L1272.68 452.216L1264.47 443.587L1253.02 454.488L1246.88 448.039ZM1257.94 497.81L1225.19 452.956C1222.37 455.998 1219.61 459.082 1216.92 462.206L1230.87 479.704C1234.6 484.428 1238.75 489.412 1243.3 494.552L1243.22 494.656C1237.05 490.981 1231.63 488.076 1225.97 485.321L1206.27 475.253L1205.68 475.982C1203.25 479.121 1200.89 482.3 1198.59 485.506L1248.91 508.882C1251.82 505.125 1254.83 501.436 1257.94 497.81ZM1240.55 520.259L1195.32 490.148C1193.08 493.395 1190.9 496.675 1188.78 499.989L1234.01 530.103C1236.11 526.786 1238.29 523.498 1240.55 520.259ZM1231.38 534.321L1183.13 509.138C1181.3 512.221 1179.51 515.342 1177.77 518.477L1189.3 524.517C1196.62 528.337 1203.54 531.658 1210.28 534.436L1210.19 534.611C1203.57 533.361 1195.87 532.22 1189.91 531.829L1171.6 530.182C1169.52 534.328 1167.53 538.513 1165.63 542.734L1213.87 567.924C1215.31 564.629 1216.82 561.363 1218.39 558.12L1207 552.181C1199.11 548.06 1191.67 544.322 1184.97 541.116L1185.06 540.941C1191.96 542.187 1199.8 543.039 1206.16 543.559L1224.99 545.348C1227.03 541.633 1229.16 537.958 1231.38 534.321ZM1188.37 562.751L1161.07 553.308C1159.6 556.911 1158.18 560.553 1156.83 564.205L1156.79 564.328L1186.24 574.581C1194.48 577.449 1197.83 581.03 1196.28 585.475C1194.75 589.856 1189.53 590.455 1181.67 587.718L1152.23 577.475C1151.02 581.231 1149.87 585.003 1148.8 588.796L1175.65 598.087C1192.38 603.904 1202.25 600.631 1206.22 589.22C1210.27 577.56 1204.41 568.329 1188.37 562.751ZM1196.86 619.907L1143.08 611.658C1142.34 615.162 1141.65 618.691 1141.03 622.243L1153.82 624.207C1161.98 625.46 1169.6 626.364 1176.88 626.821L1176.85 627.015C1170.18 627.971 1162.53 629.376 1156.76 630.935L1139 635.275C1138.38 639.857 1137.85 644.469 1137.41 649.107L1191.2 657.367C1191.5 653.767 1191.86 650.189 1192.3 646.63L1179.51 644.666C1170.71 643.316 1162.46 642.182 1155.08 641.311L1155.11 641.118C1162.04 640.069 1169.73 638.347 1175.92 636.781L1194.4 632.374C1195.13 628.186 1195.95 624.032 1196.86 619.907ZM1190.75 663.556L1136.48 661.339C1136.26 665.259 1136.1 669.194 1136.01 673.144L1190.28 675.368C1190.36 671.411 1190.51 667.476 1190.75 663.556ZM1168.98 682.014L1135.93 683.305C1135.96 687.258 1136.06 691.201 1136.22 695.121L1169.42 693.823C1176.85 693.536 1179.03 695.935 1179.17 699.721C1179.24 701.614 1178.91 703.452 1178.48 704.91L1190.11 705.761C1190.91 703.511 1191.2 700.294 1191.1 697.88C1190.71 687.31 1184.64 681.401 1168.98 682.014ZM1191.49 707.718L1137.8 716.595C1138.18 720.181 1138.61 723.755 1139.11 727.303L1151.85 725.194C1159.99 723.852 1167.51 722.338 1174.58 720.515L1174.61 720.705C1168.56 723.688 1161.73 727.4 1156.73 730.676L1141.2 740.331L1141.43 741.73C1142.18 745.839 1143.01 749.923 1143.91 753.981L1197.6 745.103C1196.78 741.614 1196.03 738.092 1195.35 734.552L1182.63 736.657C1173.84 738.107 1165.65 739.595 1158.37 741.068L1158.33 740.871C1164.6 737.72 1171.38 733.685 1176.77 730.275L1192.97 720.333C1192.39 716.157 1191.89 711.95 1191.49 707.718ZM1198.48 748.759L1150.33 778.42C1151.86 783.463 1153.5 788.454 1155.26 793.389L1211.47 788.257C1209.89 784.46 1208.4 780.618 1207 776.735L1194.84 778.267L1191.29 767.47L1201.87 761.211C1200.65 757.097 1199.51 752.947 1198.48 748.759ZM1183.96 780.194L1174.05 781.451C1170.9 781.797 1166.36 782.604 1163.05 783.002L1163.01 782.879C1165.91 781.235 1169.91 779.03 1172.66 777.445L1181.41 772.436L1183.96 780.194ZM1212.66 791.102L1163.16 813.484C1164.72 817.103 1166.35 820.696 1168.02 824.255L1217.53 801.877C1215.84 798.321 1214.21 794.732 1212.66 791.102ZM1181.58 824.701L1171.11 830.6C1176.27 840.921 1181.94 850.929 1188.1 860.614L1198.53 854.738L1193.01 844.953L1229.54 824.337C1227.53 820.949 1225.59 817.523 1223.71 814.053L1187.19 834.654L1181.58 824.701ZM1256.91 916.38C1254.57 918.053 1260.02 925.823 1265.22 928.612C1268.58 930.424 1273.4 929.68 1277 929.174C1281.97 928.475 1287.16 927.712 1291.44 924.897C1294.99 922.561 1298.32 919.805 1301.58 917.086C1303.15 915.774 1304.71 914.468 1306.23 913.114C1309.94 909.845 1314.95 905.888 1314.95 905.888C1314.95 905.888 1307.2 921.241 1304.22 928.627C1301.25 936.013 1300.23 946.914 1302.57 950.15C1304.9 953.382 1311.66 953.204 1312.91 953.642C1314.16 954.081 1320.75 956.25 1324.17 957.451C1327.59 958.637 1328.54 956.049 1327.06 954.989C1325.59 953.921 1325.15 953.561 1322.22 951.593C1319.28 949.629 1315.34 946.386 1315.11 945.765C1314.89 945.148 1314.95 941.674 1315.1 939.16C1315.26 936.649 1315.52 923.803 1316.17 919.79C1316.82 915.777 1319.71 905.981 1319.71 905.981C1319.71 905.981 1324.13 905.784 1330.68 906.914C1337.25 908.038 1338.67 907.011 1339.57 906.275C1340.46 905.546 1341.41 904.564 1338.77 903.861C1336.12 903.151 1331.81 899.472 1331.45 899.182C1331.1 898.892 1330.45 898.07 1329.16 898.037C1327.87 898.003 1327 896.713 1327 896.713C1327 896.713 1326.69 895.861 1327.41 894.987C1328.13 894.109 1327.83 891.074 1327.83 891.074C1329.1 893.287 1336.28 894.191 1339.31 893.893C1342.35 893.592 1348.21 893.41 1350.59 893.016C1352.96 892.622 1353.86 894.388 1357.24 892.599C1359.4 891.461 1357.88 892.484 1360 891.115C1362.11 889.743 1361.66 889.088 1360.99 887.831C1360.33 886.578 1358.17 885.938 1356.35 884.874C1354.54 883.807 1352.16 882.569 1351.1 881.977C1350.03 881.386 1350.53 881.799 1347.38 881.33C1344.23 880.869 1340.34 879.236 1336.43 878.146C1332.52 877.06 1330.87 876.134 1330.02 875.435C1329.18 874.747 1328.71 873.936 1326.54 874.695C1325.11 875.193 1325.16 876.696 1325.34 877.938C1325.56 879.456 1325.41 880.404 1325.32 881.918C1325.24 883.164 1326.14 884.179 1325.9 885.477C1325.9 885.477 1325.12 884.7 1323.78 883.744C1322.45 882.788 1321.33 884.841 1320.5 885.856C1319.67 886.864 1317.19 890.066 1316.1 890.87C1315.02 891.673 1313.93 893.179 1312.82 894.533C1311.71 895.88 1307.98 899 1307.98 899C1305.67 899.309 1288.99 896.925 1286.13 896.482C1283.26 896.039 1281.12 890.613 1281.12 890.613C1277.8 891.844 1276.24 898.178 1276.41 901.317C1276.51 903.188 1277.06 905.375 1277.9 907.052C1279.31 909.815 1283.97 911.452 1288.74 910.648C1293.5 909.86 1300.74 907.29 1300.74 907.29C1297.71 911.705 1295.13 914.13 1284.27 920.043C1273.41 925.953 1268.67 922.066 1265.47 920.609C1262.26 919.151 1258.34 915.346 1256.91 916.38ZM1321.6 900.886C1322.38 899.409 1324.42 898.632 1324.42 898.632L1325.12 898.33C1327.11 898.84 1326.82 901.406 1326.29 901.198C1325.88 901.042 1321.6 900.886 1321.6 900.886ZM1324.17 767.519C1370.71 850.297 1444.55 887.734 1463.02 896.389L1471.3 899.669L1479.58 896.389C1498.05 887.734 1571.89 850.297 1618.45 767.519C1638.87 730.959 1646.61 691.833 1647.61 655.578L1647.63 654.823H1647.65L1648.09 638.805C1648.09 638.805 1627.71 632.549 1621.63 628.491C1612.32 622.291 1609.75 614.964 1614.26 605.492C1618.57 596.443 1643.11 588.833 1643.11 588.833L1639 570.2C1638.73 568.995 1638.46 567.794 1638.18 566.6H1638.17C1628.07 522.821 1613.83 493.172 1613.33 492.104L1605.06 474.899L1587.94 480.943C1577.46 484.666 1567.1 486.18 1557.08 486.18C1518.97 486.518 1485.11 455.37 1483.59 453.99L1471.3 444.539L1458.99 453.99H1459.01C1457.49 455.37 1423.63 486.518 1385.52 486.18C1375.5 486.18 1365.16 484.666 1354.65 480.943L1337.54 474.899L1329.27 492.104C1328.76 493.194 1313.74 524.454 1303.6 570.2L1299.5 588.833C1299.5 588.833 1324.03 596.443 1328.34 605.492C1332.86 614.964 1330.28 622.291 1320.98 628.491C1314.9 632.549 1294.52 638.805 1294.52 638.805L1294.98 655.578C1296 691.833 1303.73 730.959 1324.17 767.519ZM1334.23 760.992C1315.06 726.674 1307.7 689.828 1306.72 655.195L1306.52 647.749L1313.07 645.317C1322.7 641.758 1330.53 636.428 1335.64 630.589C1340.79 624.712 1343.18 618.691 1343.18 612.759C1343.18 612.409 1343.18 612.067 1343.15 611.759C1342.9 606.719 1340.99 601.906 1337.19 597.172C1333.39 592.486 1327.67 588.086 1320.47 584.772L1313.23 581.41L1315.05 573.116C1324.83 528.865 1339.48 498.412 1339.7 497.929L1343.39 490.271L1350.99 492.971C1362.78 497.155 1374.39 498.825 1385.55 498.825H1385.82C1427.34 498.825 1462.04 467.197 1465.56 464.493L1465.83 464.288L1471.3 460.119L1476.76 464.288L1477.06 464.493C1480.57 467.201 1515.42 498.974 1557.07 498.825C1568.21 498.825 1579.81 497.155 1591.62 492.971L1599.21 490.271L1602.9 497.929C1603.12 498.386 1616.37 525.949 1626.08 566.712C1626.3 567.604 1626.51 568.5 1626.72 569.404C1626.8 569.758 1626.88 570.115 1626.97 570.468C1627.08 571 1627.2 571.528 1627.32 572.063C1627.41 572.413 1627.48 572.763 1627.56 573.116L1628.4 576.973L1629.37 581.41L1622.13 584.772C1614.94 588.086 1609.21 592.486 1605.42 597.172C1601.62 601.906 1599.71 606.719 1599.46 611.759C1599.44 612.067 1599.42 612.409 1599.42 612.759C1599.44 618.691 1601.81 624.712 1606.96 630.589C1612.08 636.428 1619.91 641.758 1629.54 645.317L1636.08 647.749L1635.93 653.852L1635.88 655.195C1634.9 689.828 1627.56 726.674 1608.36 760.992C1564.1 840.013 1492.27 876.737 1474.98 884.752L1471.3 885.953L1467.62 884.752C1450.34 876.737 1378.5 840.013 1334.23 760.992ZM1316.12 654.886C1317.06 688.225 1324.11 723.227 1342.29 755.781C1384.74 831.805 1454.98 867.948 1471.31 875.443C1471.31 875.443 1547.63 850.107 1600.28 755.781C1618.47 723.227 1625.52 688.225 1626.48 654.886C1604.15 646.637 1589.13 629.864 1590.04 611.23C1590.75 596.045 1601.89 583.098 1618.39 575.478C1608.89 532.413 1594.53 502.589 1594.53 502.589C1530.32 525.309 1471.31 472.523 1471.31 472.523C1471.31 472.523 1412.23 525.309 1348.05 502.589C1348.05 502.589 1333.7 532.413 1324.19 575.478C1340.67 583.098 1351.82 596.045 1352.54 611.23C1353.4 629.864 1338.39 646.637 1316.12 654.886ZM1488.49 572.089C1488.49 578.803 1487.72 584.906 1486.7 590.823C1486.25 593.401 1484 595.219 1481.48 595.219L1480.55 595.137C1477.67 594.635 1475.73 591.887 1476.23 589.001C1477.21 583.407 1477.87 577.996 1477.87 572.089C1477.87 563.26 1476.4 553.215 1471.88 539.792C1470.95 537.01 1472.45 533.997 1475.22 533.064C1477.99 532.127 1481.01 533.622 1481.94 536.404C1486.76 550.667 1488.5 562.025 1488.49 572.089ZM1505.79 571.342C1505.79 577.229 1505.17 582.656 1504.29 588.071C1503.41 593.49 1502.29 598.901 1501.24 604.9C1499.48 614.994 1497.87 627.052 1497.87 644.205C1497.87 661.402 1499.5 683.706 1504.33 713.97C1504.79 716.867 1502.82 719.589 1499.93 720.054L1499.09 720.121C1496.53 720.121 1494.27 718.254 1493.85 715.647C1488.95 684.952 1487.25 662.083 1487.25 644.205C1487.25 626.397 1488.95 613.525 1490.79 603.07C1491.88 596.874 1492.98 591.478 1493.81 586.379C1494.64 581.272 1495.17 576.474 1495.17 571.342C1495.17 562.832 1493.71 553.255 1489.18 539.792C1488.24 537.01 1489.74 533.997 1492.52 533.064C1495.3 532.127 1498.3 533.622 1499.25 536.404C1504.05 550.63 1505.8 561.546 1505.79 571.342ZM1523.09 572.089C1523.09 578.803 1522.32 584.906 1521.29 590.823C1520.84 593.401 1518.6 595.219 1516.07 595.219L1515.15 595.137C1512.26 594.635 1510.33 591.887 1510.83 589.001C1511.8 583.407 1512.47 577.996 1512.47 572.089C1512.46 563.26 1511 553.215 1506.48 539.792C1505.54 537.01 1507.05 533.997 1509.82 533.064C1512.6 532.127 1515.6 533.622 1516.54 536.404C1521.35 550.667 1523.1 562.025 1523.09 572.089ZM1554.15 720.367C1551.21 720.367 1548.84 717.986 1548.84 715.063V649.724H1532.11C1529.11 649.724 1526.67 647.351 1526.67 644.417C1526.67 641.486 1529.11 639.11 1532.11 639.11H1548.84V618.479H1532.11C1529.11 618.479 1526.67 616.099 1526.67 613.164C1526.67 610.234 1529.11 607.861 1532.11 607.861H1548.84V587.123H1532.11C1529.11 587.123 1526.67 584.746 1526.67 581.815C1526.67 578.884 1529.11 576.504 1532.11 576.504H1538.69C1538.82 574.79 1538.9 573.06 1538.9 571.29C1538.89 562.97 1537.44 553.531 1532.9 539.93C1531.97 537.129 1533.46 534.09 1536.24 533.149C1539.02 532.205 1542.03 533.707 1542.96 536.512C1547.75 550.845 1549.52 561.639 1549.52 571.29C1549.52 573.071 1549.44 574.801 1549.33 576.504H1558.63C1558.52 574.801 1558.45 573.071 1558.45 571.29C1558.44 561.639 1560.2 550.845 1564.99 536.512C1565.93 533.707 1568.94 532.205 1571.72 533.149C1574.5 534.09 1575.99 537.129 1575.05 539.93C1570.52 553.531 1569.07 562.97 1569.07 571.29C1569.07 573.06 1569.14 574.79 1569.26 576.504H1575.85C1578.85 576.504 1581.29 578.884 1581.29 581.815C1581.29 584.746 1578.85 587.123 1575.85 587.123H1559.45V607.861H1575.85C1578.85 607.861 1581.29 610.234 1581.29 613.164C1581.29 616.099 1578.85 618.479 1575.85 618.479H1559.45V639.11H1575.85C1578.85 639.11 1581.29 641.486 1581.29 644.417C1581.29 647.351 1578.85 649.724 1575.85 649.724H1559.45V715.063C1559.45 717.986 1557.08 720.367 1554.15 720.367ZM1516.2 799.768C1516.99 797.391 1519.69 796.086 1522.2 796.826C1523.91 797.339 1526.23 797.57 1528.96 797.73C1529.4 797.76 1529.87 797.76 1530.33 797.76C1533.7 797.786 1537.26 796.99 1539.69 795.625C1542.14 794.2 1543.42 792.661 1543.76 790.31C1543.81 789.856 1543.84 789.425 1543.84 789.042C1543.71 785.84 1542.48 784.649 1539.77 783.173C1537.1 781.849 1533.06 781.28 1530.18 781.291C1528.88 781.291 1527.79 781.41 1527.4 781.495V781.484C1525.93 782.009 1524.26 781.823 1522.97 780.99C1521.66 780.134 1520.87 778.762 1520.9 777.241L1521.11 758.306C1521.18 755.863 1523.3 753.858 1525.92 753.858H1544.83C1547.47 753.858 1549.62 755.874 1549.62 758.343C1549.62 760.832 1547.47 762.825 1544.83 762.825H1530.66L1530.53 772.32C1534.47 772.383 1539.49 772.997 1544.18 775.21C1548.98 777.375 1553.54 782.299 1553.43 789.042C1553.43 789.8 1553.38 790.596 1553.29 791.411C1552.59 796.863 1548.88 801.01 1544.56 803.338C1540.23 805.719 1535.17 806.708 1530.33 806.738C1529.67 806.738 1529.01 806.708 1528.33 806.686C1525.47 806.489 1522.46 806.277 1519.35 805.369C1516.8 804.636 1515.41 802.115 1516.2 799.768ZM1513.56 701.704C1510.94 701.704 1508.65 699.751 1508.31 697.077C1505.57 675.907 1504.55 658.401 1504.55 644.026C1504.55 634.293 1505.01 625.996 1505.73 618.974H1505.74C1506.03 616.058 1508.64 613.934 1511.55 614.235C1514.47 614.533 1516.59 617.136 1516.29 620.052C1515.61 626.699 1515.16 634.632 1515.16 644.026C1515.16 657.899 1516.15 674.951 1518.84 695.712C1519.21 698.624 1517.16 701.283 1514.26 701.659L1513.56 701.704ZM1472.23 768.155C1472.34 758.95 1481.13 752.486 1490.96 752.471C1498.61 752.478 1505.59 756.413 1508.38 762.483L1508.89 763.279C1509.05 763.666 1510.65 767.221 1510.65 772.692C1510.78 781.54 1505.91 795.253 1485.98 806.102C1485.23 806.518 1484.37 806.738 1483.55 806.738C1481.92 806.738 1480.31 805.953 1479.41 804.543C1478.08 802.397 1478.83 799.66 1481.1 798.388C1490.96 792.846 1496.02 787.323 1498.55 782.466C1496.21 783.351 1493.62 783.827 1490.96 783.853C1481.13 783.827 1472.34 777.375 1472.23 768.155ZM1469.95 644.026C1469.95 634.293 1470.42 625.996 1471.14 618.974C1471.43 616.058 1474.04 613.934 1476.95 614.235C1479.88 614.533 1482 617.136 1481.7 620.052C1481.02 626.699 1480.57 634.632 1480.57 644.026C1480.57 657.899 1481.55 674.951 1484.24 695.712C1484.61 698.624 1482.56 701.283 1479.66 701.659L1478.97 701.704C1476.34 701.704 1474.06 699.751 1473.71 697.077C1470.97 675.907 1469.95 658.401 1469.95 644.026ZM1423.15 790.816C1423.15 786.078 1425.78 781.931 1429.46 779.204L1429.67 779.082C1426.24 776.389 1423.88 772.421 1423.88 767.924C1423.88 763.294 1426.35 759.236 1429.91 756.536C1433.51 753.791 1438.22 752.24 1443.33 752.24C1448.44 752.24 1453.17 753.791 1456.74 756.536C1460.32 759.236 1462.81 763.294 1462.81 767.924C1462.81 772.421 1460.43 776.389 1457.01 779.071L1457.21 779.204C1460.91 781.931 1463.54 786.078 1463.54 790.816C1463.54 795.547 1460.91 799.705 1457.21 802.412C1453.48 805.164 1448.63 806.712 1443.33 806.738C1438.04 806.712 1433.19 805.164 1429.46 802.412C1425.78 799.705 1423.15 795.547 1423.15 790.816ZM1423.71 535.749L1423.72 535.753C1424.89 533.06 1428.02 531.844 1430.7 533.027C1433.38 534.206 1434.6 537.33 1433.43 540.015L1433.42 540.023L1433.42 540.041L1433.34 540.223C1433.27 540.394 1433.16 540.662 1433.02 541.042C1432.73 541.793 1432.31 542.957 1431.79 544.538C1430.76 547.692 1429.36 552.486 1427.99 558.916C1427.7 560.255 1427.42 561.679 1427.14 563.167C1429.18 565.057 1430.98 567.269 1432.6 569.702C1434.93 573.216 1436.9 577.2 1438.64 581.454C1442.11 589.968 1444.63 599.612 1446.5 608.757C1450.24 627.03 1451.38 643.301 1451.4 643.457C1451.61 646.552 1449.42 649.252 1446.5 649.479L1446.1 649.497C1443.35 649.497 1441.02 647.251 1440.82 644.294L1440.8 644.015C1440.78 643.822 1440.76 643.528 1440.73 643.137C1440.66 642.356 1440.56 641.218 1440.42 639.772C1440.13 636.878 1439.67 632.768 1439 627.959C1437.67 618.353 1435.44 605.908 1432.07 594.896C1430.07 588.335 1427.62 582.291 1424.91 577.735C1423.6 588.513 1422.76 601.564 1423.02 616.902C1423.48 642.665 1427.04 674.832 1436.8 713.278C1437.51 716.119 1435.8 719.013 1432.96 719.731C1432.55 719.835 1432.14 719.887 1431.74 719.894C1429.33 719.939 1427.13 718.321 1426.51 715.889C1416.57 676.673 1412.89 643.684 1412.42 617.092C1411.49 563.904 1423.44 536.348 1423.71 535.749ZM1402.03 757.503C1402.03 755.033 1404.19 753.025 1406.82 753.025C1409.46 753.025 1411.63 755.033 1411.63 757.503V802.249C1411.63 804.74 1409.46 806.738 1406.82 806.738C1404.19 806.738 1402.03 804.74 1402.03 802.249V757.503ZM1361.33 643.457C1361.33 643.361 1361.83 636.305 1363.22 626.315C1364.62 616.322 1366.9 603.401 1370.56 591.422C1373.02 583.433 1376.05 575.853 1380.13 569.702C1381.74 567.269 1383.54 565.057 1385.58 563.167C1382.72 548.09 1379.42 540.316 1379.29 540.023C1378.12 537.337 1379.33 534.206 1382.02 533.027C1384.69 531.844 1387.82 533.06 1389 535.753C1389.27 536.348 1401.23 563.904 1400.3 617.092C1399.83 643.684 1396.15 676.673 1386.2 715.889C1385.59 718.325 1383.38 719.939 1380.98 719.894C1380.57 719.887 1380.17 719.835 1379.76 719.731C1376.92 719.013 1375.2 716.119 1375.92 713.278C1385.67 674.832 1389.24 642.665 1389.69 616.902C1389.96 601.568 1389.12 588.51 1387.82 577.735C1386.62 579.74 1385.47 582.035 1384.39 584.538C1381.45 591.348 1379.09 599.667 1377.28 607.872C1373.64 624.285 1372.22 640.225 1371.95 643.625C1371.92 644.082 1371.9 644.294 1371.9 644.294C1371.7 647.251 1369.37 649.497 1366.62 649.497L1366.21 649.479C1363.3 649.252 1361.11 646.552 1361.33 643.457ZM1432.75 790.816C1432.75 792.385 1433.56 793.966 1435.42 795.402C1437.28 796.785 1440.13 797.782 1443.33 797.782C1446.56 797.782 1449.4 796.785 1451.26 795.402C1453.12 793.966 1453.95 792.385 1453.95 790.816C1453.95 789.228 1453.12 787.643 1451.26 786.226C1449.4 784.835 1446.56 783.842 1443.33 783.842H1443.3C1440.11 783.842 1437.28 784.835 1435.42 786.226C1433.56 787.643 1432.75 789.228 1432.75 790.816ZM1450.69 772.383C1452.45 771.022 1453.22 769.486 1453.22 767.924C1453.22 766.347 1452.45 764.815 1450.7 763.461C1448.95 762.13 1446.34 761.2 1443.33 761.2H1443.32C1440.33 761.2 1437.71 762.13 1436 763.461C1434.24 764.815 1433.46 766.347 1433.46 767.924C1433.46 769.486 1434.24 771.022 1436 772.383C1437.71 773.696 1440.36 774.641 1443.33 774.641C1446.34 774.641 1448.95 773.696 1450.69 772.383ZM1484.21 763.617C1482.6 764.956 1481.81 766.507 1481.78 768.155C1481.81 769.813 1482.6 771.349 1484.21 772.681C1485.82 773.975 1488.21 774.879 1490.96 774.879C1493.67 774.879 1496.06 773.975 1497.7 772.681C1499.32 771.349 1500.11 769.813 1500.12 768.155C1500.11 766.507 1499.32 764.956 1497.7 763.617C1496.06 762.342 1493.67 761.434 1490.96 761.434H1490.94C1488.19 761.434 1485.82 762.342 1484.21 763.617ZM1380.45 985.416C1380.23 987.476 1378.65 991.79 1382.21 991.887C1385.62 991.976 1385.5 990.961 1387.42 987.554C1388.92 984.895 1390.55 983.493 1391.88 980.562C1393.21 977.631 1393.79 977.739 1394.11 976.798C1394.41 975.857 1394.39 974.541 1395.09 971.885C1395.8 969.237 1396.93 965.016 1397.3 963.498C1397.68 961.985 1398.22 960.821 1398.96 958.95C1399.69 957.075 1401.45 956.328 1402.83 956.082C1403.3 955.997 1407.01 956.376 1407.48 956.424L1407.64 956.93C1407.81 957.183 1407.05 957.098 1412.77 959.147C1412.93 959.21 1412.66 960.397 1412.62 960.94C1412.53 962.007 1412.54 963.145 1412.24 964.179C1412.24 964.179 1409.2 964.633 1409.01 965.563C1408.81 966.489 1408.47 967.236 1409.6 967.749C1410.73 968.255 1411.4 968.899 1411.4 968.899C1411.4 968.899 1411.52 969.981 1411.19 971.714C1411.01 972.603 1410.76 972.54 1410.71 972.748C1410.65 973.053 1408.52 973.142 1408.15 973.343C1406.91 974.024 1406.81 975.798 1408.22 977.494C1408.75 978.126 1409.57 977.602 1409.79 978.282C1410.08 979.234 1408.85 980.506 1408.63 980.782C1407.87 981.741 1406.45 983.24 1404.58 983.571C1402.71 983.898 1400.81 984.579 1395.74 983.392C1395.01 983.225 1394.28 983.894 1393.84 984.694C1393.87 985.263 1393.84 985.854 1393.46 986.58L1393.58 986.769C1394.31 987.491 1395.34 988.369 1395.91 989.377C1396.48 990.377 1395.88 990.868 1397.89 991.426C1400.79 992.233 1401.54 990.091 1403.9 990.812C1406.25 991.534 1403.94 993.17 1403.67 994.141C1403.39 995.149 1402.01 995.989 1401.38 996.789C1399.72 998.846 1400.28 1002.15 1401.21 1004.39C1401.93 1006.1 1403.5 1010.92 1406.16 1009.83C1407.2 1009.4 1411.05 1005.84 1412.28 1004.49C1413.52 1003.13 1414.13 1002.2 1414.48 1000.99C1414.81 999.779 1415.82 989.369 1416.75 988.841C1418.33 987.952 1421.07 988.372 1422.82 988.19C1425.94 987.863 1429.14 987.357 1432.23 986.784C1433.34 986.58 1434.43 986.312 1435.52 986.063C1436.89 985.754 1438.14 985.085 1439.5 984.739C1440.63 984.452 1442.2 984.274 1443.03 983.363C1443.75 982.585 1444.39 982.042 1444.49 981.224C1444.58 980.402 1444.07 979.413 1443.53 978.81C1442.75 977.918 1441.13 977.94 1440.09 977.509C1437.31 976.378 1434.91 974.708 1432.49 972.982C1431.54 972.32 1429.45 971.495 1428.89 970.457C1428.52 970.595 1428.89 970.457 1428.74 971.033C1428.74 971.357 1429.14 972.253 1429.9 974.593C1430.83 977.49 1432.06 980.075 1431.16 980.328C1428.74 981.023 1426.16 980.927 1423.7 981.574C1422.85 981.801 1422.24 981.953 1421.47 982.191C1420.68 982.433 1420.35 982.604 1419.49 982.37C1418.64 982.128 1417.73 981.291 1417.41 980.157C1417.09 979.026 1417.16 978.524 1418.31 978.252C1419.45 977.981 1422.22 976.932 1422.47 975.563C1422.71 974.199 1422.18 974.213 1421.65 973.284C1421.13 972.361 1418.58 975.143 1420.01 970.264L1420.26 969.397L1423.2 969.222C1423.45 969.152 1423.78 969.077 1424.28 968.962C1425.54 968.675 1428.4 968.136 1429.58 967.292C1429.92 967.043 1430.53 965.38 1430.62 965.09C1430.74 964.722 1431.24 964.03 1429.82 963.283C1428.39 962.539 1428.77 963.405 1427 963.699C1425.25 963.989 1421.21 964.049 1421.21 964.049C1421.21 964.049 1421.46 962.781 1421.58 961.579L1421.74 960.623L1421.78 960.497C1421.78 960.497 1422.28 959.244 1424.85 957.417C1427.46 955.554 1436.76 953.914 1439.89 953.516C1443.02 953.118 1448.32 952.542 1449.37 952.471C1450.42 952.4 1450.58 951.05 1449.95 949.503C1449.35 948.015 1448.19 948.662 1447.03 948.841C1445.64 949.06 1444.26 948.607 1442.86 948.674C1441.44 948.733 1440.02 949.042 1438.62 949.261C1436.68 949.559 1432.79 950.392 1431.55 950.474C1430.31 950.552 1428.46 951.221 1427.57 951.396C1426.7 951.571 1426.78 951.247 1427.76 949.946C1428.75 948.644 1431.19 948.648 1432.15 948.674C1433.11 948.688 1434.7 948.008 1436.45 947.245C1439.08 946.104 1441.21 944.188 1443.48 942.485C1444.66 941.603 1445.96 940.815 1447.09 939.889C1447.97 939.156 1448.89 938.286 1449.38 937.226C1449.93 936.066 1449.46 935.385 1448.97 934.299C1448.11 932.395 1444.84 932.867 1443.18 932.811C1442.74 932.796 1442.12 932.685 1441.69 932.845C1440.59 933.261 1438.74 935.288 1437.36 934.384C1436.92 934.098 1437.66 931.521 1437.93 929.977C1438.21 928.43 1436.7 927.058 1435.23 925.291C1433.76 923.517 1431.95 920.333 1429.36 919.66C1426.77 918.983 1424.78 923.885 1424.13 925.629C1423.7 926.801 1423.42 928.036 1422.98 929.215C1422.57 930.312 1421.9 931.253 1421.41 932.309C1420.58 934.15 1420.66 938.29 1417.98 938.621C1417.38 938.699 1417.15 939.562 1416.55 940.157C1415.94 940.744 1413.94 941.492 1414.2 942.485C1414.45 943.474 1416.64 942.254 1417.01 942.291C1417.39 942.336 1417.68 943.448 1417.75 943.694C1418.01 944.742 1417.11 946.427 1416.88 947.45C1416.46 949.22 1416.35 951.229 1415.64 952.917C1415.25 953.858 1409.77 953.23 1408.04 953.311L1407.65 953.416L1407.64 953.408L1407.47 953.073C1407.3 952.512 1405.2 951.671 1405.23 951.095C1405.34 949.421 1403.93 948.439 1403.03 948.175C1402.11 947.915 1400.67 946.755 1400.21 946.316C1399.75 945.881 1398.03 944.977 1397.31 944.114C1396.58 943.255 1397.6 941.172 1397.68 940.447C1397.77 939.547 1399 938.442 1399.55 937.799C1401 936.095 1403.62 934.671 1405.93 934.834C1407.58 934.953 1408.98 935.285 1410.22 933.864C1413.17 930.472 1409.5 926.522 1406.67 924.755C1405.24 923.874 1404.63 923.071 1403.85 922.621C1403.08 922.171 1400.59 920.806 1399.57 920.084C1398.54 919.366 1396.6 918.057 1395.45 918.682C1394.28 919.299 1395.26 920.516 1396.93 923.03C1397.71 924.205 1398.13 925.373 1397.99 926.786C1397.86 928.092 1397.75 928.876 1398.41 930.074C1399.21 931.517 1399.94 932.625 1399.45 934.332C1398.95 936.129 1396.62 939.785 1396.07 940.41C1395.52 941.027 1394.66 941.231 1394.07 941.808C1391.67 944.159 1391.6 946.658 1392.53 949.678C1393.26 952.095 1393.09 956.357 1392.84 958.28C1392.59 960.199 1390.58 964.517 1389.91 965.767C1389.24 967.013 1387.79 969.587 1385.81 974.013C1383.85 978.431 1383.28 979.253 1382.79 979.201C1382.32 979.152 1381.04 981.02 1380.58 981.749C1380.04 982.626 1380.56 984.411 1380.45 985.416ZM1435.04 939.483C1436.12 938.159 1439.23 937.903 1439.23 937.903C1439.34 939.48 1436.88 940.555 1436.56 940.77C1436.24 940.982 1436.13 941.429 1435.89 941.838C1435.64 942.251 1434.54 942.433 1434.54 942.433C1434.54 942.433 1433.97 940.804 1435.04 939.483ZM1389.87 971.309C1389.94 970.624 1390.87 969.096 1392.3 965.994C1393.74 962.896 1396.47 960.623 1396.47 960.623C1396.37 961.616 1396.02 961.661 1395.86 962.416C1395.69 963.167 1391.2 970.903 1390.54 971.454C1389.89 972.004 1389.8 971.993 1389.87 971.309ZM1522.43 975.106C1523.51 981.942 1521.49 986.141 1517.91 989.629C1514.14 993.267 1508.55 995.978 1503.09 999.456L1502.86 999.604L1502.8 999.872C1502.77 1000.07 1502.58 1000.4 1502.71 1000.95L1502.8 1001.3L1503.16 1001.42C1505.41 1002.03 1508.29 1001.23 1510.45 1000.98C1511.24 1000.85 1511.99 1000.7 1512.72 1000.51C1523.67 997.667 1529.75 987.629 1530.74 979.026C1530.96 974.6 1531.17 970.212 1531.42 965.968C1532.56 964.8 1533.7 963.651 1534.86 962.639L1534.89 962.609L1534.93 962.572C1536.02 961.289 1538.04 959.69 1540.04 957.953L1539.62 957.47L1540.06 957.942C1543.02 955.149 1546.77 951.385 1547.59 948.443L1547.62 948.343L1547.61 948.235L1547.56 947.922C1547.1 946.52 1545.56 946.081 1543.88 945.639C1542.18 945.237 1540.19 945.01 1538.67 944.832C1538.52 944.824 1535.29 944.817 1534.11 944.828H1534.04L1533.96 944.847L1533.44 945.323L1533.43 945.806C1533.63 946.409 1534.11 946.967 1534.64 947.744C1535.15 948.458 1535.67 949.284 1535.76 949.696L1535.79 949.89C1535.69 951.125 1532.86 954.215 1531.24 955.692C1530.27 948.346 1532.99 941.715 1532 934.254L1531.96 934.016L1531.78 933.86C1529.5 931.904 1522.29 929.267 1518.53 929.985L1518.26 930.044L1518.11 930.293L1517.96 930.9L1517.95 930.97L1517.89 931.063L1517.89 931.223C1517.84 932.186 1517.99 933.142 1518.23 934.102C1518.76 936.118 1519.7 938.141 1520.21 940.153C1520.4 940.878 1520.53 941.6 1520.58 942.325C1521.14 949.73 1522.11 956.99 1522.19 964.134C1518.68 967.872 1514.73 971.55 1510.2 974.645C1508.47 975.939 1505.86 976.337 1503.5 977.873L1503.17 978.089L1503.16 978.096L1502.51 978.267L1502.81 978.967C1504.28 982.154 1506.76 986.859 1510.62 986.048L1511.34 985.795C1513.55 984.75 1515.42 983.054 1517.16 980.893C1518.79 978.859 1520.5 976.973 1522.43 975.106ZM1534.11 970.688C1533.79 971.576 1533.81 972.514 1534.05 973.417C1535.33 978.163 1542.29 983.076 1544.72 985.148C1545.4 985.665 1545.88 986.301 1546.72 986.94C1547.33 987.431 1548.17 987.945 1549.28 988.015C1550.06 988.06 1550.78 987.978 1551.45 987.803L1551.48 987.796C1555.56 986.71 1557.88 982.477 1559.54 980.726C1559.93 980.224 1560.96 979.409 1561.88 978.55C1562.79 977.657 1563.73 976.787 1563.82 975.601L1563.85 974.924L1563.17 974.927C1561.91 974.939 1560.88 975.05 1559.7 975.065L1559.71 975.709L1559.67 975.065C1558.76 975.125 1557.9 975.285 1557.07 975.5C1555.29 975.961 1553.65 976.642 1551.99 977.062C1550.9 977.345 1549.8 977.52 1548.64 977.475C1547.55 977.483 1546.28 977.103 1544.95 976.553C1541.53 975.244 1538.11 972.529 1535.9 970.271L1535.64 970.007L1534.56 970.282L1534.23 970.368L1534.11 970.688ZM1590.28 893.875L1589.67 894.247L1590.57 894.786C1591.94 895.593 1593.41 896.527 1594.79 897.352C1598.16 899.881 1602.49 902.987 1604.86 906.81L1604.88 906.855C1605.29 907.513 1605.75 908.16 1606.14 908.793C1606.86 909.983 1607.26 911.009 1606.83 912.01L1606.81 912.043L1606.78 912.062C1603.38 911.846 1600.23 909.276 1595.74 912.006C1595.23 912.318 1594.71 912.698 1594.16 913.155L1594.02 913.282L1593.97 913.475L1594.03 914.211L1594.14 914.368L1594.25 914.49L1594.41 914.546C1597.45 915.569 1603.02 918.492 1605.19 921.516C1605.59 922.185 1605.91 923 1606.4 923.785C1606.81 924.473 1607.38 925.15 1608.24 925.611L1608.34 925.67L1608.45 925.685C1609.76 925.882 1611.05 926.083 1612.35 926.288L1612.68 926.34L1612.92 926.091C1613.49 925.417 1613.42 924.592 1613.29 923.777C1612.81 921.326 1611.35 917.96 1613.16 915.643C1614.41 915.052 1615.54 915.48 1617.13 915.301L1617.26 915.283L1617.37 915.212C1617.73 914.94 1617.82 914.758 1617.96 914.688L1618.29 914.476L1618.26 914.089C1618.17 913.107 1617.98 912.058 1617.9 911.139L1617.89 911.032L1617.85 910.935C1617.55 910.277 1617.26 909.399 1616.86 908.536L1617.38 907.231L1619.81 901.31L1620.17 901.161C1620.62 901.373 1621.38 901.893 1621.66 902.396L1621.83 902.972V903.013V903.058L1621.82 903.05L1621.18 903.92L1620.86 904.289L1621.22 904.817L1621.37 905.036L1621.65 905.081C1622.23 905.148 1622.77 904.958 1623.2 904.824C1623.91 905.635 1624.47 906.39 1625.36 907.138L1625.4 907.175L1625.45 907.201C1626.41 907.688 1628.07 908.112 1628.06 908.324L1628.03 908.328L1628 908.428L1627.99 908.525C1627.9 910.451 1625.56 914.472 1623.73 917.224C1623.46 917.771 1623.24 918.198 1623.01 918.47L1622.96 918.522L1622.92 918.578C1619.06 925.451 1615.13 932.186 1611.21 939.108C1609.79 942.027 1604.56 946.204 1607 950.526L1607.27 950.924L1607.4 951.091L1607.61 951.147C1609.76 951.69 1611.95 952.036 1614.19 952.192C1615.62 952.106 1616.97 951.389 1617.55 951.679L1617.98 951.839L1618.27 951.452C1621.2 947.498 1620.13 945.289 1620.61 943.861C1622.71 937.475 1626 931.324 1629.97 925.243C1630.95 923.982 1631.86 922.587 1632.83 921.337C1634.49 919.017 1636.13 915.978 1638.77 914.379L1639.33 914.055L1639.37 914.04C1639.62 914.543 1639.75 915.112 1639.79 915.543C1639.89 917.042 1638.97 918.57 1638.65 920.233C1638.29 922.926 1637.46 925.741 1636.61 928.244C1636.2 929.263 1634.94 930.769 1634.95 932.302C1635.04 932.822 1635.23 933.191 1635.42 933.514C1635.67 933.92 1635.95 934.269 1636.13 934.57L1636.37 935.158L1636.39 935.288L1636.41 935.303L1636.37 935.4C1635.89 936.542 1633.41 939.257 1632.64 940.421C1631.57 942.425 1630.43 944.449 1629.15 946.212C1626.25 949.96 1621.42 952.999 1620.43 957.577L1620.36 957.92L1620.61 958.165C1621.53 958.972 1623.59 959.467 1625.95 959.764C1628.3 960.01 1630.8 959.969 1632.4 959.02L1632.88 958.678C1634.79 956.752 1635.51 954.04 1636.17 952.159C1637.07 949.689 1639.6 945.152 1642.11 942.656L1642.73 942.083C1643.41 942.634 1644.14 943.563 1645.02 944.359C1645.8 945.107 1646.41 945.836 1646.84 946.539C1647.84 948.179 1647.93 949.618 1647.46 951.076C1646.9 953.092 1644.97 955.123 1642.56 957.094C1642.27 957.313 1641.95 957.536 1641.6 957.748C1640.45 958.463 1639.01 959.099 1637.73 959.88C1637.22 960.196 1636.73 960.538 1636.3 960.932L1635.96 961.583L1635.97 961.698L1635.79 962.516L1636.62 962.468C1638.92 962.293 1641.25 961.196 1643.25 961.2C1646.9 961.137 1649.99 961.01 1653.61 960.951H1653.68L1653.75 960.928L1654.42 960.687L1654.44 960.679L1654.83 960.192C1655.99 957.284 1655.67 949.99 1653.16 945.784C1652.86 945.285 1652.51 944.843 1652.14 944.452C1650.29 942.515 1648.03 940.692 1646.74 938.587L1646.22 937.598C1646.26 937.349 1646.93 936.348 1647.68 935.567C1648.48 934.701 1649.41 933.871 1649.64 933.73L1654.14 930.963L1654.21 930.877C1655.72 928.917 1655.06 926.563 1655.2 925.001V924.953V924.889L1654.92 924.053C1654.4 923.216 1653.45 923.32 1653.4 923.283L1653.34 923.271L1653.28 923.275C1651.94 923.316 1650.74 923.814 1649.67 924.469C1648.93 924.934 1648.23 925.466 1647.59 926.005C1646.89 926.6 1646.33 927.113 1645.78 927.612L1640.18 931.052L1640.15 931.045C1639.97 931.011 1639.52 930.628 1639.31 930.264L1639.17 929.97L1639.16 929.929C1639.84 927.575 1642.48 925.261 1643.79 922.531C1644 922.122 1644.35 921.561 1644.62 921.04C1645.77 917.916 1646.54 914.937 1647.53 912.021C1647.93 910.641 1649.37 907.368 1648.02 905.003C1647.7 904.501 1647.25 904.066 1646.65 903.775C1645.05 902.775 1643.23 903.221 1641.74 904.144C1639.7 905.412 1638.01 907.562 1637.15 909.001C1636.95 909.417 1636.64 909.752 1636.46 910.295C1633.85 914.342 1630.61 918.314 1627.45 922.42C1626.36 924.082 1625.05 925.726 1624.13 927.496C1623.44 928.523 1621.34 932.354 1620.32 932.964H1620.29C1619.65 931.298 1621.45 928.709 1622.36 926.697L1626.06 919.604L1631.96 908.023C1632.36 907.536 1633.23 906.97 1634.14 906.416C1634.67 906.156 1635.3 905.836 1635.91 905.464C1636.8 904.917 1637.64 904.27 1638.13 903.37C1641.54 897.561 1639.76 890.167 1640.04 884.142C1640.11 881.758 1640.75 873.925 1638.27 869.797C1637.53 868.584 1636.43 867.655 1634.96 867.457C1633.49 867.253 1631.77 867.733 1629.7 868.997L1629.6 869.06L1629.52 869.157C1627.75 871.615 1625.15 880.731 1621.73 884.551C1621.41 882.777 1622.11 880.523 1622.81 878.161C1623.58 875.472 1624.31 872.56 1622.74 869.968L1622.61 869.763L1622.59 869.722C1622.11 869.075 1621.43 868.96 1620.53 868.785C1617.86 868.387 1613.16 868.752 1610.42 870.016L1610 870.217L1610.05 870.678C1610.29 872.047 1611.59 873.598 1612.08 874.81L1612.12 875.357L1612.78 881.151C1613 883.063 1613.72 885.365 1613.85 887.456C1613.96 889.568 1613.58 891.279 1611.71 892.443C1610.96 892.908 1609.94 893.28 1608.59 893.518C1608.15 893.581 1608.02 893.67 1607.75 893.696C1604.88 893.953 1602.42 892.67 1599.27 892.629C1597.84 892.428 1596.55 892.893 1595.31 892.889C1594.08 892.923 1592.44 892.432 1590.72 893.265L1590.1 893.577L1590.28 893.875ZM1627.37 900.242L1627.87 899.937L1629.04 899.502L1629.85 900.012C1629.92 900.51 1630.1 900.874 1630.11 901.079C1629.97 901.548 1629.69 901.923 1629.3 902.165C1628.87 902.422 1628.3 902.533 1627.57 902.303C1627.22 901.522 1627.24 901.094 1627.37 900.242ZM1622.44 889.375L1623.07 889.401C1623.14 885.6 1628.89 879.084 1631.67 875.744C1632.02 875.439 1632.12 875.19 1632.43 875.007C1632.67 874.873 1632.91 874.784 1633.44 874.937C1634.1 875.212 1634.51 875.595 1634.8 876.056C1635.24 876.77 1635.35 877.774 1635.29 878.894C1635.29 880.891 1635.16 882.963 1635.08 884.86V884.9L1635.09 884.964C1635.62 888.348 1637.28 895.218 1634.14 896.932L1633.6 897.204C1632.52 896.37 1631.63 895.56 1630.72 894.741L1630.57 894.611L1630.4 894.589C1629.62 894.47 1628.92 894.563 1628.4 894.477C1627.83 894.295 1626.76 893.827 1625.76 893.165C1624.66 892.547 1623.83 891.814 1623.43 891.156L1623.31 890.94L1623.29 890.877L1623.24 890.81L1623.22 890.788C1623.06 890.52 1622.99 890.063 1623.06 889.449L1622.44 889.375ZM1609.7 899.547C1610.19 899.372 1610.59 899.271 1610.91 899.264C1611.8 899.234 1612.53 899.312 1613.35 899.372C1613.39 900.131 1613.22 901.358 1612.92 902.124L1613.51 902.344L1612.9 902.176L1612.75 902.753C1611.71 901.916 1610.48 900.897 1609.91 899.952L1609.7 899.547Z" fill="#00468C"/>
<path d="M838.873 1381C838.873 1381 839.764 1378.45 840.429 1378C848.729 1374.09 855.02 1383.79 852.602 1384.57C850.753 1385.18 835.527 1396.76 835.527 1396.76C834.051 1389.45 838.873 1381 838.873 1381ZM1007.58 1568.08C999.465 1568.59 996.937 1568.59 981.229 1570.11C965.528 1571.63 942.725 1571.63 940.189 1570.11C937.669 1568.59 928.039 1556.44 921.449 1547.33C914.866 1538.21 879.408 1493.13 870.283 1477.43C861.165 1461.74 843.432 1419.7 843.432 1419.7C843.432 1419.7 858.132 1406.54 883.96 1391.85C909.795 1377.16 911.826 1369.57 912.842 1364.51C913.858 1359.44 914.354 1353.37 903.22 1358.43C892.07 1363.49 866.747 1362.99 864.708 1362.99C862.684 1362.99 858.132 1361.97 853.566 1365.52C849.007 1369.06 842.351 1367.07 842.351 1367.07C842.351 1367.07 838.873 1365.01 838.873 1359.94C838.873 1354.88 829.251 1345.26 829.251 1345.26C839.889 1349.31 867.251 1332.09 876.866 1322.47C886.496 1312.84 906.252 1295.62 913.346 1287.52C920.441 1279.43 928.543 1282.98 935.134 1267.28C939.357 1257.21 937.033 1265.05 940.452 1254.32C943.865 1243.58 940.453 1242.61 934.6 1240.16C928.741 1237.72 919.469 1241.63 910.19 1243.09C900.918 1244.55 889.206 1246.99 883.843 1247.98C878.466 1248.95 881.403 1248.95 869.194 1256.26C856.993 1263.59 838.939 1268.95 822.339 1276.27C805.754 1283.59 797.454 1285.05 792.573 1285.05C787.693 1285.05 783.791 1283.59 778.421 1292.37C774.907 1298.11 779.32 1303.18 783.462 1306.96C788.518 1311.58 790.703 1315.25 794.648 1320.75C797.907 1325.28 803.883 1326.23 806.725 1331.4C806.725 1331.4 801.852 1330.91 794.531 1331.4C787.203 1331.88 789.154 1342.13 789.154 1347.99C789.154 1353.83 789.643 1371.89 788.175 1377.75C786.721 1383.6 787.203 1391.89 787.203 1399.7C787.203 1407.5 783.148 1428.82 783.148 1428.82C776.054 1436.42 711.722 1475.41 700.572 1481.99C689.423 1488.57 666.635 1475.92 666.627 1475.92C658.671 1489.56 671.216 1515.85 680.699 1526.18C686.354 1532.35 694.42 1538.38 702.092 1541.75C714.761 1547.33 735.489 1539.76 749.707 1523.52C763.896 1507.31 781.628 1477.94 781.628 1477.94C783.652 1501.74 781.628 1517.44 760.857 1568.59C740.085 1619.74 712.73 1619.74 697.533 1623.79C682.336 1627.84 658.02 1625.81 655.989 1633.41C652.68 1645.81 693.478 1657.21 719.32 1652.15C736.074 1648.86 750.598 1632.66 761.587 1620.73C776.799 1604.23 792.544 1586.92 799.375 1565.05C805.038 1546.93 808.705 1528 812.249 1509.38C813.951 1500.44 815.632 1491.48 817.093 1482.5C820.637 1460.72 826.715 1432.87 826.715 1432.87C826.715 1432.87 843.432 1507.82 854.07 1541.75C864.708 1575.68 892.07 1616.19 909.298 1620.75C926.512 1625.31 949.322 1605.56 954.89 1603.54C960.457 1601.51 989.339 1590.36 1004.53 1584.8C1019.73 1579.22 1015.69 1567.57 1007.58 1568.08Z" fill="#00468C"/>
<path d="M1746.17 1468.53L1746.37 1468.41C1752.54 1464.1 1763.08 1459.46 1773.7 1454.17L1772.41 1451.61L1773.78 1454.15C1789.75 1445.4 1810.17 1433.36 1817.04 1421.57L1817.27 1421.15L1817.37 1420.68L1817.48 1419.27C1817.05 1412.7 1810.91 1409.1 1804.14 1405.32C1797.22 1401.67 1788.85 1398.5 1782.47 1396.01C1781.82 1395.81 1767.82 1392.18 1762.73 1390.9L1762.38 1390.81H1762.03C1761.15 1390.72 1759.76 1391.37 1759.25 1392.3C1758.69 1393.18 1758.69 1393.86 1758.68 1394.38C1758.83 1397.2 1760.31 1400.14 1761.73 1404.07C1763.15 1407.76 1764.45 1411.87 1764.4 1413.78L1764.3 1414.62C1762.49 1419.85 1746.74 1430.02 1738.07 1434.59C1742.16 1401.81 1761.33 1376.21 1765.38 1342.88L1765.5 1341.83L1764.92 1340.95C1757.19 1329.98 1728.93 1310.57 1711.86 1309.44L1710.57 1309.38L1709.66 1310.3C1708.68 1311.36 1708.52 1312.25 1708.33 1312.74L1708.22 1313.06L1707.89 1313.38L1707.67 1314.07C1706.36 1318.17 1705.94 1322.48 1705.94 1326.87C1705.95 1336.17 1707.76 1345.94 1707.74 1355.2C1707.74 1358.56 1707.51 1361.83 1706.91 1365.01C1701.03 1397.58 1697.09 1429.98 1689.43 1460.94C1670.03 1473.14 1648.78 1484.6 1625.71 1492.9C1616.79 1496.58 1605 1495.36 1593.09 1499.37C1592.19 1499.49 1591.7 1499.83 1591.41 1499.94L1591.38 1499.97H1588.35L1588.88 1503.3C1591.64 1518.73 1597.14 1541.8 1614.8 1542.61C1615.91 1542.61 1617.02 1542.49 1618.15 1542.3C1628.89 1540.27 1638.91 1535.05 1648.86 1527.67C1658.23 1520.7 1667.74 1514.47 1678.18 1508.55C1675.2 1539.28 1661.75 1555.16 1642.32 1566.19C1621.93 1577.7 1594.67 1583.16 1567.1 1592.08L1565.92 1592.45L1565.39 1593.56C1565.07 1594.37 1563.84 1595.62 1563.8 1598.12V1599.75L1565.23 1600.6C1574.31 1605.76 1587.66 1605.53 1597.29 1606.88C1600.87 1607.22 1604.29 1607.38 1607.66 1607.38C1658.26 1607.31 1695.86 1570.77 1709.8 1534.76C1715.71 1515.89 1721.53 1497.18 1727.35 1479.13C1733.63 1475.39 1739.84 1471.7 1745.99 1468.63L1746.17 1468.53ZM1854.88 1553.27C1849.41 1551.9 1844.8 1551.25 1839.7 1549.98L1839 1552.78L1839.54 1549.95C1835.55 1549.18 1831.63 1548.93 1827.78 1548.93C1819.56 1548.93 1811.69 1550.04 1804.04 1550.03C1799 1550.03 1794.03 1549.55 1789.05 1548.04C1784.33 1546.88 1779.27 1543.81 1774.13 1539.96C1760.77 1530.46 1749.02 1514.94 1741.92 1502.71L1741.1 1501.28H1736.14H1734.61L1733.74 1502.53C1731.36 1506 1730.39 1510.07 1730.39 1514.25C1730.65 1536.18 1755.3 1565.14 1763.46 1576.79C1765.89 1579.78 1767.2 1583.07 1770.14 1586.77C1772.23 1589.55 1775.33 1592.71 1780.04 1594.27C1783.36 1595.3 1786.57 1595.76 1789.69 1595.76H1789.81C1808.7 1595.64 1823.48 1579.97 1832.65 1574.25C1834.91 1572.52 1840.26 1570.14 1845.23 1567.46C1850.19 1564.65 1855.19 1561.91 1856.93 1556.9L1857.8 1554L1854.88 1553.27Z" fill="#00468C"/>
<path d="M2110.84 1354.39L2112.67 1356.64L2110.65 1354.56C2109.98 1355.22 2109.31 1355.88 2108.74 1356.46C2106.6 1350.78 2104.12 1343.92 2104.07 1338.88C2104.06 1338.13 2104.08 1337.43 2104.18 1336.8C2106.51 1337.26 2108.32 1337.77 2109.58 1338.48C2113.16 1340.44 2115.82 1342.45 2118.89 1344.58C2117.29 1347.67 2113.77 1352.07 2110.84 1354.39ZM2171.77 1380.49L2174.46 1380.44L2180.03 1381.45C2180.56 1382.61 2181.18 1383.88 2182.02 1385.3C2181.13 1387.44 2180.99 1389.28 2180.56 1390.1C2178.93 1391.62 2176.93 1392.44 2174.88 1392.49C2172.58 1392.52 2170.13 1391.62 2167.8 1389.05C2168.22 1385.16 2169.31 1383.52 2171.77 1380.49ZM2177.36 1334.57L2177.42 1334.24L2177.37 1333.87V1333.77C2177.32 1332.33 2178.12 1330.37 2179.85 1328.15L2177.58 1326.38L2180 1327.95C2189.03 1313.22 2226.6 1300.96 2245.23 1294.3C2247.28 1293.91 2248.25 1293.17 2249.91 1293.17C2251.13 1293.2 2252.27 1293.41 2254 1295.24C2255.94 1297.84 2256.68 1300.28 2256.74 1302.75C2256.82 1306.58 2254.89 1310.78 2252.1 1315.04C2247.49 1322.87 2242.18 1330.7 2237.5 1337.95L2237.4 1338.12L2237.28 1338.39C2231.57 1352.93 2222.2 1383.72 2205.9 1383.15C2205.02 1383.16 2204.11 1383.11 2203.15 1382.97C2200.93 1377.23 2199.26 1371.97 2197.58 1366.61L2197.31 1365.8L2196.67 1365.28C2193.91 1363.02 2190.95 1361.77 2189.14 1360.22C2187.31 1358.19 2184.21 1353.87 2181.83 1349C2178.95 1344.02 2177.38 1339.2 2177.33 1335.69L2177.36 1334.57ZM2091.03 1472.7L2121.88 1453.43L2171.76 1421.66C2174.45 1420.66 2179.16 1420.47 2184 1420.4C2186.67 1420.61 2189.91 1420.82 2193.16 1420.77C2197.87 1420.67 2202.65 1420.06 2206.67 1417.68C2233.43 1402.78 2243.56 1369.62 2258.54 1346.63C2264.35 1337.43 2284.98 1308.18 2284.8 1286.24C2284.72 1279.78 2282.54 1273.59 2277.24 1269.38C2271.96 1265.19 2264.13 1263.07 2253.1 1263.26L2252.55 1263.27L2252.04 1263.48C2239.4 1269 2208.18 1298.76 2185.93 1305.81C2188.78 1298.13 2196.75 1290.91 2204.93 1283.26C2214.15 1274.48 2223.76 1264.76 2223.59 1250.95L2223.56 1249.83L2223.57 1249.62C2223.22 1245.98 2220.79 1243.92 2217.69 1241.18C2208.14 1233.42 2188.9 1223.98 2175.23 1222.58L2173.11 1222.38L2172.29 1224.34C2170.05 1230.26 2171.56 1239.34 2170.68 1245.26L2169.58 1247.5L2158.79 1271.76C2155.23 1279.79 2152.71 1290.47 2148.38 1298.98C2143.94 1307.52 2138.51 1313.36 2128.48 1313.6C2124.48 1313.67 2119.62 1312.79 2113.77 1310.56C2111.91 1309.82 2111.19 1309.84 2110.12 1309.36C2098.26 1303.7 2091.58 1292.97 2079.35 1285.5C2074.21 1281.41 2068.1 1280.25 2063.26 1277.35C2058.36 1274.63 2053.07 1268.92 2044.41 1268.22L2041.27 1267.99L2041.3 1269.57L2038.05 1269.63L2040.32 1273.82C2043.81 1280.17 2047.38 1287.22 2050.91 1293.68C2058.27 1311.41 2068.05 1333.63 2068.46 1354.12V1354.34C2068.52 1357.87 2068.83 1361.47 2068.89 1364.85C2068.99 1371.22 2068.15 1376.14 2064.15 1379.08L2064.03 1379.18H2063.88C2051.07 1370.46 2044.65 1353.06 2020.74 1353.38C2018.03 1353.42 2015.11 1353.7 2011.96 1354.24L2011.06 1354.4L2010.43 1355.03C2010.16 1355.19 2008.87 1356.57 2008.96 1358.09L2009.04 1358.96L2009.18 1359.68L2009.67 1360.26C2019.2 1371.32 2034.29 1395.71 2035.79 1412.58C2035.8 1416.16 2035.19 1420.12 2035.26 1424.32C2035.29 1427.97 2035.96 1431.92 2038.27 1435.75L2038.52 1436.17L2038.92 1436.5C2043.55 1440.3 2048.17 1444.1 2052.8 1447.91L2053.98 1448.89L2055.46 1448.44C2059.3 1447.13 2060.91 1443.74 2062.27 1440.23C2066.05 1429.51 2068.12 1412.9 2080.57 1408.01C2086.8 1408.57 2090.27 1412.9 2096.89 1415.86L2097.44 1416.09L2098.06 1416.08C2100.09 1415.86 2100.84 1415.33 2101.56 1415.37L2103.35 1415.34L2104.1 1413.71C2106 1409.67 2107.75 1405.11 2109.51 1401.3L2109.71 1400.85L2109.76 1400.39C2110.1 1397.1 2111 1392.99 2111.45 1388.66L2116.51 1384.77L2139.71 1367.15L2141.45 1367.39C2142.74 1369.29 2144.5 1373.09 2144.45 1375.7C2144.45 1376.87 2144.23 1377.73 2143.78 1378.35L2143.67 1378.5L2143.58 1378.68L2143.54 1378.64C2142.78 1379.22 2140.47 1380.15 2139.07 1380.58L2136.92 1381.28L2137.12 1384.19L2137.2 1385.41L2138.18 1386.21C2140.3 1387.8 2142.89 1388.34 2144.87 1388.8C2145.76 1393.63 2146.22 1397.91 2147.96 1402.87L2148.03 1403.1L2148.17 1403.32C2150.82 1407.47 2156.33 1412.98 2155.76 1413.79L2155.69 1413.77L2155.32 1414.05L2155.07 1414.42C2150.26 1421.78 2131.82 1432.16 2118.29 1438.71C2115.96 1440.23 2114.11 1441.39 2112.56 1441.91L2112.25 1442L2112.01 1442.14C2080.97 1460.15 2050.06 1477.5 2018.67 1495.55C2006.39 1503.77 1976.24 1508.02 1975.8 1530.62C1975.81 1531.27 1975.84 1532.01 1975.95 1532.82L1976.08 1533.78L1976.78 1534.49C1983.93 1541.6 1991.73 1548.03 2000.14 1553.83C2005.95 1556.79 2012.89 1557.14 2014.45 1559.58L2015.82 1561.23L2017.8 1560.39C2038.42 1551.64 2039.32 1540.5 2044.53 1536.01C2067.5 1515.83 2094.57 1499.28 2124.17 1484.6C2130.92 1481.93 2137.72 1478.57 2144.42 1475.93C2156.28 1470.67 2169.7 1462.54 2183.71 1462.34C2184.72 1462.32 2185.69 1462.34 2186.67 1462.41L2186.86 1462.42C2186.67 1464.97 2185.87 1467.5 2185.03 1469.3C2181.96 1475.39 2174.88 1479.29 2169.71 1485.08C2162.11 1494.78 2152.38 1503.93 2143.25 1511.79C2139.26 1514.82 2130.89 1517.81 2127.37 1523.89C2126.51 1526.11 2126.37 1527.99 2126.4 1529.72C2126.44 1531.89 2126.71 1533.88 2126.74 1535.48C2126.76 1536.77 2126.62 1537.71 2126.34 1538.36L2126.1 1538.93V1539L2125.81 1539.32C2121.24 1542.67 2105.25 1547.57 2099.54 1550.36C2090.78 1555.79 2081.63 1561.07 2072.5 1565.01C2052.5 1573.01 2026.58 1573.75 2012.11 1589.42L2011.04 1590.6L2011.47 1592.15C2013.21 1597.44 2020.11 1604.16 2028.7 1610.8C2037.33 1617.2 2047.21 1622.86 2055.67 1622.83C2056.59 1622.83 2057.45 1622.72 2058.3 1622.57C2070.25 1619.42 2079.31 1610.46 2086.27 1604.62C2095.47 1597.01 2115.87 1585.05 2131.47 1581.1C2132.54 1580.72 2133.8 1580.58 2135.25 1580.28C2136.63 1584.02 2137.33 1589.34 2138.94 1594.53C2140.28 1599.25 2140.94 1603.52 2141.01 1607.28C2141.12 1616.02 2138.19 1621.91 2132.97 1626.53C2126.14 1633.12 2113.89 1636.65 2099.86 1638.77C2098.26 1638.99 2096.48 1639.11 2094.61 1639.14C2088.45 1639.27 2081.34 1638.42 2074.53 1638.54C2071.79 1638.58 2069.08 1638.8 2066.48 1639.32C2065.19 1639.36 2063.79 1640.65 2063.67 1641.13L2063.43 1641.56L2060.83 1644.38L2064.22 1646.12C2073.6 1650.76 2085.28 1651.87 2093.11 1656.51C2107.55 1664.71 2119.91 1671.36 2134.18 1679.49L2134.51 1679.67L2134.84 1679.77C2135.51 1679.92 2136.47 1680.37 2138.02 1680.38H2138.07C2138.86 1680.37 2139.91 1680.1 2140.73 1679.36C2152.01 1670.63 2167.63 1641.29 2167.5 1618.95C2167.45 1616.3 2167.17 1613.76 2166.61 1611.37C2163.84 1599.48 2159.19 1587.07 2159.03 1575.86C2159 1574.09 2159.05 1572.39 2159.27 1570.76C2159.99 1569.89 2164.91 1567.48 2169.68 1566.17C2174.78 1564.6 2180.34 1563.5 2181.57 1563.48L2205.6 1563.06L2206.06 1562.89C2216.5 1558.68 2219.36 1547.91 2223.5 1542.09L2223.64 1541.91L2223.75 1541.67C2224.36 1540.32 2224.66 1538.98 2224.63 1537.75C2224.5 1533.23 2220.52 1531.45 2220.44 1531.22L2220.22 1531.03L2219.95 1530.89C2214.66 1527.96 2208.8 1527.14 2203.1 1527.24C2199.12 1527.31 2195.16 1527.8 2191.41 1528.44C2187.31 1529.15 2183.92 1529.86 2180.57 1530.54L2150.72 1531.06L2150.64 1530.97C2149.99 1530.41 2149.13 1527.85 2149.16 1525.98L2149.29 1524.49L2149.35 1524.3C2157.44 1516.63 2173.12 1513.66 2184.57 1505.99C2186.3 1504.84 2189.01 1503.49 2191.26 1502.04C2202.96 1492.47 2212.88 1482.56 2223.48 1473.4C2228.24 1468.95 2241.44 1459.41 2241.58 1446.98C2241.55 1444.29 2240.74 1441.53 2239.09 1438.99C2235.15 1431.37 2226.97 1428.9 2219.03 1429.1C2208.12 1429.32 2196.49 1433.85 2189.81 1437.51C2188.09 1438.7 2186.1 1439.28 2184.11 1440.97C2164.58 1450.84 2142.71 1458.93 2120.86 1467.72C2112.73 1471.72 2103.8 1475.12 2096.1 1479.95C2091.03 1482.37 2073.95 1492.52 2068.57 1492.58L2068.46 1492.49C2069.82 1484.49 2082.78 1478.49 2091.03 1472.7Z" fill="#00468C"/>
<path d="M1435.72 1495.82C1435.18 1492.23 1431.93 1488.61 1428.96 1486.63C1424.61 1483.74 1417.8 1485.61 1412.84 1484.94C1399.74 1483.19 1387.69 1478.77 1375.43 1474.15C1370.66 1472.37 1360.87 1471.18 1357.27 1467.39C1355.9 1468.38 1357.27 1467.39 1357.27 1470.03C1357.64 1471.4 1360.37 1474.74 1366.21 1483.84C1373.42 1495.1 1381.49 1504.68 1377.96 1506.76C1368.37 1512.4 1357.27 1514.87 1347.54 1520.33C1344.19 1522.21 1341.76 1523.54 1338.71 1525.42C1335.65 1527.31 1334.44 1528.39 1330.52 1528.33C1326.6 1528.27 1321.82 1525.72 1319.19 1521.27C1316.56 1516.81 1316.3 1514.6 1320.86 1512.2C1325.45 1509.78 1336.09 1502.27 1335.6 1496.19C1335.11 1490.13 1332.87 1490.78 1329.6 1487.42C1326.35 1484.08 1318.59 1498.69 1319.27 1476.41C1319.31 1475.36 1318.89 1472.92 1319.35 1472.47C1319.79 1471.12 1330.48 1468.92 1331.7 1468.46C1332.67 1467.9 1334 1467.19 1336.01 1466.16C1341.03 1463.57 1352.63 1458.09 1356.69 1453.21C1357.87 1451.78 1358.66 1444.04 1358.73 1442.72C1358.81 1441.04 1360.18 1437.53 1353.27 1435.94C1346.38 1434.37 1348.94 1437.64 1341.76 1440.82C1334.58 1443.99 1317.46 1448.74 1317.46 1448.74C1317.46 1448.74 1317.1 1443.07 1316.28 1437.82C1316.09 1436.53 1315.84 1434.94 1315.91 1433.6L1315.94 1433.04C1315.94 1433.04 1316.67 1427.15 1325.58 1416.55C1334.62 1405.77 1372.46 1388.5 1385.35 1383.35C1398.23 1378.22 1420.16 1369.89 1424.55 1368.43C1428.94 1366.95 1428.11 1361.07 1423.73 1355.2C1419.51 1349.54 1415.27 1353.58 1410.56 1355.62C1404.89 1358.09 1398.47 1357.71 1392.61 1359.51C1386.64 1361.35 1380.92 1364.24 1375.2 1366.7C1367.25 1370.13 1351.61 1377.97 1346.42 1379.68C1341.21 1381.4 1334.08 1386.3 1330.52 1388C1326.95 1389.72 1326.95 1388.26 1329.69 1381.64C1332.43 1375.03 1342.86 1372.34 1346.96 1371.37C1351.07 1370.38 1357.09 1365.73 1363.68 1360.59C1373.62 1352.82 1380.58 1342.3 1388.38 1332.57C1392.41 1327.55 1397.06 1322.75 1400.83 1317.58C1403.82 1313.49 1406.75 1308.78 1407.67 1303.74C1408.68 1298.21 1405.92 1295.84 1402.62 1291.77C1396.84 1284.66 1383.47 1290.28 1376.36 1291.87C1374.41 1292.3 1371.68 1292.51 1370.02 1293.68C1365.81 1296.67 1360.15 1307.31 1353.26 1305C1351.07 1304.26 1351.34 1292.51 1350.8 1285.66C1350.25 1278.8 1342.31 1274.64 1334.08 1268.76C1325.86 1262.89 1314.61 1251.38 1302.83 1251.38C1291.03 1251.38 1288.02 1274.39 1287.19 1282.48C1286.63 1287.97 1286.86 1293.5 1286.29 1298.98C1285.75 1304.08 1283.92 1308.83 1283.04 1313.85C1281.52 1322.57 1286.47 1340.05 1275.41 1344.42C1272.94 1345.41 1272.94 1349.32 1271.03 1352.51C1269.1 1355.69 1261.43 1361.07 1263.62 1365C1265.82 1368.91 1273.76 1361.32 1275.41 1361.07C1277.05 1360.83 1279.52 1365.23 1280.07 1366.21C1282.39 1370.35 1280.41 1378.5 1280.53 1383.08C1280.75 1391.07 1282.53 1399.71 1281.38 1407.66C1280.74 1412.09 1256.69 1415.48 1249.4 1417.75C1240.97 1420.87 1249.19 1429.12 1251.75 1433.54C1252.73 1434.42 1249.4 1434.9 1276.04 1437.29C1276.78 1437.36 1276.98 1442.7 1277.4 1445.03C1278.18 1449.68 1279.52 1454.49 1279.38 1459.21C1279.38 1459.21 1266.91 1464.51 1267.13 1468.65C1267.35 1472.79 1266.69 1476.35 1272.1 1477.27C1277.5 1478.18 1281.08 1480.16 1281.08 1480.16C1281.08 1480.16 1282.79 1484.61 1283.27 1492.32C1283.53 1496.32 1282.37 1496.31 1282.4 1497.26C1282.49 1498.61 1273.49 1501.36 1272.15 1502.6C1267.61 1506.86 1269.16 1514.51 1277.09 1520.15C1280.04 1522.24 1282.95 1519.11 1284.61 1521.78C1286.93 1525.46 1283.12 1532.22 1282.48 1533.64C1280.29 1538.56 1275.91 1546.47 1268.31 1549.94C1260.71 1553.4 1253.36 1558.4 1230.46 1558.99C1227.14 1559.07 1224.81 1562.71 1223.8 1566.6C1224.56 1568.99 1225.12 1571.53 1224.3 1575.02L1225.03 1575.7C1228.9 1577.97 1234.28 1580.54 1237.84 1584.17C1241.36 1587.81 1239.34 1590.54 1248.55 1590.68C1261.81 1590.9 1262.61 1580.98 1273.45 1581.43C1284.29 1581.88 1276.27 1591.39 1276.19 1595.8C1276.09 1600.42 1271.19 1605.48 1269.35 1609.57C1264.6 1620.14 1270.61 1633.54 1277.1 1642.01C1282.04 1648.44 1294.1 1667.17 1304.22 1659.61C1308.2 1656.64 1320.63 1637.27 1324.37 1630.17C1328.13 1623.06 1329.72 1618.41 1329.82 1612.89C1329.93 1607.38 1322.64 1562.09 1326.02 1558.84C1331.76 1553.31 1343.87 1552.08 1351.14 1549.35C1364.08 1544.5 1377.16 1538.84 1389.68 1532.98C1394.16 1530.88 1398.52 1528.54 1402.92 1526.28C1408.38 1523.45 1412.98 1519.22 1418.39 1516.25C1422.87 1513.79 1429.36 1511.28 1431.89 1506.49C1434.1 1502.41 1436.26 1499.4 1435.72 1495.82ZM1349.08 1329.19C1352.19 1322.39 1365.15 1317.86 1365.15 1317.86C1367.41 1324.4 1358.11 1331.7 1356.98 1332.97C1355.86 1334.23 1355.86 1336.24 1355.29 1338.25C1354.72 1340.28 1350.21 1342.28 1350.21 1342.28C1350.21 1342.28 1345.98 1335.99 1349.08 1329.19Z" fill="#00468C"/>
<path d="M1247.38 1419.12L1246.9 1418.66L1245.78 1417.41C1244.42 1415.22 1234.65 1413.98 1234.18 1411.48C1232.78 1404.24 1225.78 1401.59 1221.65 1401.5C1217.53 1401.39 1210.15 1398.07 1207.75 1396.71C1205.34 1395.34 1197.08 1393.4 1193.07 1390.54C1189.07 1387.68 1191.09 1377.66 1190.6 1374.5C1190 1370.56 1193.97 1364.49 1195.58 1361.14C1199.85 1352.24 1209.3 1343.26 1219.2 1341.4C1226.33 1340.05 1232.58 1339.92 1236.24 1332.47C1244.97 1314.73 1225.13 1302 1211.24 1297.63C1204.27 1295.44 1200.82 1292.7 1197.03 1291.65C1193.25 1290.6 1181.3 1287.54 1176.18 1285.61C1171.05 1283.68 1161.46 1280.25 1157.24 1284.2C1153.02 1288.15 1158.48 1292.22 1168.28 1301.09C1172.89 1305.25 1175.93 1309.73 1176.89 1315.91C1177.79 1321.63 1178.2 1325.1 1182.29 1329.45C1187.24 1334.72 1191.53 1338.64 1191.37 1346.45C1191.2 1354.67 1185.43 1372.84 1183.79 1376.12C1182.16 1379.36 1178.74 1381.2 1176.88 1384.32C1169.36 1397 1171.84 1407.73 1179.04 1419.59C1184.78 1429.05 1188.78 1447.41 1189.84 1455.88C1190.89 1464.34 1187.16 1484.98 1185.72 1491.05C1184.26 1497.11 1180.96 1509.7 1177.53 1530.74C1174.1 1551.79 1172.59 1555.9 1170.49 1556.23C1168.4 1556.55 1165.08 1565.92 1163.97 1569.56C1162.66 1573.9 1166.78 1580.91 1167.45 1585.35C1168.8 1594.36 1166.89 1614.5 1181.99 1610.97C1196.45 1607.57 1194.86 1603.34 1199.21 1586.69C1202.6 1573.69 1207.9 1565.89 1210.29 1551.93C1212.67 1537.96 1215.26 1537.77 1215.54 1533.41C1215.82 1529.06 1214.25 1523.47 1214.3 1511.38C1214.35 1499.29 1214.49 1480.06 1214.38 1473.18C1214.28 1466.29 1215.33 1460.73 1216.36 1451.94C1217.39 1443.14 1223.99 1438 1229.53 1435.41C1231.41 1434.53 1247.48 1432.02 1249.49 1431.7C1250.36 1431.55 1249.04 1429.65 1249.64 1428.99L1247.68 1427.73C1247.41 1425.46 1248.5 1422.95 1248.45 1422.83L1248.12 1421.42C1247.95 1420.5 1247.9 1419.76 1247.38 1419.12ZM1207.1 1470.16C1207.24 1473.56 1196.8 1511.52 1194.64 1514.6C1192.46 1517.68 1192.1 1517.73 1191.63 1514.73C1191.17 1511.72 1193.42 1504.17 1196.05 1489.37C1198.71 1474.56 1207.7 1461.83 1207.7 1461.83C1208.37 1466.19 1206.95 1466.75 1207.1 1470.16Z" fill="#00468C"/>
<path d="M2284.8 1756.6H2250.34L2237.36 1804.4C2235.88 1810.18 2234.17 1817.35 2232.9 1822.72H2232.04C2230.77 1817.54 2228.64 1810.18 2226.94 1804.6L2211.41 1756.6H2175.47L2213.76 1845.82C2214.82 1848.21 2215.04 1849.61 2215.04 1850.8C2215.04 1851.99 2214.39 1853.59 2213.33 1855.18C2210.36 1859.96 2201.42 1870.84 2188.89 1873.16L2182.6 1899.38C2198.32 1899.49 2212.9 1893.82 2223.97 1884.66C2235.66 1874.9 2245.66 1859.56 2260.54 1820.73L2284.8 1756.6ZM2143.28 1814.16V1778.9H2166.47V1756.6H2143.28V1745.25H2111.59V1756.6H2097.76V1778.9H2111.59V1818.74C2111.59 1832.48 2114.57 1841.84 2120.52 1847.61C2125.84 1852.6 2134.56 1855.98 2144.98 1855.98C2153.92 1855.98 2158.79 1855.39 2162.84 1853.99L2168.95 1829.83C2165.98 1830.44 2160.51 1831.29 2156.05 1831.29C2146.47 1831.29 2143.28 1825.9 2143.28 1814.16ZM2084.75 1729.52C2084.53 1720.96 2078.15 1714.38 2067.73 1714.38C2057.31 1714.38 2050.5 1720.96 2050.5 1729.52C2050.5 1737.88 2057.09 1744.65 2067.3 1744.65C2078.15 1744.65 2084.75 1737.88 2084.75 1729.52ZM1989.11 1783.09C1989.11 1778.31 1993.58 1775.32 2001.45 1775.32C2010.16 1775.32 2019.31 1778.51 2023.99 1780.89L2029.52 1759.99C2023.14 1757 2012.5 1754.21 2000.38 1754.21C1974.65 1754.21 1958.05 1767.96 1958.05 1786.27C1957.84 1797.83 1966.14 1808.78 1987.83 1815.55C1999.75 1819.34 2002.94 1821.72 2002.94 1826.9C2002.94 1831.88 1998.89 1834.87 1989.11 1834.87C1979.53 1834.87 1967.19 1831.09 1961.25 1827.7L1955.5 1849.21C1963.37 1853.19 1975.49 1856.17 1989.11 1856.17C2018.89 1856.17 2033.99 1842.83 2033.99 1824.51C2033.78 1810.38 2025.7 1800.82 2005.92 1794.44C1993.15 1790.26 1989.11 1787.86 1989.11 1783.09ZM1941.58 1782.71L1948.51 1755.32C1946.16 1754.92 1942.04 1754.21 1939.06 1754.21C1928.84 1754.21 1916.3 1760.18 1910.98 1774.52H1910.13L1908.85 1756.6H1881.2C1881.83 1764.97 1882.05 1774.32 1882.05 1788.66V1853.99H1914.38V1804.6C1914.38 1802.21 1914.6 1799.82 1915.02 1797.83C1917.14 1788.47 1925.23 1782.49 1937.15 1782.49C1940.76 1782.49 1939.02 1782.31 1941.58 1782.71ZM1862.98 1814.96C1863.4 1812.77 1864.03 1808.18 1864.03 1803C1864.03 1778.9 1851.27 1754.41 1817.66 1754.41C1781.5 1754.41 1765.12 1781.69 1765.12 1806.39C1765.12 1836.86 1785.33 1855.98 1820.64 1855.98C1834.68 1855.98 1847.65 1853.99 1858.3 1849.81L1854.03 1829.29C1845.31 1832.08 1836.38 1833.48 1825.32 1833.48C1810.22 1833.48 1796.81 1827.5 1795.97 1814.96H1862.98ZM1834.04 1794.24H1795.75C1796.6 1786.27 1802.13 1774.52 1815.74 1774.52C1830.64 1774.52 1834.04 1786.87 1834.04 1794.24ZM1723.51 1853.99L1762.22 1756.6H1728.19L1714.79 1801.81C1712.45 1810.18 1710.75 1817.54 1709.05 1825.51H1708.41C1706.71 1817.74 1705.01 1810.18 1702.45 1801.81L1688.41 1756.6H1653.32L1691.18 1853.99H1723.51ZM1641.68 1729.52C1641.47 1720.96 1635.09 1714.38 1624.67 1714.38C1614.25 1714.38 1607.44 1720.96 1607.44 1729.52C1607.44 1737.88 1614.03 1744.65 1624.24 1744.65C1635.09 1744.65 1641.68 1737.88 1641.68 1729.52ZM1552.81 1853.99H1585.15V1796.44C1585.15 1767.75 1569.19 1754.41 1547.91 1754.41C1530.47 1754.41 1520.05 1763.77 1515.8 1770.14H1515.16L1513.67 1756.6H1485.6C1486.02 1765.36 1486.44 1775.52 1486.44 1787.67V1853.99H1518.78V1797.83C1518.78 1795.04 1518.99 1792.25 1519.84 1790.26C1522.18 1784.68 1527.5 1778.9 1536.43 1778.9C1548.13 1778.9 1552.81 1787.47 1552.81 1800.01V1853.99ZM1462.49 1795.04V1719.75H1430.16V1796.83C1430.16 1820.73 1420.8 1831.88 1403.79 1831.88C1387.4 1831.88 1377.83 1820.13 1377.83 1796.83V1719.75H1345.5V1794.64C1345.5 1837.26 1366.56 1856.17 1402.72 1856.17C1440.16 1856.17 1462.49 1836.46 1462.49 1795.04ZM1244.12 1853.99H1276.44V1796.44C1276.44 1767.75 1260.49 1754.41 1239.23 1754.41C1221.78 1754.41 1211.36 1763.77 1207.11 1770.14H1206.48L1204.98 1756.6H1176.9C1177.32 1765.36 1177.76 1775.52 1177.76 1787.67V1853.99H1210.09V1797.83C1210.09 1795.04 1210.29 1792.25 1211.15 1790.26C1213.49 1784.68 1218.8 1778.9 1227.74 1778.9C1239.44 1778.9 1244.12 1787.47 1244.12 1800.01V1853.99ZM1155.33 1729.52C1155.12 1720.96 1148.74 1714.38 1138.32 1714.38C1127.89 1714.38 1121.08 1720.96 1121.08 1729.52C1121.08 1737.88 1127.68 1744.65 1137.89 1744.65C1148.74 1744.65 1155.33 1737.88 1155.33 1729.52ZM1099.73 1729.52C1099.52 1720.96 1093.14 1714.38 1082.71 1714.38C1072.29 1714.38 1065.49 1720.96 1065.49 1729.52C1065.49 1737.88 1072.08 1744.65 1082.29 1744.65C1093.14 1744.65 1099.73 1737.88 1099.73 1729.52ZM1066.55 1835.07C1066.55 1849.33 1065.62 1857.26 1063.25 1862.3C1059.85 1868.4 1052.36 1871.71 1044.49 1873.16L1038.2 1899.38C1046.19 1899.44 1071.13 1896.15 1084.2 1884.85C1093.94 1876.44 1098.88 1863.55 1098.88 1842.44V1756.6H1066.55V1835.07ZM1008.73 1853.99H1041.06V1796.44C1041.06 1767.75 1025.11 1754.41 1003.84 1754.41C986.397 1754.41 975.978 1763.77 971.72 1770.14H971.077L969.594 1756.6H941.513C941.94 1765.36 942.366 1775.52 942.366 1787.67V1853.99H974.699V1797.83C974.699 1795.04 974.909 1792.25 975.762 1790.26C978.098 1784.68 983.419 1778.9 992.348 1778.9C1004.05 1778.9 1008.73 1787.47 1008.73 1800.01V1853.99ZM891.997 1853.99H921.134C919.855 1848.61 919.428 1839.65 919.428 1830.49V1796.44C919.428 1773.33 908.583 1754.21 873.914 1754.21C854.979 1754.21 840.735 1759.19 833.498 1762.97L839.449 1782.49C846.259 1778.51 857.538 1775.12 868.167 1775.12C884.117 1775.12 887.102 1782.49 887.102 1787.86V1789.06C850.301 1789.06 826.051 1801.01 826.051 1826.31C826.051 1841.84 838.603 1856.17 859.664 1856.17C871.992 1856.17 882.634 1851.99 889.444 1844.23H890.081L891.997 1853.99ZM888.158 1818.54C888.158 1820.33 887.955 1822.13 887.522 1823.72C885.396 1829.89 878.592 1834.87 870.719 1834.87C863.489 1834.87 857.958 1831.09 857.958 1823.32C857.958 1811.77 871.146 1807.98 888.158 1807.98V1818.54ZM810.462 1729.52C810.252 1720.96 803.868 1714.38 793.443 1714.38C783.024 1714.38 776.214 1720.96 776.214 1729.52C776.214 1737.88 782.807 1744.65 793.023 1744.65C803.868 1744.65 810.462 1737.88 810.462 1729.52ZM723.843 1745.25H762.98V1719.75H652.8V1745.25H691.51V1853.99H723.843V1745.25ZM809.393 1756.6H777.06V1853.99H809.393V1756.6ZM1154.27 1756.6H1121.94V1853.99H1154.27V1756.6ZM1640.62 1756.6H1608.29V1853.99H1640.62V1756.6ZM2083.68 1756.6H2051.34V1853.99H2083.68V1756.6Z" fill="#00468C"/>
</svg>
