<svg width="3575" height="1340" viewBox="0 0 3575 1340" fill="none" xmlns="http://www.w3.org/2000/svg">
<rect width="3574.5" height="1340" fill="white"/>
<path d="M863.986 567.963C863.986 567.963 865.292 564.226 866.266 563.575C878.427 557.863 887.644 572.03 884.1 573.173C881.392 574.059 859.083 590.991 859.083 590.991C856.92 580.304 863.986 567.963 863.986 567.963ZM1111.18 841.35C1099.28 842.097 1095.58 842.097 1072.56 844.307C1049.56 846.528 1016.15 846.528 1012.43 844.307C1008.74 842.097 994.63 824.332 984.974 811.018C975.329 797.694 923.377 731.822 910.007 708.879C896.647 685.946 870.666 624.515 870.666 624.515C870.666 624.515 892.204 605.276 930.046 583.817C967.899 562.347 970.875 551.254 972.363 543.856C973.851 536.457 974.579 527.574 958.265 534.973C941.929 542.372 904.825 541.635 901.839 541.635C898.873 541.635 892.204 540.14 885.513 545.329C878.833 550.507 869.081 547.603 869.081 547.603C869.081 547.603 863.986 544.592 863.986 537.183C863.986 529.784 849.887 515.734 849.887 515.734C865.474 521.649 905.564 496.485 919.652 482.425C933.761 468.353 962.707 443.189 973.102 431.349C983.497 419.531 995.369 424.709 1005.02 401.765C1011.21 387.054 1007.81 398.509 1012.82 382.826C1017.82 367.142 1012.82 365.722 1004.24 362.146C995.658 358.58 982.073 364.281 968.477 366.427C954.893 368.562 937.733 372.117 929.875 373.569C921.996 374.979 926.3 374.979 908.411 385.666C890.534 396.374 864.082 404.21 839.76 414.908C815.46 425.605 803.299 427.741 796.148 427.741C788.997 427.741 783.28 425.605 775.412 438.438C770.263 446.83 776.729 454.239 782.799 459.759C790.206 466.506 793.407 471.876 799.188 479.905C803.962 486.535 812.719 487.923 816.883 495.471C816.883 495.471 809.743 494.756 799.017 495.471C788.279 496.176 791.138 511.154 791.138 519.717C791.138 528.258 791.855 554.649 789.703 563.201C787.573 571.753 788.279 583.87 788.279 595.283C788.279 606.685 782.338 637.839 782.338 637.839C771.944 648.942 677.686 705.921 661.35 715.541C645.014 725.16 611.625 706.669 611.614 706.669C599.956 726.601 618.337 765.014 632.232 780.121C640.518 789.132 652.336 797.94 663.576 802.872C682.139 811.018 712.509 799.968 733.341 776.224C754.13 752.534 780.112 709.615 780.112 709.615C783.077 744.399 780.112 767.342 749.677 842.097C719.243 916.841 679.163 916.841 656.897 922.756C634.63 928.671 599.004 925.713 596.028 936.817C591.178 954.934 650.955 971.6 688.819 964.201C713.366 959.397 734.647 935.728 750.748 918.293C773.036 894.176 796.105 868.884 806.114 836.919C814.411 810.442 819.784 782.769 824.976 755.566C827.471 742.498 829.933 729.409 832.074 716.277C837.266 684.451 846.172 643.764 846.172 643.764C846.172 643.764 870.665 753.292 886.252 802.872C901.839 852.453 941.929 911.653 967.171 918.315C992.393 924.977 1025.81 896.119 1033.97 893.162C1042.13 890.194 1084.45 873.902 1106.7 865.777C1128.98 857.631 1123.05 840.602 1111.18 841.35Z" fill="black"/>
<path d="M2191.24 694.851L2191.53 694.67C2200.51 688.362 2215.86 681.574 2231.32 673.847L2229.44 670.09L2231.43 673.804C2254.68 661.008 2284.41 643.386 2294.41 626.139L2294.75 625.531L2294.89 624.848L2295.05 622.777C2294.43 613.161 2285.49 607.899 2275.63 602.37C2265.56 597.034 2253.37 592.391 2244.08 588.752C2243.14 588.453 2222.76 583.138 2215.35 581.27L2214.85 581.142H2214.32C2213.06 581.014 2211.03 581.953 2210.28 583.319C2209.46 584.611 2209.46 585.603 2209.45 586.361C2209.67 590.491 2211.83 594.793 2213.89 600.535C2215.95 605.935 2217.85 611.955 2217.79 614.74L2217.64 615.978C2215.01 623.631 2192.07 638.509 2179.45 645.19C2185.4 597.237 2213.31 559.775 2219.2 511.021L2219.39 509.473L2218.53 508.192C2207.28 492.14 2166.15 463.74 2141.3 462.085L2139.42 462L2138.09 463.345C2136.66 464.892 2136.44 466.205 2136.16 466.91L2136 467.379L2135.51 467.859L2135.19 468.863C2133.29 474.861 2132.67 481.169 2132.67 487.583C2132.69 501.191 2135.33 515.493 2135.29 529.037C2135.29 533.957 2134.95 538.738 2134.09 543.392C2125.52 591.046 2119.8 638.456 2108.64 683.741C2080.4 701.597 2049.47 718.364 2015.88 730.51C2002.89 735.889 1985.73 734.106 1968.39 739.966C1967.08 740.147 1966.37 740.649 1965.95 740.809L1965.9 740.852H1961.49L1962.26 745.729C1966.28 768.303 1974.29 802.05 1999.99 803.235C2001.61 803.235 2003.23 803.064 2004.87 802.787C2020.51 799.82 2035.09 792.178 2049.58 781.377C2063.23 771.174 2077.06 762.07 2092.26 753.403C2087.92 798.357 2068.34 821.592 2040.06 837.741C2010.37 854.582 1970.69 862.566 1930.56 875.619L1928.84 876.163L1928.06 877.775C1927.59 878.959 1925.81 880.795 1925.75 884.445V886.836L1927.83 888.074C1941.05 895.631 1960.48 895.289 1974.51 897.274C1979.71 897.765 1984.69 898 1989.6 898C2063.26 897.904 2118 844.443 2138.3 791.751C2146.9 764.14 2155.36 736.775 2163.85 710.359C2172.99 704.895 2182.03 699.483 2190.98 694.99L2191.24 694.851ZM2349.5 818.828C2341.54 816.832 2334.82 815.882 2327.4 814.015L2326.38 818.113L2327.17 813.972C2321.36 812.851 2315.65 812.478 2310.04 812.478C2298.08 812.478 2286.63 814.1 2275.49 814.089C2268.15 814.089 2260.92 813.385 2253.67 811.186C2246.79 809.479 2239.43 804.996 2231.94 799.361C2212.49 785.454 2195.38 762.753 2185.06 744.865L2183.86 742.762H2176.64H2174.41L2173.15 744.598C2169.68 749.678 2168.27 755.623 2168.27 761.739C2168.64 793.821 2204.53 836.193 2216.41 853.238C2219.95 857.624 2221.86 862.427 2226.14 867.849C2229.18 871.915 2233.69 876.537 2240.55 878.821C2245.38 880.326 2250.06 880.998 2254.6 880.998H2254.77C2282.28 880.817 2303.79 857.902 2317.14 849.524C2320.42 846.994 2328.21 843.515 2335.45 839.598C2342.67 835.489 2349.95 831.476 2352.48 824.143L2353.75 819.906L2349.5 818.828Z" fill="black"/>
<path d="M2723.73 528.121L2726.4 531.402L2723.44 528.366C2722.47 529.329 2721.48 530.301 2720.64 531.146C2717.51 522.829 2713.87 512.792 2713.8 505.426C2713.78 504.336 2713.81 503.299 2713.95 502.38C2717.38 503.053 2720.03 503.801 2721.87 504.838C2727.12 507.703 2731.02 510.643 2735.53 513.764C2733.17 518.286 2728.01 524.721 2723.73 528.121ZM2813.04 566.294L2816.98 566.219L2825.15 567.705C2825.93 569.404 2826.85 571.254 2828.07 573.327C2826.77 576.47 2826.57 579.153 2825.93 580.351C2823.55 582.585 2820.61 583.782 2817.6 583.857C2814.24 583.889 2810.65 582.574 2807.23 578.822C2807.85 573.135 2809.44 570.73 2813.04 566.294ZM2821.25 499.119L2821.32 498.638L2821.26 498.104V497.944C2821.18 495.848 2822.36 492.973 2824.89 489.723L2821.56 487.136L2825.11 489.434C2838.36 467.895 2893.42 449.947 2920.73 440.208C2923.75 439.642 2925.17 438.551 2927.59 438.551C2929.39 438.594 2931.07 438.904 2933.6 441.587C2936.44 445.393 2937.53 448.963 2937.61 452.566C2937.74 458.178 2934.9 464.314 2930.81 470.556C2924.06 482.005 2916.27 493.454 2909.41 504.069L2909.26 504.315L2909.09 504.71C2900.71 525.983 2886.98 571.018 2863.08 570.185C2861.79 570.206 2860.45 570.131 2859.06 569.917C2855.8 561.526 2853.35 553.829 2850.88 545.994L2850.48 544.807L2849.54 544.048C2845.51 540.734 2841.17 538.917 2838.52 536.651C2835.83 533.679 2831.28 527.351 2827.79 520.232C2823.57 512.941 2821.27 505.897 2821.19 500.755L2821.25 499.119ZM2694.67 701.187L2739.91 672.998L2813.03 626.53C2816.97 625.055 2823.88 624.777 2830.97 624.681C2834.89 624.991 2839.64 625.29 2844.4 625.215C2851.31 625.076 2858.32 624.189 2864.21 620.704C2903.44 598.897 2918.3 550.398 2940.25 516.757C2948.76 503.31 2979.02 460.519 2978.75 428.418C2978.63 418.968 2975.44 409.914 2967.67 403.756C2959.93 397.62 2948.44 394.531 2932.28 394.798L2931.47 394.82L2930.73 395.13C2912.2 403.2 2866.43 446.729 2833.8 457.055C2837.98 445.81 2849.67 435.248 2861.66 424.056C2875.17 411.218 2889.26 397 2889.02 376.797L2888.97 375.161L2888.99 374.851C2888.47 369.517 2884.9 366.513 2880.36 362.505C2866.36 351.152 2838.15 337.341 2818.12 335.289L2815.01 335L2813.81 337.865C2810.53 346.524 2812.73 359.811 2811.45 368.47L2809.84 371.751L2794.02 407.23C2788.8 418.979 2785.1 434.607 2778.75 447.05C2772.25 459.557 2764.28 468.087 2749.58 468.451C2743.71 468.547 2736.59 467.253 2728.01 464.004C2725.29 462.913 2724.24 462.945 2722.67 462.24C2705.27 453.955 2695.49 438.263 2677.55 427.338C2670.02 421.352 2661.07 419.652 2653.97 415.419C2646.79 411.442 2639.03 403.083 2626.34 402.057L2621.73 401.725L2621.77 404.034L2617.01 404.12L2620.34 410.245C2625.45 419.534 2630.69 429.861 2635.86 439.31C2646.65 465.244 2660.99 497.74 2661.59 527.725V528.046C2661.68 533.209 2662.13 538.468 2662.22 543.418C2662.37 552.739 2661.14 559.933 2655.27 564.23L2655.09 564.38H2654.88C2636.1 551.617 2626.69 526.164 2591.64 526.635C2587.66 526.699 2583.38 527.105 2578.76 527.896L2577.45 528.131L2576.52 529.051C2576.12 529.286 2574.23 531.306 2574.36 533.53L2574.48 534.802L2574.69 535.86L2575.41 536.704C2589.37 552.878 2611.49 588.56 2613.7 613.243C2613.72 618.47 2612.82 624.264 2612.92 630.411C2612.97 635.755 2613.94 641.528 2617.34 647.129L2617.69 647.749L2618.29 648.23C2625.08 653.789 2631.85 659.348 2638.64 664.917L2640.37 666.36L2642.54 665.697C2648.17 663.784 2650.53 658.824 2652.52 653.693C2658.06 638 2661.09 613.703 2679.35 606.562C2688.48 607.374 2693.57 613.703 2703.26 618.043L2704.08 618.374L2704.99 618.363C2707.96 618.043 2709.06 617.262 2710.11 617.316L2712.74 617.273L2713.84 614.889C2716.63 608.978 2719.19 602.307 2721.77 596.738L2722.07 596.086L2722.14 595.402C2722.64 590.591 2723.95 584.584 2724.62 578.245L2732.03 572.558L2766.04 546.785L2768.6 547.138C2770.49 549.917 2773.07 555.476 2772.99 559.292C2773 561.002 2772.67 562.253 2772.01 563.162L2771.86 563.386L2771.72 563.653L2771.67 563.589C2770.54 564.434 2767.17 565.802 2765.1 566.433L2761.96 567.448L2762.25 571.703L2762.37 573.488L2763.8 574.664C2766.91 576.983 2770.7 577.774 2773.61 578.459C2774.91 585.514 2775.59 591.778 2778.14 599.036L2778.25 599.368L2778.45 599.688C2782.33 605.771 2790.41 613.82 2789.58 615.007L2789.47 614.975L2788.92 615.392L2788.57 615.926C2781.52 626.701 2754.48 641.881 2734.65 651.459C2731.23 653.693 2728.52 655.392 2726.24 656.141L2725.79 656.28L2725.44 656.483C2679.94 682.833 2634.62 708.21 2588.59 734.614C2570.6 746.64 2526.39 752.861 2525.75 785.925C2525.76 786.865 2525.81 787.956 2525.97 789.142L2526.17 790.543L2527.19 791.58C2537.68 801.981 2549.11 811.388 2561.43 819.875C2569.96 824.205 2580.13 824.718 2582.41 828.288L2584.42 830.704L2587.32 829.464C2617.55 816.668 2618.88 800.377 2626.51 793.803C2660.18 764.289 2699.87 740.077 2743.26 718.601C2753.16 714.688 2763.13 709.771 2772.95 705.912C2790.33 698.216 2810.01 686.329 2830.56 686.04C2832.03 686.008 2833.45 686.04 2834.89 686.136L2835.17 686.158C2834.89 689.878 2833.72 693.587 2832.49 696.217C2827.99 705.121 2817.6 710.829 2810.03 719.296C2798.88 733.492 2784.62 746.875 2771.24 758.367C2765.38 762.803 2753.11 767.175 2747.95 776.069C2746.69 779.318 2746.49 782.066 2746.53 784.599C2746.59 787.774 2746.99 790.692 2747.03 793.033C2747.07 794.915 2746.85 796.294 2746.45 797.245L2746.09 798.068V798.175L2745.67 798.646C2738.97 803.552 2715.52 810.714 2707.15 814.798C2694.31 822.74 2680.9 830.458 2667.51 836.231C2638.19 847.925 2600.2 849.015 2578.99 871.934L2577.42 873.655L2578.05 875.932C2580.59 883.672 2590.71 893.495 2603.3 903.212C2615.95 912.577 2630.44 920.861 2642.84 920.808C2644.19 920.808 2645.45 920.647 2646.7 920.434C2664.22 915.826 2677.5 902.71 2687.7 894.169C2701.19 883.041 2731.1 865.542 2753.97 859.769C2755.53 859.214 2757.38 859 2759.5 858.572C2761.52 864.035 2762.55 871.817 2764.91 879.406C2766.88 886.323 2767.85 892.565 2767.95 898.06C2768.11 910.856 2763.82 919.472 2756.16 926.227C2746.15 935.87 2728.2 941.022 2707.62 944.133C2705.27 944.453 2702.67 944.624 2699.93 944.678C2690.9 944.86 2680.47 943.62 2670.49 943.791C2666.47 943.855 2662.5 944.175 2658.68 944.934C2656.79 944.988 2654.75 946.88 2654.57 947.585L2654.22 948.216L2650.4 952.332L2655.38 954.876C2669.12 961.675 2686.25 963.289 2697.73 970.087C2718.9 982.081 2737.02 991.798 2757.93 1003.7L2758.41 1003.96L2758.91 1004.1C2759.89 1004.33 2761.3 1004.99 2763.57 1005H2763.64C2764.79 1004.98 2766.33 1004.59 2767.54 1003.51C2784.08 990.74 2806.98 947.81 2806.78 915.131C2806.72 911.262 2806.31 907.542 2805.48 904.046C2801.42 886.654 2794.6 868.503 2794.36 852.094C2794.32 849.507 2794.41 847.027 2794.72 844.633C2795.78 843.371 2802.99 839.844 2809.99 837.92C2817.47 835.632 2825.61 834.018 2827.41 833.986L2862.65 833.376L2863.32 833.12C2878.62 826.973 2882.81 811.217 2888.89 802.697L2889.08 802.43L2889.25 802.088C2890.14 800.11 2890.58 798.154 2890.55 796.347C2890.34 789.741 2884.52 787.133 2884.4 786.791L2884.07 786.513L2883.69 786.31C2875.92 782.034 2867.34 780.826 2858.98 780.975C2853.14 781.072 2847.34 781.799 2841.84 782.729C2835.82 783.765 2830.85 784.802 2825.95 785.807L2782.18 786.566L2782.07 786.427C2781.12 785.615 2779.85 781.873 2779.89 779.126L2780.09 776.945L2780.17 776.667C2792.04 765.454 2815.02 761.114 2831.81 749.89C2834.35 748.211 2838.32 746.234 2841.62 744.107C2858.77 730.114 2873.31 715.618 2888.85 702.213C2895.84 695.703 2915.18 681.753 2915.39 663.559C2915.34 659.626 2914.16 655.596 2911.74 651.876C2905.96 640.726 2893.97 637.113 2882.33 637.402C2866.34 637.733 2849.29 644.35 2839.5 649.706C2836.97 651.448 2834.05 652.292 2831.13 654.772C2802.51 669.214 2770.45 681.048 2738.41 693.897C2726.49 699.755 2713.41 704.726 2702.11 711.791C2694.67 715.33 2669.65 730.178 2661.75 730.274L2661.59 730.135C2663.59 718.441 2682.59 709.654 2694.67 701.187Z" fill="black"/>
<path d="M1736.63 734.319C1735.85 729.05 1731.1 723.74 1726.75 720.838C1720.38 716.6 1710.43 719.345 1703.18 718.367C1684.02 715.801 1666.4 709.323 1648.47 702.551C1641.51 699.933 1627.18 698.198 1621.92 692.645C1619.91 694.097 1621.92 692.645 1621.92 696.515C1622.46 698.524 1626.45 703.413 1634.99 716.758C1645.53 733.257 1657.33 747.306 1652.17 750.355C1638.16 758.62 1621.92 762.238 1607.69 770.24C1602.79 772.995 1599.23 774.951 1594.78 777.706C1590.31 780.472 1588.53 782.06 1582.8 781.975C1577.07 781.881 1570.07 778.137 1566.23 771.618C1562.39 765.087 1562.02 761.849 1568.68 758.326C1575.38 754.782 1590.94 743.762 1590.23 734.855C1589.51 725.969 1586.23 726.926 1581.46 721.994C1576.71 717.105 1565.36 738.525 1566.36 705.864C1566.41 704.328 1565.8 700.742 1566.47 700.091C1567.11 698.114 1582.75 694.885 1584.53 694.202C1585.95 693.392 1587.9 692.351 1590.84 690.837C1598.17 687.041 1615.14 679.007 1621.07 671.856C1622.8 669.764 1623.96 658.407 1624.05 656.472C1624.18 654.011 1626.17 648.869 1616.08 646.545C1606 644.232 1609.74 649.027 1599.24 653.685C1588.74 658.344 1563.71 665.305 1563.71 665.305C1563.71 665.305 1563.18 656.987 1561.98 649.29C1561.7 647.397 1561.34 645.073 1561.44 643.107L1561.48 642.286C1561.48 642.286 1562.55 633.653 1575.58 618.121C1588.8 602.317 1644.13 576.995 1662.97 569.455C1681.82 561.926 1713.88 549.718 1720.3 547.572C1726.71 545.406 1725.5 536.794 1719.1 528.182C1712.93 519.885 1706.73 525.816 1699.84 528.802C1691.55 532.419 1682.17 531.862 1673.59 534.502C1664.86 537.194 1656.5 541.431 1648.14 545.049C1636.51 550.075 1613.64 561.558 1606.05 564.071C1598.43 566.595 1588 573.767 1582.8 576.269C1577.59 578.793 1577.59 576.648 1581.59 566.942C1585.6 557.257 1600.84 553.314 1606.85 551.884C1612.85 550.433 1621.66 543.619 1631.3 536.079C1645.82 524.69 1656.01 509.275 1667.41 495.015C1673.3 487.655 1680.1 480.62 1685.62 473.038C1689.98 467.044 1694.27 460.146 1695.62 452.753C1697.09 444.646 1693.06 441.165 1688.23 435.213C1679.79 424.782 1660.24 433.026 1649.83 435.35C1646.98 435.981 1642.99 436.286 1640.56 438.01C1634.41 442.385 1626.13 457.98 1616.06 454.604C1612.85 453.521 1613.25 436.296 1612.45 426.244C1611.65 416.201 1600.04 410.092 1588 401.479C1575.98 392.867 1559.54 376 1542.31 376C1525.06 376 1520.65 409.734 1519.45 421.585C1518.63 429.63 1518.96 437.748 1518.12 445.781C1517.34 453.248 1514.67 460.219 1513.38 467.57C1511.15 480.357 1518.4 505.983 1502.22 512.387C1498.6 513.828 1498.6 519.569 1495.81 524.238C1493 528.897 1481.77 536.794 1484.98 542.546C1488.19 548.277 1499.8 537.151 1502.22 536.794C1504.62 536.436 1508.23 542.882 1509.03 544.323C1512.42 550.391 1509.53 562.347 1509.7 569.056C1510.03 580.77 1512.62 593.431 1510.95 605.082C1510.01 611.581 1474.85 616.544 1464.19 619.867C1451.85 624.441 1463.87 636.545 1467.62 643.022C1469.05 644.305 1464.19 645.02 1503.14 648.522C1504.23 648.617 1504.51 656.451 1505.13 659.868C1506.27 666.672 1508.23 673.728 1508.02 680.647C1508.02 680.647 1489.79 688.418 1490.11 694.486C1490.44 700.553 1489.47 705.779 1497.38 707.115C1505.28 708.45 1510.52 711.363 1510.52 711.363C1510.52 711.363 1513 717.883 1513.71 729.187C1514.09 735.044 1512.39 735.034 1512.44 736.422C1512.57 738.409 1499.41 742.437 1497.45 744.256C1490.81 750.502 1493.08 761.712 1504.67 769.977C1508.99 773.048 1513.24 768.452 1515.68 772.364C1519.06 777.759 1513.49 787.664 1512.56 789.746C1509.35 796.96 1502.95 808.559 1491.84 813.648C1480.73 818.717 1469.97 826.046 1436.49 826.909C1431.63 827.024 1428.22 832.366 1426.75 838.066C1427.87 841.567 1428.68 845.29 1427.48 850.411L1428.55 851.41C1434.21 854.733 1442.08 858.497 1447.28 863.829C1452.43 869.16 1449.47 873.156 1462.94 873.366C1482.33 873.682 1483.5 859.149 1499.35 859.812C1515.2 860.464 1503.47 874.407 1503.35 880.864C1503.22 887.636 1496.04 895.06 1493.36 901.054C1486.41 916.554 1495.2 936.187 1504.69 948.605C1511.92 958.038 1529.54 985.484 1544.35 974.411C1550.17 970.057 1568.34 941.665 1573.8 931.255C1579.3 920.834 1581.63 914.02 1581.78 905.923C1581.94 897.847 1571.29 831.462 1576.23 826.688C1584.61 818.591 1602.32 816.782 1612.95 812.786C1631.88 805.678 1651.01 797.37 1669.3 788.779C1675.86 785.708 1682.24 782.27 1688.67 778.957C1696.66 774.814 1703.38 768.621 1711.29 764.267C1717.85 760.65 1727.34 756.969 1731.03 749.955C1734.26 743.972 1737.42 739.566 1736.63 734.319ZM1609.95 490.052C1614.49 480.094 1633.45 473.448 1633.45 473.448C1636.74 483.038 1623.15 493.743 1621.5 495.594C1619.86 497.445 1619.86 500.389 1619.03 503.344C1618.19 506.309 1611.59 509.243 1611.59 509.243C1611.59 509.243 1605.41 500.021 1609.95 490.052Z" fill="black"/>
<path d="M1462.18 621.917L1461.46 621.243L1459.8 619.42C1457.8 616.206 1443.35 614.404 1442.65 610.748C1440.58 600.158 1430.23 596.28 1424.13 596.153C1418.03 595.995 1407.12 591.138 1403.56 589.146C1400 587.144 1387.79 584.309 1381.86 580.137C1375.94 575.953 1378.94 561.296 1378.21 556.681C1377.33 550.917 1383.2 542.044 1385.57 537.144C1391.88 524.141 1405.86 511.001 1420.5 508.283C1431.05 506.312 1440.28 506.123 1445.7 495.238C1458.61 469.295 1429.28 450.686 1408.73 444.29C1398.42 441.097 1393.32 437.082 1387.72 435.554C1382.12 434.016 1364.46 429.548 1356.89 426.724C1349.3 423.9 1335.12 418.884 1328.89 424.659C1322.64 430.433 1330.71 436.387 1345.2 449.348C1352.03 455.438 1356.52 461.982 1357.94 471.023C1359.27 479.379 1359.87 484.458 1365.92 490.822C1373.25 498.515 1379.58 504.257 1379.35 515.669C1379.1 527.692 1370.56 554.257 1368.13 559.051C1365.73 563.783 1360.67 566.47 1357.93 571.032C1346.81 589.578 1350.47 605.268 1361.11 622.602C1369.6 636.438 1375.52 663.276 1377.08 675.657C1378.64 688.028 1373.13 718.207 1370.99 727.079C1368.84 735.931 1363.96 754.35 1358.88 785.108C1353.81 815.877 1351.58 821.884 1348.47 822.368C1345.38 822.843 1340.47 836.541 1338.84 841.852C1336.9 848.206 1342.99 858.459 1343.98 864.939C1345.97 878.111 1343.15 907.563 1365.48 902.399C1386.86 897.426 1384.5 891.251 1390.94 866.899C1395.95 847.9 1403.8 836.499 1407.33 816.088C1410.84 795.667 1414.68 795.382 1415.09 789.007C1415.5 782.643 1413.18 774.476 1413.25 756.795C1413.33 739.124 1413.54 711.01 1413.38 700.947C1413.23 690.873 1414.78 682.749 1416.3 669.893C1417.83 657.027 1427.58 649.525 1435.78 645.731C1438.55 644.446 1462.31 640.768 1465.3 640.305C1466.58 640.094 1464.63 637.312 1465.51 636.343L1462.61 634.509C1462.22 631.19 1463.83 627.512 1463.75 627.344L1463.27 625.278C1463.02 623.93 1462.95 622.844 1462.18 621.917ZM1402.6 696.532C1402.82 701.505 1387.38 757.005 1384.19 761.505C1380.96 766.004 1380.42 766.089 1379.74 761.695C1379.05 757.29 1382.38 746.257 1386.27 724.614C1390.2 702.97 1403.5 684.361 1403.5 684.361C1404.48 690.726 1402.38 691.548 1402.6 696.532Z" fill="black"/>
</svg>
